<svg xmlns="http://www.w3.org/2000/svg" width="74" height="74" fill="none">
  <path fill="#BCBCBC" d="M0 0h74v74H0V0Zm.173.173C.177 16.546.171 32.918.176 49.29c-.022.713-.003 1.429-.009 2.142 0 7.4.001 14.8-.001 22.2a.322.322 0 0 0 .051.207c1.241-.015 2.484-.002 3.726-.007l20.538.001c.134.027.27-.1.395-.023.111.035.232.027.348.029h48.479c.034-.02.102-.056.136-.074V25.285c.001-.158.015-.321-.057-.466.089-.311.04-.637.052-.955.004-7.883-.01-15.765.006-23.648-.079-.059-.18-.05-.272-.051-8.092.009-16.184-.013-24.275.01C32.92.172 16.546.178.173.174Z"/>
  <path fill="#000" d="M37.707 3.74c.23.008.458.033.688.03-.027 1.13-.124 2.259-.155 3.39.427.032.855.047 1.281.076.002.169-.002.336-.022.503-1.093-.076-2.188-.114-3.281-.185.007-.164.01-.33.013-.495.438.015.875.057 1.313.062.038-1.128.12-2.254.163-3.381ZM33.542 3.954c.65-.076 1.304-.114 1.955-.183.112 1.295.226 2.59.33 3.885-.233.002-.462.053-.695.035-.017-.504-.084-1.003-.116-1.506-.491.022-.98.117-1.472.097-.444-.02-.925-.282-1.033-.74-.094-.398-.127-.898.2-1.202.213-.235.521-.354.831-.386Zm.34.468c-.26.022-.53.14-.66.378-.099.217-.077.474.011.69.08.196.316.244.503.273.408.024.814-.058 1.22-.075-.01-.452-.068-.9-.103-1.35-.324.02-.647.053-.97.084ZM41.068 4.12c.503-.15 1.055-.067 1.534.129.58.242.826.898.9 1.48.043.6-.039 1.24-.364 1.76-.268.37-.666.692-1.14.717-.528.03-1.112-.032-1.53-.386-.31-.3-.509-.725-.504-1.16.212.025.436.021.64.074.017.334.173.677.472.848.269.14.59.156.885.104.379-.113.593-.495.714-.847.164-.574.205-1.227-.073-1.773-.227-.441-.797-.622-1.255-.479-.365.144-.578.513-.642.885-.223-.013-.444-.042-.664-.064.12-.556.483-1.083 1.027-1.288ZM45.517 5.19c.45-.113.923-.003 1.338.183a1.7 1.7 0 0 1 .992 1.346c.062.561-.08 1.13-.33 1.632-.232.468-.655.862-1.173.978-.497.096-1.017-.021-1.456-.261a1.708 1.708 0 0 1-.862-1.425c-.019-.56.14-1.125.416-1.61.233-.404.615-.735 1.075-.843Zm.203.519c-.17.055-.303.181-.416.315-.346.394-.513.917-.573 1.43-.02.39.004.866.345 1.122.285.199.646.299.992.248.348-.078.572-.385.752-.67.27-.513.42-1.114.304-1.692-.103-.614-.854-.912-1.404-.753ZM49.141 6.654c.339-.101.71-.046 1.026.105.598.277 1.19.568 1.788.846-.533 1.178-1.065 2.357-1.615 3.526-.59-.291-1.19-.56-1.78-.852-.332-.166-.637-.464-.682-.848.007-.238.105-.467.237-.662.195-.264.542-.373.861-.334-.276-.24-.506-.6-.416-.98.083-.32.251-.675.581-.801Zm.318.616c-.145.126-.222.312-.26.495-.03.279.153.54.392.668.326.179.671.32 1.002.491.19-.381.36-.773.537-1.16-.31-.147-.617-.297-.927-.44-.23-.105-.506-.165-.744-.054Zm-.538 1.638c-.19.06-.28.27-.318.452-.042.246.156.457.36.56.317.166.648.302.965.467.161-.335.311-.675.466-1.012-.284-.135-.567-.272-.852-.403a.867.867 0 0 0-.62-.064ZM50.844 11.28c.73-1.061 1.457-2.124 2.189-3.185.176.142.383.25.546.408-.558.83-1.13 1.65-1.695 2.475 1.11-.426 2.202-.903 3.308-1.343.202.156.417.295.619.45-.741 1.048-1.456 2.114-2.186 3.17-.192-.123-.37-.267-.565-.386.563-.84 1.147-1.665 1.712-2.503-1.097.438-2.184.905-3.284 1.338-.234-.087-.423-.295-.644-.424ZM8.038 9.934c.554-.009 1.108-.004 1.662-.003-.113.505-.197 1.015-.303 1.52.664-.02 1.385.1 1.889.57.46.41.714 1.005.806 1.606.148.926-.004 1.869-.228 2.77-.315 1.223-.905 2.435-1.926 3.22-.667.538-1.534.793-2.386.746-.108.495-.205.993-.31 1.49-.57-.01-1.141-.006-1.712-.004.118-.492.21-.99.315-1.485-.571.02-1.174-.06-1.654-.393-.65-.447-.995-1.23-1.065-1.997-.089-1.03.103-2.066.409-3.047.38-1.205 1.107-2.349 2.205-3.013.587-.36 1.285-.477 1.965-.467.095-.507.225-1.008.333-1.513Zm-1.978 4.01c-.573.479-.847 1.213-1.002 1.923-.119.599-.215 1.258.066 1.826.236.478.847.526 1.318.54.32-1.553.651-3.105.96-4.66-.465.013-.967.065-1.342.37Zm2.733-.372c-.317 1.556-.648 3.108-.963 4.663.467-.013.962-.075 1.347-.363.427-.327.68-.826.856-1.323.19-.595.317-1.223.262-1.85-.038-.33-.154-.675-.42-.892-.312-.221-.716-.214-1.082-.235ZM11.633 21.481c.765-3.65 1.517-7.303 2.275-10.955.575.005 1.15.001 1.726.002-.283 1.366-.573 2.73-.846 4.096.81 0 1.621-.006 2.432.003.285-1.366.57-2.732.85-4.1.569 0 1.138.004 1.707-.001-.756 3.651-1.518 7.301-2.269 10.954-.568.003-1.136-.004-1.704.004.312-1.566.65-3.127.966-4.692-.812.002-1.624.003-2.436 0-.325 1.563-.65 3.126-.972 4.689h-1.73ZM18.709 21.482c.773-3.65 1.509-7.31 2.285-10.96 1.979.013 3.958.005 5.937.004-.75 3.652-1.521 7.3-2.266 10.953-.567.004-1.135.001-1.702.002.608-2.918 1.211-5.837 1.818-8.755-.85-.004-1.7-.003-2.55 0-.594 2.92-1.216 5.834-1.808 8.754-.571.003-1.143-.001-1.714.002ZM26.02 21.482c.74-3.655 1.521-7.301 2.26-10.956 1.098.005 2.196.001 3.295.002.554-.014 1.153.15 1.513.597.38.5.458 1.153.467 1.763-.056 1.16-.363 2.32-.943 3.332-.37.61-.895 1.18-1.591 1.404-.358.126-.74.152-1.117.145-.459-.002-.917 0-1.376 0-.254 1.237-.518 2.473-.767 3.711-.58.001-1.16 0-1.741.002Zm3.554-8.758-.585 2.82c.41-.002.818.001 1.228 0 .315-.005.657-.056.892-.285.327-.342.466-.814.551-1.267.047-.349.068-.742-.145-1.045-.126-.183-.37-.201-.572-.22-.457-.008-.913-.002-1.369-.003ZM56.992 11.027c.19.13.349.301.529.446-.725.858-1.464 1.705-2.183 2.57.349.28.667.598 1.015.88.637-.678 1.198-1.464 2.02-1.935a.792.792 0 0 1 .705-.07c.262.102.457.314.646.514-.118.123-.225.254-.335.383-.127-.147-.288-.3-.497-.295-.258-.014-.449.19-.634.338-.634.567-1.167 1.234-1.736 1.864-.685-.577-1.348-1.18-2.014-1.78.832-.968 1.664-1.937 2.484-2.915ZM59.588 13.743c.382-.318.734-.673 1.13-.972.112.15.246.28.374.414-.244.226-.477.463-.723.687.736.801 1.464 1.61 2.205 2.407.235-.223.466-.451.706-.668.157.103.26.285.404.41-.34.36-.69.708-1.033 1.063a2.962 2.962 0 0 1-.305-.344c-.418.022-.795.224-1.153.421-.66.357-1.181.908-1.717 1.423a344.46 344.46 0 0 1-1.868-2.04c.807-.774 1.623-1.538 2.428-2.314-.15-.162-.298-.326-.448-.487Zm-1.168 2.97c.328.349.642.71.971 1.057.71-.66 1.464-1.364 2.44-1.585-.455-.473-.886-.97-1.334-1.45-.686.666-1.38 1.324-2.077 1.978ZM62.357 18.073c.42-.13.901-.125 1.283.113.428.28.706.736.892 1.204.208.52.125 1.139-.194 1.596-.33.421-.793.72-1.276.936-.652.297-1.497.096-1.932-.476-.378-.458-.709-1.071-.53-1.678.159-.62.658-1.074 1.197-1.375.518.849 1.037 1.697 1.558 2.544.36-.257.665-.628.724-1.08.05-.692-.653-1.47-1.375-1.185-.116-.2-.263-.383-.347-.599Zm-1.204 2.496c.116.318.33.621.645.766.375.14.805.064 1.14-.146-.39-.631-.783-1.262-1.162-1.9-.43.242-.797.776-.623 1.28ZM56.624 19.373a.82.82 0 0 1 .271-.134c.03.1.06.201.088.303-1.756 1.225-3.5 2.465-5.252 3.697a6.11 6.11 0 0 1-.92.564c-.481.24-.822.668-1.222 1.014.26.323.582.59.837.917.18.359.522.629.609 1.034.014.112.026.256-.052.345-.118.025-.225-.04-.33-.076-.41-.587-.7-1.286-1.29-1.722a1.489 1.489 0 0 0-.765-.287c-2.247-.056-4.48-.371-6.727-.39-.843.014-1.694.02-2.527.164-1.337.54-2.671 1.092-4.005 1.64.562.359 1.186.644 1.645 1.138.085.108.014.24-.02.354-.642-.188-1.062-.785-1.7-.98-.162-.056-.334-.045-.501-.034-1.07 1.873-2.772 3.252-4.068 4.952-1.004 1.256-1.685 2.803-1.74 4.424.92-.142 1.927-.113 2.74.389.116.156.27.279.396.426.304.774-.289 1.522-.207 2.305.96-.49 1.565-1.443 1.964-2.412a20.88 20.88 0 0 0 .556-1.546c.1-.202-.058-.406-.022-.615.063-.608.522-1.065.712-1.628.144.035.37.073.356.272-.047.308-.336.54-.299.869 1.253-.988 2.733-1.65 3.932-2.71-.12-.215-.256-.42-.373-.636a.336.336 0 0 1 .21-.408c.565.437.649 1.229 1.188 1.685.128.127.302.2.481.209-.19-.328-.413-.64-.566-.988-.1-.22-.09-.465-.072-.7.137-.022.316-.01.403.111.027.187.035.386.135.552.217.4.6.69.762 1.125 1.543.253 3.11.433 4.6.933.789.248 1.54.619 2.208 1.107.108.078.206.177.329.234 1.499-.288 2.858-1.404 3.279-2.895.218 0 .41.186.393.408-.23.831-.791 1.543-1.49 2.036-.48.333-1 .61-1.545.815 1.878 1.087 3.465 2.617 5.413 3.59-.045-.415.32-.683.568-.955.282-.338.463-.796.375-1.24-.092-.465-.357-.866-.55-1.291-.37-.519-.785-1.008-1.11-1.558-.533-.853-.96-1.843-.86-2.87.118-.01.235.005.35.034-.029.913.45 1.73.953 2.453.308.441.624.88.875 1.355.262.495.703.897.829 1.459.43-.012.716-.385 1.102-.518l5.534-1.638.07.199-5.139 1.86c-.168.055-.354.009-.518.084-.29.116-.555.285-.838.414-.29.846-.648 1.771-1.448 2.265.26.393.752.5 1.087.805.153.134.321.302.3.523.013.764.004 1.589-.422 2.254-.18.248-.407.487-.698.598a.741.741 0 0 0-.633.233c-.175.192-.476.245-.681.069.223.353.234.801.106 1.19-.094.295-.204.587-.317.876-.268.47-.797.755-1.321.827-.886-.045-1.756-.23-2.634-.342.307.368.8.614.926 1.106.012.386-.005.798-.22 1.134a5.2 5.2 0 0 1-.663.82c-.563.408-1.269.148-1.892.09-.24.474.022 1.052-.279 1.507-.278.367-.738.524-1.163.65-.93.234-1.889.031-2.83-.006-.594-.054-1.183.06-1.77.123-.113.685.075 1.399-.137 2.07-.343.872-1.309 1.431-2.235 1.352-.391.008-.65-.336-.976-.502-.227.626-.732 1.084-1.16 1.573-.63-.066-1.31.01-1.88-.312-.355-.202-.507-.594-.714-.921-.621.285-.811 1.037-1.4 1.361-.303.183-.674.18-1.017.173-.451-.023-.945-.139-1.253-.492-.282-.515-.54-1.043-.826-1.555-.394.308-.794.607-1.19.913-.677-.206-1.434-.247-2.021-.68-.362-.258-.512-.693-.64-1.099a2.512 2.512 0 0 1-.03-1.357 2.37 2.37 0 0 0-.826-.162c-.41-.005-.83-.012-1.224.115-.575.245-1.163.463-1.726.736a20.4 20.4 0 0 0-2.057.783c-.575.27-1.182.46-1.774.687-.241.081-.474.19-.722.25l-.094-.2c1.241-.474 2.472-.975 3.705-1.472.524-.223 1.069-.395 1.58-.65.341-.172.713-.267 1.085-.351.385-.087.764-.224 1.164-.23.354.001.7.09 1.043.17.408-1.144.936-2.239 1.447-3.34.446-.928.868-1.869 1.27-2.817.175-.151.368-.285.563-.41.636-.05 1.176.362 1.751.563.317.088.294.491.545.658.299-.805.601-1.608.9-2.412.653-.198 1.363-.518 2.043-.245.38.188.78.447.92.872.174.458.067.952.086 1.428.068-.255.16-.502.246-.752.033-.13.167-.19.27-.259.704-.414 1.623-.352 2.317.052.455.433.411 1.122.311 1.69.192-.09.376-.225.594-.237.511.039 1.04.257 1.33.698.348.54.382 1.203.413 1.825.02.637.033 1.284.227 1.897 1.51-.169 3.042.228 4.54-.099.261-.07.542-.118.771-.267.324-.355.231-.876.144-1.303-1.592-.11-3.182-.257-4.773-.378-.035-.086-.109-.167-.094-.264.044-.097.124-.171.195-.249.938.044 1.862.221 2.798.29.513.012 1.026-.008 1.538.007.83.056 1.66.188 2.493.127.375-.272.698-.653.776-1.122.08-.288-.036-.603-.255-.798-.323-.276-.744-.433-1.017-.769a.251.251 0 0 1-.068-.217c-1.627-.537-3.359-.559-5.023-.926-.047-.106-.132-.205-.126-.325.062-.119.183-.234.328-.183 1.82.265 3.619.656 5.417 1.037.815.2 1.642.353 2.478.428.458.032.973-.048 1.294-.407a2.08 2.08 0 0 0 .314-1.551c-.088-.243-.187-.554-.464-.632-2.444-.932-4.887-1.87-7.33-2.806-.01-.162.092-.42.293-.341 1.652.586 3.322 1.14 4.905 1.899.765.173 1.453.57 2.201.794.402.139.83.207 1.255.164.39-.046.757-.234 1.037-.506.328-.53.555-1.168.448-1.797-.058-.21-.1-.478-.321-.58-2.18-1.223-4.068-2.888-6.218-4.156-.302-.19-.643-.324-.904-.575-.895-.695-1.998-1.045-3.075-1.348-1.607-.445-3.265-.646-4.904-.929-.46-.151-.938-.36-1.433-.25-.798.108-1.444.63-2.056 1.111-.495.418-1.012.815-1.573 1.137-.29 1.141-.615 2.3-1.265 3.296-.493.795-1.212 1.478-2.103 1.797-.046.108-.058.246-.165.317-.489.386-1.157.465-1.745.292-.54-.16-1.154-.369-1.423-.91-.286-.563-.22-1.22-.222-1.831-.02-.312.08-.613.132-.917.28-1.248.572-2.505 1.078-3.685.494-1.21 1.237-2.34 2.267-3.157-.375.088-.727.27-1.116.301-.958.159-1.76.777-2.398 1.479-.817.886-1.517 1.939-2.609 2.518-.295.115-.468.394-.7.595-.871.78-1.896 1.375-2.726 2.204-.415.428-.78.922-.972 1.492-.07.182-.095.38-.189.554-.133.26-.196.56-.393.785a.4.4 0 0 1-.43.098c-.127-.28.16-.483.236-.726.013-.09-.059-.113-.123-.069-.73.362-1.315.976-2.086 1.26-1.938.661-3.869 1.345-5.81 1.993a10.417 10.417 0 0 0-.074-.366c.411.007.804-.126 1.195-.234 1.354-.413 2.667-.947 3.964-1.51.66-.297 1.318-.602 1.95-.954.305-.176.623-.347.867-.606.09-.096.232-.085.35-.114.146-.554.416-1.083.826-1.49.678-.734 1.579-1.206 2.31-1.88.658-.683 1.4-1.276 2.125-1.885 1.062-.904 2.142-1.81 3.002-2.916.887-.63 2.03-.62 3.018-1 .192-.087.412-.148.548-.32.86-.978 1.435-2.183 2.385-3.085.59-.583 1.38-.939 2.202-1.028.731-.264 1.459-.543 2.19-.81.152-.053.3-.13.463-.143 2.823-.224 5.633.267 8.455.266.384-.02.771-.006 1.154-.05.604-.685 1.444-1.081 2.21-1.55 1.768-1.158 3.46-2.43 5.22-3.599Zm-27.5 17.311c-.169.88-.484 1.75-.45 2.657.192.393.522.782.989.818.508.04 1-.176 1.442-.404.216-.842.326-1.712.383-2.578-.63-.571-1.562-.62-2.363-.493Zm4 7.41c-.25.528-.286 1.114-.351 1.684.475.412 1.142.594 1.757.441.124-.007.185-.133.233-.23.187-.443.248-.93.24-1.408.004-.139-.139-.211-.216-.308-.434-.428-1.143-.474-1.663-.179Zm3.357 1.205c-.066.165-.055.355-.115.525-.129.409-.28.834-.2 1.27.428.267.96.327 1.455.303.105-.023.278-.015.307-.148.164-.565.416-1.127.349-1.732-.44-.492-1.268-.679-1.796-.218Zm-7.028.374c-.288.564-.655 1.178-.51 1.838.136.409.604.465.96.573.272.088.636.106.816-.16.22-.407.393-.847.48-1.302.032-.197.031-.454-.166-.563-.328-.212-.66-.474-1.067-.491-.177-.008-.346.058-.513.105Zm2.923.636c-.706 1.428-.978 3.016-1.53 4.502-.06.158-.051.329-.08.494-.093.619-.263 1.227-.309 1.853-.076.662.049 1.361.44 1.91.13.172.239.388.454.465.288.11.604.078.903.14.459.014.884-.266 1.145-.63.29-.404.494-.862.722-1.3.345-2.433 1.16-4.824 1.007-7.309-.326.064-.635.195-.96.253a15.52 15.52 0 0 1-1.572-.4c-.071-.016-.184-.081-.22.022Zm6.792.63c-.29.108-.413.436-.431.72-.024.342-.026.687.005 1.03.319.121.614.358.973.339.214-.004.402-.114.593-.197.104-.525.072-1.062.079-1.593-.148-.071-.286-.157-.429-.237a.96.96 0 0 0-.79-.061Zm-3.25.367c-.38 1.456-.537 2.963-.996 4.399-.06.17-.044.353-.08.529-.084.59-.32 1.188-.16 1.788.057.283.266.49.384.745.172.323.547.468.893.507.284.029.569.08.853.08.282-.305.55-.621.834-.923.178-2.231.541-4.457.441-6.702-.563.06-1.152.182-1.7-.026a1.406 1.406 0 0 1-.47-.397Zm-9.262 4.426c-.166.65-.134 1.364.166 1.971.458.573 1.249.678 1.933.723.296-.329.682-.576.92-.956.163-.284.195-.616.272-.928.308-1.376.603-2.756.919-4.13-.171.065-.333.168-.522.162-.742.07-1.533-.163-2.036-.732-.413 1.353-1.313 2.509-1.652 3.89Zm12.069-2.506c-.495 1.214-.273 2.553-.511 3.816.238.386.294.947.764 1.139.375.066.808.177 1.154-.046.455-.336.801-.84.868-1.41.161-1.17-.368-2.295-.333-3.462-.22.086-.424.213-.645.297-.452.063-.938-.045-1.297-.334ZM64.64 21.903c.223-.169.496-.304.782-.293.394.066.68.39.864.724.315.615.589 1.25.907 1.863-1.142.574-2.29 1.137-3.433 1.707a137.25 137.25 0 0 1-.857-1.796c-.154-.318-.21-.707-.056-1.035.176-.268.488-.426.8-.466.27.003.53.132.71.33-.078-.358-.026-.795.283-1.034Zm.136 1.154c.076.467.366.862.54 1.294.377-.188.763-.361 1.13-.57-.171-.33-.32-.67-.486-1-.101-.19-.258-.376-.474-.428-.383-.046-.77.31-.71.704Zm-1.128.25c-.319.107-.336.517-.214.777.155.327.299.66.475.977.315-.17.639-.324.96-.482-.124-.323-.29-.63-.44-.942-.14-.274-.48-.516-.781-.33ZM67.044 25.338c.158-.058.317-.115.478-.168.105.26.247.543.154.827-.064.122-.18.206-.278.299.538.154.863.681 1.004 1.192.128.414.124.923-.202 1.246-.356.331-.975.496-1.377.153-.447-.433-.712-1.01-.956-1.573a.966.966 0 0 0-.202-.294c-.32-.018-.704.118-.818.446-.094.364.037.748.228 1.059a.735.735 0 0 0 .852.285c.066.209.139.415.207.624-.302.085-.643.101-.923-.064-.427-.22-.644-.68-.788-1.114-.12-.381-.232-.81-.061-1.193.111-.315.39-.54.701-.643.588-.206 1.185-.387 1.775-.588.099-.04.213-.08.268-.18.023-.11-.031-.213-.062-.314Zm-.997 1.466c.393.458.475 1.131.953 1.527.378.2.904-.084.936-.515.007-.446-.243-.911-.665-1.09-.392-.198-.833-.036-1.224.078ZM65.507 30.61c.377-.518 1.024-.75 1.64-.817.56-.08 1.201-.003 1.621.412.652.584.766 1.752.081 2.358.615-.083 1.23-.175 1.845-.263.044.232.08.467.089.704-1.71.23-3.419.482-5.127.73a62.953 62.953 0 0 1-.093-.663c.162-.023.327-.028.484-.077-.854-.418-1.081-1.633-.54-2.384Zm1.433-.044c-.36.072-.737.21-.962.516-.294.341-.3.867-.075 1.246.233.346.65.533 1.063.523.458-.012.943-.062 1.34-.313.298-.226.539-.574.532-.962a1.006 1.006 0 0 0-.487-.888c-.415-.278-.948-.208-1.411-.122Z"/>
  <path fill="#000" d="M32.952 32.305c.13.038.208.21.112.321-.277.47-.528.958-.82 1.418l-.125.06a1.089 1.089 0 0 1-.176-.29c.39-.466.683-1 1.009-1.51ZM65.69 34.705c1.262-.11 2.525-.228 3.789-.336.04.23.048.465.064.698-1.103.093-2.204.2-3.306.291.05.641.115 1.28.159 1.921 1.104-.11 2.21-.195 3.313-.303.022.235.048.47.056.706-1.265.105-2.53.224-3.794.336-.094-1.105-.194-2.208-.282-3.313ZM4.966 34.729c1.748.07 3.495.176 5.243.272-.067 1.27-.131 2.538-.197 3.807a6.018 6.018 0 0 1-.614-.04c.052-1.019.097-2.038.16-3.057-.535-.026-1.069-.076-1.602-.079-.067.919-.104 1.846-.15 2.769-.208-.001-.416-.017-.625-.033.053-.93.108-1.86.138-2.792-.593.004-1.184-.074-1.778-.073-.03 1.049-.1 2.097-.154 3.145-.206-.005-.41-.027-.615-.027.064-1.298.142-2.595.194-3.892ZM46.268 36.798c-.01-.257-.125-.539.044-.77.266-.005.45.215.53.447.1.304.232.606.224.932.054.553.111 1.175-.245 1.647-.253.298-.628.467-1.003.551-.036-.118-.092-.245-.032-.365.205-.308.718-.34.779-.754.11-.563.14-1.25-.297-1.688ZM64.49 39.447c.293-.441.767-.801 1.308-.85.123-.018.248-.024.373-.027-.029.25-.045.503-.085.753a1.237 1.237 0 0 0-1.216.89c-.135.476-.167 1.02.075 1.467.18.354.547.556.894.715.724.285 1.573.364 2.295.028a1.44 1.44 0 0 0 .846-.922c.09-.323.14-.668.063-.997-.1-.535-.579-.955-1.105-1.045.025-.257.057-.514.077-.771.529.118 1.021.417 1.326.871.438.587.4 1.378.249 2.059-.192.989-1.107 1.807-2.126 1.82-.797.016-1.643-.091-2.317-.55-.512-.365-.947-.914-.987-1.564-.043-.636.026-1.308.33-1.877ZM3.804 39.223c.483-.077.962-.196 1.448-.252.035.16.048.324.075.487.644.3 1.373.338 2.072.305.437-.036.868-.118 1.303-.173.129.92.241 1.842.387 2.76-1.094.172-2.192.322-3.29.475.017.223.05.445.082.668-.49.045-.978.105-1.467.147-.029-.19-.055-.382-.082-.572.319-.052.64-.103.96-.137-.114-1.09-.29-2.175-.436-3.262-.325.048-.65.101-.976.14a12.479 12.479 0 0 0-.076-.586Zm1.63.955c.069.656.177 1.309.261 1.963.934-.154 1.876-.255 2.807-.418-.075-.47-.128-.944-.201-1.414-.947.126-1.963.268-2.866-.131ZM44.353 41.548c-.021-.172.168-.234.283-.31.296.265.685.473.83.866.11.368-.143.696-.328.99-.252.381-.718.615-1.173.544-.1-.02-.123-.142-.169-.216.19-.272.516-.362.804-.486.293-.112.456-.454.399-.754-.117-.298-.49-.365-.646-.634ZM5.563 44.184c1.23-.33 2.457-.677 3.689-1.002.052.227.118.45.17.676-.96.26-1.922.518-2.88.79 1.13.371 2.255.752 3.383 1.125.069.25.147.497.188.753-1.225.33-2.45.667-3.674 1.003-.054-.228-.117-.454-.174-.68.955-.266 1.918-.509 2.867-.793-1.123-.38-2.249-.75-3.373-1.125l-.196-.746ZM43.395 45.862c.067-.135.231-.087.35-.074.066.417.079.905-.239 1.228-.253.052-.399.295-.638.367-.177.03-.282-.14-.302-.29.156-.256.531-.198.68-.457.149-.232.025-.534.149-.774ZM6.567 49.02c1.124-.594 2.26-1.166 3.382-1.766.122.199.214.414.326.618-.459.245-.921.483-1.386.718.254.566.557 1.108.817 1.671.482-.2.931-.475 1.399-.707.114.204.211.418.32.625-1.14.575-2.264 1.18-3.403 1.756-.103-.208-.205-.416-.31-.622.528-.263 1.047-.544 1.574-.81-.28-.56-.564-1.118-.838-1.68-.518.28-1.05.536-1.567.817-.109-.205-.21-.413-.314-.62ZM65.099 48.199c.201-.364.567-.7 1.005-.696.35.047.699.194.949.45.271.338.291.823.127 1.215-.257.633-.546 1.253-.813 1.882-1.168-.516-2.327-1.049-3.489-1.58.1-.208.188-.42.28-.631.463.197.914.426 1.381.616.183-.42.35-.849.56-1.256Zm.343.424c-.168.338-.303.693-.464 1.035.408.181.806.397 1.23.54.148-.454.473-.867.465-1.358.007-.395-.401-.639-.754-.632-.22.04-.37.233-.477.415ZM62.79 49.886c.137.082.298.14.414.256-.188.393-.451.749-.62 1.15.955.553 1.903 1.12 2.855 1.678-.1.21-.226.405-.331.611-.968-.554-1.924-1.129-2.887-1.692-.211.384-.434.76-.643 1.145a8.656 8.656 0 0 1-.43-.245c.55-.967 1.1-1.933 1.642-2.904ZM10.422 51.672c.52-.296 1.192-.35 1.725-.06.407.257.676.681.866 1.113.268.592.064 1.378-.48 1.74-.106-.182-.225-.357-.323-.544.311-.252.455-.7.319-1.082-.111-.274-.291-.54-.559-.68-.448-.163-.946-.015-1.34.219-.46.268-.907.665-1.002 1.214-.065.497.258 1.096.788 1.168.262.056.53-.024.761-.144.117.19.238.38.35.574-.36.164-.767.262-1.16.16-.455-.077-.78-.447-1.008-.821-.24-.391-.415-.86-.31-1.322.203-.684.74-1.227 1.373-1.535ZM60.71 53.61a1.524 1.524 0 0 1 1.305.087c-.122.177-.248.351-.363.533-.334-.16-.76-.17-1.06.068-.188.175-.339.399-.416.645-.113.425.134.842.417 1.142.331.324.736.587 1.19.697.329.074.712.038.964-.208.241-.245.446-.592.358-.947-.045-.28-.224-.512-.43-.694.108-.193.245-.368.369-.551.36.313.61.76.63 1.243.026.437-.212.832-.463 1.169-.254.339-.61.646-1.047.69a2.362 2.362 0 0 1-1.506-.424c-.553-.365-1.054-.926-1.079-1.622-.05-.447.181-.858.428-1.212.192-.246.407-.496.703-.617ZM13.297 54.37c.133-.1.263-.201.396-.3.661.889 1.315 1.782 1.976 2.67-.123.1-.242.21-.379.293-.272-.324-.505-.682-.767-1.016l-.035-.013c-.887.665-1.758 1.35-2.64 2.02-.14-.186-.273-.377-.42-.557.89-.676 1.77-1.367 2.662-2.038-.266-.353-.515-.717-.793-1.06ZM14.995 57.668c.302-.297.595-.603.907-.89.453.5.927.98 1.385 1.474.217.242.364.56.34.891-.04.27-.245.482-.456.639-.276.203-.674.18-.953-.007.175.307.264.712.086 1.037-.17.254-.403.495-.706.578-.388.05-.757-.158-1.024-.423-.479-.485-.935-.993-1.413-1.479.592-.625 1.228-1.208 1.834-1.82Zm1.011-.033c-.258.25-.515.503-.762.764.195.23.41.444.618.665.182.194.452.365.727.289.201-.09.396-.295.359-.532-.026-.327-.31-.538-.516-.762-.143-.135-.266-.328-.426-.424ZM14.49 59.13c-.16.17-.351.315-.491.503.029.083.107.136.163.201.231.22.426.477.671.683.186.14.455.266.674.125.147-.113.286-.26.33-.445a.823.823 0 0 0-.181-.629c-.24-.28-.51-.531-.749-.811-.168.087-.278.248-.417.373ZM58.296 56.956c.408-.135.857-.062 1.235.128.452.248.825.624 1.105 1.055.257.402.388.904.275 1.376-.12.513-.479.94-.904 1.237-.286.204-.636.32-.989.302-.529-.01-1.003-.31-1.368-.673-.376-.39-.72-.863-.766-1.42-.1-.898.6-1.719 1.412-2.005Zm-.072.594c-.428.201-.826.655-.733 1.16.103.6.525 1.092 1 1.447.282.177.611.335.953.29.363-.075.642-.366.822-.676.201-.38.02-.816-.166-1.163a2.813 2.813 0 0 0-.893-.895c-.295-.157-.654-.31-.983-.163ZM55.395 59.658c.165-.16.36-.287.538-.433.761 1.039 1.543 2.063 2.287 3.113-.184.134-.361.275-.543.412-.34-.49-.71-.957-1.056-1.443-.488.386-.99.753-1.474 1.144.32.423.63.852.948 1.276.027.053.13.134.055.193-.153.138-.33.247-.486.38-.732-.984-1.456-1.973-2.188-2.956-.032-.053-.12-.142-.042-.193.168-.116.307-.289.508-.348.288.424.607.824.905 1.241.506-.362.985-.759 1.485-1.128-.317-.416-.618-.844-.937-1.258ZM18.28 59.67c.475-.126.985.009 1.384.283.444.28.808.724.892 1.253.098.577-.129 1.16-.463 1.622-.333.502-.847.94-1.468.995-.531.057-1.038-.203-1.43-.54-.396-.334-.648-.844-.63-1.366.024-.538.276-1.04.606-1.457.28-.364.658-.672 1.109-.79Zm.317.565c-.52.192-.897.635-1.153 1.112-.186.35-.287.762-.203 1.155.129.365.478.612.833.731.393.123.777-.124 1.063-.37.44-.45.813-1.037.8-1.688.005-.297-.197-.546-.423-.715-.252-.204-.598-.332-.917-.225ZM50.387 63.688c.005-.966 1.04-1.74 1.966-1.493.598.143 1.024.638 1.331 1.142.166.307.336.624.377.975a1.613 1.613 0 0 1-.688 1.588c-.405.325-.983.417-1.457.189.324.543.661 1.078.989 1.619-.191.122-.383.242-.572.367-.93-1.487-1.839-2.987-2.753-4.484.181-.12.364-.236.548-.35.087.148.175.296.259.447Zm1.136-.874c-.611.156-.892.877-.702 1.444.14.397.35.776.635 1.089.35.395.99.563 1.456.273.443-.251.599-.846.439-1.31a3.185 3.185 0 0 0-.667-1.125c-.294-.303-.74-.5-1.161-.37ZM26.42 63.228c.5-.31 1.127-.267 1.67-.103.559.16 1.148.42 1.441.954.283.43.334.97.222 1.465-.228-.075-.46-.143-.688-.215-.022-.19.033-.391-.022-.58-.085-.319-.265-.633-.566-.79-.546-.313-1.296-.455-1.833-.05-.44.35-.713.867-.886 1.393-.209.618-.212 1.322.069 1.919.254.51.83.771 1.374.825.59.066 1.158-.347 1.36-.889.247.054.483.142.725.217-.213.512-.609.957-1.127 1.172-.577.287-1.252.137-1.824-.089a2.356 2.356 0 0 1-1.382-1.347c-.31-.721-.117-1.534.14-2.24.23-.68.68-1.306 1.326-1.642ZM47.868 64.213c.39-.133.844-.235 1.226-.026.312.131.494.442.59.752.18.574.362 1.148.544 1.722a.784.784 0 0 0 .148.273c.117.046.238-.012.357-.023.05.157.108.312.14.475-.237.088-.48.22-.74.167-.157-.044-.25-.18-.358-.288-.16.56-.71.902-1.247 1.031-.389.111-.862.08-1.145-.24-.337-.372-.486-1.027-.114-1.425.434-.445 1.008-.713 1.565-.968.11-.064.253-.145.24-.292-.019-.28-.136-.6-.415-.712-.345-.117-.713.021-1.016.19a.744.744 0 0 0-.323.898c-.203.07-.409.137-.61.216-.117-.32-.102-.69.079-.983.215-.412.662-.619 1.08-.767Zm-.06 2.6c-.247.391.063.99.535.988.41-.023.827-.254.999-.641.216-.406.055-.87-.06-1.281-.44.386-1.083.48-1.474.934ZM42.727 65.847c.883-.252 1.77-.492 2.658-.726.275 1.093.566 2.182.856 3.272.21-.061.42-.12.632-.171.1.49.227.977.316 1.47-.184.046-.368.096-.552.142-.076-.32-.168-.633-.242-.952-.516.104-1.017.271-1.526.402-.532.148-1.069.278-1.594.445.093.319.173.642.254.965-.189.04-.374.092-.559.147-.133-.486-.325-.959-.415-1.454.151-.03.3-.07.45-.113.356-1.133.039-2.325-.278-3.427Zm.758.302c.066.37.18.73.246 1.101.098.605.138 1.238-.027 1.836.62-.174 1.243-.343 1.865-.511-.23-.934-.49-1.862-.727-2.794-.453.12-.904.25-1.357.367ZM31.05 65.844c.506-.13 1.052-.033 1.515.198.567.285.91.92.903 1.547 0 .569-.134 1.151-.442 1.634a1.68 1.68 0 0 1-1.068.742c-.579.084-1.204-.048-1.668-.413-.438-.352-.647-.926-.626-1.477.02-.459.128-.917.335-1.328.217-.419.59-.774 1.05-.903Zm.3.487a.721.721 0 0 0-.24.109c-.366.301-.584.749-.672 1.21-.106.44-.107.928.1 1.34.142.285.463.413.759.47.289.064.631.02.838-.21.408-.403.575-.984.624-1.54.012-.411-.026-.907-.383-1.176-.3-.19-.677-.28-1.027-.203ZM40.804 66.095c.25-.023.5-.045.75-.064.097 1.292.242 2.581.314 3.874-.225.016-.45.043-.675.058-.066-.92-.156-1.836-.228-2.754-.006-.086-.024-.172-.04-.254-.562 1.059-1.109 2.126-1.67 3.186-.252.017-.503.039-.752.068-.102-1.297-.235-2.59-.323-3.888.228-.01.456-.032.683-.054.08 1.012.158 2.026.264 3.036.55-1.074 1.11-2.143 1.677-3.208ZM34.634 68.722c.134-.798.136-1.61.229-2.413.878.069 1.76.091 2.64.153-.04 1.292-.142 2.581-.18 3.873-.231.002-.461-.015-.691-.026.04-1.132.117-2.262.166-3.393-.441-.012-.882-.05-1.323-.058-.096.823-.067 1.668-.316 2.468-.084.27-.179.578-.442.728-.301.19-.675.147-1.008.094.017-.172.024-.345.027-.517.21.045.466.054.628-.114.197-.216.213-.523.27-.795Z"/>
  <path fill="#FDFFFE" d="M.173.172c16.373.005 32.746 0 49.12.003a286.884 286.884 0 0 0-3.238 3.24c.22.102.46.148.692.218a34.716 34.716 0 0 1 12.454 6.66c5.408 4.499 9.43 10.66 11.288 17.45.02.06.043.12.069.179.314 1.276.61 2.56.797 3.863a34.636 34.636 0 0 1-1.8 17.322 34.826 34.826 0 0 1-7.562 11.965 34.912 34.912 0 0 1-12.33 8.258c-4.115 1.619-8.544 2.448-12.967 2.379-2.898.011-5.787-.415-8.591-1.134-2.412-.667-4.767-1.554-6.987-2.711A35.081 35.081 0 0 1 8.374 56.626a34.671 34.671 0 0 1-4.68-9.757c-.085-.282-.14-.575-.269-.843-1.074 1.096-2.176 2.167-3.249 3.265C.171 32.918.176 16.546.173.172ZM37.707 3.74c-.044 1.127-.125 2.253-.163 3.381-.438-.005-.875-.047-1.313-.061-.003.165-.006.33-.013.495 1.093.07 2.188.108 3.28.185.02-.167.025-.335.023-.503-.426-.03-.854-.044-1.281-.077.03-1.13.128-2.26.155-3.39-.23.003-.459-.021-.688-.03Zm-4.165.214c-.31.032-.618.152-.831.387-.327.304-.294.803-.2 1.201.108.459.588.72 1.032.74.493.021.982-.075 1.473-.096.031.502.099 1.002.116 1.505.232.019.462-.032.696-.034-.105-1.296-.22-2.59-.331-3.885-.651.069-1.305.107-1.955.182Zm7.526.167c-.544.204-.907.732-1.027 1.288.22.022.441.051.664.064.065-.372.277-.741.642-.885.458-.143 1.028.038 1.255.479.278.546.237 1.198.073 1.773-.12.352-.335.733-.714.847-.295.052-.616.036-.885-.104-.3-.171-.455-.515-.472-.848-.204-.053-.428-.049-.64-.074-.005.434.194.86.504 1.16.418.354 1.002.415 1.53.386.474-.025.872-.348 1.14-.718.325-.52.407-1.159.364-1.76-.074-.582-.32-1.237-.9-1.48-.48-.195-1.03-.279-1.534-.128Zm4.45 1.07c-.461.108-.843.44-1.076.843a3.097 3.097 0 0 0-.416 1.61c.014.584.353 1.141.862 1.425.44.24.96.357 1.456.261.518-.116.941-.51 1.172-.978.251-.501.393-1.07.331-1.632a1.7 1.7 0 0 0-.992-1.346c-.415-.186-.888-.296-1.338-.183Zm3.623 1.464c-.33.125-.498.48-.581.801-.09.38.14.74.416.98-.319-.039-.666.07-.861.334-.132.195-.23.423-.237.661.045.385.35.682.682.848.59.292 1.19.561 1.78.853.55-1.17 1.082-2.348 1.615-3.526-.598-.278-1.19-.57-1.788-.846-.316-.151-.688-.207-1.026-.105Zm1.703 4.626c.22.129.41.337.644.424 1.1-.433 2.187-.9 3.284-1.338-.565.837-1.15 1.663-1.712 2.502.195.12.373.264.565.387.73-1.056 1.444-2.123 2.186-3.17-.203-.156-.417-.294-.619-.45-1.106.44-2.198.917-3.308 1.343.565-.825 1.137-1.645 1.694-2.475-.162-.16-.37-.266-.546-.408-.731 1.06-1.458 2.123-2.188 3.185ZM8.038 9.934c-.108.505-.238 1.005-.333 1.513-.68-.01-1.378.107-1.965.467-1.099.664-1.825 1.807-2.205 3.012-.306.981-.498 2.017-.41 3.048.071.767.415 1.55 1.066 1.996.48.334 1.083.413 1.654.393-.105.495-.197.994-.316 1.486.572-.003 1.143-.007 1.714.003.104-.497.2-.994.31-1.49.851.048 1.718-.208 2.385-.746 1.021-.785 1.611-1.996 1.926-3.22.224-.9.376-1.844.228-2.77-.093-.6-.346-1.196-.807-1.606-.503-.47-1.224-.588-1.888-.569.106-.506.19-1.016.303-1.52-.554-.001-1.108-.006-1.662.003Zm3.594 11.547c.577 0 1.152-.002 1.73 0 .321-1.564.647-3.127.972-4.69.811.004 1.623.002 2.435.001-.315 1.565-.654 3.126-.966 4.692.568-.008 1.137 0 1.705-.005.75-3.652 1.513-7.302 2.269-10.953-.57.005-1.14 0-1.708.001-.279 1.368-.564 2.734-.85 4.1-.81-.01-1.621-.003-2.432-.003.274-1.367.563-2.73.846-4.096-.575-.001-1.15.003-1.725-.002-.758 3.652-1.51 7.305-2.276 10.955Zm7.076 0c.572-.003 1.144 0 1.715-.002.592-2.92 1.214-5.834 1.808-8.754.85-.003 1.7-.003 2.55 0-.607 2.918-1.21 5.838-1.818 8.756.567-.002 1.134 0 1.702-.002.745-3.653 1.515-7.301 2.265-10.953-1.979 0-3.957.009-5.936-.004-.777 3.65-1.512 7.309-2.286 10.96Zm7.311 0c.58-.002 1.161 0 1.741-.001.25-1.239.513-2.475.767-3.712.46.002.918 0 1.377 0 .376.007.759-.019 1.117-.145.696-.224 1.22-.793 1.59-1.404.58-1.01.887-2.17.944-3.332-.01-.609-.087-1.263-.467-1.763-.36-.446-.96-.61-1.514-.597-1.098 0-2.197.004-3.295-.001-.738 3.655-1.52 7.3-2.26 10.956Zm30.973-10.455c-.82.979-1.652 1.948-2.484 2.917.666.599 1.33 1.202 2.014 1.779.569-.63 1.102-1.297 1.736-1.865.185-.148.376-.351.633-.337.21-.006.371.148.498.295.11-.129.217-.26.335-.383-.19-.2-.384-.412-.646-.514a.792.792 0 0 0-.705.07c-.822.471-1.383 1.257-2.02 1.936-.348-.283-.666-.601-1.015-.882.719-.864 1.458-1.71 2.183-2.57-.18-.144-.338-.315-.53-.446Zm2.596 2.717c.15.161.298.325.448.487-.805.776-1.621 1.54-2.428 2.314.62.681 1.24 1.363 1.867 2.04.536-.515 1.057-1.066 1.718-1.423.358-.197.735-.4 1.152-.42.09.123.197.234.306.343.343-.355.693-.703 1.033-1.063-.145-.126-.248-.307-.404-.41-.24.217-.47.445-.706.668-.741-.797-1.469-1.606-2.205-2.407.245-.224.48-.461.723-.687-.128-.135-.262-.265-.373-.414-.398.299-.749.654-1.131.972Zm2.77 4.33c.083.215.23.399.346.598.722-.285 1.425.494 1.375 1.185-.059.452-.363.823-.724 1.08-.52-.847-1.04-1.695-1.558-2.544-.54.301-1.038.756-1.197 1.375-.179.607.152 1.22.53 1.678.435.573 1.28.774 1.932.477.483-.217.946-.515 1.276-.937a1.725 1.725 0 0 0 .194-1.596c-.185-.467-.464-.924-.892-1.204-.382-.238-.864-.243-1.283-.113Zm-5.734 1.3c-1.76 1.17-3.452 2.44-5.22 3.598-.767.47-1.606.865-2.21 1.55-.383.045-.77.03-1.155.051-2.82.001-5.632-.49-8.454-.266-.163.013-.312.09-.464.143-.73.267-1.458.545-2.19.81a3.71 3.71 0 0 0-2.201 1.028c-.95.902-1.525 2.107-2.385 3.084-.137.173-.356.234-.549.32-.988.382-2.13.371-3.017 1-.86 1.107-1.94 2.012-3.002 2.916-.725.61-1.468 1.203-2.126 1.886-.73.674-1.631 1.146-2.31 1.88-.41.407-.68.936-.825 1.49-.118.029-.26.018-.35.114-.244.259-.562.43-.868.606-.632.352-1.29.657-1.949.953-1.297.564-2.61 1.098-3.964 1.51-.39.108-.784.242-1.195.235.027.12.051.243.074.366 1.94-.648 3.872-1.332 5.81-1.992.77-.285 1.356-.899 2.086-1.26.064-.045.136-.022.123.068-.076.243-.364.445-.235.725a.4.4 0 0 0 .429-.098c.197-.224.26-.525.393-.785.093-.173.12-.37.188-.553.193-.57.558-1.064.973-1.492.83-.83 1.855-1.424 2.726-2.204.231-.202.405-.48.7-.595 1.091-.58 1.791-1.632 2.608-2.519.639-.701 1.441-1.32 2.399-1.478.389-.03.74-.213 1.116-.301-1.03.817-1.774 1.948-2.268 3.156-.505 1.18-.797 2.438-1.077 3.686-.053.304-.153.605-.132.917 0 .61-.065 1.268.222 1.832.269.54.883.748 1.423.909.587.173 1.256.094 1.745-.292.107-.07.118-.209.165-.318.89-.318 1.61-1.001 2.103-1.796.65-.996.975-2.155 1.265-3.296.561-.322 1.078-.719 1.572-1.137.613-.482 1.259-1.003 2.056-1.112.496-.11.973.1 1.433.251 1.64.283 3.298.483 4.904.93 1.078.301 2.18.652 3.075 1.347.261.25.602.384.904.575 2.15 1.268 4.04 2.933 6.218 4.156.221.102.264.37.322.58.106.628-.12 1.267-.448 1.797-.28.272-.648.46-1.037.506a2.947 2.947 0 0 1-1.255-.164c-.749-.225-1.436-.621-2.202-.795-1.582-.759-3.252-1.313-4.904-1.898-.202-.08-.303.18-.293.34 2.443.937 4.885 1.875 7.33 2.806.277.079.376.39.463.633a2.079 2.079 0 0 1-.313 1.55c-.322.36-.836.44-1.294.407a16.458 16.458 0 0 1-2.478-.427c-1.799-.381-3.598-.772-5.417-1.037-.145-.051-.267.064-.328.183-.007.12.08.219.125.325 1.665.367 3.396.39 5.024.926a.251.251 0 0 0 .068.217c.273.336.693.492 1.017.769.219.195.335.51.254.798-.077.469-.4.85-.776 1.122-.833.061-1.662-.072-2.492-.128-.513-.014-1.026.006-1.538-.007-.936-.068-1.86-.245-2.799-.29-.07.079-.15.153-.194.25-.015.097.059.178.093.264 1.592.121 3.182.268 4.774.378.087.427.18.948-.144 1.303-.23.15-.51.197-.772.267-1.498.327-3.03-.07-4.54.1-.193-.614-.206-1.261-.226-1.898-.032-.622-.065-1.286-.413-1.825-.29-.44-.82-.66-1.33-.699-.218.013-.402.148-.594.238.1-.568.144-1.257-.312-1.69-.693-.404-1.612-.466-2.317-.052-.102.068-.236.13-.27.26-.086.248-.177.496-.246.751-.019-.476.089-.97-.086-1.428-.139-.425-.54-.685-.92-.872-.679-.273-1.39.047-2.042.245-.299.804-.602 1.607-.9 2.412-.252-.167-.228-.57-.545-.659-.576-.2-1.116-.613-1.751-.562a4.904 4.904 0 0 0-.563.41 65.58 65.58 0 0 1-1.27 2.816c-.51 1.102-1.04 2.197-1.447 3.342-.344-.08-.689-.17-1.043-.172-.4.007-.78.144-1.165.23-.37.085-.743.18-1.085.352-.51.254-1.056.427-1.58.65-1.232.497-2.463.998-3.704 1.472l.094.2c.248-.06.48-.169.722-.25.592-.228 1.198-.418 1.774-.687a20.392 20.392 0 0 1 2.057-.783c.563-.273 1.15-.49 1.725-.736.395-.127.815-.12 1.224-.115.283.006.565.057.827.162-.113.444-.106.919.03 1.357.128.406.278.841.64 1.1.587.432 1.344.472 2.022.679.394-.306.794-.605 1.189-.913.286.512.543 1.04.826 1.555.308.353.802.469 1.253.491.343.008.713.01 1.017-.172.589-.324.779-1.076 1.4-1.361.207.327.36.719.713.92.571.322 1.251.246 1.88.313.428-.489.933-.947 1.16-1.574.326.167.586.51.977.503.926.079 1.892-.48 2.234-1.352.213-.671.025-1.385.137-2.07.588-.064 1.177-.178 1.77-.123.942.037 1.901.24 2.831.007.425-.127.885-.284 1.163-.651.3-.455.039-1.033.279-1.508.623.059 1.329.318 1.891-.09.243-.251.477-.522.664-.819.215-.336.232-.748.22-1.134-.126-.492-.62-.739-.926-1.106.878.112 1.747.297 2.633.342.525-.073 1.054-.356 1.322-.827.112-.29.223-.58.316-.877.13-.388.118-.837-.106-1.19.206.177.507.124.682-.068a.742.742 0 0 1 .632-.233c.292-.11.518-.35.698-.598.427-.665.436-1.49.423-2.254.02-.221-.148-.389-.3-.523-.335-.306-.828-.412-1.087-.805.8-.494 1.157-1.42 1.447-2.265.284-.13.55-.298.839-.415.163-.074.35-.028.518-.084l5.139-1.86-.07-.199a8405.09 8405.09 0 0 1-5.535 1.638c-.385.134-.67.507-1.102.518-.125-.561-.566-.964-.828-1.458-.251-.476-.568-.914-.875-1.355-.504-.723-.982-1.54-.954-2.454a1.043 1.043 0 0 0-.349-.032c-.101 1.026.326 2.016.86 2.868.325.55.74 1.04 1.11 1.559.193.425.458.826.55 1.29.088.444-.093.903-.375 1.241-.25.272-.613.54-.568.955-1.948-.973-3.535-2.503-5.414-3.59a7.15 7.15 0 0 0 1.546-.815c.698-.493 1.259-1.205 1.49-2.036.017-.222-.176-.408-.393-.408-.422 1.49-1.78 2.607-3.28 2.895-.123-.058-.22-.156-.328-.235a7.627 7.627 0 0 0-2.208-1.106c-1.49-.5-3.057-.68-4.6-.933-.161-.435-.545-.725-.763-1.125-.1-.166-.108-.365-.134-.552-.088-.121-.267-.134-.403-.112-.019.236-.029.481.072.701.153.349.375.66.566.988a.735.735 0 0 1-.481-.209c-.54-.456-.623-1.248-1.188-1.685a.336.336 0 0 0-.21.408c.116.215.252.42.372.635-1.198 1.06-2.678 1.723-3.931 2.71-.038-.328.252-.56.3-.868.013-.199-.213-.237-.357-.272-.19.563-.649 1.02-.713 1.628-.035.209.123.413.023.615-.168.521-.348 1.04-.556 1.546-.4.969-1.004 1.92-1.964 2.412-.082-.783.511-1.531.207-2.305-.126-.148-.28-.27-.396-.426-.813-.502-1.82-.53-2.74-.39.055-1.62.736-3.167 1.74-4.424 1.296-1.7 2.998-3.078 4.068-4.95.167-.012.339-.023.5.033.639.194 1.06.792 1.7.98.034-.113.106-.246.02-.355-.459-.494-1.083-.778-1.644-1.137 1.333-.549 2.667-1.1 4.005-1.64.833-.144 1.683-.15 2.527-.163 2.248.018 4.48.333 6.726.389.275.023.544.121.765.287.591.435.881 1.135 1.29 1.722.106.036.213.101.33.076.078-.09.067-.233.053-.345-.087-.405-.428-.675-.61-1.034-.254-.326-.577-.594-.837-.917.4-.346.742-.775 1.223-1.014a6.11 6.11 0 0 0 .92-.564c1.751-1.232 3.496-2.472 5.251-3.697a8.31 8.31 0 0 0-.087-.303.82.82 0 0 0-.271.134Zm8.016 2.53c-.309.239-.36.676-.282 1.035a.994.994 0 0 0-.71-.331c-.313.04-.626.198-.8.466-.155.327-.1.717.055 1.035.28.6.568 1.198.856 1.795 1.144-.57 2.291-1.132 3.433-1.706-.317-.613-.592-1.248-.907-1.863-.183-.334-.47-.658-.863-.724-.286-.01-.559.124-.782.293Zm2.404 3.434c.03.101.085.204.062.314-.055.1-.17.14-.268.18-.59.201-1.187.382-1.775.588-.31.104-.59.329-.702.643-.17.384-.059.812.062 1.193.144.435.36.895.788 1.115.28.165.62.149.923.064-.068-.21-.141-.416-.208-.624a.735.735 0 0 1-.851-.286c-.191-.31-.322-.695-.228-1.059.114-.328.498-.464.818-.445.08.087.158.18.202.294.244.563.509 1.14.955 1.572.403.343 1.022.178 1.378-.153.326-.323.33-.832.202-1.245-.14-.512-.466-1.039-1.004-1.193.098-.093.214-.176.278-.299.093-.284-.05-.567-.154-.826-.161.052-.32.11-.478.167Zm-1.537 5.273c-.541.75-.314 1.966.54 2.384-.157.05-.322.054-.484.077.03.221.06.442.093.663 1.708-.248 3.416-.5 5.127-.73a4.828 4.828 0 0 0-.09-.704c-.615.088-1.229.18-1.844.263.684-.606.57-1.774-.081-2.358-.42-.415-1.061-.492-1.621-.412-.616.067-1.263.299-1.64.817Zm-32.556 1.695c-.325.51-.619 1.043-1.008 1.508.041.107.104.203.176.291l.124-.06c.293-.46.544-.947.82-1.418.096-.11.018-.283-.112-.321Zm32.738 2.4c.088 1.105.188 2.208.282 3.313 1.265-.112 2.529-.231 3.794-.336-.008-.236-.034-.47-.056-.706-1.104.108-2.21.193-3.313.303-.045-.64-.11-1.28-.159-1.92 1.102-.093 2.203-.199 3.306-.292-.017-.233-.025-.468-.065-.699-1.263.109-2.526.226-3.789.337Zm-60.724.023c-.051 1.298-.13 2.595-.193 3.892.205 0 .409.023.614.027.055-1.047.124-2.096.155-3.145.593 0 1.185.078 1.778.074-.03.931-.085 1.861-.138 2.791.208.017.416.033.625.033.045-.922.082-1.85.15-2.768.533.002 1.067.052 1.6.078-.061 1.019-.106 2.039-.159 3.058.204.026.41.034.615.04L10.208 35c-1.747-.096-3.495-.203-5.243-.273Zm41.303 2.07c.436.437.407 1.125.296 1.688-.06.414-.573.445-.779.753-.06.12-.004.247.033.366.375-.084.75-.254 1.003-.552.356-.472.298-1.094.245-1.646.007-.326-.124-.629-.224-.933-.08-.232-.264-.452-.53-.447-.17.231-.055.513-.044.77Zm18.221 2.649c-.303.569-.373 1.241-.33 1.877.04.65.475 1.198.987 1.564.675.458 1.521.565 2.318.55 1.019-.014 1.934-.832 2.125-1.82.15-.681.19-1.472-.248-2.06-.305-.454-.797-.753-1.326-.87-.02.257-.052.513-.078.77.527.09 1.005.51 1.106 1.045.078.33.027.675-.063.997a1.44 1.44 0 0 1-.846.922c-.722.336-1.571.258-2.295-.027-.347-.16-.714-.362-.894-.715-.242-.448-.21-.991-.076-1.468.141-.528.67-.91 1.216-.89.041-.25.057-.502.086-.753a3.59 3.59 0 0 0-.374.027c-.54.05-1.014.41-1.308.85Zm-60.686-.225c.031.195.055.39.076.587.327-.04.651-.093.977-.141.145 1.087.321 2.172.436 3.263-.321.033-.641.085-.96.137l.081.571c.49-.042.978-.101 1.467-.146-.031-.223-.064-.445-.08-.669 1.097-.152 2.195-.302 3.288-.475-.145-.917-.258-1.84-.386-2.76-.435.056-.866.138-1.303.173-.7.034-1.428-.005-2.072-.305-.027-.162-.04-.327-.076-.487-.485.056-.964.175-1.448.252Zm40.55 2.326c.156.268.529.336.646.633.057.3-.107.643-.4.755-.287.124-.614.214-.803.485.046.074.068.197.168.217.456.07.922-.163 1.173-.545.186-.294.438-.621.328-.99-.144-.393-.533-.6-.829-.865-.115.075-.305.138-.283.31Zm-38.79 2.636.196.747c1.124.376 2.25.745 3.372 1.125-.949.284-1.911.527-2.866.793.056.226.12.452.174.68 1.224-.336 2.448-.673 3.674-1.003-.041-.256-.12-.504-.188-.753-1.128-.373-2.254-.754-3.383-1.125.958-.272 1.92-.53 2.88-.79-.053-.226-.118-.45-.17-.676-1.232.325-2.459.671-3.69 1.002Zm37.832 1.678c-.124.24 0 .542-.15.774-.148.259-.524.2-.68.457.02.15.125.32.302.29.24-.072.386-.316.639-.367.317-.323.305-.811.239-1.228-.12-.012-.284-.061-.35.074ZM6.567 49.02c.104.207.205.415.314.62.518-.282 1.049-.538 1.567-.818.273.563.558 1.12.838 1.681-.527.266-1.046.547-1.574.81.105.206.207.414.31.622 1.139-.576 2.263-1.182 3.403-1.756-.109-.208-.206-.421-.32-.625-.468.232-.917.507-1.399.707-.26-.563-.563-1.106-.817-1.671.464-.235.927-.473 1.386-.718-.113-.205-.204-.42-.327-.618-1.12.6-2.257 1.171-3.381 1.766Zm58.532-.821c-.21.407-.377.836-.56 1.256-.467-.19-.918-.42-1.381-.616-.092.21-.18.423-.28.632 1.161.53 2.321 1.063 3.49 1.579.266-.63.555-1.249.812-1.882.164-.392.144-.877-.128-1.216-.25-.255-.599-.402-.949-.449-.437-.003-.803.331-1.004.696Zm-2.31 1.686c-.542.97-1.092 1.936-1.64 2.903a8.5 8.5 0 0 0 .429.246c.208-.385.431-.762.643-1.145.963.563 1.918 1.138 2.887 1.692.105-.207.23-.402.331-.612-.952-.557-1.9-1.125-2.856-1.677.17-.402.432-.758.62-1.15-.115-.117-.276-.174-.414-.257Zm-52.367 1.787c-.633.308-1.17.85-1.373 1.534-.106.462.07.931.31 1.322.228.375.553.744 1.008.822.392.102.8.003 1.16-.16-.112-.195-.233-.384-.35-.575-.232.12-.499.2-.761.144-.53-.072-.853-.67-.788-1.168.095-.548.543-.945 1-1.214.396-.234.894-.381 1.342-.218.268.14.448.405.559.68.136.38-.008.83-.32 1.082.099.187.218.361.323.544.544-.362.749-1.148.48-1.74-.19-.432-.458-.857-.865-1.113-.534-.29-1.206-.237-1.726.06Zm50.288 1.937c-.297.12-.511.37-.703.617-.247.354-.478.764-.428 1.212.025.696.526 1.256 1.079 1.622.436.3.974.464 1.505.423.437-.043.794-.351 1.048-.69.251-.337.489-.731.462-1.169-.018-.483-.27-.93-.63-1.243-.123.183-.26.358-.368.552.206.182.385.414.43.694.088.355-.117.701-.358.947-.252.246-.635.281-.965.207-.453-.11-.858-.372-1.19-.696-.282-.3-.529-.717-.417-1.143.078-.246.23-.47.417-.645.3-.237.726-.227 1.06-.067.115-.182.24-.356.363-.533a1.524 1.524 0 0 0-1.305-.088Zm-47.413.76c.278.343.527.707.793 1.06-.893.67-1.772 1.361-2.663 2.037.148.18.282.371.42.558.883-.67 1.754-1.356 2.64-2.02l.036.013c.261.334.495.692.767 1.016.136-.084.255-.193.38-.293-.662-.888-1.316-1.782-1.977-2.67-.133.098-.263.2-.396.3Zm1.698 3.299c-.606.612-1.242 1.194-1.834 1.82.478.486.934.994 1.413 1.478.267.266.636.473 1.024.423.303-.083.536-.324.706-.577.178-.326.09-.73-.086-1.038.279.187.677.21.953.007.211-.156.416-.368.457-.638.023-.33-.124-.65-.341-.891-.458-.495-.933-.974-1.385-1.475-.312.287-.605.594-.907.89Zm43.3-.712c-.811.286-1.511 1.107-1.411 2.004.046.557.39 1.03.766 1.42.365.363.839.663 1.368.673.353.018.703-.098.989-.302.425-.296.784-.724.903-1.237.114-.472-.017-.974-.275-1.375a3.155 3.155 0 0 0-1.104-1.056c-.379-.189-.828-.262-1.235-.127Zm-2.9 2.702c.319.414.62.842.937 1.257-.5.37-.98.767-1.485 1.129-.298-.417-.617-.818-.906-1.242-.2.06-.34.232-.508.349-.077.051.01.14.042.192.733.983 1.456 1.973 2.188 2.956.158-.133.334-.241.487-.38.074-.058-.028-.14-.055-.193-.319-.423-.63-.853-.948-1.275.483-.392.986-.758 1.474-1.144.345.485.715.953 1.056 1.442.182-.136.36-.278.543-.411-.744-1.05-1.526-2.075-2.287-3.113-.18.145-.373.272-.539.433Zm-37.115.012c-.451.117-.83.425-1.11.79-.329.416-.581.918-.605 1.457-.018.521.234 1.031.63 1.366.392.336.898.597 1.43.54.62-.056 1.135-.493 1.468-.995.334-.464.56-1.046.463-1.623-.084-.528-.448-.974-.893-1.252-.398-.275-.908-.41-1.383-.283Zm32.106 4.017c-.084-.15-.172-.298-.258-.446-.184.114-.367.23-.548.35.914 1.497 1.823 2.996 2.753 4.484.188-.125.38-.245.571-.368-.327-.54-.665-1.075-.988-1.618.473.228 1.052.136 1.457-.19.51-.338.794-.983.688-1.587-.041-.352-.211-.669-.377-.976-.307-.503-.733-.998-1.332-1.141-.925-.247-1.96.526-1.966 1.492Zm-23.967-.46c-.646.337-1.097.962-1.326 1.643-.257.706-.45 1.518-.14 2.24.237.62.759 1.119 1.382 1.347.571.226 1.246.376 1.824.088.518-.214.914-.66 1.127-1.172-.242-.074-.479-.163-.725-.217-.203.543-.771.955-1.36.89-.544-.055-1.12-.316-1.375-.826-.28-.597-.277-1.3-.068-1.919.173-.525.446-1.043.886-1.392.537-.406 1.287-.263 1.833.049.3.158.48.472.566.79.055.19 0 .39.022.58.228.073.46.14.688.215.111-.495.06-1.034-.222-1.464-.294-.534-.883-.795-1.442-.954-.543-.165-1.169-.208-1.67.103Zm21.449.986c-.418.148-.864.355-1.08.766-.18.293-.196.664-.077.984.2-.08.405-.146.609-.217a.744.744 0 0 1 .322-.898c.304-.168.671-.307 1.016-.189.28.112.397.432.416.712.013.146-.131.228-.24.291-.558.255-1.131.524-1.566.968-.372.398-.222 1.054.114 1.425.283.32.757.352 1.145.241.537-.13 1.087-.472 1.248-1.032.108.108.2.245.357.288.26.053.504-.079.741-.166-.032-.163-.09-.318-.14-.475-.119.01-.24.069-.357.023a.784.784 0 0 1-.149-.274l-.544-1.721c-.096-.31-.278-.621-.59-.752-.382-.21-.836-.107-1.225.026Zm-5.14 1.634c.316 1.102.633 2.294.276 3.427a5.405 5.405 0 0 1-.45.113c.09.495.283.968.416 1.454.185-.055.37-.107.56-.147-.082-.323-.162-.647-.255-.965.525-.168 1.063-.297 1.594-.446.51-.13 1.01-.297 1.526-.401.074.319.166.633.242.951.184-.045.368-.096.552-.141-.089-.494-.217-.98-.316-1.47-.212.051-.423.11-.632.17-.29-1.09-.58-2.178-.856-3.271-.888.234-1.774.474-2.658.726Zm-11.679-.003c-.461.129-.833.484-1.05.903-.207.41-.315.869-.335 1.327-.022.551.187 1.126.625 1.477.465.366 1.09.497 1.669.413a1.68 1.68 0 0 0 1.067-.741c.308-.483.443-1.066.443-1.634.007-.627-.337-1.263-.903-1.547-.463-.232-1.01-.33-1.516-.198Zm9.755.251a217.392 217.392 0 0 0-1.677 3.207c-.106-1.009-.185-2.023-.264-3.035-.227.022-.455.045-.684.054.09 1.297.222 2.591.324 3.888.25-.03.5-.051.751-.068.562-1.06 1.11-2.127 1.672-3.186.015.082.033.168.039.253.071.919.161 1.835.228 2.754.225-.014.45-.04.675-.057-.072-1.293-.217-2.582-.314-3.874-.25.019-.5.04-.75.064Zm-6.17 2.627c-.057.272-.074.579-.27.794-.163.169-.417.16-.628.115-.003.172-.01.344-.027.517.333.052.706.095 1.007-.094.264-.15.359-.458.443-.729.25-.799.22-1.644.316-2.468.441.01.882.047 1.323.059-.05 1.131-.126 2.26-.166 3.392.23.011.46.029.69.027.04-1.292.14-2.581.181-3.873-.88-.062-1.762-.084-2.64-.153-.093.803-.095 1.615-.23 2.413Z"/>
  <path fill="#FDFFFE" d="M33.882 4.421c.324-.03.647-.064.971-.084.035.45.093.899.104 1.35-.407.018-.813.1-1.221.075-.187-.029-.423-.076-.503-.272-.088-.217-.11-.474-.01-.69.129-.238.4-.356.659-.379ZM45.72 5.709c.55-.159 1.302.139 1.404.753.116.578-.035 1.179-.304 1.693-.18.284-.404.59-.751.669a1.405 1.405 0 0 1-.993-.248c-.341-.256-.365-.732-.345-1.122.06-.513.227-1.036.573-1.43.113-.134.246-.26.416-.315ZM49.458 7.27c.239-.11.515-.052.745.053.31.144.618.294.927.44-.177.388-.348.78-.538 1.161-.33-.171-.675-.313-1.002-.49-.238-.13-.422-.39-.39-.67.037-.182.114-.369.258-.494ZM48.921 8.907a.867.867 0 0 1 .62.065c.286.13.569.268.853.402-.155.338-.305.678-.466 1.013-.317-.165-.648-.301-.965-.466-.204-.105-.402-.315-.36-.562.038-.18.127-.39.318-.452ZM29.574 12.724c.456.002.912-.005 1.368.003.203.019.447.037.573.22.212.303.191.696.145 1.045-.086.453-.224.925-.551 1.267-.236.229-.577.28-.893.285H28.99l.585-2.82ZM6.06 13.943c.374-.306.876-.357 1.342-.371-.309 1.556-.64 3.107-.96 4.661-.471-.014-1.082-.063-1.319-.54-.28-.568-.184-1.228-.066-1.826.155-.71.43-1.445 1.002-1.924ZM8.793 13.572c.366.021.77.014 1.082.234.266.217.382.562.42.893.055.627-.071 1.255-.262 1.85-.176.497-.429.996-.856 1.323-.385.287-.88.35-1.347.363.316-1.556.646-3.108.963-4.663ZM58.42 16.713c.696-.654 1.39-1.312 2.076-1.977.449.48.88.976 1.334 1.45-.975.22-1.729.925-2.44 1.584-.328-.347-.643-.708-.97-1.056ZM61.153 20.569c-.173-.505.193-1.039.623-1.28.38.637.772 1.268 1.161 1.9-.334.21-.764.286-1.139.146-.315-.145-.529-.449-.645-.766ZM64.776 23.057c-.06-.394.327-.75.71-.703.216.052.373.237.474.426.166.331.315.672.486 1.001-.367.21-.753.383-1.13.57-.175-.432-.464-.827-.54-1.294ZM63.648 23.307c.3-.186.642.056.78.33.152.312.317.619.441.942-.322.158-.645.312-.96.482-.177-.316-.32-.65-.475-.977-.122-.26-.105-.67.214-.777ZM66.047 26.803c.391-.114.832-.276 1.224-.078.422.179.672.644.665 1.09-.033.431-.559.715-.937.515-.477-.395-.56-1.069-.952-1.527ZM66.94 30.565c.463-.086.996-.155 1.41.123.308.18.5.531.488.887.007.389-.234.737-.533.963-.396.25-.881.3-1.339.313-.413.01-.83-.177-1.064-.523-.224-.38-.219-.905.076-1.246.225-.307.602-.444.962-.517ZM29.125 36.684c.801-.128 1.734-.079 2.363.492-.057.867-.167 1.736-.383 2.578-.442.228-.934.444-1.442.404-.468-.035-.797-.424-.989-.818-.034-.906.281-1.776.45-2.657ZM5.434 40.178c.903.399 1.92.257 2.867.13.072.47.126.944.2 1.414-.93.164-1.873.264-2.806.419-.085-.655-.193-1.307-.26-1.963ZM33.123 44.093c.52-.294 1.23-.248 1.663.18.078.096.22.169.217.307.007.478-.053.965-.24 1.408-.048.098-.109.223-.234.23-.614.153-1.282-.029-1.756-.44.064-.57.1-1.157.35-1.685ZM36.481 45.299c.528-.46 1.356-.275 1.795.218.068.604-.184 1.167-.348 1.732-.029.133-.202.125-.307.148-.496.024-1.027-.037-1.456-.304-.079-.435.072-.86.2-1.27.061-.17.05-.359.116-.524ZM29.452 45.673c.168-.046.337-.112.513-.105.407.017.74.28 1.067.491.198.11.198.366.167.563a4.57 4.57 0 0 1-.48 1.302c-.18.267-.545.248-.817.16-.355-.108-.823-.164-.96-.573-.144-.66.222-1.273.51-1.838ZM32.376 46.308c.036-.103.149-.037.22-.02.515.166 1.043.286 1.57.398.327-.057.636-.188.962-.252.152 2.485-.663 4.876-1.007 7.31-.228.437-.433.895-.722 1.298-.261.365-.686.644-1.146.631-.298-.062-.614-.031-.902-.14-.216-.077-.324-.294-.455-.465-.39-.549-.515-1.248-.439-1.91.046-.627.216-1.235.31-1.854.027-.164.02-.336.079-.494.551-1.486.823-3.074 1.53-4.502ZM39.167 46.94a.96.96 0 0 1 .791.06c.142.08.281.167.429.238-.007.531.025 1.068-.08 1.593-.19.083-.379.193-.592.197-.359.019-.654-.218-.974-.34a6.518 6.518 0 0 1-.005-1.029c.018-.284.142-.612.431-.72ZM35.917 47.305c.125.164.286.303.47.398.548.208 1.137.086 1.7.026.1 2.245-.263 4.47-.441 6.701-.285.303-.552.619-.834.923-.284.001-.57-.05-.853-.08-.346-.038-.72-.183-.893-.507-.118-.254-.327-.462-.384-.744-.16-.6.076-1.197.16-1.788.035-.176.02-.36.08-.53.459-1.435.617-2.943.995-4.399ZM26.656 51.732c.338-1.382 1.239-2.537 1.652-3.89.503.569 1.294.802 2.035.731.19.007.351-.096.522-.161-.315 1.374-.61 2.754-.918 4.13-.078.312-.11.644-.272.928-.239.38-.624.627-.92.956-.685-.045-1.476-.15-1.933-.723-.3-.607-.332-1.32-.166-1.971ZM65.442 48.623c.107-.182.256-.376.477-.415.353-.006.76.237.754.632.008.49-.317.904-.465 1.357-.425-.143-.822-.358-1.23-.54.16-.341.296-.696.464-1.034ZM38.725 49.226c.358.29.844.397 1.296.334.222-.084.425-.21.646-.296-.036 1.166.494 2.291.332 3.462-.066.57-.412 1.073-.868 1.409-.345.223-.778.112-1.154.046-.469-.192-.525-.753-.764-1.138.239-1.263.016-2.603.512-3.817ZM58.224 57.55c.329-.147.688.005.983.162.36.222.667.537.892.896.186.346.368.783.166 1.163-.18.31-.458.6-.821.675-.342.045-.672-.113-.953-.29-.476-.355-.898-.846-1-1.447-.093-.505.305-.959.733-1.16ZM16.006 57.635c.16.095.282.288.426.424.207.223.49.434.516.762.037.237-.158.442-.36.532-.274.076-.544-.096-.726-.29-.208-.22-.424-.435-.618-.664.247-.262.504-.514.762-.764ZM14.49 59.13c.139-.125.249-.286.417-.374.239.28.51.532.749.812a.823.823 0 0 1 .18.628c-.043.185-.182.333-.329.446-.22.14-.488.014-.674-.125-.245-.206-.44-.463-.67-.683-.057-.066-.135-.118-.164-.201.14-.189.33-.333.49-.504ZM18.597 60.235c.32-.108.665.02.917.224.225.17.428.418.423.715.013.652-.36 1.239-.8 1.688-.286.246-.67.494-1.063.371-.355-.12-.704-.367-.833-.731-.084-.393.016-.806.203-1.156.256-.476.632-.92 1.153-1.111ZM51.522 62.814c.421-.129.868.068 1.162.37.297.323.525.71.667 1.125.16.464.003 1.06-.439 1.31-.465.29-1.105.123-1.456-.273a3.19 3.19 0 0 1-.636-1.088c-.19-.567.092-1.288.702-1.444ZM43.485 66.148c.453-.118.904-.247 1.357-.367.237.932.496 1.86.727 2.794-.622.168-1.245.337-1.865.51.165-.597.125-1.23.027-1.835-.065-.371-.18-.731-.246-1.102ZM47.808 66.813c.39-.454 1.033-.549 1.474-.935.115.411.276.876.06 1.282-.172.386-.589.618-1 .641-.47.003-.781-.597-.534-.988ZM31.349 66.33c.35-.077.727.014 1.027.204.356.268.395.764.383 1.176-.05.556-.217 1.136-.625 1.539-.207.231-.549.274-.838.21-.295-.057-.617-.184-.758-.47-.208-.411-.206-.899-.1-1.34.087-.46.305-.908.672-1.21a.722.722 0 0 1 .239-.108Z"/>
  <path fill="#00AFF0" d="M49.293.176C57.383.152 65.476.174 73.568.165c.091.002.193-.008.272.052-.017 7.882-.002 15.765-.007 23.647-.012.318.037.644-.052.955l-.095.003c-.267.334-.599.61-.891.92-.602.58-1.164 1.203-1.787 1.757v.09l-.171.02a9.417 9.417 0 0 0-.022.138l-.168.116a3.919 3.919 0 0 1-.158-.119c-1.857-6.79-5.88-12.952-11.288-17.45a34.717 34.717 0 0 0-12.454-6.66c-.232-.07-.472-.116-.692-.22 1.07-1.087 2.15-2.168 3.238-3.238Z"/>
  <path fill="#0CF" d="M.176 49.292c1.073-1.098 2.175-2.169 3.25-3.265.129.267.183.56.268.843a34.674 34.674 0 0 0 4.68 9.757 35.08 35.08 0 0 0 12.744 11.238c2.22 1.157 4.575 2.044 6.987 2.711a3.428 3.428 0 0 0-.175-.01c-.114.182-.282.318-.43.47-.513.515-1.027 1.028-1.542 1.542-.363.345-.69.731-1.077 1.048l-.005.185c-.125-.076-.26.05-.395.024H3.943c-1.242.004-2.485-.01-3.726.006a.323.323 0 0 1-.051-.208c.002-7.4 0-14.8.001-22.2.006-.713-.014-1.428.01-2.141Z"/>
  <path fill="#EC3237" d="m73.686 24.822.096-.003c.072.145.059.308.058.466v48.48l-.137.074h-48.48c-.115 0-.236.007-.347-.028l.005-.185c.387-.317.714-.703 1.078-1.049l1.541-1.541c.148-.153.316-.288.43-.47.057.002.116.005.175.01 2.804.719 5.693 1.145 8.591 1.133 4.423.07 8.852-.76 12.967-2.379a34.912 34.912 0 0 0 12.33-8.258 34.822 34.822 0 0 0 7.562-11.965 34.635 34.635 0 0 0 1.8-17.322c-.186-1.302-.483-2.586-.797-3.863a1.946 1.946 0 0 1-.069-.178c.052.04.104.08.158.119l.169-.116.021-.138.171-.02v-.09c.624-.554 1.186-1.177 1.787-1.757.293-.31.625-.586.891-.92Z"/>
</svg>
