<svg xmlns="http://www.w3.org/2000/svg" width="69.946" height="70.043" viewBox="0 0 69.946 70.043">
  <g id="_006-user" data-name="006-user" transform="translate(-2.004 -2.623)">
    <path id="Контур_286" data-name="Контур 286" d="M39.306,67.968A32.635,32.635,0,0,1,6.766,33.285a1,1,0,1,1,2,.128A30.63,30.63,0,0,0,41.255,65.905a1,1,0,1,1,.127,2q-1.039.064-2.076.063Z" fill="#fff"/>
    <path id="Контур_287" data-name="Контур 287" d="M11.011,22.23a1,1,0,0,1-.856-1.514,31.987,31.987,0,0,1,6.1-8.485A32.5,32.5,0,0,1,56.531,7.552a1,1,0,0,1-1.054,1.7,30.5,30.5,0,0,0-37.8,4.4,29.962,29.962,0,0,0-5.757,8.022,1.006,1.006,0,0,1-.905.562Z" fill="#fff"/>
    <path id="Контур_288" data-name="Контур 288" d="M69.71,45.291a1.011,1.011,0,0,1-.281-.041,1,1,0,0,1-.679-1.241c.28-.957.515-1.934.7-2.9a1,1,0,1,1,1.965.37,31.79,31.79,0,0,1-.742,3.1,1,1,0,0,1-.963.712Z" fill="#fff"/>
    <path id="Контур_289" data-name="Контур 289" d="M53.431,64.66a1,1,0,0,1-.442-1.9A29.657,29.657,0,0,0,60.062,57.9a1,1,0,1,1,1.357,1.469,31.721,31.721,0,0,1-7.549,5.183,1,1,0,0,1-.439.1Z" fill="#fff"/>
    <path id="Контур_290" data-name="Контур 290" d="M65.429,54.25a1,1,0,0,1-.819-1.574A25.6,25.6,0,0,0,66.093,50.3a1,1,0,1,1,1.754.96,27.6,27.6,0,0,1-1.6,2.564,1,1,0,0,1-.818.426Z" fill="#fff"/>
    <path id="Контур_291" data-name="Контур 291" d="M70.949,34.55a1,1,0,0,1-1-.945,30.709,30.709,0,0,0-4.5-14.361,1,1,0,0,1,1.522-1.287,1.012,1.012,0,0,1,.149.187,32.68,32.68,0,0,1,4.828,15.35,1,1,0,0,1-.942,1.054Z" fill="#fff"/>
    <path id="Контур_292" data-name="Контур 292" d="M62.453,20.714a8.5,8.5,0,1,1,6.011-2.489,8.5,8.5,0,0,1-6.011,2.489Zm0-15a6.5,6.5,0,1,0,4.6,1.9,6.5,6.5,0,0,0-4.6-1.9Z" fill="#fff"/>
    <path id="Контур_293" data-name="Контур 293" d="M9.284,34.532a7.267,7.267,0,1,1,7.222-6.643,7.283,7.283,0,0,1-7.222,6.643Zm-5.1-8.638a5.271,5.271,0,1,0,6.456-3.727,5.271,5.271,0,0,0-6.456,3.727Z" fill="#fff"/>
    <path id="Контур_294" data-name="Контур 294" d="M47.411,72.666a7.275,7.275,0,1,1,1.88-.249,7.275,7.275,0,0,1-1.88.249Zm.006-12.545a5.273,5.273,0,1,0,5.215,4.589,5.272,5.272,0,0,0-5.215-4.589Z" fill="#fff"/>
    <path id="Контур_295" data-name="Контур 295" d="M51.5,48.079h-25a1,1,0,0,1-1-1V42.246a8.177,8.177,0,0,1,8.167-8.167H44.333A8.177,8.177,0,0,1,52.5,42.246v4.833A1,1,0,0,1,51.5,48.079Zm-24-2h23V42.246a6.175,6.175,0,0,0-6.167-6.167H33.667A6.175,6.175,0,0,0,27.5,42.246Z" fill="#fff"/>
    <path id="Контур_296" data-name="Контур 296" d="M39,32.916a7.188,7.188,0,1,1,7.188-7.188A7.188,7.188,0,0,1,39,32.916Zm0-12.375a5.188,5.188,0,1,0,5.188,5.188A5.188,5.188,0,0,0,39,20.541Z" fill="#fff"/>
  </g>
</svg>
