<?xml version="1.0" encoding="utf-8"?>
<!-- Generator: Adobe Illustrator 17.0.0, SVG Export Plug-In . SVG Version: 6.00 Build 0)  -->
<!DOCTYPE svg PUBLIC "-//W3C//DTD SVG 1.1//EN" "http://www.w3.org/Graphics/SVG/1.1/DTD/svg11.dtd">
<svg version="1.1" id="Слой_1" xmlns="http://www.w3.org/2000/svg" xmlns:xlink="http://www.w3.org/1999/xlink" x="0px" y="0px"
	 width="82px" height="28px" viewBox="0 0 82 28" enable-background="new 0 0 82 28" xml:space="preserve">
<path d="M24.445,27c0-2.198-0.015-4.882,0.009-7.013c0.007-0.635,0.063-1.282,0.204-1.899c0.311-1.354,1.324-2.083,2.662-2.003
	c1.217,0.073,2.01,0.913,2.171,2.307c0.026,0.23,0.027,0.464,0.028,0.696c0.002,2.248,0.001,4.497,0.001,6.745
	c0,0.203,0,0.96,0,1.152c1.533,0,2.975,0,4.408,0c0.018-0.079,0.034-0.116,0.034-0.153c0.003-2.132-0.027-4.818,0.024-6.948
	c0.018-0.762,0.139-1.55,0.38-2.27c0.349-1.039,1.288-1.564,2.421-1.537c0.961,0.023,1.749,0.558,2.067,1.499
	c0.145,0.431,0.2,0.91,0.204,1.368c0.02,2.287,0.009,4.574,0.009,6.861c0,0.207,0,0.966,0,1.185c1.508,0,2.949,0,4.408,0
	c0-3.154,0.06-6.825-0.026-9.94c-0.043-1.538-0.732-2.879-1.974-3.865c-2.277-1.808-5.951-1.429-7.955,0.812
	c-0.109,0.122-0.222,0.241-0.361,0.393c-1.006-1.496-2.412-2.212-4.126-2.33c-1.709-0.118-3.243,0.334-4.601,1.671
	c0-0.516,0-1.371,0-1.732c-1.512,0-2.952,0-4.391,0c0,4.68,0,10.372,0,15C21.52,27,22.949,27,24.445,27z"/>
<path d="M68,17.427c-0.986-3.802-4.57-5.949-8.64-5.255c-3.876,0.662-6.52,4.147-6.111,8.056c0.413,3.948,3.725,6.799,7.74,6.662
	c3.604-0.123,6.819-2.65,6.947-5.486c-1.33-0.29-2.664-0.58-3.986-0.868c-0.905,1.988-2.048,2.718-3.708,2.403
	c-1.603-0.304-2.617-1.515-2.711-3.239c-0.094-1.728,0.793-3.139,2.263-3.585c0.744-0.226,1.492-0.223,2.225,0.042
	c1.063,0.383,1.53,1.279,1.838,2.271C65.265,18.087,66.613,17.762,68,17.427z"/>
<path d="M46,12.493c0,4.674,0,9.876,0,14.507c1.485,0,3.555,0,5,0c0-4.663,0-9.851,0-14.507C49.54,12.493,47.486,12.493,46,12.493z"
	/>
<path d="M48.444,10.79c1.467,0.024,2.528-0.974,2.556-2.403c0.028-1.441-1.057-2.587-2.466-2.605
	C47.156,5.763,46.023,6.873,46,8.265C45.976,9.708,47.001,10.766,48.444,10.79z"/>
<path d="M12,12c0,0,0,1.138,0,1.504c0-0.084-0.089-0.106-0.133-0.139c-2.606-1.947-6.254-1.782-8.577,0.489
	c-2.356,2.302-2.786,5.142-1.86,8.195c0.9,2.964,3.192,4.666,6.28,4.823c1.631,0.083,3.136-0.58,4.473-1.679
	C12.207,25.587,12.233,27,12.252,27C13.753,27,15,27,17,27c0-5,0-10,0-15C15,12,13,12,12,12z M10.239,22.754
	c-1.244,0.598-2.457,0.448-3.551-0.382c-1.247-0.948-1.631-3.102-0.874-4.674c0.688-1.428,2.248-2.159,3.784-1.772
	c1.583,0.398,2.64,1.853,2.612,4.029C12.17,20.979,11.575,22.113,10.239,22.754z"/>
<path fill="#FF7F00" d="M54.53,1.844c-6.819-0.201-21.68,1.541-18.538,2.328c1.421-0.083,2.869-0.127,4.342-0.127
	c17.991,0,32.208,6.414,32.575,14.307c0.22,4.732-6.212,7.414-4.71,7.414c7.654-2.383,12.731-6.612,12.744-11.431
	C80.959,8.286,73.239,2.395,54.53,1.844z"/>
</svg>
