<svg xmlns="http://www.w3.org/2000/svg" viewBox="0 0 24 24">
  <circle cx="12" cy="12" r="12" fill="#ababab"/>
  <path fill="#fff" d="M12 4a3.529 3.529 0 0 0-1.393.275 3.25 3.25 0 0 0-1.126.765v.003l-.002.003a3.51 3.51 0 0 0-.713 1.194 4.236 4.236 0 0 0-.253 1.492c0 .541.081 1.046.253 1.503.159.437.401.837.713 1.182l.002.002c.315.332.693.593 1.12.776v.004c.43.175.899.261 1.393.261.491 0 .957-.086 1.389-.261v-.002a3.232 3.232 0 0 0 1.109-.778c.317-.333.56-.733.729-1.184.174-.482.26-.992.254-1.504h.012a4.22 4.22 0 0 0-.252-1.49 3.455 3.455 0 0 0-.728-1.198 3.118 3.118 0 0 0-1.115-.768A3.529 3.529 0 0 0 11.999 4H12Zm.03 9.951c-2.881 0-4.428.265-5.579 1.132-.574.435-.954 1.026-1.167 1.713-.214.688-.282 1.213-.284 2.127l7 .002h7c-.001-.915-.065-1.441-.28-2.129-.214-.687-.593-1.277-1.169-1.711-1.148-.867-2.641-1.134-5.521-1.134Z" color="#000" font-family="Ubuntu" font-weight="400" letter-spacing="0" overflow="visible" style="line-height:125%;font-variant-ligatures:normal;font-variant-position:normal;font-variant-caps:normal;font-variant-numeric:normal;font-variant-alternates:normal;font-feature-settings:normal;text-indent:0;text-align:start;text-decoration-line:none;text-decoration-style:solid;text-decoration-color:#000;text-transform:none;text-orientation:mixed;isolation:auto;mix-blend-mode:normal" word-spacing="0"/>
</svg>