<svg xmlns="http://www.w3.org/2000/svg" width="39.542" height="24.713" viewBox="0 0 39.542 24.713"><path d="M20.01,29.213c5.72,0,3.681-3.621,4.122-4.663-.007-.778-.013-1.526.013-1.98.362.1,1.218.535,2.984,2.252,2.727,2.751,3.424,4.391,5.626,4.391H36.81a2.676,2.676,0,0,0,2.288-.979,2.559,2.559,0,0,0,.293-2.369c-.9-2.84-6.18-7.745-6.508-8.263.049-.1.129-.222.17-.288h0c1.041-1.376,5.015-7.33,5.6-9.712a.031.031,0,0,0,0-.013A2.375,2.375,0,0,0,38.38,5.4a2.519,2.519,0,0,0-2.14-.9H32.185a2.986,2.986,0,0,0-2.908,1.931c-.872,2.216-3.32,6.773-5.155,8.386-.056-2.285-.018-4.03.012-5.327.059-2.529.25-4.99-2.374-4.99H15.387c-1.644,0-3.218,1.8-1.514,3.928,1.489,1.868.535,2.91.857,8.093a30.318,30.318,0,0,1-5.055-9.6C9.233,5.663,8.564,4.5,6.681,4.5H2.626A2.314,2.314,0,0,0,0,6.9C0,10.27,7.462,29.213,20.01,29.213ZM6.681,6.973c.358,0,.394,0,.659.753C8.953,12.476,12.571,19.5,15.214,19.5c1.985,0,1.985-2.035,1.985-2.8l0-6.1a5.828,5.828,0,0,0-1.326-3.633l5.78.007c0,.028-.033,6.747.016,8.375,0,2.312,1.835,3.636,4.7.736a35.221,35.221,0,0,0,5.2-8.721c.124-.3.231-.4.619-.4h4.071s0,.01,0,.015c-.371,1.73-4.03,7.243-5.254,8.954-.02.026-.038.054-.056.082a2.461,2.461,0,0,0,.074,3.219h0c.1.115.344.386.707.761,1.127,1.163,4.992,5.14,5.335,6.722-.227.036-.474.01-4.305.018-.816,0-1.453-1.219-3.887-3.674-2.188-2.129-3.608-3-4.9-3-2.511,0-2.328,2.038-2.3,4.5.008,2.672-.008,1.827.01,2a4.966,4.966,0,0,1-1.662.173C9.556,26.742,2.748,10.149,2.486,6.978c.091-.008,1.338,0,4.195,0Z" transform="translate(0 -4.5)" fill="#fff"/></svg>