<svg xmlns="http://www.w3.org/2000/svg" xmlns:xlink="http://www.w3.org/1999/xlink" width="17.993" height="17.996" viewBox="0 0 17.993 17.996"><defs><radialGradient id="a" cx="0.209" cy="0.882" r="1.166" gradientTransform="matrix(0.748, -0.664, 0.664, 0.748, -0.533, 0.361)" gradientUnits="objectBoundingBox"><stop offset="0" stop-color="#ffa113"/><stop offset="1" stop-color="#d333e5"/></radialGradient></defs><g transform="translate(0 0)"><path d="M18.4,5.291a6.576,6.576,0,0,0-.418-2.183A4.61,4.61,0,0,0,15.344.475,6.593,6.593,0,0,0,13.161.056C12.2.011,11.892,0,9.449,0S6.7.011,5.74.053A6.578,6.578,0,0,0,3.556.471a4.391,4.391,0,0,0-1.6,1.041A4.431,4.431,0,0,0,.923,3.1,6.594,6.594,0,0,0,.5,5.287C.459,6.251.449,6.557.449,9S.459,11.749.5,12.709A6.576,6.576,0,0,0,.92,14.892a4.609,4.609,0,0,0,2.633,2.633,6.594,6.594,0,0,0,2.183.418C6.7,17.986,7,18,9.445,18s2.749-.01,3.709-.053a6.574,6.574,0,0,0,2.183-.418,4.6,4.6,0,0,0,2.633-2.633,6.6,6.6,0,0,0,.418-2.183c.042-.96.053-1.266.053-3.709s0-2.749-.046-3.709Zm-1.621,7.348a4.933,4.933,0,0,1-.309,1.67,2.985,2.985,0,0,1-1.709,1.709,4.95,4.95,0,0,1-1.67.309c-.949.042-1.234.053-3.635.053s-2.689-.01-3.635-.053a4.93,4.93,0,0,1-1.67-.309,2.769,2.769,0,0,1-1.034-.672,2.8,2.8,0,0,1-.672-1.034,4.951,4.951,0,0,1-.309-1.67c-.042-.949-.053-1.234-.053-3.635s.01-2.689.053-3.635A4.93,4.93,0,0,1,2.442,3.7a2.735,2.735,0,0,1,.675-1.034A2.794,2.794,0,0,1,4.151,2a4.954,4.954,0,0,1,1.67-.309c.949-.042,1.234-.053,3.635-.053s2.689.011,3.635.053A4.933,4.933,0,0,1,14.761,2a2.767,2.767,0,0,1,1.034.671A2.8,2.8,0,0,1,16.466,3.7a4.953,4.953,0,0,1,.309,1.67c.042.949.053,1.234.053,3.635s-.011,2.682-.053,3.632Zm0,0" transform="translate(-0.449 0)" fill="url(#a)"/><path d="M129.572,124.5a4.623,4.623,0,1,0,4.623,4.623A4.624,4.624,0,0,0,129.572,124.5Zm0,7.622a3,3,0,1,1,3-3A3,3,0,0,1,129.572,132.122Zm0,0" transform="translate(-120.572 -120.123)" fill="url(#a)"/><path d="M364.608,89.681a1.079,1.079,0,1,1-1.079-1.079A1.079,1.079,0,0,1,364.608,89.681Zm0,0" transform="translate(-349.723 -85.487)" fill="url(#a)"/></g></svg>