<svg width="63" height="53" xmlns="http://www.w3.org/2000/svg"><path stroke="null" fill="#fff" d="M69.482 12.139h-.99v8.552h-3.768V.669h3.768v8.867l.88-.4 5.31-8.467h4.29l-5.61 8.41-1.486 1.086 1.54 1.116 6.41 9.41h-4.65l-5.694-8.552zM10.602.72h40.366v33.273l.001.032v.363h-.006c-.064 1.967-.645 3.994-1.645 5.936-1.025 1.99-2.492 3.892-4.295 5.55a22.425 22.425 0 01-6.676 4.24 20.74 20.74 0 01-7.538 1.556l-.289.004h0a21.3 21.3 0 01-7.49-1.366 21.872 21.872 0 01-6.612-3.925c-1.91-1.652-3.468-3.593-4.562-5.672-1.064-2.022-1.69-4.175-1.775-6.323h-.01V.72h.529zM24.82 45.59h.584v-1.726l.063-.297-.201.258-.375.266-.23-.328.958-.804h.307v2.631h.571v.481H24.82v-.48zm3.052-.266a.91.91 0 01.038-.273.79.79 0 01.107-.219.91.91 0 01.164-.177c.063-.052.131-.1.204-.144a1.124 1.124 0 01-.324-.313.776.776 0 01-.118-.439c0-.113.02-.22.061-.319.041-.1.1-.185.177-.258a.81.81 0 01.28-.17c.109-.041.232-.062.37-.062.126 0 .24.018.344.053a.789.789 0 01.267.149.657.657 0 01.172.233.737.737 0 01.061.304.813.813 0 01-.111.437c-.074.12-.183.229-.326.328.168.102.295.214.38.336.086.123.129.28.129.473 0 .13-.023.25-.07.356a.781.781 0 01-.195.273.899.899 0 01-.303.177 1.132 1.132 0 01-.387.063c-.14 0-.266-.02-.38-.059a.868.868 0 01-.29-.163.715.715 0 01-.185-.254.816.816 0 01-.065-.332zm1.354-.057a.373.373 0 00-.047-.184.603.603 0 00-.12-.15 1.116 1.116 0 00-.163-.125 5.142 5.142 0 00-.183-.11.702.702 0 00-.271.257.575.575 0 00-.074.273c0 .116.039.216.116.299a.417.417 0 00.321.124.461.461 0 00.305-.096c.077-.064.116-.16.116-.288zm-.761-1.5a.42.42 0 00.14.322c.044.04.093.076.148.11.054.033.111.064.17.093.168-.148.252-.311.252-.49 0-.121-.034-.214-.103-.277a.358.358 0 00-.25-.094c-.123 0-.214.034-.27.1a.35.35 0 00-.087.237zm2.54.77c0-.536.087-.935.264-1.195.176-.261.43-.392.76-.392.354 0 .613.13.778.387.166.258.248.658.248 1.2 0 .54-.089.94-.267 1.202a.868.868 0 01-.763.393c-.35 0-.608-.137-.773-.413-.165-.275-.248-.67-.248-1.182zm.546 0c0 .355.037.63.11.824.075.194.198.29.369.29.165 0 .286-.088.363-.266.077-.178.116-.46.116-.848 0-.352-.036-.625-.11-.817-.072-.192-.197-.289-.374-.289-.168 0-.289.09-.363.271-.074.18-.111.459-.111.835zm4.83.682h-.463v.852h-.508v-.852h-1.274v-.324l1.332-1.905h.45v1.774h.462v.455zm-.971-1.123l.038-.367h-.017l-.143.314-.437.59-.21.166.268-.035h.5v-.668zM24.36 13.269c-1.24-.726-1.771.332-2.99.595-1.35.29-1.71-.804-2.285-1.781.951.208 1.007.672 2.246-.21.91-.649 2.064-.224 2.738.574l-.75-2.098c2.237-.019 4.757-.322 6.965 0l.279.049c2.36.484 4.142 2.586 4.142 5.246 0 1.947-1.071 4.11-2.638 5.26v.245c2.097-.5 4.494-2.326 4.709-3.351-.307-.125-1.044-.565-1.034-.617-.821-.612-1.174-1.833-.98-2.757.194-.924.607-1.371 1.198-1.744.407-.214.776-.344 1.217-.39l11.035-1.618c.052.388.088.782.106 1.176.32 7.018-4.895 12.979-11.645 13.311-2.308.114-5.285-1.214-6.333-3.483-.055.01-.11.019-.165.026a7.751 7.751 0 00-1.121.21c-.353 1.526 2.65 2.712 6.13 3.294l-.557.84a6.674 6.674 0 012.087-.333c3.826 0 6.929 3.226 6.929 7.204 0 3.979-3.103 7.205-6.93 7.205-3.825 0-6.928-3.226-6.928-7.205 0-.409.033-.81.096-1.2l.237.037 4.195.296c-.209.354-.33.77-.33 1.216 0 1.29 1.007 2.335 2.246 2.335 1.24 0 2.246-1.045 2.246-2.335 0-1.269-.974-2.301-2.187-2.334l-.007-.023-.276.034a4.206 4.206 0 00-.081.01l-3.613.441c-1.578.27-2.944.378-4.11.339l-4.998 7.09-.625-1.721c-3.533-.309-2.31 1.39-1.519 2.086.077.068.078.352.005.414-1.298-.103-2.432-1.185-2.432-2.595 0-1.41 1.126-2.615 2.515-2.615.927 0 1.736.521 2.172 1.297l2.27-7.442h-.36l-1.373 2.052a8.608 8.608 0 01-1.832-3.112l-3.835-4.939a2.616 2.616 0 01-.72.976l-.766-2.108c-1.696-.087-2.743.338-1.864 1.679l.368.004-.048-.662h1.064l-.168 2.316.002.017h-.003l-.002.042h-.73l-.002-.155-.054-.744c-.97-.36-1.889-1.156-1.889-2.422 0-.975.636-1.96 1.54-2.39l-.491-6.787-1.19-1.569h2.011c-.075-.869.183-1.809.674-2.568-.445.078-.857.327-1.255 1.015-.263-1.49.94-3.408 2.579-3.121 1.645.288 1.492-.208 2.357-.878-.062.555-.072 1.113-.19 1.596 1.695.191 1.618-.453 2.708-1.299-.195 1.75-.015 3.52-2.08 4.022-1.883.457-3.29-.688-4.579 1.233h2.682l-1.186 1.565-.48 6.639c.405.1.773.304 1.075.582l3.061 1.91.672 2.586h.314c.322-4.328 3.747-7.751 7.963-7.87l-.164-.428-4.238.02-.8-2.18zm-.19-.696c.133.18.243.374.322.578 1.805.336 5.154 2.502 4.037-.578h-4.36zm2.944-6.267h1.092v.273h.345v.882a.634.634 0 00-.377.585c0 .28.175.517.418.6l.003.002.01.003h.001l.006.002h0l.007.002h0l.004.001.01.003h.004l.004.002h.003l.004.002h.004l.003.001.007.002h.004l.004.001.003.001h.002l.01.002h.005l.004.001h.001l.004.001h.004l.002.001h.005l.004.001h.006l.005.001h.004l.004.001h.011l.007.001h.015l.008.001h.008a.62.62 0 00.608-.632v-.039l-.003-.022v-.009h0l-.002-.01v-.002a.934.934 0 00-.006-.04l-.001-.006-.003-.011h0l-.005-.022-.003-.011v-.001l-.003-.013-.001-.002-.002-.006a.637.637 0 00-.149-.253v-.001l-.008-.008-.008-.007h0l-.005-.005-.003-.003-.008-.007h0l-.008-.008-.003-.002h0l-.011-.01h0l-.003-.001-.02-.016V7.53l-.005-.003-.008-.005-.001-.001-.009-.006-.002-.002-.002-.001a.741.741 0 00-.023-.015h0a1.08 1.08 0 00-.026-.014l-.003-.002-.01-.005h0l-.009-.004v-.165c0-.52.44-1.204.941-1.218l.929-.026-1.328 3.613-3.796.014-1.325-3.613.882.012c.5.007.941.698.941 1.218v.165a.62.62 0 00-.284.286l-.001.001-.005.01-.001.003-.006.013h0l-.002.004-.005.01-.003.011-.002.004h0l-.005.014h0l-.001.003-.004.01v.002a.64.64 0 00-.029.137v.002a.388.388 0 00-.002.028v.02l-.001.004v.012a.62.62 0 00.608.632h.031l.007-.001h.004l.007-.001h.008l.005-.001h.006l.004-.001h.004l.001-.001h.006l.004-.002h.007l.004-.001h.004l.006-.002h.004l.004-.001.004-.001h0l.007-.002h.004l.003-.001.003-.001.022-.006h.004a.629.629 0 00.445-.61.634.634 0 00-.377-.585v-.882h.345v-.273zM42.36 28.104c2.928-1.236 5.649-3.3 6.27-8.443-.579 2.54-1.847 3.944-3.437 4.723-1.702.833-3.77.95-5.757.97 1.342.602 2.248 1.468 2.924 2.75zm7.55-26.282H11.132v31.464h.003v.054l-.004.353v.14h0v.053c0 2.07.56 4.163 1.567 6.134 1.033 2.02 2.537 3.91 4.396 5.519a20.8 20.8 0 006.292 3.734 20.301 20.301 0 007.134 1.299h.278a19.72 19.72 0 007.17-1.481 21.37 21.37 0 006.356-4.04c1.74-1.6 3.148-3.433 4.114-5.342.948-1.87 1.472-3.815 1.472-5.683l.001-.108h0v-.026h0v-.001h-.002v-.137h0l-.005-.414-.001-.054h.006V1.822zm137.846 60.969h-3.948v11.79h-1.503V62.79h-3.948v-1.394h9.4v1.394zm-18.684-1.394h6.9v1.394h-5.396v4.312h4.943v1.394h-4.943v4.69h5.488v1.393h-6.993V61.397zm-2.655 1.394h-3.949v11.79h-1.503V62.79h-3.948v-1.394h9.4v1.394zm-13.558 2.862l.108-1.506h-.073l-.778 1.544-6.122 8.89h-.888V61.396h1.504v9.04l-.127 1.488h.072l.797-1.545 6.122-8.983h.888V74.58h-1.503v-8.927zm-10.77 8.381c-.362.289-.821.49-1.376.603a8.884 8.884 0 01-1.775.17 5.62 5.62 0 01-2.138-.406 4.678 4.678 0 01-1.739-1.233c-.494-.553-.887-1.26-1.177-2.12-.29-.859-.434-1.88-.434-3.06 0-1.23.16-2.275.48-3.135.32-.86.742-1.563 1.267-2.11a4.872 4.872 0 011.766-1.195 5.505 5.505 0 011.993-.377c.724 0 1.316.04 1.775.123.459.081.851.19 1.177.33l-.362 1.374c-.58-.289-1.407-.433-2.482-.433-.495 0-.984.094-1.467.282a3.369 3.369 0 00-1.295.923c-.38.427-.685.986-.914 1.676-.23.69-.345 1.538-.345 2.543 0 .904.11 1.695.327 2.373.217.678.516 1.243.896 1.694.38.453.827.792 1.34 1.017a4.109 4.109 0 001.676.34 5.31 5.31 0 001.422-.17 3.846 3.846 0 001.023-.433l.362 1.224zm-18.72-12.505a8.854 8.854 0 011.485-.226 22.277 22.277 0 011.576-.057c.555 0 1.12.057 1.693.17.574.113 1.096.32 1.567.621.47.302.854.716 1.15 1.243.296.528.444 1.2.444 2.016 0 .803-.14 1.48-.417 2.033a3.775 3.775 0 01-1.105 1.347 4.395 4.395 0 01-1.575.744 7.386 7.386 0 01-1.83.226h-.299a10.55 10.55 0 01-.878-.038 3.036 3.036 0 01-.308-.037v5.01h-1.503V61.528zm3.097 1.073c-.314 0-.616.007-.906.02-.29.012-.519.043-.688.093v5.462c.06.025.157.04.29.047l.416.019c.145.006.284.01.417.01h.29c.41 0 .818-.042 1.222-.123.405-.082.77-.23 1.096-.443.326-.213.589-.514.788-.904.2-.389.299-.885.299-1.487 0-.515-.094-.945-.281-1.29a2.298 2.298 0 00-.743-.83 3.06 3.06 0 00-1.041-.442 5.219 5.219 0 00-1.16-.132zm-13.595-1.205h6.9v1.394h-5.397v4.312h4.945v1.394h-4.945v4.69h5.488v1.393h-6.991V61.397zm-3.724 3.013a3.378 3.378 0 01-.58 1.874 2.93 2.93 0 01-.742.744 3.394 3.394 0 01-1.068.49v.075c.362.063.709.17 1.041.32.332.15.625.358.879.622.253.264.458.584.615.96.157.377.236.823.236 1.338 0 .677-.136 1.264-.408 1.76a3.576 3.576 0 01-1.068 1.215 4.63 4.63 0 01-1.513.697 6.748 6.748 0 01-1.738.226h-.725c-.278 0-.567-.01-.87-.028a21.897 21.897 0 01-.905-.076 5.035 5.035 0 01-.797-.141V61.51c.447-.075.966-.138 1.558-.188a23.09 23.09 0 011.938-.076c.47 0 .95.041 1.44.123.489.081.933.238 1.33.47.4.233.728.556.988.97.26.415.39.949.39 1.601zm-4.201 8.965c.386 0 .76-.047 1.122-.141.363-.095.683-.245.96-.452a2.32 2.32 0 00.661-.763c.163-.301.245-.66.245-1.074 0-.514-.1-.929-.299-1.243a2.118 2.118 0 00-.779-.734 3.278 3.278 0 00-1.077-.358 7.642 7.642 0 00-1.196-.094h-1.575v4.727c.084.025.205.044.362.057.157.012.326.025.507.037a15.107 15.107 0 001.069.038zm-.997-6.177c.206 0 .453-.007.743-.02.29-.012.531-.03.724-.056.29-.1.562-.223.815-.367a3.31 3.31 0 00.68-.508c.199-.195.356-.421.47-.678.115-.258.173-.537.173-.839 0-.414-.076-.756-.227-1.026a1.812 1.812 0 00-.607-.65 2.58 2.58 0 00-.869-.348 4.803 4.803 0 00-.996-.104c-.398 0-.764.01-1.096.029a5.012 5.012 0 00-.751.084v4.483h.941zm-7.817-1.545l.11-1.506h-.074l-.778 1.544-6.122 8.89h-.888V61.396h1.504v9.04l-.127 1.488h.072l.797-1.545 6.122-8.983h.887V74.58h-1.503v-8.927zm-13.124 2.882h-6.085v6.045h-1.504V61.397h1.504v5.744h6.085v-5.744h1.504V74.58h-1.504v-6.045zm-14.826-.188l.47 1.676h.091l.363-1.733 2.427-6.893h1.54l-3.207 8.569a56.86 56.86 0 01-.86 2.232c-.247.596-.498 1.08-.752 1.45-.253.37-.525.634-.814.79-.29.158-.647.236-1.07.236-.398 0-.715-.034-.95-.103a2.37 2.37 0 01-.661-.311l.453-1.3c.241.139.465.226.67.264a3.1 3.1 0 00.561.057c.338 0 .622-.18.852-.537.229-.358.428-.888.597-1.591l-4.69-9.756h1.738l3.242 6.95zm157.513-29.145l.138-2.031h-.083l-1.183 2.088-4.896 6.464h-2.256V31.422h3.577v6.807l-.165 1.945h.109l1.128-2.03 4.95-6.722h2.257v14.3h-3.576v-6.52zm-3.824-13.615c.13.744.345 1.268.647 1.573.302.305.691.458 1.17.458.513 0 .92-.153 1.223-.458.302-.305.508-.82.618-1.544l2.725.715c-.22 1.24-.761 2.16-1.623 2.76-.862.6-1.87.901-3.027.901a6.758 6.758 0 01-1.65-.2 4.283 4.283 0 01-1.43-.644 4.013 4.013 0 01-1.074-1.13c-.292-.457-.494-1.02-.604-1.687l3.025-.744zm-20.217 17.018a7.67 7.67 0 001.568.172c.825 0 1.403-.157 1.733-.472.33-.314.495-.806.495-1.473 0-.61-.164-1.073-.495-1.387-.33-.315-.88-.472-1.65-.472-.606 0-1.156.067-1.65.2v3.432zm0-6.092c.44-.076.885-.129 1.333-.157.451-.029.858-.043 1.226-.043.934 0 1.714.11 2.337.329.624.22 1.128.529 1.513.93.385.4.66.872.825 1.415.165.544.248 1.13.248 1.76 0 .857-.11 1.61-.33 2.259a3.655 3.655 0 01-1.073 1.616c-.495.429-1.136.753-1.926.972-.788.22-1.76.33-2.915.33-1.046 0-1.948-.02-2.71-.058a54.654 54.654 0 01-2.104-.143V31.422h3.576v5.091zm9.05-5.091h3.575v14.3h-3.575v-14.3zm-19.338 8.666h-4.484v5.635h-3.575V31.422h3.575v5.377h4.484v-5.377h3.576v14.3h-3.576v-5.634zm-17.96 2.517c.55.115 1.072.172 1.566.172.881 0 1.518-.157 1.912-.472.395-.314.592-.806.592-1.473 0-1.24-.807-1.86-2.42-1.86-.607 0-1.157.068-1.65.201v3.432zm0-6.092c.439-.076.884-.129 1.332-.157.45-.029.858-.043 1.225-.043.953 0 1.76.11 2.421.329.659.22 1.195.529 1.608.93.412.4.71.872.894 1.415.184.544.275 1.13.275 1.76 0 1.734-.495 3.031-1.485 3.89-.99.857-2.668 1.286-5.033 1.286-1.046 0-1.949-.019-2.71-.057a54.654 54.654 0 01-2.104-.143V31.422h3.576v5.091zm-10.261-1.802h-2.723c-.11 1.354-.24 2.698-.385 4.033-.147 1.335-.381 2.531-.701 3.59-.322 1.058-.757 1.916-1.307 2.574-.55.658-1.267.987-2.146.987-1.063 0-1.816-.143-2.256-.43l.44-3.088c.294.114.569.171.826.171.366 0 .688-.162.963-.486.275-.324.507-.906.7-1.745.193-.839.35-1.978.468-3.418.12-1.44.207-3.265.261-5.477h9.435v14.301h-3.575V34.711zm-21.208-2.46c.734-.343 1.604-.614 2.613-.815 1.009-.2 2.063-.3 3.164-.3.953 0 1.75.12 2.392.358.643.238 1.15.576 1.528 1.015.375.438.64.963.796 1.573.157.61.234 1.297.234 2.06 0 .838-.027 1.682-.081 2.53a46.321 46.321 0 00-.097 2.503c-.01.82.014 1.616.068 2.389.056.772.193 1.501.413 2.188h-2.915l-.579-1.974h-.136c-.368.591-.877 1.101-1.528 1.53-.65.43-1.49.644-2.516.644-.642 0-1.22-.1-1.733-.3a3.737 3.737 0 01-1.32-.858 3.922 3.922 0 01-.853-1.316 4.556 4.556 0 01-.303-1.702c0-.877.188-1.616.564-2.217.376-.6.917-1.087 1.623-1.458.706-.372 1.55-.63 2.53-.773.982-.143 2.078-.186 3.288-.128.128-1.068.055-1.836-.22-2.303-.276-.467-.89-.7-1.844-.7-.715 0-1.471.076-2.269.228-.797.153-1.453.353-1.967.6l-.852-2.773zm4.538 10.64c.716 0 1.284-.166 1.706-.5.422-.334.734-.691.935-1.073V39.46a9.469 9.469 0 00-1.636-.029 5.78 5.78 0 00-1.39.258c-.403.133-.724.324-.962.572-.239.248-.358.563-.358.944 0 .534.151.948.454 1.244.303.296.72.443 1.251.443zm-19.31-11.469h2.614l.412 1.716h.11c.477-.724 1.041-1.258 1.692-1.601.651-.344 1.444-.515 2.38-.515 1.723 0 3.016.567 3.878 1.702.862 1.134 1.293 2.96 1.293 5.477 0 1.22-.138 2.321-.413 3.303-.275.982-.683 1.816-1.224 2.503a5.38 5.38 0 01-1.98 1.573c-.78.362-1.674.543-2.682.543-.569 0-1.037-.043-1.403-.128a4.707 4.707 0 01-1.1-.415v5.863h-3.576V31.422zm6.135 2.746c-.697 0-1.243.181-1.637.543-.394.363-.701.906-.921 1.63v5.95c.256.21.536.377.838.5.303.124.702.186 1.197.186 1.027 0 1.797-.376 2.31-1.13.514-.753.77-1.997.77-3.732 0-1.259-.201-2.231-.604-2.918-.404-.686-1.055-1.03-1.953-1.03zm-9.105 10.325c-.55.458-1.298.844-2.242 1.158a9.469 9.469 0 01-3.012.472c-2.22 0-3.842-.672-4.869-2.016-1.027-1.344-1.54-3.19-1.54-5.535 0-2.516.577-4.404 1.733-5.663 1.155-1.258 2.778-1.887 4.868-1.887.697 0 1.376.095 2.036.286.66.19 1.247.505 1.76.944.514.438.927 1.029 1.238 1.773.312.743.468 1.668.468 2.774 0 .4-.023.83-.069 1.287-.046.458-.114.935-.206 1.43h-8.252c.055 1.202.353 2.107.894 2.717.54.61 1.416.916 2.627.916.752 0 1.425-.12 2.021-.358.596-.238 1.05-.481 1.362-.73l1.183 2.432zm-5.117-10.497c-.935 0-1.627.291-2.076.873-.45.581-.72 1.358-.812 2.33h5.116c.074-1.029-.077-1.82-.453-2.373-.376-.553-.968-.83-1.775-.83zm-7.839 14.988h-2.613l-.413-3.261H98.97l-.413 3.26h-2.613v-6.55h1.623c.147-.209.335-.567.564-1.072.23-.505.458-1.196.688-2.073.229-.878.426-1.965.591-3.261.165-1.297.248-2.832.248-4.605h9.572v11.012h2.008v6.55zm-5.584-6.378v-8.038h-2.888a33.964 33.964 0 01-.193 2.188 32.643 32.643 0 01-.343 2.246 21.818 21.818 0 01-.482 2.03c-.183.63-.385 1.154-.605 1.574h4.511zM94.9 44.493c-.55.458-1.297.844-2.242 1.158a9.47 9.47 0 01-3.012.472c-2.219 0-3.842-.672-4.869-2.016-1.026-1.344-1.54-3.19-1.54-5.535 0-2.516.578-4.404 1.733-5.663 1.155-1.258 2.778-1.887 4.869-1.887.697 0 1.375.095 2.035.286.66.19 1.247.505 1.76.944.514.438.927 1.029 1.238 1.773.312.743.468 1.668.468 2.774 0 .4-.023.83-.069 1.287-.046.458-.114.935-.206 1.43h-8.252c.055 1.202.353 2.107.894 2.717.541.61 1.416.916 2.627.916.752 0 1.425-.12 2.022-.358.595-.238 1.05-.481 1.361-.73l1.183 2.432zm-5.116-10.497c-.936 0-1.628.291-2.077.873-.45.581-.72 1.358-.812 2.33h5.117c.073-1.029-.078-1.82-.454-2.373-.376-.553-.967-.83-1.774-.83zM70.94 45.895a3.367 3.367 0 01-.976.2c-.34.019-.647.028-.922.028-1.668 0-2.952-.62-3.85-1.859-.9-1.239-1.348-3.136-1.348-5.692 0-2.44.495-4.29 1.485-5.548.99-1.259 2.42-1.888 4.291-1.888.514 0 .954.038 1.32.114v-5.548h3.521v5.577a9.204 9.204 0 011.623-.143c1.816 0 3.182.558 4.099 1.673.917 1.116 1.375 2.942 1.375 5.477 0 1.202-.124 2.284-.371 3.247-.248.963-.61 1.787-1.087 2.474a4.893 4.893 0 01-1.746 1.573c-.688.362-1.481.543-2.38.543-.165 0-.408-.014-.729-.043a3.012 3.012 0 01-.784-.157v5.52h-3.52v-5.548zm4.346-11.813a2.39 2.39 0 00-.48.043 28.39 28.39 0 01-.51.1v8.867c.147.038.317.062.51.071.192.01.398.014.618.014.88 0 1.527-.376 1.94-1.13.412-.753.618-2.006.618-3.76 0-1.488-.201-2.56-.605-3.218-.403-.658-1.1-.987-2.09-.987zm-5.308 9.095c.201 0 .39-.014.564-.042.174-.03.362-.063.564-.1v-8.838a5 5 0 00-1.073-.115c-.844 0-1.49.339-1.94 1.015-.449.677-.673 1.836-.673 3.475 0 1.488.206 2.627.618 3.419.413.79 1.06 1.186 1.94 1.186zm114.29-29.008l.138-2.03h-.083l-1.182 2.087-4.897 6.465h-2.254V6.39h3.575v6.807l-.165 1.945h.11l1.128-2.03 4.951-6.722h2.255v14.3h-3.575v-6.52zM180.445.555c.13.744.345 1.268.647 1.573.304.305.693.458 1.17.458.513 0 .921-.153 1.223-.458.303-.305.51-.82.62-1.544l2.723.715c-.22 1.24-.761 2.16-1.623 2.76-.862.6-1.87.9-3.027.9a6.76 6.76 0 01-1.65-.2 4.284 4.284 0 01-1.43-.643 3.99 3.99 0 01-1.072-1.13c-.294-.458-.496-1.02-.606-1.687l3.025-.744zm-11.167 13.614l.138-2.03h-.083l-1.182 2.087-4.897 6.465h-2.255V6.39h3.576v6.807l-.165 1.945h.11l1.127-2.03 4.952-6.722h2.255v14.3h-3.576v-6.52zm-17.191.601h-.964v5.92h-3.575V6.39h3.575v6.092l.854-.4 3.218-5.692h3.823l-3.328 5.434-1.403 1.087 1.54 1.115 3.714 6.665h-4.1l-3.354-5.921zm-6.712 5.034c-.55.42-1.215.739-1.994.958a8.84 8.84 0 01-2.407.329c-1.1 0-2.031-.181-2.792-.544a4.793 4.793 0 01-1.857-1.53c-.477-.657-.82-1.454-1.032-2.388-.21-.934-.316-1.964-.316-3.089 0-2.421.523-4.285 1.568-5.592 1.045-1.306 2.567-1.959 4.566-1.959 1.009 0 1.82.086 2.435.258a8.073 8.073 0 011.664.658l-.853 3.031a7.043 7.043 0 00-1.251-.486 5.316 5.316 0 00-1.417-.171c-.99 0-1.742.338-2.256 1.015-.513.677-.77 1.759-.77 3.246 0 .61.064 1.173.193 1.688.128.514.32.963.577 1.344.257.381.592.681 1.004.9.413.22.894.33 1.444.33.605 0 1.119-.081 1.54-.243a5.321 5.321 0 001.129-.587l.825 2.832zm-16.45-4.748h-4.483v5.635h-3.576V6.39h3.576v5.377h4.484V6.39h3.575v14.3h-3.575v-5.634zM107.14 7.219c.734-.343 1.605-.615 2.613-.815 1.009-.2 2.064-.3 3.164-.3.953 0 1.751.119 2.393.357.642.238 1.15.577 1.526 1.016.376.438.642.963.798 1.573.156.61.234 1.296.234 2.059 0 .839-.027 1.683-.082 2.531a46.597 46.597 0 00-.097 2.503c-.01.82.014 1.616.069 2.388a9.31 9.31 0 00.413 2.188h-2.916l-.578-1.973h-.137c-.367.59-.876 1.1-1.527 1.53-.65.429-1.49.643-2.517.643-.642 0-1.22-.1-1.733-.3a3.735 3.735 0 01-1.32-.858 3.922 3.922 0 01-.853-1.316 4.557 4.557 0 01-.302-1.701c0-.878.187-1.617.563-2.217.377-.6.917-1.087 1.623-1.459.706-.372 1.55-.629 2.531-.772.981-.143 2.077-.186 3.287-.129.128-1.067.055-1.835-.22-2.302-.275-.467-.89-.7-1.843-.7-.715 0-1.472.075-2.27.228-.797.152-1.453.353-1.966.6l-.853-2.774zm4.539 10.64c.715 0 1.283-.167 1.705-.5.422-.334.734-.692.936-1.073v-1.86a9.461 9.461 0 00-1.637-.028 5.766 5.766 0 00-1.39.258c-.403.133-.724.324-.962.572-.238.247-.357.562-.357.944 0 .533.15.948.453 1.244.303.295.72.443 1.252.443zm-14.91-3.089v-2.603h1.678c.642 0 1.17-.133 1.582-.4.412-.267.619-.62.619-1.058 0-.515-.184-.882-.55-1.101-.367-.22-.927-.33-1.678-.33-.715 0-1.348.096-1.898.287-.55.19-.99.39-1.32.6l-.77-2.831c.55-.325 1.278-.606 2.186-.844a11.397 11.397 0 012.902-.358c1.577 0 2.755.305 3.535.916.779.61 1.169 1.496 1.169 2.66 0 .324-.042.653-.124.986a3.531 3.531 0 01-1.073 1.773 2.877 2.877 0 01-.95.558v.115c.973.229 1.66.634 2.064 1.215.403.582.605 1.359.605 2.331 0 .61-.119 1.178-.357 1.702a3.629 3.629 0 01-1.087 1.359c-.486.381-1.096.686-1.83.915-.733.229-1.604.343-2.612.343-1.009 0-1.884-.11-2.627-.329-.743-.219-1.362-.472-1.857-.758l.77-2.888a5.91 5.91 0 001.527.6c.596.153 1.26.23 1.994.23 1.669 0 2.503-.554 2.503-1.66 0-.496-.215-.858-.646-1.087-.431-.229-1.233-.343-2.407-.343h-1.348zM81.613 7.22c.734-.344 1.605-.616 2.613-.816 1.009-.2 2.063-.3 3.163-.3.954 0 1.752.119 2.394.357.641.238 1.15.577 1.526 1.016.376.438.642.963.798 1.573.156.61.234 1.296.234 2.059 0 .839-.028 1.683-.083 2.531a46.734 46.734 0 00-.096 2.503c-.01.82.014 1.616.069 2.388a9.31 9.31 0 00.412 2.188h-2.915l-.578-1.973h-.138c-.366.59-.875 1.1-1.526 1.53-.651.429-1.49.643-2.517.643-.642 0-1.22-.1-1.733-.3a3.735 3.735 0 01-1.32-.858 3.922 3.922 0 01-.853-1.316 4.555 4.555 0 01-.303-1.701c0-.878.188-1.617.564-2.217.376-.6.917-1.087 1.623-1.459.706-.372 1.55-.629 2.53-.772.982-.143 2.077-.186 3.288-.129.128-1.067.055-1.835-.22-2.302-.275-.467-.89-.7-1.843-.7-.715 0-1.472.075-2.27.228-.797.152-1.453.353-1.966.6l-.853-2.774zm4.539 10.64c.715 0 1.283-.168 1.705-.501.422-.334.734-.692.935-1.073v-1.86a9.461 9.461 0 00-1.636-.028 5.766 5.766 0 00-1.39.258c-.403.133-.724.324-.962.572-.239.247-.358.562-.358.944 0 .533.151.948.454 1.244.303.295.72.443 1.252.443z" clip-rule="evenodd" fill-rule="evenodd"/></svg>