<svg xmlns="http://www.w3.org/2000/svg" width="102.298" height="82.643" viewBox="0 0 102.298 82.643"><g transform="translate(-185.056 -218.618)"><path d="M223.693,278.36l-37.139,8.011a19.2,19.2,0,0,0,.663,1.833c1.086,2.557,3.134,6.275,6.108,6.97a23.393,23.393,0,0,0,7.375.433,16.6,16.6,0,0,0,2.872,4.484l22.361-4.823,4.436-6.564a11.636,11.636,0,0,1-6.675-10.344" transform="translate(-0.9 -35.876)" fill="#313291"/><path d="M374.79,247.233l-32.623,7.037v17.391l35.918-7.747a20.445,20.445,0,0,0-1.329-2.669c1.352-.374,2.7-.747,4.052-1.129,2.892-.818-1.814-11.948-6.018-12.882" transform="translate(-94.347 -17.184)" fill="#313291"/><path d="M303.733,276.828h4.784V269.8h-.877l-5.177.171-1.924,1.361a3.533,3.533,0,0,0,3.194,5.5" transform="translate(-68.992 -30.735)" fill="#313291"/><path d="M314.874,306.329l-2.062,3.349,3.43-.74v-2.609Z" transform="translate(-76.719 -52.671)" fill="#313291"/><path d="M299.772,277.183a4.3,4.3,0,0,0,3.2,1.258h4.784a.5.5,0,0,0,.5-.5v-6.291l-1,.216v5.573h-4.282a3.024,3.024,0,0,1-3.289-3.026,3.075,3.075,0,0,1,.161-.949l-1.1.237a4.033,4.033,0,0,0-.066.712,3.978,3.978,0,0,0,1.088,2.771" transform="translate(-68.235 -31.845)" fill="#313291"/><path d="M310.2,288.966l-35.41,7.638v10.867a.5.5,0,0,1-.5.5h-8.3a.5.5,0,0,1-.5-.5V298.61l-2.243.483-5.322,8.641a.5.5,0,0,1-.427.239h-8.884a.5.5,0,0,1-.5-.5v-1.564a.5.5,0,0,1,.087-.28l2.6-3.85-21.671,4.674a6.238,6.238,0,0,0,2.969,1.878,20.017,20.017,0,0,0,8.2.02c1.635,3.145,4.154,6.247,5.769,6.4,6.743.634,13.147-.942,19.5-2.919,1.231,1.516,2.534,2.568,3.534,2.54a47.906,47.906,0,0,0,6.417-.753c1.217-.2,1.6-1.1,1.588-2.19a122.729,122.729,0,0,0,12.784-5.494c1.381-.716,1.2-2.9.28-5.284,6.636-2.229,13.313-4.323,20.107-6.043,1.344-.34,1.047-2.892-.078-5.64" transform="translate(-26.465 -42.245)" fill="#ed3424"/><path d="M285.956,290.354a.5.5,0,0,0-.2-.733,11.028,11.028,0,0,1-6.315-8.982l-1.011.218a12.194,12.194,0,0,0,6.376,9.406l-4.4,6.514,1.416-.3Z" transform="translate(-56.073 -37.244)" fill="#313291"/><path d="M314.144,306.078h.587v2.206l1-.216v-2.49a.5.5,0,0,0-.5-.5h-1.367a.5.5,0,0,0-.425.238l-2.308,3.746,1.356-.292Z" transform="translate(-75.709 -51.919)" fill="#313291"/><path d="M341.912,267.168l-1,.217v16.345l1-.216Z" transform="translate(-93.592 -29.154)" fill="#313291"/><path d="M276.646,321.13v1.564a.5.5,0,0,0,.5.5h8.884a.5.5,0,0,0,.427-.239l5.321-8.641-1.356.293-4.672,7.584h-8.1v-.909l3.1-4.588-1.416.3-2.6,3.85a.5.5,0,0,0-.086.28" transform="translate(-55.001 -57.468)" fill="#313291"/><path d="M320.142,318.952a.5.5,0,0,0,.5.5h8.3a.5.5,0,0,0,.5-.5V308.084l-1,.217v10.15h-7.293v-8.577l-1,.216Z" transform="translate(-81.121 -53.725)" fill="#313291"/><path d="M222.293,242.126l-35.921,7.748c-.36-1.5-.221-2.31.1-2.429.38-.139.761-.273,1.143-.407l.692-.244a.84.84,0,0,0,.407-1.272c-2.035-2.923-3.818-7.264-2.649-8.3a2.313,2.313,0,0,1,.879-.344c5.346-1.137,48.223-11.156,52.788-12.213,7.339-1.7,14.779-3.475,22.247-5.224a.489.489,0,0,1,.1-.006c1.866,0,5.611,5.867,6.162,9.658.14.956.036,1.632-.266,1.722-.678.2-1.353.409-2.029.616q-.671.207-1.344.41a.841.841,0,0,0-.54,1.108c.02.052.04.105.06.159l-15.8,3.408v.86l32.24-6.954a2.637,2.637,0,0,0-.574-.066,2.1,2.1,0,0,0-.546.07c-4.727,1.256-9.472,2.321-14.233,3.267-.105-.342-.224-.691-.363-1.045,1.124-.34,2.244-.69,3.369-1.026,3.188-.952-2.523-13-6.08-13a.91.91,0,0,0-.222.016c-12,3.027-68.5,16.418-75.341,17.583-2.909.495-1.183,6,1.456,9.785-.613.219-1.23.429-1.842.654-1.262.464-.91,2.568-.413,4.208l36.543-7.883q-.026-.425-.021-.856" transform="translate(0 0)" fill="#313291"/><path d="M340.91,265.779v.641l1-.215v-.642Z" transform="translate(-93.592 -28.191)" fill="#313291"/><path d="M278.365,279.907l1.011-.218c-.022-.212-.029-.422-.041-.632l-1.015.219c.013.21.021.423.045.631" transform="translate(-56.006 -36.294)" fill="#313291"/><path d="M303.793,248.506H290.518c-7.319,0-10.975,4.606-11.953,8.917a12.385,12.385,0,0,0-.3,2.651l1.023-.22a10.958,10.958,0,0,1,.254-2.21c.892-3.932,4.246-8.136,10.976-8.136h12.774v5.168l1-.216v-5.453a.5.5,0,0,0-.5-.5" transform="translate(-55.974 -17.948)" fill="#313291"/><path d="M341.912,263.41l-1,.216v.86l1-.217Z" transform="translate(-93.592 -26.898)" fill="#313291"/><path d="M279.289,276.912l-1.022.22c0,.287,0,.572.022.855l1.014-.219q-.021-.431-.013-.857" transform="translate(-55.974 -35.006)" fill="#313291"/><path d="M303.075,269.548h4.281V270l1-.216v-.739a.5.5,0,0,0-.5-.5h-4.783a4.026,4.026,0,0,0-4.225,3.29l1.1-.236a3.048,3.048,0,0,1,3.128-2.052" transform="translate(-68.335 -29.982)" fill="#313291"/><path d="M218.566,380.973l1.478-7.608H225.4l-.484,2.489h-2.392l-.995,5.118Z" transform="translate(-20.123 -92.927)" fill="#313291"/><path d="M234.3,380.973l1.479-7.608h3.229c1.889.012,3.528.642,3.086,2.913s-2.339,2.913-4.221,2.924h-.261l-.344,1.771Zm4.077-4.032a.8.8,0,0,0,.845-.652c.069-.359-.106-.63-.6-.63h-.358l-.249,1.283Z" transform="translate(-29.571 -92.927)" fill="#313291"/><path d="M259.178,379.964h-2.413l-.5.88h-3.076l.058-.294,4.373-7.4h3.358l1.5,7.4-.057.294h-3.077ZM257.909,378h.9l-.084-1.914Z" transform="translate(-40.917 -92.797)" fill="#313291"/><path d="M279.637,373.365h3.13l.361.945.335,1.4.457-2.348h2.934l-.456,2.348.881-1.4.728-.945h3.13l-.021.109-2.8,3.652,1.717,3.75-.019.1h-3.359l-.471-.99-.4-1.13-.412,2.12h-2.935l.412-2.12-.84,1.13-.855.99H277.8l.02-.1,3.173-3.75-1.377-3.652Z" transform="translate(-55.694 -92.927)" fill="#313291"/><path d="M318.749,378.517l-.689,3.543h-2.924l.211-1.087h-2.924l-.211,1.087h-2.9l.659-3.337.785-.174c.295-.238.393-.294.591-1.033l1.144-4.152h6.6l-1,5.152Zm-3.609,0,.537-2.76h-.9c-.565,2.293-.693,2.444-1.058,2.76Z" transform="translate(-74.616 -92.927)" fill="#313291"/><path d="M339.4,379.963h-2.413l-.5.882h-3.075l.058-.294,4.373-7.4h3.36l1.494,7.4-.057.294h-3.077ZM338.129,378h.9l-.086-1.914Z" transform="translate(-89.09 -92.797)" fill="#313291"/><path d="M362.656,373.365l-.5,2.554h1.359l.5-2.554h2.955l-1.479,7.609h-2.955l.515-2.653h-1.359l-.517,2.653H358.21l1.479-7.609Z" transform="translate(-103.981 -92.927)" fill="#313291"/><path d="M383.958,377.973l-2.691,3h-2.478l1.48-7.609h2.945l-.271,1.392-.495,1.6,2.667-2.989h2.478l-1.479,7.609h-2.967l.256-1.315Z" transform="translate(-116.339 -92.927)" fill="#313291"/><path d="M403.921,373.365l-.5,2.554h1.359l.5-2.554h2.955l-1.479,7.609H403.8l.515-2.653h-1.359l-.516,2.653h-2.968l1.479-7.609Z" transform="translate(-128.76 -92.927)" fill="#313291"/><path d="M250.679,413.64l1.478-7.607h3.229c1.889.01,3.528.641,3.086,2.913s-2.339,2.913-4.22,2.924h-.262l-.344,1.771Zm4.077-4.032a.8.8,0,0,0,.845-.653c.07-.359-.106-.63-.595-.63h-.358l-.249,1.283Z" transform="translate(-39.407 -112.544)" fill="#313291"/><path d="M279.814,409.5c-1.043,5.249-9.247,5.3-8.239,0,1.058-5.326,9.25-5.316,8.239,0m-2.965-.012c.334-1.771-1.981-1.771-2.337,0-.331,1.761,1.987,1.75,2.337,0" transform="translate(-51.904 -112.232)" fill="#313291"/><path d="M302.259,409.108h-2.835c-.134-1.272-2.044-1.12-2.355.477s1.586,1.739,2.187.436h2.826c-1.381,4.814-8.938,4.717-7.958-.436,1.024-5.162,8.585-5.3,8.134-.477" transform="translate(-65.444 -112.283)" fill="#313291"/><path d="M324.338,409.108H321.5c-.132-1.272-2.044-1.12-2.353.477s1.586,1.739,2.188.436h2.825c-1.38,4.814-8.937,4.717-7.957-.436,1.024-5.162,8.584-5.3,8.135-.477" transform="translate(-78.702 -112.283)" fill="#313291"/><path d="M341.9,410.639l-2.691,3h-2.479l1.48-7.609h2.945l-.27,1.392-.5,1.6,2.668-2.988h2.477l-1.478,7.609h-2.968l.256-1.316Z" transform="translate(-91.079 -112.543)" fill="#313291"/><path d="M362.584,410.639l-2.691,3h-2.478l1.48-7.609h2.944l-.27,1.392-.5,1.6,2.667-2.988h2.478l-1.479,7.609h-2.967l.256-1.316Z" transform="translate(-103.503 -112.543)" fill="#313291"/><path d="M382.033,412.646a1.464,1.464,0,0,1-1.635,1.141c-.924,0-1.317-.435-1.18-1.141s.672-1.109,1.617-1.109,1.339.392,1.2,1.109m-2.477-1.294L380.6,406h2.631l-1.039,5.348Z" transform="translate(-116.58 -112.527)" fill="#313291"/></g></svg>