<svg xmlns="http://www.w3.org/2000/svg" version="1.1" xmlns:xlink="http://www.w3.org/1999/xlink" xmlns:svgjs="http://svgjs.com/svgjs" width="600" height="600"><svg xmlns="http://www.w3.org/2000/svg" fill="#7b8a95" viewBox="0 0 600 600">
  <path d="M160.797 53.188c0 4.98-4.043 9.023-9.027 9.023-4.98 0-9.024-4.043-9.024-9.023 0-4.984 4.043-9.027 9.024-9.027a9.029 9.029 0 0 1 9.027 9.027m76.96 31.167c3.18.594 5.21 2.223 6.574 5.27a4.512 4.512 0 0 0 4.125 2.671c.613 0 1.242-.125 1.84-.398a4.514 4.514 0 0 0 2.273-5.96c-2.59-5.786-7.015-9.306-13.148-10.454a4.523 4.523 0 0 0-5.265 3.602 4.51 4.51 0 0 0 3.601 5.27v-.001zm-121.98-2.039c.723.434 1.52.637 2.305.637a4.503 4.503 0 0 0 3.88-2.203c3.295-5.536 3.295-11.395 0-16.93a4.505 4.505 0 0 0-6.189-1.567 4.513 4.513 0 0 0-1.57 6.188c1.605 2.699 1.605 4.996 0 7.691a4.52 4.52 0 0 0 1.574 6.184z"></path>
  <path d="M456.407 381.36c-21.32-12.266-39.734-22.859-46.05-29.5-19.864-20.887-29.23-50.184-30.587-54.691.29-8.543 0-16.711-1.45-22.555-4.46-17.938-38.67-52.051-59.386-62.543-11.887-6.02-27.438-6.223-42.477-6.422-12.773-.168-24.84-.324-33.344-3.934-11.852-5.035-16.645-12.754-20.87-19.562-2.364-3.808-4.599-7.41-7.775-10.199-3.03-2.664-6.656-4.906-10.102-6.714a68.54 68.54 0 0 0 2.891-1.11 21.12 21.12 0 0 1 11.22-1.34c9.64 1.497 23.448 2.172 34.444-3.16 14.367-6.965 21.488-25.598 23.707-32.55 6.23-2.095 10.512-8.126 10.121-14.93-.879-15.34-3.606-35.649-11.543-45.274-10.19-12.359-35.867-20.793-42.863-22.914-2.598-4.105-10.184-14.785-21.812-20.473-11.895-5.808-27.699-.652-34.18 1.938C170.031 19.607 161.593 15 150.617 15c-28.21 0-61.117 27.684-74.023 47.664-31.89 49.355-27.816 108.07-24.578 131.02 1 7.125 2.973 14.102 5.508 20.766-2.61 4.09-8.227 13.594-9.864 22.082-1.277 6.605.07 13.41 1.157 18.879.664 3.351 1.355 6.816 1.027 8.613-.445 2.484-1.758 4.754-2.883 6.34a22.691 22.691 0 0 0-6.36-.899c-14.288 0-22.608 7.454-24.726 22.156-.903 6.31-2.817 34.38 4.414 56.41 1.574 4.79 4.043 9.364 7.34 13.605a11.807 11.807 0 0 0 12.511 4.133 11.756 11.756 0 0 0 8.555-9.969c.434-3.605.602-6.832.496-9.593-.23-6.14-1.719-12.012-2.93-15.852a17.882 17.882 0 0 1-.78-6.856l.058-.664c4.418 5.695 9.316 10.047 14.61 12.957 3.784 2.078 8.25 1.664 11.647-1.098 3.48-2.82 4.89-7.382 3.601-11.625l-.78-2.566c.167.004.323.023.491.023 2.594 0 5.422-.53 8.02-2.16 1.976-1.246 3.344-3.027 4.336-4.98 15.332 24.707 34.453 45.055 57.254 60.996-4.692 7.504-14.312 24.438-13.812 36.477.3 7.457 10.395 17.449 28.203 34.457 16.203 15.477 38.395 36.676 37.938 47.375-.832 19.637-15.766 30.199-23.547 33.039-2.582.941-6.239 1.289-10.113 1.66-7.192.687-16.145 1.539-24.207 6.71-3.235 2.071-5.96 4.56-8.098 7.388-2.656 3.519-3.086 8.171-1.105 12.148 2.007 4.039 6.046 6.543 10.54 6.543h22.382c.117 1.273.378 2.539.976 3.734a10.362 10.362 0 0 0 9.336 5.777h55.707c4.36 0 8.441-1.707 11.496-4.804 3.102-3.141 4.77-7.313 4.707-11.75-.082-5.735.664-10.387 2.152-13.445 1.961-4.043 8.371-13.008 18.043-25.242 7.098-8.97 6.22-21.75-2.043-29.715-2.648-2.551-4.84-5.06-6.523-7.45-4.563-6.488-10.043-19.457-13.09-27.094 11.695-1.14 21.227-7.879 29.23-13.605 4.441-3.18 8.633-6.18 12.47-7.726 10.034-4.043 24.284-.817 28.976.437 10.8 18.31 24.805 38.54 34.797 52.477 2.875 4.012 2.97 9.356.234 13.29-4.004 5.757-6.144 11.901-6.379 18.27-.125 3.538 1.395 6.882 4.172 9.183a12.184 12.184 0 0 0 9.102 2.695c-4.395 7.867-9.059 10.56-14.426 13.652-7.266 4.188-15.5 8.93-23.148 25.727a4.488 4.488 0 0 0 .012 3.762 4.506 4.506 0 0 0 2.86 2.445c9.16 2.61 34.796 9.902 49.194-8.258 3.492 6.18 9.84 11.97 20.301 11.97 5.941 0 10.785-1.915 14.391-5.692 2.106-2.207 3.492-4.793 4.414-7.3 8.766 8.98 19.051 13.48 30.754 13.48 6.465 0 13.363-1.376 20.684-4.13a4.518 4.518 0 0 0 2.89-4.797c-2.468-19.168-12.073-24.352-21.358-29.37-5.278-2.848-10.734-5.794-15.363-11.7-1.8-2.293-2.703-5.226-2.535-8.254.29-5.261-.235-13.445-4.39-22.594-3.107-6.847-8.607-11.832-15.896-14.406-3.578-1.261-5.965-4.23-6.238-7.742-.64-8.152-1.594-18.113-2.875-26.387 9.504 5.617 25.215 13.938 41.03 18.016 5.028 1.297 11.646 2.414 19.31 3.703 28.535 4.809 71.656 12.082 78.395 37.844 8.12 31.047-42.805 45.996-43.324 46.145-2.16.618-3.543 2.735-3.23 4.965s2.214 3.887 4.468 3.887c.906 0 90.863-.719 90.863-62.676-.012-43.297-73.195-85.398-126.64-116.14l.002-.001zm-390.29-53.668c-.527.426-1.066.496-1.617.195-4.88-2.68-9.442-7.03-13.555-12.926-1.895-2.714-5.195-3.918-8.387-3.054-3.2.855-5.445 3.55-5.727 6.847l-.34 3.993a26.706 26.706 0 0 0 1.16 10.324c1.048 3.312 2.333 8.34 2.528 13.469.082 2.293-.066 5.05-.445 8.187-.2 1.668-1.473 2.2-2.012 2.348-.53.156-1.926.367-2.973-.985-2.664-3.414-4.636-7.074-5.886-10.87-6.614-20.165-4.84-46.802-4.047-52.313 1.242-8.652 4.41-14.418 15.793-14.418 11.328 0 16.078 14.004 16.094 14.06l10.066 33.147c.328 1.098-.418 1.809-.652 1.996zm183.25 154.78c2.012 2.86 4.586 5.809 7.64 8.754 4.91 4.734 5.438 12.312 1.231 17.629-10.359 13.098-16.785 22.148-19.082 26.89-2.129 4.384-3.152 10.27-3.058 17.513.03 2.004-.72 3.887-2.106 5.289a7.068 7.068 0 0 1-5.07 2.121H173.22c-.723 0-1.082-.418-1.258-.777a1.39 1.39 0 0 1 .144-1.504c2.68-3.547 5.848-6.293 9.418-8.172 6.02-3.164 12.57-5.121 17.008-6.207a22.014 22.014 0 0 0 14.516-11.613l9.012-18.191a4.515 4.515 0 0 0-8.09-4.008l-9.008 18.188a13.025 13.025 0 0 1-8.578 6.86c-4.922 1.21-12.223 3.398-19.05 6.984-4.102 2.152-7.747 5.184-10.919 8.93h-25.89c-1.575 0-2.282-1.176-2.462-1.54-.27-.535-.593-1.597.227-2.683 1.492-1.977 3.434-3.734 5.766-5.23 6.226-3.989 13.328-4.665 20.2-5.32 4.456-.427 8.674-.833 12.343-2.165 9.742-3.555 28.445-16.73 29.47-41.137.628-14.785-20.396-34.87-40.72-54.285-10.656-10.18-25.254-24.12-25.426-28.305-.36-8.633 7.36-23.062 12.28-31.03 15.56 9.882 32.712 17.835 51.442 23.851 1.343 9.926 7.27 41.395 28.695 46.211.492.113.964.152 1.45.242 2.503 6.5 9.52 24.094 15.577 32.707l.001-.002zm32.613-61.984c-4.832 1.95-9.453 5.258-14.344 8.758-9.918 7.097-20.184 14.426-33.305 11.473-12.766-2.875-18.883-22.238-21.12-34.63 6.671 1.86 13.46 3.571 20.507 4.958a4.512 4.512 0 0 0 1.742-8.852c-78.016-15.387-132.09-60.71-160.73-134.71a4.514 4.514 0 0 0-5.84-2.582 4.508 4.508 0 0 0-2.578 5.836 262.823 262.823 0 0 0 14.48 31.152c.067 3.219-.687 7.727-2.465 8.84-1.832 1.152-4.644.793-6.593.285l-6.426-21.156c-.18-.555-3.14-9.348-10.34-15.207 1.52-2.332 3.113-5.457 3.754-9.023.63-3.48-.153-7.414-1.055-11.965-.98-4.942-2.09-10.54-1.152-15.414.867-4.485 3.254-9.575 5.45-13.586 12.022 24.84 30.015 43.285 31.058 44.34a4.491 4.491 0 0 0 3.207 1.336 4.515 4.515 0 0 0 3.207-7.688c-.332-.34-33.402-34.105-38.488-70.223-3.094-21.953-7.02-78.059 23.22-124.86 11.5-17.789 41.78-43.535 66.448-43.535 16.23 0 25.734 13.797 29.957 22.023 2.738 5.336 7.262 9.398 12.73 11.445l38.164 14.285a4.506 4.506 0 0 0 5.81-2.644 4.514 4.514 0 0 0-2.646-5.809L196.468 49.05c-3.363-1.258-6.148-3.785-7.863-7.121a66.01 66.01 0 0 0-5.785-9.281c6.777-2.29 16.89-4.395 23.746-1.043 11.688 5.71 18.816 18.27 18.887 18.395a4.535 4.535 0 0 0 2.726 2.148c8.383 2.348 31.922 10.598 40.07 20.477 4.91 5.957 8.371 20.551 9.492 40.055.176 3.102-2.113 5.797-5.207 6.148a52.218 52.218 0 0 1-15.465-.546c-4.468-.825-9.019-.399-13.184 1.234-7.378 2.902-21.758 7.645-35.094 6.945-12.672-.68-24.094-9.738-29.78-15.07-3.84-3.61-9.305-5.058-14.575-3.879-7.632 1.696-14.043 1.778-18.039.23-3.18-1.234-6.39-3.456-9.539-6.593-5.609-5.582-14.434-6.156-20.53-1.316-6.114 4.847-14.497 12.27-19.704 20.109-9.406 14.164-8.824 33.309-8.793 34.12a4.513 4.513 0 0 0 4.504 4.352h.168a4.511 4.511 0 0 0 4.344-4.676c-.004-.171-.52-17.027 7.297-28.8 4.56-6.86 12.188-13.59 17.793-18.032 2.508-1.984 6.191-1.714 8.555.641 4.043 4.027 8.293 6.926 12.652 8.613 7.226 2.805 16.637 1.641 23.262.168 2.355-.527 4.773.094 6.437 1.653 6.582 6.175 19.938 16.664 35.47 17.504 15.07.808 30.827-4.387 38.878-7.555a15.028 15.028 0 0 1 8.238-.758c3.723.692 7.497.992 11.277.985-3.035 7.867-8.996 19.145-17.719 23.379-9.359 4.53-22.262 3.43-29.12 2.359a30.039 30.039 0 0 0-16.036 1.914c-4.48 1.844-11.574 4.152-19.918 4.68-15.074.968-40.91-7.742-47.16-14.348-5.363-5.668-9.78-20.367-11.027-25.555a4.515 4.515 0 0 0-8.777 2.113c.516 2.148 5.266 21.215 13.254 29.648 6.57 6.941 25.027 13.91 40.855 16.332-1.879 4.52-5.676 11.586-12.883 18.188-6.113 5.606-12.238 7.656-18.152 9.64-5.69 1.903-11.566 3.876-16.27 8.91-9.723 10.396-6.976 26.642-6.855 27.325a4.51 4.51 0 0 0 5.226 3.652 4.516 4.516 0 0 0 3.656-5.23c-.023-.121-2.007-12.562 4.563-19.582 3.144-3.367 7.297-4.754 12.547-6.52 6.172-2.066 13.852-4.648 21.383-11.543a62.211 62.211 0 0 0 5.933-6.265c-3.238 14.238-9.804 27.383-19.8 39.215a4.516 4.516 0 0 0 .53 6.359 4.483 4.483 0 0 0 2.91 1.066 4.526 4.526 0 0 0 3.454-1.597c2.34-2.77 4.47-5.621 6.477-8.524 4.484 13.867 16.69 37.758 48.828 53.395l4.093-4.515c8.618-11.2 9.622-23.625 2.84-37.707a4.508 4.508 0 0 1 2.114-6.02 4.514 4.514 0 0 1 6.023 2.106c8.29 17.215 6.922 33.164-4.05 47.402l-5.419 5.996c2.977 7.336 7.613 13.738 14.051 18.977 1.192.965 1.832 2.351 1.774 3.805-.04.808-.34 2.328-1.96 3.421-5.61 3.786-9.427 8.239-11.552 13.191-.07.192-.207.352-.254.547-.11.27-.274.528-.375.805-2.383 6.703-.164 15.785 1.98 24.559 3.324 13.605 4.043 19.879-.496 21.102-1.558.418-2.914.2-4.39-.723-6.41-4.004-11.46-19.254-13.14-27.926-.455-2.324-2.615-3.922-4.966-3.625a4.517 4.517 0 0 0-3.977 4.688c.285 6.148-2.492 10.828-8.258 13.918-1.203.644-2.25.164-2.77-.184-.796-.531-1.597-1.605-1.46-3.03.414-4.243.734-8.653 1.05-12.993.817-11.148 1.74-23.789 4.278-28.02 1.863-3.094 6.512-4.336 10.086-4.836 4.297-.594 7.793-3.527 9.117-7.652 1.274-3.957.207-8.188-2.789-11.043-7.558-7.207-16.64-10.95-26.98-11.133-2.566-.067-4.547 1.941-4.594 4.43a4.514 4.514 0 0 0 4.43 4.593c8.125.145 14.965 2.97 20.922 8.645.496.473.64 1.058.418 1.742-.094.3-.512 1.309-1.77 1.484-8.027 1.118-13.604 4.184-16.577 9.118-3.657 6.078-4.532 18.098-5.547 32.02-.313 4.265-.633 8.601-1.036 12.773a12.264 12.264 0 0 0 5.434 11.414c3.684 2.453 8.18 2.695 12.047.632 3.352-1.796 6.106-4.054 8.195-6.69 2.758 7.382 7.004 15.526 13.082 19.327 2.438 1.52 5.063 2.293 7.743 2.293 1.25 0 2.523-.172 3.785-.512 13.82-3.726 9.988-19.379 6.914-31.96-.602-2.45-1.219-5.008-1.719-7.485 8.316 11.719 21.691 28.184 34.04 32.844 10.616 4.004 21.554 4.91 29.272 4.91 1.938 0 3.637-.058 5.113-.14-.148 5.203.114 10.934 1.16 17.008 1.028 5.984 4.766 14.496 9.926 24.109-7.53-1.22-17.855-1.797-26.434 1.664l.001-.009zm119.65 67.781c4.992 1.766 8.586 5.004 10.688 9.633 3.398 7.48 3.832 14.113 3.598 18.363-.29 5.21 1.285 10.3 4.433 14.316 5.793 7.386 12.371 10.938 18.18 14.074 7.848 4.23 13.707 7.398 16.098 18.977-18.062 5.652-32.32.808-43.5-14.668l-7.11-22.188a4.504 4.504 0 0 0-5.675-2.918 4.509 4.509 0 0 0-2.914 5.672l7.145 22.289c-.024 1.683-.36 7.34-3.688 10.793-1.863 1.93-4.422 2.87-7.836 2.87-11.285 0-14.105-10.444-14.684-13.468l4.695-21.055a4.506 4.506 0 0 0-3.42-5.387c-2.423-.531-4.84.988-5.384 3.422l-4.774 21.387c-5.925 13.691-17.816 17.828-38.188 13.102 5.621-10.238 11.184-13.441 17.027-16.816 6.258-3.606 12.723-7.332 18.508-18.387 1.54-2.941 1.23-6.402-.804-9.04-2.032-2.628-5.317-3.792-8.512-3.058a3.087 3.087 0 0 1-2.625-.633c-.434-.355-.938-.976-.906-1.894.172-4.606 1.78-9.133 4.777-13.449 4.91-7.066 4.781-16.59-.313-23.691-28.633-39.934-46.984-71.082-49.098-83.344-2.1-12.219-.777-23.059.707-29.996.243-1.133.333-2.277.477-3.422-1.582-3.5-4.309-7.57-6.54-10.883-2.062-3.062-4.01-5.96-5.245-8.523-7.934-16.43-12.617-28.07-13.918-34.598-3.074-15.363 1.55-32.66 1.75-33.387a4.515 4.515 0 0 1 5.535-3.168 4.508 4.508 0 0 1 3.172 5.535c-.04.156-4.254 16.004-1.606 29.25 1.125 5.625 5.813 17.145 13.2 32.44.46.958 1.117 2.067 1.878 3.266 6.106-5.285 6.782-12.457 7.293-18.41.637-7.34 1.336-12.02 7.508-15.44 9.035-4.993 15.91 1.14 26.375 11.608 6.684 6.688 13.598 13.531 22.121 16.027.281 1.055.555 2.118.926 3.16 1.66 4.688 3.918 12.23 5.234 21.54 1.43 10.074-.062 26.039-1.57 37.656-1.223 9.406.273 18.797 4.328 27.152 2.56 5.27 4.48 10.145 5.72 14.477 1.733 6.082 3.401 18.598 4.702 35.254.547 7.02 5.348 13.125 12.234 15.559l.001.001z"></path>
</svg><style>@media (prefers-color-scheme: light) { :root { filter: none; } }
</style></svg>