<?xml version="1.0" standalone="no"?>
<!DOCTYPE svg PUBLIC "-//W3C//DTD SVG 20010904//EN"
 "http://www.w3.org/TR/2001/REC-SVG-20010904/DTD/svg10.dtd">
<svg version="1.0" xmlns="http://www.w3.org/2000/svg"
 width="700.000000pt" height="700.000000pt" viewBox="0 0 700.000000 700.000000"
 preserveAspectRatio="xMidYMid meet">
<metadata>
Created by potrace 1.14, written by Peter Selinger 2001-2017
</metadata>
<g transform="translate(0.000000,700.000000) scale(0.100000,-0.100000)"
fill="#000000" stroke="none">
<path d="M1633 6809 c-259 -56 -585 -298 -751 -558 -53 -83 -129 -240 -168
-349 -37 -102 -90 -305 -100 -382 -3 -25 -7 -56 -9 -69 -12 -73 -20 -205 -20
-346 0 -237 13 -360 55 -509 l28 -100 -36 -65 c-62 -113 -82 -185 -77 -276 2
-44 6 -93 9 -110 15 -79 16 -141 4 -165 -13 -23 -20 -25 -83 -26 -87 0 -129
-10 -177 -40 -93 -59 -129 -165 -131 -387 -1 -122 6 -246 18 -307 3 -14 8 -41
11 -60 28 -162 115 -312 189 -326 85 -16 159 32 171 111 13 92 6 192 -21 281
-8 27 -15 61 -15 76 0 26 3 25 60 -32 94 -93 164 -119 229 -86 51 27 77 90 60
148 -7 25 -5 27 33 33 25 5 54 20 76 40 l36 33 29 -47 c136 -213 356 -449 575
-615 l62 -47 -19 -27 c-66 -94 -141 -292 -141 -372 0 -95 43 -151 338 -437
298 -290 398 -408 423 -505 22 -83 -29 -228 -109 -311 -80 -84 -161 -121 -285
-131 -154 -13 -248 -48 -328 -123 -71 -66 -85 -134 -41 -201 30 -46 66 -56
221 -56 l143 -1 19 -38 c38 -73 31 -72 429 -73 379 -1 408 2 458 49 40 37 55
78 63 175 10 113 28 149 160 323 106 139 128 184 129 260 0 70 -31 133 -106
214 -41 44 -73 95 -119 190 -35 72 -66 141 -70 155 -6 24 -3 27 47 39 72 18
155 61 263 135 164 113 201 127 328 122 160 -6 163 -8 247 -144 40 -64 132
-202 204 -306 72 -104 136 -201 143 -215 20 -43 15 -74 -26 -152 -58 -111 -72
-200 -42 -258 17 -30 59 -60 97 -67 19 -3 34 -10 34 -14 0 -22 -89 -102 -165
-149 -127 -77 -193 -148 -249 -263 -26 -54 -27 -60 -13 -82 20 -30 120 -56
242 -63 140 -8 244 22 322 93 l37 34 42 -45 c54 -59 119 -87 196 -86 95 1 150
33 209 121 l17 25 28 -26 c130 -118 296 -153 488 -103 110 28 124 48 101 138
-36 137 -83 194 -240 285 -108 63 -179 123 -195 166 -5 13 -11 64 -14 113 -4
84 -26 172 -59 236 -26 50 -92 110 -148 136 -52 24 -98 64 -99 85 -1 6 -3 28
-5 50 -2 22 -6 74 -10 115 -4 41 -10 94 -14 117 l-8 43 91 -49 c192 -102 360
-162 526 -187 30 -5 347 -64 420 -79 77 -15 266 -83 340 -121 171 -89 252
-199 251 -343 -1 -167 -191 -343 -481 -442 -29 -11 -58 -25 -62 -32 -13 -20
-9 -54 8 -68 31 -26 257 -4 436 42 338 86 549 245 627 473 103 298 -37 582
-450 915 -209 169 -479 344 -948 615 -457 264 -527 311 -610 403 -109 120
-240 348 -305 530 -20 56 -25 92 -26 170 -2 128 -14 184 -56 262 -89 164 -332
423 -515 549 -30 20 -56 40 -59 44 -3 4 -39 23 -80 42 -123 57 -199 68 -580
81 -219 7 -279 21 -375 83 -70 45 -106 84 -170 184 -57 89 -95 129 -159 170
l-49 32 37 13 c43 14 50 15 242 9 122 -4 151 -2 210 16 145 43 238 137 319
323 25 59 42 82 74 106 69 49 82 98 68 254 -20 212 -72 370 -148 446 -80 80
-241 167 -407 222 -54 17 -75 30 -95 57 -72 99 -165 178 -252 215 -77 32 -222
24 -342 -19 -24 -8 -43 -12 -43 -8 0 14 -97 72 -153 92 -79 28 -165 31 -264 9z
m259 -122 c69 -31 145 -107 199 -197 46 -78 86 -123 126 -143 15 -8 133 -54
261 -102 249 -93 276 -97 288 -48 9 36 -5 54 -57 74 -70 28 -360 136 -402 150
-21 8 -52 27 -68 44 -39 40 -102 147 -92 155 15 14 103 30 160 30 104 0 206
-67 296 -193 43 -59 48 -63 118 -85 194 -60 378 -167 425 -247 45 -77 76 -210
89 -377 6 -75 4 -87 -13 -109 -19 -22 -26 -24 -109 -23 -48 0 -117 2 -153 4
-52 2 -84 -4 -160 -29 -168 -57 -311 -77 -414 -59 -82 15 -213 89 -296 166
-46 43 -88 55 -160 46 -36 -5 -99 -8 -140 -9 -68 0 -80 3 -126 33 -28 18 -60
42 -70 53 -27 30 -79 49 -134 49 -38 0 -59 -7 -100 -35 -68 -46 -192 -172
-235 -239 -62 -97 -100 -244 -98 -375 2 -65 39 -90 81 -53 16 13 21 34 26 97
7 98 33 197 70 260 16 26 60 80 100 119 146 146 166 152 248 75 18 -17 61 -45
96 -61 55 -27 74 -30 145 -30 45 0 103 5 128 10 44 8 87 1 99 -17 12 -20 147
-114 201 -142 97 -48 169 -62 289 -56 58 3 114 8 125 10 58 14 119 31 203 59
80 26 101 29 150 23 31 -5 72 -8 90 -8 17 0 32 -1 32 -2 0 -12 -39 -89 -66
-133 -67 -105 -132 -150 -239 -169 -49 -9 -99 -9 -265 1 -73 4 -95 1 -155 -20
-204 -73 -351 -72 -571 2 -210 70 -258 120 -329 347 -15 45 -31 85 -38 89 -21
13 -53 9 -69 -9 -19 -22 -15 -52 17 -147 74 -219 133 -284 333 -361 79 -30
216 -68 250 -68 19 0 15 -17 -20 -77 -39 -68 -139 -170 -196 -199 -23 -12 -78
-35 -122 -51 -154 -57 -204 -95 -248 -189 -19 -41 -26 -76 -30 -146 -4 -84 -3
-94 17 -114 25 -25 40 -26 66 -7 15 11 19 28 21 87 4 162 38 206 208 269 124
45 215 99 270 160 42 47 44 38 12 -56 -33 -99 -85 -196 -155 -294 -33 -47 -61
-91 -61 -97 0 -18 37 -53 56 -53 16 0 104 87 104 103 0 13 20 8 20 -5 1 -24
65 -154 112 -224 84 -126 239 -265 386 -345 l62 -34 35 40 c64 74 89 139 92
238 2 76 -2 100 -26 166 -31 84 -28 105 12 120 31 12 54 -4 73 -47 86 -201 59
-400 -76 -552 -22 -24 -40 -49 -40 -55 0 -24 66 -121 120 -178 33 -34 60 -70
60 -79 0 -10 -14 -30 -32 -45 -102 -88 -138 -148 -142 -230 -3 -53 6 -107 48
-298 20 -92 20 -128 -2 -155 -54 -67 -157 60 -207 255 -21 80 -38 105 -71 105
-29 0 -52 -34 -52 -77 -1 -41 -24 -84 -62 -117 -64 -53 -85 -28 -76 91 20 264
31 344 53 390 14 31 64 63 99 63 10 0 37 9 60 20 66 33 92 106 59 170 -38 73
-206 159 -312 160 -45 0 -55 -4 -69 -25 -15 -23 -15 -27 0 -50 9 -14 26 -25
39 -26 35 -1 79 -9 113 -20 45 -14 121 -64 133 -88 10 -19 7 -22 -46 -37 -77
-22 -108 -39 -140 -75 -26 -28 -58 -89 -47 -89 3 0 0 -8 -5 -18 -5 -10 -12
-49 -16 -87 -4 -39 -8 -81 -10 -93 -6 -34 -19 -220 -19 -267 -1 -55 18 -96 57
-122 64 -44 141 -31 209 34 15 15 29 25 31 22 2 -2 18 -34 36 -70 35 -71 87
-131 133 -155 70 -36 181 -4 212 61 29 61 24 161 -17 318 -8 31 -14 57 -13 57
2 0 25 -28 52 -62 27 -35 53 -68 59 -74 163 -180 232 -228 370 -261 94 -23
155 -30 266 -32 l46 -1 6 -98 c7 -106 27 -178 81 -290 20 -40 36 -76 36 -81 0
-4 -19 -5 -43 -1 -59 9 -154 4 -207 -10 -62 -17 -100 -37 -229 -125 -137 -94
-200 -123 -277 -131 -80 -8 -136 9 -189 57 -63 58 -131 201 -150 317 -5 29 -3
33 12 28 44 -13 181 -45 211 -50 24 -3 39 1 53 15 37 37 14 82 -46 92 -174 29
-468 128 -660 222 -132 64 -353 200 -410 252 -11 10 -40 34 -65 55 -63 51
-195 181 -261 258 -169 195 -315 438 -431 714 -18 43 -40 83 -49 89 -25 16
-68 0 -75 -27 -6 -27 42 -149 118 -299 43 -84 50 -105 45 -138 -7 -55 -23 -71
-66 -67 l-35 3 -42 138 c-45 145 -73 203 -122 251 l-29 30 23 50 c24 56 25
102 5 215 -18 96 -19 131 -4 186 16 55 45 125 53 124 3 0 33 -48 68 -108 65
-111 170 -257 256 -355 38 -43 56 -56 77 -56 32 0 61 33 51 58 -3 9 -41 58
-83 108 -146 174 -270 380 -328 547 -17 49 -33 101 -36 115 -3 15 -7 36 -9 47
-2 11 -7 49 -11 85 -4 36 -9 79 -11 95 -6 48 -5 355 1 415 5 54 23 186 31 225
2 11 7 36 10 55 12 67 65 239 100 327 67 167 148 302 240 403 279 307 611 452
816 357z m1513 -2841 c18 -13 19 -17 4 -112 -22 -140 -18 -251 15 -347 33
-100 134 -323 151 -337 11 -9 19 -3 38 27 34 54 40 75 52 183 11 96 30 136 80
165 51 30 102 32 154 6 21 -11 91 -70 156 -131 122 -115 177 -157 233 -179 17
-8 32 -14 32 -15 0 0 9 -33 21 -71 23 -79 24 -84 42 -180 17 -93 12 -340 -9
-437 -11 -49 -5 -187 11 -247 9 -34 27 -88 42 -119 62 -138 67 -154 88 -309 3
-21 7 -51 10 -68 2 -16 7 -61 10 -100 14 -173 40 -221 150 -270 108 -48 153
-132 165 -306 9 -121 26 -165 91 -229 47 -47 97 -82 189 -132 79 -44 127 -89
151 -143 30 -65 26 -72 -38 -85 -91 -19 -191 -9 -265 28 -64 32 -132 89 -165
138 -10 15 -38 88 -63 162 -25 75 -52 140 -61 145 -25 16 -66 0 -73 -27 -4
-16 9 -71 36 -153 44 -136 49 -183 23 -232 -30 -60 -105 -83 -175 -54 -46 19
-65 37 -89 88 -22 46 -21 51 10 186 28 119 29 141 11 162 -37 42 -84 7 -101
-78 -43 -211 -69 -270 -141 -320 -69 -48 -145 -58 -298 -40 l-52 6 17 31 c32
54 84 108 139 143 30 19 57 35 60 35 2 0 29 18 58 39 54 40 95 87 133 151 44
74 5 149 -84 160 l-48 5 1 46 c0 27 9 63 23 90 13 24 32 62 44 84 25 50 26
139 1 187 -9 18 -74 116 -144 218 -285 415 -434 682 -455 815 -17 108 -14 211
10 343 6 36 -6 65 -67 155 -72 106 -192 369 -224 492 -16 60 -13 284 5 363 19
77 51 101 96 68z m-2841 -126 c29 -20 89 -97 92 -119 0 -3 3 -13 7 -21 3 -8
32 -100 63 -203 39 -129 53 -192 46 -199 -15 -15 -93 42 -148 110 -25 31 -58
62 -72 68 -40 17 -88 0 -108 -37 -19 -37 -22 -148 -6 -199 39 -121 40 -284 1
-286 -47 -2 -113 131 -135 270 -3 21 -8 48 -11 60 -3 11 -6 103 -8 202 -5 252
14 324 96 367 48 25 135 19 183 -13z m1301 -1199 c107 -64 244 -128 370 -175
55 -21 110 -42 123 -47 12 -5 22 -17 22 -28 0 -43 52 -218 86 -289 49 -101
137 -191 210 -216 42 -14 54 -23 65 -49 86 -216 153 -337 239 -432 45 -50 66
-94 63 -132 0 -7 -1 -22 -2 -32 0 -11 -37 -66 -80 -124 -168 -221 -196 -277
-205 -414 -5 -68 -17 -97 -46 -113 -12 -6 -146 -10 -359 -10 -381 0 -375 -1
-306 66 45 44 128 85 237 118 134 41 160 65 245 231 73 142 79 169 44 190 -44
26 -64 8 -124 -118 -76 -159 -87 -169 -210 -207 -121 -38 -196 -76 -256 -130
l-45 -40 -160 2 c-152 3 -161 4 -163 23 -4 28 24 58 88 93 53 30 114 45 234
57 124 12 206 49 300 136 85 78 149 200 162 308 3 26 7 53 8 61 4 27 -22 105
-52 160 -53 94 -142 194 -391 437 -134 131 -263 264 -287 296 -48 64 -52 91
-21 179 25 74 112 248 123 248 2 0 42 -22 88 -49z"/>
<path d="M1748 6482 c-28 -3 -77 -52 -79 -78 -1 -8 -2 -20 -3 -26 -4 -24 25
-69 56 -88 102 -62 204 74 121 162 -26 27 -50 35 -95 30z"/>
<path d="M1343 6268 c-19 -24 -20 -43 -6 -77 12 -30 12 -40 0 -70 -36 -91 61
-126 99 -36 26 62 10 161 -30 187 -17 12 -53 9 -63 -4z"/>
<path d="M2745 6100 c-27 -30 -10 -71 33 -84 19 -5 45 -24 59 -43 37 -49 59
-58 89 -38 54 35 4 131 -88 170 -50 20 -71 19 -93 -5z"/>
</g>
</svg>
