<svg width="84" height="56" viewBox="0 0 84 56" fill="none" xmlns="http://www.w3.org/2000/svg">
<g clip-path="url(#clip0_5743_683)">
<path d="M8 0.5H76C80.1421 0.5 83.5 3.85786 83.5 8V48C83.5 52.1421 80.1421 55.5 76 55.5H8C3.85786 55.5 0.5 52.1421 0.5 48V8C0.5 3.85786 3.85786 0.5 8 0.5Z" fill="white"/>
<path d="M8 0.5H76C80.1421 0.5 83.5 3.85786 83.5 8V48C83.5 52.1421 80.1421 55.5 76 55.5H8C3.85786 55.5 0.5 52.1421 0.5 48V8C0.5 3.85786 3.85786 0.5 8 0.5Z" stroke="#C2D2F4"/>
<path d="M8 0.5H76C80.1421 0.5 83.5 3.85786 83.5 8V48C83.5 52.1421 80.1421 55.5 76 55.5H8C3.85786 55.5 0.5 52.1421 0.5 48V8C0.5 3.85786 3.85786 0.5 8 0.5Z" stroke="#B7C6E7"/>
<path d="M40.8808 18.659V24.578H44.531C45.3414 24.6021 46.1246 24.2839 46.6884 23.7013C47.5247 22.8415 47.7621 21.5633 47.2904 20.4606C46.8187 19.3578 45.7304 18.6467 44.531 18.6576H40.8808V18.659ZM40.8808 26.6615V33.5276H38.7002V16.5754H44.4835C45.8775 16.5461 47.2256 17.0745 48.2284 18.0433C49.2259 18.9693 49.7927 20.2689 49.7927 21.6299C49.7927 22.991 49.2259 24.2905 48.2284 25.2165C47.2222 26.1773 45.8742 26.6969 44.4835 26.6601H40.8808V26.6615Z" fill="#5F6369"/>
<path d="M51.9965 29.9763C51.9935 30.539 52.263 31.0683 52.7199 31.3968C53.2023 31.7759 53.8008 31.9766 54.4142 31.9651C55.3341 31.9635 56.216 31.5976 56.8669 30.9476C57.5528 30.3424 57.9455 29.4716 57.945 28.5569C57.1153 27.9747 56.1126 27.6909 55.1008 27.7519C54.3128 27.7233 53.5364 27.9475 52.8851 28.3919C52.3386 28.7344 52.0038 29.3313 51.9965 29.9762V29.9763ZM54.8177 21.5474C56.2087 21.4704 57.5758 21.9327 58.6345 22.8381C59.5917 23.7594 60.1017 25.0508 60.0321 26.3775V33.5277H57.9465V31.9177H57.8515C57.0853 33.1695 55.7165 33.9252 54.249 33.9065C53.0738 33.9442 51.9275 33.5385 51.0376 32.7701C50.2007 32.0661 49.7261 31.0223 49.7457 29.9289C49.7072 28.8095 50.2153 27.7412 51.1081 27.0648C52.1653 26.3082 53.4478 25.9324 54.7461 25.9987C55.8558 25.9557 56.9578 26.2004 57.9451 26.709V26.2111C57.9503 25.4652 57.6195 24.7566 57.0444 24.2817C56.4662 23.7615 55.7132 23.4784 54.9355 23.4889C53.7688 23.4617 52.6726 24.0454 52.0439 25.0285L50.1233 23.8204C51.1887 22.3007 52.9648 21.4408 54.8176 21.5475" fill="#5F6369"/>
<path d="M72.0005 21.9275L64.7232 38.6418H62.4736L65.1746 32.7935L60.3862 21.9275H62.758L66.217 30.2597H66.2644L69.6312 21.9275H72.0005Z" fill="#5F6369"/>
<path d="M32.0694 25.1814C32.0702 24.5175 32.014 23.8549 31.9014 23.2007H22.7051V26.9523H27.9723C27.7541 28.1635 27.0505 29.233 26.0245 29.9126V32.3492H29.1681C31.105 30.4775 32.159 27.8734 32.0692 25.1814" fill="#547DBE"/>
<path d="M22.7053 34.7004C25.0803 34.7674 27.3916 33.9265 29.1685 32.349L26.0249 29.9125C24.4919 30.894 22.5924 31.115 20.8749 30.5118C19.1575 29.9086 17.8134 28.5483 17.2308 26.8237H13.9924V29.3334C15.6495 32.6248 19.0203 34.7012 22.7053 34.7005" fill="#34A751"/>
<path d="M17.2308 26.8237C16.8227 25.6143 16.8227 24.3044 17.2308 23.095V20.5854H13.9924C12.6073 23.337 12.6073 26.5819 13.9924 29.3334L17.2308 26.8237Z" fill="#F7BA16"/>
<path d="M22.7053 19.0742C24.0957 19.0514 25.4393 19.5762 26.4462 20.5354V20.5368L29.2294 17.7565C27.464 16.0998 25.1261 15.1903 22.7053 15.2184C19.0202 15.2177 15.6495 17.2941 13.9924 20.5856L17.2308 23.0952C18.0063 20.7209 20.2077 19.104 22.7053 19.0742Z" fill="#E84334"/>
</g>
<defs>
<clipPath id="clip0_5743_683">
<rect width="84" height="56" rx="8" fill="white"/>
</clipPath>
</defs>
</svg>
