<svg width="84" height="56" viewBox="0 0 84 56" fill="none" xmlns="http://www.w3.org/2000/svg">
<g clip-path="url(#clip0_5743_727)">
<path d="M84 0H0V56H84V0Z" fill="#29327F"/>
<path d="M73.9041 37.8602H69.1876C69.0264 37.1431 68.836 36.4485 68.7223 35.7422C68.7267 35.4991 68.6211 35.2671 68.4349 35.1107C68.2487 34.9544 68.0019 34.8905 67.7633 34.9369C66.0135 34.9756 64.2608 34.9146 62.5129 34.9826C62.1154 35.0635 61.7737 35.3153 61.5787 35.671C61.249 36.389 60.9629 37.1262 60.7218 37.8786H55.3823C55.5292 37.4796 55.6398 37.1344 55.7815 36.8018C58.1603 31.2122 60.5635 25.6329 62.9098 20.0301C63.2979 18.7906 64.5062 17.9965 65.7981 18.1319C67.0867 18.1774 68.3785 18.1415 69.7251 18.1415C71.1244 24.7451 72.5066 31.2667 73.9041 37.8602" fill="white"/>
<path d="M9.57031 18.2813C9.86324 18.2074 10.1617 18.1577 10.4628 18.1328C13.0196 18.1216 15.5765 18.121 18.1335 18.1309C18.8029 18.0311 19.4834 18.2168 20.0092 18.6427C20.5351 19.0687 20.8581 19.6958 20.8994 20.3712C21.5819 23.8195 22.2295 27.2748 22.8926 30.7268C22.923 30.8857 22.9674 31.0419 23.0632 31.4398C23.2876 30.992 23.4319 30.7484 23.5368 30.489C25.0749 26.6802 26.6231 22.8751 28.1271 19.0531C28.3882 18.3899 28.6789 18.0671 29.4684 18.1092C30.892 18.1856 32.3227 18.131 33.9216 18.131C33.1245 20.0271 32.3874 21.7987 31.636 23.5645C29.7295 28.0439 27.795 32.5119 25.928 37.0071C25.7562 37.6509 25.118 38.0543 24.4628 37.9331C23.0319 37.8702 21.5961 37.9151 20.0471 37.9151C19.4619 35.7116 18.877 33.5269 18.3017 31.34C17.5216 28.3724 16.7052 25.4129 15.9933 22.4294C15.7952 21.2773 14.9669 20.3341 13.85 19.989C12.4351 19.5103 11.0124 19.054 9.59304 18.588L9.57031 18.2813Z" fill="white"/>
<path d="M56.4447 18.7238C56.1601 20.0464 55.8864 21.3186 55.6063 22.6209C54.4556 22.3138 53.2853 22.0852 52.1036 21.9369C51.1351 21.8641 50.1622 21.9962 49.2483 22.3247C47.9664 22.8207 47.8827 23.9975 48.9851 24.8152C49.6501 25.2608 50.3405 25.6671 51.0529 26.0321C51.567 26.3264 52.0876 26.6098 52.6034 26.9012C54.3945 27.8786 55.5089 29.7561 55.5089 31.7965C55.509 33.8369 54.3948 35.7144 52.6038 36.692C50.028 38.0863 47.0544 38.5625 44.172 38.042C43.2359 37.923 42.3133 37.7147 41.4169 37.4198C41.1009 37.2531 40.8934 36.935 40.8682 36.5786C41.0535 35.3932 41.3587 34.226 41.5996 33.1471C43.2056 33.4776 44.7418 33.8923 46.3062 34.0756C47.1742 34.1531 48.0484 34.0299 48.8611 33.7155C49.5214 33.5806 50.0238 33.0422 50.1127 32.3742C50.2015 31.7061 49.8573 31.0551 49.2552 30.7524C48.7345 30.4043 48.1941 30.0867 47.6366 29.8011C46.7419 29.335 45.8747 28.8178 45.0394 28.2521C43.7802 27.3813 42.9812 25.9887 42.865 24.4622C42.7488 22.9356 43.3278 21.4381 44.4407 20.3868C45.6568 19.1669 47.2214 18.3545 48.9188 18.0615C51.4386 17.5484 54.0532 17.7785 56.4447 18.7238" fill="white"/>
<path d="M37.0962 37.8652H31.9329C33.3667 31.2762 34.7865 24.7517 36.2142 18.1907H41.367C39.9349 24.7875 38.5195 31.3079 37.0962 37.8652" fill="white"/>
<path d="M66.1869 23.8428C66.6752 26.1599 67.1636 28.4771 67.67 30.8796H63.3169C64.2098 28.4556 65.07 26.1199 65.9301 23.7844L66.1869 23.8428Z" fill="#29327F"/>
</g>
<defs>
<clipPath id="clip0_5743_727">
<rect width="84" height="56" rx="8" fill="white"/>
</clipPath>
</defs>
</svg>
