<svg width="84" height="56" viewBox="0 0 84 56" fill="none" xmlns="http://www.w3.org/2000/svg">
<g clip-path="url(#clip0_5743_702)">
<path d="M84 0H0V56H84V0Z" fill="#F3F6F9"/>
<path d="M84 0H0V56H84V0Z" fill="#FA82A0"/>
<path d="M30.1732 37.5939C30.3277 43.7855 35.4636 48.6844 41.6556 48.5464H41.8323C50.4882 48.5464 54.1979 43.4235 54.9045 35.8274C55.2756 34.0208 54.8223 32.1429 53.668 30.7045C53.3078 30.2616 52.8107 29.9509 52.2547 29.8212L50.8415 29.4679L54.1979 12.8626C54.5235 10.9808 53.3823 9.15497 51.5481 8.62298C49.5104 8.12592 47.4331 9.27996 46.7785 11.2727L43.7754 21.6952L41.3023 11.4494C41.1175 10.495 40.5408 9.66184 39.7125 9.15292C38.8712 8.62528 37.8613 8.43592 36.886 8.62298C35.9243 8.8787 35.1042 9.50701 34.6069 10.3689C34.1096 11.2309 33.9762 12.2554 34.2362 13.2159L35.6494 24.875C34.6116 23.6126 32.8008 23.3108 31.4097 24.1684L31.2331 24.345C29.7004 25.5923 29.3233 27.7794 30.3498 29.4679C29.4687 29.4799 28.6341 29.8651 28.0533 30.5278L27.8767 30.7045C26.5155 32.4619 26.8314 34.9891 28.5833 36.3574L30.1732 37.5939ZM52.078 31.4111C52.2546 31.4111 52.4313 31.5878 52.608 31.7644C53.3061 32.9317 53.5571 34.3125 53.3146 35.6508C52.7846 42.7169 49.4282 46.9565 41.8322 46.9565C37.1009 47.0627 32.9559 43.8059 31.9399 39.1838L33.1764 40.4204C34.559 41.7453 36.7401 41.7453 38.1227 40.4204L38.2993 40.2437C39.3372 39.1471 39.5512 37.5069 38.8293 36.1807C39.006 36.1807 39.006 36.0041 39.1826 36.0041L39.3592 35.8274C39.7126 35.4741 40.0659 35.2975 40.2425 34.7675C40.8336 35.1365 41.4956 35.3772 42.1857 35.4741L44.3055 36.0041C42.5333 37.0814 41.5109 39.0581 41.6557 41.127C41.7245 41.523 41.9911 41.8562 42.3624 42.0102C42.7583 41.9415 43.0916 41.6749 43.2456 41.3036C43.1293 39.5629 44.1191 37.9368 45.7187 37.2407C46.4479 36.9517 47.2329 36.831 48.0152 36.8873H48.1919C49.2518 37.064 49.4284 35.6508 48.5452 35.2975L42.539 33.8842C41.823 33.7719 41.1512 33.4666 40.5958 33.001C40.5958 32.8243 40.4192 32.8243 40.2425 32.8243C39.5918 32.1683 39.4482 31.1632 39.8892 30.3512C40.0719 29.6943 40.6271 29.2085 41.3024 29.1146C41.7569 28.938 42.2611 28.938 42.7156 29.1146H43.0689L52.0782 31.4111H52.078ZM37.416 10.0362C37.972 9.89406 38.5624 10.0253 39.0058 10.3895C39.5136 10.6879 39.8434 11.2156 39.8891 11.8027L42.8921 24.875V25.2283L43.0687 25.4049L43.2454 25.5816H43.7753C43.952 25.5816 43.952 25.5816 43.952 25.4049L44.1286 25.2283V25.0517L48.0151 11.8027C48.1732 11.2133 48.5621 10.7125 49.0939 10.4133C49.6258 10.1142 50.2557 10.0419 50.8415 10.2128C51.3576 10.3523 51.7968 10.6916 52.062 11.1558C52.3272 11.6199 52.3966 12.1706 52.2547 12.686L48.8983 29.2913L42.8921 27.8781H42.5388C41.8432 27.7014 41.1145 27.7014 40.4189 27.8781C39.6281 28.0039 38.9247 28.4516 38.4758 29.1146L37.5926 27.3482L35.8261 13.0394V12.8626C35.632 11.665 36.2917 10.4922 37.416 10.0362ZM32.1164 25.5816C33.353 24.875 34.4129 25.2283 35.4728 26.8181L36.356 28.0547V28.2314L38.1226 30.8812C37.8883 31.9934 38.1459 33.1526 38.8292 34.0609C38.6525 34.2375 38.4759 34.5909 38.2992 34.7675L38.1226 34.9441C37.2407 35.51 36.0692 35.2757 35.4728 34.4142L32.1164 29.2913C31.0565 27.7014 31.2331 26.1115 32.1164 25.5816ZM29.1132 31.5878C29.7389 30.8786 30.7871 30.7288 31.5863 31.2345L34.0595 34.9442C34.6712 35.919 35.7352 36.5175 36.8859 36.534C37.5925 37.276 37.5925 38.4419 36.8859 39.1838C36.144 39.8904 34.9781 39.8904 34.2361 39.1838L29.9965 34.9442C28.5833 33.8842 28.4067 32.2944 29.1132 31.5878Z" fill="white"/>
</g>
<defs>
<clipPath id="clip0_5743_702">
<rect width="84" height="56" rx="8" fill="white"/>
</clipPath>
</defs>
</svg>
