<svg width="84" height="56" viewBox="0 0 84 56" fill="none" xmlns="http://www.w3.org/2000/svg">
<g clip-path="url(#clip0_5743_739)">
<path d="M85.2923 0H-0.861572V56H85.2923V0Z" fill="#272622"/>
<path d="M52.7687 11.4153C43.5072 11.4153 35.9688 18.7384 35.9688 27.9999C35.9688 37.2614 43.5072 44.5845 52.5534 44.5845C61.5995 44.5845 69.138 37.0461 69.138 27.9999C69.3534 18.7384 61.8149 11.4153 52.7687 11.4153Z" fill="#F79E1B"/>
<path d="M32.0919 11.4153C23.0458 11.4153 15.5073 18.7384 15.5073 27.9999C15.5073 37.2614 23.0458 44.5845 32.0919 44.5845C41.1381 44.5845 48.8919 37.2614 48.8919 27.9999C48.8919 18.7384 41.3535 11.4153 32.0919 11.4153Z" fill="#EB001B"/>
<path d="M48.892 27.9998C48.892 22.8306 46.5228 18.0921 42.4305 14.8613C35.1074 20.4613 34.0304 31.0152 39.6305 38.1229C40.492 39.1998 41.3535 40.0613 42.4305 40.9229C46.5228 37.9075 48.892 33.169 48.892 27.9998Z" fill="#FF5F00"/>
</g>
<defs>
<clipPath id="clip0_5743_739">
<rect width="84" height="56" rx="8" fill="white"/>
</clipPath>
</defs>
</svg>
