<svg width="84" height="56" viewBox="0 0 84 56" fill="none" xmlns="http://www.w3.org/2000/svg">
<g clip-path="url(#clip0_5743_708)">
<path d="M84 0H0V56H84V0Z" fill="#F3F6F9"/>
<path d="M80.5247 0.394775H3.85479C1.67798 0.394775 -0.0866699 2.15943 -0.0866699 4.33624V46.8524C-0.0866699 49.0292 1.67798 50.7938 3.85479 50.7938H80.5247C82.7015 50.7938 84.4662 49.0292 84.4662 46.8524V4.33624C84.4662 2.15943 82.7015 0.394775 80.5247 0.394775Z" fill="white"/>
<path d="M59.1526 -0.000244141C55.917 0.217358 53.1398 2.38027 52.1398 5.4615L42.9254 51.4999C42.5141 52.758 42.7324 53.4216 43.5002 54.5002C44.2681 55.5789 45.1118 55.9751 46.4366 56.0002H84.0001V-0.000145674" fill="#01798A"/>
<path d="M35.9992 0H-0.000488281L0.000220478 56.0005L35.8316 55.9419C38.0084 55.9419 39.7731 54.1773 39.7731 52.0005V4.33617C39.7731 2.15936 38.176 0 35.9992 0Z" fill="#DC1F2B"/>
<path d="M53.999 5.5C54.9287 2.46303 57.6193 0.29991 60.7882 0.0417618L52.8404 0.0362252L34.1016 0.033145C30.9099 0.269856 28.1686 2.80315 27.237 5.86144L17.7809 51.5003C17.3664 52.7427 17.5621 54.1075 18.3091 55.1837C19.0561 56.2599 20.267 56.9217 21.5772 56.9698H48.3202C47.0099 56.9218 45.7988 56.2601 45.0516 55.1839C44.3043 54.1078 44.1082 52.7429 44.5223 51.5003L53.999 5.5Z" fill="#1A4580"/>
<path d="M35.7055 31.3413H36.0376C36.2839 31.3731 36.5246 31.2509 36.6443 31.0333L37.5073 29.7297H39.8182L39.3363 30.5871H42.1072L41.7557 31.9008H38.4587C38.1828 32.4192 37.6362 32.7355 37.0494 32.7164H35.332L35.7055 31.3413H35.7055ZM35.3261 33.2241H41.3968L41.0098 34.6512H38.5684L38.1959 36.0286H40.5716L40.1846 37.4555H37.8089L37.257 39.491C37.1204 39.8312 37.3001 39.9842 37.7931 39.9494H39.7293L39.3706 41.2755H35.6533C34.9487 41.2755 34.7069 40.868 34.928 40.0531L35.6336 37.4555H34.115L34.5007 36.0286H36.0195L36.3917 34.6512H34.9401L35.3261 33.2241H35.3261ZM45.0156 29.7199L44.9199 30.5553C45.5569 30.0745 46.3119 29.7747 47.1051 29.6875H50.9483L49.4786 35.0575C49.3567 35.6714 48.8342 35.9778 47.911 35.9766H43.555L42.5347 39.7473C42.4759 39.9494 42.559 40.053 42.7788 40.053H43.6358L43.3208 41.2234H41.1419C40.3055 41.2234 39.9568 40.9688 40.0956 40.4596L42.9788 29.7198H45.0155L45.0156 29.7199ZM48.27 31.2379L44.8398 31.2379L44.4295 32.6868C44.8867 32.4008 45.4161 32.2512 45.9554 32.2556C46.9074 32.2406 47.994 32.2556 47.994 32.2556L48.27 31.2379ZM47.0273 34.5992C47.2809 34.6339 47.4228 34.5326 47.4398 34.2936L47.6497 33.5297H44.2143L43.9262 34.5992H47.0273ZM44.71 36.3341H46.6902L46.6534 37.199H47.1807C47.4471 37.199 47.5791 37.113 47.5791 36.943L47.7352 36.3835H49.3809L49.1612 37.199C48.9926 37.8672 48.369 38.3182 47.6816 38.2689H46.6268L46.6219 39.7473C46.6025 39.9841 46.8147 40.1048 47.2516 40.1048H48.243L47.9231 41.2754H45.5451C44.8785 41.3074 44.5517 40.9868 44.5586 40.3068L44.71 36.3341L44.71 36.3341Z" fill="white"/>
<path d="M20.7147 22.5657C20.5074 23.7884 19.8437 24.8867 18.8577 25.6388C17.7734 26.39 16.473 26.7656 15.1552 26.7082C14.0028 26.8085 12.8629 26.4091 12.0251 25.6116C11.5536 25.0626 11.3068 24.3558 11.3341 23.6326C11.3372 23.2739 11.3765 22.9165 11.4514 22.5657L13.0615 14.729H15.4933L13.9051 22.477C13.8597 22.6717 13.8376 22.8711 13.8393 23.071C13.822 23.4202 13.9254 23.7647 14.1321 24.0468C14.4822 24.4509 15.006 24.6611 15.5385 24.6111C16.1982 24.6394 16.8481 24.443 17.3818 24.0541C17.8759 23.6611 18.2076 23.0995 18.3133 22.477L19.9065 14.7291L22.326 14.729L20.7147 22.5657Z" fill="white"/>
<path d="M30.9273 19.4828H32.8319L31.34 26.4768H29.4392L30.9273 19.4828ZM31.5268 16.9348H33.4483L33.0894 18.6325H31.168L31.5268 16.9348Z" fill="white"/>
<path d="M34.5177 25.9442C34.0041 25.428 33.7312 24.7198 33.7656 23.9925C33.7663 23.8335 33.7753 23.6747 33.7925 23.5167C33.8109 23.3393 33.8341 23.1668 33.867 23.0067C34.0378 21.9704 34.5468 21.0197 35.3147 20.3032C36.0457 19.6382 37.0041 19.2792 37.992 19.3002C38.7389 19.26 39.4706 19.521 40.0235 20.0247C40.5367 20.5499 40.807 21.2656 40.7691 21.9989C40.7675 22.1611 40.7578 22.323 40.7399 22.4842C40.7179 22.6641 40.6914 22.8367 40.6604 23.0067C40.4927 24.0314 39.985 24.9699 39.219 25.6709C38.4862 26.3253 37.5325 26.6774 36.5502 26.6563C35.8051 26.6978 35.074 26.4417 34.5176 25.9443L34.5177 25.9442ZM38.1471 24.5592C38.5334 24.079 38.783 23.5035 38.8698 22.8933C38.8918 22.7776 38.9112 22.6567 38.9233 22.536C38.9346 22.4263 38.9403 22.316 38.9404 22.2057C38.9636 21.8418 38.8465 21.4829 38.6132 21.2027C38.3718 20.9542 38.0339 20.8237 37.6882 20.8455C37.1947 20.8309 36.7204 21.0368 36.3942 21.4072C36.0045 21.8976 35.752 22.4828 35.6626 23.1028C35.6419 23.2185 35.6248 23.3345 35.6091 23.4478C35.5977 23.555 35.5932 23.6628 35.5956 23.7706C35.5723 24.1314 35.6895 24.4873 35.9228 24.7636C36.1675 25.0089 36.5061 25.1365 36.8518 25.1136C37.3443 25.1292 37.8184 24.9262 38.1471 24.5591" fill="white"/>
<path d="M53.1267 31.4006L53.5859 29.7692H55.9078L55.8076 30.3679C56.4452 30.0442 57.1372 29.8412 57.8486 29.7692H60.7197L60.2634 31.4006H59.8116L57.6458 39.0945H58.0976L57.6679 40.6224H57.2162L57.0283 41.2853H54.7797L54.9673 40.6224H50.5312L50.9636 39.0945H51.408L53.5758 31.4006H53.1267ZM55.6318 31.4006L55.0408 33.4828C55.6496 33.2518 56.2805 33.0834 56.9234 32.9803C57.116 32.2532 57.3676 31.4006 57.3676 31.4006H55.6318ZM54.7672 34.4589L54.1742 36.6399C54.769 36.3419 55.4064 36.1381 56.0638 36.0361C56.2859 35.1932 56.5082 34.4589 56.5082 34.4589H54.7672ZM55.2018 39.0945L55.6462 37.5124H53.9131L53.4663 39.0945H55.2018ZM60.8175 29.6682H63.0004L63.093 30.4812C63.0785 30.6882 63.2004 30.787 63.4593 30.787H63.8449L63.4547 32.1645H61.8503C61.2376 32.1965 60.9226 31.9601 60.8934 31.4498L60.8175 29.6682ZM60.1779 32.623L67.2486 32.6229L66.8337 34.1017H64.5825L64.1965 35.4765H66.4454L66.0279 36.9528H63.5231L62.9564 37.818H64.1824L64.4655 39.5503C64.4994 39.7228 64.6508 39.8066 64.9097 39.8066H65.2905L64.8903 41.2333H63.5426C62.8442 41.268 62.4832 41.0314 62.4536 40.5213L62.1287 38.9392L61.0132 40.6224C60.788 41.0773 60.3018 41.3424 59.7974 41.2853H57.739L58.1394 39.8582H58.7816C59.0523 39.8533 59.3047 39.7209 59.4626 39.501L61.2085 36.9528H58.9573L59.3745 35.4765H61.8162L62.2044 34.1016H59.7604L60.1779 32.6229L60.1779 32.623Z" fill="white"/>
<path d="M22.9547 19.4803H24.6723L24.4758 20.4907L24.7224 20.2024C25.236 19.6208 25.9779 19.2923 26.7538 19.3029C27.3499 19.2493 27.9351 19.487 28.325 19.9411C28.6655 20.4658 28.7596 21.1132 28.5826 21.7131L27.6363 26.4792H25.8711L26.7256 22.1592C26.8252 21.8306 26.7995 21.4767 26.6535 21.1659C26.4749 20.9317 26.1854 20.8098 25.8931 20.8457C25.4699 20.8345 25.0588 20.9872 24.7455 21.272C24.4159 21.5905 24.1983 22.0072 24.1253 22.4598L23.3379 26.4792H21.5691L22.9547 19.4803Z" fill="white"/>
<path d="M42.6515 19.4802H44.3705L44.1754 20.4906L44.4191 20.2023C44.9333 19.6211 45.675 19.2928 46.4509 19.3028C47.0466 19.2486 47.6316 19.4865 48.0204 19.941C48.3616 20.4655 48.4554 21.1133 48.277 21.713L47.3346 26.4791H45.5668L46.4216 22.1591C46.5205 21.8305 46.4953 21.477 46.3506 21.1658C46.1716 20.9329 45.8833 20.8112 45.5915 20.8456C45.1677 20.8351 44.756 20.9876 44.4414 21.2719C44.1112 21.5896 43.8942 22.0069 43.8238 22.4597L43.0328 26.4791H41.2661L42.6514 19.4802" fill="white"/>
<path d="M51.1491 15.1429H56.1396C56.9307 15.0911 57.7144 15.3217 58.3514 15.7934C58.8773 16.2713 59.1577 16.9622 59.1135 17.6715V17.696C59.1135 17.8512 59.1033 18.0263 59.0889 18.2159C59.0643 18.4032 59.0324 18.593 58.9913 18.7902C58.8046 19.8091 58.2674 20.7306 57.4727 21.3951C56.6854 22.0499 55.6889 22.3998 54.6651 22.3809H51.9887L51.1612 26.4792H48.844L51.1491 15.1429V15.1429ZM52.3964 20.4095H54.616C55.1063 20.4364 55.5908 20.2936 55.9882 20.0053C56.3492 19.6793 56.5871 19.239 56.6619 18.7583C56.6813 18.6546 56.6935 18.5611 56.7083 18.4749C56.7157 18.3936 56.7253 18.3121 56.7253 18.2335C56.7525 17.8864 56.5901 17.5518 56.3006 17.3585C55.8869 17.1446 55.422 17.0499 54.9577 17.0849H53.0728L52.3964 20.4094" fill="white"/>
<path d="M69.4849 27.8322C69.0279 28.8943 68.4068 29.878 67.6444 30.7473C66.866 31.6852 65.6771 32.1817 64.4629 32.0757L64.6314 30.8757C66.2792 30.3631 67.1704 28.0537 67.6782 27.0311L67.0728 19.4999L68.3474 19.4827H69.4166L69.5316 24.2069L71.5358 19.4827H73.5649L69.4849 27.8323" fill="white"/>
<path d="M63.811 20.0519L63.0048 20.6114C62.1861 19.7823 60.9051 19.6242 59.9094 20.2293C57.8875 21.1756 56.198 28.4333 61.7647 26.0429L62.0821 26.4223L64.2722 26.4791L65.7103 19.8843L63.811 20.0519ZM62.5656 23.6573C62.2138 24.7048 61.428 25.3972 60.8128 25.2001C60.1975 25.0078 59.9778 23.9973 60.3342 22.9476C60.6857 21.8977 61.4767 21.2077 62.087 21.4048C62.7023 21.5971 62.9243 22.6074 62.5656 23.6573" fill="white"/>
</g>
<defs>
<clipPath id="clip0_5743_708">
<rect width="84" height="56" rx="8" fill="white"/>
</clipPath>
</defs>
</svg>
