<?xml version="1.0" encoding="iso-8859-1"?>
<!-- Generator: Adobe Illustrator 19.0.0, SVG Export Plug-In . SVG Version: 6.00 Build 0)  -->
<svg version="1.1" id="Layer_1" xmlns="http://www.w3.org/2000/svg" xmlns:xlink="http://www.w3.org/1999/xlink" x="0px" y="0px"
	 viewBox="0 0 509.287 509.287" style="enable-background:new 0 0 509.287 509.287;" xml:space="preserve">
<circle style="fill:#EE4A68;" cx="254.644" cy="254.644" r="254.644"/>
<rect x="72.223" y="88.837" style="fill:#414753;" width="364.842" height="236.673"/>
<circle style="fill:#FCFCFD;" cx="254.644" cy="207.174" r="68.154"/>
<polygon style="fill:#F0582F;" points="238.029,240.742 288.212,207.174 238.029,173.605 "/>
<g>
	<circle style="fill:#F1F3F7;" cx="145.462" cy="366.877" r="25.091"/>
	<path style="fill:#F1F3F7;" d="M195.306,440.795c-0.339-13.224-5.764-25.43-14.58-34.246c-9.155-9.155-21.701-14.58-35.603-14.58
		c-13.902,0-26.448,5.425-35.264,14.58c-8.816,8.816-14.241,21.023-14.58,34.246H195.306z"/>
	<circle style="fill:#F1F3F7;" cx="254.644" cy="366.877" r="25.091"/>
	<path style="fill:#F1F3F7;" d="M304.827,440.795c-0.339-13.224-5.764-25.43-14.58-34.246c-9.155-9.155-21.701-14.58-35.603-14.58
		c-13.902,0-26.448,5.425-35.264,14.58c-8.816,8.816-14.241,21.023-14.58,34.246H304.827z"/>
	<circle style="fill:#F1F3F7;" cx="364.164" cy="366.877" r="25.091"/>
	<path style="fill:#F1F3F7;" d="M414.008,440.795c-0.339-13.224-5.764-25.43-14.58-34.246c-9.155-9.155-21.701-14.58-35.603-14.58
		c-13.902,0-26.448,5.425-35.264,14.58c-8.816,8.816-14.241,21.023-14.58,34.246H414.008z"/>
</g>
<g>
</g>
<g>
</g>
<g>
</g>
<g>
</g>
<g>
</g>
<g>
</g>
<g>
</g>
<g>
</g>
<g>
</g>
<g>
</g>
<g>
</g>
<g>
</g>
<g>
</g>
<g>
</g>
<g>
</g>
</svg>
