<svg id="calc" xmlns="http://www.w3.org/2000/svg" width="57.924" height="85.944" viewBox="0 0 57.924 85.944">
  <path id="Контур_111" data-name="Контур 111" d="M60.682,56.077A1.206,1.206,0,0,1,59.5,54.849V47.188a1.183,1.183,0,1,1,2.364,0v7.661A1.206,1.206,0,0,1,60.682,56.077Z" transform="translate(-3.941 8.013)" fill="#ff8e00"/>
  <path id="Контур_112" data-name="Контур 112" d="M65.7,87.944H17.228A4.822,4.822,0,0,1,12.5,83.033V6.911A4.822,4.822,0,0,1,17.228,2H65.7a4.822,4.822,0,0,1,4.728,4.911V37.274a1.183,1.183,0,1,1-2.364,0V6.911A2.411,2.411,0,0,0,65.7,4.456H17.228a2.411,2.411,0,0,0-2.364,2.456V83.033a2.411,2.411,0,0,0,2.364,2.456H65.7a2.411,2.411,0,0,0,2.364-2.456V71a1.183,1.183,0,1,1,2.364,0V83.033A4.822,4.822,0,0,1,65.7,87.944Z" transform="translate(-12.5 -2)" fill="#ff8e00"/>
  <path id="Контур_113" data-name="Контур 113" d="M60.682,44.835A1.206,1.206,0,0,1,59.5,43.607V35.958a1.183,1.183,0,1,1,2.364,0v7.649A1.206,1.206,0,0,1,60.682,44.835Z" transform="translate(-3.941 5.455)" fill="#ff8e00"/>
  <path id="Контур_114" data-name="Контур 114" d="M59.874,25.211H20.864A2.411,2.411,0,0,1,18.5,22.756V11.706A2.411,2.411,0,0,1,20.864,9.25h39.01a2.411,2.411,0,0,1,2.364,2.456v11.05A2.411,2.411,0,0,1,59.874,25.211ZM20.864,11.706v11.05h39.01V11.706Z" transform="translate(-11.407 -0.349)" fill="#ff8e00"/>
  <path id="Контур_115" data-name="Контур 115" d="M27.366,39.414h-6.5A2.411,2.411,0,0,1,18.5,36.958V30.206a2.411,2.411,0,0,1,2.364-2.456h6.5a2.411,2.411,0,0,1,2.364,2.456v6.753A2.411,2.411,0,0,1,27.366,39.414Zm-6.5-9.208v6.753h6.5V30.206Z" transform="translate(-11.407 3.865)" fill="#ff8e00"/>
  <path id="Контур_116" data-name="Контур 116" d="M27.366,53.164h-6.5A2.411,2.411,0,0,1,18.5,50.708V43.956A2.411,2.411,0,0,1,20.864,41.5h6.5a2.411,2.411,0,0,1,2.364,2.456v6.753A2.411,2.411,0,0,1,27.366,53.164Zm-6.5-9.208v6.753h6.5V43.956Z" transform="translate(-11.407 6.997)" fill="#ff8e00"/>
  <path id="Контур_117" data-name="Контур 117" d="M54.866,39.414h-6.5A2.411,2.411,0,0,1,46,36.958V30.206a2.411,2.411,0,0,1,2.364-2.456h6.5a2.411,2.411,0,0,1,2.364,2.456v6.753A2.411,2.411,0,0,1,54.866,39.414Zm-6.5-9.208v6.753h6.5V30.206Z" transform="translate(-6.399 3.865)" fill="#ff8e00"/>
  <path id="Контур_118" data-name="Контур 118" d="M41.116,39.414h-6.5a2.411,2.411,0,0,1-2.364-2.456V30.206a2.411,2.411,0,0,1,2.364-2.456h6.5a2.411,2.411,0,0,1,2.364,2.456v6.753A2.411,2.411,0,0,1,41.116,39.414Zm-6.5-9.208v6.753h6.5V30.206Z" transform="translate(-8.903 3.865)" fill="#ff8e00"/>
  <path id="Контур_119" data-name="Контур 119" d="M41.116,53.164h-6.5a2.411,2.411,0,0,1-2.364-2.456V43.956A2.411,2.411,0,0,1,34.614,41.5h6.5a2.411,2.411,0,0,1,2.364,2.456v6.753A2.411,2.411,0,0,1,41.116,53.164Zm-6.5-9.208v6.753h6.5V43.956Z" transform="translate(-8.903 6.997)" fill="#ff8e00"/>
  <path id="Контур_120" data-name="Контур 120" d="M54.866,70.046h-6.5A2.411,2.411,0,0,1,46,67.59V43.956A2.411,2.411,0,0,1,48.364,41.5h6.5a2.411,2.411,0,0,1,2.364,2.456V67.59A2.411,2.411,0,0,1,54.866,70.046Zm0-26.091h-6.5V67.59h6.5Z" transform="translate(-6.399 6.997)" fill="#ff8e00"/>
  <path id="Контур_121" data-name="Контур 121" d="M41.116,66.914h-6.5a2.411,2.411,0,0,1-2.364-2.456V57.706a2.411,2.411,0,0,1,2.364-2.456h6.5a2.411,2.411,0,0,1,2.364,2.456v6.753A2.411,2.411,0,0,1,41.116,66.914Zm-6.5-9.208v6.753h6.5V57.706Z" transform="translate(-8.903 10.129)" fill="#ff8e00"/>
  <path id="Контур_122" data-name="Контур 122" d="M27.366,66.914h-6.5A2.411,2.411,0,0,1,18.5,64.458V57.706a2.411,2.411,0,0,1,2.364-2.456h6.5a2.411,2.411,0,0,1,2.364,2.456v6.753A2.411,2.411,0,0,1,27.366,66.914Zm-6.5-9.208v6.753h6.5V57.706Z" transform="translate(-11.407 10.129)" fill="#ff8e00"/>
</svg>
