<svg width="50" height="50" viewBox="0 0 50 50" fill="none" xmlns="http://www.w3.org/2000/svg">
<rect width="50" height="50" fill="#F7654A"/>
<path d="M34.5714 31.4286C34.5714 30.9598 34.183 30.5714 33.7143 30.5714H14.8571C14.3884 30.5714 14 30.9598 14 31.4286V33.1429C14 33.6116 14.3884 34 14.8571 34H33.7143C34.183 34 34.5714 33.6116 34.5714 33.1429V31.4286ZM34.5714 24.5714C34.5714 24.1027 34.183 23.7143 33.7143 23.7143H14.8571C14.3884 23.7143 14 24.1027 14 24.5714V26.2857C14 26.7545 14.3884 27.1429 14.8571 27.1429H33.7143C34.183 27.1429 34.5714 26.7545 34.5714 26.2857V24.5714ZM34.5714 17.7143C34.5714 17.2455 34.183 16.8571 33.7143 16.8571H14.8571C14.3884 16.8571 14 17.2455 14 17.7143V19.4286C14 19.8973 14.3884 20.2857 14.8571 20.2857H33.7143C34.183 20.2857 34.5714 19.8973 34.5714 19.4286V17.7143Z" fill="white"/>
</svg>
