<svg width="175" height="49" viewBox="0 0 175 49" fill="none" xmlns="http://www.w3.org/2000/svg">
<rect width="175" height="49" fill="white"/>
<path d="M63.854 19.66H66.654C67.7273 19.66 68.5487 19.8793 69.118 20.318C69.6873 20.7567 69.972 21.508 69.972 22.572C69.972 23.2627 69.832 23.804 69.552 24.196C69.272 24.5787 68.866 24.812 68.334 24.896C69.6407 25.148 70.294 26.0813 70.294 27.696C70.294 28.788 70.028 29.614 69.496 30.174C68.964 30.7247 68.1753 31 67.13 31H63.854V19.66ZM66.626 24.294C67.2233 24.294 67.6293 24.1633 67.844 23.902C68.068 23.6313 68.18 23.1973 68.18 22.6C68.18 22.0213 68.0353 21.6293 67.746 21.424C67.466 21.2093 66.9947 21.102 66.332 21.102H65.912V24.294H66.626ZM66.71 29.544C67.3167 29.544 67.7367 29.3993 67.97 29.11C68.2033 28.8207 68.32 28.3447 68.32 27.682C68.32 27.0007 68.1893 26.506 67.928 26.198C67.676 25.8807 67.2467 25.722 66.64 25.722H65.912V29.544H66.71ZM74.041 19.66H76.253L78.521 31H76.603L76.155 28.382H74.181L73.719 31H71.773L74.041 19.66ZM75.931 27.066L75.161 22.306L74.391 27.066H75.931ZM80.3894 19.66H82.3774V29.516H84.0714V19.66H86.0594V29.516H87.6834V19.66H89.6714V31H80.3894V19.66ZM98.9146 31.168C96.9359 31.168 95.9466 30.0853 95.9466 27.92V27.528H97.8786C97.8786 27.7147 97.8833 27.8547 97.8926 27.948C97.9019 28.508 97.9766 28.914 98.1166 29.166C98.2659 29.418 98.5366 29.544 98.9286 29.544C99.3299 29.544 99.6006 29.404 99.7406 29.124C99.8806 28.8347 99.9506 28.382 99.9506 27.766C99.9506 27.15 99.8339 26.6833 99.6006 26.366C99.3766 26.0487 98.9659 25.8713 98.3686 25.834H97.8366V24.462C98.0699 24.462 98.2379 24.4573 98.3406 24.448C98.9473 24.42 99.3673 24.2613 99.6006 23.972C99.8339 23.6733 99.9506 23.216 99.9506 22.6C99.9506 22.1053 99.8619 21.7273 99.6846 21.466C99.5166 21.2047 99.2366 21.074 98.8446 21.074C98.4619 21.074 98.1819 21.2093 98.0046 21.48C97.8273 21.7413 97.7293 22.1147 97.7106 22.6V23.09H95.7786V22.558C95.7786 21.5967 96.0446 20.85 96.5766 20.318C97.1179 19.786 97.8646 19.52 98.8166 19.52C99.7779 19.52 100.525 19.786 101.057 20.318C101.598 20.8407 101.869 21.578 101.869 22.53C101.869 23.1833 101.729 23.734 101.449 24.182C101.178 24.63 100.819 24.9147 100.371 25.036C101.369 25.4 101.869 26.3007 101.869 27.738C101.869 28.8207 101.631 29.6653 101.155 30.272C100.688 30.8693 99.9413 31.168 98.9146 31.168ZM105.661 19.66H107.873L110.141 31H108.223L107.775 28.382H105.801L105.339 31H103.393L105.661 19.66ZM107.551 27.066L106.781 22.306L106.011 27.066H107.551ZM111.982 19.66H118.52V31H116.476V21.13H114.026V31H111.982V19.66ZM120.926 19.66H124.258C126.19 19.66 127.156 20.7333 127.156 22.88C127.156 24.9333 126.143 25.96 124.118 25.96H122.984V31H120.926V19.66ZM123.782 24.504C124.342 24.504 124.72 24.3873 124.916 24.154C125.112 23.9113 125.21 23.482 125.21 22.866C125.21 22.418 125.177 22.0773 125.112 21.844C125.047 21.6013 124.911 21.4193 124.706 21.298C124.51 21.1767 124.202 21.116 123.782 21.116H122.984V24.504H123.782ZM132.103 31.154C130.927 31.154 130.087 30.8413 129.583 30.216C129.079 29.5813 128.827 28.6573 128.827 27.444V23.188C128.827 21.984 129.079 21.074 129.583 20.458C130.087 19.842 130.927 19.534 132.103 19.534C133.269 19.534 134.105 19.842 134.609 20.458C135.113 21.074 135.365 21.984 135.365 23.188V27.444C135.365 28.648 135.108 29.5673 134.595 30.202C134.091 30.8367 133.26 31.154 132.103 31.154ZM132.103 29.628C132.56 29.628 132.868 29.4833 133.027 29.194C133.185 28.9047 133.265 28.4847 133.265 27.934V22.712C133.265 22.1613 133.185 21.746 133.027 21.466C132.877 21.186 132.569 21.046 132.103 21.046C131.636 21.046 131.323 21.1907 131.165 21.48C131.006 21.76 130.927 22.1707 130.927 22.712V27.934C130.927 28.4847 131.006 28.9047 131.165 29.194C131.323 29.4833 131.636 29.628 132.103 29.628ZM140.649 31.154C139.473 31.154 138.638 30.8273 138.143 30.174C137.658 29.5113 137.415 28.578 137.415 27.374V23.328C137.415 22.0867 137.658 21.144 138.143 20.5C138.629 19.856 139.464 19.534 140.649 19.534C141.76 19.534 142.549 19.814 143.015 20.374C143.482 20.934 143.715 21.7413 143.715 22.796V23.748H141.727V22.768C141.727 22.3667 141.709 22.054 141.671 21.83C141.634 21.5967 141.536 21.41 141.377 21.27C141.228 21.1207 140.99 21.046 140.663 21.046C140.327 21.046 140.075 21.1253 139.907 21.284C139.739 21.4333 139.627 21.6387 139.571 21.9C139.525 22.152 139.501 22.4833 139.501 22.894V27.808C139.501 28.452 139.585 28.9187 139.753 29.208C139.921 29.488 140.225 29.628 140.663 29.628C140.981 29.628 141.214 29.5533 141.363 29.404C141.522 29.2547 141.62 29.0587 141.657 28.816C141.704 28.564 141.727 28.2327 141.727 27.822V26.8H143.715V27.71C143.715 28.802 143.487 29.6513 143.029 30.258C142.572 30.8553 141.779 31.154 140.649 31.154Z" fill="black"/>
<path d="M48 22.7031C47.6987 23.0346 47.3571 23.3259 46.9955 23.577C45.3181 24.7121 43.6306 25.8571 41.9933 27.0424C41.1496 27.6652 40.1049 28.4286 39.01 28.4286H39H38.99C37.8951 28.4286 36.8504 27.6652 36.0067 27.0424C34.3694 25.8471 32.6819 24.7121 31.0145 23.577C30.6429 23.3259 30.3013 23.0346 30 22.7031V30.6786C30 31.5625 30.7232 32.2857 31.6071 32.2857H46.3929C47.2768 32.2857 48 31.5625 48 30.6786V22.7031ZM48 19.75C48 18.8661 47.2667 18.1429 46.3929 18.1429H31.6071C30.5324 18.1429 30 18.9866 30 19.971C30 20.885 31.0145 22.0201 31.7277 22.5022C33.2846 23.5871 34.8616 24.6719 36.4185 25.7667C37.0714 26.2188 38.1763 27.1429 38.99 27.1429H39H39.01C39.8237 27.1429 40.9286 26.2188 41.5815 25.7667C43.1384 24.6719 44.7154 23.5871 46.2824 22.5022C47.1663 21.8895 48 20.875 48 19.75Z" fill="black"/>
</svg>
