<svg xmlns="http://www.w3.org/2000/svg" width="82" height="28"><path d="M24.445 27c0-2.198-.015-4.882.009-7.013a9.022 9.022 0 01.204-1.899c.311-1.354 1.324-2.083 2.662-2.003 1.217.073 2.01.913 2.171 2.307.026.23.027.464.028.696.002 2.248.001 4.497.001 6.745v1.152h4.408c.018-.079.034-.116.034-.153.003-2.132-.027-4.818.024-6.948.018-.762.139-1.55.38-2.27.349-1.039 1.288-1.564 2.421-1.537.961.023 1.749.558 2.067 1.499.145.431.2.91.204 1.368.02 2.287.009 4.574.009 6.861v1.185h4.408c0-3.154.06-6.825-.026-9.94-.043-1.538-.732-2.879-1.974-3.865-2.277-1.808-5.951-1.429-7.955.812-.109.122-.222.241-.361.393-1.006-1.496-2.412-2.212-4.126-2.33-1.709-.118-3.243.334-4.601 1.671v-1.732h-4.391v15l4.404.001zM68 17.427c-.986-3.802-4.57-5.949-8.64-5.255a7.347 7.347 0 00-6.111 8.056c.413 3.948 3.725 6.799 7.74 6.662 3.604-.123 6.819-2.65 6.947-5.486l-3.986-.868c-.905 1.988-2.048 2.718-3.708 2.403-1.603-.304-2.617-1.515-2.711-3.239-.094-1.728.793-3.139 2.263-3.585a3.453 3.453 0 012.225.042c1.063.383 1.53 1.279 1.838 2.271L68 17.427zm-22-4.934V27h5V12.493h-5zm2.444-1.703c1.467.024 2.528-.974 2.556-2.403.028-1.441-1.057-2.587-2.466-2.605-1.378-.019-2.511 1.091-2.534 2.483-.024 1.443 1.001 2.501 2.444 2.525zM12 12v1.504c0-.084-.089-.106-.133-.139-2.606-1.947-6.254-1.782-8.577.489-2.356 2.302-2.786 5.142-1.86 8.195.9 2.964 3.192 4.666 6.28 4.823 1.631.083 3.136-.58 4.473-1.679.024.394.05 1.807.069 1.807H17V12h-5zm-1.761 10.754c-1.244.598-2.457.448-3.551-.382-1.247-.948-1.631-3.102-.874-4.674a3.28 3.28 0 013.784-1.772c1.583.398 2.64 1.853 2.612 4.029-.04 1.024-.635 2.158-1.971 2.799z"/><path fill="#FF7F00" d="M54.53 1.844c-6.819-.201-21.68 1.541-18.538 2.328a74.458 74.458 0 014.342-.127c17.991 0 32.208 6.414 32.575 14.307.22 4.732-6.212 7.414-4.71 7.414 7.654-2.383 12.731-6.612 12.744-11.431.016-6.049-7.704-11.94-26.413-12.491z"/></svg>