<svg xmlns="http://www.w3.org/2000/svg" xmlns:xlink="http://www.w3.org/1999/xlink" width="800" height="182.5"><defs><linearGradient id="a"><stop offset="0" stop-color="#0029a6"/><stop offset="1" stop-color="#0069e4"/></linearGradient><linearGradient x1="599.752" y1="181.461" x2="599.752" y2="1.019" id="b" xlink:href="#a" gradientUnits="userSpaceOnUse"/></defs><path fill="url(#b)" d="M0 0h600v182.5H0z"/><path fill="#c40000" d="M613.75 0H800v182.5H613.75z"/><path d="M506.797 43.672c-17.301 0-31.563 12.426-31.563 29.726 0 11.895 6.728 22.36 16.563 27.735l-17.969 38.437h22.93l15.195-34.61h8.594v34.61h20.625V43.672h-34.375zm0 17.695h13.75v24.805h-13.75c-6.154 0-10.938-5.442-10.938-12.422s4.784-12.383 10.938-12.383zm-63.984-17.695l-34.844 55.937V43.672h-20.625v95.898h17.89l34.493-55.39v55.39h20.625V43.672zM92.454 61.362h-13.75v24.81h13.75c6.154 0 10.938-5.425 10.938-12.405 0-6.98-4.784-12.405-10.938-12.405zm0-17.69c17.301 0 31.563 12.427 31.563 29.728 0 17.301-14.262 31.563-31.563 31.563h-13.75v34.607H58.079V43.672zM190.39 91.68c0-5.888-.635-11.159-.78-15.293-.335-9.529-7.634-17.207-17.07-17.207-9.438 0-16.781 7.678-17.11 17.207-.143 4.134-.782 9.405-.782 15.293 0 5.887.636 11.197.782 15.332.334 9.528 7.672 17.207 17.11 17.207 9.436 0 16.735-7.679 17.07-17.207.145-4.135.78-9.445.78-15.332zm-17.89 50.664c-21.261 0-38.477-17.255-38.477-38.516V79.531c0-21.261 17.216-38.476 38.477-38.476 21.261 0 38.516 17.215 38.516 38.476v24.297c0 21.261-17.255 38.516-38.516 38.516zm91.055-101.289c-21.262 0-38.64 13.948-38.477 38.476.054 8.099 0 24.297 0 24.297 0 25.182 17.215 38.516 38.477 38.516 9.09 0 19.535-1.738 28.398-5.352l-4.531-17.89c-8.55 3.2-18.794 5.117-23.828 5.117-9.437 0-16.775-7.66-17.11-17.188-.145-4.134-.78-9.464-.78-15.351 0-5.888.638-11.14.78-15.274.33-9.529 7.673-17.226 17.11-17.226 5.415 0 16.04 1.59 24.18 4.726l4.374-17.226c-8.217-3.981-18.516-5.625-28.593-5.625zm80.168 0c-21.261 0-38.64 13.948-38.476 38.476.053 8.099 0 24.297 0 24.297 0 25.182 17.215 38.516 38.476 38.516 9.091 0 19.536-1.738 28.399-5.352l-4.532-17.89c-8.55 3.2-18.794 5.117-23.828 5.117-9.437 0-16.774-7.66-17.11-17.188-.144-4.134-.78-9.464-.78-15.351 0-5.888.638-11.14.78-15.274.33-9.529 7.673-17.226 17.11-17.226 5.416 0 16.041 1.59 24.18 4.726l4.375-17.226c-8.217-3.981-18.517-5.625-28.594-5.625zm407.534 53.046v20.115H708.33V94.101zm.305-51.156l-43.03 48.219h26.53l43.032-48.219h-26.532zm3 0v.781l.688-.78h-.688zm22.563 5.219l-22.563 25.281v61.25h22.563V48.164zm-106.688-5.188v20.25a9.556 9.556 0 017.844 9.407c0 7.74-5.448 12.942-13.156 19.187l-29.469 23.875v17.906h17.156l36.688-32.093c8.05-7.042 14.406-17.186 14.406-30.594 0-18.646-14.92-27.699-33.469-27.938zm-2.843.063c-16.708 1.005-30.153 14.004-31.907 30.5h23.5a9.508 9.508 0 01-.03-.906c0-4.9 3.689-8.908 8.437-9.469V43.039zm13.312 69.219L656.5 133.6h46.687v-21.343h-22.28z" fill="#fff"/></svg>