<svg xmlns="http://www.w3.org/2000/svg" width="19.543" height="19.53" viewBox="0 0 19.543 19.53"><g transform="translate(-0.488 -0.446)"><g transform="translate(1 1.018)"><path d="M18.975,15.258l-3.736-2.492a1.091,1.091,0,0,0-1.46.237L12.69,14.4a.465.465,0,0,1-.6.126l-.207-.114a12.511,12.511,0,0,1-3.261-2.561A12.562,12.562,0,0,1,6.065,8.592l-.114-.207a.466.466,0,0,1,.123-.6L7.473,6.7a1.091,1.091,0,0,0,.237-1.46L5.219,1.5a1.085,1.085,0,0,0-1.462-.329l-1.562.939a2.2,2.2,0,0,0-1,1.3C.627,5.466,1.05,9,6.261,14.216c4.146,4.145,7.232,5.26,9.353,5.26a5.45,5.45,0,0,0,1.446-.189,2.2,2.2,0,0,0,1.3-1l.939-1.561A1.085,1.085,0,0,0,18.975,15.258Zm-.2,1.147-.937,1.562a1.59,1.59,0,0,1-.938.727c-1.892.52-5.2.089-10.2-4.914S1.263,5.471,1.783,3.579a1.592,1.592,0,0,1,.728-.939L4.073,1.7a.471.471,0,0,1,.635.143L6.061,3.877,7.2,5.581a.473.473,0,0,1-.1.634L5.7,7.3a1.077,1.077,0,0,0-.285,1.382l.111.2a13.05,13.05,0,0,0,2.666,3.4,13.063,13.063,0,0,0,3.4,2.666l.2.111a1.077,1.077,0,0,0,1.382-.285l1.088-1.4a.474.474,0,0,1,.634-.1l3.736,2.492A.47.47,0,0,1,18.774,16.405Z" transform="translate(-1 -1.018)" fill="#008bdc" stroke="#008bdc" stroke-width="1"/><path d="M282.936,69.939a5.235,5.235,0,0,1,5.229,5.229.308.308,0,1,0,.615,0,5.851,5.851,0,0,0-5.845-5.845.308.308,0,0,0,0,.615Z" transform="translate(-272.476 -66.862)" fill="#008bdc" stroke="#008bdc" stroke-width="1"/><path d="M282.936,121.139a3.388,3.388,0,0,1,3.384,3.384.308.308,0,1,0,.615,0,4,4,0,0,0-4-4,.308.308,0,0,0,0,.615Z" transform="translate(-272.476 -116.216)" fill="#008bdc" stroke="#008bdc" stroke-width="1"/><path d="M282.936,172.339a1.54,1.54,0,0,1,1.538,1.538.308.308,0,0,0,.615,0,2.156,2.156,0,0,0-2.153-2.153.308.308,0,0,0,0,.615Z" transform="translate(-272.476 -165.57)" fill="#008bdc" stroke="#008bdc" stroke-width="1"/></g></g></svg>