<svg xmlns="http://www.w3.org/2000/svg" width="24.7" height="15.438" viewBox="0 0 24.7 15.438"><path d="M12.5,19.938c3.573,0,2.3-2.262,2.575-2.913,0-.486-.008-.953.008-1.237a5.484,5.484,0,0,1,1.864,1.407c1.7,1.719,2.139,2.743,3.515,2.743h2.533a1.672,1.672,0,0,0,1.43-.611,1.6,1.6,0,0,0,.183-1.48c-.565-1.774-3.86-4.838-4.065-5.161.031-.06.08-.139.106-.18h0c.65-.859,3.133-4.579,3.5-6.067a.019.019,0,0,0,0-.008,1.484,1.484,0,0,0-.171-1.369A1.573,1.573,0,0,0,22.638,4.5H20.1a1.865,1.865,0,0,0-1.816,1.206,17.881,17.881,0,0,1-3.22,5.238c-.035-1.427-.011-2.517.007-3.327.037-1.58.156-3.117-1.483-3.117H9.611a1.4,1.4,0,0,0-.946,2.454C9.6,8.121,9,8.771,9.2,12.009a18.938,18.938,0,0,1-3.157-6A1.853,1.853,0,0,0,4.173,4.5H1.64A1.446,1.446,0,0,0,0,6C0,8.1,4.661,19.938,12.5,19.938ZM4.173,6.045c.223,0,.246,0,.412.47C5.592,9.482,7.853,13.873,9.5,13.873c1.24,0,1.24-1.271,1.24-1.75V8.313a3.64,3.64,0,0,0-.828-2.269l3.61,0c0,.017-.021,4.214.01,5.231,0,1.444,1.146,2.271,2.936.46a22,22,0,0,0,3.247-5.447c.077-.185.144-.248.387-.248h2.543s0,.006,0,.009c-.232,1.081-2.517,4.524-3.282,5.594-.012.016-.024.034-.035.051a1.537,1.537,0,0,0,.046,2.011h0c.06.072.215.241.442.475.7.727,3.118,3.211,3.332,4.2-.142.023-.3.006-2.689.011-.509,0-.908-.762-2.428-2.3-1.367-1.33-2.254-1.873-3.062-1.873-1.568,0-1.454,1.273-1.44,2.813.005,1.669-.005,1.141.006,1.246a3.1,3.1,0,0,1-1.038.108c-6.53,0-10.783-10.365-10.946-12.346.057-.005.836,0,2.62,0Z" transform="translate(0 -4.5)" fill="#3989d2"/></svg>