<svg xmlns="http://www.w3.org/2000/svg" width="25.321" height="17.729" viewBox="0 0 25.321 17.729"><path d="M24.8-3.308A3.172,3.172,0,0,0,22.568-5.54c-1.981-.542-9.907-.542-9.907-.542s-7.926,0-9.907.522A3.237,3.237,0,0,0,.522-3.308,33.425,33.425,0,0,0,0,2.782a33.3,33.3,0,0,0,.521,6.09A3.173,3.173,0,0,0,2.754,11.1c2,.542,9.907.542,9.907.542s7.926,0,9.907-.522A3.172,3.172,0,0,0,24.8,8.893a33.436,33.436,0,0,0,.521-6.09A31.729,31.729,0,0,0,24.8-3.308ZM10.137,6.578V-1.014l6.591,3.8Zm0,0" transform="translate(-0.001 6.082)" fill="#d23939"/></svg>