<?xml version="1.0" encoding="iso-8859-1"?>
<!-- Generator: Adobe Illustrator 19.0.0, SVG Export Plug-In . SVG Version: 6.00 Build 0)  -->
<svg width="100px" height="100px" version="1.1" id="Layer_1" xmlns="http://www.w3.org/2000/svg" xmlns:xlink="http://www.w3.org/1999/xlink" x="0px" y="0px"
	 viewBox="0 0 512 512" style="enable-background:new 0 0 512 512;" xml:space="preserve">
<path style="fill:#FFFFFF;" d="M139.055,288.696L139.055,288.696c-3.617,0-6.549-2.932-6.549-6.549V140.876
	c0-3.617,2.932-6.549,6.549-6.549l0,0c3.617,0,6.549,2.932,6.549,6.549v141.271C145.603,285.763,142.672,288.696,139.055,288.696z"
	/>
<path style="fill:#D0D1D3;" d="M372.945,288.696L372.945,288.696c-3.617,0-6.549-2.932-6.549-6.549V140.876
	c0-3.617,2.932-6.549,6.549-6.549l0,0c3.617,0,6.549,2.932,6.549,6.549v141.271C379.494,285.763,376.563,288.696,372.945,288.696z"
	/>
<path style="fill:#3F3D3D;" d="M379.494,335.007H132.506c-25.578,0-46.311-20.735-46.311-46.311l0,0
	c0-25.576,20.733-46.311,46.311-46.311h246.989c25.576,0,46.311,20.733,46.311,46.311l0,0
	C425.805,314.271,405.071,335.007,379.494,335.007z"/>
<path style="fill:#272525;" d="M379.494,242.385H253.506v92.62h125.988c25.576,0,46.311-20.733,46.311-46.311l0,0
	C425.805,263.12,405.071,242.385,379.494,242.385z"/>
<g>
	<circle style="fill:#8BC180;" cx="124.085" cy="288.702" r="8.42"/>
	<circle style="fill:#8BC180;" cx="154.962" cy="288.702" r="8.42"/>
	<circle style="fill:#8BC180;" cx="185.837" cy="288.702" r="8.42"/>
	<circle style="fill:#8BC180;" cx="216.712" cy="288.702" r="8.42"/>
	<circle style="fill:#8BC180;" cx="371.071" cy="288.702" r="8.42"/>
</g>
<circle style="fill:#E09112;" cx="340.196" cy="288.702" r="8.42"/>
<g>
</g>
<g>
</g>
<g>
</g>
<g>
</g>
<g>
</g>
<g>
</g>
<g>
</g>
<g>
</g>
<g>
</g>
<g>
</g>
<g>
</g>
<g>
</g>
<g>
</g>
<g>
</g>
<g>
</g>
</svg>
