<svg opacity="0.05" version="1.1" xmlns="http://www.w3.org/2000/svg" xmlns:xlink="http://www.w3.org/1999/xlink" width="420" height="335" viewBox="0,0,420,335"><g fill="none" fill-rule="nonzero" stroke="none" stroke-width="1" stroke-linecap="butt" stroke-linejoin="miter" stroke-miterlimit="10" stroke-dasharray="" stroke-dashoffset="0" font-family="none" font-weight="none" font-size="none" text-anchor="none" style="mix-blend-mode: normal"><g><path d="M8.4,-34.1v0h33.6l-33.6,33.6z" fill="#fdfa66"/><path d="M42,-0.5v0v33.6h-33.6z" fill="#1ac0c6"/><path d="M8.4,33.1l0.0045,0.55564c0.29671,18.30049 15.2243,33.04436 33.5955,33.04436v0h-33.6z" fill="#1ac0c6"/><path d="M8.4,100.3h33.6c0,-7.90872 0,-13.50872 0,-16.8c0,-8.4 -7.52162,-16.8 -16.8,-16.8c-9.27838,0 -16.8,7.52162 -16.8,16.8c0,6.18559 0,11.78559 0,16.8z" fill="#fc5185"/><path d="M42,133.9v0h-33.6v-33.6z" fill="#fc5185"/><path d="M8.4,167.5c18.55677,0 33.6,-16.8 33.6,-33.6c-4.66667,0 -15.86667,0 -33.6,0c0,17.73333 0,28.93333 0,33.6z" fill="#fdfa66"/><path d="M8.4,167.5h16.8l16.8,16.8h-16.8v16.8l-16.8,-16.8z" fill="#3fc1c9"/><path d="M8.4,201.1v0h33.6l-33.6,33.6z" fill="#364f6b"/><path d="M42,234.7v33.6l-0.0045,-0.50398c-0.29671,-16.63034 -15.2243,-33.09602 -33.5955,-33.09602v0z" fill="#1ac0c6"/><path d="M42,268.3v0v33.6h-33.6z" fill="#fdfa66"/><path d="M42,301.9v33.6h-33.6l0.55564,-0.00502c18.30049,-0.33098 33.04436,-16.96298 33.04436,-33.59498z" fill="#fdfa66"/><path d="M25.2,369.1c9.27838,0 16.8,-7.52162 16.8,-16.8c0,-9.27838 -7.52162,-16.8 -16.8,-16.8c-3.09279,0 -8.69279,0 -16.8,0v33.6c5.01441,0 10.61441,0 16.8,0z" fill="#3fc1c9"/><path d="M75.6,-34.1v0v33.6h-33.6z" fill="#3fc1c9"/><path d="M75.6,16.3c0,-9.27838 -7.52162,-16.8 -16.8,-16.8c-9.27838,0 -16.8,7.52162 -16.8,16.8c12.6,0 26.6,0 33.6,0z" fill="#1ac0c6"/><path d="M58.8,66.7c9.27838,0 16.8,-8.4 16.8,-16.8c0,-8.4 -7.52162,-16.8 -16.8,-16.8c-9.27838,0 -16.8,7.52162 -16.8,16.8c0,9.27838 7.52162,16.8 16.8,16.8z" fill="#fdfa66"/><path d="M58.8,100.3c9.27838,0 16.8,-7.52162 16.8,-16.8c-12.6,0 -21,0 -33.6,0c0,9.27838 7.52162,16.8 16.8,16.8z" fill="#fdfa66"/><path d="M75.6,133.9c0,-17.73333 0,-28.93333 0,-33.6c-18.55677,0 -33.6,15.04323 -33.6,33.6c4.66667,0 15.86667,0 33.6,0z" fill="#364f6b"/><path d="M58.8,167.5c9.27838,0 16.8,-7.52162 16.8,-16.8c0,-9.27838 -7.52162,-16.8 -16.8,-16.8c0,8.4 0,23.8 0,33.6z" fill="#364f6b"/><path d="M58.8,201.1c6.18559,0 11.78559,0 16.8,0v-33.6c-7.68009,0 -13.28009,0 -16.8,0c-9.27838,0 -16.8,7.52162 -16.8,16.8c0,9.27838 7.52162,16.8 16.8,16.8z" fill="#1ac0c6"/><path d="M75.6,201.1v0v16.8l-16.8,16.8v-16.8h-16.8l16.8,-16.8z" fill="#1ac0c6"/><path d="M58.8,268.3c9.27838,0 16.8,-8.4 16.8,-16.8c0,-5.6 0,-11.2 0,-16.8h-33.6c0,6.58687 0,12.18687 0,16.8c0,9.27838 7.52162,16.8 16.8,16.8z" fill="#fc5185"/><path d="M75.6,285.1c0,-9.27838 -7.52162,-16.8 -16.8,-16.8c-9.27838,0 -16.8,7.52162 -16.8,16.8c12.6,0 26.6,0 33.6,0z" fill="#3fc1c9"/><path d="M58.8,335.5c9.27838,0 16.8,-7.52162 16.8,-16.8c0,-9.27838 -7.52162,-16.8 -16.8,-16.8c-3.09279,0 -8.69279,0 -16.8,0v33.6c5.01441,0 10.61441,0 16.8,0z" fill="#3fc1c9"/><path d="M42,369.1c18.55677,0 33.6,-16.8 33.6,-33.6c-4.66667,0 -15.86667,0 -33.6,0c0,17.73333 0,28.93333 0,33.6z" fill="#fc5185"/><path d="M109.2,-34.1v0v33.6h-33.6z" fill="#fc5185"/><path d="M92.4,33.1c9.27838,0 16.8,-7.52162 16.8,-16.8c-12.6,0 -21,0 -33.6,0c0,9.27838 7.52162,16.8 16.8,16.8z" fill="#364f6b"/><path d="M92.4,66.7c6.18559,0 11.78559,0 16.8,0v-33.6c-7.68009,0 -13.28009,0 -16.8,0c-9.27838,0 -16.8,7.52162 -16.8,16.8c0,9.27838 7.52162,16.8 16.8,16.8z" fill="#fdfa66"/><path d="M75.6,66.7v0h33.6l-33.6,33.6z" fill="#1ac0c6"/><path d="M109.2,100.3v33.6l-0.0045,-0.50398c-0.29671,-16.63034 -15.2243,-33.09602 -33.5955,-33.09602v0z" fill="#1ac0c6"/><path d="M109.2,133.9c-18.55677,0 -33.6,15.04323 -33.6,33.6v0v-33.6z" fill="#fdfa66"/><path d="M109.2,167.5c-18.55677,0 -33.6,15.04323 -33.6,33.6v0v-33.6z" fill="#1ac0c6"/><path d="M75.6,234.7c18.55677,0 33.6,-16.8 33.6,-33.6c-4.66667,0 -15.86667,0 -33.6,0c0,17.73333 0,28.93333 0,33.6z" fill="#1ac0c6"/><path d="M109.2,234.7v33.6l-0.0045,-0.50398c-0.29671,-16.63034 -15.2243,-33.09602 -33.5955,-33.09602v0z" fill="#fdfa66"/><path d="M109.2,268.3v33.6h-33.6l0.55564,-0.00502c18.30049,-0.33098 33.04436,-16.96298 33.04436,-33.59498z" fill="#364f6b"/><path d="M109.2,335.5c0,-17.73333 0,-28.93333 0,-33.6c-18.55677,0 -33.6,15.04323 -33.6,33.6c4.66667,0 15.86667,0 33.6,0z" fill="#fc5185"/><path d="M92.4,352.3v0h16.8l-16.8,16.8h-16.8v-16.8l16.8,-16.8z" fill="#3fc1c9"/><path d="M109.2,-0.5c18.55677,0 33.6,-16.8 33.6,-33.6c-4.66667,0 -15.86667,0 -33.6,0c0,17.73333 0,28.93333 0,33.6z" fill="#3fc1c9"/><path d="M109.2,-0.5l0.0045,0.55564c0.29671,18.30049 15.2243,33.04436 33.5955,33.04436v0h-33.6z" fill="#364f6b"/><path d="M142.8,49.9c0,-9.27838 -7.52162,-16.8 -16.8,-16.8c-9.27838,0 -16.8,7.52162 -16.8,16.8c12.6,0 26.6,0 33.6,0z" fill="#1ac0c6"/><path d="M126,100.3c9.27838,0 16.8,-8.4 16.8,-16.8c0,-8.4 -7.52162,-16.8 -16.8,-16.8c-9.27838,0 -16.8,7.52162 -16.8,16.8c0,9.27838 7.52162,16.8 16.8,16.8z" fill="#364f6b"/><path d="M126,133.9c0,-12.6 0,-21 0,-33.6c-9.27838,0 -16.8,7.52162 -16.8,16.8c0,9.27838 7.52162,16.8 16.8,16.8z" fill="#1ac0c6"/><path d="M142.8,167.5c0,-16.8 -15.04323,-33.6 -33.6,-33.6c0,3.73333 0,14.93333 0,33.6c18.66667,0 29.86667,0 33.6,0z" fill="#1ac0c6"/><path d="M126,201.1c9.27838,0 16.8,-7.52162 16.8,-16.8c0,-9.27838 -7.52162,-16.8 -16.8,-16.8c0,8.4 0,23.8 0,33.6z" fill="#3fc1c9"/><path d="M142.8,234.7c0,-17.73333 0,-28.93333 0,-33.6c-18.55677,0 -33.6,15.04323 -33.6,33.6c4.66667,0 15.86667,0 33.6,0z" fill="#fdfa66"/><path d="M126,268.3c9.27838,0 16.8,-7.52162 16.8,-16.8c-12.6,0 -21,0 -33.6,0c0,9.27838 7.52162,16.8 16.8,16.8z" fill="#fc5185"/><path d="M109.2,268.3h16.8l16.8,16.8h-16.8v16.8l-16.8,-16.8z" fill="#fc5185"/><path d="M142.8,335.5c0,-4.66667 0,-15.86667 0,-33.6c-19.6,0 -30.8,0 -33.6,0c0,9.69116 4.10287,18.42404 10.66637,24.5564c6.00438,5.60997 14.06802,9.0436 22.93363,9.0436z" fill="#1ac0c6"/><path d="M126,369.1c6.18559,0 11.78559,0 16.8,0v-33.6c-7.68009,0 -13.28009,0 -16.8,0c-9.27838,0 -16.8,7.52162 -16.8,16.8c0,9.27838 7.52162,16.8 16.8,16.8z" fill="#fdfa66"/><path d="M176.4,-34.1v0v33.6h-33.6z" fill="#3fc1c9"/><path d="M159.6,33.1c0,-12.6 0,-21 0,-33.6c-9.27838,0 -16.8,7.52162 -16.8,16.8c0,9.27838 7.52162,16.8 16.8,16.8z" fill="#fc5185"/><path d="M176.4,33.1c-18.55677,0 -33.6,15.04323 -33.6,33.6v0v-33.6z" fill="#1ac0c6"/><path d="M159.6,100.3c9.27838,0 16.8,-8.4 16.8,-16.8c0,-8.4 -7.52162,-16.8 -16.8,-16.8c-9.27838,0 -16.8,7.52162 -16.8,16.8c0,9.27838 7.52162,16.8 16.8,16.8z" fill="#1ac0c6"/><path d="M176.4,100.3v33.6l-0.0045,-0.50398c-0.29671,-16.63034 -15.2243,-33.09602 -33.5955,-33.09602v0z" fill="#fdfa66"/><path d="M176.4,167.5c0,-17.73333 0,-28.93333 0,-33.6c-18.55677,0 -33.6,15.04323 -33.6,33.6c4.66667,0 15.86667,0 33.6,0z" fill="#1ac0c6"/><path d="M142.8,167.5l0.0045,0.55564c0.29671,18.30049 15.2243,33.04436 33.5955,33.04436v0h-33.6z" fill="#364f6b"/><path d="M176.4,201.1c-18.55677,0 -33.6,15.04323 -33.6,33.6v0v-33.6z" fill="#1ac0c6"/><path d="M159.6,251.5v0v-16.8l16.8,16.8v16.8h-16.8l-16.8,-16.8z" fill="#1ac0c6"/><path d="M159.6,301.9c0,-12.6 0,-21 0,-33.6c-9.27838,0 -16.8,7.52162 -16.8,16.8c0,9.27838 7.52162,16.8 16.8,16.8z" fill="#fdfa66"/><path d="M142.8,301.9l0.0045,0.55564c0.29671,18.30049 15.2243,33.04436 33.5955,33.04436v0h-33.6z" fill="#3fc1c9"/><path d="M176.4,335.5v33.6h-33.6l0.55564,-0.00502c18.30049,-0.33098 33.04436,-16.96298 33.04436,-33.59498z" fill="#1ac0c6"/><path d="M193.2,-0.5c9.27838,0 16.8,-8.4 16.8,-16.8c0,-8.4 -7.52162,-16.8 -16.8,-16.8c-9.27838,0 -16.8,7.52162 -16.8,16.8c0,9.27838 7.52162,16.8 16.8,16.8z" fill="#fdfa66"/><path d="M193.2,33.1c6.18559,0 11.78559,0 16.8,0v-33.6c-7.68009,0 -13.28009,0 -16.8,0c-9.27838,0 -16.8,7.52162 -16.8,16.8c0,9.27838 7.52162,16.8 16.8,16.8z" fill="#1ac0c6"/><path d="M193.2,66.7c6.18559,0 11.78559,0 16.8,0v-33.6c-7.68009,0 -13.28009,0 -16.8,0c-9.27838,0 -16.8,7.52162 -16.8,16.8c0,9.27838 7.52162,16.8 16.8,16.8z" fill="#364f6b"/><path d="M210,66.7v33.6h-33.6l0.55564,-0.00502c18.30049,-0.33098 33.04436,-16.96298 33.04436,-33.59498z" fill="#fc5185"/><path d="M176.4,133.9c18.55677,0 33.6,-16.8 33.6,-33.6c-4.66667,0 -15.86667,0 -33.6,0c0,17.73333 0,28.93333 0,33.6z" fill="#364f6b"/><path d="M210,133.9v0v33.6h-33.6z" fill="#fc5185"/><path d="M193.2,184.3v0v-16.8l16.8,16.8v16.8h-16.8l-16.8,-16.8z" fill="#3fc1c9"/><path d="M210,234.7c0,-4.66667 0,-15.86667 0,-33.6c-19.6,0 -30.8,0 -33.6,0c0,9.69116 4.10287,18.42404 10.66637,24.5564c6.00438,5.60997 14.06802,9.0436 22.93363,9.0436z" fill="#fdfa66"/><path d="M210,234.7v0v33.6h-33.6z" fill="#3fc1c9"/><path d="M193.2,301.9c9.27838,0 16.8,-8.4 16.8,-16.8c0,-5.6 0,-11.2 0,-16.8h-33.6c0,6.58687 0,12.18687 0,16.8c0,9.27838 7.52162,16.8 16.8,16.8z" fill="#364f6b"/><path d="M210,301.9v33.6l-0.0045,-0.50398c-0.29671,-16.63034 -15.2243,-33.09602 -33.5955,-33.09602v0z" fill="#1ac0c6"/><path d="M193.2,369.1c9.27838,0 16.8,-8.4 16.8,-16.8c0,-8.4 -7.52162,-16.8 -16.8,-16.8c-9.27838,0 -16.8,7.52162 -16.8,16.8c0,9.27838 7.52162,16.8 16.8,16.8z" fill="#fc5185"/><path d="M243.6,-17.3c0,-9.27838 -7.52162,-16.8 -16.8,-16.8c-9.27838,0 -16.8,7.52162 -16.8,16.8c12.6,0 26.6,0 33.6,0z" fill="#fc5185"/><path d="M210,33.1c18.55677,0 33.6,-16.8 33.6,-33.6c-4.66667,0 -15.86667,0 -33.6,0c0,17.73333 0,28.93333 0,33.6z" fill="#fdfa66"/><path d="M210,33.1v0h33.6l-33.6,33.6z" fill="#fc5185"/><path d="M243.6,100.3c0,-16.8 -15.04323,-33.6 -33.6,-33.6c0,3.73333 0,14.93333 0,33.6c18.66667,0 29.86667,0 33.6,0z" fill="#3fc1c9"/><path d="M243.6,100.3v0v16.8l-16.8,16.8v-16.8h-16.8l16.8,-16.8z" fill="#1ac0c6"/><path d="M226.8,167.5c0,-12.6 0,-21 0,-33.6c-9.27838,0 -16.8,7.52162 -16.8,16.8c0,9.27838 7.52162,16.8 16.8,16.8z" fill="#1ac0c6"/><path d="M226.8,201.1c9.27838,0 16.8,-7.52162 16.8,-16.8c0,-9.27838 -7.52162,-16.8 -16.8,-16.8c0,8.4 0,23.8 0,33.6z" fill="#3fc1c9"/><path d="M226.8,234.7c6.18559,0 11.78559,0 16.8,0v-33.6c-7.68009,0 -13.28009,0 -16.8,0c-9.27838,0 -16.8,7.52162 -16.8,16.8c0,9.27838 7.52162,16.8 16.8,16.8z" fill="#1ac0c6"/><path d="M243.6,268.3c0,-17.73333 0,-28.93333 0,-33.6c-18.55677,0 -33.6,15.04323 -33.6,33.6c4.66667,0 15.86667,0 33.6,0z" fill="#3fc1c9"/><path d="M210,268.3v0h33.6l-33.6,33.6z" fill="#fc5185"/><path d="M243.6,301.9c-18.55677,0 -33.6,15.04323 -33.6,33.6v0v-33.6z" fill="#1ac0c6"/><path d="M243.6,335.5c-18.55677,0 -33.6,15.04323 -33.6,33.6v0v-33.6z" fill="#3fc1c9"/><path d="M260.4,-0.5c9.27838,0 16.8,-8.4 16.8,-16.8c0,-8.4 -7.52162,-16.8 -16.8,-16.8c-9.27838,0 -16.8,7.52162 -16.8,16.8c0,9.27838 7.52162,16.8 16.8,16.8z" fill="#3fc1c9"/><path d="M260.4,33.1c9.27838,0 16.8,-7.52162 16.8,-16.8c0,-9.27838 -7.52162,-16.8 -16.8,-16.8c0,8.4 0,23.8 0,33.6z" fill="#1ac0c6"/><path d="M277.2,33.1v33.6h-33.6l0.55564,-0.00502c18.30049,-0.33098 33.04436,-16.96298 33.04436,-33.59498z" fill="#3fc1c9"/><path d="M260.4,100.3c6.18559,0 11.78559,0 16.8,0v-33.6c-7.68009,0 -13.28009,0 -16.8,0c-9.27838,0 -16.8,7.52162 -16.8,16.8c0,9.27838 7.52162,16.8 16.8,16.8z" fill="#364f6b"/><path d="M277.2,100.3v33.6h-33.6l0.55564,-0.00502c18.30049,-0.33098 33.04436,-16.96298 33.04436,-33.59498z" fill="#364f6b"/><path d="M277.2,133.9c-18.55677,0 -33.6,15.04323 -33.6,33.6v0v-33.6z" fill="#fdfa66"/><path d="M277.2,184.3c0,-9.27838 -7.52162,-16.8 -16.8,-16.8c-9.27838,0 -16.8,7.52162 -16.8,16.8c12.6,0 26.6,0 33.6,0z" fill="#fc5185"/><path d="M277.2,201.1v0v33.6h-33.6z" fill="#1ac0c6"/><path d="M277.2,268.3c0,-4.66667 0,-15.86667 0,-33.6c-19.6,0 -30.8,0 -33.6,0c0,9.69116 4.10287,18.42404 10.66637,24.5564c6.00438,5.60997 14.06802,9.0436 22.93363,9.0436z" fill="#fdfa66"/><path d="M277.2,285.1c0,-9.27838 -7.52162,-16.8 -16.8,-16.8c-9.27838,0 -16.8,7.52162 -16.8,16.8c12.6,0 26.6,0 33.6,0z" fill="#1ac0c6"/><path d="M243.6,301.9l0.0045,0.55564c0.29671,18.30049 15.2243,33.04436 33.5955,33.04436v0h-33.6z" fill="#1ac0c6"/><path d="M243.6,369.1h33.6c0,-7.90872 0,-13.50872 0,-16.8c0,-8.4 -7.52162,-16.8 -16.8,-16.8c-9.27838,0 -16.8,7.52162 -16.8,16.8c0,6.18559 0,11.78559 0,16.8z" fill="#1ac0c6"/><path d="M294,-0.5c9.27838,0 16.8,-8.4 16.8,-16.8c0,-5.6 0,-11.2 0,-16.8h-33.6c0,6.58687 0,12.18687 0,16.8c0,9.27838 7.52162,16.8 16.8,16.8z" fill="#fc5185"/><path d="M294,33.1c0,-12.6 0,-21 0,-33.6c-9.27838,0 -16.8,7.52162 -16.8,16.8c0,9.27838 7.52162,16.8 16.8,16.8z" fill="#3fc1c9"/><path d="M310.8,33.1v33.6l-0.0045,-0.50398c-0.29671,-16.63034 -15.2243,-33.09602 -33.5955,-33.09602v0z" fill="#fc5185"/><path d="M294,100.3c0,-12.6 0,-21 0,-33.6c-9.27838,0 -16.8,7.52162 -16.8,16.8c0,9.27838 7.52162,16.8 16.8,16.8z" fill="#3fc1c9"/><path d="M310.8,100.3v0v33.6h-33.6z" fill="#1ac0c6"/><path d="M294,167.5c9.27838,0 16.8,-7.52162 16.8,-16.8c-12.6,0 -21,0 -33.6,0c0,9.27838 7.52162,16.8 16.8,16.8z" fill="#fc5185"/><path d="M310.8,201.1c0,-4.66667 0,-15.86667 0,-33.6c-19.6,0 -30.8,0 -33.6,0c0,9.69116 4.10287,18.42404 10.66637,24.5564c6.00438,5.60997 14.06802,9.0436 22.93363,9.0436z" fill="#1ac0c6"/><path d="M277.2,201.1l0.0045,0.55564c0.29671,18.30049 15.2243,33.04436 33.5955,33.04436v0h-33.6z" fill="#364f6b"/><path d="M310.8,234.7v0v16.8l-16.8,16.8v-16.8h-16.8l16.8,-16.8z" fill="#fdfa66"/><path d="M277.2,301.9c18.55677,0 33.6,-16.8 33.6,-33.6c-4.66667,0 -15.86667,0 -33.6,0c0,17.73333 0,28.93333 0,33.6z" fill="#364f6b"/><path d="M294,335.5c0,-12.6 0,-21 0,-33.6c-9.27838,0 -16.8,7.52162 -16.8,16.8c0,9.27838 7.52162,16.8 16.8,16.8z" fill="#fdfa66"/><path d="M310.8,335.5v0v33.6h-33.6z" fill="#fdfa66"/><path d="M310.8,-34.1h16.8l16.8,16.8h-16.8v16.8l-16.8,-16.8z" fill="#3fc1c9"/><path d="M327.6,33.1c0,-12.6 0,-21 0,-33.6c-9.27838,0 -16.8,7.52162 -16.8,16.8c0,9.27838 7.52162,16.8 16.8,16.8z" fill="#1ac0c6"/><path d="M344.4,33.1v33.6l-0.0045,-0.50398c-0.29671,-16.63034 -15.2243,-33.09602 -33.5955,-33.09602v0z" fill="#364f6b"/><path d="M344.4,100.3c0,-16.8 -15.04323,-33.6 -33.6,-33.6c0,3.73333 0,14.93333 0,33.6c18.66667,0 29.86667,0 33.6,0z" fill="#fc5185"/><path d="M327.6,133.9c0,-12.6 0,-21 0,-33.6c-9.27838,0 -16.8,7.52162 -16.8,16.8c0,9.27838 7.52162,16.8 16.8,16.8z" fill="#3fc1c9"/><path d="M344.4,133.9v33.6h-33.6l0.55564,-0.00502c18.30049,-0.33098 33.04436,-16.96298 33.04436,-33.59498z" fill="#fc5185"/><path d="M310.8,167.5l0.0045,0.55564c0.29671,18.30049 15.2243,33.04436 33.5955,33.04436v0h-33.6z" fill="#364f6b"/><path d="M344.4,201.1v0v33.6h-33.6z" fill="#fc5185"/><path d="M344.4,268.3c0,-17.73333 0,-28.93333 0,-33.6c-18.55677,0 -33.6,15.04323 -33.6,33.6c4.66667,0 15.86667,0 33.6,0z" fill="#fc5185"/><path d="M327.6,301.9c9.27838,0 16.8,-8.4 16.8,-16.8c0,-8.4 -7.52162,-16.8 -16.8,-16.8c-9.27838,0 -16.8,7.52162 -16.8,16.8c0,9.27838 7.52162,16.8 16.8,16.8z" fill="#fdfa66"/><path d="M344.4,335.5c0,-16.8 -15.04323,-33.6 -33.6,-33.6c0,3.73333 0,14.93333 0,33.6c18.66667,0 29.86667,0 33.6,0z" fill="#3fc1c9"/><path d="M344.4,335.5v0v16.8l-16.8,16.8v-16.8h-16.8l16.8,-16.8z" fill="#1ac0c6"/><path d="M344.4,-34.1h16.8l16.8,16.8h-16.8v16.8l-16.8,-16.8z" fill="#fc5185"/><path d="M378,33.1c0,-16.8 -15.04323,-33.6 -33.6,-33.6c0,3.73333 0,14.93333 0,33.6c18.66667,0 29.86667,0 33.6,0z" fill="#364f6b"/><path d="M344.4,33.1h16.8l16.8,16.8h-16.8v16.8l-16.8,-16.8z" fill="#fc5185"/><path d="M378,66.7v33.6l-0.0045,-0.50398c-0.29671,-16.63034 -15.2243,-33.09602 -33.5955,-33.09602v0z" fill="#1ac0c6"/><path d="M378,133.9c0,-17.73333 0,-28.93333 0,-33.6c-18.55677,0 -33.6,15.04323 -33.6,33.6c4.66667,0 15.86667,0 33.6,0z" fill="#1ac0c6"/><path d="M361.2,150.7v0v-16.8l16.8,16.8v16.8h-16.8l-16.8,-16.8z" fill="#fdfa66"/><path d="M361.2,201.1c6.18559,0 11.78559,0 16.8,0v-33.6c-7.68009,0 -13.28009,0 -16.8,0c-9.27838,0 -16.8,7.52162 -16.8,16.8c0,9.27838 7.52162,16.8 16.8,16.8z" fill="#fc5185"/><path d="M361.2,217.9v0v-16.8l16.8,16.8v16.8h-16.8l-16.8,-16.8z" fill="#3fc1c9"/><path d="M344.4,268.3h33.6c0,-7.90872 0,-13.50872 0,-16.8c0,-8.4 -7.52162,-16.8 -16.8,-16.8c-9.27838,0 -16.8,7.52162 -16.8,16.8c0,6.18559 0,11.78559 0,16.8z" fill="#fdfa66"/><path d="M344.4,268.3l0.0045,0.55564c0.29671,18.30049 15.2243,33.04436 33.5955,33.04436v0h-33.6z" fill="#3fc1c9"/><path d="M361.2,335.5c9.27838,0 16.8,-7.52162 16.8,-16.8c0,-9.27838 -7.52162,-16.8 -16.8,-16.8c0,8.4 0,23.8 0,33.6z" fill="#fdfa66"/><path d="M361.2,352.3v0h16.8l-16.8,16.8h-16.8v-16.8l16.8,-16.8z" fill="#364f6b"/><path d="M378,-0.5h33.6c0,-7.90872 0,-13.50872 0,-16.8c0,-8.4 -7.52162,-16.8 -16.8,-16.8c-9.27838,0 -16.8,7.52162 -16.8,16.8c0,6.18559 0,11.78559 0,16.8z" fill="#3fc1c9"/><path d="M394.8,33.1c9.27838,0 16.8,-8.4 16.8,-16.8c0,-8.4 -7.52162,-16.8 -16.8,-16.8c-9.27838,0 -16.8,7.52162 -16.8,16.8c0,9.27838 7.52162,16.8 16.8,16.8z" fill="#fdfa66"/><path d="M394.8,49.9v0h16.8l-16.8,16.8h-16.8v-16.8l16.8,-16.8z" fill="#364f6b"/><path d="M411.6,66.7v0v33.6h-33.6z" fill="#364f6b"/><path d="M378,100.3h16.8l16.8,16.8h-16.8v16.8l-16.8,-16.8z" fill="#1ac0c6"/><path d="M411.6,133.9v33.6h-33.6l0.55564,-0.00502c18.30049,-0.33098 33.04436,-16.96298 33.04436,-33.59498z" fill="#fdfa66"/><path d="M411.6,184.3c0,-9.27838 -7.52162,-16.8 -16.8,-16.8c-9.27838,0 -16.8,7.52162 -16.8,16.8c12.6,0 26.6,0 33.6,0z" fill="#fdfa66"/><path d="M411.6,201.1v0v16.8l-16.8,16.8v-16.8h-16.8l16.8,-16.8z" fill="#fdfa66"/><path d="M411.6,268.3c0,-16.8 -15.04323,-33.6 -33.6,-33.6c0,3.73333 0,14.93333 0,33.6c18.66667,0 29.86667,0 33.6,0z" fill="#fc5185"/><path d="M378,268.3v0h33.6l-33.6,33.6z" fill="#3fc1c9"/><path d="M394.8,335.5c9.27838,0 16.8,-7.52162 16.8,-16.8c-12.6,0 -21,0 -33.6,0c0,9.27838 7.52162,16.8 16.8,16.8z" fill="#3fc1c9"/><path d="M378,335.5l0.0045,0.55564c0.29671,18.30049 15.2243,33.04436 33.5955,33.04436v0h-33.6z" fill="#1ac0c6"/></g></g></svg>