<svg xmlns="http://www.w3.org/2000/svg" width="815.794" height="574.508" data-name="Layer 1">
  <circle cx="406.794" cy="238.5" r="26" fill="#6c63ff"/>
  <path fill="#82c3ec" d="M122.794 34.19v247.62a22.717 22.717 0 0 0 22.69 22.69h647.62a22.717 22.717 0 0 0 22.69-22.69V34.19a22.717 22.717 0 0 0-22.69-22.69h-647.62a22.717 22.717 0 0 0-22.69 22.69Zm2 0a20.69 20.69 0 0 1 20.69-20.69h512.634a155.676 155.676 0 0 1 155.676 155.676V281.81a20.69 20.69 0 0 1-20.69 20.69h-647.62a20.69 20.69 0 0 1-20.69-20.69Z"/>
  <path fill="#ffb6b6" d="m130.261 555.88 14.507-.001 6.901-55.956-21.411.002.003 55.955z"/>
  <path fill="#2f2e41" d="m129.75 571.014 44.61-.002v-.564a17.365 17.365 0 0 0-17.363-17.363h-.001l-8.149-6.182-15.203 6.183h-3.895Z"/>
  <path fill="#ffb6b6" d="m66.979 555.88 14.507-.001 6.901-55.956-21.411.002.003 55.955z"/>
  <path fill="#2f2e41" d="m66.469 571.014 44.61-.002v-.564a17.365 17.365 0 0 0-17.364-17.363l-8.15-6.182-15.203 6.183h-3.894Zm99.913-320.021s13.957 42.868 11.38 48.51-6.971 1.247-2.575 5.643 8.232-.277 4.116 7.187-10.353 68.914-13.095 71.889-6.514 3.054-3.163 5.945 7.746-2.97 3.35 2.89-16.059 141.062-16.059 141.062h-22.785s-5.675-6.542-2.463-10.799-.282-5.898 0-8.74-.786-8.971-.985-11.768-4.049-69.417 5.203-107.9l-16.87-73.278L92.001 410.2s9.4 74.288 0 98.17c0 0 7.579 6.31 4.218 9.967s-6.292.727-3.361 3.657-4.396 13.187-4.396 13.187l-24.908-1.465L49.456 394.91s-2.377-14.475 0-16.956 2.376 6.31 2.376-2.48v-11.722s1.377-72.094 1.56-76.34S71.158 252.4 71.158 252.4Z"/>
  <path fill="#6c63ff" d="M166.174 102.93v84.53a81.249 81.249 0 0 0-4.17 25.38c.09 14.37 3.25 30.93 3.24 38.17a9.457 9.457 0 0 1-.31 2.85c-13.99 40.55-88.02 3.7-94.75.25-.32-.16-.49-.25-.49-.25l1.46-45.42-.25-13.06-1.73-89.59 1.55-1.24 13.58-10.83 1.33-1.06 4.08 5.95 36.37-2.5 13.88-3.84 4.33 1.76 19.52 7.94Z"/>
  <path fill="#ffb6b6" d="m292.928 169.355-25.487-8.426-6.845 13.888 27.264 7.95a8.986 8.986 0 1 0 5.068-13.412Z"/>
  <path fill="#6c63ff" d="m141.485 94.708-.106.422c-1.991 7.967-4.534 30.725.915 36.87 6.997 7.901 63.516 32.021 74.745 30.056 8.708-1.524 6.915-1.012 11.082 3.322s-2.75 5.348 6.545 6.106 9.48-2.8 11.47 1.146.22 6.326 6.545 6.106 7.91.961 10.087 1.349 15.839 6.864 15.839 6.864 5.48-15.636 12.38-21.591c0 0-15.823-1.922-17.02-5.279s-.22-6.325-4.37-5.717-6.308 5.161-5.734-.574-29.317-16.9-29.317-16.9c-18.039-17.76-55.1-30.098-93.061-42.18Z"/>
  <path fill="#ffb6b6" d="m60.62 271.25-1.156-26.819-15.413-1.477 2.231 28.312a8.986 8.986 0 1 0 14.338-.015Z"/>
  <path fill="#6c63ff" d="m76.732 103.18-.432.05a24.89 24.89 0 0 0-19.127 13.16c-4.908 9.344-20.432 72.628-16.631 81.312 3.545 8.1 3.398 6.108.822 11.54s-5.974-.675-3.389 8.285 5.98 7.87 2.995 11.131-5.837 2.448-3.39 8.285 1.907 7.738 2.315 9.91-.803 17.244-.803 17.244 16.564-.419 24.578 3.92c0 0-3.812-15.475-1.098-17.785s5.836-2.447 3.797-6.112-7.063-4.069-1.497-5.566 5.41-33.404 5.41-33.404Z"/>
  <path fill="#ffb6b6" d="M116.444 69c-.65.15-1.3.28-1.95.38a27.102 27.102 0 0 1-6.01.31 28.366 28.366 0 1 1 28.98-35.44c.06.23.12.45.17.68A28.377 28.377 0 0 1 116.444 69Z"/>
  <path fill="#2f2e41" d="M90.262 65.652c-3.946-3.087-4.329-8.973-7.696-12.683-5.63-6.204-8.274-12.877-5.325-20.228 2.608-6.5 2.054-14.492 7.671-18.677-2.759-.999-3.408-3.073-.974-3.111 1.642-.026 7.762 3.112 4.817-.797s2.63-2.366 2.26-3.965-2.732-2.486-3.775-1.218c3.329-3.9 10.599-3.07 12.96 1.482 3.319-4.972 6.841-8.394 11.918-5.238 4.987 3.099 4.922 6.93 10.284 6.01 2.521-.433 2.76 4.33 4.481 6.22s4.24 3.356 6.753 2.88 4.436-3.607 3.027-5.742l5.924 13.514 2.388-2.928c3.793 2.472 2.547 8.923-1.271 11.357s-11.107-3.191-13.179.835c-3.266 6.346-10.93 3.141-16.192-1.344-6.382-5.439-14.085 11.099-11.01 18.9-3.19-3.133-9.091-.533-10.744 3.62s-.44 8.834.784 13.134Z"/>
  <path fill="#f2f2f2" d="M484.42 159.027H454.4a2.941 2.941 0 0 1-2.937-2.938v-29.651a2.941 2.941 0 0 1 2.937-2.938h30.018a2.941 2.941 0 0 1 2.938 2.938v29.651a2.941 2.941 0 0 1-2.938 2.938Z"/>
  <path fill="#f2f2f2" d="M489.417 161.526h-30.018a2.941 2.941 0 0 1-2.938-2.938v-29.651a2.941 2.941 0 0 1 2.938-2.938h30.018a2.941 2.941 0 0 1 2.937 2.938v29.651a2.941 2.941 0 0 1-2.937 2.938Z"/>
  <path fill="#fff" d="M455.03 124.375a2.692 2.692 0 0 0-2.691 2.692v28.393a2.692 2.692 0 0 0 2.691 2.692h18.355a13.096 13.096 0 0 0 13.096-13.096v-17.99a2.692 2.692 0 0 0-2.691-2.69Z"/>
  <path fill="#f2f2f2" d="M477.45 132.992h-16.142a.558.558 0 1 1 0-1.117h16.142a.558.558 0 0 1 0 1.117Zm0 11.91h-16.142a.558.558 0 1 1 0-1.117h16.142a.558.558 0 0 1 0 1.117Zm6.555-5.952h-29.252a.558.558 0 1 1 0-1.116h29.252a.558.558 0 0 1 0 1.117Zm.298 10.794h-10.567a.558.558 0 1 1 0-1.117h10.567a.558.558 0 0 1 0 1.117Zm-90.413 27.845-.39-.193c-22.778-11.26-47.42-11.25-75.332.031l-.749-1.854c28.31-11.442 53.366-11.497 76.575-.162 32.664-12.43 53.662-33.497 62.416-62.624l1.916.576c-8.98 29.874-30.523 51.431-64.03 64.072Z"/>
  <path fill="#f2f2f2" d="m488.91 177.589-.391-.184c-22.387-10.503-47.043-10.493-75.377.032l-.697-1.875c28.695-10.66 53.735-10.711 76.53-.151 36.571-14.612 57.566-35.643 62.41-62.513l1.968.354c-4.992 27.694-26.538 49.286-64.04 64.177Z"/>
  <path fill="#f2f2f2" d="m563.796 176.525-.247-.107c-18.446-7.93-42.445-7.913-75.521.054l-.47-1.944c33.372-8.037 57.701-8.057 76.532-.053 37.38-4.57 57.756-25.024 62.285-62.52l1.987.24c-4.668 38.634-25.7 59.666-64.3 64.298Z"/>
  <circle cx="465.794" cy="109.5" r="8" fill="#6c63ff"/>
  <circle cx="555.794" cy="109.5" r="8" fill="#6c63ff"/>
  <circle cx="627.794" cy="108.5" r="8" fill="#6c63ff"/>
  <path fill="#e6e6e6" d="M404.785 238.526h-84.091a8.24 8.24 0 0 1-8.23-8.23V147.23a8.24 8.24 0 0 1 8.23-8.23h84.091a8.24 8.24 0 0 1 8.23 8.23v83.066a8.24 8.24 0 0 1-8.23 8.23Z"/>
  <path fill="#e6e6e6" d="M390.785 231.526h-84.091a8.24 8.24 0 0 1-8.23-8.23V140.23a8.24 8.24 0 0 1 8.23-8.23h84.091a8.24 8.24 0 0 1 8.23 8.23v83.066a8.24 8.24 0 0 1-8.23 8.23Z"/>
  <path fill="#fff" d="M322.354 134.452a21.438 21.438 0 0 0-21.438 21.438v65.643a7.54 7.54 0 0 0 7.54 7.54h51.42a36.687 36.687 0 0 0 36.687-36.687v-50.394a7.54 7.54 0 0 0-7.54-7.54Z"/>
  <path fill="#e6e6e6" d="M371.262 158.591H326.04a1.565 1.565 0 1 1 0-3.129h45.22a1.565 1.565 0 0 1 0 3.13Zm0 33.364H326.04a1.565 1.565 0 1 1 0-3.129h45.22a1.565 1.565 0 0 1 0 3.13Zm18.363-16.671h-81.947a1.565 1.565 0 1 1 0-3.129h81.947a1.565 1.565 0 0 1 0 3.13Zm.836 30.236h-29.603a1.565 1.565 0 1 1 0-3.128h29.603a1.565 1.565 0 0 1 0 3.129Z"/>
  <path fill="#f2f2f2" d="M590.42 155.027H560.4a2.941 2.941 0 0 1-2.937-2.938v-29.651a2.941 2.941 0 0 1 2.937-2.938h30.018a2.941 2.941 0 0 1 2.938 2.938v29.651a2.941 2.941 0 0 1-2.938 2.938Z"/>
  <path fill="#f2f2f2" d="M595.417 157.526h-30.018a2.941 2.941 0 0 1-2.938-2.938v-29.651a2.941 2.941 0 0 1 2.938-2.938h30.018a2.941 2.941 0 0 1 2.937 2.938v29.651a2.941 2.941 0 0 1-2.937 2.938Z"/>
  <path fill="#fff" d="M561.03 120.375a2.692 2.692 0 0 0-2.691 2.692v28.393a2.692 2.692 0 0 0 2.691 2.692h18.355a13.096 13.096 0 0 0 13.096-13.096v-17.99a2.692 2.692 0 0 0-2.691-2.69Z"/>
  <path fill="#ccc" d="M0 573.318a1.186 1.186 0 0 0 1.19 1.19h253.29a1.19 1.19 0 1 0 0-2.38H1.19a1.187 1.187 0 0 0-1.19 1.19Z"/>
  <path fill="#f2f2f2" d="m108.484 69.69 6.01-.31a27.102 27.102 0 0 1-6.01.31Z"/>
  <path fill="#82c3ec" d="m144.294 94.03-.99 1.26-2.66 3.38-22.97 29.21-33.37-34.16 1.33-1.06 7.08-15.05 36.37-2.5 10.88 17.16 4.33 1.76z"/>
</svg>
