<svg xmlns="http://www.w3.org/2000/svg" width="671.549" height="517.61" data-name="Layer 1">
  <path fill="#e6e6e6" d="M334.087 128.498c-21.382-5.322-39.74-15.784-54.091-33.055a4.845 4.845 0 0 1-1.606-6.652l24.964-40.851a4.845 4.845 0 0 1 6.652-1.606l54.091 33.055a4.845 4.845 0 0 1 1.606 6.653l-24.963 40.85a4.845 4.845 0 0 1-6.653 1.606Z"/>
  <path fill="#fff" d="M319.664 115.38c-11.258-1.228-22.959-10.226-34.775-21.25a4.537 4.537 0 0 1-1.504-6.23l21.455-35.108a4.537 4.537 0 0 1 6.23-1.504l48.134 29.414a4.537 4.537 0 0 1 1.504 6.23l-13.29 21.75a20.211 20.211 0 0 1-27.754 6.699Z"/>
  <path fill="#e6e6e6" d="M424.087 193.498c-21.382-5.322-39.74-15.784-54.091-33.055a4.845 4.845 0 0 1-1.606-6.652l24.964-40.851a4.845 4.845 0 0 1 6.652-1.606l54.091 33.055a4.845 4.845 0 0 1 1.606 6.653l-24.963 40.85a4.845 4.845 0 0 1-6.653 1.606Z"/>
  <path fill="#fff" d="M409.664 180.38c-11.258-1.228-22.959-10.226-34.775-21.25a4.537 4.537 0 0 1-1.504-6.23l21.455-35.108a4.537 4.537 0 0 1 6.23-1.504l48.134 29.414a4.537 4.537 0 0 1 1.504 6.23l-13.29 21.75a20.211 20.211 0 0 1-27.754 6.699Z"/>
  <path fill="#e6e6e6" d="M353.087 219.498c-21.382-5.322-39.74-15.784-54.091-33.055a4.845 4.845 0 0 1-1.606-6.652l24.964-40.851a4.845 4.845 0 0 1 6.652-1.606l54.091 33.055a4.845 4.845 0 0 1 1.606 6.653l-24.963 40.85a4.845 4.845 0 0 1-6.653 1.606Z"/>
  <path fill="#fff" d="M338.664 206.38c-11.258-1.228-22.959-10.226-34.775-21.25a4.537 4.537 0 0 1-1.504-6.23l21.455-35.108a4.537 4.537 0 0 1 6.23-1.504l48.134 29.414a4.537 4.537 0 0 1 1.504 6.23l-13.29 21.75a20.211 20.211 0 0 1-27.754 6.699Z"/>
  <path fill="#f2f2f2" d="M86.167 495.796a2.807 2.807 0 0 1-2.035-4.866l.192-.765-.076-.183a7.54 7.54 0 0 0-13.907.051c-2.274 5.478-5.17 10.966-5.883 16.758a22.304 22.304 0 0 0 .391 7.67 89.42 89.42 0 0 1-8.134-37.138 86.307 86.307 0 0 1 .535-9.628q.444-3.932 1.231-7.807a90.455 90.455 0 0 1 17.938-38.337 24.073 24.073 0 0 0 10.012-10.388 18.363 18.363 0 0 0 1.67-5.017c-.488.064-1.838-7.36-1.47-7.815-.68-1.03-1.895-1.543-2.637-2.549-3.69-5.002-8.773-4.129-11.426 2.669-5.669 2.861-5.724 7.606-2.246 12.17 2.213 2.902 2.517 6.83 4.46 9.939-.2.256-.408.503-.608.76a91.039 91.039 0 0 0-9.502 15.053 37.846 37.846 0 0 0-2.26-17.579c-2.163-5.217-6.216-9.611-9.786-14.121-4.288-5.418-13.08-3.054-13.836 3.814l-.021.2q.795.448 1.557.952a3.808 3.808 0 0 1-1.535 6.93l-.078.012a37.89 37.89 0 0 0 .999 5.665c-4.58 17.71 5.307 24.16 19.424 24.45.312.16.615.32.927.472a92.924 92.924 0 0 0-5.002 23.539 88.135 88.135 0 0 0 .064 14.23l-.024-.167a23.29 23.29 0 0 0-7.95-13.448c-6.118-5.026-14.762-6.876-21.363-10.916a4.37 4.37 0 0 0-6.694 4.252l.027.176a25.58 25.58 0 0 1 2.868 1.382q.796.45 1.558.953a3.808 3.808 0 0 1-1.536 6.93l-.078.012-.16.024a37.923 37.923 0 0 0 6.976 10.922c2.864 15.46 15.162 16.927 28.318 12.425h.008a92.897 92.897 0 0 0 6.24 18.218h22.293c.08-.248.152-.503.224-.751a25.33 25.33 0 0 1-6.169-.367c1.654-2.03 3.308-4.076 4.962-6.105a1.386 1.386 0 0 0 .104-.12c.84-1.039 1.686-2.07 2.525-3.108v-.001a37.101 37.101 0 0 0-1.087-9.452Z"/>
  <ellipse cx="241.077" cy="119.621" fill="#e6e6e6" rx="5.239" ry="5.22"/>
  <path fill="#ffb6b6" d="M67.218 490.329 76 496.038l26.202-31.153-12.96-8.427-22.024 33.871z"/>
  <path fill="#2f2e41" d="m60.952 499.288 27.004 17.559.222-.342a12.538 12.538 0 0 0-3.676-17.344l-2.5-6.95-11.636-2.242-2.357-1.533Z"/>
  <path fill="#ffb6b6" d="m217.708 505.29 10.475-.001 4.982-40.401-15.459.001.002 40.401z"/>
  <path fill="#2f2e41" d="m217.34 516.217 32.21-.001v-.407a12.538 12.538 0 0 0-12.537-12.537h-.001l-5.884-4.464-10.977 4.464h-2.812ZM109.288 255.987l93.928 2.065 9.31 11.638s-.804-4.103-.088.403 18.837 94.362 15.412 97.376 6.495 23.82 7.224 25.089 8.582 63.9 0 69.05l-3.224 21.86h-15s-15.026-17.389-12.002-20.54-5.625-13.635-5.956-19.256-3.489-31.116-1.042-35.203 5.754-19.429-.452-25.376-35.155-79.03-35.155-79.03-8.413 85.678-8.393 92.406c.026 8.749-5.72 4.419-5.72 12.1 0 1.55-18.707 41.433-31.28 53.9l-26 20-12-9v-13s11.12-24.121 15-28 18.203-15.754 18.203-21.185 6.743-7.323 2.208-14.524-2.984-10.304-1.432-13.407-1.39-130.26-1.39-130.26Z"/>
  <path fill="#3f3d56" d="m127.073 78.595 40.753-1.958 10.43 17.109s30.46 3.057 26.103 14.513-11.079 90.01-4.92 99.834c3.249 5.184 8.75 22.532 13.22 37.764a19.466 19.466 0 0 1-19.319 24.93c-28.987-.956-72.037-3.221-77.13-8.314-7.758-7.758-14.74-13.965-10.085-16.293s11.313-36.087 11.313-36.087-30.909-97.362-22.842-100.23 30.59-16.117 30.59-16.117Z"/>
  <circle cx="148.454" cy="39.059" r="28.383" fill="#ffb6b6"/>
  <path fill="#cacaca" d="m1.184 517.303 315.358.307a1.19 1.19 0 0 0 0-2.381L1.184 514.92a1.19 1.19 0 0 0 0 2.382Z"/>
  <path fill="#ffb6b6" d="m125.78 266.835-7.99-24.05-14.376 2.646 9.352 25.128a8.484 8.484 0 1 0 13.013-3.724Z"/>
  <path fill="#3f3d56" d="m96.917 110.072-.379.158a23.498 23.498 0 0 0-13.96 16.897c-2.038 9.753-4.043 23.86-2.458 37.068 2.8 23.33 4.666 33.594 8.399 41.06s4.665 4.665 3.732 10.264-5.599.933-.933 8.399 7.465 5.599 5.6 9.331-4.667 3.733-.934 8.399 3.733 6.532 4.666 8.398 3.732 15.864 3.732 15.864 14.931-4.666 23.33-2.8c0 0-7.466-13.064-5.6-15.863s4.666-3.733 1.867-6.532-7.466-1.867-2.8-4.666-3.732-31.728-3.732-31.728Z"/>
  <path fill="#ffb6b6" d="M321.383 163.22 296.815 157l-5.51 13.54 26.208 5.65a8.484 8.484 0 1 0 3.87-12.971Z"/>
  <path fill="#3f3d56" d="m173.747 103.125-.07.405a23.498 23.498 0 0 0 6.72 20.862c7.12 6.969 17.927 16.255 29.911 22.032 21.166 10.203 30.82 14.158 39.12 15.033s6.445-1.42 10.66 2.382-2.229 5.22 6.574 5.309 8.738-3.276 10.879.307.632 5.941 6.574 5.309 7.514.372 9.59.59 15.377 5.398 15.377 5.398 4.108-15.094 10.203-21.166c0 0-15.028-.744-16.382-3.824s-.633-5.942-4.5-5.09-5.592 5.285-5.439-.154-100.526-54.425-100.526-54.425Z"/>
  <path fill="#2f2e41" d="M182.438 34.093c-3.06.95-6.01 1.51-8-1s-1.47-5.38-4.43-6.59a10.47 10.47 0 0 0-7.56.35c-.43.16-.85.34-1.26.52-.23-.2-.46-.39-.71-.57a9.018 9.018 0 0 0-6.49-1.58 8.849 8.849 0 0 1 3.93 3.75c-.82.41-1.65.82-2.49 1.17a24.553 24.553 0 0 1-21.91-1.66c3.28 8.64.73 11.72-4.08 19.61l-.19.46c.48-2.07-5.81-4.46-5.81-1.46a35.834 35.834 0 0 0 2 9c-6.17-9.29-9.81-20.16-7.42-30.59.51-2.19.74-4.54 2.13-6.32 1.39-1.77 3.95-2.81 5.97-1.81a18.818 18.818 0 0 1 30.28-13.5c2.5 1.93 4.47 4.46 6.7 6.71 2.23 2.25 4.87 4.3 7.99 4.86 1.98.35 4.21.14 5.79 1.39 1.83 1.45 1.85 4 1.84 6.45a9.008 9.008 0 0 0-5.07 1.39 8.815 8.815 0 0 1 5.12 1.8.55.55 0 0 1 .08.06c.54 4.12.32 4.99 3.59 7.56Z"/>
  <ellipse cx="313.116" cy="47.192" fill="#e6e6e6" rx="5.239" ry="5.22"/>
  <ellipse cx="369.473" cy="53.327" fill="#e6e6e6" rx="5.239" ry="5.22"/>
  <ellipse cx="410.767" cy="92.173" fill="#e6e6e6" rx="5.239" ry="5.22"/>
  <ellipse cx="391.394" cy="197.312" fill="#e6e6e6" rx="5.239" ry="5.22"/>
  <ellipse cx="340.622" cy="221.412" fill="#e6e6e6" rx="5.239" ry="5.22"/>
  <ellipse cx="287.575" cy="211.625" fill="#e6e6e6" rx="5.239" ry="5.22"/>
  <ellipse cx="250.936" cy="172.779" fill="#e6e6e6" rx="5.239" ry="5.22"/>
  <ellipse cx="263.998" cy="71.987" fill="#e6e6e6" rx="5.239" ry="5.22"/>
  <ellipse cx="279.716" cy="120.926" fill="#e6e6e6" rx="5.239" ry="5.22"/>
  <ellipse cx="362.888" cy="99.393" fill="#e6e6e6" rx="5.239" ry="5.22"/>
  <ellipse cx="375.331" cy="147.026" fill="#e6e6e6" rx="5.239" ry="5.22"/>
  <ellipse cx="412.006" cy="148.331" fill="#6c63ff" rx="15.063" ry="15.008"/>
  <ellipse cx="337.347" cy="176.389" fill="#6c63ff" rx="15.063" ry="15.008"/>
  <ellipse cx="318.355" cy="84.385" fill="#6c63ff" rx="15.063" ry="15.008"/>
  <path fill="#3f3d56" d="M331.726 78.42c24.432-7.592 50.588.619 75.154-6.39a50.944 50.944 0 0 0 15.789-7.415 98.119 98.119 0 0 0 11.491-10.227c7.39-7.309 15.416-14.984 26.518-14.899 14.62.111 25.847 10.972 35.592 20.562 1.377 1.355 3.5-.765 2.121-2.122-8.955-8.812-18.63-18.108-31.376-20.738a28.955 28.955 0 0 0-17.116 1.421 44.684 44.684 0 0 0-12.72 8.697c-3.924 3.6-7.545 7.52-11.523 11.062a47.972 47.972 0 0 1-14.136 8.923c-11.262 4.484-23.616 5.025-35.594 4.894-15.036-.163-30.43-1.187-44.998 3.34-1.837.57-1.053 3.467.798 2.892Z"/>
  <path fill="#3f3d56" d="m501.628 39.833 7.51 13.24 3.634 6.406c.646 1.138 1.31 2.268 1.939 3.416.386.705 1.23 1.977.424 2.645a3.913 3.913 0 0 1-2.283.357c-1.324.002-2.649-.027-3.973-.04l-7.448-.076-15.393-.156a1.5 1.5 0 0 0 0 3c8.936.09 17.877.28 26.814.272a6.412 6.412 0 0 0 4.385-1.2 4.172 4.172 0 0 0 .796-4.81 45.68 45.68 0 0 0-3.034-5.563l-3.27-5.766-7.51-13.24a1.501 1.501 0 0 0-2.591 1.514Z"/>
  <path fill="#6c63ff" d="M600.897 72.274h-69.03a2.876 2.876 0 1 1 0-5.752h69.03a2.876 2.876 0 1 1 0 5.752Z"/>
  <path fill="#e6e6e6" d="M600.897 118.602h-69.03a2.876 2.876 0 1 1 0-5.752h69.03a2.876 2.876 0 1 1 0 5.752ZM668.662 95.438H531.866a2.876 2.876 0 1 1 0-5.752h136.796a2.876 2.876 0 1 1 0 5.752Z"/>
  <path fill="#6c63ff" d="M569.462 214.522h-69.03a2.876 2.876 0 1 1 0-5.753h69.03a2.876 2.876 0 1 1 0 5.753Z"/>
  <path fill="#e6e6e6" d="M569.462 260.85h-69.03a2.876 2.876 0 1 1 0-5.753h69.03a2.876 2.876 0 1 1 0 5.753ZM637.227 237.686H500.431a2.876 2.876 0 1 1 0-5.753h136.796a2.876 2.876 0 1 1 0 5.753Z"/>
  <path fill="#6c63ff" d="M262.968 264.765h-69.03a2.876 2.876 0 1 1 0-5.753h69.03a2.876 2.876 0 1 1 0 5.753Z"/>
  <path fill="#e6e6e6" d="M262.968 311.093h-69.03a2.876 2.876 0 1 1 0-5.752h69.03a2.876 2.876 0 1 1 0 5.752ZM330.734 287.93H193.938a2.876 2.876 0 1 1 0-5.753h136.796a2.876 2.876 0 1 1 0 5.752Z"/>
  <path fill="#3f3d56" d="m409.377 148.617 51.615 38.94 14.691 11.084c1.541 1.163 3.038-1.441 1.514-2.59l-51.615-38.941-14.69-11.084c-1.542-1.163-3.039 1.441-1.515 2.59Z"/>
  <path fill="#3f3d56" d="M453.298 201.017a92.035 92.035 0 0 0 35.97 8.977 1.515 1.515 0 0 0 1.446-1.898l-7.993-32.084c-.467-1.872-3.36-1.08-2.893.798l7.993 32.083 1.447-1.899a88.31 88.31 0 0 1-34.456-8.568c-1.732-.83-3.256 1.756-1.514 2.59ZM335.4 175.7l-37.089 53.042-10.453 14.95c-1.109 1.586 1.49 3.086 2.59 1.514l37.089-53.043 10.453-14.95c1.11-1.585-1.49-3.086-2.59-1.514Z"/>
  <path fill="#3f3d56" d="M284.588 221.5a91.156 91.156 0 0 0-7.608 36.161 1.515 1.515 0 0 0 1.899 1.447l31.86-9.229a1.501 1.501 0 0 0-.798-2.893l-31.86 9.229 1.899 1.446a87.487 87.487 0 0 1 7.199-34.647c.762-1.753-1.822-3.282-2.59-1.514Z"/>
</svg>