<?xml version="1.0" encoding="iso-8859-1"?>
<!-- Generator: Adobe Illustrator 19.0.0, SVG Export Plug-In . SVG Version: 6.00 Build 0)  -->
<svg version="1.1" id="Layer_1" xmlns="http://www.w3.org/2000/svg" xmlns:xlink="http://www.w3.org/1999/xlink" x="0px" y="0px"
	 viewBox="0 0 509.287 509.287" style="enable-background:new 0 0 509.287 509.287;" xml:space="preserve">
<circle style="fill:#29B36F;" cx="254.644" cy="254.644" r="254.644"/>
<path style="fill:#333842;" d="M377.049,329.579c-70.527,60.016-174.283,60.016-244.811,0
	c5.764-31.873,12.885-68.832,20.344-110.199c68.154,0,136.307,0,204.122,0C364.164,260.408,371.285,297.706,377.049,329.579z"/>
<polygon style="fill:#F8B517;" points="108.503,321.441 91.211,321.441 91.211,230.23 108.503,238.029 "/>
<g>
	<circle style="fill:#FBD303;" cx="99.687" cy="264.816" r="17.632"/>
	<path style="fill:#FBD303;" d="M117.658,375.354v-70.866c0-13.224-7.799-23.735-17.632-23.735
		c-9.833,0-17.632,10.511-17.632,23.735v70.866H117.658z"/>
</g>
<polygon style="fill:#414753;" points="254.644,133.934 20.683,198.019 254.644,304.487 488.604,198.019 "/>
<ellipse style="fill:#F1F3F7;" cx="254.644" cy="199.375" rx="20.005" ry="11.528"/>
<polygon style="fill:#F5EA0A;" points="259.391,197.34 108.503,238.029 91.211,230.23 "/>
<g>
</g>
<g>
</g>
<g>
</g>
<g>
</g>
<g>
</g>
<g>
</g>
<g>
</g>
<g>
</g>
<g>
</g>
<g>
</g>
<g>
</g>
<g>
</g>
<g>
</g>
<g>
</g>
<g>
</g>
</svg>
