<svg id="Capa_1" enable-background="new 0 0 512 512" height="512" viewBox="0 0 512 512" width="512" xmlns="http://www.w3.org/2000/svg"><g><g><path clip-rule="evenodd" d="m252.836 374.786-62.567 20.49-9.381 47.768 71.948 24.644 71.948-24.644-9.351-47.768z" fill="#838383" fill-rule="evenodd"/></g><g><path clip-rule="evenodd" d="m324.784 443.044h-71.948-71.948-36.077c-14.307 0-25.989 11.684-25.989 25.964v21.066c0 2.714 2.212 4.927 4.926 4.927h258.205c2.684 0 4.897-2.213 4.897-4.927v-21.066c0-14.28-11.682-25.964-25.959-25.964z" fill="#cecece" fill-rule="evenodd"/></g><g><path clip-rule="evenodd" d="m252.836 395.306-62.567-.03-3.747 19.001 45.399.03 62.568-.03 5.634 28.767h24.661l-9.351-47.768z" fill="#595959" fill-rule="evenodd"/></g><g><path clip-rule="evenodd" d="m247.585 16.998h221.626c14.396 0 26.166 11.772 26.166 26.171v325.908c0 14.398-11.77 26.2-26.166 26.2h-443.045c-14.396-.001-26.166-11.802-26.166-26.201v-325.907c0-14.399 11.77-26.171 26.166-26.171z" fill="#cecece" fill-rule="evenodd"/></g><g><path clip-rule="evenodd" d="m360.891 443.044h-36.107c14.307 0 25.989 11.684 25.989 25.964v21.066c0 2.714-2.212 4.927-4.926 4.927h36.107c2.684 0 4.897-2.213 4.897-4.927v-21.066c-.001-14.28-11.682-25.964-25.96-25.964z" fill="#b5adb6" fill-rule="evenodd"/></g><g><path clip-rule="evenodd" d="m251.745 354.383h-205.697c-3.038 0-5.516-2.478-5.516-5.517v-285.487c0-3.039 2.478-5.517 5.516-5.517h201.655 201.626c3.038 0 5.516 2.478 5.516 5.517v285.486c0 3.039-2.478 5.517-5.516 5.517h-197.584z" fill="#f9f7f7" fill-rule="evenodd"/></g><g><path d="m100.916 186.085-16.681-.03c-4.267-.008-7.72-3.473-7.713-7.74.008-4.263 3.466-7.713 7.726-7.713h.014l16.667.03c5.265 0 5.417-6.386 5.417-7.115v-40.484h-12.392c-4.267 0-7.726-3.459-7.726-7.726s3.459-7.726 7.726-7.726h20.119c4.267 0 7.726 3.459 7.726 7.726v48.21c0 12.866-8.978 22.568-20.883 22.568z" fill="#595959"/></g><g><path d="m175.165 186.085h-3.54c-15.094 0-27.373-12.281-27.373-27.376v-23.752c0-15.095 12.279-27.376 27.373-27.376h3.54c15.093 0 27.372 12.281 27.372 27.376v23.752c.001 15.095-12.278 27.376-27.372 27.376zm-3.54-63.051c-6.573 0-11.92 5.349-11.92 11.924v23.752c0 6.574 5.347 11.924 11.92 11.924h3.54c6.572 0 11.92-5.349 11.92-11.924v-23.752c0-6.574-5.347-11.924-11.92-11.924z" fill="#595959"/></g><g><path d="m137.878 239.311h-53.629c-4.267 0-7.726-3.459-7.726-7.726s3.459-7.726 7.726-7.726h53.629c4.267 0 7.726 3.459 7.726 7.726s-3.459 7.726-7.726 7.726z" fill="#595959"/></g><path d="m270.988 142.495c1.565-3.034 2.466-6.464 2.466-10.105v-2.626c0-12.232-9.951-22.184-22.181-22.184h-17.404c-5.919 0-10.735 4.816-10.735 10.736v28.502 28.531c0 5.92 4.816 10.736 10.735 10.736h25.369c12.23 0 22.181-9.952 22.181-22.184v-2.626c0-7.913-4.178-14.852-10.431-18.78zm-32.402-19.461h12.687c3.71 0 6.728 3.02 6.728 6.731v2.626c0 3.695-3.018 6.702-6.728 6.702h-12.687zm27.38 40.867c0 3.711-3.018 6.731-6.728 6.731h-20.651v-16.088h12.687 7.965c3.71 0 6.728 3.02 6.728 6.731v2.626z" fill="#595959"/><g><path d="m229.945 285.693h-145.696c-4.267 0-7.726-3.459-7.726-7.726s3.459-7.726 7.726-7.726h145.696c4.267 0 7.726 3.459 7.726 7.726.001 4.266-3.459 7.726-7.726 7.726z" fill="#595959"/></g><g><path clip-rule="evenodd" d="m425.465 354.383h23.865c3.038 0 5.516-2.478 5.516-5.517v-1.682-283.805c0-3.039-2.478-5.517-5.516-5.517h-60.473v5.517 285.486 5.517h36.608z" fill="#e2e2e2" fill-rule="evenodd"/></g><g><path clip-rule="evenodd" d="m454.846 63.379v257.516 26.289 1.682c0 3.039-2.478 5.517-5.516 5.517h-23.865l38.791 38.799 2.094 2.095h2.861c9.115 0 17.168-4.721 21.859-11.861 2.743-4.101 4.307-9.058 4.307-14.339v-7.76-318.148c0-14.398-11.77-26.171-26.166-26.171h-106.52c14.396 0 26.166 11.772 26.166 26.171v14.693h60.473c3.038 0 5.516 2.478 5.516 5.517z" fill="#b5adb6" fill-rule="evenodd"/></g><g><path clip-rule="evenodd" d="m388.856 354.295v14.693c0 14.398-11.77 26.2-26.166 26.2l103.66.089-2.094-2.095-38.791-38.799z" fill="#b5adb6" fill-rule="evenodd"/></g><g><path clip-rule="evenodd" d="m299.799 197.183c-28.496 28.501-28.496 74.706 0 103.207s74.662 28.501 103.158 0 28.496-74.706 0-103.207c-28.496-28.502-74.662-28.502-103.158 0z" fill="#62dbfb" fill-rule="evenodd"/></g><g><path clip-rule="evenodd" d="m369.741 197.094c28.496 28.501 28.496 74.706 0 103.207-10.03 10.032-22.272 16.552-35.163 19.503 23.776 5.606 49.824-.856 68.379-19.414 28.496-28.501 28.496-74.706 0-103.207-18.437-18.44-44.308-24.961-67.995-19.503 12.743 3.01 24.838 9.471 34.779 19.414z" fill="#00c0fa" fill-rule="evenodd"/></g><path d="m436.445 322.956-22.83-22.834c26.148-31.672 24.424-78.779-5.194-108.403-15.241-15.244-35.499-23.64-57.043-23.64-21.543 0-41.801 8.395-57.042 23.64-31.461 31.466-31.461 82.667 0 114.133 15.241 15.244 35.499 23.64 57.042 23.64 18.948 0 36.898-6.5 51.319-18.436l22.821 22.825c1.509 1.509 3.486 2.264 5.464 2.264 1.977 0 3.955-.754 5.463-2.263 3.017-3.016 3.017-7.908 0-10.926zm-131.182-28.029c-25.437-25.442-25.437-66.84 0-92.282 12.323-12.325 28.7-19.113 46.115-19.113s33.793 6.788 46.116 19.113c25.437 25.442 25.437 66.84 0 92.282-12.323 12.325-28.7 19.113-46.116 19.113-17.415 0-33.792-6.788-46.115-19.113z" fill="#838383"/><g><path clip-rule="evenodd" d="m455.878 321.81c-5.044-5.045-13.275-5.045-18.289 0l-6.608 6.609-6.608 6.58c-5.015 5.045-5.015 13.277 0 18.293l39.883 39.89 12.478 12.48c5.044 5.045 13.275 5.045 18.289 0l13.216-13.189c5.015-5.045 5.015-13.277 0-18.293l-15.044-15.047z" fill="#fe9737" fill-rule="evenodd"/></g><g><path clip-rule="evenodd" d="m455.878 321.81c-5.044-5.045-13.275-5.045-18.289 0l-6.608 6.609-6.549 6.521c5.044-4.957 13.245-4.927 18.23.059l37.316 37.323 13.216 13.218 1.829 1.829c5.044 5.045 5.044 13.277 0 18.293l13.216-13.189c5.015-5.045 5.015-13.277 0-18.293l-15.044-15.047z" fill="#f36b37" fill-rule="evenodd"/></g></g></svg>