<svg id="Capa_1" enable-background="new 0 0 512 512" height="512" viewBox="0 0 512 512" width="512" xmlns="http://www.w3.org/2000/svg"><g><g><path clip-rule="evenodd" d="m506.075 376.241c3.156-.206 4.925-1.386 4.925-6.901v-64.203c0-37.72-38.605-65.913-72.756-73.227l-160.995-.206c-12.681 2.536-26.071 8.022-37.897 15.837 0 0-48.316 59.53-44.255 99.63l10.813 27.409c11.147 1.661 151.999 52.086 151.999 52.086z" fill="#7bacdf" fill-rule="evenodd"/></g><g><path clip-rule="evenodd" d="m260.35 376.241c-39.724 22.954-57.007 135.719 47.275 133.773h198.214c3.627-2.212 5.161-5.957 5.161-9.732v-124.041h-4.925c-1.327.088-2.92 0-4.748 0-80.336 0-160.642 0-240.977 0z" fill="#cecece" fill-rule="evenodd"/></g><g><path clip-rule="evenodd" d="m341.806 274.289-21.116 70.425c-.206.619-.354.649-.059 1.18l16.014 30.347h20.556 20.556l16.043-30.347c.265-.531.118-.56-.059-1.18l-21.146-70.425-14.687-11z" fill="#fe9737" fill-rule="evenodd"/></g><g><path clip-rule="evenodd" d="m357.909 228.991-16.103 6.34-6.311 14.245 6.311 24.713h15.395 15.394l6.577-25.746-6.577-15.276z" fill="#fe7600" fill-rule="evenodd"/></g><g><path clip-rule="evenodd" d="m308.009 207.934c-11.148 8.464-26.749 20.791-30.819 23.711l.059.059 37.808 28.076c8.022 5.014 2.418 5.692 14.716-4.955l5.721-5.249 22.414-20.585c-.236 0-.472 0-.708 0l-15.66-25.775z" fill="#0078c8" fill-rule="evenodd"/></g><g><path clip-rule="evenodd" d="m357.909 228.991 21.264 19.553 6.842 6.282c12.328 10.646 6.724 9.968 14.746 4.955l37.484-27.869.354-.265c-4.129-3.008-20.349-15.807-31.527-24.271l-32.087-3.067z" fill="#0078c8" fill-rule="evenodd"/></g><g><path clip-rule="evenodd" d="m272.737 142.964c0 4.129.501 8.376 1.504 12.681 4.188 18.432 16.869 37.985 33.768 52.288 8.464 7.166 17.99 13.006 28.047 16.751 7.668 2.861 14.421 4.306 21.146 4.306h.708c6.488-.089 13.035-1.534 20.467-4.306 10.293-3.834 20.054-9.909 28.695-17.311 16.574-14.274 28.961-33.532 33.119-51.728.973-4.306 1.504-8.552 1.504-12.681v-46.921-6.193h-15.542c-32.883 0-39.755-40.521-79.952-40.521h-26.719c-30.789 0-7.343 46.714-42.763 46.714h-3.981v46.921z" fill="#ffe5c1" fill-rule="evenodd"/></g><g><path clip-rule="evenodd" d="m310.545 18.334c-40.817 3.598-37.808 57.951-37.808 65.088v13.831 19.73h3.981c35.42 0 11.974-46.714 42.763-46.714h26.719c40.197 0 47.069 40.551 79.952 40.551h15.542v-12.299-27.84c0-61.991-99.888-92.928-131.149-52.347z" fill="#838383" fill-rule="evenodd"/></g><g><path clip-rule="evenodd" d="m349.71 236.511 10.263 13.271c3.598 3.981 2.625 3.362.708 10.912l-3.48 13.596h15.395l6.577-25.746-21.264-19.553z" fill="#e6581f" fill-rule="evenodd"/></g><g><path clip-rule="evenodd" d="m356.404 274.289 21.116 70.425c.206.619.354.649.059 1.18l-16.014 30.347h16.191l16.043-30.347c.265-.531.118-.56-.059-1.18l-21.146-70.425z" fill="#f36b37" fill-rule="evenodd"/></g><g><path clip-rule="evenodd" d="m290.284 221.588c11.62 10.086 24.802 18.344 38.752 23.534 2.507.944 4.955 1.77 7.343 2.477.324.088.649.177.973.265l12.357-11.354 8.199-7.52c-.236 0-.472 0-.708 0-6.724 0-13.478-1.445-21.146-4.306-10.057-3.745-19.583-9.585-28.047-16.751-5.454 4.13-12.002 9.202-17.723 13.655z" fill="#0067b4" fill-rule="evenodd"/></g><g><path clip-rule="evenodd" d="m407.071 207.373c-8.641 7.402-18.403 13.478-28.695 17.311-7.432 2.772-13.979 4.217-20.467 4.306l20.202 18.58c.206-.059.383-.118.56-.177 2.182-.649 4.424-1.416 6.724-2.271 14.215-5.308 27.604-13.743 39.401-24.094-5.81-4.512-12.357-9.585-17.725-13.655z" fill="#0067b4" fill-rule="evenodd"/></g><g><path clip-rule="evenodd" d="m417.039 88.73v20.939c2.831.737 5.839 1.15 9.113 1.15h15.542v-12.298-2.477-6.194-19.169c0-45.653-54.176-74.466-95.199-70.278 35.213 6.4 70.544 32.264 70.544 69.157z" fill="#595959" fill-rule="evenodd"/></g><g><path clip-rule="evenodd" d="m417.039 141.844c0 4.129-.501 8.376-1.504 12.681-5.839 25.628-26.837 50.725-50.136 63.642-6.931 3.834-15.07 7.107-22.827 8.67 5.102 1.445 9.85 2.153 14.628 2.153h.708c6.488-.089 13.035-1.534 20.467-4.306 10.293-3.834 20.054-9.909 28.695-17.311 16.574-14.274 28.961-33.532 33.119-51.728.973-4.306 1.504-8.552 1.504-12.681v-25.982-6.164h-15.542c-3.274 0-6.282-.413-9.113-1.15v32.176z" fill="#fed1a3" fill-rule="evenodd"/></g><g><path d="m332.487 143.347c-1.978 0-3.955-.755-5.464-2.263-1.521-1.522-3.545-2.36-5.699-2.36-2.153 0-4.177.838-5.698 2.36-3.018 3.017-7.911 3.018-10.928.001-3.018-3.018-3.018-7.909-.001-10.927 4.441-4.44 10.345-6.886 16.627-6.886s12.187 2.446 16.628 6.886c3.017 3.018 3.017 7.909-.001 10.927-1.509 1.508-3.487 2.262-5.464 2.262z" fill="#838383"/></g><g><path d="m405.656 143.347c-1.978 0-3.955-.755-5.464-2.263-1.521-1.522-3.545-2.36-5.698-2.36s-4.178.838-5.7 2.36c-3.016 3.017-7.909 3.016-10.928-.001-3.017-3.018-3.017-7.909.001-10.927 4.44-4.44 10.345-6.885 16.627-6.885s12.186 2.446 16.627 6.886c3.017 3.018 3.017 7.909-.001 10.927-1.509 1.509-3.487 2.263-5.464 2.263z" fill="#838383"/></g><g><path d="m460.391 330.884v45.359h-15.455v-45.359c0-4.265 3.462-7.726 7.727-7.726 4.267-.001 7.728 3.461 7.728 7.726z" fill="#3987d0"/></g><g><path d="m357.893 197.516c-6.281 0-12.186-2.446-16.627-6.886-3.017-3.018-3.017-7.909.001-10.927 3.017-3.017 7.91-3.016 10.928.001 1.521 1.522 3.545 2.36 5.698 2.36 2.154 0 4.178-.838 5.699-2.36 3.018-3.017 7.911-3.018 10.928-.001 3.018 3.018 3.018 7.909.001 10.927-4.441 4.44-10.345 6.886-16.628 6.886z" fill="#838383"/></g><g><path clip-rule="evenodd" d="m239.263 268.067h-168.957c0 4.129.501 8.376 1.504 12.681 4.571 20.054 19.17 41.435 38.339 55.945l40.758 17.252 48.484-17.252c19.199-14.51 33.797-35.891 38.369-55.945.973-4.306 1.503-8.552 1.503-12.681z" fill="#ffe5c1" fill-rule="evenodd"/></g><g><path clip-rule="evenodd" d="m70.306 222.355v19.73 25.982c29.079 40.374 126.018 47.009 168.958 0l.088-20.526.265-51.757c.295-61.991-100.242-92.927-131.503-52.347-40.817 3.598-37.808 57.921-37.808 65.088z" fill="#838383" fill-rule="evenodd"/></g><g><path clip-rule="evenodd" d="m308.566 440.856v64.201c0 2.359-.319 3.925-.938 4.955-.824 1.391-2.184 1.834-3.987 1.947-1.329.093-2.916 0-4.75 0h-288.247c-4.214 0-7.284.474-8.727-1.947-.598-1.03-.917-2.596-.917-4.955v-64.201c0-38.106 39.399-66.529 73.821-73.431 21.142-9.848 126.13-11.383 159.903 0 8.459 1.71 17.216 4.687 25.624 8.818 25.778 12.65 48.218 35.86 48.218 64.613z" fill="#f9f7f7" fill-rule="evenodd"/></g><g><path clip-rule="evenodd" d="m199.391 336.693h-89.242-12.062c-2.89 0-3.598 2.89-5.279 5.249l-17.99 25.481c-1.681 2.359 2.359 5.249 5.279 5.249h149.375c2.89 0 6.754-2.772 5.25-5.249l-15.336-25.481c-1.475-2.477-2.359-5.249-5.25-5.249z" fill="#cecece" fill-rule="evenodd"/></g><g><path clip-rule="evenodd" d="m229.472 372.673h-20.438c2.684 1.091 5.367 2.271 8.022 3.568 25.776 12.652 48.219 35.862 48.219 64.616v64.203c0 2.359-.324 3.922-.944 4.955-.826 1.386-2.182 1.828-3.981 1.946h19.936 18.609c1.828 0 3.421.088 4.748 0 1.799-.118 3.156-.56 3.981-1.946.619-1.032.944-2.595.944-4.955v-64.203c0-28.754-22.443-51.964-48.219-64.616-8.405-4.129-17.164-7.107-25.628-8.818 1.505 2.478-2.359 5.25-5.249 5.25z" fill="#e2e2e2" fill-rule="evenodd"/></g><g><path clip-rule="evenodd" d="m177.596 344.449 2.271 3.745 7.343 12.209 4.247 7.019c1.475 2.477-2.389 5.249-5.279 5.249h22.856 20.438c2.89 0 6.754-2.772 5.25-5.249l-15.336-25.481c-1.475-2.477-2.359-5.249-5.25-5.249h-14.746-28.548c2.89 0 3.775 2.772 5.25 5.249z" fill="#b5adb6" fill-rule="evenodd"/></g><g><path clip-rule="evenodd" d="m200.954 201.298-.265 51.757-.088 15.011-.029 5.515c0 4.129-.501 8.376-1.504 12.681-.59 2.654-1.386 5.338-2.3 8.022 16.397-5.338 31.291-13.949 42.498-26.218l.088-20.526.265-51.757c.265-53.969-75.853-84.375-116.197-64.616 37.482 4.071 77.709 30.878 77.532 70.131z" fill="#595959" fill-rule="evenodd"/></g><g><path clip-rule="evenodd" d="m239.263 268.067c-11.207 12.268-26.1 20.88-42.498 26.218-5.338 15.129-15.867 30.406-29.344 42.409h3.421 28.548c19.199-14.51 33.797-35.891 38.369-55.945.974-4.307 1.504-8.553 1.504-12.682z" fill="#fed1a3" fill-rule="evenodd"/></g><g><path clip-rule="evenodd" d="m438.244 231.91-22.443 16.692c31.998 9.555 65.147 36.363 65.147 71.31v56.329h1.77 18.609 4.748c3.156-.206 4.925-1.386 4.925-6.901v-64.203c0-37.719-38.605-65.913-72.756-73.227z" fill="#3987d0" fill-rule="evenodd"/></g><g><path clip-rule="evenodd" d="m454.435 478.105c-12.033 14.038-26.395 24.743-41.731 31.91h93.135c3.627-2.212 5.161-5.957 5.161-9.732v-124.042h-4.925c-1.327.088-2.92 0-4.748 0h-18.609-1.327c7.874 33.149-1.033 71.605-26.956 101.864z" fill="#b5adb6" fill-rule="evenodd"/></g><g><path d="m46.828 511.959v-45.359c0-4.265 3.462-7.726 7.727-7.726s7.727 3.461 7.727 7.726v45.359z" fill="#e2e2e2"/></g><g><path d="m257.958 466.6v45.359h-15.455v-45.359c0-4.265 3.462-7.726 7.727-7.726 4.276 0 7.728 3.461 7.728 7.726z" fill="#e2e2e2"/></g></g></svg>