<svg id="Capa_1" enable-background="new 0 0 512 512" height="512" viewBox="0 0 512 512" width="512" xmlns="http://www.w3.org/2000/svg"><g><g><path clip-rule="evenodd" d="m9.724 109.866h492.522c5.373 0 9.754 4.369 9.754 9.7v334.704c0 5.36-4.38 9.729-9.754 9.729h-492.522c-5.344.001-9.724-4.369-9.724-9.728v-334.705c0-5.331 4.38-9.7 9.724-9.7z" fill="#f9f7f7" fill-rule="evenodd"/></g><g><path d="m438.06 412.142h-145.309c-4.267 0-7.726-3.453-7.726-7.713s3.459-7.713 7.726-7.713h145.309c4.267 0 7.726 3.453 7.726 7.713s-3.459 7.713-7.726 7.713z" fill="#595959"/></g><g><path d="m438.06 370.544h-145.309c-4.267 0-7.726-3.453-7.726-7.713s3.459-7.713 7.726-7.713h145.309c4.267 0 7.726 3.453 7.726 7.713.001 4.26-3.459 7.713-7.726 7.713z" fill="#595959"/></g><g><path d="m361.054 328.976h-68.303c-4.267 0-7.726-3.453-7.726-7.713s3.459-7.713 7.726-7.713h68.303c4.267 0 7.726 3.453 7.726 7.713s-3.459 7.713-7.726 7.713z" fill="#595959"/></g><g><path d="m338.043 63.426h-149.952c-4.267 0-7.726-3.453-7.726-7.713s3.458-7.713 7.726-7.713h149.953c4.267 0 7.726 3.453 7.726 7.713s-3.46 7.713-7.727 7.713z" fill="#838383"/></g><g><path clip-rule="evenodd" d="m239.223 399.71v-43.724c0-23.217-15.068-27.994-34.312-39.5h-122.065c-19.244 11.506-34.342 16.284-34.342 39.5v43.724c0 5.36 2.482 4.69 6.6 4.69h12.703 60.828 15.243 15.185 60.857 12.732c4.118 0 6.571.67 6.571-4.69z" fill="#7bacdf" fill-rule="evenodd"/></g><g><path clip-rule="evenodd" d="m170.861 383.688-15.623-33.82-11.36-6.409-11.418 6.409-15.652 33.82c-.117.32-.234.32-.029.612l11.856 20.1h15.243 15.185l11.827-20.1c.234-.291.117-.291-.029-.612z" fill="#fe9737" fill-rule="evenodd"/></g><g><path clip-rule="evenodd" d="m155.238 349.868 4.848-19.021 2.482-9.409-18.689-7.72-8.819 4.078-9.725 4.545 2.278 8.564 4.848 18.963h11.388z" fill="#fe7600" fill-rule="evenodd"/></g><g><path clip-rule="evenodd" d="m127.613 330.905 16.266-17.187-11.184-10.778-21.96-3.175-27.888 16.721 29.085 18.789c5.402 3.146 6.658 6.059 10.688.874z" fill="#0078c8" fill-rule="evenodd"/></g><g><path clip-rule="evenodd" d="m175.796 335.274 29.114-18.789-27.917-16.721-16.908 1.136-16.207 12.817 16.207 17.128 5.023 5.302c4.06 5.186 5.286 2.273 10.688-.873z" fill="#0078c8" fill-rule="evenodd"/></g><g><path clip-rule="evenodd" d="m176.994 299.765c11.768-9.788 20.617-23.275 23.508-35.976.672-2.942 1.051-5.855 1.051-8.652v-33.936-4.224h-10.63c-22.456 0-27.129-27.586-54.579-27.586h-13.345c-21.025 0-5.023 31.81-29.202 31.81h-7.593v33.936c0 2.797.35 5.71 1.022 8.652 2.92 12.701 11.739 26.188 23.508 35.976 5.665 4.69 12.002 8.535 18.689 11.04 5.256 1.952 9.841 2.913 14.455 2.913 4.585 0 9.199-.961 14.426-2.913 6.688-2.505 13.025-6.35 18.69-11.04z" fill="#ffe5c1" fill-rule="evenodd"/></g><g><path clip-rule="evenodd" d="m201.553 205.908c0-26.887-27.684-45.181-53.265-47.802h-12.148c-9.87 1.107-18.573 4.981-24.121 12.176-27.859 2.447-25.815 39.442-25.815 44.307v9.438 13.429h7.593c24.179 0 8.177-31.81 29.202-31.81h13.345c27.45 0 32.122 27.586 54.579 27.586h10.63v-8.36z" fill="#838383" fill-rule="evenodd"/></g><g><path clip-rule="evenodd" d="m201.553 216.977v-11.069c0-26.887-27.684-45.181-53.265-47.802h-12.119c24.968 3.408 51.074 21.44 51.074 47.54v11.069 4.224 3.67 8.36c1.168.175 2.395.262 3.679.262h10.63v-8.36-3.67-4.224z" fill="#595959" fill-rule="evenodd"/></g><g><path clip-rule="evenodd" d="m201.553 255.138v-17.682-4.224h-10.63c-1.285 0-2.511-.087-3.679-.262-19.39-2.796-25.026-27.324-50.899-27.324h-13.345c-7.768 0-10.484 4.34-12.031 9.817l15.273 1.66c35.919 3.874 31.538 25.023 50.899 27.848l6.366.903c4.293 0 3.738 2.651 3.738 6.787v2.185c0 2.796-.38 5.68-1.051 8.623-2.891 12.73-11.739 26.217-23.508 36.005-.555.437-1.11.903-1.694 1.34-2.132 1.69-4.38 3.233-6.658 4.632-3.329 2.01-6.775 3.729-10.338 5.04-.847.32-1.723.641-2.541.903-1.898.612-3.709 1.078-5.461 1.398 2.687.641 5.286.932 7.885.932 4.585 0 9.199-.961 14.426-2.913 6.687-2.505 13.024-6.35 18.689-11.04 11.768-9.788 20.617-23.275 23.508-35.976.671-2.943 1.051-5.856 1.051-8.652z" fill="#fed1a3" fill-rule="evenodd"/></g><g><path clip-rule="evenodd" d="m130.679 327.671 13.199-13.953c-2.599 0-5.198-.291-7.885-.932-2.103-.466-4.264-1.136-6.57-1.981-6.687-2.505-13.024-6.35-18.689-11.04l-13.375 8.011c1.577 1.515 3.212 2.971 4.877 4.37 7.125 5.913 15.097 10.749 23.478 13.866.234.087.438.175.642.233 1.491.552 2.922 1.019 4.323 1.426z" fill="#0067b4" fill-rule="evenodd"/></g><g><path clip-rule="evenodd" d="m162.013 326.011c8.41-3.117 16.382-7.953 23.478-13.866 1.694-1.398 3.329-2.855 4.906-4.37l-13.404-8.011c-5.665 4.69-12.002 8.535-18.689 11.04-5.227 1.952-9.841 2.913-14.426 2.913l13.199 13.953c1.372-.408 2.774-.874 4.234-1.398.235-.086.468-.174.702-.261z" fill="#0067b4" fill-rule="evenodd"/></g><g><path clip-rule="evenodd" d="m157.078 327.671-13.199-13.953-7.009 7.399 7.476 9.875 2.307 2.913c.701.874.526 1.02.263 2.097l-2.249 8.739-.788 5.127h11.36l4.848-19.022z" fill="#e6581f" fill-rule="evenodd"/></g><g><path clip-rule="evenodd" d="m170.861 383.688-15.623-33.82h-11.36l11.798 33.82c.146.32.263.32.029.612l-11.827 20.1h15.185l11.827-20.1c.234-.291.117-.291-.029-.612z" fill="#f36b37" fill-rule="evenodd"/></g><g><path clip-rule="evenodd" d="m239.223 355.986c0-23.217-15.068-27.994-34.312-39.5l-17.93 11.565c16.616 9.496 28.998 15.381 28.998 36.413v39.936h3.942 12.732c4.117 0 6.57.67 6.57-4.69z" fill="#3987d0" fill-rule="evenodd"/></g><g><path clip-rule="evenodd" d="m433.3 206.461h-135.818c-2.599 0-4.731 2.126-4.731 4.748v50.745c0 2.593 2.132 4.719 4.731 4.719h135.818c2.628 0 4.76-2.126 4.76-4.719v-50.745c0-2.621-2.131-4.748-4.76-4.748z" fill="#97da7b" fill-rule="evenodd"/></g><g><path clip-rule="evenodd" d="m299.234 55.713h-69.822v54.153 32.393c0 3.525 2.891 6.409 6.424 6.409h57.002c3.504 0 6.395-2.884 6.395-6.409v-32.393-54.153z" fill="#838383" fill-rule="evenodd"/></g><g><path clip-rule="evenodd" d="m512 454.271v-334.705c0-5.331-4.38-9.7-9.754-9.7h-41.146c5.344 0 9.724 4.369 9.724 9.7v334.704c0 5.36-4.38 9.729-9.724 9.729h41.146c5.374.001 9.754-4.369 9.754-9.728z" fill="#e2e2e2" fill-rule="evenodd"/></g><g><path clip-rule="evenodd" d="m438.06 261.954v-50.745c0-2.622-2.132-4.748-4.76-4.748h-25.523c2.599 0 4.76 2.126 4.76 4.748v50.745c0 2.563-2.132 4.69-4.702 4.719h25.465c2.629 0 4.76-2.126 4.76-4.719z" fill="#68ca44" fill-rule="evenodd"/></g><g><path clip-rule="evenodd" d="m299.234 109.866v-54.153h-28.501v54.153 32.393c0 3.525-2.891 6.409-6.395 6.409h28.501c3.504 0 6.395-2.884 6.395-6.409z" fill="#595959" fill-rule="evenodd"/></g></g></svg>