<svg id="Capa_1" enable-background="new 0 0 512 512" height="512" viewBox="0 0 512 512" width="512" xmlns="http://www.w3.org/2000/svg"><g><g><g><path clip-rule="evenodd" d="m274.149 349.724v-62.888c0-33.428-21.668-40.312-49.352-56.88h-175.445c-27.684 16.568-49.352 23.452-49.352 56.879v62.888c0 7.73 3.533 6.767 9.461 6.767h18.281 87.431 21.902 21.814 87.519 18.281c5.897.001 9.46.963 9.46-6.766z" fill="#f9f7f7" fill-rule="evenodd"/></g><g><path clip-rule="evenodd" d="m175.884 326.68-22.486-48.683-16.324-9.188-16.412 9.188-22.485 48.683c-.175.467-.35.496-.058.904l17.054 28.906h21.902 21.814l17.025-28.906c.321-.408.145-.437-.03-.904z" fill="#7bacdf" fill-rule="evenodd"/></g><g><path clip-rule="evenodd" d="m153.398 277.997 6.98-27.36 3.592-13.535-26.895-11.113-12.645 5.892-14.017 6.505 3.271 12.338 6.979 27.273h16.353z" fill="#3987d0" fill-rule="evenodd"/></g><g><path clip-rule="evenodd" d="m113.684 250.724 23.391-24.735-16.061-15.547-31.567-4.55-40.094 24.064 41.817 27.04c7.768 4.521 9.549 8.751 15.36 1.283z" fill="#cecece" fill-rule="evenodd"/></g><g><path clip-rule="evenodd" d="m182.951 256.995 41.847-27.04-40.124-24.064-24.296 1.604-23.303 18.493 23.303 24.648 7.213 7.642c5.84 7.468 7.592 3.239 15.36-1.283z" fill="#cecece" fill-rule="evenodd"/></g><g><path clip-rule="evenodd" d="m184.674 205.891c16.937-14.059 29.64-33.486 33.816-51.775.964-4.229 1.489-8.401 1.489-12.455v-48.858-6.067h-15.243c-32.297 0-39.014-39.728-78.466-39.728h-19.215c-30.195 0-7.213 45.795-41.963 45.795h-10.922v48.858c0 4.055.526 8.226 1.489 12.455 4.176 18.289 16.879 37.716 33.787 51.775 8.147 6.767 17.258 12.309 26.866 15.868 7.534 2.829 14.134 4.23 20.763 4.23 6.6 0 13.229-1.4 20.763-4.23 9.607-3.558 18.718-9.1 26.836-15.868z" fill="#ffe5c1" fill-rule="evenodd"/></g><g><path clip-rule="evenodd" d="m219.979 70.81c0-38.707-39.773-65.047-76.568-68.81h-17.463c-14.163 1.575-26.691 7.176-34.663 17.531-40.065 3.529-37.115 56.762-37.115 63.792v13.564 19.31h10.922c34.75 0 11.768-45.766 41.963-45.766h19.215c39.452 0 46.168 39.728 78.466 39.728h15.243v-12.076z" fill="#838383" fill-rule="evenodd"/></g><g><path clip-rule="evenodd" d="m219.979 86.736v-15.926c0-38.707-39.773-65.047-76.568-68.81h-17.404c35.889 4.9 73.385 30.832 73.385 68.43v15.926 6.067 5.28 12.076c1.694.233 3.475.379 5.344.379h15.243v-12.075-5.28z" fill="#595959" fill-rule="evenodd"/></g><g><path clip-rule="evenodd" d="m219.979 141.661v-25.465-6.038h-15.243c-1.869 0-3.65-.146-5.344-.379v31.444c0 4.054-.496 8.226-1.46 12.455-4.176 18.289-16.908 37.715-33.816 51.775-.788.671-1.606 1.313-2.424 1.983-3.095 2.392-6.278 4.609-9.578 6.651-4.76 2.888-9.724 5.338-14.835 7.234-1.256.467-2.482.904-3.679 1.283-2.716.875-5.315 1.575-7.855 2.042 3.884.904 7.593 1.342 11.33 1.342 6.6 0 13.229-1.4 20.763-4.23 9.607-3.559 18.719-9.101 26.837-15.868 16.937-14.059 29.64-33.486 33.816-51.775.963-4.228 1.488-8.399 1.488-12.454z" fill="#fed1a3" fill-rule="evenodd"/></g><g><path clip-rule="evenodd" d="m199.392 109.779c-27.83-4.054-35.948-39.349-73.122-39.349h-19.215c-11.155 0-15.039 6.242-17.288 14.118h21.989c37.174 0 45.292 35.294 73.122 39.349h14.513v-14.118z" fill="#fed1a3" fill-rule="evenodd"/></g><g><path clip-rule="evenodd" d="m118.093 246.057 18.981-20.068c-3.738 0-7.447-.438-11.33-1.342-3.008-.7-6.132-1.633-9.432-2.888-9.607-3.559-18.719-9.101-26.866-15.868l-19.244 11.551c2.278 2.159 4.614 4.259 7.038 6.271 10.221 8.517 21.668 15.46 33.728 19.952.321.117.642.233.934.35 2.132.759 4.176 1.459 6.191 2.042z" fill="#b5adb6" fill-rule="evenodd"/></g><g><path clip-rule="evenodd" d="m163.152 243.665c12.09-4.492 23.537-11.434 33.758-19.952 2.424-2.013 4.76-4.113 7.038-6.271l-19.273-11.551c-8.118 6.767-17.229 12.309-26.837 15.868-7.534 2.829-14.163 4.23-20.763 4.23l18.981 20.068c1.957-.583 4.001-1.254 6.074-2.013.35-.116.701-.233 1.022-.379z" fill="#b5adb6" fill-rule="evenodd"/></g><g><path clip-rule="evenodd" d="m156.056 246.057-18.981-20.068-10.075 10.646 10.776 14.205 3.3 4.2c1.022 1.254.759 1.458.35 3.034l-3.183 12.543-1.168 7.38h16.324l6.979-27.36z" fill="#0067b4" fill-rule="evenodd"/></g><g><path clip-rule="evenodd" d="m175.884 326.68-22.486-48.683h-16.324l16.966 48.683c.204.467.38.496.058.904l-17.025 28.906h21.814l17.025-28.906c.323-.408.147-.437-.028-.904z" fill="#3987d0" fill-rule="evenodd"/></g><g><path clip-rule="evenodd" d="m274.149 286.835c0-33.428-21.668-40.312-49.352-56.88l-25.785 16.655c23.917 13.651 41.701 22.139 41.701 52.417v57.463h5.694 18.281c5.899 0 9.461.963 9.461-6.767z" fill="#e2e2e2" fill-rule="evenodd"/></g><g><path clip-rule="evenodd" d="m512 392.31v-62.888c0-33.428-21.697-40.312-49.352-56.88h-175.475c-27.654 16.568-49.352 23.452-49.352 56.88v62.888c0 7.73 3.563 6.767 9.491 6.767h18.251 87.431 21.931 21.814 87.519 18.251c5.928.001 9.491.963 9.491-6.767z" fill="#f9f7f7" fill-rule="evenodd"/></g><g><path clip-rule="evenodd" d="m413.706 369.267-22.456-48.683-16.324-9.217-16.441 9.217-22.456 48.683c-.204.467-.35.496-.058.904l17.025 28.906h21.931 21.814l17.025-28.906c.29-.408.144-.437-.06-.904z" fill="#fe9737" fill-rule="evenodd"/></g><g><path clip-rule="evenodd" d="m391.249 320.584 6.98-27.361 3.562-13.534-26.866-11.114-12.673 5.863-13.988 6.505 3.271 12.368 6.95 27.273h16.382z" fill="#fe7600" fill-rule="evenodd"/></g><g><path clip-rule="evenodd" d="m351.535 293.311 23.391-24.735-16.09-15.547-31.538-4.55-40.124 24.064 41.847 27.04c7.768 4.521 9.52 8.722 15.36 1.283z" fill="#cecece" fill-rule="evenodd"/></g><g><path clip-rule="evenodd" d="m420.802 299.582 41.847-27.04-40.124-24.064-24.296 1.604-23.303 18.493 23.303 24.648 7.213 7.642c5.84 7.439 7.592 3.238 15.36-1.283z" fill="#cecece" fill-rule="evenodd"/></g><g><path clip-rule="evenodd" d="m422.525 248.478c16.908-14.059 29.64-33.486 33.816-51.804.964-4.23 1.46-8.401 1.46-12.426v-48.858-6.067h-15.243c-32.268 0-39.014-39.728-78.466-39.728h-19.186c-30.224 0-7.213 45.795-41.963 45.795h-10.922v48.858c0 4.025.496 8.196 1.46 12.426 4.176 18.318 16.908 37.745 33.816 51.804 8.147 6.767 17.258 12.309 26.866 15.868 7.534 2.829 14.134 4.229 20.763 4.229 6.6 0 13.199-1.4 20.733-4.229 9.607-3.559 18.718-9.101 26.866-15.868z" fill="#ffe5c1" fill-rule="evenodd"/></g><g><path clip-rule="evenodd" d="m457.801 113.396c0-38.707-39.773-65.047-76.568-68.81h-17.434c-14.163 1.575-26.691 7.176-34.663 17.531-40.065 3.5-37.116 56.763-37.116 63.763v13.564 19.339h10.922c34.75 0 11.739-45.766 41.963-45.766h19.186c39.452 0 46.198 39.699 78.466 39.699h15.243v-12.047-27.273z" fill="#838383" fill-rule="evenodd"/></g><g><path clip-rule="evenodd" d="m457.801 129.323v-15.926c0-38.707-39.773-65.047-76.568-68.81h-17.375c35.86 4.9 73.385 30.832 73.385 68.43v15.926 6.067 5.28 12.047c1.694.263 3.475.379 5.315.379h15.243v-12.047-5.28z" fill="#595959" fill-rule="evenodd"/></g><g><path clip-rule="evenodd" d="m457.801 184.248v-25.465-6.067h-15.243c-1.84 0-3.621-.117-5.315-.379v31.473c0 4.025-.496 8.196-1.489 12.426-4.176 18.318-16.879 37.745-33.787 51.804-.818.671-1.635 1.313-2.453 1.954-3.066 2.421-6.278 4.638-9.578 6.651-4.76 2.917-9.724 5.367-14.835 7.263-1.256.467-2.482.904-3.679 1.283-2.716.875-5.286 1.546-7.826 2.042 3.884.875 7.592 1.342 11.33 1.342 6.6 0 13.199-1.4 20.733-4.229 9.607-3.559 18.719-9.101 26.866-15.868 16.908-14.059 29.64-33.486 33.816-51.804.964-4.23 1.46-8.401 1.46-12.426z" fill="#fed1a3" fill-rule="evenodd"/></g><g><path clip-rule="evenodd" d="m437.243 152.337c-27.83-4.054-35.948-39.32-73.151-39.32h-19.186c-11.155 0-15.068 6.242-17.288 14.118h21.96c37.203 0 45.322 35.265 73.151 39.349h12.06c2.424 0 2.453.408 2.453 2.596v14.73c0 4.025-.496 8.196-1.489 12.426-4.176 18.318-16.879 37.745-33.787 51.804-.818.671-1.635 1.313-2.453 1.954-3.066 2.421-6.278 4.638-9.578 6.651-4.76 2.917-9.724 5.367-14.835 7.263-1.256.467-2.482.904-3.679 1.283-2.716.875-5.286 1.546-7.826 2.042 3.884.875 7.592 1.342 11.33 1.342 6.6 0 13.199-1.4 20.733-4.229 9.607-3.559 18.719-9.101 26.866-15.868 16.908-14.059 29.64-33.486 33.816-51.804.964-4.23 1.46-8.401 1.46-12.426v-25.465-6.067h-15.243c-1.839 0-3.621-.116-5.314-.379z" fill="#fed1a3" fill-rule="evenodd"/></g><g><path clip-rule="evenodd" d="m355.944 288.644 18.981-20.068c-3.738 0-7.447-.467-11.33-1.342-3.037-.7-6.162-1.663-9.432-2.888-9.607-3.559-18.719-9.101-26.866-15.868l-19.273 11.551c2.278 2.159 4.643 4.259 7.038 6.271 10.25 8.517 21.697 15.46 33.758 19.952.321.117.613.233.934.35 2.102.758 4.175 1.429 6.19 2.042z" fill="#b5adb6" fill-rule="evenodd"/></g><g><path clip-rule="evenodd" d="m401.003 286.252c12.06-4.492 23.508-11.434 33.758-19.952 2.395-2.013 4.76-4.113 7.038-6.271l-19.273-11.551c-8.147 6.767-17.258 12.309-26.866 15.868-7.534 2.829-14.134 4.229-20.733 4.229l18.952 20.068c1.986-.583 4.001-1.254 6.103-2.013.32-.116.67-.261 1.021-.378z" fill="#b5adb6" fill-rule="evenodd"/></g><g><path clip-rule="evenodd" d="m393.878 288.644-18.952-20.068-10.075 10.647 10.746 14.205 3.329 4.2c1.022 1.254.759 1.458.35 3.034l-3.212 12.543-1.139 7.38h16.324l6.979-27.361z" fill="#e6581f" fill-rule="evenodd"/></g><g><path clip-rule="evenodd" d="m512 329.422c0-33.428-21.697-40.312-49.352-56.88l-25.785 16.655c23.916 13.651 41.701 22.139 41.701 52.417v57.463h5.694 18.251c5.928 0 9.491.963 9.491-6.767z" fill="#e2e2e2" fill-rule="evenodd"/></g><g><path clip-rule="evenodd" d="m168.788 313.787c26.253-26.194 68.771-26.194 95.024 0 26.223 26.223 26.223 68.693 0 94.916-26.253 26.223-68.771 26.223-95.024 0-26.223-26.223-26.223-68.693 0-94.916z" fill="#62dbfb" fill-rule="evenodd"/></g><g><path clip-rule="evenodd" d="m229.236 313.787c3.358 3.354 6.278 6.942 8.761 10.763.964 1.488 1.869 3.004 2.716 4.521 4.702 8.576 7.359 17.939 8.031 27.419.993 13.972-2.395 28.206-10.104 40.457-2.628 4.171-5.782 8.138-9.403 11.755-8.673 8.663-19.157 14.468-30.224 17.414 20.179 5.338 42.343 1.167 59.368-12.543 1.898-1.517 3.679-3.15 5.432-4.871 3.008-3.004 5.665-6.242 8.001-9.626 14.747-21.527 15.536-49.733 2.336-71.989-2.803-4.755-6.249-9.217-10.338-13.301-5.315-5.309-11.301-9.538-17.667-12.689-1.781-.875-3.592-1.692-5.432-2.392-13.316-5.192-27.976-5.95-41.701-2.333 11.068 2.948 21.551 8.752 30.224 17.415z" fill="#00c0fa" fill-rule="evenodd"/></g><path d="m289.654 433.868-20.074-20.028c28.866-29.203 28.77-76.436-.309-105.514-29.208-29.143-76.734-29.143-105.943 0-.002.002-.004.004-.006.006-29.178 29.177-29.178 76.65.003 105.83 14.605 14.589 33.788 21.883 52.973 21.883 14.41 0 28.82-4.117 41.291-12.349l21.145 21.097c1.509 1.505 3.484 2.257 5.46 2.257 1.979 0 3.958-.755 5.467-2.265 3.016-3.016 3.013-7.904-.007-10.917zm-115.4-30.62c-23.159-23.159-23.162-60.838-.006-83.998 23.189-23.135 60.918-23.135 84.098-.006 23.161 23.16 23.161 60.844.003 84.001-23.186 23.159-60.912 23.159-84.095.003z" fill="#838383"/><g><path clip-rule="evenodd" d="m290.444 434.139-11.447 11.434c-4.351 4.346-4.351 11.493 0 15.839l45.38 45.329c4.351 4.346 11.476 4.346 15.857 0l11.418-11.434c4.38-4.375 4.38-11.493 0-15.839l-45.351-45.329c-4.381-4.346-11.506-4.346-15.857 0z" fill="#fe9737" fill-rule="evenodd"/></g><g><path clip-rule="evenodd" d="m290.444 434.139-10.162 10.151c4.117-1.808 9.14-1.05 12.499 2.304l45.38 45.329c4.351 4.346 4.351 11.463 0 15.839l-1.285 1.254c1.226-.525 2.365-1.313 3.358-2.275l11.418-11.434c4.38-4.375 4.38-11.493 0-15.839l-45.351-45.329c-4.381-4.346-11.506-4.346-15.857 0z" fill="#f36b37" fill-rule="evenodd"/></g></g><path clip-rule="evenodd" d="m413.706 369.267-22.456-48.683h-16.324l16.966 48.683c.204.467.35.496.058.904l-17.025 28.906h21.814l17.025-28.906c.292-.408.146-.437-.058-.904z" fill="#f36b37" fill-rule="evenodd"/></g></svg>