<svg id="Capa_1" enable-background="new 0 0 497 497" height="512" viewBox="0 0 497 497" width="512" xmlns="http://www.w3.org/2000/svg"><g><g><path clip-rule="evenodd" d="m7.5 170.232v310.51c0 3.287 2.689 6.008 6.002 6.008h340.372c3.312 0 6.002-2.721 6.002-6.008v-36.104l-305.806-402.526h-40.568c-3.312 0-6.002 2.692-6.002 6.008z" fill="#cecece" fill-rule="evenodd"/></g><g><path clip-rule="evenodd" d="m54.07 42.112v396.518c0 3.287 2.689 6.008 6.002 6.008h95.49 204.314 40.597c3.284 0 6.002-2.721 6.002-6.008 0-206.052 0-139.513 0-363.985l-.028-3.712c0-.567-.057-.964-.255-1.36h-48.552c-13.277 0-24.12-10.854-24.12-24.116l.057-45.144c-.483-.228-.936-.313-1.559-.313h-4.501-267.445c-3.312 0-6.002 2.692-6.002 6.008z" fill="#f9f7f7" fill-rule="evenodd"/></g><g><path clip-rule="evenodd" d="m267.301 0c46.032 47.496 76.013 124.918 76.013 212.372 0 18.959-1.416 37.436-4.077 55.233-.849 5.724-1.84 11.364-2.973 16.918-1.331 6.716-2.859 13.319-4.558 19.809-15.91 60.702-47.136 110.663-86.912 140.306h115.08 40.597c3.284 0 6.002-2.721 6.002-6.008v-67.248-89.013-207.724l-.028-3.712c0-.567-.057-.964-.255-1.36l-72.615-69.26c-.481-.228-.934-.313-1.557-.313h-4.501z" fill="#e2e2e2" fill-rule="evenodd"/></g><g><path clip-rule="evenodd" d="m333.575.312-.057 45.144c0 13.263 10.843 24.116 24.12 24.116h48.552c-.396-.793-1.331-1.502-3.142-3.259l-65.594-62.629c-2.039-1.955-2.973-2.919-3.879-3.372z" fill="#cecece" fill-rule="evenodd"/></g><g><path d="m356.62 236.904h-243.778c-4.142 0-7.5-3.358-7.5-7.5s3.358-7.5 7.5-7.5h243.778c4.142 0 7.5 3.358 7.5 7.5s-3.358 7.5-7.5 7.5z" fill="#595959"/></g><g><path d="m356.62 190.06h-243.778c-4.142 0-7.5-3.358-7.5-7.5s3.358-7.5 7.5-7.5h243.778c4.142 0 7.5 3.358 7.5 7.5s-3.358 7.5-7.5 7.5z" fill="#595959"/></g><g><path d="m136.762 132.786c-11.001 0-20.188-5.409-25.869-15.234-7.364-12.737-7.349-31.271.035-44.07 5.7-9.88 14.885-15.321 25.864-15.321h12.91c4.142 0 7.5 3.358 7.5 7.5s-3.358 7.5-7.5 7.5h-12.91c-5.548 0-9.879 2.63-12.872 7.817-4.718 8.178-4.736 20.945-.042 29.066 2.97 5.137 7.307 7.742 12.89 7.742h.016 15.634c4.142 0 7.5 3.358 7.5 7.5s-3.358 7.5-7.5 7.5h-15.627c-.008 0-.02 0-.029 0z" fill="#595959"/></g><g><path d="m196.052 132.802c-.029 0-.059 0-.088 0-3.715-.035-7.006-2.399-8.59-6.17-.062-.147-.119-.297-.171-.448l-20.128-58.066c-1.356-3.914.716-8.186 4.63-9.543 3.912-1.355 8.186.716 9.543 4.63l14.797 42.688 14.797-42.688c1.356-3.913 5.628-5.984 9.543-4.63 3.914 1.357 5.986 5.629 4.63 9.543l-20.128 58.066c-.068.196-.144.389-.228.579-1.676 3.787-4.889 6.039-8.607 6.039z" fill="#595959"/></g><g><path d="m348.951 283.776h-236.109c-4.142 0-7.5-3.358-7.5-7.5s3.358-7.5 7.5-7.5h236.109c4.142 0 7.5 3.358 7.5 7.5s-3.358 7.5-7.5 7.5z" fill="#595959"/></g><g><path d="m280.974 330.621h-168.132c-4.142 0-7.5-3.358-7.5-7.5s3.358-7.5 7.5-7.5h168.132c4.142 0 7.5 3.358 7.5 7.5s-3.358 7.5-7.5 7.5z" fill="#595959"/></g><g><path d="m209.832 377.465h-96.99c-4.142 0-7.5-3.358-7.5-7.5s3.358-7.5 7.5-7.5h96.99c4.142 0 7.5 3.358 7.5 7.5s-3.358 7.5-7.5 7.5z" fill="#595959"/></g><g><path clip-rule="evenodd" d="m29.327 151.84v310.481c0 3.316 2.718 6.008 6.002 6.008h262.802c-1.84-1.644-3.68-3.344-5.464-5.129-5.747-5.781-10.786-12.016-15.061-18.562h-32.811-89.233-95.49c-3.312 0-6.002-2.721-6.002-6.008v-396.518h-24.743z" fill="#b5adb6" fill-rule="evenodd"/></g><g><path clip-rule="evenodd" d="m292.667 299.967c45.041-45.059 118.025-45.059 163.066 0 45.013 45.087 45.013 118.145 0 163.232-45.041 45.059-118.025 45.059-163.066 0-45.013-45.087-45.013-118.144 0-163.232z" fill="#97da7b" fill-rule="evenodd"/></g><g><path clip-rule="evenodd" d="m417.147 299.967c45.013 45.087 45.013 118.145 0 163.232-14.693 14.708-32.387 24.627-51.1 29.728-3.68.992-7.389 1.814-11.126 2.465 16.505 2.777 33.491 1.955 49.712-2.465 18.713-5.101 36.407-15.02 51.1-29.728 20.751-20.772 31.934-47.524 33.576-74.701.255-4.619.255-9.238 0-13.829-1.642-27.177-12.824-53.929-33.576-74.701-16.363-16.38-36.407-26.809-57.469-31.286-14.268-3.032-28.99-3.316-43.343-.907 22.79 3.854 44.645 14.594 62.226 32.192z" fill="#68ca44" fill-rule="evenodd"/></g><g><path d="m356.563 421.106c-1.772 0-3.496-.628-4.857-1.785l-31.679-26.922c-3.156-2.682-3.541-7.416-.858-10.572 2.682-3.157 7.416-3.541 10.572-.858l25.921 22.028 54.856-65.535c2.659-3.176 7.389-3.595 10.565-.937 3.176 2.659 3.596 7.389.937 10.565l-59.706 71.329c-1.283 1.533-3.125 2.49-5.116 2.659-.212.02-.424.028-.635.028z" fill="#f9f7f7"/></g></g></svg>