<svg id="Capa_1" enable-background="new 0 0 512 512" height="512" viewBox="0 0 512 512" width="512" xmlns="http://www.w3.org/2000/svg"><g><g><path clip-rule="evenodd" d="m7.5 175.37v319.881c0 3.387 2.773 6.189 6.189 6.189h350.964c3.415 0 6.189-2.803 6.189-6.189v-37.193l-315.323-414.675h-41.83c-3.415 0-6.189 2.773-6.189 6.189z" fill="#cecece" fill-rule="evenodd"/></g><g><path clip-rule="evenodd" d="m55.519 43.383v408.486c0 3.387 2.773 6.189 6.189 6.189h98.461 210.672 41.86c3.386 0 6.189-2.803 6.189-6.189 0-212.271 0-143.723 0-374.971l-.029-3.824c0-.584-.058-.993-.263-1.401h-50.063c-13.691 0-24.871-11.181-24.871-24.844l.058-46.506c-.495-.235-.962-.323-1.605-.323h-4.641-275.768c-3.415 0-6.189 2.773-6.189 6.189z" fill="#f9f7f7" fill-rule="evenodd"/></g><g><path clip-rule="evenodd" d="m275.387 0c47.465 48.93 78.378 128.688 78.378 218.781 0 19.531-1.46 38.566-4.203 56.9-.876 5.897-1.897 11.707-3.065 17.429-1.372 6.919-2.948 13.721-4.7 20.407-16.405 62.534-48.603 114.003-89.617 144.541h118.662 41.86c3.386 0 6.189-2.803 6.189-6.189v-69.279-91.699-213.993l-.029-3.824c0-.584-.058-.993-.263-1.401l-74.876-71.352c-.496-.233-.963-.321-1.606-.321h-4.641z" fill="#e2e2e2" fill-rule="evenodd"/></g><g><path clip-rule="evenodd" d="m343.723.321-.058 46.506c0 13.663 11.18 24.844 24.871 24.844h50.063c-.409-.817-1.372-1.547-3.24-3.357l-67.637-64.519c-2.102-2.014-3.065-3.007-3.999-3.474z" fill="#cecece" fill-rule="evenodd"/></g><g><path clip-rule="evenodd" d="m30.006 156.423v319.852c0 3.416 2.802 6.189 6.189 6.189h270.981c-1.897-1.693-3.795-3.445-5.634-5.284-5.926-5.956-11.122-12.378-15.53-19.122h-33.832-92.01-98.462c-3.415 0-6.189-2.803-6.189-6.189v-408.486h-25.513z" fill="#b5adb6" fill-rule="evenodd"/></g><g><path d="m367.485 244.054h-251.365c-4.271 0-7.733-3.459-7.733-7.726s3.462-7.726 7.733-7.726h251.365c4.271 0 7.733 3.459 7.733 7.726s-3.462 7.726-7.733 7.726z" fill="#595959"/></g><g><path d="m367.485 195.796h-251.365c-4.271 0-7.733-3.459-7.733-7.726s3.462-7.726 7.733-7.726h251.365c4.271 0 7.733 3.459 7.733 7.726s-3.462 7.726-7.733 7.726z" fill="#595959"/></g><g><path d="m140.784 136.794c-11.343.001-20.816-5.572-26.674-15.694-7.593-13.121-7.578-32.215.036-45.4 5.878-10.178 15.348-15.783 26.669-15.783h13.311c4.271 0 7.733 3.459 7.733 7.726s-3.462 7.726-7.733 7.726h-13.311c-5.721 0-10.186 2.709-13.272 8.053-4.865 8.425-4.884 21.577-.043 29.943 3.063 5.292 7.535 7.976 13.291 7.976h.017 16.121c4.271 0 7.733 3.459 7.733 7.726s-3.462 7.726-7.733 7.726h-16.114c-.009.001-.021.001-.031.001z" fill="#595959"/></g><g><path d="m201.92 136.81c-.03 0-.06 0-.091-.001-3.83-.036-7.224-2.472-8.857-6.356-.064-.152-.123-.306-.177-.461l-20.755-59.819c-1.399-4.032.739-8.433 4.774-9.831 4.033-1.396 8.441.738 9.84 4.77l15.258 43.976 15.258-43.976c1.399-4.031 5.804-6.165 9.84-4.77 4.035 1.398 6.173 5.799 4.774 9.831l-20.755 59.819c-.07.202-.149.4-.235.596-1.728 3.902-5.041 6.222-8.874 6.222z" fill="#595959"/></g><g><path d="m360.608 292.341h-244.488c-4.271 0-7.733-3.459-7.733-7.726s3.462-7.726 7.733-7.726h244.488c4.271 0 7.733 3.459 7.733 7.726.001 4.267-3.461 7.726-7.733 7.726z" fill="#595959"/></g><g><path d="m291.313 340.599h-175.193c-4.271 0-7.733-3.459-7.733-7.726s3.462-7.726 7.733-7.726h175.193c4.272 0 7.733 3.459 7.733 7.726s-3.462 7.726-7.733 7.726z" fill="#595959"/></g><g><path d="m216.129 388.857h-100.009c-4.271 0-7.733-3.459-7.733-7.726s3.462-7.726 7.733-7.726h100.009c4.271 0 7.733 3.459 7.733 7.726s-3.462 7.726-7.733 7.726z" fill="#595959"/></g><g><path clip-rule="evenodd" d="m301.542 309.021c46.443-46.419 121.698-46.419 168.141 0 46.414 46.448 46.414 121.711 0 168.159-46.443 46.419-121.698 46.419-168.141 0-46.414-46.448-46.414-121.711 0-168.159z" fill="#fe636e" fill-rule="evenodd"/></g><g><path clip-rule="evenodd" d="m429.895 309.021c46.414 46.448 46.414 121.711 0 168.159-15.15 15.152-33.395 25.37-52.69 30.625-3.795 1.022-7.619 1.868-11.472 2.54 17.018 2.861 34.533 2.014 51.26-2.54 19.295-5.255 37.54-15.473 52.69-30.625 21.397-21.399 32.928-48.959 34.621-76.956.263-4.759.263-9.517 0-14.247-1.693-27.997-13.224-55.557-34.621-76.956-16.872-16.874-37.54-27.618-59.258-32.23-14.712-3.124-29.892-3.416-44.692-.934 23.499 3.97 46.034 15.034 64.162 33.164z" fill="#fb2a39" fill-rule="evenodd"/></g><path d="m396.256 393.1 32.281-34.103c2.934-3.1 2.798-7.99-.305-10.923-3.104-2.932-7.999-2.796-10.932.305l-31.688 33.476-31.688-33.476c-2.936-3.102-7.831-3.237-10.932-.305-3.103 2.932-3.239 7.822-.305 10.923l32.281 34.103-32.281 34.103c-2.934 3.1-2.798 7.99.305 10.923 1.495 1.412 3.405 2.113 5.313 2.113 2.051 0 4.099-.811 5.62-2.417l31.688-33.476 31.688 33.476c1.522 1.607 3.569 2.417 5.62 2.417 1.907 0 3.818-.7 5.313-2.113 3.103-2.932 3.239-7.822.305-10.923z" fill="#f9f7f7"/></g></svg>