<svg id="Capa_1" enable-background="new 0 0 512 512" height="512" viewBox="0 0 512 512" width="512" xmlns="http://www.w3.org/2000/svg"><g><g><path clip-rule="evenodd" d="m5.315 137.599h501.37c2.92 0 5.315 2.391 5.315 5.308v335.286c0 2.916-2.395 5.308-5.315 5.308h-501.37c-2.92 0-5.315-2.391-5.315-5.308v-335.287c0-2.916 2.395-5.307 5.315-5.307z" fill="#fe636e" fill-rule="evenodd"/></g><g><path clip-rule="evenodd" d="m36.911 169.357h438.177c2.803 0 5.081 2.304 5.081 5.104v272.178c0 2.8-2.278 5.074-5.081 5.074h-438.177c-2.803 0-5.11-2.275-5.11-5.074v-272.179c0-2.799 2.307-5.103 5.11-5.103z" fill="#f9f7f7" fill-rule="evenodd"/></g><g><path clip-rule="evenodd" d="m435.783 169.357h39.306c2.803 0 5.081 2.304 5.081 5.104v272.178c0 2.8-2.278 5.074-5.081 5.074h-121.247c-4.818 11.228-10.104 21.843-15.857 31.788h168.7c2.92 0 5.315-2.391 5.315-5.308v-335.287c0-2.916-2.395-5.308-5.315-5.308h-70.815c.876 2.158 1.343 4.52 1.343 6.97v17.614c0 2.538-.496 4.959-1.43 7.175z" fill="#fb2a39" fill-rule="evenodd"/></g><g><path clip-rule="evenodd" d="m367.479 169.357c9.666 32.342 15.623 68.095 16.966 105.861.204 5.453.292 10.936.292 16.448 0 11.14-.38 22.105-1.168 32.925-1.372 19.073-3.942 37.562-7.563 55.293-5.256 25.78-12.79 49.956-22.164 71.828h121.247c2.803 0 5.081-2.275 5.081-5.074v-272.178c0-2.8-2.278-5.104-5.081-5.104h-39.306c-2.833 6.824-9.578 11.636-17.404 11.636-2.249 0-4.41-.408-6.395-1.108-4.964-1.808-8.994-5.658-11.009-10.528h-33.496z" fill="#e2e2e2" fill-rule="evenodd"/></g><g><path clip-rule="evenodd" d="m249.882 28.5c-6.366 0-12.761 1.429-24.442 4.316l-142.097 33.158c-7.826 1.837-10.951 7.174-10.6 12.453-.35 5.278 2.774 10.615 10.6 12.423l142.097 33.158c11.681 2.887 18.076 4.345 24.442 4.345 6.395 0 12.791-1.458 24.471-4.345l142.098-33.158c7.826-1.808 10.951-7.145 10.571-12.423.38-5.278-2.745-10.615-10.571-12.453l-142.098-33.158c-11.68-2.887-18.076-4.316-24.471-4.316z" fill="#fff" fill-rule="evenodd"/></g><g><path clip-rule="evenodd" d="m300.431 38.911c20.529 13.065 33.203 31.029 33.203 50.802 0 1.896-.117 3.762-.321 5.628-.701 5.541-2.365 10.936-4.935 16.069l88.073-20.56c.672-.146 1.314-.321 1.927-.554 6.424-2.187 8.994-7.057 8.644-11.869.38-5.278-2.745-10.615-10.571-12.453z" fill="#fff" fill-rule="evenodd"/></g><g><path d="m418.378 143.307c-4.268 0-7.726-3.457-7.726-7.721v-45.29c0-4.264 3.459-7.721 7.726-7.721s7.726 3.457 7.726 7.721v45.29c.001 4.264-3.458 7.721-7.726 7.721z" fill="#838383"/></g><g><path clip-rule="evenodd" d="m134.68 102.836v48.877 4.637c0 13.153 10.484 24.03 23.537 24.614.38.029.759.029 1.139.029h180.761c.409 0 .818 0 1.226-.029 1.84-.088 3.621-.379 5.344-.846 10.396-2.887 18.105-12.482 18.105-23.768v-53.456l-36.415 8.516-54.024 12.598c-11.681 2.887-18.076 4.345-24.471 4.345-6.366 0-12.761-1.458-24.442-4.345z" fill="#838383" fill-rule="evenodd"/></g><g><path clip-rule="evenodd" d="m225.44 32.816-142.097 33.158c-7.826 1.837-10.951 7.174-10.6 12.453-.35 5.278 2.774 10.615 10.6 12.423l51.337 11.986 90.76 21.172c11.681 2.887 18.076 4.345 24.442 4.345 6.395 0 12.791-1.458 24.471-4.345l54.024-12.598 36.415-8.516 51.658-12.044c.672-.146 1.314-.321 1.927-.554 6.424-2.187 8.994-7.057 8.644-11.869.38-5.278-2.745-10.615-10.571-12.453l-116.02-27.063-26.077-6.095c-11.681-2.887-18.076-4.316-24.471-4.316-6.366 0-12.761 1.429-24.442 4.316z" fill="#cecece" fill-rule="evenodd"/></g><g><path clip-rule="evenodd" d="m320.756 113.189v47.331c0 8.516-4.351 16.04-10.951 20.472h30.312c.409 0 .818 0 1.226-.029 1.84-.088 3.621-.379 5.344-.846 10.396-2.887 18.105-12.482 18.105-23.768v-53.456l-36.415 8.516z" fill="#595959" fill-rule="evenodd"/></g><g><path clip-rule="evenodd" d="m399.543 144.568v17.614c0 2.537.496 4.958 1.431 7.174 2.833 6.824 9.578 11.636 17.404 11.636s14.572-4.812 17.404-11.636c.934-2.216 1.431-4.637 1.431-7.174v-17.614c0-2.45-.467-4.812-1.343-6.97-2.803-6.941-9.607-11.84-17.492-11.84-7.914 0-14.718 4.899-17.492 11.84-.876 2.159-1.343 4.521-1.343 6.97z" fill="#cecece" fill-rule="evenodd"/></g><g><path clip-rule="evenodd" d="m320.756 113.189 7.622-1.779 36.415-8.516 51.658-12.044c.672-.146 1.314-.321 1.927-.554 6.424-2.187 8.994-7.057 8.644-11.869.38-5.278-2.745-10.615-10.571-12.453l-94.673-22.076c11.681 9.595 18.573 21.435 18.573 34.237 0 8.37-2.949 16.331-8.264 23.535-3.038 4.112-6.863 7.961-11.331 11.519z" fill="#b5adb6" fill-rule="evenodd"/></g><g><path clip-rule="evenodd" d="m416.976 137.599c.496.817.934 1.691 1.285 2.595.876 2.158 1.343 4.491 1.343 6.97v17.614c0 1.575-.175 3.12-.555 4.579-.234.904-.526 1.75-.876 2.595-1.314 3.179-3.475 5.891-6.191 7.932 1.986.7 4.147 1.108 6.395 1.108 7.826 0 14.572-4.812 17.404-11.636.934-2.216 1.431-4.637 1.431-7.174v-17.614c0-2.45-.467-4.812-1.343-6.97-2.803-6.941-9.607-11.84-17.492-11.84-4.205 0-8.06 1.371-11.214 3.704 4.148 1.487 7.594 4.404 9.813 8.137z" fill="#b5adb6" fill-rule="evenodd"/></g><g><path clip-rule="evenodd" d="m364.529 159.996c1.022 3.091 1.986 6.212 2.949 9.361h33.495c-.934-2.216-1.431-4.637-1.431-7.174v-17.614c0-2.45.467-4.812 1.343-6.97h-36.094v18.752c.001 1.224-.086 2.449-.262 3.645z" fill="#f36b37" fill-rule="evenodd"/></g><g><path d="m415.166 332.312h-330.334c-4.268 0-7.726-3.457-7.726-7.721s3.459-7.721 7.726-7.721h330.334c4.268 0 7.726 3.457 7.726 7.721s-3.458 7.721-7.726 7.721z" fill="#595959"/></g><g><path d="m415.166 282.939h-330.334c-4.268 0-7.726-3.457-7.726-7.721s3.459-7.721 7.726-7.721h330.334c4.268 0 7.726 3.457 7.726 7.721s-3.458 7.721-7.726 7.721z" fill="#595959"/></g><g><path d="m352.719 412.671c-7.282 0-13.206-4.868-18.072-9.69-2.222-2.208-3.281-2.394-3.291-2.395-.764.136-2.972 2.059-4.291 3.207-5.365 4.672-16.53 14.395-32.388-.172-3.142-2.886-3.348-7.77-.46-10.909 2.887-3.14 7.776-3.345 10.916-.46 2.716 2.496 5.131 3.842 6.418 3.607 1.391-.251 3.501-2.088 5.363-3.708 4.973-4.329 15.321-13.34 28.621-.127 5.107 5.061 6.929 5.221 7.24 5.204.398-.024 1.629-.676 3.442-2.969 2.462-3.115 4.224-6.242 5.928-9.266 3.257-5.78 6.624-11.756 13.777-13.129 9.182-1.749 13.036 6.083 14.885 9.846 2.408 4.901 4.149 8.441 12.18 8.865 4.262.225 7.533 3.859 7.308 8.117-.224 4.258-3.882 7.516-8.123 7.303-16.196-.855-21.803-10.587-24.769-16.533-.611 1.006-1.246 2.136-1.793 3.105-1.808 3.208-4.057 7.2-7.267 11.261-4.365 5.523-9.289 8.488-14.633 8.811-.332.022-.664.032-.991.032z" fill="#595959"/></g><g><path d="m323.354 236.978h-149.952c-4.268 0-7.726-3.457-7.726-7.721s3.459-7.721 7.726-7.721h149.952c4.268 0 7.726 3.457 7.726 7.721s-3.458 7.721-7.726 7.721z" fill="#595959"/></g></g></svg>