<svg id="Capa_1" enable-background="new 0 0 512 512" height="512" viewBox="0 0 512 512" width="512" xmlns="http://www.w3.org/2000/svg"><g><path d="m429.341 358.729h-165.624v-46.498c0-4.271-3.461-7.733-7.732-7.733-4.27 0-7.732 3.462-7.732 7.733v46.498h-165.623c-8.061 0-14.619 6.575-14.619 14.658v65.041c0 4.271 3.461 7.733 7.732 7.733s7.732-3.462 7.732-7.733v-64.233h164.78v64.233c0 4.271 3.461 7.733 7.732 7.733s7.732-3.462 7.732-7.733v-64.233h164.808v64.233c0 4.271 3.461 7.733 7.732 7.733s7.732-3.462 7.732-7.733v-65.041c-.003-8.083-6.573-14.658-14.65-14.658z" fill="#838383"/><g><path clip-rule="evenodd" d="m376.458 306.271v-55.399c0-29.452-19.057-35.501-43.368-50.11h-154.21c-24.281 14.609-43.339 20.658-43.339 50.11v55.399c0 6.808 3.123 5.961 8.318 5.961h16.051 76.842 19.232 19.174 76.93 16.051c5.197-.001 8.319.847 8.319-5.961zm-134.89-63.171" fill="#7bacdf" fill-rule="evenodd"/></g><g><path clip-rule="evenodd" d="m290.102 285.964-19.758-42.864-14.359-8.123-14.417 8.123-19.758 42.864c-.175.409-.292.438-.029.789l14.972 25.479h19.232 19.174l14.972-25.479c.263-.351.146-.38-.029-.789z" fill="#fe9737" fill-rule="evenodd"/></g><g><path clip-rule="evenodd" d="m270.344 243.1 6.129-24.106 3.152-11.921-23.64-9.817-11.119 5.201-12.286 5.727 2.86 10.869 6.128 24.047h14.388z" fill="#fe7600" fill-rule="evenodd"/></g><g><path clip-rule="evenodd" d="m235.44 219.053 20.546-21.797-14.125-13.674-27.696-4.003-35.284 21.184 36.772 23.813c6.829 4.003 8.376 7.714 13.512 1.14z" fill="#0078c8" fill-rule="evenodd"/></g><g><path clip-rule="evenodd" d="m296.318 224.575 36.772-23.813-35.255-21.184-21.363 1.402-20.487 16.275 20.487 21.739 6.362 6.72c5.108 6.575 6.655 2.864 13.484-1.139z" fill="#0078c8" fill-rule="evenodd"/></g><g><path clip-rule="evenodd" d="m297.836 179.578c14.855-12.389 26.032-29.511 29.71-45.64.846-3.711 1.284-7.392 1.284-10.928v-43.068-5.318h-13.366c-28.396 0-34.292-35.004-68.963-35.004h-16.869c-26.558 0-6.362 40.322-36.889 40.322h-9.602v43.068c0 3.535.438 7.217 1.313 10.928 3.648 16.129 14.826 33.251 29.71 45.64 7.15 5.961 15.147 10.84 23.581 13.967 6.625 2.484 12.433 3.711 18.24 3.711s11.615-1.227 18.24-3.711c8.464-3.126 16.461-8.006 23.611-13.967z" fill="#ffe5c1" fill-rule="evenodd"/></g><g><path clip-rule="evenodd" d="m328.829 60.6c0-34.098-34.934-57.298-67.27-60.6h-15.351c-12.433 1.373-23.435 6.311-30.439 15.398-35.196 3.126-32.628 50.022-32.628 56.188v11.95 17.035h9.602c30.527 0 10.331-40.322 36.889-40.322h16.869c34.671 0 40.566 34.975 68.963 34.975h13.366v-10.607-24.017z" fill="#838383" fill-rule="evenodd"/></g><g><path clip-rule="evenodd" d="m328.829 74.625v-14.025c0-34.098-34.934-57.298-67.27-60.6h-15.293c31.548 4.295 64.497 27.144 64.497 60.249v14.025 5.347 4.675 10.606c1.488.205 3.064.321 4.699.321h13.366v-10.606-4.675-5.317z" fill="#595959" fill-rule="evenodd"/></g><g><path clip-rule="evenodd" d="m328.829 123.011v-22.44-5.347h-13.366c-1.634 0-3.21-.117-4.699-.321v27.729c0 3.535-.438 7.217-1.284 10.928-3.677 16.129-14.855 33.222-29.71 45.64-.7.584-1.43 1.14-2.16 1.724-2.685 2.104-5.516 4.091-8.405 5.844-4.173 2.571-8.551 4.733-13.045 6.399-1.08.409-2.16.789-3.239 1.14-2.364.76-4.64 1.373-6.887 1.782 3.415.789 6.683 1.169 9.952 1.169 5.808 0 11.615-1.227 18.24-3.711 8.463-3.126 16.46-8.006 23.61-13.967 14.855-12.389 26.032-29.511 29.71-45.64.846-3.712 1.283-7.394 1.283-10.929z" fill="#fed1a3" fill-rule="evenodd"/></g><g><path clip-rule="evenodd" d="m310.764 94.902c-24.456-3.565-31.607-34.653-64.264-34.653h-16.869c-9.806 0-13.25 5.493-15.205 12.447h19.32c32.657 0 39.807 31.06 64.264 34.653h12.754z" fill="#fed1a3" fill-rule="evenodd"/></g><g><path clip-rule="evenodd" d="m239.321 214.933 16.664-17.677c-3.269 0-6.537-.38-9.952-1.169-2.656-.614-5.399-1.461-8.288-2.542-8.434-3.126-16.431-8.006-23.581-13.967l-16.956 10.168c2.014 1.899 4.086 3.769 6.187 5.522 8.989 7.48 19.057 13.616 29.68 17.59.263.088.525.205.817.292 1.839.673 3.649 1.286 5.429 1.783z" fill="#0067b4" fill-rule="evenodd"/></g><g><path clip-rule="evenodd" d="m278.924 212.859c10.594-3.974 20.663-10.11 29.651-17.59 2.13-1.753 4.203-3.623 6.187-5.522l-16.927-10.168c-7.15 5.961-15.147 10.84-23.61 13.967-6.625 2.484-12.433 3.711-18.24 3.711l16.693 17.677c1.722-.497 3.502-1.081 5.341-1.753.292-.118.613-.235.905-.322z" fill="#0067b4" fill-rule="evenodd"/></g><g><path clip-rule="evenodd" d="m272.679 214.933-16.693-17.677-8.843 9.379 9.456 12.535 2.918 3.682c.905 1.11.671 1.286.321 2.688l-2.831 11.045-1.021 6.516h14.359l6.129-24.105z" fill="#e6581f" fill-rule="evenodd"/></g><g><path clip-rule="evenodd" d="m290.102 285.964-19.758-42.864h-14.359l14.942 42.864c.146.409.292.438.029.789l-14.972 25.479h19.174l14.972-25.479c.264-.351.147-.38-.028-.789z" fill="#f36b37" fill-rule="evenodd"/></g><g><path clip-rule="evenodd" d="m376.458 250.872c0-29.452-19.057-35.501-43.368-50.11l-22.647 14.668c21.013 12.038 36.626 19.518 36.626 46.166v50.636h5.02 16.051c5.195 0 8.318.847 8.318-5.961z" fill="#3987d0" fill-rule="evenodd"/></g><g><path clip-rule="evenodd" d="m39 443.54v63.346c0 2.834 2.306 5.113 5.107 5.113h63.272c2.831 0 5.107-2.279 5.107-5.113v-63.346c0-2.805-2.276-5.113-5.107-5.113h-31.636-31.636c-2.801 0-5.107 2.309-5.107 5.113z" fill="#fe9737" fill-rule="evenodd"/></g><g><path clip-rule="evenodd" d="m224.35 512h63.272c2.831 0 5.136-2.279 5.136-5.113v-63.347c0-2.805-2.306-5.113-5.136-5.113h-31.636-31.636c-2.802 0-5.107 2.308-5.107 5.113v63.346c-.001 2.835 2.305 5.114 5.107 5.114z" fill="#97da7b" fill-rule="evenodd"/></g><g><path clip-rule="evenodd" d="m399.485 443.54v63.346c0 2.834 2.306 5.113 5.107 5.113h63.301c2.802 0 5.107-2.279 5.107-5.113v-63.346c0-2.805-2.306-5.113-5.107-5.113h-31.636-31.665c-2.802 0-5.107 2.309-5.107 5.113z" fill="#fe9737" fill-rule="evenodd"/></g><g><path clip-rule="evenodd" d="m86.249 443.54v63.346c0 2.834-2.306 5.113-5.107 5.113h26.237c2.831 0 5.107-2.279 5.107-5.113v-63.346c0-2.805-2.276-5.113-5.107-5.113h-26.237c2.802 0 5.107 2.309 5.107 5.113z" fill="#f36b37" fill-rule="evenodd"/></g><g><path clip-rule="evenodd" d="m266.492 443.54v63.346c0 2.834-2.276 5.113-5.107 5.113h26.237c2.831 0 5.136-2.279 5.136-5.113v-63.346c0-2.805-2.306-5.113-5.136-5.113h-26.237c2.83 0 5.107 2.309 5.107 5.113z" fill="#68ca44" fill-rule="evenodd"/></g><g><path clip-rule="evenodd" d="m446.763 443.54v63.346c0 2.834-2.306 5.113-5.107 5.113h26.237c2.802 0 5.107-2.279 5.107-5.113v-63.346c0-2.805-2.306-5.113-5.107-5.113h-26.237c2.802 0 5.107 2.309 5.107 5.113z" fill="#f36b37" fill-rule="evenodd"/></g></g></svg>