<svg id="Capa_1" enable-background="new 0 0 523 523" height="512" viewBox="0 0 523 523" width="512" xmlns="http://www.w3.org/2000/svg"><g><g><path clip-rule="evenodd" d="m113.467 148.179c0 53.929-9.754 115.226-42.15 149.797-8.531 9.127 5.519 43.311 42.15 34.153h296.064c36.631 9.157 50.681-25.026 42.15-34.153-32.395-34.571-42.627-95.868-42.12-149.797 1.521-163.578-195.357-181.296-235.628-103.892-1.521 2.953-4.266 2.864-7.159 3.311-28.906 4.623-53.307 45.846-53.307 100.581z" fill="#838383" fill-rule="evenodd"/></g><g><path clip-rule="evenodd" d="m239.383 522.997h-188.713c-4.918-.263-7.93-1.905-7.003-9.956l10.647-92.497c4.592-40.118 28.066-70.133 59.155-88.413 15.776-9.303 33.501-15.576 51.72-18.617.927-.147 19.273-2.747 34.427-3.105h.032c1.19-.021 2.327-.053 3.454-.053 49.161 46.117 66.886 128.827 36.281 212.641z" fill="#f9f7f7" fill-rule="evenodd"/></g><g><path clip-rule="evenodd" d="m191.145 435.633-10.709 29.082c-5.131 13.9-5.548 10.41 3.58 17.3l55.364 40.985h19.24c2.625-75.972-12.678-147.62-55.514-212.645l-33.768 55.391c-8.561 14.049-7.905 13.93.716 25.145l18.882 24.519c7.757 10.082 7.34 6.264 2.209 20.223z" fill="#cecece" fill-rule="evenodd"/></g><g><path clip-rule="evenodd" d="m472.328 522.997h-188.713c-29.435-67.944-4.887-150.485 36.281-212.64 15.66 0 36.892 3.01 37.913 3.157 18.219 3.041 35.944 9.314 51.72 18.617 31.089 18.28 54.563 48.295 59.155 88.413l10.647 92.497c.927 8.051-2.085 9.693-7.003 9.956z" fill="#f9f7f7" fill-rule="evenodd"/></g><g><path clip-rule="evenodd" d="m271.895 394.739-7.517 128.261h19.24l55.365-40.984c9.128-6.89 8.71-3.4 3.58-17.3l-10.709-29.082c-5.131-13.96-5.548-10.142 2.207-20.224l18.882-24.519c8.651-11.215 9.277-11.096.716-25.145l-33.768-55.391z" fill="#cecece" fill-rule="evenodd"/></g><g><path clip-rule="evenodd" d="m226.255 399.034 32.366 123.966h1.163 3.43 1.163l32.366-123.966c-14.706-16.137-49.368-20.85-70.488 0z" fill="#fe636e" fill-rule="evenodd"/></g><g><path clip-rule="evenodd" d="m203.107 310.355 23.148 88.679c16.884 9.664 52.024 10.887 70.489 0l23.148-88.679c-9.009-28.128-78.871-50.201-116.785 0z" fill="#fed1a3" fill-rule="evenodd"/></g><g><path clip-rule="evenodd" d="m153.201 209.983c0 31.469 20.672 73.765 49.906 100.372 9.635 8.799 20.195 15.869 31.262 20.283 9.874 3.937 18.495 5.906 27.145 5.906 8.621 0 17.242-1.969 27.116-5.906 11.067-4.415 21.627-11.484 31.262-20.283 29.234-26.607 49.906-68.903 49.906-100.372v-47.695c0-14.347 1.611-21.954-9.486-19.687-21.865 4.415-71.712 3.609-91.22-19.12-4.445-4.802-9.993-4.713-14.259.089-19.33 22.371-69.057 23.117-91.31 19.03-12.38-1.074-10.351 14.437-10.321 19.537v47.846z" fill="#ffe5c1" fill-rule="evenodd"/></g><g><path clip-rule="evenodd" d="m465.642 523h.597c-.21 0-.389 0-.597 0zm-145.75-212.645 18.853 30.932c16.138-3.55 41.076 10.559 55.603 19.12 31.053 18.285 42.09 40.029 46.714 80.148l9.486 82.445h15.094.597 6.085c4.922-.268 7.935-1.909 7.01-9.963l-10.649-92.497c-4.594-40.119-28.07-70.126-59.153-88.411-15.78-9.306-33.499-15.57-51.725-18.613-1.015-.149-22.254-3.161-37.915-3.161z" fill="#e2e2e2" fill-rule="evenodd"/></g><g><path clip-rule="evenodd" d="m163.522 174.308c22.253 4.116 71.98 3.371 91.31-19.001 4.266-4.802 9.814-4.892 14.259-.089 19.509 22.729 69.355 23.534 91.22 19.09 7.308-1.462 9.098 1.312 9.486 7.487v-19.508c0-14.347 1.611-21.954-9.486-19.687-21.865 4.415-71.712 3.609-91.22-19.12-4.445-4.802-9.993-4.713-14.259.089-19.33 22.371-69.057 23.117-91.31 19.03-12.38-1.074-10.351 14.437-10.321 19.537v22.699c.537-5.575 2.715-11.153 10.321-10.527z" fill="#fed1a3" fill-rule="evenodd"/></g><g><path clip-rule="evenodd" d="m335.91 211.146c0 24.549-12.559 55.659-31.948 80.805-5.489 7.099-11.514 13.721-17.958 19.597-9.635 8.77-20.195 15.839-31.262 20.283-.268.089-.507.179-.776.298-2.506.984-4.922 1.82-7.279 2.535 5.071 1.253 9.933 1.879 14.826 1.879 7.458 0 14.945-1.462 23.208-4.415 1.283-.477 2.565-.954 3.908-1.491 11.067-4.415 21.627-11.484 31.262-20.283 29.234-26.607 49.906-68.903 49.906-100.372v-28.188c-.388-6.174-2.178-8.948-9.486-7.487-6.294 1.283-14.885 2.118-24.401 2.148z" fill="#fed1a3" fill-rule="evenodd"/></g><g><path clip-rule="evenodd" d="m203.107 310.385c0-.03 0-.03 0-.03zm69.116 95.838c1.73-.179 3.401-.418 5.071-.686 7.308-1.193 14.08-3.341 19.449-6.503l7.875-30.186 9.605-36.719 5.668-21.775c-9.635 8.799-20.195 15.869-31.262 20.283-1.342.537-2.625 1.014-3.908 1.491-8.263 2.953-15.75 4.415-23.208 4.415-4.892 0-9.754-.626-14.826-1.879-2.744-.656-5.519-1.521-8.412-2.535-1.283-.477-2.565-.954-3.908-1.491-11.067-4.415-21.627-11.484-31.262-20.253l5.668 21.745 9.695 37.136c5.34.954 10.828 1.76 16.407 2.386 2.715.268 5.429.537 8.173.716 5.727.418 11.544.626 17.451.626 20.851 0 20.881-1.82 15.899 17.211z" fill="#ffbc85" fill-rule="evenodd"/></g><g><path clip-rule="evenodd" d="m270.911 411.234-14.02 53.721-6.712 25.712 8.442 32.333h5.757l8.979-34.332 23.387-89.634c-5.369 3.162-12.141 5.309-19.449 6.503-1.671.268-3.341.507-5.071.686z" fill="#fb2a39" fill-rule="evenodd"/></g><g><path clip-rule="evenodd" d="m191.175 23.288c66.074-11.543 154.788 23.624 167.765 119.551.477-.06.925-.149 1.372-.239 11.097-2.267 9.486 5.339 9.486 19.687v19.508 28.188c0 8.083-1.372 16.853-3.878 25.921 3.49 18.971 7.398 59.985 43.612 96.226 36.631 9.157 50.681-25.026 42.15-34.153-32.395-34.571-42.627-95.868-42.12-149.797 1.371-146.577-156.579-176.047-218.387-124.892z" fill="#595959" fill-rule="evenodd"/></g><g><path d="m400.893 522.997h-16.145c0-.768.105-1.547.348-2.315 7.972-25.879 7.972-51.852.011-77.226-1.306-4.157 1.011-8.588 5.182-9.893 4.16-1.305 8.594 1.01 9.899 5.167 8.688 27.721 8.92 56.052.705 84.267z" fill="#e2e2e2"/></g><g><path d="m134.469 520.671c.242.779.348 1.558.348 2.326h-16.134c-8.257-28.226-8.025-56.557.706-84.277 1.306-4.157 5.74-6.462 9.9-5.157s6.477 5.736 5.171 9.893c-7.995 25.373-7.984 51.347.009 77.215z" fill="#e2e2e2"/></g><g><path d="m202.035 214.565c-2.092 0-4.179-.825-5.732-2.461-3.002-3.163-2.87-8.159.295-11.159 11.008-10.434 28.918-10.435 39.926 0 3.165 3 3.297 7.996.295 11.159-3.002 3.161-8.001 3.295-11.167.294-5.013-4.752-13.17-4.752-18.183 0-1.528 1.448-3.483 2.167-5.434 2.167z" fill="#838383"/></g><g><path d="m326.334 214.565c-1.952 0-3.907-.718-5.434-2.166-5.014-4.75-13.168-4.753-18.184 0-3.163 2.999-8.164 2.869-11.166-.294s-2.87-8.159.295-11.159c11.008-10.434 28.918-10.434 39.926 0 3.166 2.999 3.297 7.995.295 11.158-1.553 1.636-3.641 2.461-5.732 2.461z" fill="#838383"/></g><g><path d="m261.5 298.188c-9.294.001-17.939-4.235-24.344-11.927-2.79-3.351-2.333-8.328 1.02-11.116 3.353-2.787 8.334-2.332 11.124 1.02 3.349 4.023 7.681 6.238 12.199 6.237 4.518 0 8.85-2.215 12.199-6.237 2.79-3.353 7.771-3.807 11.124-1.02 3.353 2.788 3.81 7.765 1.02 11.116-6.403 7.691-15.049 11.927-24.342 11.927z" fill="#fe636e"/></g></g></svg>