<svg id="Capa_1" enable-background="new 0 0 512 512" height="512" viewBox="0 0 512 512" width="512" xmlns="http://www.w3.org/2000/svg"><g><g><path clip-rule="evenodd" d="m512 474.056v-45.354c0-24.121-15.652-29.079-35.597-41.037h-126.533c-19.945 11.958-35.597 16.916-35.597 41.037v45.354c0 5.571 2.57 4.871 6.833 4.871h13.17 63.047 15.798 15.74 63.135 13.17c4.264-.001 6.834.699 6.834-4.871z" fill="#f9f7f7" fill-rule="evenodd"/></g><g><path clip-rule="evenodd" d="m441.127 457.431-16.207-35.087-11.798-6.65-11.827 6.65-16.207 35.087c-.146.35-.263.35-.029.642l12.265 20.854h15.798 15.74l12.294-20.854c.204-.292.087-.292-.029-.642z" fill="#7bacdf" fill-rule="evenodd"/></g><g><path clip-rule="evenodd" d="m424.919 422.344 5.023-19.746 2.57-9.771-19.39-8.02-9.111 4.258-10.104 4.696 2.365 8.895 5.023 19.688h11.798z" fill="#3987d0" fill-rule="evenodd"/></g><g><path clip-rule="evenodd" d="m396.272 402.656 16.85-17.85-11.593-11.2-22.719-3.267-28.939 17.325 30.166 19.512c5.607 3.267 6.892 6.3 11.068.933z" fill="#cecece" fill-rule="evenodd"/></g><g><path clip-rule="evenodd" d="m446.237 407.177 30.166-19.512-28.939-17.325-17.521 1.167-16.82 13.3 16.82 17.791 5.198 5.512c4.204 5.367 5.489 2.334 11.096-.933z" fill="#cecece" fill-rule="evenodd"/></g><g><path clip-rule="evenodd" d="m447.463 370.34c12.206-10.15 21.376-24.15 24.384-37.362.701-3.033 1.08-6.037 1.08-8.954v-35.233-4.375h-11.009c-23.274 0-28.122-28.641-56.594-28.641h-13.842c-21.785 0-5.198 33.016-30.253 33.016h-7.885v35.233c0 2.917.38 5.921 1.08 8.954 3.008 13.212 12.177 27.212 24.384 37.362 5.87 4.871 12.44 8.867 19.361 11.433 5.432 2.042 10.192 3.033 14.951 3.033 4.789 0 9.549-.992 14.981-3.033 6.922-2.566 13.493-6.562 19.362-11.433z" fill="#ffe5c1" fill-rule="evenodd"/></g><g><path clip-rule="evenodd" d="m472.928 272.924c0-27.912-28.676-46.9-55.221-49.612h-12.587c-10.221 1.137-19.244 5.162-24.997 12.629-28.881 2.537-26.778 40.95-26.778 45.995v9.771 13.942h7.885c25.055 0 8.469-33.016 30.253-33.016h13.842c28.472 0 33.32 28.641 56.594 28.641h11.009v-8.662z" fill="#838383" fill-rule="evenodd"/></g><g><path clip-rule="evenodd" d="m472.928 284.416v-11.492c0-27.912-28.676-46.9-55.221-49.612h-12.557c25.873 3.529 52.943 22.225 52.943 49.35v11.462 4.375 3.821 8.692c1.226.175 2.482.262 3.825.262h11.009v-8.662-3.821-4.375z" fill="#595959" fill-rule="evenodd"/></g><g><path clip-rule="evenodd" d="m472.928 324.024v-18.375-4.375h-11.009c-1.343 0-2.599-.088-3.825-.262-20.091-2.917-25.931-28.379-52.768-28.379h-13.842c-8.031 0-10.863 4.521-12.469 10.208h15.857c26.808 0 32.677 28.32 52.739 31.237l8.761.175c1.752 0 1.723.642 1.723 2.275v7.175c0 2.917-.38 5.921-1.08 8.954-3.008 13.212-12.177 27.212-24.384 37.362-.555.467-1.168.962-1.752 1.429-2.219 1.721-4.526 3.325-6.892 4.783-3.446 2.1-7.038 3.85-10.717 5.221-.905.35-1.781.671-2.657.933-1.957.642-3.825 1.137-5.636 1.458 2.803.642 5.461.963 8.147.963 4.789 0 9.549-.992 14.981-3.033 6.921-2.567 13.491-6.562 19.361-11.433 12.206-10.15 21.376-24.15 24.384-37.362.698-3.033 1.078-6.038 1.078-8.954z" fill="#fed1a3" fill-rule="evenodd"/></g><g><path clip-rule="evenodd" d="m399.455 399.302 13.667-14.496c-2.687 0-5.344-.321-8.147-.963-2.19-.496-4.439-1.167-6.804-2.071-6.921-2.567-13.491-6.562-19.361-11.433l-13.9 8.312c1.635 1.575 3.329 3.092 5.081 4.521 7.359 6.154 15.623 11.171 24.325 14.408.234.087.438.146.672.233 1.518.556 3.007 1.052 4.467 1.489z" fill="#b5adb6" fill-rule="evenodd"/></g><g><path clip-rule="evenodd" d="m431.957 397.581c8.702-3.237 16.966-8.254 24.325-14.408 1.752-1.429 3.446-2.946 5.081-4.521l-13.9-8.312c-5.87 4.871-12.44 8.867-19.361 11.433-5.432 2.042-10.192 3.033-14.981 3.033l13.696 14.496c1.431-.438 2.891-.904 4.38-1.458.264-.088.497-.175.76-.263z" fill="#b5adb6" fill-rule="evenodd"/></g><g><path clip-rule="evenodd" d="m426.818 399.302-13.696-14.496-7.242 7.7 7.768 10.237 2.395 3.033c.73.904.526 1.05.234 2.187l-2.307 9.042-.847 5.337h11.798l5.023-19.746z" fill="#0067b4" fill-rule="evenodd"/></g><g><path clip-rule="evenodd" d="m441.127 457.431-16.207-35.087h-11.798l12.265 35.087c.146.35.263.35.029.642l-12.294 20.854h15.74l12.294-20.854c.204-.292.087-.292-.029-.642z" fill="#3987d0" fill-rule="evenodd"/></g><g><path clip-rule="evenodd" d="m512 428.702c0-24.121-15.652-29.079-35.597-41.037l-18.602 12.017c17.258 9.858 30.078 15.983 30.078 37.8v41.445h4.117 13.17c4.264 0 6.833.7 6.833-4.871v-45.354z" fill="#e2e2e2" fill-rule="evenodd"/></g><g><path clip-rule="evenodd" d="m197.698 474.056v-45.354c0-24.121-15.623-29.079-35.568-41.037l-63.281-2.858-63.281 2.858c-19.945 11.958-35.568 16.916-35.568 41.037v45.354c0 5.571 2.541 4.871 6.833 4.871h13.17 63.047 15.798 15.74 63.106 13.17c4.293-.001 6.834.699 6.834-4.871z" fill="#f9f7f7" fill-rule="evenodd"/></g><g><path clip-rule="evenodd" d="m126.825 457.431-16.207-35.087-11.768-6.65-11.827 6.65-16.207 35.087c-.146.35-.263.35-.058.642l12.294 20.854h15.798 15.74l12.294-20.854c.203-.292.087-.292-.059-.642z" fill="#fe9737" fill-rule="evenodd"/></g><g><path clip-rule="evenodd" d="m110.617 422.344 5.052-19.746 2.57-9.771-19.39-8.02-9.111 4.258-10.104 4.696 2.365 8.895 5.023 19.688h11.798z" fill="#fe7600" fill-rule="evenodd"/></g><g><path clip-rule="evenodd" d="m81.999 402.656 16.85-17.85-11.593-11.2-22.748-3.267-28.939 17.325 30.195 19.512c5.607 3.267 6.862 6.3 11.068.933z" fill="#cecece" fill-rule="evenodd"/></g><g><path clip-rule="evenodd" d="m131.935 407.177 30.195-19.512-28.939-17.325-17.521 1.167-16.82 13.3 16.82 17.791 5.198 5.512c4.204 5.367 5.489 2.334 11.067-.933z" fill="#cecece" fill-rule="evenodd"/></g><g><path clip-rule="evenodd" d="m133.191 370.34c12.206-10.15 21.376-24.15 24.384-37.362.701-3.033 1.051-6.037 1.051-8.954v-35.233-4.375h-10.98c-23.274 0-28.151-28.641-56.594-28.641h-13.842c-21.785 0-5.198 33.016-30.283 33.016h-7.855v35.233c0 2.917.35 5.921 1.051 8.954 3.008 13.212 12.177 27.212 24.384 37.362 5.87 4.871 12.44 8.867 19.361 11.433 5.461 2.042 10.221 3.033 14.981 3.033s9.52-.992 14.981-3.033c6.921-2.566 13.491-6.562 19.361-11.433z" fill="#ffe5c1" fill-rule="evenodd"/></g><g><path clip-rule="evenodd" d="m158.626 272.924c0-27.912-28.676-46.9-55.221-49.612h-12.587c-10.221 1.137-19.244 5.162-24.997 12.629-28.881 2.537-26.749 40.95-26.749 45.995v9.771 13.942h7.855c25.085 0 8.498-33.016 30.283-33.016h13.842c28.443 0 33.32 28.641 56.594 28.641h10.98v-8.662z" fill="#838383" fill-rule="evenodd"/></g><g><path clip-rule="evenodd" d="m158.626 284.416v-11.492c0-27.912-28.676-46.9-55.221-49.612h-12.528c25.873 3.529 48.037 19.541 48.037 46.637v11.492 4.375 6.504l4.877 8.692c1.226.175 2.511.262 3.855.262h10.98v-8.662-3.821z" fill="#595959" fill-rule="evenodd"/></g><g><path clip-rule="evenodd" d="m85.182 399.302 13.667-14.496c-2.687 0-5.373-.321-8.177-.963-2.161-.496-4.41-1.167-6.804-2.071-6.921-2.567-13.491-6.562-19.361-11.433l-13.9 8.312c1.665 1.575 3.358 3.092 5.081 4.521 7.388 6.154 15.652 11.171 24.355 14.408.204.087.438.146.672.233 1.518.556 3.007 1.052 4.467 1.489z" fill="#b5adb6" fill-rule="evenodd"/></g><g><path clip-rule="evenodd" d="m117.655 397.581c8.702-3.237 16.966-8.254 24.355-14.408 1.752-1.429 3.446-2.946 5.081-4.521l-13.9-8.312c-5.87 4.871-12.44 8.867-19.361 11.433-5.461 2.042-10.221 3.033-14.981 3.033l13.696 14.496c1.402-.438 2.862-.904 4.38-1.458.234-.088.497-.175.73-.263z" fill="#b5adb6" fill-rule="evenodd"/></g><g><path clip-rule="evenodd" d="m112.545 399.302-13.696-14.496-7.271 7.7 7.768 10.237 2.395 3.033c.73.904.555 1.05.263 2.187l-2.307 9.042-.847 5.337h11.768l5.052-19.746z" fill="#e6581f" fill-rule="evenodd"/></g><g><path clip-rule="evenodd" d="m126.825 457.431-16.207-35.087h-11.769l12.236 35.087c.146.35.263.35.058.642l-12.294 20.854h15.74l12.294-20.854c.204-.292.088-.292-.058-.642z" fill="#f36b37" fill-rule="evenodd"/></g><g><path clip-rule="evenodd" d="m197.698 428.702c0-24.121-15.623-29.079-35.568-41.037l-18.602 12.017c17.229 9.858 30.078 15.983 30.078 37.8v41.445h4.088 13.17c4.293 0 6.833.7 6.833-4.871v-45.354z" fill="#e2e2e2" fill-rule="evenodd"/></g><g><path clip-rule="evenodd" d="m183.564 38.368c37.203-37.158 97.506-37.158 134.709 0 37.174 37.158 37.174 97.386 0 134.515-37.203 37.158-97.506 37.158-134.709 0-37.174-37.128-37.174-97.357 0-134.515z" fill="#97da7b" fill-rule="evenodd"/></g><g><path clip-rule="evenodd" d="m286.385 38.368c37.203 37.158 37.203 97.386 0 134.515-12.148 12.133-26.749 20.3-42.197 24.529-3.037.817-6.103 1.488-9.199 2.012 13.637 2.304 27.684 1.633 41.058-2.012 15.477-4.229 30.078-12.396 42.226-24.529 17.142-17.121 26.369-39.141 27.713-61.57.234-3.792.234-7.583 0-11.375-1.343-22.429-10.571-44.45-27.713-61.57-13.521-13.504-30.078-22.079-47.483-25.783-11.768-2.508-23.946-2.742-35.802-.758 18.807 3.179 36.883 12.017 51.397 26.541z" fill="#68ca44" fill-rule="evenodd"/></g><g><path d="m236.361 139.742c-1.822 0-3.593-.644-4.993-1.829l-26.194-22.166c-3.257-2.755-3.661-7.627-.903-10.881 2.758-3.253 7.634-3.658 10.889-.902l20.268 17.151 44.306-52.823c2.741-3.268 7.616-3.698 10.884-.958 3.271 2.739 3.7 7.608.959 10.876l-49.294 58.77c-1.321 1.575-3.215 2.558-5.264 2.733-.219.02-.44.029-.658.029z" fill="#f9f7f7"/></g><g><path clip-rule="evenodd" d="m143.791 301.012c-20.062-2.917-25.931-28.379-52.739-28.379h-13.842c-8.06 0-10.863 4.521-12.469 10.208h15.857c26.807 0 32.648 27.854 52.739 30.771h4.877c.818 0 .701.379.701 1.167 0 6.154.321 11.842-1.08 17.879-.058.321-.146.642-.204.962-4.526 19.483-10.63 32.054-27.946 42.612-3.417 2.1-7.009 3.85-10.688 5.221-.905.35-1.781.671-2.657.933-1.957.642-3.825 1.137-5.665 1.458 2.803.642 5.49.963 8.177.963 4.76 0 9.52-.992 14.981-3.033 6.921-2.567 13.491-6.562 19.361-11.433 12.206-10.15 21.376-24.15 24.384-37.362.701-3.033 1.051-6.037 1.051-8.954v-18.375-4.375h-10.98c-1.347-.001-2.631-.088-3.858-.263z" fill="#fed1a3" fill-rule="evenodd"/></g><g><path clip-rule="evenodd" d="m138.914 299.787c1.548.554 3.154.963 4.877 1.225 1.226.175 2.511.262 3.855.262h10.98c0-9.45 0-18.9 0-28.35 0-27.912-28.676-46.9-55.221-49.612h-12.528c25.873 3.529 48.037 19.541 48.037 46.637z" fill="#595959" fill-rule="evenodd"/></g><g><path clip-rule="evenodd" d="m354.864 496.572v-45.354c0-24.091-15.652-29.05-35.597-41.008l-30.166 19.512c-5.607 3.237-6.892 6.3-11.097.904l-5.198-5.483-16.82-17.792-16.85 17.821-5.169 5.454c-4.205 5.396-5.461 2.333-11.068-.904l-30.166-19.512c-19.974 11.958-35.597 16.917-35.597 41.008v45.354c0 5.6 2.57 4.9 6.833 4.9h13.17 63.047 15.798 15.74 63.106 13.17c4.294 0 6.864.7 6.864-4.9zm-110.705-51.712-16.207 35.087z" fill="#7bacdf" fill-rule="evenodd"/></g><g><path clip-rule="evenodd" d="m283.961 479.947-16.178-35.087-11.798-6.65-11.827 6.65-16.207 35.087c-.146.35-.263.379-.029.671l12.265 20.854h15.798 15.74l12.294-20.854c.205-.292.088-.321-.058-.671z" fill="#fe9737" fill-rule="evenodd"/></g><g><path clip-rule="evenodd" d="m267.783 444.86 5.023-19.716 2.57-9.771-19.391-8.021-9.111 4.229-10.104 4.696 2.366 8.896 5.023 19.687h11.797z" fill="#fe7600" fill-rule="evenodd"/></g><g><path clip-rule="evenodd" d="m239.136 425.173 16.85-17.821-11.593-11.2-22.748-3.296-28.91 17.354 30.166 19.512c5.607 3.237 6.862 6.3 11.068.904z" fill="#0078c8" fill-rule="evenodd"/></g><g><path clip-rule="evenodd" d="m289.101 429.723 30.166-19.512-28.939-17.354-17.521 1.167-16.82 13.329 16.82 17.792 5.198 5.483c4.204 5.395 5.489 2.332 11.096-.905z" fill="#0078c8" fill-rule="evenodd"/></g><g><path clip-rule="evenodd" d="m290.327 392.856c12.206-10.15 21.376-24.15 24.384-37.333.701-3.063 1.051-6.067 1.051-8.983v-35.233-4.375h-10.98c-23.274 0-28.122-28.641-56.594-28.641h-13.842c-21.785 0-5.198 33.016-30.253 33.016h-7.885v35.233c0 2.917.38 5.921 1.051 8.983 3.037 13.183 12.206 27.183 24.384 37.333 5.87 4.871 12.44 8.867 19.361 11.462 5.461 2.012 10.221 3.033 14.981 3.033s9.549-1.021 14.981-3.033c6.921-2.595 13.491-6.591 19.361-11.462z" fill="#ffe5c1" fill-rule="evenodd"/></g><g><path clip-rule="evenodd" d="m315.762 295.441c0-27.912-28.676-46.9-55.192-49.612h-12.586c-10.221 1.137-19.273 5.192-24.997 12.629-28.91 2.537-26.778 40.95-26.778 45.995v9.8 13.942h7.885c25.055 0 8.469-33.016 30.253-33.016h13.842c28.472 0 33.32 28.641 56.594 28.641h10.98v-8.692-19.687z" fill="#838383" fill-rule="evenodd"/></g><g><path clip-rule="evenodd" d="m315.762 295.441c0-27.912-28.676-46.9-55.192-49.612h-12.557c25.873 3.529 52.943 22.254 52.943 49.35-.029 9.45-.029 18.9 0 28.35 1.197.204 2.482.292 3.826.292h10.98c0-9.451 0-18.901 0-28.38z" fill="#595959" fill-rule="evenodd"/></g><g><path clip-rule="evenodd" d="m300.957 323.528c-20.091-2.917-25.931-28.35-52.768-28.35h-13.842c-8.06 0-10.863 4.492-12.469 10.179h15.857c26.807 0 32.648 27.854 52.739 30.771h4.906c.788 0 .672.408.672 1.196 0 6.154.321 11.812-1.051 17.879-.088.321-.146.612-.234.933-4.526 19.483-10.63 32.054-27.946 42.612-3.417 2.1-7.009 3.879-10.688 5.25-.905.321-1.781.642-2.657.933-1.957.613-3.825 1.108-5.665 1.458 2.803.642 5.49.962 8.177.962 4.76 0 9.549-1.021 14.981-3.033 6.921-2.596 13.491-6.592 19.361-11.462 12.206-10.15 21.376-24.15 24.384-37.333.701-3.063 1.051-6.067 1.051-8.983v-18.346-4.375h-10.98c-1.346.001-2.631-.087-3.828-.291z" fill="#fed1a3" fill-rule="evenodd"/></g><g><path clip-rule="evenodd" d="m242.319 421.819 13.667-14.467c-2.687 0-5.373-.321-8.177-.962-2.161-.496-4.41-1.196-6.804-2.071-6.921-2.596-13.491-6.592-19.361-11.462l-13.871 8.342c1.635 1.546 3.329 3.062 5.052 4.521 7.388 6.125 15.652 11.142 24.355 14.379.234.087.438.175.672.262 1.517.553 3.007 1.02 4.467 1.458z" fill="#0067b4" fill-rule="evenodd"/></g><g><path clip-rule="evenodd" d="m274.821 420.098c8.702-3.237 16.937-8.254 24.325-14.379 1.752-1.458 3.446-2.975 5.081-4.521l-13.9-8.342c-5.87 4.871-12.44 8.867-19.361 11.462-5.432 2.012-10.221 3.033-14.981 3.033l13.696 14.467c1.431-.408 2.891-.904 4.38-1.429.234-.116.497-.204.76-.291z" fill="#0067b4" fill-rule="evenodd"/></g><g><path clip-rule="evenodd" d="m269.681 421.819-13.696-14.467-7.242 7.671 7.739 10.267 2.395 3.004c.73.904.555 1.05.263 2.187l-2.307 9.071-.847 5.308h11.798l5.023-19.716z" fill="#e6581f" fill-rule="evenodd"/></g><g><path clip-rule="evenodd" d="m283.961 479.947-16.178-35.087h-11.798l12.236 35.087c.146.35.263.379.058.671l-12.294 20.854h15.74l12.294-20.854c.205-.292.088-.321-.058-.671z" fill="#f36b37" fill-rule="evenodd"/></g><g><path clip-rule="evenodd" d="m354.864 451.218c0-24.091-15.652-29.05-35.597-41.008l-18.602 12.017c17.258 9.829 30.078 15.954 30.078 37.8v41.445h4.088 13.17c4.293 0 6.862.7 6.862-4.9v-45.354z" fill="#3987d0" fill-rule="evenodd"/></g></g></svg>