<svg id="Capa_1" enable-background="new 0 0 512 512" height="512" viewBox="0 0 512 512" width="512" xmlns="http://www.w3.org/2000/svg"><g><g><path clip-rule="evenodd" d="m110.117 196.988 30.026-24.472c-10.635-8.177-21.27-16.324-31.905-24.472h-16.155c-5.953 0-10.808 4.854-10.808 10.806v10.69c0 13.695 15.317 27.621 28.842 27.448z" fill="#ffbc85" fill-rule="evenodd"/></g><g><path clip-rule="evenodd" d="m411.595 386.171v81.252c0 6.985-2.226 8.458-6.215 8.726h-378.665c-3.989-.268-6.215-1.741-6.215-8.726v-81.252c0-48.244 49.821-84.25 93.376-93.007l.082.062 103.63-3.492 100.167 3.75.464-.319c43.555 8.757 93.376 44.762 93.376 93.006z" fill="#f9f7f7" fill-rule="evenodd"/></g><g><path clip-rule="evenodd" d="m261.404 436.244-26.732-89.104-19.507-17.812-19.478 17.812-26.761 89.104c-.231.78-.433.838-.058 1.502l20.258 38.398h26.038 26.038l20.287-38.398c.349-.664.146-.721-.085-1.502z" fill="#7bacdf" fill-rule="evenodd"/></g><g><path clip-rule="evenodd" d="m187.682 315.85 28.379-26.061c-.318 0-.607 0-.896 0-14.161-20.427-37.829-33.371-62.278-26.668-14.103 10.719-33.87 26.321-39.014 30.048l.087.058 47.828 35.538c10.144 6.327 3.063 7.194 18.669-6.27z" fill="#cecece" fill-rule="evenodd"/></g><g><path clip-rule="evenodd" d="m234.672 347.141 8.294-32.62v-15.192l-26.905-9.54-23.061 9.873-5.318 16.188 8.005 31.291h19.478z" fill="#3987d0" fill-rule="evenodd"/></g><g><path clip-rule="evenodd" d="m234.672 347.141 8.294-32.62-26.905-24.732-9.768 8.957 17.195 15.775-8.323 32.62z" fill="#0067b4" fill-rule="evenodd"/></g><g><path clip-rule="evenodd" d="m270.305 328.765 47.453-35.277.462-.318c-5.26-3.814-25.778-20.022-39.939-30.741-29.737-2.34-51.209 13.348-62.22 27.361l26.905 24.732 8.67 7.974c15.606 13.463 8.525 12.597 18.669 6.269z" fill="#cecece" fill-rule="evenodd"/></g><g><path clip-rule="evenodd" d="m261.404 436.244-26.732-89.104h-19.507l26.761 89.104c.231.78.405.838.058 1.502l-20.287 38.398h19.507l20.287-38.398c.347-.664.144-.721-.087-1.502z" fill="#3987d0" fill-rule="evenodd"/></g><g><path clip-rule="evenodd" d="m189.329 314.319 16.964-15.573 9.768-8.957c-.318 0-.607 0-.896 0-8.525 0-17.051-1.82-26.79-5.432-12.716-4.738-24.767-12.164-35.488-21.236-5.173 3.929-11.097 8.523-16.79 12.944 14.045 16.555 32.252 30.452 52.134 37.849.376.145.752.289 1.098.405z" fill="#b5adb6" fill-rule="evenodd"/></g><g><path clip-rule="evenodd" d="m242.157 313.77c20.114-7.57 38.523-21.814 52.597-38.687-5.635-4.392-11.473-8.87-16.473-12.655-10.924 9.39-23.264 17.046-36.326 21.929-9.392 3.496-17.657 5.316-25.894 5.432z" fill="#b5adb6" fill-rule="evenodd"/></g><g><path clip-rule="evenodd" d="m399.369 476.145h.202c-.057 0-.115 0-.202 0zm-103.083-166.68c40.95 11.701 83.837 45.939 83.837 90.693v75.987h19.247.202 5.809c3.988-.26 6.213-1.734 6.213-8.725v-81.245c0-48.25-49.822-84.25-93.373-93.004l-.462.318z" fill="#e2e2e2" fill-rule="evenodd"/></g><g><path clip-rule="evenodd" d="m278.281 262.429c20.981-18.058 36.673-42.443 41.933-65.441 1.243-5.461 1.907-10.864 1.907-16.064v-52.064-7.801h-19.68c-41.644 0-50.314-51.284-101.205-51.284h-33.812c-38.985 0-9.306 59.114-54.157 59.085h-5.028v52.064c0 5.201.636 10.603 1.878 16.064 5.317 23.316 21.357 48.048 42.771 66.134 10.722 9.072 22.773 16.497 35.488 21.236 9.739 3.612 18.264 5.432 26.79 5.432h.896c8.236-.116 16.501-1.936 25.894-5.432 13.061-4.883 25.401-12.539 36.325-21.929z" fill="#ffe5c1" fill-rule="evenodd"/></g><g><path clip-rule="evenodd" d="m182.856 225.071c0 38.369 64.619 38.369 64.619 0 0-3.554-2.919-6.472-6.473-6.472h-51.643c-3.584 0-6.503 2.918-6.503 6.472z" fill="#fbf8f8" fill-rule="evenodd"/></g><g><path clip-rule="evenodd" d="m320.214 196.988c13.525.173 28.87-13.782 28.87-27.448v-10.69c0-5.952-4.884-10.806-10.837-10.806h-16.126l-12.947 19.936z" fill="#ffbc85" fill-rule="evenodd"/></g><g><path clip-rule="evenodd" d="m113.267 148.044c44.852 0 15.172-59.114 54.157-59.114h33.812c50.892 0 59.561 51.284 101.205 51.284h19.68v-15.573-35.22c0-53.913-59.735-89.277-109.933-89.422h-.665c-22.599.058-43.175 7.281-55.429 23.201-51.672 4.536-47.857 73.3-47.857 82.372v17.509 24.963z" fill="#838383" fill-rule="evenodd"/></g><g><path clip-rule="evenodd" d="m322.121 89.422c0-53.913-59.735-89.277-109.933-89.422h-.665c-22.541.058-43.089 7.252-55.342 23.114 10.462-5.114 22.83-7.512 35.835-7.57h.665c50.198.173 109.933 35.509 109.933 89.45v35.22h19.507v-15.573z" fill="#595959" fill-rule="evenodd"/></g><g><path clip-rule="evenodd" d="m302.441 140.214c-41.644 0-50.314-51.284-101.205-51.284h-33.812c-15.895 0-20.374 9.794-23.148 21.409h53.059c50.892 0 57.625 47.961 99.269 48.192l6.011.058c0 15.168.491 20.918-4.133 35.653-5.982 19.156-15.808 39.293-32.28 53.48-10.924 9.39-23.264 17.046-36.326 21.929-8.814 3.294-17.311 5.374-26.79 5.432-17.657 0-55.573-20.051-69.271-31.521 5.664 7.021 12.08 13.666 19.074 19.56 10.722 9.072 22.773 16.497 35.488 21.236 9.739 3.612 18.264 5.432 26.79 5.432h.896c8.236-.116 16.501-1.936 25.894-5.432 13.062-4.883 25.402-12.539 36.326-21.929 20.981-18.058 36.673-42.443 41.933-65.441 1.243-5.461 1.907-10.864 1.907-16.064v-32.879-7.83h-19.682z" fill="#fed1a3" fill-rule="evenodd"/></g><g><path clip-rule="evenodd" d="m183.261 230.098h63.81c.26-1.589.405-3.265.405-5.027 0-3.554-2.919-6.472-6.473-6.472h-51.643c-3.583 0-6.502 2.918-6.502 6.472-.002 1.762.142 3.438.403 5.027z" fill="#e2e2e2" fill-rule="evenodd"/></g><g><path d="m96.025 418.767v57.382h-15.46v-57.382c0-4.265 3.463-7.727 7.73-7.727s7.73 3.462 7.73 7.727z" fill="#e2e2e2"/></g><g><path d="m336.022 483.871c-4.269 0-7.73-3.459-7.73-7.727v-57.38c0-4.267 3.461-7.727 7.73-7.727s7.73 3.459 7.73 7.727v57.38c0 4.268-3.461 7.727-7.73 7.727z"/></g><g><path d="m182.567 179.318c-1.979 0-3.957-.755-5.467-2.264-1.237-1.237-2.878-1.919-4.619-1.919s-3.381.681-4.619 1.919c-3.019 3.018-7.912 3.018-10.932.002-3.019-3.017-3.019-7.909-.002-10.927 4.158-4.157 9.681-6.446 15.552-6.446 5.872 0 11.395 2.289 15.553 6.446 3.018 3.018 3.017 7.91-.002 10.927-1.508 1.508-3.486 2.262-5.464 2.262z" fill="#838383"/></g><g><path d="m267.965 179.318c-1.978 0-3.957-.755-5.466-2.264-1.238-1.237-2.884-1.919-4.634-1.919-1.751 0-3.396.681-4.634 1.919-3.018 3.018-7.913 3.018-10.931.001-3.019-3.017-3.019-7.909-.001-10.927 4.158-4.157 9.686-6.446 15.567-6.446s11.409 2.289 15.567 6.446c3.018 3.018 3.018 7.91-.001 10.927-1.512 1.509-3.49 2.263-5.467 2.263z" fill="#838383"/></g><g><path clip-rule="evenodd" d="m335.386 337.722-18.207 18.173c-3.757 3.785-3.757 9.939 0 13.695l7.427 7.425c-2.63 4.941-4.768 10.199-6.329 15.688h-10.664c-5.317 0-9.681 4.334-9.681 9.679v25.714c0 5.316 4.364 9.679 9.681 9.679h11.068c1.618 5.316 3.757 10.43 6.387 15.226l-7.889 7.859c-3.757 3.785-3.757 9.939 0 13.695l18.207 18.202c3.757 3.756 9.912 3.756 13.669 0l7.89-7.888c4.797 2.629 9.912 4.767 15.23 6.385v11.066c0 5.316 4.364 9.679 9.681 9.679h25.72c5.317 0 9.681-4.363 9.681-9.679v-10.66c5.491-1.56 10.75-3.698 15.692-6.327l7.427 7.425c3.757 3.756 9.912 3.756 13.669 0l18.207-18.202c3.757-3.756 3.757-9.91 0-13.666l-7.022-7.021c2.861-5.056 5.173-10.43 6.878-16.093h9.71c5.317 0 9.681-4.363 9.681-9.679v-25.714c0-5.345-4.364-9.679-9.681-9.679h-9.306c-1.647-5.836-3.93-11.384-6.791-16.584l6.531-6.53c3.757-3.756 3.757-9.91 0-13.695l-18.207-18.173c-3.757-3.756-9.912-3.756-13.669 0l-6.531 6.53c-5.202-2.86-10.751-5.143-16.588-6.79v-9.303c0-5.345-4.364-9.679-9.681-9.679h-25.72c-5.317 0-9.681 4.334-9.681 9.679v9.708c-5.664 1.705-11.039 4.016-16.097 6.876l-7.023-7.021c-3.756-3.756-9.912-3.756-13.669 0z" fill="#838383" fill-rule="evenodd"/></g><g><path clip-rule="evenodd" d="m409.022 435.031c-1.387 14.822-4.653 28.719-9.479 41.114-4.508 11.615-10.317 21.9-17.166 30.424-1.329 1.647-2.716 3.236-4.104 4.738 1.098.433 2.312.693 3.584.693h25.72c3.815 0 7.109-2.225 8.699-5.432.636-1.3.983-2.745.983-4.247v-10.661c5.491-1.56 10.75-3.698 15.692-6.327l7.427 7.425c3.757 3.756 9.912 3.756 13.669 0l18.207-18.202c3.757-3.756 3.757-9.91 0-13.666l-7.022-7.021c2.861-5.056 5.173-10.43 6.878-16.093h9.71c5.317 0 9.681-4.363 9.681-9.679v-25.714c0-5.345-4.364-9.679-9.681-9.679h-9.306c-1.647-5.836-3.93-11.384-6.791-16.584l6.531-6.53c3.757-3.756 3.757-9.91 0-13.695l-18.207-18.173c-3.757-3.756-9.912-3.756-13.669 0l-6.531 6.53c-5.202-2.86-10.751-5.143-16.588-6.79v-9.303c0-5.345-4.364-9.679-9.681-9.679h-25.72c-2.196 0-4.19.722-5.838 1.965-.809.607-1.561 1.387-2.139 2.254 17.079 15.833 29.651 41.663 34.101 72.028 1.3.838 2.514 1.82 3.612 2.86 4.653 4.449 7.543 10.719 7.543 17.653s-2.89 13.175-7.543 17.624c-.81.78-1.648 1.502-2.572 2.167z" fill="#595959" fill-rule="evenodd"/></g><g><path clip-rule="evenodd" d="m394.716 390.826c-13.496 0-24.42 10.921-24.42 24.414 0 13.464 10.924 24.414 24.42 24.414s24.42-10.95 24.42-24.414c0-13.493-10.924-24.414-24.42-24.414z" fill="#f9f7f7" fill-rule="evenodd"/></g><g><path clip-rule="evenodd" d="m397.375 415.24c0 9.563-5.52 17.855-13.554 21.843 3.295 1.647 6.994 2.571 10.895 2.571 5.346 0 10.288-1.734 14.305-4.623.925-.665 1.763-1.387 2.572-2.167 4.653-4.449 7.543-10.69 7.543-17.624s-2.89-13.204-7.543-17.653c-1.098-1.04-2.312-2.022-3.612-2.86-3.815-2.456-8.381-3.9-13.265-3.9-3.901 0-7.601.925-10.895 2.543 8.034 4.014 13.554 12.306 13.554 21.87z" fill="#e2e2e2" fill-rule="evenodd"/></g></g></svg>