<svg id="Capa_1" enable-background="new 0 0 512 512" height="512" viewBox="0 0 512 512" width="512" xmlns="http://www.w3.org/2000/svg"><g><g><path clip-rule="evenodd" d="m90.553 281.219-5.312 78.84-7.721 114.587c-.854.062-1.729.062-2.604.062-1.729 0-3.438-.093-5.116-.278-23.151-2.575-41.3-22.355-41.3-46.183v-105.914l.062-273.565c0-2.751 2.244-4.996 4.982-4.996h43.976l7.721 140.671z" fill="#cecece" fill-rule="evenodd"/></g><g><path clip-rule="evenodd" d="m85.241 474.264c-2.512.258-5.085.381-7.721.381v-430.873h43.966c44.615 27.877 101.871 416.75-36.245 430.492z" fill="#cecece" fill-rule="evenodd"/></g><g><path clip-rule="evenodd" d="m121.484 43.774-.117 278.559v105.916c0 24.705-19.49 45.059-43.852 46.402v.058l358.281-.905c27.046-4.848 47.732-28.53 47.703-55.718l-.028-413.472c0-2.541-2.072-4.614-4.61-4.614h-352.767c-2.538 0-4.61 2.073-4.61 4.614z" fill="#f9f7f7" fill-rule="evenodd"/></g><g><path clip-rule="evenodd" d="m248.079 315.149c-26.404 26.428-26.404 69.267 0 95.695s69.235 26.428 95.639 0 26.404-69.267 0-95.695c-.846-.847-1.692-1.665-2.568-2.453-25.675-23.186-64.829-23.186-90.504 0-.875.788-1.721 1.606-2.567 2.453z" fill="#62dbfb" fill-rule="evenodd"/></g><g><path clip-rule="evenodd" d="m421.268 459.261 14.53 14.543c27.046-4.848 47.732-28.53 47.703-55.718l-.03-413.472c0-2.541-2.072-4.614-4.61-4.614h-43.764c2.538 0 4.61 2.073 4.61 4.614l.029 413.472c.029 15.944-7.119 30.721-18.468 41.175z" fill="#e2e2e2" fill-rule="evenodd"/></g><g><path clip-rule="evenodd" d="m301.442 312.871c26.404 26.428 26.404 69.267 0 95.695-8.665 8.673-19.11 14.513-30.139 17.492 24.245 9.461 52.838 4.38 72.415-15.214 26.404-26.428 26.404-69.267 0-95.695-.846-.847-1.692-1.665-2.568-2.453-17.535-15.828-41.372-20.85-62.933-15.039 7.44 2.891 14.442 7.155 20.657 12.761.817.759 1.634 1.518 2.422 2.278.058.058.087.117.146.175z" fill="#00c0fa" fill-rule="evenodd"/></g><g><path d="m199.413 144.83-20.212-.058c-4.264-.013-7.711-3.481-7.698-7.749.013-4.26 3.467-7.704 7.72-7.704h.023l20.19.058c6.458 0 8.188-6.451 8.188-10.262v-50.648h-16.641c-4.264 0-7.721-3.459-7.721-7.726s3.457-7.726 7.721-7.726h24.362c4.264 0 7.721 3.459 7.721 7.726v58.375c-.002 14.659-10.17 25.714-23.653 25.714z" fill="#595959"/></g><g><path d="m289.275 144.83h-4.318c-17.352 0-31.469-14.142-31.469-31.526v-28.764c0-17.384 14.117-31.526 31.469-31.526h4.318c17.369 0 31.5 14.142 31.5 31.526v28.764c0 17.384-14.131 31.526-31.5 31.526zm-4.318-76.363c-8.838 0-16.028 7.21-16.028 16.073v28.764c0 8.863 7.19 16.073 16.028 16.073h4.318c8.855 0 16.058-7.21 16.058-16.073v-28.764c0-8.863-7.204-16.073-16.058-16.073z" fill="#595959"/></g><g><path d="m243.702 208.87h-64.479c-4.264 0-7.721-3.459-7.721-7.726s3.457-7.726 7.721-7.726h64.479c4.264 0 7.721 3.459 7.721 7.726s-3.457 7.726-7.721 7.726z" fill="#595959"/></g><path d="m403.057 94.258c2.235-3.764 3.524-8.155 3.524-12.843v-3.154c0-13.922-11.303-25.247-25.196-25.247h-21.095c-6.268 0-11.367 5.104-11.367 11.376v34.517 34.546c0 6.273 5.099 11.376 11.367 11.376h30.722c13.894 0 25.198-11.326 25.198-25.247v-3.154c-.001-9.552-5.324-17.882-13.153-22.17zm-38.693-25.791h17.02c5.379 0 9.755 4.394 9.755 9.795v3.154c0 5.385-4.376 9.766-9.755 9.766h-17.02zm36.404 51.115c0 5.401-4.377 9.795-9.756 9.795h-26.648v-22.743h17.02 9.628c5.379 0 9.756 4.394 9.756 9.795z" fill="#595959"/><g><path d="m406.621 264.646h-227.398c-4.264 0-7.721-3.459-7.721-7.726s3.457-7.726 7.721-7.726h227.397c4.264 0 7.721 3.459 7.721 7.726s-3.456 7.726-7.72 7.726z" fill="#595959"/></g><g><path d="m406.621 320.422h-65.47c-4.264 0-7.721-3.459-7.721-7.726s3.456-7.726 7.721-7.726h65.47c4.264 0 7.721 3.459 7.721 7.726-.001 4.267-3.457 7.726-7.721 7.726zm-155.975 0h-71.423c-4.264 0-7.721-3.459-7.721-7.726s3.457-7.726 7.721-7.726h71.423c4.264 0 7.721 3.459 7.721 7.726s-3.457 7.726-7.721 7.726z" fill="#595959"/></g><path d="m375.144 431.371-20.787-20.806c24.072-29.584 22.346-73.329-5.18-100.88-14.229-14.241-33.15-22.085-53.279-22.085-20.13 0-39.051 7.843-53.28 22.085-29.369 29.395-29.369 77.225 0 106.621 14.229 14.241 33.15 22.085 53.28 22.085 17.531 0 34.144-5.954 47.541-16.899l20.785 20.804c1.508 1.509 3.483 2.264 5.46 2.264 1.975 0 3.952-.754 5.459-2.263 3.016-3.016 3.016-7.908.001-10.926zm-121.605-25.99c-23.35-23.371-23.35-61.399 0-84.77 11.312-11.322 26.356-17.557 42.36-17.557s31.047 6.235 42.36 17.557c23.35 23.371 23.35 61.398 0 84.77-11.312 11.322-26.356 17.557-42.36 17.557-16.004.001-31.048-6.235-42.36-17.557z" fill="#838383"/><g><path d="m85.241 43.772v430.492c-2.512.258-5.085.381-7.721.381-.854.062-1.729.062-2.604.062-1.729 0-3.438-.093-5.116-.278v-430.657z" fill="#838383"/></g><g><path clip-rule="evenodd" d="m378.35 474.709 30.051 30.107 3.676 3.679c4.668 4.672 12.312 4.672 16.951 0l3.705-3.679 8.549-8.556c4.639-4.672 4.639-12.323 0-16.966l-5.485-5.49-43.035-43.073c-4.668-4.672-12.312-4.672-16.951 0l-6.127 6.103-6.127 6.132c-4.639 4.672-4.639 12.294 0 16.966z" fill="#fe9737" fill-rule="evenodd"/></g><g><path clip-rule="evenodd" d="m364.841 441.74c4.639-4.672 12.283-4.643 16.951 0 16.164 16.207 32.327 32.385 48.491 48.563 4.464 4.468 4.668 11.652.613 16.353h.029l10.357-10.396c4.639-4.702 4.639-12.323 0-16.966l-5.485-5.49-14.53-14.543-28.505-28.53c-4.668-4.672-12.312-4.702-16.951 0l-7.936 7.943z" fill="#f36b37" fill-rule="evenodd"/></g></g></svg>