<svg id="Capa_1" enable-background="new 0 0 512 512" height="512" viewBox="0 0 512 512" width="512" xmlns="http://www.w3.org/2000/svg"><g><g><path d="m432.375 319.177h-19.113c-4.204 0-7.611-3.409-7.611-7.615 0-4.205 3.407-7.615 7.611-7.615h19.113c46.965 0 64.245-31.995 64.401-53.502.089-12.279-5.307-26.695-20.804-26.952h-21.091c-4.204 0-7.611-3.409-7.611-7.615s3.407-7.615 7.611-7.615h21.151c.037 0 .073 0 .111.001 21.289.309 36.035 17.7 35.855 42.291-.122 16.852-7.295 33.661-19.682 46.118-10.206 10.267-28.89 22.504-59.941 22.504z" fill="#cecece"/></g><g><path clip-rule="evenodd" d="m413.59 376.409c5.194 0 9.435 4.24 9.435 9.433v15.923c0 13.962-11.426 25.385-25.363 25.385h-270.944c-13.937 0-25.363-11.423-25.363-25.385v-15.923c0-5.192 4.242-9.433 9.435-9.433z" fill="#fe9737" fill-rule="evenodd"/></g><g><path clip-rule="evenodd" d="m353.803 376.409h-186.66c-60.826-33.116-102.088-107.453-102.088-181.559v-5.452c0-10.212 6.117-18.404 16.389-18.433l129.875-.144h50.928 62.355 114.755c14.976 0 16.995 9.894 16.62 23.971-.028 74.164-41.348 148.501-102.174 181.617z" fill="#f9f7f7" fill-rule="evenodd"/></g><g><path clip-rule="evenodd" d="m397.662 427.121c13.937 0 25.363-11.394 25.363-25.356v-15.923c0-5.192-4.242-9.433-9.435-9.433h-43.946c5.194 0 9.435 4.24 9.435 9.433v15.923c0 13.962-11.426 25.356-25.363 25.356z" fill="#f36b37" fill-rule="evenodd"/></g><g><path clip-rule="evenodd" d="m353.803 376.409c55.055-29.971 94.124-93.722 101.078-160.53.721-7.01 1.096-14.048 1.096-21.087.375-14.077-1.645-23.971-16.62-23.971h-49.861c14.976 0 16.995 9.894 16.62 23.971-.029 74.164-41.32 148.501-102.174 181.617z" fill="#e2e2e2" fill-rule="evenodd"/></g><g><path d="m257.832 91.985c-3.181 0-6.147-2.01-7.215-5.194-1.337-3.987.81-8.303 4.795-9.641 2.669-.896 4.824-3.364 5.911-6.769 1.646-5.156.565-11.074-2.893-15.832-6.035-8.283-8.072-19.165-5.447-29.102 2.191-8.292 7.256-14.768 13.895-17.768 3.831-1.733 8.34-.026 10.069 3.806 1.73 3.833.028 8.343-3.804 10.074-2.373 1.072-4.458 4.053-5.443 7.78-1.466 5.551-.331 11.625 3.037 16.248 6.302 8.672 8.202 19.67 5.087 29.428-2.579 8.077-8.254 14.118-15.57 16.574-.803.268-1.62.396-2.422.396z" fill="#e2e2e2"/></g><g><path d="m336.316 126.456c-3.181 0-6.148-2.011-7.215-5.194-1.337-3.987.81-8.303 4.795-9.641 2.669-.896 4.823-3.363 5.911-6.769 1.646-5.156.564-11.074-2.893-15.832-6.033-8.307-8.061-19.2-5.427-29.141 2.192-8.273 7.249-14.735 13.874-17.728 3.83-1.733 8.34-.027 10.069 3.805 1.73 3.833.028 8.343-3.804 10.074-2.362 1.067-4.441 4.038-5.425 7.752-1.473 5.56-.342 11.648 3.026 16.285 6.296 8.662 8.196 19.661 5.081 29.418-2.58 8.078-8.254 14.118-15.57 16.574-.802.269-1.619.397-2.422.397z" fill="#e2e2e2"/></g><g><path d="m186.301 126.456c-3.179 0-6.144-2.008-7.213-5.189-1.341-3.986.803-8.304 4.787-9.645 2.667-.897 4.821-3.371 5.909-6.785 1.644-5.156.566-11.069-2.885-15.818-6.044-8.295-8.083-19.187-5.452-29.128 2.192-8.283 7.262-14.75 13.906-17.745 3.832-1.725 8.34-.019 10.065 3.816 1.726 3.835.019 8.343-3.814 10.07-2.373 1.069-4.458 4.042-5.442 7.758-1.47 5.552-.332 11.633 3.044 16.266 6.294 8.66 8.192 19.652 5.081 29.409-2.578 8.084-8.249 14.132-15.558 16.591-.804.272-1.623.4-2.428.4z" fill="#e2e2e2"/></g><g><path clip-rule="evenodd" d="m28.035 318.543c40.974-46.529 111.956-51.029 158.498-10.067 46.542 40.991 51.044 111.924 10.041 158.453-40.974 46.529-111.956 51.029-158.498 10.067-46.542-40.991-51.044-111.924-10.041-158.453z" fill="#7bacdf" fill-rule="evenodd"/></g><g><path clip-rule="evenodd" d="m186.533 308.475c-21.295-18.75-47.697-27.981-74.012-28.01h-.346c-1.645 0-3.261.029-4.876.115 14.629 4.558 28.508 12.173 40.743 22.933 7.502 6.606 13.908 13.99 19.217 21.923 19.217 28.76 23.892 64.731 13.36 97.126-4.588 14.106-12.09 27.548-22.507 39.404-1.327 1.5-2.655 2.942-4.04 4.327-1.876 1.933-3.838 3.779-5.829 5.567-2.568 2.279-5.223 4.414-7.964 6.433-5.771 4.24-11.888 7.875-18.236 10.904-6.146 2.914-12.552 5.25-19.073 7.01-7.906 2.106-16.014 3.346-24.151 3.721 7.935 2.481 16.072 4.038 24.267 4.702 8.224.663 16.505.433 24.671-.692 7.156-.981 14.254-2.683 21.122-5.048 5.973-2.048 11.773-4.587 17.37-7.644 5.454-3 10.705-6.462 15.668-10.385 5.223-4.125 10.128-8.769 14.658-13.933.693-.779 1.385-1.558 2.049-2.365 8.281-9.952 14.572-20.942 18.9-32.481 15.84-42.375 4.962-91.933-30.991-123.607z" fill="#3987d0" fill-rule="evenodd"/></g><g><path clip-rule="evenodd" d="m54.321 342.226c28.191-32.019 77.013-35.106 109.042-6.923s35.116 76.991 6.925 109.01-77.013 35.106-109.042 6.923c-32.028-28.183-35.116-76.991-6.925-109.01z" fill="#f9f7f7" fill-rule="evenodd"/></g><g><path clip-rule="evenodd" d="m163.363 335.303c-14.802-13.039-33.212-19.385-51.505-19.269-1.847 0-3.693.087-5.54.231 1.876.779 3.722 1.615 5.54 2.538 5.713 2.885 11.138 6.548 16.159 10.962 32.029 28.183 35.116 76.991 6.925 109.01-2.914 3.288-6.031 6.288-9.32 8.971-12.436 10.096-27.383 15.808-42.676 16.991 10.907 4.471 22.564 6.317 34.106 5.625 6.752-.404 13.446-1.702 19.91-3.894 4.819-1.615 9.522-3.721 13.966-6.288 7.098-4.096 13.648-9.375 19.361-15.866 6.579-7.442 11.426-15.837 14.629-24.635 3.059-8.394 4.588-17.192 4.646-25.962.114-21.578-8.744-43.039-26.201-58.414z" fill="#e2e2e2" fill-rule="evenodd"/></g><g><path clip-rule="evenodd" d="m269.375 215.533c-15.928 18.721-14.254 28.154-12.09 37.068 7.877 32.106 44.263 40.125 22.276 71.712 1.529-.058 3.03-.26 4.53-.519 23.372-4.356 35.607-32.221 27.325-62.279-6.492-23.54-23.661-41.454-42.041-45.982z" fill="#d87e49" fill-rule="evenodd"/></g><g><path clip-rule="evenodd" d="m254.111 215.013c-23.372 4.327-35.607 32.221-27.325 62.25 7.733 28.125 30.701 48.173 52.775 47.048 1.529-.058 3.03-.26 4.53-.519 23.372-4.356 35.607-32.221 27.325-62.279-6.492-23.539-23.661-41.452-42.041-45.981-5.05-1.24-10.215-1.471-15.264-.519z" fill="#fe9737" fill-rule="evenodd"/></g><g><path clip-rule="evenodd" d="m269.375 215.533c-15.928 18.721-14.254 28.154-12.09 37.068 7.877 32.106 44.263 40.125 22.276 71.712 1.529-.058 3.03-.26 4.53-.519 23.372-4.356 35.607-32.221 27.325-62.279-6.492-23.54-23.661-41.454-42.041-45.982z" fill="#f36b37" fill-rule="evenodd"/></g><g><path d="m120.302 363.317v35.708c0 2.183-.934 4.264-2.578 5.716l-6.475 5.706-9.885 8.711c-.568.508-1.198.914-1.857 1.208-1.005.467-2.091.701-3.167.701-2.111 0-4.212-.873-5.714-2.589-2.781-3.147-2.476-7.96.67-10.742l2.649-2.335 11.133-9.818v-32.266c0-4.213 3.41-7.615 7.612-7.615 4.212 0 7.612 3.402 7.612 7.615z" fill="#838383"/><path d="m197.158 393.369c0-1.817-.041-3.645-.152-5.483-.081-1.3-.193-2.589-.345-3.868-.558-5.208-1.583-10.305-3.065-15.229-4.496-15.047-13.122-28.57-25.209-39.2-15.984-14.072-35.815-21.006-55.594-21.108-.304-.041-.619-.061-.934-.061-.284 0-.568.02-.842.051-23.098.355-45.973 10.061-62.404 28.722-13.701 15.564-21.089 35.149-21.16 55.688 0 .132-.02.264-.02.406 0 .091.01.173.02.264 0 1.695.041 3.391.152 5.097 1.441 22.631 11.6 43.332 28.619 58.308 16.096 14.163 36.109 21.128 56.041 21.128 1.502 0 3.004-.041 4.496-.122.101 0 .193.01.294.01.528 0 1.035-.051 1.532-.152 21.373-1.584 42.168-11.168 57.411-28.479 4.009-4.548 7.48-9.442 10.372-14.61 2.74-4.863 4.973-9.96 6.668-15.229 2.639-8.102 4.019-16.6 4.11-25.27.01-.173.03-.345.03-.518.001-.111-.02-.233-.02-.345zm-28.893 41.363c-1.157 1.564-2.385 3.076-3.684 4.548-10.788 12.254-24.966 19.778-39.915 22.458v-1.787c0-4.213-3.41-7.615-7.612-7.615-4.212 0-7.612 3.401-7.612 7.615v2.843c-15.416-.629-30.72-6.315-43.172-17.28-13.153-11.564-21.302-27.311-23.19-44.612h3.106c4.202 0 7.612-3.411 7.612-7.615 0-4.213-3.41-7.615-7.612-7.615h-3.106c1.522-14.173 7.337-27.504 16.948-38.418 11.823-13.422 27.706-21.189 44.218-23.108v3.026c0 4.203 3.41 7.615 7.612 7.615s7.612-3.411 7.612-7.615v-3.107c13.934 1.421 27.574 7.016 38.869 16.955 8.718 7.676 15.243 17.179 19.201 27.768 1.817 4.873 3.095 9.97 3.785 15.229.091.69.173 1.381.244 2.081h-3.146c-4.202 0-7.611 3.411-7.611 7.615 0 4.203 3.41 7.615 7.611 7.615h3.055c-.721 6.274-2.273 12.376-4.648 18.174-2.171 5.382-5.043 10.489-8.565 15.23z" fill="#62dbfb"/></g></g></svg>