<svg id="Capa_1" enable-background="new 0 0 512 512" height="512" viewBox="0 0 512 512" width="512" xmlns="http://www.w3.org/2000/svg"><g><g><path clip-rule="evenodd" d="m250.287 1.262-167.578 43.936c-11.839 3.18-21.899 3.822-23.736 15.024-40.91 252.353 64.209 360.763 190.847 448.022 7.232 4.989 5.074 5.018 12.305.029 126.638-87.23 231.816-195.639 190.905-448.051-1.837-11.203-11.897-11.845-23.736-15.024l-167.431-43.878c-6.503-1.721-4.928-1.779-11.576-.058z" fill="#f9f7f7" fill-rule="evenodd"/></g><g><path clip-rule="evenodd" d="m101.895 94.064c-12.305 117.22 5.89 222.596 94.33 312.451 18.137 18.409 37.907 35.242 58.493 50.996 1.516 1.167 1.079 1.138 2.566 0 20.557-15.754 40.386-32.616 58.464-50.996 88.469-89.855 106.635-195.231 94.359-312.451-.641-6.126-3.237-5.572-9.389-7.177l-144.716-37.926-144.717 37.926c-6.182 1.605-8.748 1.05-9.39 7.177z" fill="#62dbfb" fill-rule="evenodd"/></g><g><path clip-rule="evenodd" d="m207.218 417.309c12.626 11.436 33.97 29.845 47.5 40.201 1.516 1.167 1.079 1.138 2.566 0 20.557-15.754 40.386-32.616 58.464-50.996 88.469-89.855 106.635-195.231 94.359-312.451-.641-6.126-3.237-5.572-9.389-7.177l-38.898-10.211c10.322 113.398-17.379 207.892-103.399 295.297-15.949 16.193-33.241 31.217-51.203 45.337z" fill="#00c0fa" fill-rule="evenodd"/></g><g><path clip-rule="evenodd" d="m363.366 346.621c-6.415-3.909-13.647-7.789-21.345-12.399l-41.027 26.548c-7.611 4.464-9.36 8.577-15.075 1.284l-7.057-7.498-22.861-24.243-22.919 24.302-7.027 7.439c-5.715 7.293-7.436 3.18-15.046-1.284l-41.027-26.548c-7.698 4.609-14.93 8.49-21.345 12.399 12.888 20.655 28.634 40.639 47.588 59.894 7.202 7.323 14.667 14.383 22.336 21.209l21.345-46.299-21.345 46.299c11.955 10.678 24.29 20.743 37.061 30.487.029.029.087.058.175.117.058.029.175.058.292.058.087-.029.233-.088.379-.233 20.761-16.016 40.91-32.996 59.281-51.638 18.983-19.255 34.699-39.239 47.617-59.894z" fill="#7bacdf" fill-rule="evenodd"/></g><g><path clip-rule="evenodd" d="m272.01 381.425 6.853-26.869 3.499-13.303-26.36-10.94-12.422 5.776-13.705 6.419 3.208 12.107 6.823 26.81h16.037z" fill="#fe7600" fill-rule="evenodd"/></g><g><path clip-rule="evenodd" d="m233.083 354.615 22.919-24.302-15.775-15.229-30.909-4.493-39.336 23.631 41.027 26.548c7.611 4.464 9.331 8.577 15.046 1.284z" fill="#0078c8" fill-rule="evenodd"/></g><g><path clip-rule="evenodd" d="m300.994 360.77 41.027-26.548-39.336-23.631-23.823 1.605-22.861 18.117 22.861 24.243 7.057 7.498c5.715 7.294 7.465 3.18 15.075-1.284z" fill="#0078c8" fill-rule="evenodd"/></g><g><path clip-rule="evenodd" d="m302.686 310.592c16.592-13.799 29.043-32.879 33.125-50.85.962-4.143 1.458-8.256 1.458-12.224v-47.991-5.951h-14.93c-31.667 0-38.257-39.005-76.951-39.005h-18.808c-29.626 0-7.086 44.957-41.144 44.957h-10.701v47.991c0 3.968.496 8.081 1.429 12.224 4.111 17.971 16.562 37.051 33.154 50.85 7.99 6.652 16.912 12.078 26.331 15.608 7.377 2.742 13.88 4.113 20.353 4.113s12.947-1.371 20.353-4.113c9.418-3.532 18.341-8.958 26.331-15.609z" fill="#ffe5c1" fill-rule="evenodd"/></g><g><path clip-rule="evenodd" d="m337.268 177.938c0-38.013-38.986-63.861-75.056-67.566h-17.116c-13.88 1.546-26.156 7.06-33.97 17.212-39.277 3.443-36.391 55.751-36.391 62.636v13.303 18.992h10.701c34.058 0 11.518-44.957 41.144-44.957h18.808c38.694 0 45.284 39.005 76.951 39.005h14.93v-11.815-26.81z" fill="#838383" fill-rule="evenodd"/></g><g><path clip-rule="evenodd" d="m337.268 193.576v-15.637c0-38.013-38.986-63.861-75.056-67.566h-17.058c35.166 4.814 71.965 30.282 71.965 67.216v15.637 5.951 5.193 11.815c1.662.263 3.382.379 5.219.379h14.93v-11.815-5.222z" fill="#595959" fill-rule="evenodd"/></g><g><path clip-rule="evenodd" d="m337.268 247.518v-25.002-5.951h-14.93c-1.837 0-3.557-.117-5.219-.379v30.924c0 3.938-.525 8.052-1.458 12.195-4.082 17.971-16.562 37.051-33.154 50.85-.787.671-1.575 1.313-2.391 1.955-3.003 2.363-6.153 4.551-9.389 6.535-4.665 2.83-9.535 5.251-14.55 7.118-1.225.467-2.42.875-3.587 1.254-2.653.846-5.219 1.517-7.698 2.013 3.82.846 7.465 1.284 11.11 1.284 6.473 0 12.947-1.371 20.353-4.113 9.418-3.53 18.341-8.956 26.331-15.608 16.592-13.799 29.043-32.879 33.125-50.85.962-4.144 1.457-8.257 1.457-12.225z" fill="#fed1a3" fill-rule="evenodd"/></g><g><path clip-rule="evenodd" d="m317.119 216.185c-27.322-3.968-35.253-38.626-71.732-38.626h-18.807c-10.935 0-14.755 6.126-16.971 13.887h21.549c36.478 0 44.409 34.629 71.732 38.626h14.23v-13.887z" fill="#fed1a3" fill-rule="evenodd"/></g><g><path clip-rule="evenodd" d="m237.398 350.035 18.604-19.721c-3.645 0-7.29-.438-11.11-1.284-2.945-.7-6.007-1.634-9.243-2.83-9.418-3.53-18.341-8.956-26.331-15.608l-18.895 11.349c2.245 2.13 4.549 4.201 6.911 6.156 10.031 8.373 21.257 15.2 33.096 19.605.292.117.612.233.904.321 2.069.757 4.081 1.428 6.064 2.012z" fill="#0067b4" fill-rule="evenodd"/></g><g><path clip-rule="evenodd" d="m281.574 347.701c11.839-4.405 23.065-11.232 33.096-19.605 2.362-1.955 4.665-4.026 6.882-6.156l-18.866-11.349c-7.99 6.652-16.912 12.078-26.331 15.608-7.406 2.742-13.88 4.113-20.353 4.113l18.604 19.721c1.924-.583 3.907-1.225 5.948-1.955.35-.144.7-.261 1.02-.377z" fill="#0067b4" fill-rule="evenodd"/></g><g><path clip-rule="evenodd" d="m274.605 350.035-18.604-19.721-9.885 10.473 10.556 13.945 3.266 4.113c.991 1.254.729 1.43.35 3.005l-3.149 12.311-1.137 7.264h16.008l6.852-26.869z" fill="#e6581f" fill-rule="evenodd"/></g><g><path clip-rule="evenodd" d="m363.366 346.621c-6.415-3.909-13.647-7.789-21.345-12.399l-25.281 16.366c12.072 6.914 22.569 12.457 29.888 20.305 6.037-7.993 11.606-16.074 16.738-24.272z" fill="#3987d0" fill-rule="evenodd"/></g><g><path clip-rule="evenodd" d="m361.821 76.676 38.898 10.211c6.153 1.605 8.748 1.05 9.389 7.177 12.13 115.82-5.453 220.087-91.21 309.242-12.568 39.91-29.218 73.897-48.725 99.366 122.994-86.325 222.893-195.435 182.857-442.449-1.837-11.203-11.897-11.845-23.736-15.024l-121.068-31.742c6.648 16.629 12.509 34.629 17.496 53.767z" fill="#e2e2e2" fill-rule="evenodd"/></g><g><path clip-rule="evenodd" d="m218.561 427.724c11.635 10.386 23.765 20.276 36.157 29.786 1.516 1.167 1.079 1.138 2.566 0 12.363-9.481 24.465-19.342 36.099-29.728l-21.374-46.357h-16.008-.058-7.115-8.923l-6.532 14.178-14.696 31.887z" fill="#fe9737" fill-rule="evenodd"/></g><g><path clip-rule="evenodd" d="m259.88 455.527c11.46-8.869 22.686-18.088 33.504-27.744l-.029-.029-21.345-46.328h-16.008l19.42 42.156c1.079 2.334 2.216 3.968.262 5.689-8.981 7.935-18.225 15.608-27.643 22.989 2.362 1.896 4.607 3.676 6.677 5.251.204.175.379.292.525.408.117.088.233.204.379.292l.175.117c.029 0 .058.029.087.029.058.029.117.029.204.029.117-.029.233-.117.379-.233.029 0 .029-.029.058-.029.175-.146.408-.35.758-.613.877-.671 1.722-1.313 2.597-1.984z" fill="#fe7600" fill-rule="evenodd"/></g></g></svg>