<svg id="Capa_1" enable-background="new 0 0 512 512" height="512" viewBox="0 0 512 512" width="512" xmlns="http://www.w3.org/2000/svg"><g><g><path clip-rule="evenodd" d="m104.141 196.198 180.604-33.016 174.125 33.016v236.473c0 8.789-7.183 15.966-15.979 15.966h-322.772c-8.796 0-15.979-7.177-15.979-15.966v-236.473z" fill="#7bacdf" fill-rule="evenodd"/></g><g><path clip-rule="evenodd" d="m68.811 146.367v40.106c0 5.361 4.369 9.726 9.705 9.726h25.625 107.6l24.335-33.104-24.335-26.454h-18.969-41.603-72.653c-5.336-.001-9.705 4.394-9.705 9.726z" fill="#7bacdf" fill-rule="evenodd"/></g><g><path clip-rule="evenodd" d="m259.882 79.456c-15.011-125.004-208.867-67.995-108.714 57.184h41.603c-49.959-63.571 38.32-90.464 49.754-36.063 9.969-2.431 19.644-4.774 17.357-21.121z" fill="#fe7600" fill-rule="evenodd"/></g><g><path clip-rule="evenodd" d="m411.813 136.64c100.182-125.179-93.703-182.188-108.685-57.184-.909 17.402 6.45 21.415 17.357 21.122 11.434-54.402 99.713-27.508 49.754 36.063h41.574z" fill="#fe7600" fill-rule="evenodd"/></g><g><path clip-rule="evenodd" d="m351.269 136.64-20.171 31.053 20.171 28.505h107.6 25.595c5.336 0 9.734-4.365 9.734-9.726v-40.106c0-5.332-4.398-9.726-9.734-9.726h-72.652-41.574z" fill="#7bacdf" fill-rule="evenodd"/></g><g><path clip-rule="evenodd" d="m242.526 100.578v36.063l40.665 21.503 37.294-21.503v-36.063-5.156c0-8.759-7.212-15.966-15.979-15.966h-1.378-43.245-1.378c-8.796 0-15.979 7.207-15.979 15.966z" fill="#fe7600" fill-rule="evenodd"/></g><g><path clip-rule="evenodd" d="m222.296 196.198h118.419v252.439h-118.419z" fill="#fe7600" fill-rule="evenodd"/></g><g><path clip-rule="evenodd" d="m78.017 348.388-39.023 61.169 39.023 59.968 75.349 13.036 102.851 17.841c10.32 2.344 28.322 3.955 48.728-2.139l187.142-55.896c32.691-9.755 23.103-56.54-13.985-47.283l-19.233 4.482-100.065 23.378c-6.392 1.494-12.285 1.787-18.09 1.553-8.356-.381-16.594-1.846-25.947-2.578l-66.788-11.162c-26.709-6.299-19.087-39.08 3.958-37.381h21.256c47.438 0 46.47-57.361 4.662-64.216h-27.618c-9.91 0-18.852.264-27.941 1.055-19.995 1.787-40.519 6.152-72.711 16.083l-45.444 14.033z" fill="#ffe5c1" fill-rule="evenodd"/></g><g><path clip-rule="evenodd" d="m0 347.07v124.974.088c.029 7.382 6.098 13.417 13.516 13.417h50.985c7.447 0 13.516-6.093 13.516-13.505v-2.519-121.137-1.318c0-7.441-6.069-13.505-13.516-13.505h-50.985c-7.418 0-13.487 6.006-13.516 13.417z" fill="#fe636e" fill-rule="evenodd"/></g><g><path clip-rule="evenodd" d="m211.741 196.198h-107.6v42.889h118.155v-42.889z" fill="#3987d0" fill-rule="evenodd"/></g><g><path clip-rule="evenodd" d="m222.296 196.198h118.419v42.889h-118.419z" fill="#e6581f" fill-rule="evenodd"/></g><g><path clip-rule="evenodd" d="m458.869 196.198h-107.6-10.555v42.889h75.701c3.02 0 2.492 2.256 2.492 5.332v164.494l39.962-9.345v-106.9z" fill="#3987d0" fill-rule="evenodd"/></g><g><path clip-rule="evenodd" d="m211.741 136.64v59.558h10.555 118.418 10.555v-59.558h-30.785-77.958z" fill="#fe9737" fill-rule="evenodd"/></g><g><path clip-rule="evenodd" d="m349.246 14.039c45.327 6.152 82.767 53.581 30.257 122.602h32.309c71.363-89.147-6.45-143.724-62.566-122.602z" fill="#e6581f" fill-rule="evenodd"/></g><g><path clip-rule="evenodd" d="m259.882 79.456c-9.763-81.383-95.374-85.631-126.276-44.09 32.808-13.3 77.284-2.695 93.674 41.365 7.124 4.687 12.842 12.509 15.246 23.847v-5.156c0-8.759 7.183-15.966 15.979-15.966z" fill="#e6581f" fill-rule="evenodd"/></g><g><path clip-rule="evenodd" d="m303.128 79.456h-26.622c8.796 0 15.979 7.207 15.979 15.966v5.156 36.063h27.999v-36.063-5.156c0-8.759-7.212-15.966-15.979-15.966z" fill="#e6581f" fill-rule="evenodd"/></g><g><path clip-rule="evenodd" d="m437.261 146.367v40.106c0 1.963-.586 3.779-1.583 5.332-1.759 2.637-4.75 4.394-8.121 4.394h31.313 25.595c5.336 0 9.734-4.365 9.734-9.726v-40.106c0-5.332-4.398-9.726-9.734-9.726h-56.908c5.336-.001 9.704 4.394 9.704 9.726z" fill="#3987d0" fill-rule="evenodd"/></g><g><path clip-rule="evenodd" d="m78.017 429.624v39.9l75.349 13.036 102.851 17.841c10.32 2.344 28.322 3.955 48.728-2.139l187.142-55.896c20.992-6.269 24.54-27.801 14.601-39.959-3.284 4.072-8.092 7.353-14.601 9.14l-33.218 9.199-107.336 34.424-53.096 14.677c-20.406 5.654-34.069-.674-44.389-3.252-59.4-11.601-116.631-25.37-176.031-36.971z" fill="#fed1a3" fill-rule="evenodd"/></g><g><path clip-rule="evenodd" d="m78.017 469.525v-39.9c0 7.441-6.069 13.505-13.516 13.505h-3.636-47.35c-7.418 0-13.487-6.006-13.516-13.417v42.332.088c.029 7.382 6.098 13.417 13.516 13.417h50.985c7.447 0 13.516-6.093 13.516-13.505v-2.52z" fill="#fb2a39" fill-rule="evenodd"/></g></g></svg>