<svg id="Capa_1" enable-background="new 0 0 512 512" height="512" viewBox="0 0 512 512" width="512" xmlns="http://www.w3.org/2000/svg"><g><g><path clip-rule="evenodd" d="m264.235 382.66-67.588 16.979-9.695 49.259 77.283 19.435 71.443-19.435-9.666-49.259z" fill="#838383" fill-rule="evenodd"/></g><g><path clip-rule="evenodd" d="m335.678 448.898h-74.348-74.378-37.291c-14.776 0-26.837 12.067-26.837 26.816v21.715c0 2.798 2.278 5.072 5.081 5.072h266.849c2.774 0 5.081-2.273 5.081-5.072v-21.715c0-14.749-12.09-26.816-26.866-26.816z" fill="#cecece" fill-rule="evenodd"/></g><g><path clip-rule="evenodd" d="m261.329 399.697-64.682-.058-3.855 19.616 46.899.029 64.682-.058 5.811 29.672h25.494l-9.666-49.259z" fill="#595959" fill-rule="evenodd"/></g><g><path clip-rule="evenodd" d="m255.898 9.5h229.061c14.864 0 27.041 12.125 27.041 26.991v336.158c0 14.836-12.177 26.991-27.041 26.991h-457.918c-14.893-.001-27.041-12.156-27.041-26.992v-336.157c0-14.866 12.148-26.991 27.041-26.991z" fill="#cecece" fill-rule="evenodd"/></g><g><path clip-rule="evenodd" d="m372.969 448.898h-37.291c14.776 0 26.866 12.067 26.866 26.816v21.715c0 2.798-2.307 5.072-5.11 5.072h37.32c2.774 0 5.081-2.273 5.081-5.072v-21.715c0-14.749-12.09-26.816-26.866-26.816z" fill="#b5adb6" fill-rule="evenodd"/></g><g><path clip-rule="evenodd" d="m260.19 357.462h-212.591c-3.154 0-5.724-2.536-5.724-5.684v-294.447c0-3.119 2.57-5.684 5.724-5.684h208.386 208.415c3.125 0 5.694 2.565 5.694 5.684v294.448c0 3.148-2.57 5.684-5.694 5.684h-204.21z" fill="#f9f7f7" fill-rule="evenodd"/></g><g><path clip-rule="evenodd" d="m439.725 357.462h24.676c3.125 0 5.694-2.536 5.694-5.684v-1.72-292.727c0-3.119-2.57-5.684-5.694-5.684h-62.522v5.684 294.448 5.684h37.846z" fill="#e2e2e2" fill-rule="evenodd"/></g><g><path clip-rule="evenodd" d="m484.959 9.5h-110.121c14.864 0 27.041 12.125 27.041 26.991v15.157h62.522c3.125 0 5.694 2.565 5.694 5.684v265.592 27.136 1.72c0 3.148-2.57 5.684-5.694 5.684h-24.676l-37.846-.087v15.186c0 14.836-12.177 26.99-27.041 26.99l107.113.087h3.008c9.403 0 17.726-4.867 22.573-12.213 2.833-4.255 4.468-9.327 4.468-14.778v-8.016-328.142c0-14.866-12.177-26.991-27.041-26.991z" fill="#b5adb6" fill-rule="evenodd"/></g><g><path d="m318.799 295.111c-4.267 0-7.726-3.456-7.726-7.719v-41.739c0-4.264 3.459-7.719 7.726-7.719s7.726 3.456 7.726 7.719v41.739c.001 4.263-3.459 7.719-7.726 7.719z" fill="#fe9737"/></g><g><path d="m370.895 295.111c-4.267 0-7.726-3.456-7.726-7.719v-83.449c0-4.264 3.459-7.719 7.726-7.719s7.726 3.456 7.726 7.719v83.449c.001 4.263-3.459 7.719-7.726 7.719z" fill="#7bacdf"/></g><g><path d="m422.992 295.111c-4.267 0-7.726-3.456-7.726-7.719v-144.368c0-4.264 3.459-7.719 7.726-7.719s7.726 3.456 7.726 7.719v144.367c0 4.264-3.459 7.72-7.726 7.72z" fill="#97da7b"/></g><g><path clip-rule="evenodd" d="m125.189 131.978-17.58 17.547c-3.65 3.643-3.65 9.589 0 13.204l7.155 7.17c-2.541 4.751-4.614 9.823-6.103 15.128h-10.308c-5.14 0-9.374 4.197-9.374 9.356v24.804c0 5.13 4.234 9.327 9.374 9.327h10.688c1.577 5.159 3.65 10.056 6.191 14.69l-7.622 7.608c-3.65 3.643-3.65 9.59 0 13.204l17.58 17.547c3.621 3.643 9.578 3.643 13.229 0l7.622-7.607c4.643 2.536 9.549 4.605 14.689 6.179v10.668c0 5.13 4.234 9.327 9.374 9.327h24.851c5.169 0 9.374-4.197 9.374-9.327v-10.289c5.315-1.487 10.367-3.556 15.156-6.092l7.155 7.141c3.65 3.643 9.607 3.643 13.229 0l17.609-17.547c3.621-3.614 3.621-9.56 0-13.204l-6.775-6.762c2.745-4.868 4.994-10.056 6.629-15.536h9.374c5.169 0 9.374-4.197 9.374-9.327v-24.804c0-5.159-4.205-9.356-9.374-9.356h-8.965c-1.606-5.625-3.825-10.959-6.57-16.002l6.308-6.296c3.621-3.614 3.621-9.56 0-13.204l-17.609-17.547c-3.621-3.614-9.578-3.614-13.229 0l-6.278 6.296c-5.052-2.74-10.396-4.955-16.032-6.558v-8.977c0-5.13-4.205-9.327-9.374-9.327h-24.851c-5.14 0-9.374 4.197-9.374 9.327v9.385c-5.461 1.632-10.659 3.877-15.536 6.616l-6.775-6.762c-3.653-3.615-9.611-3.615-13.232 0z" fill="#838383" fill-rule="evenodd"/></g><g><path clip-rule="evenodd" d="m196.355 225.862c-1.343 14.311-4.497 27.719-9.169 39.699-4.322 11.193-9.987 21.132-16.587 29.322-1.285 1.603-2.599 3.148-3.971 4.605 1.08.408 2.249.641 3.475.641h24.851c3.679 0 6.892-2.128 8.41-5.247.613-1.224.964-2.623.964-4.081v-10.289c5.315-1.487 10.367-3.556 15.156-6.092l7.155 7.141c3.65 3.643 9.607 3.643 13.229 0l17.609-17.547c3.621-3.614 3.621-9.56 0-13.204l-6.775-6.762c2.745-4.868 4.994-10.056 6.629-15.536h9.374c5.169 0 9.374-4.197 9.374-9.327v-24.804c0-5.159-4.205-9.356-9.374-9.356h-8.965c-1.606-5.625-3.825-10.959-6.57-16.002l6.308-6.296c3.621-3.614 3.621-9.56 0-13.204l-17.609-17.547c-3.621-3.614-9.578-3.614-13.229 0l-6.278 6.296c-5.052-2.74-10.396-4.955-16.032-6.558v-8.977c0-5.13-4.205-9.327-9.374-9.327h-24.851c-2.103 0-4.059.7-5.636 1.895-.788.612-1.518 1.341-2.073 2.186 16.528 15.302 28.676 40.194 32.969 69.517 1.256.816 2.424 1.72 3.475 2.74 4.497 4.314 7.301 10.347 7.301 17.022 0 6.704-2.803 12.737-7.301 17.022-.762.758-1.609 1.457-2.485 2.07z" fill="#595959" fill-rule="evenodd"/></g><g><path clip-rule="evenodd" d="m182.542 183.219c-13.053 0-23.624 10.551-23.624 23.551 0 13.029 10.571 23.58 23.624 23.58 13.024 0 23.595-10.551 23.595-23.58 0-13-10.571-23.551-23.595-23.551z" fill="#f9f7f7" fill-rule="evenodd"/></g><g><path clip-rule="evenodd" d="m185.083 206.77c0 9.24-5.315 17.226-13.083 21.103 3.183 1.574 6.746 2.477 10.542 2.477 5.14 0 9.929-1.661 13.813-4.489.876-.612 1.723-1.312 2.482-2.069 4.497-4.285 7.301-10.318 7.301-17.022 0-6.675-2.803-12.708-7.301-17.022-1.051-1.02-2.219-1.924-3.475-2.74-3.709-2.39-8.089-3.789-12.82-3.789-3.796 0-7.359.904-10.542 2.478 7.768 3.847 13.083 11.833 13.083 21.073z" fill="#e2e2e2" fill-rule="evenodd"/></g></g></svg>