<svg id="Capa_1" enable-background="new 0 0 512 512" height="512" viewBox="0 0 512 512" width="512" xmlns="http://www.w3.org/2000/svg"><g><g><path clip-rule="evenodd" d="m87.509 206.306 29.296-23.202c-10.369-7.743-20.767-15.487-31.166-23.202h-15.743c-5.813 0-10.574 4.595-10.574 10.239v10.154c.001 12.963 14.985 26.181 28.187 26.011z" fill="#ffbc85" fill-rule="evenodd"/></g><g><path clip-rule="evenodd" d="m381.847 385.739v77.03c0 6.64-2.194 8.03-6.078 8.29h-369.691c-3.884-.26-6.078-1.65-6.078-8.29v-77.03c0-45.75 48.666-79.9 91.192-88.21l.051.05 101.184-3.32 97.785 3.58.443-.31c42.526 8.31 91.192 42.46 91.192 88.21z" fill="#f9f7f7" fill-rule="evenodd"/></g><g><path clip-rule="evenodd" d="m163.247 319.024 27.69-24.705c-.292 0-.584 0-.876 0-13.845-19.373-36.92-31.626-60.812-25.272-13.786 10.154-33.064 24.932-38.059 28.477l.058.057 46.705 33.696c9.902 6.013 3.008 6.836 18.226-5.928z" fill="#cecece" fill-rule="evenodd"/></g><g><path clip-rule="evenodd" d="m243.892 331.277 46.325-33.441.438-.312c-5.112-3.602-25.149-19.004-38.964-29.158-29.033-2.212-50.005 12.65-60.754 25.953l26.288 23.457 8.441 7.573c15.247 12.764 8.324 11.941 18.226 5.928z" fill="#cecece" fill-rule="evenodd"/></g><g><path clip-rule="evenodd" d="m209.105 348.721 8.12-30.945-26.288-23.457-27.69 24.705 7.799 29.697h19.015z" fill="#3987d0" fill-rule="evenodd"/></g><g><path clip-rule="evenodd" d="m235.217 433.217-26.113-84.496h-19.044-19.015l-26.142 84.496c-.204.737-.409.794-.058 1.447l19.803 36.391h25.412 25.412l19.803-36.391c.351-.653.176-.71-.058-1.447z" fill="#7bacdf" fill-rule="evenodd"/></g><g><path clip-rule="evenodd" d="m209.105 348.721 8.12-30.945-26.288-23.457-9.522 8.481 16.766 14.976-8.12 30.945z" fill="#0067b4" fill-rule="evenodd"/></g><g><path clip-rule="evenodd" d="m235.217 433.217-26.113-84.496h-19.044l26.113 84.496c.234.737.438.794.058 1.447l-19.774 36.391h19.015l19.803-36.391c.351-.653.176-.71-.058-1.447z" fill="#3987d0" fill-rule="evenodd"/></g><g><path clip-rule="evenodd" d="m164.854 317.577 16.561-14.778 9.522-8.481c-.292 0-.584 0-.876 0-8.324 0-16.649-1.702-26.142-5.162-12.443-4.481-24.214-11.516-34.671-20.11-5.053 3.716-10.836 8.055-16.386 12.253 13.699 15.714 31.516 28.874 50.911 35.909.35.114.73.256 1.081.369z" fill="#b5adb6" fill-rule="evenodd"/></g><g><path clip-rule="evenodd" d="m216.407 317.067c19.657-7.176 37.621-20.677 51.349-36.703-5.491-4.141-11.187-8.396-16.065-11.998-10.661 8.906-22.724 16.167-35.488 20.791-9.172 3.319-17.233 5.049-25.265 5.162z" fill="#b5adb6" fill-rule="evenodd"/></g><g><path clip-rule="evenodd" d="m369.927 471.054h.175c-.058 0-.116 0-.175 0zm-100.682-158.072c40.016 11.119 81.872 43.567 81.872 85.999v72.073h18.81.175 5.666c3.885-.255 6.075-1.645 6.075-8.282v-77.036c0-45.751-48.662-79.901-91.189-88.212l-.438.312z" fill="#e2e2e2" fill-rule="evenodd"/></g><g><path clip-rule="evenodd" d="m251.691 268.366c20.475-17.103 35.81-40.22 40.921-62.06 1.227-5.191 1.869-10.296 1.869-15.231v-49.353-7.431h-19.19c-40.688 0-49.158-48.616-98.842-48.616h-33.006c-38.059 0-9.084 56.047-52.868 56.047h-4.935v49.353c0 4.935.643 10.041 1.869 15.231 5.199 22.124 20.855 45.552 41.739 62.741 10.457 8.594 22.228 15.628 34.671 20.11 9.493 3.46 17.817 5.162 26.142 5.162h.876c8.032-.113 16.094-1.844 25.265-5.162 12.765-4.624 24.828-11.885 35.489-20.791z" fill="#ffe5c1" fill-rule="evenodd"/></g><g><path clip-rule="evenodd" d="m158.545 232.968c0 36.362 63.061 36.362 63.061 0 0-3.404-2.862-6.155-6.338-6.155h-50.414c-3.476 0-6.309 2.751-6.309 6.155z" fill="#fbf8f8" fill-rule="evenodd"/></g><g><path clip-rule="evenodd" d="m292.612 206.306c13.232.17 28.186-13.047 28.186-26.01v-10.154c0-5.644-4.761-10.239-10.544-10.239h-15.773l-12.618 18.919z" fill="#ffbc85" fill-rule="evenodd"/></g><g><path clip-rule="evenodd" d="m90.576 159.902c43.784 0 14.809-56.075 52.868-56.075h33.006c49.684 0 58.154 48.644 98.842 48.644h19.19v-14.749-33.413c0-51.14-58.33-84.666-107.342-84.808h-.643c-22.053.057-42.148 6.921-54.094 22.01-50.473 4.311-46.763 69.52-46.763 78.114v16.593 23.684z" fill="#838383" fill-rule="evenodd"/></g><g><path clip-rule="evenodd" d="m294.482 104.309c0-51.14-58.33-84.666-107.342-84.808h-.643c-21.994.057-42.06 6.892-54.036 21.897 10.223-4.822 22.286-7.119 34.992-7.148h.672c49.012.142 107.313 33.668 107.313 84.808v33.413h19.044v-14.749z" fill="#595959" fill-rule="evenodd"/></g><g><path clip-rule="evenodd" d="m275.291 152.471c-40.688 0-49.158-48.644-98.842-48.644h-33.006c-15.51 0-19.891 9.303-22.578 20.308h51.787c49.684 0 56.256 45.496 96.943 45.723l5.842.028c0 14.409.467 19.855-4.031 33.838-5.842 18.153-15.422 37.27-31.516 50.686-10.661 8.906-22.724 16.196-35.459 20.791-8.617 3.148-16.912 5.105-26.171 5.162-17.233 0-54.24-19.004-67.618-29.895 5.52 6.694 11.8 12.962 18.606 18.578 10.457 8.594 22.228 15.628 34.671 20.11 9.493 3.46 17.817 5.162 26.142 5.162h.876c8.032-.113 16.094-1.844 25.265-5.162 12.764-4.623 24.827-11.884 35.488-20.791 20.475-17.103 35.81-40.22 40.921-62.06 1.227-5.191 1.869-10.296 1.869-15.231v-31.172-7.431z" fill="#fed1a3" fill-rule="evenodd"/></g><g><path clip-rule="evenodd" d="m158.924 237.704h62.302c.234-1.503.38-3.092.38-4.737 0-3.404-2.862-6.155-6.338-6.155h-50.414c-3.476 0-6.309 2.751-6.309 6.155 0 1.646.116 3.234.379 4.737z" fill="#e2e2e2" fill-rule="evenodd"/></g><g><path d="m73.946 416.619v54.44h-15.452v-54.44c0-4.14 3.451-7.5 7.726-7.5 4.265 0 7.726 3.36 7.726 7.5z" fill="#e2e2e2"/></g><g><path d="m138.537 189.725c-1.97 0-3.94-.727-5.447-2.181-3.026-2.921-3.041-7.669-.032-10.607 4.08-3.984 9.513-6.183 15.297-6.19h.03c5.787 0 11.231 2.192 15.333 6.177 3.017 2.93 3.015 7.678-.003 10.606-3.018 2.929-7.91 2.928-10.927-.003-1.182-1.148-2.746-1.78-4.404-1.78-.003 0-.006 0-.009 0-1.646.002-3.195.63-4.359 1.767-1.509 1.473-3.494 2.211-5.479 2.211z" fill="#838383"/></g><g><path d="m221.898 189.725c-1.97 0-3.94-.727-5.448-2.182-3.026-2.92-3.04-7.669-.032-10.606 4.081-3.984 9.514-6.183 15.298-6.19h.03c5.787 0 11.231 2.192 15.333 6.177 3.017 2.93 3.015 7.679-.003 10.606-3.018 2.929-7.91 2.928-10.927-.003-1.182-1.148-2.746-1.78-4.404-1.78-.003 0-.006 0-.008 0-1.647.002-3.195.63-4.36 1.767-1.51 1.473-3.494 2.211-5.479 2.211z" fill="#838383"/></g><path d="m415.703 229.398-27.018-26.265c-.001-.001-.002-.002-.003-.003-.003-.003-.007-.006-.011-.01-.096-.092-.185-.171-.27-.238-1.371-1.208-3.186-1.95-5.184-1.95-2.133 0-4.065.839-5.463 2.196 0 0-.001 0-.001.001l-27.047 26.265c-3.017 2.93-3.016 7.679.002 10.607 1.509 1.464 3.485 2.195 5.462 2.195s3.956-.732 5.464-2.197l13.857-13.456v59.35c0 4.143 3.459 7.5 7.726 7.5s7.726-3.357 7.726-7.5v-59.336l13.824 13.439c1.509 1.467 3.488 2.2 5.467 2.2 1.975 0 3.951-.73 5.459-2.192 3.021-2.926 3.025-7.674.01-10.606z" fill="#7bacdf"/><path d="m501.427 158.712-27.047-26.265c-.095-.092-.184-.171-.268-.236-1.373-1.214-3.193-1.961-5.197-1.961-2.001 0-3.818.744-5.19 1.955-.081.064-.167.14-.26.229-.005.004-.01.008-.014.013-.001.001-.002.002-.003.003l-27.018 26.265c-3.015 2.932-3.012 7.68.008 10.607 1.509 1.462 3.483 2.192 5.459 2.192 1.979 0 3.958-.733 5.467-2.2l13.824-13.439v59.335c0 4.143 3.459 7.5 7.726 7.5s7.726-3.357 7.726-7.5v-59.349l13.857 13.456c1.509 1.465 3.486 2.197 5.464 2.197 1.977 0 3.954-.731 5.462-2.195 3.02-2.928 3.021-7.677.004-10.607z" fill="#7bacdf"/><g><path clip-rule="evenodd" d="m323.924 319.222c39.227-43.255 107.108-47.424 151.651-9.36 44.514 38.093 48.837 104.01 9.61 147.265-39.227 43.227-107.108 47.424-151.651 9.332-44.514-38.064-48.837-104.01-9.61-147.237z" fill="#fe9737" fill-rule="evenodd"/></g><g><path clip-rule="evenodd" d="m475.575 309.862c-26.229-22.436-60.579-30.179-92.358-23.967-4.264.851-8.471 1.929-12.589 3.262 17.116 3.687 33.532 11.516 47.61 23.542 44.543 38.093 48.837 104.01 9.639 147.265-13.056 14.38-29.238 24.421-46.705 30.066 3.125.652 6.309 1.191 9.493 1.617 9.201 1.135 18.518 1.135 27.719 0 24.944-3.148 48.866-14.749 66.8-34.519 39.228-43.256 34.905-109.173-9.609-147.266z" fill="#f36b37" fill-rule="evenodd"/></g><path d="m413.595 380.674h-17.963c-4.791 0-8.689-3.799-8.689-8.469 0-4.654 3.898-8.44 8.689-8.44h34.262c4.267 0 7.726-3.357 7.726-7.5s-3.459-7.5-7.726-7.5h-17.627v-11.447c0-4.143-3.459-7.5-7.726-7.5s-7.726 3.357-7.726 7.5v11.447h-1.182c-13.312 0-24.142 10.516-24.142 23.44 0 12.94 10.83 23.469 24.142 23.469h17.963c4.646 0 8.572 3.865 8.572 8.44 0 4.654-3.898 8.44-8.689 8.44h-34.262c-4.267 0-7.726 3.357-7.726 7.5s3.459 7.5 7.726 7.5h17.568v11.447c0 4.143 3.459 7.5 7.726 7.5s7.726-3.357 7.726-7.5v-11.447h1.24c13.312 0 24.142-10.516 24.142-23.44s-10.777-23.44-24.024-23.44z" fill="#f9f7f7"/></g></svg>