<svg id="Capa_1" enable-background="new 0 0 497 497" height="512" viewBox="0 0 497 497" width="512" xmlns="http://www.w3.org/2000/svg"><g><g><path clip-rule="evenodd" d="m57.383 77.991c83.961-95.327 229.29-104.54 324.617-20.607 95.356 83.961 104.568 229.29 20.607 324.617-83.961 95.356-229.29 104.568-324.617 20.607s-104.539-229.29-20.607-324.617z" fill="#7bacdf" fill-rule="evenodd"/></g><g><path clip-rule="evenodd" d="m382.001 57.383c-43.596-38.38-97.652-57.287-151.537-57.372h-.765c-3.288 0-6.605.085-9.921.227 29.905 9.326 58.393 24.944 83.422 46.969 15.363 13.549 28.488 28.658 39.344 44.928 39.372 58.903 48.953 132.602 27.382 198.96-9.411 28.941-24.746 56.465-46.147 80.729-2.665 3.061-5.414 6.038-8.22 8.901-3.883 3.968-7.852 7.738-11.934 11.367-5.272 4.677-10.715 9.071-16.299 13.181-11.849 8.702-24.349 16.157-37.36 22.337-12.642 5.981-25.71 10.771-39.061 14.371-16.214 4.337-32.796 6.888-49.492 7.625 16.242 5.046 32.91 8.277 49.69 9.638 16.837 1.389 33.817.907 50.541-1.417 14.683-2.041 29.168-5.471 43.284-10.318 12.189-4.195 24.094-9.439 35.546-15.704 11.168-6.094 21.911-13.209 32.116-21.288 10.658-8.419 20.721-17.943 30.018-28.516 1.417-1.587 2.806-3.203 4.167-4.847 16.979-20.381 29.877-42.916 38.692-66.528 32.456-86.796 10.233-188.331-63.466-253.243z" fill="#3987d0" fill-rule="evenodd"/></g><g><path clip-rule="evenodd" d="m96.444 112.374c64.969-73.756 177.417-80.899 251.173-15.93 73.784 64.969 80.928 177.417 15.959 251.173-64.969 73.784-177.417 80.928-251.202 15.959-73.756-64.969-80.899-177.417-15.93-251.202z" fill="#f9f7f7" fill-rule="evenodd"/></g><g><path clip-rule="evenodd" d="m347.617 96.444c-34.1-30.047-76.506-44.673-118.656-44.418-4.252.028-8.504.198-12.727.539 4.309 1.757 8.532 3.713 12.727 5.839 13.153 6.661 25.681 15.08 37.247 25.256 73.756 64.969 80.899 177.445 15.93 251.202-6.661 7.597-13.861 14.485-21.458 20.636-28.629 23.272-63.098 36.453-98.332 39.174 25.143 10.318 52.015 14.598 78.547 12.982 15.59-.964 31.039-3.968 45.92-8.957 11.112-3.713 21.883-8.56 32.201-14.513 16.299-9.411 31.407-21.628 44.56-36.566 15.137-17.178 26.333-36.453 33.732-56.749 7.03-19.36 10.573-39.628 10.658-59.867.283-49.662-20.126-99.154-60.349-134.558z" fill="#e2e2e2" fill-rule="evenodd"/></g><g><path d="m228.961 85.207c-4.142 0-7.5-3.357-7.5-7.5v-25.682c0-4.143 3.358-7.5 7.5-7.5s7.5 3.357 7.5 7.5v25.682c0 4.143-3.358 7.5-7.5 7.5z" fill="#7bacdf"/></g><g><path d="m77.707 237.51h-25.681c-4.142 0-7.5-3.357-7.5-7.5s3.358-7.5 7.5-7.5h25.681c4.142 0 7.5 3.357 7.5 7.5s-3.358 7.5-7.5 7.5z" fill="#7bacdf"/></g><g><path d="m240.895 415.153c-4.142 0-7.5-3.357-7.5-7.5v-23.98c0-4.143 3.358-7.5 7.5-7.5s7.5 3.357 7.5 7.5v23.98c0 4.143-3.358 7.5-7.5 7.5z" fill="#7bacdf"/></g><g><path d="m407.966 238.502h-25.653c-4.143 0-7.5-3.357-7.5-7.5s3.357-7.5 7.5-7.5h25.653c4.143 0 7.5 3.357 7.5 7.5s-3.358 7.5-7.5 7.5z" fill="#3987d0"/></g><g><path d="m192.278 281.503c-1.728 0-3.464-.594-4.879-1.807-3.145-2.696-3.507-7.432-.811-10.576l35.922-41.886v-79.513c0-4.143 3.358-7.5 7.5-7.5s7.5 3.357 7.5 7.5v82.288c0 1.791-.641 3.522-1.807 4.883l-37.729 43.993c-1.483 1.73-3.583 2.618-5.696 2.618z" fill="#838383"/></g><g><path clip-rule="evenodd" d="m326.244 306.345-19.899 19.899c-4.11 4.11-4.11 10.856 0 14.967l8.107 8.107c-2.863 5.414-5.187 11.168-6.888 17.178h-11.679c-5.811 0-10.601 4.762-10.601 10.573v28.148c0 5.811 4.79 10.573 10.601 10.573h12.104c1.757 5.839 4.11 11.395 7.001 16.667l-8.645 8.617c-4.11 4.11-4.11 10.857 0 14.967l19.899 19.899c4.11 4.11 10.856 4.11 14.967 0l8.646-8.617c5.244 2.863 10.8 5.216 16.639 6.973v12.104c0 5.839 4.762 10.601 10.573 10.601h28.147c5.811 0 10.573-4.762 10.573-10.601v-11.65c6.009-1.701 11.764-4.053 17.178-6.916l8.107 8.107c4.11 4.11 10.856 4.11 14.967 0l19.899-19.899c4.11-4.11 4.11-10.857 0-14.967l-7.682-7.682c3.118-5.499 5.669-11.395 7.54-17.603h10.601c5.839 0 10.601-4.762 10.601-10.573v-28.148c0-5.811-4.762-10.573-10.601-10.573h-10.176c-1.786-6.378-4.309-12.444-7.427-18.141l7.143-7.143c4.11-4.11 4.11-10.856 0-14.967l-19.899-19.899c-4.11-4.11-10.857-4.11-14.967 0l-7.143 7.143c-5.698-3.118-11.764-5.641-18.141-7.427v-10.176c0-5.811-4.762-10.601-10.573-10.601h-28.147c-5.811 0-10.573 4.79-10.573 10.601v10.601c-6.179 1.871-12.075 4.422-17.603 7.54l-7.682-7.682c-4.11-4.11-10.857-4.11-14.967 0z" fill="#838383" fill-rule="evenodd"/></g><g><path clip-rule="evenodd" d="m406.775 412.784c-1.502 16.214-5.102 31.436-10.346 44.985-4.932 12.699-11.31 23.952-18.793 33.278-1.446 1.814-2.948 3.543-4.479 5.187 1.219.482 2.523.765 3.912.765h28.147c4.167 0 7.767-2.438 9.496-5.953.709-1.417 1.077-2.976 1.077-4.649v-11.65c6.009-1.701 11.764-4.053 17.178-6.916l8.107 8.107c4.11 4.11 10.856 4.11 14.967 0l19.899-19.899c4.11-4.11 4.11-10.857 0-14.967l-7.682-7.682c3.118-5.499 5.669-11.395 7.54-17.603h10.601c5.839 0 10.601-4.762 10.601-10.573v-28.148c0-5.811-4.762-10.573-10.601-10.573h-10.176c-1.786-6.378-4.309-12.444-7.427-18.141l7.143-7.143c4.11-4.11 4.11-10.856 0-14.967l-19.899-19.899c-4.11-4.11-10.857-4.11-14.967 0l-7.143 7.143c-5.698-3.118-11.764-5.641-18.141-7.427v-10.176c0-5.811-4.762-10.601-10.573-10.601h-28.147c-2.381 0-4.592.822-6.349 2.154-.935.68-1.729 1.531-2.381 2.466 18.708 17.348 32.456 45.58 37.332 78.83 1.417.907 2.721 1.956 3.94 3.118 5.074 4.847 8.249 11.707 8.249 19.304 0 7.568-3.175 14.428-8.249 19.275-.88.853-1.816 1.647-2.836 2.355z" fill="#595959" fill-rule="evenodd"/></g><g><path clip-rule="evenodd" d="m391.156 364.426c-14.768 0-26.73 11.962-26.73 26.73 0 14.74 11.962 26.702 26.73 26.702 14.74 0 26.702-11.962 26.702-26.702 0-14.768-11.962-26.73-26.702-26.73z" fill="#f9f7f7" fill-rule="evenodd"/></g><g><path clip-rule="evenodd" d="m394.048 391.156c0 10.46-6.038 19.53-14.825 23.896 3.6 1.786 7.653 2.806 11.934 2.806 5.839 0 11.225-1.871 15.619-5.074 1.02-.709 1.956-1.502 2.835-2.353 5.074-4.847 8.249-11.707 8.249-19.275 0-7.597-3.175-14.456-8.249-19.304-1.219-1.162-2.523-2.211-3.94-3.118-4.195-2.721-9.184-4.309-14.513-4.309-4.28 0-8.334 1.02-11.934 2.806 8.786 4.367 14.824 13.437 14.824 23.925z" fill="#e2e2e2" fill-rule="evenodd"/></g></g></svg>