<svg id="Capa_1" enable-background="new 0 0 512 512" height="512" viewBox="0 0 512 512" width="512" xmlns="http://www.w3.org/2000/svg"><g><g><path clip-rule="evenodd" d="m70.011 280.591-20.517 20.483c-4.253 4.229-4.282 11.162-.029 15.42l8.333 8.371c-2.988 5.581-5.402 11.507-7.155 17.692l-12.011-.029c-6.006 0-10.919 4.891-10.919 10.903l-.057 28.998c-.029 6.013 4.885 10.932 10.862 10.932l12.471.029c1.81 6.012 4.224 11.766 7.155 17.174l-8.879 8.889c-4.253 4.229-4.282 11.162-.029 15.42l20.431 20.569c4.253 4.229 11.178 4.258 15.431.029l8.908-8.889c5.373 2.963 11.121 5.408 17.097 7.221v12.485c-.029 6.012 4.885 10.932 10.862 10.961l28.994.058c5.977 0 10.891-4.891 10.919-10.903l.029-12.025c6.178-1.755 12.098-4.143 17.672-7.077l8.333 8.371c4.224 4.229 11.178 4.258 15.431.029l20.517-20.483c4.253-4.229 4.253-11.191.029-15.448l-7.873-7.911c3.218-5.696 5.833-11.766 7.787-18.124l10.919.029c6.006 0 10.919-4.891 10.919-10.903l.057-28.998c.029-6.013-4.885-10.932-10.891-10.961h-10.46c-1.839-6.588-4.425-12.859-7.615-18.728l7.356-7.336c4.253-4.229 4.253-11.191.029-15.42l-20.431-20.569c-4.253-4.258-11.178-4.258-15.431-.029l-7.356 7.336c-5.862-3.222-12.098-5.811-18.678-7.681l.029-10.5c.029-5.984-4.885-10.903-10.862-10.932l-28.994-.058c-6.006 0-10.919 4.891-10.919 10.903l-.029 10.932c-6.35 1.927-12.442 4.517-18.132 7.71l-7.873-7.911c-4.252-4.258-11.177-4.258-15.43-.029z" fill="#838383" fill-rule="evenodd"/></g><g><path clip-rule="evenodd" d="m152.74 390.484c-1.58 16.714-5.316 32.393-10.747 46.374-5.115 13.061-11.695 24.654-19.425 34.263-1.494 1.841-3.046 3.625-4.626 5.322 1.236.518 2.615.777 4.023.806l28.994.058c4.282 0 8.017-2.503 9.799-6.128.718-1.438 1.121-3.078 1.121-4.775l.029-12.025c6.178-1.755 12.098-4.143 17.672-7.077l8.333 8.371c4.224 4.229 11.178 4.258 15.431.029l20.517-20.483c4.253-4.229 4.253-11.191.029-15.448l-7.873-7.911c3.218-5.696 5.833-11.766 7.787-18.124l10.919.029c6.006 0 10.919-4.891 10.919-10.903l.057-28.998c.029-6.013-4.885-10.932-10.891-10.961h-10.46c-1.839-6.588-4.425-12.859-7.615-18.728l7.356-7.336c4.253-4.229 4.253-11.191.029-15.42l-20.431-20.569c-4.253-4.258-11.178-4.258-15.431-.029l-7.356 7.336c-5.862-3.222-12.098-5.811-18.678-7.681l.029-10.5c.029-5.984-4.885-10.903-10.862-10.932l-28.994-.058c-2.443 0-4.741.806-6.552 2.215-.948.69-1.782 1.553-2.443 2.532 19.224 17.922 33.333 47.036 38.275 81.327 1.437.949 2.816 2.014 4.052 3.222 5.23 5.034 8.477 12.083 8.448 19.907-.029 7.825-3.276 14.873-8.534 19.879-.89.863-1.867 1.697-2.901 2.416z" fill="#595959" fill-rule="evenodd"/></g><g><path clip-rule="evenodd" d="m136.734 340.601c-15.201-.029-27.528 12.284-27.557 27.473-.029 15.218 12.241 27.56 27.442 27.588 15.201.058 27.528-12.255 27.557-27.473.029-15.189-12.269-27.56-27.442-27.588z" fill="#f9f7f7" fill-rule="evenodd"/></g><g><path clip-rule="evenodd" d="m139.637 368.16c0 10.788-6.236 20.109-15.287 24.597 3.707 1.87 7.873 2.906 12.27 2.906 6.006.029 11.58-1.899 16.12-5.178 1.034-.719 2.011-1.553 2.902-2.417 5.259-5.006 8.506-12.054 8.534-19.879.029-7.825-3.218-14.873-8.448-19.907-1.236-1.208-2.615-2.273-4.052-3.222-4.31-2.819-9.425-4.43-14.942-4.459-4.425 0-8.592 1.036-12.27 2.877 9.023 4.516 15.201 13.865 15.173 24.682z" fill="#e2e2e2" fill-rule="evenodd"/></g><g><path clip-rule="evenodd" d="m222.567 400.121h55.545 55.517c0-89.382 86.378-100.947 86.263-197.032-.086-91.597-70.947-136.648-141.78-135.641-70.861-1.007-141.694 44.044-141.809 135.641-.115 96.086 86.264 107.65 86.264 197.032z" fill="#fe9737" fill-rule="evenodd"/></g><g><path clip-rule="evenodd" d="m239.951 71.448c59.051 6.3 113.504 45.194 121.292 116.942.632 5.725.948 11.68.948 17.807.029 8.918-.718 17.117-2.069 24.712-1.58 8.947-3.994 17.031-7.04 24.539-2.356 5.811-5.086 11.277-8.075 16.426-23.189 40.016-62.269 63.692-68.304 116.97h36.666c3.477-15.506 11.207-30.206 23.247-42.26 5.488-5.495 11.552-10.098 17.96-13.809 25.574-38.146 65.401-64.411 65.315-129.686-.086-91.597-70.947-136.648-141.78-135.641-12.873-.201-25.717 1.152-38.16 4z" fill="#f36b37" fill-rule="evenodd"/></g><g><path d="m278.112 37.26c-4.204 0-7.612-3.407-7.612-7.611v-22.038c0-4.204 3.407-7.611 7.612-7.611s7.611 3.407 7.611 7.611v22.037c0 4.204-3.407 7.612-7.611 7.612z" fill="#fe9737"/></g><g><path d="m196.503 56.85c-1.949 0-3.899-.744-5.386-2.233l-15.574-15.593c-2.97-2.974-2.967-7.793.007-10.764 2.973-2.97 7.793-2.967 10.764.007l15.574 15.593c2.97 2.974 2.967 7.793-.007 10.764-1.485 1.484-3.431 2.226-5.378 2.226z" fill="#fe9737"/></g><g><path d="m359.692 56.85c-1.946 0-3.893-.742-5.379-2.226-2.974-2.971-2.977-7.79-.007-10.764l15.574-15.593c2.971-2.974 7.791-2.977 10.764-.007 2.974 2.971 2.977 7.79.007 10.764l-15.574 15.593c-1.486 1.489-3.436 2.233-5.385 2.233z" fill="#fe9737"/></g><path d="m300.123 224.85h-47.729c-4.204 0-7.611 3.407-7.611 7.611s3.407 7.611 7.611 7.611h16.699v148.771c0 4.204 3.407 7.612 7.612 7.612s7.611-3.407 7.611-7.612v-148.77h15.808c4.204 0 7.612-3.407 7.612-7.611s-3.409-7.612-7.613-7.612z" fill="#e2e2e2"/><g><path clip-rule="evenodd" d="m231.906 449.027 42.614-17.088 49.798 17.088v31.472c0 17.318-14.167 31.501-31.465 31.501h-29.511c-17.299 0-31.436-14.183-31.436-31.501z" fill="#838383" fill-rule="evenodd"/></g><g><path clip-rule="evenodd" d="m215.613 388.844h124.998c5.575 0 10.115 4.545 10.115 10.126v39.901c0 5.581-4.54 10.155-10.115 10.155h-124.998c-5.575 0-10.144-4.574-10.144-10.155v-39.901c0-5.58 4.569-10.126 10.144-10.126z" fill="#f9f7f7" fill-rule="evenodd"/></g><g><path clip-rule="evenodd" d="m310.152 449.027h-78.246v19.591h55.948c13.362 0 14.167 3.797 14.167 15.736v4.689 11.047c0 3.884-.718 7.624-2.04 11.076 13.908-3.251 24.339-15.794 24.339-30.667v-11.018-20.454z" fill="#595959" fill-rule="evenodd"/></g><g><path clip-rule="evenodd" d="m276.704 388.844c-.833 3.711-1.408 7.48-1.753 11.277-.977 11.104.172 22.381 3.477 33.141 1.523 5.034 3.534 9.925 5.977 14.643l.603 1.122h25.143 11.523c-.201-.374-.402-.748-.603-1.122-7.73-14.844-10.891-31.501-9.454-47.784.345-3.797.92-7.566 1.753-11.277z" fill="#e2e2e2" fill-rule="evenodd"/></g><g><path clip-rule="evenodd" d="m336.617 469.078c33.793 33.831 88.591 33.831 122.384 0s33.793-88.663 0-122.494-88.591-33.831-122.384 0-33.793 88.663 0 122.494z" fill="#97da7b" fill-rule="evenodd"/></g><g><path clip-rule="evenodd" d="m427.765 469.078c33.793-33.831 33.793-88.663 0-122.494-12.902-12.917-28.879-20.914-45.574-23.964 27.011-4.948 55.919 3.049 76.809 23.964 33.793 33.831 33.793 88.663 0 122.494-20.891 20.914-49.798 28.912-76.809 23.964 16.695-3.05 32.672-11.047 45.574-23.964z" fill="#68ca44" fill-rule="evenodd"/></g><path d="m429.588 389.88-26.38-26.409c-.111-.111-.212-.201-.309-.28-1.348-1.21-3.123-1.952-5.077-1.952-2.105 0-4.009.854-5.387 2.235l-26.403 26.405c-2.972 2.972-2.972 7.792.001 10.764 1.486 1.486 3.434 2.229 5.382 2.229s3.896-.743 5.383-2.23l13.413-13.414v59.585c0 4.204 3.407 7.612 7.612 7.612 4.204 0 7.612-3.407 7.612-7.612v-59.57l13.383 13.398c1.487 1.488 3.436 2.232 5.385 2.232 1.946 0 3.893-.742 5.38-2.226 2.972-2.973 2.975-7.793.005-10.767z" fill="#e2e2e2"/></g></svg>