<svg id="Capa_1" enable-background="new 0 0 512 512" height="512" viewBox="0 0 512 512" width="512" xmlns="http://www.w3.org/2000/svg"><g><g><path d="m431.66 175.776c-1.335 0-2.687-.346-3.921-1.073l-95.377-56.312-51.48-30.362c-3.676-2.168-4.898-6.904-2.73-10.579 2.167-3.676 6.908-4.899 10.579-2.73l51.483 30.363 95.38 56.313c3.675 2.169 4.895 6.906 2.726 10.581-1.44 2.441-4.016 3.799-6.66 3.799zm-353.141.943c-2.644 0-5.219-1.358-6.661-3.8-2.169-3.675-.949-8.412 2.726-10.581l97.168-57.255 51.486-30.364c3.674-2.166 8.412-.946 10.579 2.73 2.168 3.675.946 8.411-2.73 10.579l-51.483 30.363-97.165 57.254c-1.232.728-2.585 1.074-3.92 1.074z" fill="#595959"/></g><g><path clip-rule="evenodd" d="m0 193.476v253.251.146c.058 18.82 15.477 34.221 34.312 34.221h443.346c18.894 0 34.342-15.459 34.342-34.367v-253.251c0-18.878-15.448-34.338-34.342-34.338h-61.062-160.611-160.611-61.062c-18.835 0-34.254 15.372-34.312 34.192z" fill="#62dbfb" fill-rule="evenodd"/></g><g><path clip-rule="evenodd" d="m477.892 210.601v236.126c0 18.908-15.448 34.367-34.342 34.367h34.108c18.894 0 34.342-15.459 34.342-34.367v-253.251c0-18.878-15.448-34.338-34.342-34.338h-34.108c18.894 0 34.342 15.459 34.342 34.338z" fill="#00c0fa" fill-rule="evenodd"/></g><g fill="#595959"><path d="m186.075 230.959c-4.268 0-7.726 3.459-7.726 7.726v30.855l-25.074-35.326c-.038-.053-.074-.092-.111-.138-1.409-1.888-3.653-3.116-6.19-3.116-4.268 0-7.726 3.459-7.726 7.726v54.765c0 4.268 3.459 7.726 7.726 7.726s7.726-3.459 7.726-7.726v-30.53l23.994 33.804c.337.475.724.892 1.139 1.267 1.405 1.928 3.674 3.186 6.242 3.186 4.268 0 7.726-3.459 7.726-7.726v-54.765c.001-4.269-3.458-7.728-7.726-7.728z"/><path d="m351.71 301.176c7.396 0 12.924-6.98 12.924-13.22v-49.271c0-4.268-3.459-7.726-7.726-7.726s-7.726 3.459-7.726 7.726v47.038h-11.179v-27.342c0-4.268-3.459-7.726-7.726-7.726s-7.726 3.459-7.726 7.726v27.342h-11.18v-47.038c0-4.268-3.459-7.726-7.726-7.726s-7.726 3.459-7.726 7.726v49.271c0 6.24 5.527 13.22 12.925 13.22h21.435z"/><path d="m128.343 346.684c-4.268 0-7.726 3.459-7.726 7.726v19.656h-27.825v-19.656c0-4.268-3.459-7.726-7.726-7.726-4.268 0-7.726 3.459-7.726 7.726v54.765c0 4.268 3.459 7.726 7.726 7.726 4.268 0 7.726-3.459 7.726-7.726v-19.656h27.825v19.656c0 4.268 3.459 7.726 7.726 7.726 4.268 0 7.726-3.459 7.726-7.726v-54.765c0-4.267-3.458-7.726-7.726-7.726z"/><path d="m281.917 346.684c-4.268 0-7.726 3.459-7.726 7.726v54.765c0 4.268 3.459 7.726 7.726 7.726s7.726-3.459 7.726-7.726v-54.765c0-4.267-3.459-7.726-7.726-7.726z"/><path d="m428.921 372.576h-3.738c-4.268 0-7.726 3.459-7.726 7.726s3.459 7.726 7.726 7.726h3.738c2.794 0 3.691.786 3.691 3.232v4.646c0 1.799 0 5.541-5.91 5.541h-14.163c-3.298 0-3.459-3.518-3.459-3.553v-30.071c0-3.561 1.708-5.687 4.568-5.687h21.843c4.268 0 7.726-3.459 7.726-7.726s-3.459-7.726-7.726-7.726h-21.843c-11.413 0-20.021 9.089-20.021 21.14v30.071c0 7.665 6.01 19.006 18.911 19.006h14.163c12.578 0 21.363-8.633 21.363-20.994v-4.646c0-11.001-7.872-18.685-19.143-18.685z"/><path d="m168.729 346.684c-4.268 0-7.726 3.459-7.726 7.726v54.765c0 4.268 3.459 7.726 7.726 7.726 4.268 0 7.726-3.459 7.726-7.726v-54.765c.001-4.267-3.458-7.726-7.726-7.726z"/><path d="m248.336 384.239c2.284-3.963 3.542-9.11 3.542-14.49 0-13.365-7.312-23.065-17.385-23.065h-23.771c-4.346 0-9.421 2.648-9.421 10.125l.088 51.942c.008 4.504 3.465 8.15 7.726 8.15h.014c4.267-.009 7.72-3.67 7.712-8.18l-.027-15.907h9.329l8.361 19.318c1.298 3 4.101 4.771 7.031 4.771 1.074 0 2.167-.238 3.208-.742 3.88-1.875 5.588-6.72 3.813-10.82l-6.354-14.681c2.427-1.464 4.53-3.637 6.134-6.421zm-13.843-7.754h-17.705l-.023-13.472 17.789-.007c.533.307 1.872 2.764 1.872 6.743s-1.339 6.436-1.933 6.736z"/><path d="m362.281 345.457c-4.268 0-7.726 3.459-7.726 7.726v32.092l-25.951-36.564c-.084-.118-.161-.217-.234-.304-1.415-1.795-3.603-2.951-6.066-2.951-4.268 0-7.726 3.459-7.726 7.726v55.992c0 4.268 3.459 7.726 7.726 7.726s7.726-3.459 7.726-7.726v-31.756l24.841 35.001c.345.485.739.912 1.165 1.292 1.405 1.93 3.675 3.19 6.245 3.19 4.268 0 7.726-3.459 7.726-7.726v-55.992c0-4.268-3.459-7.726-7.726-7.726z"/><path d="m275.101 251.865c0-11.528-9.374-20.906-20.896-20.906h-14.981c-11.522 0-20.896 9.378-20.896 20.906v28.405c0 11.527 9.374 20.905 20.896 20.905h14.981c11.522 0 20.896-9.378 20.896-20.905zm-15.453 28.406c0 2.956-2.493 5.453-5.444 5.453h-14.981c-2.951 0-5.444-2.497-5.444-5.453v-28.405c0-2.956 2.493-5.454 5.444-5.454h14.981c2.951 0 5.444 2.498 5.444 5.454z"/></g><g><path d="m88.453 218.328h-23.682c-4.268 0-7.726-3.459-7.726-7.726s3.459-7.726 7.726-7.726h23.682c4.268 0 7.726 3.459 7.726 7.726s-3.459 7.726-7.726 7.726z" fill="#595959"/></g><g><path d="m447.2 218.328h-23.653c-4.268 0-7.726-3.459-7.726-7.726s3.459-7.726 7.726-7.726h23.653c4.268 0 7.726 3.459 7.726 7.726s-3.458 7.726-7.726 7.726z" fill="#595959"/></g><g><path clip-rule="evenodd" d="m255.985 97.827c18.427 0 33.466-15.021 33.466-33.461s-15.039-33.461-33.466-33.461-33.436 15.021-33.436 33.461 15.01 33.461 33.436 33.461z" fill="#838383" fill-rule="evenodd"/></g><g><path clip-rule="evenodd" d="m260.044 65.214c0 12.858-7.242 24.022-17.901 29.633 4.234 1.929 8.907 2.981 13.842 2.981 12.265 0 23.011-6.605 28.822-16.453 2.949-4.997 4.643-10.813 4.643-17.008 0-18.499-14.981-33.461-33.466-33.461-5.607 0-10.922 1.374-15.565 3.828 11.566 5.26 19.625 16.949 19.625 30.48z" fill="#595959" fill-rule="evenodd"/></g></g></svg>