<svg id="Capa_1" enable-background="new 0 0 512 512" height="512" viewBox="0 0 512 512" width="512" xmlns="http://www.w3.org/2000/svg"><g><g><path clip-rule="evenodd" d="m206.685 120.806c-7.082 29.061-5.435 58.18 3.238 84.668l-2.833 7.113-25.467 63.993c-2.949 8.82-3.064 9.658 7.198 9.571l68.307-1.937 10.58-.289c15.494 10.959 33.272 19.23 52.813 24.001 83.079 20.213 166.822-30.767 187.057-113.874 20.206-83.135-30.757-166.907-113.836-187.12-83.107-20.241-166.851 30.768-187.057 113.874z" fill="#62dbfb" fill-rule="evenodd"/></g><g><path clip-rule="evenodd" d="m506.827 117.712c-14.107-53.033-56.022-96.9-113.084-110.78-10.811-2.631-21.594-4.048-32.26-4.366 65.966 25.88 106.262 93.95 96.781 164.565-.723 5.379-1.734 10.786-3.035 16.193-.202.839-.405 1.677-.636 2.487-18.472 70.933-83.483 117.835-154.161 115.753 6.446 2.545 13.153 4.684 20.09 6.362 82.096 19.981 164.828-29.553 186.306-110.924.26-.983.491-1.966.752-2.949 6.329-26.055 5.664-52.138-.753-76.341z" fill="#00c0fa" fill-rule="evenodd"/></g><g><path d="m280.998 197.675c-.025 0-.05 0-.075 0l-17.217-.029c-4.267-.007-7.72-3.473-7.713-7.742.007-4.264 3.465-7.716 7.726-7.716h.013l17.229.029h.026c1.537 0 2.682-.433 3.614-1.362 1.364-1.361 2.178-3.68 2.178-6.207v-42.037h-13.029c-4.267 0-7.726-3.46-7.726-7.729s3.459-7.729 7.726-7.729h20.756c4.267 0 7.726 3.46 7.726 7.729v49.766c0 6.642-2.45 12.895-6.722 17.154-3.854 3.843-8.871 5.873-14.512 5.873z" fill="#f9f7f7"/></g><g><path d="m357.551 197.675h-3.672c-15.434 0-27.99-12.56-27.99-27.999v-24.492c0-15.455 12.556-28.029 27.99-28.029h3.672c15.434 0 27.99 12.573 27.99 28.029v24.492c0 15.439-12.556 27.999-27.99 27.999zm-3.671-65.063c-6.913 0-12.537 5.64-12.537 12.571v24.492c0 6.916 5.624 12.542 12.537 12.542h3.672c6.913 0 12.537-5.626 12.537-12.542v-24.492c0-6.932-5.624-12.571-12.537-12.571z" fill="#f9f7f7"/></g><path d="m456.132 153.033c1.658-3.143 2.602-6.718 2.602-10.51v-2.718c0-12.489-10.157-22.65-22.642-22.65h-17.98c-5.966 0-10.819 4.869-10.819 10.852v29.407 29.438c0 5.968 4.854 10.823 10.819 10.823h26.19c12.485 0 22.642-10.148 22.642-22.622v-2.718c0-8.154-4.332-15.313-10.812-19.302zm-33.388-20.421h13.347c3.964 0 7.19 3.226 7.19 7.192v2.718c0 3.95-3.225 7.163-7.19 7.163h-13.347zm28.747 42.441c0 3.95-3.225 7.164-7.19 7.164h-21.557v-17.075h13.347 8.21c3.964 0 7.19 3.226 7.19 7.192z" fill="#f9f7f7"/><g><path clip-rule="evenodd" d="m99.18 410.262c-7.603-7.46-14.858-15.21-21.767-23.104-33.387-38.2-58.334-80.245-69.897-116.998-9.25-29.408-11.476-69.516 2.052-101.006 7.313-17.003 20.726-34.613 35.931-44.734 7.603-5.032 24.369-12.318 33.677-9.571 16.911 4.974 31.566 32.04 41.482 50.778 22.403 39.732 23.79 55.693 3.902 77.063-13.124 7.489-3.44 45.717 23.877 79.261 5.666 6.969 11.91 13.851 18.529 20.502 6.649 6.622 13.557 12.868 20.495 18.536 33.532 27.326 71.747 37.042 79.234 23.885 21.362-19.866 37.319-18.507 77.037 3.933 18.732 9.889 45.789 24.579 50.79 41.466 2.746 9.311-4.538 26.112-9.597 33.688-10.117 15.239-27.722 28.656-44.719 35.972-31.451 13.533-71.574 11.306-100.943 2.024-36.683-11.538-78.656-36.435-116.813-69.747-7.949-6.97-15.725-14.286-23.27-21.948z" fill="#f9f7f7" fill-rule="evenodd"/></g><g><path clip-rule="evenodd" d="m384.926 463.96c5.059-7.576 12.343-24.377 9.597-33.688-3.035-10.265-14.222-19.721-26.739-27.789-2.081 5.754-4.856 11.162-7.169 14.632-10.117 15.21-27.722 28.627-44.719 35.943-31.451 13.533-71.574 11.306-100.972 2.053-36.654-11.567-78.656-36.435-116.784-69.776-7.949-6.94-15.725-14.285-23.27-21.919-7.603-7.489-14.858-15.21-21.767-23.104-14.916-17.061-28.127-34.902-39.256-52.657 13.182 32.242 35.353 67.26 63.567 99.502 6.909 7.894 14.164 15.644 21.767 23.104 7.545 7.663 15.321 14.979 23.27 21.948 38.157 33.312 80.13 58.209 116.813 69.747 29.37 9.282 69.492 11.509 100.943-2.024 16.997-7.316 34.602-20.733 44.719-35.972z" fill="#e2e2e2" fill-rule="evenodd"/></g></g></svg>