<svg id="Capa_1" enable-background="new 0 0 512 512" height="512" viewBox="0 0 512 512" width="512" xmlns="http://www.w3.org/2000/svg"><g><g><path clip-rule="evenodd" d="m241.674 394.378-59.833 18.723-8.928 45.678 68.761 16.613 68.791-16.613-8.958-45.678z" fill="#838383" fill-rule="evenodd"/></g><g><path clip-rule="evenodd" d="m310.465 458.779h-68.791-68.761-34.512c-13.641 0-24.823 11.192-24.823 24.875v20.129c0 2.578 2.108 4.717 4.713 4.717h246.768c2.605 0 4.713-2.139 4.713-4.717v-20.129c0-13.683-11.182-24.875-24.823-24.875z" fill="#cecece" fill-rule="evenodd"/></g><g><path clip-rule="evenodd" d="m241.674 413.13-59.833-.029-3.542 18.166 43.353.058 59.833-.058 5.386 27.512h23.594l-8.958-45.678z" fill="#595959" fill-rule="evenodd"/></g><g><path clip-rule="evenodd" d="m236.669 51.252h211.816c13.758 0 25.028 11.28 25.028 25.051v311.747c0 13.771-11.27 25.051-25.028 25.051h-423.486c-13.758 0-24.999-11.281-24.999-25.051v-311.747c0-13.771 11.241-25.051 24.999-25.051z" fill="#cecece" fill-rule="evenodd"/></g><g><path clip-rule="evenodd" d="m344.948 458.779h-34.483c13.641 0 24.823 11.192 24.823 24.875v20.129c0 2.578-2.108 4.717-4.713 4.717h34.483c2.605 0 4.713-2.139 4.713-4.717v-20.129c0-13.683-11.182-24.875-24.823-24.875z" fill="#b5adb6" fill-rule="evenodd"/></g><g><path clip-rule="evenodd" d="m434.756 95.641v246.292 25.168 1.612c0 2.901-2.371 5.274-5.269 5.274h-22.803-35.01v39.115h74.06 2.752c8.723 0 16.422-4.512 20.901-11.339 2.605-3.926 4.127-8.643 4.127-13.712v-7.413-304.335c0-13.771-11.27-25.051-25.028-25.051h-101.81c13.758 0 24.999 11.28 24.999 25.051v14.064h57.813c2.897 0 5.268 2.373 5.268 5.274z" fill="#b5adb6" fill-rule="evenodd"/></g><g><path clip-rule="evenodd" d="m240.62 373.986h-196.623c-2.869 0-5.269-2.373-5.269-5.274v-273.071c0-2.901 2.371-5.274 5.269-5.274h192.76 192.731c2.898 0 5.269 2.373 5.269 5.274v273.071c0 2.901-2.371 5.274-5.269 5.274z" fill="#f9f7f7" fill-rule="evenodd"/></g><g><path clip-rule="evenodd" d="m406.684 373.986h22.803c2.898 0 5.269-2.373 5.269-5.274v-1.612-271.459c0-2.901-2.371-5.274-5.269-5.274h-57.813v5.274 273.071 5.274z" fill="#e2e2e2" fill-rule="evenodd"/></g><g><path clip-rule="evenodd" d="m337.6 369.181v-44.594c0-23.674-15.339-28.567-34.893-40.316h-124.144c-19.554 11.749-34.922 16.642-34.922 40.316v44.594c0 5.508 2.517 4.805 6.733 4.805h12.909 61.853 15.485 15.456 61.911 12.909c4.186 0 6.703.703 6.703-4.805zm-108.571-50.835" fill="#7bacdf" fill-rule="evenodd"/></g><g><path clip-rule="evenodd" d="m268.078 352.832-15.895-34.486-11.563-6.534-11.592 6.534-15.895 34.486c-.146.352-.263.381-.059.674l12.06 20.48h15.485 15.456l12.031-20.48c.236-.293.118-.323-.028-.674z" fill="#fe9737" fill-rule="evenodd"/></g><g><path clip-rule="evenodd" d="m252.183 318.346 4.947-19.396 2.518-9.61-19.028-7.882-8.928 4.19-9.923 4.6 2.312 8.761 4.948 19.337h11.562z" fill="#fe7600" fill-rule="evenodd"/></g><g><path clip-rule="evenodd" d="m224.081 299.009 16.539-17.55-11.358-10.987-22.306-3.252-28.394 17.052 29.595 19.191c5.503 3.194 6.762 6.182 10.86.908z" fill="#0078c8" fill-rule="evenodd"/></g><g><path clip-rule="evenodd" d="m273.084 303.462 29.624-19.191-28.394-17.052-17.183 1.143-16.51 13.097 16.51 17.492 5.093 5.42c4.127 5.273 5.386 2.285 10.86-.909z" fill="#0078c8" fill-rule="evenodd"/></g><g><path clip-rule="evenodd" d="m274.313 267.219c11.972-9.962 20.959-23.733 23.916-36.712.673-2.989 1.054-5.948 1.054-8.819v-34.632-4.307h-10.802c-22.833 0-27.575-28.157-55.501-28.157h-13.582c-21.369 0-5.093 32.464-29.682 32.464h-7.728v34.632c0 2.871.351 5.831 1.054 8.819 2.957 12.98 11.943 26.75 23.916 36.712 5.737 4.805 12.207 8.731 18.998 11.251 5.328 1.992 10.011 2.989 14.666 2.989 4.684 0 9.367-.996 14.695-2.989 6.79-2.52 13.229-6.446 18.996-11.251z" fill="#ffe5c1" fill-rule="evenodd"/></g><g><path clip-rule="evenodd" d="m299.283 171.468c0-27.424-28.131-46.117-54.184-48.784h-12.324c-10.04 1.113-18.881 5.098-24.53 12.423-28.336 2.49-26.257 40.257-26.257 45.209v9.64 13.683h7.728c24.589 0 8.313-32.435 29.682-32.435h13.582c27.926 0 32.668 28.157 55.501 28.157h10.802v-8.555z" fill="#838383" fill-rule="evenodd"/></g><g><path clip-rule="evenodd" d="m299.283 171.468c0-27.424-28.131-46.117-54.184-48.784h-12.294c25.379 3.487 51.929 21.857 51.929 48.52v27.864c1.2.176 2.459.293 3.747.293h10.802c0-9.317 0-18.605 0-27.893z" fill="#595959" fill-rule="evenodd"/></g><g><path clip-rule="evenodd" d="m284.734 199.068c-19.7-2.871-25.438-27.864-51.754-27.864h-13.582c-7.904 0-10.655 4.424-12.236 9.991h15.544c26.316 0 32.053 27.395 51.754 30.266h4.801c.79 0 .673.381.673 1.172 0 6.036.293 11.603-1.054 17.58-.059.293-.146.615-.205.908-4.449 19.162-10.421 31.526-27.399 41.898-3.366 2.051-6.879 3.809-10.509 5.157-.878.322-1.756.615-2.605.908-1.903.615-3.747 1.084-5.533 1.436 2.752.645 5.357.938 7.991.938 4.684 0 9.367-.996 14.695-2.989 6.791-2.52 13.231-6.446 18.998-11.251 11.972-9.962 20.959-23.733 23.916-36.712.673-2.989 1.054-5.948 1.054-8.819v-18.048-4.278h-10.802c-1.288 0-2.547-.117-3.747-.293z" fill="#fed1a3" fill-rule="evenodd"/></g><g><path clip-rule="evenodd" d="m227.214 295.698 13.407-14.24c-2.635 0-5.24-.293-7.991-.938-2.137-.498-4.362-1.172-6.674-2.051-6.791-2.52-13.26-6.446-18.998-11.251l-13.641 8.204c1.61 1.524 3.279 3.018 4.976 4.454 7.23 6.006 15.339 10.958 23.886 14.122.205.088.439.176.644.264 1.493.527 2.956 1.025 4.391 1.436z" fill="#0067b4" fill-rule="evenodd"/></g><g><path clip-rule="evenodd" d="m259.091 293.998c8.548-3.164 16.627-8.116 23.886-14.122 1.698-1.436 3.366-2.93 4.976-4.454l-13.641-8.204c-5.767 4.805-12.207 8.731-18.998 11.251-5.328 1.992-10.011 2.989-14.695 2.989l13.436 14.24c1.405-.41 2.839-.879 4.303-1.406.236-.118.499-.206.733-.294z" fill="#0067b4" fill-rule="evenodd"/></g><g><path clip-rule="evenodd" d="m254.057 295.698-13.436-14.24-7.113 7.559 7.611 10.079 2.342 2.959c.732.908.556 1.025.263 2.168l-2.283 8.878-.82 5.245h11.563l4.947-19.396z" fill="#e6581f" fill-rule="evenodd"/></g><g><path clip-rule="evenodd" d="m268.078 352.832-15.895-34.486h-11.563l12.031 34.486c.117.352.234.381.029.674l-12.06 20.48h15.456l12.031-20.48c.235-.293.117-.323-.029-.674z" fill="#f36b37" fill-rule="evenodd"/></g><g><path clip-rule="evenodd" d="m337.6 324.587c0-23.674-15.339-28.567-34.893-40.316l-18.237 11.808c16.89 9.698 29.477 15.705 29.477 37.181v40.726h4.04 12.909c4.186 0 6.703.703 6.703-4.805v-44.594z" fill="#3987d0" fill-rule="evenodd"/></g><g><path clip-rule="evenodd" d="m348.87 66.751c-3.776 15.529-2.898 31.116 1.756 45.268l-1.522 3.809-13.612 34.193c-1.581 4.717-1.639 5.157 3.864 5.127l36.503-1.025 5.62-.176c8.284 5.86 17.768 10.284 28.219 12.833 44.406 10.812 89.135-16.437 99.936-60.884 10.802-44.418-16.422-89.217-60.828-100.029-44.376-10.812-89.134 16.437-99.936 60.884z" fill="#62dbfb" fill-rule="evenodd"/></g><g><path clip-rule="evenodd" d="m423.223 3.728c38.669 14.474 61.297 55.933 51.286 97.099-.293 1.26-.644 2.52-.995 3.75-6.264 21.418-20.549 38.529-38.757 48.813-10.48 5.919-22.276 9.552-34.571 10.46 3.074 1.143 6.235 2.139 9.514 2.93 8.431 2.051 16.861 2.725 25.057 2.197 13.934-.938 27.223-5.391 38.757-12.687 17.476-11.075 30.853-28.684 36.122-50.395 10.802-44.418-16.422-89.217-60.828-100.029-8.578-2.079-17.213-2.753-25.585-2.138z" fill="#00c0fa" fill-rule="evenodd"/></g><g><path d="m395.663 94.317h-.308c-4.268 0-7.726-3.46-7.726-7.73s3.459-7.73 7.726-7.73h.308c4.268 0 7.726 3.46 7.726 7.73s-3.458 7.73-7.726 7.73z" fill="#f9f7f7"/></g><g><path d="m436.87 94.317h-.308c-4.268 0-7.726-3.46-7.726-7.73s3.459-7.73 7.726-7.73h.308c4.268 0 7.726 3.46 7.726 7.73s-3.458 7.73-7.726 7.73z" fill="#f9f7f7"/></g><g><path d="m474.987 94.317h-.308c-4.268 0-7.726-3.46-7.726-7.73s3.459-7.73 7.726-7.73h.308c4.268 0 7.726 3.46 7.726 7.73s-3.458 7.73-7.726 7.73z" fill="#f9f7f7"/></g></g></svg>