<svg id="Capa_1" enable-background="new 0 0 512 512" height="512" viewBox="0 0 512 512" width="512" xmlns="http://www.w3.org/2000/svg"><g><g><path clip-rule="evenodd" d="m351.137 79.059c3.855 5.256 3.855 10.279 0 15.535l-24.533 33.494c-1.782 2.424-1.373 6.833 4.089 6.833h128.329v-5.49-40.618-1.986-42.605c0-3.037-2.482-5.49-5.491-5.49h-122.838c-5.461 0-5.87 4.409-4.089 6.833z" fill="#7bacdf" fill-rule="evenodd"/></g><g><path clip-rule="evenodd" d="m434.489 88.813v40.619 5.49h24.533v-5.49-40.619-1.986-42.605c0-3.037-2.482-5.49-5.491-5.49h-24.533c3.037 0 5.491 2.453 5.491 5.49v42.605z" fill="#3987d0" fill-rule="evenodd"/></g><g><path d="m459.021 229.47c-4.268 0-7.726-3.461-7.726-7.732v-183.006c0-4.271 3.459-7.732 7.726-7.732s7.726 3.461 7.726 7.732v183.005c0 4.271-3.458 7.733-7.726 7.733z" fill="#b5adb6"/></g><g><path clip-rule="evenodd" d="m278.035 273.044h111.711l33.382 106.118-33.382 101.796h-122.254v-197.372c0-5.782 4.732-10.542 10.543-10.542z" fill="#fe9737" fill-rule="evenodd"/></g><g><path clip-rule="evenodd" d="m399.822 221.708h102.102c5.549 0 10.076 4.526 10.076 10.074v244.328c0 2.686-2.19 4.847-4.848 4.847h-117.406v-249.175c0-5.548 4.527-10.074 10.076-10.074z" fill="#97da7b" fill-rule="evenodd"/></g><g><path clip-rule="evenodd" d="m353.94 273.044h35.806v207.914h-35.806z" fill="#f36b37" fill-rule="evenodd"/></g><g><path clip-rule="evenodd" d="m483.671 231.841v244.328c0 2.453-1.84 4.468-4.235 4.789h27.716c2.658 0 4.848-2.161 4.848-4.847v-244.329c0-5.548-4.527-10.074-10.076-10.074-62.412 0-170.881.029-28.358.029 5.549 0 10.105 4.556 10.105 10.104z" fill="#68ca44" fill-rule="evenodd"/></g><g><path clip-rule="evenodd" d="m296.23 473.657v-68.039c0-36.151-23.452-43.598-53.329-61.527h-189.601c-29.877 17.929-53.3 25.376-53.3 61.527v68.039c0 8.352 3.826 7.3 10.222 7.3h19.743 94.479 23.656 23.598 94.538 19.743c6.396 0 10.251 1.052 10.251-7.3z" fill="#f9f7f7" fill-rule="evenodd"/></g><g><path clip-rule="evenodd" d="m190.04 448.69-24.299-52.621-17.64-9.958-17.728 9.958-24.27 52.621c-.234.526-.409.555-.058.993l18.399 31.275h23.656 23.598l18.399-31.275c.322-.438.147-.467-.057-.993z" fill="#7bacdf" fill-rule="evenodd"/></g><g><path clip-rule="evenodd" d="m165.741 396.069 7.564-29.581 3.855-14.659-29.059-12.031-13.669 6.366-15.128 7.038 3.534 13.345 7.535 29.522h17.698z" fill="#3987d0" fill-rule="evenodd"/></g><g><path clip-rule="evenodd" d="m122.838 366.547 25.263-26.748-17.348-16.791-34.083-4.935-43.37 26.018 45.21 29.26c8.411 4.877 10.31 9.432 16.618 1.372z" fill="#cecece" fill-rule="evenodd"/></g><g><path clip-rule="evenodd" d="m197.691 373.35 45.21-29.26-43.341-26.018-26.256 1.752-25.204 19.974 25.204 26.69 7.798 8.235c6.28 8.06 8.207 3.504 16.589-1.373z" fill="#cecece" fill-rule="evenodd"/></g><g><path clip-rule="evenodd" d="m199.561 318.072c18.283-15.214 32.009-36.21 36.536-56.008 1.022-4.585 1.577-9.082 1.577-13.462v-52.854-6.541h-16.472c-34.871 0-42.143-42.955-84.783-42.955h-20.736c-32.652 0-7.798 49.496-45.356 49.496h-11.799v52.854c0 4.38.555 8.877 1.606 13.462 4.498 19.799 18.253 40.794 36.536 56.008 8.791 7.33 18.633 13.316 29.001 17.17 8.148 3.037 15.304 4.555 22.43 4.555 7.155 0 14.281-1.518 22.43-4.555 10.397-3.854 20.239-9.84 29.03-17.17z" fill="#ffe5c1" fill-rule="evenodd"/></g><g><path clip-rule="evenodd" d="m237.674 171.978c0-41.875-42.961-70.375-82.739-74.405h-18.837c-15.304 1.694-28.855 7.738-37.471 18.922-43.253 3.825-40.099 61.41-40.099 69.003v14.659 20.908h11.799c37.558 0 12.704-49.525 45.356-49.525h20.736c42.64 0 49.912 42.984 84.783 42.984h16.472v-13.053z" fill="#838383" fill-rule="evenodd"/></g><g><path clip-rule="evenodd" d="m237.674 189.207v-17.229c0-41.875-42.961-70.375-82.739-74.405h-18.779c38.756 5.285 79.293 33.319 79.293 73.996v17.229 6.541 5.723 13.053c1.84.263 3.768.409 5.753.409h16.472v-13.053-5.723z" fill="#595959" fill-rule="evenodd"/></g><g><path clip-rule="evenodd" d="m237.674 248.602v-27.537-6.541h-16.472c-1.986 0-3.914-.146-5.753-.409v34.02c0 4.351-.555 8.877-1.577 13.462-4.527 19.799-18.253 40.794-36.536 56.008-.876.73-1.752 1.431-2.628 2.132-3.329 2.599-6.776 4.993-10.368 7.184-5.14 3.125-10.514 5.782-16.034 7.855-1.343.496-2.658.964-3.972 1.372-2.921.964-5.724 1.694-8.47 2.219 4.206.964 8.236 1.431 12.237 1.431 7.155 0 14.281-1.518 22.43-4.555 10.397-3.855 20.239-9.841 29.03-17.17 18.283-15.214 32.009-36.21 36.536-56.008 1.022-4.585 1.577-9.082 1.577-13.463z" fill="#fed1a3" fill-rule="evenodd"/></g><g><path clip-rule="evenodd" d="m215.448 214.116c-30.082-4.409-38.843-42.576-79.03-42.576h-20.736c-12.062 0-16.267 6.775-18.691 15.301h23.744c40.187 0 48.948 38.137 79.03 42.546 16.618-.204 15.683-2.132 15.683 18.747 0 4.351-.555 8.877-1.577 13.462-4.527 19.799-18.253 40.794-36.536 56.008-.876.73-1.752 1.431-2.628 2.132-3.329 2.599-6.776 4.993-10.368 7.184-5.14 3.125-10.514 5.782-16.034 7.855-1.343.496-2.658.964-3.972 1.372-2.921.964-5.724 1.694-8.47 2.219 4.206.964 8.236 1.431 12.237 1.431 7.155 0 14.281-1.518 22.43-4.555 10.397-3.855 20.239-9.841 29.03-17.17 18.283-15.214 32.009-36.21 36.536-56.008 1.022-4.585 1.577-9.082 1.577-13.462v-27.537-6.541h-16.472c-1.985 0-3.913-.146-5.753-.408z" fill="#fed1a3" fill-rule="evenodd"/></g><g><path clip-rule="evenodd" d="m127.598 361.495 20.502-21.697c-4.001 0-8.031-.467-12.237-1.431-3.271-.759-6.63-1.781-10.193-3.125-10.368-3.855-20.21-9.841-29.001-17.17l-20.823 12.498c2.453 2.336 4.994 4.614 7.593 6.775 11.069 9.198 23.423 16.732 36.478 21.58.321.146.672.263.993.38 2.308.846 4.527 1.577 6.688 2.19z" fill="#b5adb6" fill-rule="evenodd"/></g><g><path clip-rule="evenodd" d="m176.313 358.925c13.026-4.847 25.409-12.381 36.448-21.58 2.628-2.161 5.14-4.439 7.593-6.775l-20.794-12.498c-8.791 7.33-18.633 13.316-29.03 17.17-8.148 3.037-15.274 4.555-22.43 4.555l20.502 21.697c2.132-.613 4.322-1.343 6.571-2.161.381-.116.76-.262 1.14-.408z" fill="#b5adb6" fill-rule="evenodd"/></g><g><path clip-rule="evenodd" d="m168.603 361.495-20.502-21.697-10.864 11.535 11.624 15.36 3.592 4.526c1.081 1.372.818 1.577.38 3.3l-3.475 13.579-1.256 7.972h17.64l7.564-29.581z" fill="#0067b4" fill-rule="evenodd"/></g><g><path clip-rule="evenodd" d="m190.04 448.69-24.299-52.621h-17.64l18.341 52.621c.234.526.409.555.058.993l-18.399 31.275h23.598l18.399-31.275c.321-.438.146-.467-.058-.993z" fill="#3987d0" fill-rule="evenodd"/></g><g><path clip-rule="evenodd" d="m296.23 405.618c0-36.151-23.452-43.598-53.329-61.527l-27.862 18.017c25.847 14.776 45.064 23.974 45.064 56.709v62.14h6.133 19.743c6.396 0 10.251 1.051 10.251-7.3z" fill="#e2e2e2" fill-rule="evenodd"/></g></g></svg>