<svg id="Capa_1" enable-background="new 0 0 512 512" height="512" viewBox="0 0 512 512" width="512" xmlns="http://www.w3.org/2000/svg"><g><g><path clip-rule="evenodd" d="m460.707 204.068v251.9c0 5.027-1.391 9.756-3.812 13.815l-11.394 10.57c-3.616 1.793-7.685 2.802-11.981 2.802h-406.334c-3.822 0-7.459-.804-10.765-2.235-4.893-2.133-9.045-5.656-11.95-10.075-2.823-4.286-4.471-9.396-4.471-14.877v-251.9c0-5.079 1.411-9.848 3.863-13.928 2.72-4.533 6.737-8.221 11.517-10.549 3.575-1.741 7.582-2.72 11.806-2.72h406.334c14.959.001 27.187 12.239 27.187 27.197z" fill="#f9f7f7" fill-rule="evenodd"/></g><g><path clip-rule="evenodd" d="m182.696 324.713-173.117 151.929c4.76 4.06 10.893 6.513 17.61 6.513h406.335c7.155 0 13.667-2.804 18.544-7.331l-172.738-150.644-32.854 25.059c-13.404 9.346-22.311 7.009-32.211 0z" fill="#f9f7f7" fill-rule="evenodd"/></g><g><path clip-rule="evenodd" d="m342.059 277.341-62.729 47.839 172.738 150.644c5.315-4.994 8.644-12.033 8.644-19.86v-198.278c-29.7 22.196-66.876 30.111-101.949 23.803-5.636-.994-11.214-2.395-16.704-4.148z" fill="#f9f7f7" fill-rule="evenodd"/></g><g><path clip-rule="evenodd" d="m460.712 455.964v-198.278c-12.324 9.229-25.933 15.976-40.155 20.269v132.449c0 10.748-6.308 20.094-15.419 24.504l46.93 40.917c5.314-4.995 8.644-12.034 8.644-19.861z" fill="#e2e2e2" fill-rule="evenodd"/></g><g><path clip-rule="evenodd" d="m9.579 476.642 44.506-39.048h-25.875-28.21v18.371c0 8.265 3.738 15.683 9.579 20.677z" fill="#e2e2e2" fill-rule="evenodd"/></g><g><path clip-rule="evenodd" d="m393.369 437.594h-288.266-35.687-15.331l-44.506 39.048c4.76 4.06 10.893 6.513 17.61 6.513h82.383 35.686 288.266c7.155 0 13.667-2.804 18.544-7.331l-43.834-38.23z" fill="#e2e2e2" fill-rule="evenodd"/></g><path d="m456.896 469.783-11.394 10.57-166.498-145.204-27.846 21.232c-.082.072-.175.134-.268.196-7.881 5.501-14.752 7.572-20.83 7.572-7.953 0-14.536-3.554-20.264-7.603-.134-.093-.258-.196-.391-.299l-26.517-21.428-166.467 146.101c-4.893-2.133-9.045-5.656-11.95-10.075l.01-.01 166.22-145.874-166.828-134.81-.01-.01c2.72-4.533 6.737-8.221 11.517-10.549l171.876 138.888c.165.124.33.258.484.392l31.184 25.198c7.85 5.511 13.094 6.789 23.004-.072l32.667-24.92c.041-.031.072-.062.113-.093l62.666-47.79c3.389-2.586 8.241-1.927 10.827 1.463 2.586 3.389 1.937 8.241-1.453 10.827l-55.197 42.093z" fill="#cecece"/><g><path clip-rule="evenodd" d="m473.999 66.154c-50.639-49.738-132.788-49.738-183.455 0-30.722 30.14-42.812 71.642-36.3 110.719 4.234 25.409 16.325 49.825 36.3 69.422 14.952 14.691 32.679 25.029 51.515 31.046 39.629 12.646 84.193 6.104 118.653-19.656 4.614-3.446 9.082-7.243 13.288-11.39 50.667-49.737 50.667-130.404-.001-180.141z" fill="#fe9737" fill-rule="evenodd"/></g><g><path clip-rule="evenodd" d="m473.999 66.154c-29.875-29.352-70.76-41.385-109.629-36.098 24.998 4.498 48.886 16.238 68.219 35.222 38.256 37.559 47.631 92.729 28.123 138.932-6.337 14.983-15.711 29.001-28.123 41.18-4.205 4.176-8.673 7.973-13.288 11.419-18.106 13.522-39.016 21.758-60.538 24.679 35.073 6.308 72.249-1.606 101.949-23.803 4.614-3.446 9.082-7.243 13.288-11.39 50.667-49.737 50.667-130.404-.001-180.141z" fill="#f36b37" fill-rule="evenodd"/></g><g><path d="m315.834 189.973-14.617-.029c-4.267-.009-7.719-3.475-7.711-7.741.009-4.262 3.466-7.711 7.726-7.711h.016l14.602.029c3.582 0 3.764-4.171 3.764-5.007v-33.687h-9.883c-4.267 0-7.726-3.459-7.726-7.726 0-4.268 3.459-7.726 7.726-7.726h17.61c4.267 0 7.726 3.459 7.726 7.726v41.413c-.001 11.663-8.269 20.459-19.233 20.459z" fill="#f9f7f7"/></g><g><path d="m380.811 189.973h-3.125c-13.745 0-24.927-11.183-24.927-24.929v-19.772c0-13.729 11.182-24.899 24.927-24.899h3.125c13.729 0 24.898 11.17 24.898 24.899v19.772c0 13.746-11.169 24.929-24.898 24.929zm-3.124-54.147c-5.224 0-9.474 4.237-9.474 9.447v19.772c0 5.225 4.25 9.476 9.474 9.476h3.125c5.208 0 9.445-4.251 9.445-9.476v-19.772c0-5.209-4.237-9.447-9.445-9.447z" fill="#f9f7f7"/></g><path d="m465.99 150.988c1.132-2.516 1.776-5.296 1.776-8.228v-2.248c0-11.105-9.034-20.139-20.137-20.139h-15.536c-5.678 0-10.296 4.619-10.296 10.296v24.504 24.475c0 5.693 4.619 10.325 10.296 10.325h22.516c11.104 0 20.138-9.034 20.138-20.139v-2.248c-.001-6.883-3.475-12.964-8.757-16.598zm-28.741-15.162h10.38c2.583 0 4.685 2.103 4.685 4.686v2.248c0 2.584-2.102 4.686-4.685 4.686h-10.38zm22.044 34.008c0 2.54-2.145 4.686-4.685 4.686h-17.359v-11.621h10.38 6.979c2.54 0 4.685 2.146 4.685 4.686z" fill="#f9f7f7"/></g></svg>