<svg id="Capa_1" enable-background="new 0 0 512 512" height="512" viewBox="0 0 512 512" width="512" xmlns="http://www.w3.org/2000/svg"><g><g><path clip-rule="evenodd" d="m431.599 415.223v87.318c0 10.745-4.932 9.405-13.129 9.405h-391.841c-8.197 0-13.129 1.339-13.129-9.405v-87.318c0-51.89 53.587-90.553 100.357-99.958l108.667-26.311 110.18 26.61c46.42 9.921 98.895 48.326 98.895 99.659z" fill="#f9f7f7" fill-rule="evenodd"/></g><g><path clip-rule="evenodd" d="m272.202 469.046-28.735-95.813-20.917-11.184-20.946 11.184-28.735 95.813c-.233.847-.438.905-.058 1.635l21.763 41.263h27.976 27.947l21.763-41.263c.409-.729.175-.788-.058-1.635z" fill="#7bacdf" fill-rule="evenodd"/></g><g><path clip-rule="evenodd" d="m252.365 338.337-3.764-19.361-26.051-7.388-27.83 7.826-1.721 20.033 8.605 33.787h20.946 20.917z" fill="#3987d0" fill-rule="evenodd"/></g><g><path clip-rule="evenodd" d="m272.202 469.046-28.735-95.813h-18.204l21.5 95.813c.263.847.467.905.088 1.635l-21.792 41.263h25.438l21.763-41.263c.409-.729.175-.788-.058-1.635z" fill="#3987d0" fill-rule="evenodd"/></g><g><path clip-rule="evenodd" d="m252.365 338.337-29.814-26.749-12.019 11.535 21.296 19.887c1.138 1.08.934.73.554 2.278l-7.118 27.947h18.204z" fill="#0067b4" fill-rule="evenodd"/></g><g><path clip-rule="evenodd" d="m261.7 346.747c16.745 14.484 9.131 13.55 20.042 6.746l50.964-37.934.467-.35c-5.514-4.001-28.589-20.792-43.759-32.298-19.137-14.017-61.642 11.535-66.863 28.677l29.814 26.749z" fill="#cecece" fill-rule="evenodd"/></g><g><path clip-rule="evenodd" d="m155.658 282.911c-.175-.058-37.312 28.969-41.863 32.298l.058.058 51.373 38.226c10.911 6.804 3.296 7.739 20.042-6.746l37.282-35.159c-7.234-19.303-26.78-39.92-66.892-28.677z" fill="#cecece" fill-rule="evenodd"/></g><g><path clip-rule="evenodd" d="m78.759 170.804v11.506c0 14.689 16.453 29.669 30.981 29.465l18.116-26.282-20.158-26.311h-17.328c-6.389-.001-11.611 5.227-11.611 11.622z" fill="#ffbc85" fill-rule="evenodd"/></g><g><path clip-rule="evenodd" d="m131.065 98.587-23.367 39.978v55.952c0 5.607.7 11.389 2.042 17.259 5.718 25.085 22.93 51.659 45.918 71.137 11.494 9.754 24.447 17.726 38.128 22.807 10.444 3.913 19.604 5.87 28.764 5.87h.934c8.839-.146 17.737-2.103 27.831-5.87 15.228-5.694 29.61-14.952 42.067-26.282 5.835-5.315 11.261-11.068 16.162-17.142 12.719-15.74 21.909-33.466 25.788-50.52 1.342-5.87 2.042-11.652 2.042-17.259v-55.952c-43.963-94.002-90.639-25.815-160.011-62.142-17.738-9.258-33.316-.03-46.298 22.164z" fill="#ffe5c1" fill-rule="evenodd"/></g><g><path clip-rule="evenodd" d="m337.373 159.181-11.202 21.318 9.16 31.276c14.528.204 31.01-14.776 31.01-29.465v-11.506c0-6.395-5.251-11.622-11.64-11.622h-17.328z" fill="#ffbc85" fill-rule="evenodd"/></g><g><path clip-rule="evenodd" d="m154.607 25.523c-50.76 8.381-46.909 78.525-46.909 87.986v18.835 26.837l23.367-40.007c12.982-22.165 28.56-31.422 46.297-22.135 69.372 36.328 116.048-31.889 160.011 62.142v-25.143-37.875c0-58.083-64.325-96.134-118.295-96.163h-.204c-22.667.029-43.467 6.746-56.886 21.522-3.792 4.147-1.809 3.066-7.381 4.001z" fill="#838383" fill-rule="evenodd"/></g><g><path clip-rule="evenodd" d="m298.836 153.312c1.167 5.315.321 19.157-1.663 41.38v11.418c0 5.578-.729 11.389-2.042 17.259-3.88 17.025-13.098 34.78-25.789 50.491-4.93 6.074-10.356 11.856-16.191 17.171-8.898 8.06-18.758 15.098-29.202 20.529 8.693-.175 17.445-2.132 27.364-5.84 15.228-5.694 29.61-14.952 42.067-26.282 5.835-5.315 11.261-11.068 16.162-17.142 12.719-15.74 21.909-33.466 25.788-50.52 1.342-5.87 2.042-11.652 2.042-17.259v-35.335c-43.963-94.031-90.639-25.815-160.011-62.142-14.703-7.709-27.947-2.657-39.441 11.973 38.858 20.091 79.699 21.493 107.763 23.333 32.937 2.13 47.465-4.586 53.153 20.966z" fill="#fed1a3" fill-rule="evenodd"/></g><g><path clip-rule="evenodd" d="m141.48 157.692v16.324 16.324c0 2.395 1.955 4.351 4.347 4.351h55.632c2.392 0 4.347-1.957 4.347-4.351v-16.324-16.324c0-2.424-1.955-4.38-4.347-4.38h-55.632c-2.393 0-4.347 1.956-4.347 4.38z" fill="#62dbfb" fill-rule="evenodd"/></g><g><path clip-rule="evenodd" d="m238.858 174.016-.029 16.324c0 2.395 1.984 4.351 4.376 4.351h55.632c2.392 0 4.347-1.957 4.347-4.351v-16.324-16.324c0-2.424-1.955-4.38-4.347-4.38h-55.632c-2.392 0-4.376 1.957-4.376 4.38z" fill="#62dbfb" fill-rule="evenodd"/></g><g><path clip-rule="evenodd" d="m145.827 194.691h55.632c2.392 0 4.347-1.957 4.347-4.351v-14.192h-64.326v14.192c0 2.395 1.954 4.351 4.347 4.351z" fill="#00c0fa" fill-rule="evenodd"/></g><g><path clip-rule="evenodd" d="m243.204 194.691h55.632c2.392 0 4.347-1.957 4.347-4.351v-14.192l-64.325.029-.029 14.163c0 2.395 1.983 4.351 4.375 4.351z" fill="#00c0fa" fill-rule="evenodd"/></g><g><path clip-rule="evenodd" d="m289.414 282.911c-7.439 6.308-15.491 11.885-23.98 16.412-4.58 2.453-9.306 4.614-14.12 6.395-9.919 3.709-18.67 5.665-27.364 5.84-.175 0-.321 0-.467.029h-.934l25.905 23.274c1.021-.292 2.013-.613 3.034-.934 2.1-.672 4.23-1.431 6.389-2.249 14.907-5.548 29.085-13.871 41.979-24.033 3.326-2.628 6.564-5.402 9.714-8.235.292-.292.583-.555.875-.818-7.145-5.285-14.759-10.921-21.031-15.681z" fill="#b5adb6" fill-rule="evenodd"/></g><g><path clip-rule="evenodd" d="m222.55 311.588c-9.16 0-18.32-1.957-28.764-5.87-4.813-1.781-9.539-3.942-14.149-6.395-8.46-4.526-16.512-10.075-23.98-16.412-.088-.029-10.327 7.914-20.712 15.974 1.78 1.635 3.588 3.212 5.426 4.76 1.604 1.373 3.238 2.716 4.872 4.001 12.894 10.162 27.072 18.485 41.95 24.033 2.13.818 4.23 1.548 6.272 2.19 1.4.467 2.771.876 4.113 1.256z" fill="#b5adb6" fill-rule="evenodd"/></g><g><path clip-rule="evenodd" d="m337.373 96.163c0-58.083-64.325-96.134-118.295-96.163h-.204c-.029 0-.058 0-.088 0-.088 0-.175 0-.263 0 42.183 12.761 80.312 45.585 80.312 90.293v1.343 20.588c13.361 6.658 26.051 20.266 38.537 46.957v-20.617-4.526-37.875z" fill="#595959" fill-rule="evenodd"/></g><g><path d="m225.628 261.961c-8.235 0-16.471-.542-22.888-1.626-4.205-.71-7.04-4.697-6.33-8.904.71-4.208 4.691-7.045 8.901-6.333 11.013 1.861 29.621 1.861 40.633 0 4.21-.711 8.191 2.126 8.901 6.333s-2.124 8.194-6.33 8.904c-6.416 1.084-14.652 1.626-22.887 1.626z" fill="#838383"/></g><g><path d="m205.806 181.745c-3.135 0-6.084-1.925-7.24-5.037-1.486-3.999.551-8.447 4.549-9.934 12.86-4.781 25.796-4.776 38.448.017 3.989 1.51 5.998 5.971 4.488 9.961-1.51 3.991-5.967 6.001-9.957 4.49-9.184-3.478-18.211-3.472-27.598.017-.887.33-1.796.486-2.69.486z" fill="#b5adb6"/></g><g><path d="m141.476 181.745c-1.037 0-2.09-.21-3.1-.654l-33.782-14.835c-3.905-1.714-5.682-6.273-3.968-10.18 1.715-3.906 6.272-5.685 10.176-3.969l33.782 14.835c3.905 1.714 5.682 6.273 3.968 10.18-1.271 2.896-4.105 4.623-7.076 4.623z" fill="#b5adb6"/></g><g><path d="m303.187 181.745c-2.985 0-5.826-1.74-7.089-4.654-1.697-3.914.1-8.465 4.012-10.163l34.19-14.835c3.913-1.695 8.461.1 10.158 4.014s-.1 8.465-4.012 10.163l-34.19 14.835c-1 .434-2.043.64-3.069.64z" fill="#b5adb6"/></g><g><path d="m201.458 202.418h-55.632c-6.655 0-12.07-5.417-12.07-12.077v-32.649c0-6.676 5.415-12.107 12.07-12.107h55.632c6.656 0 12.07 5.431 12.07 12.107v32.649c0 6.659-5.414 12.077-12.07 12.077zm-52.255-15.453h48.88v-25.927h-48.88zm52.255-25.927h.01z" fill="#b5adb6"/></g><g><path d="m298.836 202.418h-55.632c-6.671 0-12.099-5.417-12.099-12.077v-32.649c0-6.676 5.428-12.107 12.099-12.107h55.632c6.655 0 12.07 5.431 12.07 12.107v32.649c0 6.659-5.415 12.077-12.07 12.077zm-52.285-15.453h48.909v-25.927h-48.909zm52.285-25.927h.01z" fill="#b5adb6"/></g><g><path clip-rule="evenodd" d="m431.601 415.227c0-51.338-52.481-89.738-98.895-99.667l-34.161 25.406c42.125 14.075 84.134 49.673 84.134 95.608v75.371h10.473 25.322c8.197 0 13.128 1.343 13.128-9.403v-87.315z" fill="#e2e2e2" fill-rule="evenodd"/></g><g><path d="m94.035 442.441v69.506h-15.446v-69.506c0-4.265 3.46-7.726 7.723-7.726 4.263-.001 7.723 3.461 7.723 7.726z" fill="#e2e2e2"/></g><g><path d="m360.033 442.441v69.506h-15.446v-69.506c0-4.265 3.46-7.726 7.723-7.726 4.263-.001 7.723 3.461 7.723 7.726z" fill="#e2e2e2"/></g><g><path clip-rule="evenodd" d="m296.765 374.928c-4.668-19.215-3.559-38.459 2.159-55.952l-1.867-4.731-16.833-42.285c-1.955-5.84-2.013-6.395 4.755-6.337l45.13 1.285 7.001.175c10.21-7.242 21.967-12.703 34.89-15.857 54.874-13.375 110.214 20.354 123.575 75.283 13.361 54.959-20.333 110.355-75.207 123.701-54.902 13.376-110.242-20.324-123.603-75.282z" fill="#fe636e" fill-rule="evenodd"/></g><g><path d="m396.827 356.635c-4.266 0-7.723-3.459-7.723-7.726v-50.023c0-4.268 3.457-7.726 7.723-7.726s7.723 3.459 7.723 7.726v50.023c0 4.267-3.457 7.726-7.723 7.726z" fill="#f9f7f7"/></g><g><path d="m396.827 404.935c-4.266 0-7.723-3.459-7.723-7.726v-5.869c0-4.268 3.457-7.726 7.723-7.726s7.723 3.459 7.723 7.726v5.869c0 4.267-3.457 7.726-7.723 7.726z" fill="#f9f7f7"/></g><g><path clip-rule="evenodd" d="m495.576 326.51c-13.04-53.615-66.047-87.023-119.607-76.159 37.633 7.651 69.372 36.328 79.058 76.159 9.189 37.846-3.909 75.867-30.865 100.251-12.194 11.038-27.247 19.303-44.342 23.449-1.342.321-2.655.642-3.967.905 14.265 2.891 29.406 2.774 44.517-.905 1.284-.292 2.538-.642 3.792-.993 52.656-14.95 84.454-69.033 71.414-122.707z" fill="#fb2a39" fill-rule="evenodd"/></g></g></svg>