<svg id="Слой_1" data-name="Слой 1" xmlns="http://www.w3.org/2000/svg" viewBox="0 0 244.49 260.15"><defs><style>.cls-1{fill:#078fd1;}.cls-2{fill:#018dd1;}.cls-3{fill:#048ed2;}.cls-4{fill:#038ed2;}.cls-5{fill:#068ed1;}.cls-6{fill:#088fd2;}.cls-7{fill:#038dd1;}.cls-8{fill:#0a90d2;}.cls-9{fill:#058ed1;}</style></defs><path class="cls-1" d="M517,600.38a52,52,0,0,0,3.25-6.46c2.6-5.65,5.44-11.19,7.82-16.93.22-.52.53-1,1.11-.94s.46.56.61.89q4.19,9.06,8.38,18.13c.75,1.63,1.53,3.24,2.31,4.86.32.65.29.89-.59,1a2.26,2.26,0,0,1-2.7-1.62c-.74-1.94-1.7-3.79-2.51-5.69-.22-.5-.44-.75-1-.74q-4.6,0-9.22,0a1.11,1.11,0,0,0-1.17.77c-.92,2-1.91,4-2.79,6-.41,1-.92,1.51-2,1.3a8.65,8.65,0,0,0-1.44,0Zm7.83-10h7.38c.49,0,.81-.06.54-.66-1.12-2.46-2.22-4.94-3.35-7.4-.24-.52-.62-.7-.88,0C527.51,585,526.14,587.52,524.85,590.33Z" transform="translate(-517.02 -382.3)"/><path class="cls-2" d="M671.77,515.23c1.42,3.12,2.82,6.12,4.12,9.15a1.3,1.3,0,0,0,1.43.9q10.18-.1,20.37-.13c1.09,0,1.18-.3.81-1.23-3.11-8-6.71-15.74-10.17-23.56-4-9-8.1-17.82-11.74-26.92a11.1,11.1,0,0,1-.79-4.19q0-24.3,0-48.59a2.47,2.47,0,0,1,.16-1.45,10.18,10.18,0,0,1,2.09,2.6c.93,1.34,1.82,2.71,2.74,4.07.4.59.76.63,1.09-.08.13-.29.33-.54.46-.83,2.31-5.46,6.8-8,12.27-9.26a15.45,15.45,0,0,1,17.61,9.47,9.82,9.82,0,0,1-.37,8.11,8,8,0,0,1-9.84,4.27,22.51,22.51,0,0,1-4.9-2.15,3,3,0,0,0-1.4-.61c.08,8.05,5.48,13,12.51,12.11A16.51,16.51,0,0,0,721,438.45a3.83,3.83,0,0,1,.27-.39s.06,0,.13,0c.24.21.13.51.13.75,0,18.76,0,37.51-.07,56.27,0,7.73-.73,15.41-3.17,22.82-3,9.16-8.71,16.46-16,22.56C691,549.81,678,555.63,663.88,559.1A95.76,95.76,0,0,1,635.73,562c-21.29-1.17-40.94-7.25-58-20.37C567.55,533.81,561,523.72,558.6,511a88.86,88.86,0,0,1-1.45-15.86c-.07-18.91,0-37.82,0-56.84a5.7,5.7,0,0,1,1.45,1.66c2.18,2.87,4.58,5.47,8.21,6.46,4.59,1.26,9,1,12.62-2.45a11,11,0,0,0,3.28-9.27c-.51-.08-.77.34-1.12.56a14.1,14.1,0,0,1-7.8,2.66,8.19,8.19,0,0,1-8.16-9.61,14.59,14.59,0,0,1,14.33-12.74,17.73,17.73,0,0,1,14.33,6.17,13,13,0,0,1,1.87,3.18,4.65,4.65,0,0,0,1.11,1.78l5-7c.36.35.2.72.2,1.05q0,23.15,0,46.3a8.31,8.31,0,0,1-.68,3c-3.44,8.83-7.45,17.41-11.23,26.09-4,9.31-8.13,18.6-12.16,27.91-1,2.3-.92,2.32,1.53,2.35,6.31.07,12.62.13,18.93.26a1.54,1.54,0,0,0,1.67-1.1c1.63-3.72,3.42-7.37,4.81-11.19a2.66,2.66,0,0,1,.25-.41,3.11,3.11,0,0,1,1.27,1.27c5.37,8,13.24,12.09,22.34,14a45.43,45.43,0,0,0,34.26-6,20.12,20.12,0,0,0,5.56-5A17.44,17.44,0,0,1,671.77,515.23Zm-36.59,31.48a6.45,6.45,0,0,1-.51,3.11,2.22,2.22,0,0,1-2,1.33,1.67,1.67,0,0,1-1.74-1.36c-.13-.57-.47-.55-.88-.5-.59.07-1.19.18-1.78.2s-.63.25-.53.75a4.45,4.45,0,0,0,3.59,3.57,5.74,5.74,0,0,0,6.74-4,15.65,15.65,0,0,0,0-9.55,5.52,5.52,0,0,0-7.51-3.67c-2.91,1.18-4.23,5-2.82,8.16C629.12,547.66,631.88,548.41,635.18,546.71Zm12.25-10.25h-3.6c-.48,0-.83,0-.94.64-.45,2.56-.94,5.1-1.41,7.65-.06.3-.2.76.26.79,1,.06,2,.73,3-.26a2.53,2.53,0,0,1,2.92-.39,2.62,2.62,0,0,1,1.43,2.45,4.75,4.75,0,0,1-.36,2.47,2.23,2.23,0,0,1-1.94,1.39,1.93,1.93,0,0,1-2.13-1.23c-.35-1.41-1.2-1.17-2.15-1a3.82,3.82,0,0,1-.83.06c-.71,0-.75.29-.59.9.66,2.55,2.79,4,5.83,3.93,3.55-.09,5.94-3.15,5.52-7.09a5.19,5.19,0,0,0-6.64-4.57c-.22.07-.63.18-.62,0a12,12,0,0,1,.32-2.23c.14-.57.66-.32,1-.33,1,0,2,0,3,0,2.37,0,2.35,0,2.24-2.39,0-.56-.17-.78-.75-.76C649.82,536.48,648.62,536.46,647.43,536.46Zm11.46,14a13.82,13.82,0,0,1,2.55-2.74,12.43,12.43,0,0,0,3.61-4.7,4.86,4.86,0,0,0-2.75-6.51c-3.2-1.16-6.68.16-7.66,2.91-.61,1.7-.56,1.73,1.2,2,1,.17,1.77.29,2-1.14.17-1.1,1.33-1.59,2.58-1.35a1.94,1.94,0,0,1,1.67,2A3.59,3.59,0,0,1,661,543.8c-1.31,1.35-2.67,2.64-4,4a10.77,10.77,0,0,0-2.91,4.6c-.26.91-.21,1.26.89,1.24,2.79-.08,5.58,0,8.38,0,2.12,0,2.07,0,2.09-2.15,0-.82-.27-1-1-1C662.63,550.52,660.86,550.48,658.89,550.48Zm-39.55-9.34v10.27c0,2.2,0,2.15,2.16,2.2.88,0,1.15-.19,1.14-1.11,0-5,0-10,0-15.08,0-.44.35-1.25-.45-1.24s-1.88-.62-2.45.52a5.71,5.71,0,0,1-2.9,2.91c-1.76.7-1.93,1.93-1.73,3.46,0,.12,0,.23.06.4A12,12,0,0,0,619.34,541.14Z" transform="translate(-517.02 -382.3)"/><path class="cls-2" d="M686.21,523.84c-1.64,0-3.28-.05-4.91,0a1.35,1.35,0,0,1-1.49-1q-7.63-16.28-15.34-32.51c-.29-.61-.7-1.17-.94-1.8a2.8,2.8,0,0,0-3.5-1.86,9.37,9.37,0,0,1-1.67.1H618.81c-1.6,0-3.19-.05-4.79-.08-.45,0-.85,0-1.06.52-2.28,5.88-5.34,11.38-8,17.1-2.49,5.42-5.2,10.75-7.5,16.26-1.27,3-2.16,3.58-5.51,3.45-2.48-.1-5-.24-7.43-.24-1.31,0-1.31,0-.76-1.21l13-27.56q15.72-33.43,31.47-66.87c2.66-5.63,5.24-11.29,7.84-16.95a1.53,1.53,0,0,1,1.5-1c1.61-.17,2.42.41,3.12,1.92,8.13,17.6,16.36,35.16,24.52,52.75q13.37,28.82,26.66,57.67c.58,1.26.58,1.26-.86,1.26Zm-28.93-48.31a6.73,6.73,0,0,0-.83-2.6c-1.13-2.59-2.67-5-3.87-7.52-1.46-3.09-2.79-6.26-4.23-9.37-3.06-6.59-6.06-13.2-9.52-19.58-.28-.53-.47-1.17-1.12-1.46-.83,2.36-1.87,4.55-2.89,6.76-3.73,8.12-8,16-11.46,24.23a9.57,9.57,0,0,1-.87,1.68,37.55,37.55,0,0,0-3.48,7.19c-.24.6,0,.78.56.75,1.2-.05,2.39-.09,3.59-.1l31.26-.18C655.38,475.32,656.29,475.78,657.28,475.53Z" transform="translate(-517.02 -382.3)"/><path class="cls-3" d="M557.07,422.78V384c0-1.93,0-2,1.76-1,5.56,3.28,11.09,6.64,16.64,9.94,8.79,5.2,17.38,10.74,26.27,15.77.35.19.68.35.67.87,0,2.54,0,5.09,0,7.65-.48.06-.64-.27-.81-.49-5.78-7.63-13.69-12.61-21.69-17.48A212.88,212.88,0,0,0,561,388.62c-.53-.25-1.2-.83-1.62-.53s-.1,1.17,0,1.78a40.11,40.11,0,0,0,2.41,11.19,12.66,12.66,0,0,0,6.75,7.4c.5.23,1,.53,1.62.88a44.73,44.73,0,0,0-7.39,6,32.06,32.06,0,0,0-5.37,7.58Z" transform="translate(-517.02 -382.3)"/><path class="cls-4" d="M719.21,387.74c-2.94,1.29-5.59,2.67-8.21,4.1a193.78,193.78,0,0,0-26.17,16.58,37.56,37.56,0,0,0-7.09,7.27,7.35,7.35,0,0,1-1.91,1.91V411c0-.44.37-.58.67-.76,14.48-9,28.69-18.41,43.32-27.16a4.57,4.57,0,0,1,1.66-.79v40.94a8.39,8.39,0,0,1-1.24-2c-2.56-4.89-6.48-8.46-11-11.39-.7-.45-.8-.65-.08-1.07.28-.16.53-.37.81-.51,4.64-2.24,6.89-6.21,8-11A53.25,53.25,0,0,0,719.21,387.74Z" transform="translate(-517.02 -382.3)"/><path class="cls-5" d="M567.63,576.07c.39,2.39.8,4.66,1.13,6.94q1.18,8.36,2.3,16.73c.06.42.46,1.22-.49,1.08-.69-.11-1.82.77-2-.82-.68-5.34-1.43-10.67-2.17-16.1a4.21,4.21,0,0,0-1.17,1.68c-2.28,4.92-4.92,9.67-7.06,14.66-.14.34-.25.63-.73.61s-.66-.37-.84-.72q-2.66-5.24-5.3-10.46c-1-1.88-1.92-3.76-3-5.84a46.35,46.35,0,0,0-1,6.59c-.37,2.93-.67,5.87-1,8.8-.19,1.57-.93,2-2.46,1.65-.51-.12-.39-.42-.33-.71.72-4,1.15-8,1.67-12s.94-7.93,1.7-11.88c.53.14.56.64.75,1q4.53,8.78,9,17.56c.18.36.22,1,.77.95s.53-.61.71-1c2.67-5.66,5.35-11.32,8.3-16.85A5.94,5.94,0,0,1,567.63,576.07Z" transform="translate(-517.02 -382.3)"/><path class="cls-5" d="M736.79,588.67c.45,7.84-7,13-13,12.93a13.09,13.09,0,0,1-.16-26.17C730.29,575.43,737.18,580.47,736.79,588.67Zm-13.11,10.25a10.15,10.15,0,0,0,10.54-10.35A10.51,10.51,0,0,0,723.91,578c-6.23,0-10.31,4.43-10.32,11.26A9.92,9.92,0,0,0,723.68,598.92Z" transform="translate(-517.02 -382.3)"/><path class="cls-5" d="M678.22,575.43a13.05,13.05,0,1,1-.13,26.1c-7.35,0-12.91-5.83-12.83-13.4A13,13,0,0,1,678.22,575.43Zm0,23.49a10.16,10.16,0,0,0,10.47-10.43,10.58,10.58,0,0,0-10.37-10.55c-6.16,0-10.19,4.55-10.29,11.36C668,593.9,672.57,599.27,678.21,598.92Z" transform="translate(-517.02 -382.3)"/><path class="cls-6" d="M574.94,616.85c5.77,5.83,10.61,12.49,16.35,18.45a2.2,2.2,0,0,0,.12-1.22c0-5.35,0-10.71,0-16.06,0-.87.18-1.28,1.1-1.18s1.73-.22,1.73,1.17c0,7.63,0,15.27,0,22.9,0,.28.19.69-.27.8a1,1,0,0,1-1.12-.45c-4.7-5.91-10-11.33-14.77-17.15a7.49,7.49,0,0,0-.65-.57V625c0,5.19,0,10.39,0,15.58,0,1.28-.6,1.19-1.44,1.19s-1.45.09-1.44-1.18c.07-7.83,0-15.66,0-23.49Z" transform="translate(-517.02 -382.3)"/><path class="cls-5" d="M604,582.68v1.46c0,5.19,0,10.39,0,15.58,0,.85-.13,1.21-1.09,1.16-2.07-.11-1.72.23-1.73-1.7q0-11,0-22.06c0-.38-.28-1,.33-1.13s.62.48.88.78c2.22,2.52,4.44,5,6.64,7.56,2.64,3,5.26,6.11,7.91,9.15.24.27.46.81.91.61s.16-.65.16-1c0-5.32,0-10.63,0-16,0-.77,0-1.33,1.05-1.21s1.77-.12,1.76,1.29q-.06,11.38,0,22.78c0,.93-.33.91-1,.55a5,5,0,0,1-1.29-1.23q-6.75-7.79-13.52-15.55C604.82,583.48,604.53,583.21,604,582.68Z" transform="translate(-517.02 -382.3)"/><path class="cls-7" d="M657.39,630.43c2.68,3.94,5.73,7.32,8.37,11-2,.65-3,.35-4.22-1.21L655,631.55a5.58,5.58,0,0,0-.8-.88,1.2,1.2,0,0,0-1.25-.21c-.4.17-.2.63-.2,1,0,3.08,0,6.16,0,9.24,0,.82-.18,1.11-1.05,1.08-2-.09-1.73.2-1.73-1.71,0-7.2,0-14.4,0-21.59,0-1.18.31-1.61,1.55-1.58a57.36,57.36,0,0,1,8.49.33c4.42.77,6.85,4.75,5.32,8.79-1.12,2.95-3.58,4-6.47,4.37C658.42,630.4,658,630.39,657.39,630.43Zm-4.68-6.78v3.23c0,.34-.1.8.47.78,2.33-.1,4.69.48,7-.31,1.9-.64,2.84-1.84,2.76-3.57-.1-2.28-1.13-3.55-3.22-4a36.47,36.47,0,0,0-6.44-.2c-.52,0-.57.29-.57.69C652.72,621.41,652.71,622.53,652.71,623.65Z" transform="translate(-517.02 -382.3)"/><path class="cls-8" d="M642.9,588.43c0-3.8,0-7.59,0-11.39,0-1.1.48-1.11,1.28-1.1s1.34,0,1.31,1.09c-.09,2.84,0,5.68-.05,8.51,0,.73.21,1,.94.94,3.52,0,7,0,10.54,0,.78,0,.92-.27.91-1,0-2.56-.07-5.11-.07-7.67,0-1.81.25-2,2-2,1,0,.87.55.87,1.16q0,9.9,0,19.78c0,1-.06,2,0,3s-.28,1.14-1.08,1a3,3,0,0,0-.84,0c-.77.11-.93-.26-.92-1,0-3.24,0-6.48,0-9.71,0-.88-.14-1.26-1.16-1.24-3.35.07-6.7.06-10,0-1,0-1.21.3-1.19,1.22.05,3.16,0,6.31,0,9.47,0,1-.3,1.27-1.27,1.24s-1.34-.08-1.31-1.19C643,595.94,642.9,592.19,642.9,588.43Z" transform="translate(-517.02 -382.3)"/><path class="cls-1" d="M597.59,600.8c-2.72.17-2.72.17-3.78-2.07-.8-1.7-1.64-3.37-2.4-5.09a1.17,1.17,0,0,0-1.27-.79c-3,0-6,0-9,0a1.25,1.25,0,0,0-1.32.92c-.88,2-1.8,4.08-2.72,6.12a2.56,2.56,0,0,1-2.9.93c-.42-.28-.1-.65,0-.94,1.2-2.69,2.38-5.4,3.63-8.07q3.33-7.09,6.75-14.14c.28-.58.51-1.51,1.21-1.46s.82,1,1.09,1.59Q592,588.69,597,599.61C597.21,600,597.37,600.32,597.59,600.8Zm-12-18.85c-1.2,2.5-2.36,5-3.57,7.43-.43.87-.08,1,.7,1,1.92,0,3.84-.06,5.75,0,1.07,0,1.36-.2.87-1.22-.92-1.9-1.77-3.84-2.68-5.75A2.85,2.85,0,0,0,585.56,582Z" transform="translate(-517.02 -382.3)"/><path class="cls-7" d="M631.73,629.17c0-3.76,0-7.51,0-11.27,0-.76.17-1,1-1,4,0,8.07.07,12.1,0,1.23,0,1,.7,1,1.37s.31,1.44-.95,1.4c-3.15-.08-6.31,0-9.47,0-.84,0-1.2.13-1.16,1.09.09,1.8.06,3.6,0,5.4,0,.79.22,1,1,1,3.08-.05,6.15,0,9.23,0,.95,0,1.4.08,1.4,1.26s-.47,1.33-1.46,1.31c-3.08,0-6.15,0-9.23,0-.73,0-.95.18-.94.93,0,2.56,0,5.12,0,7.68,0,.82.18,1.09,1,1.07,3.15,0,6.31,0,9.46,0,1.12,0,1.07.5,1.1,1.28s-.11,1.26-1.14,1.24q-5.94-.09-11.87,0c-.95,0-1.11-.33-1.1-1.17C631.75,636.77,631.73,633,631.73,629.17Z" transform="translate(-517.02 -382.3)"/><path class="cls-7" d="M552.26,626.31c0-2.84,0-5.68,0-8.52,0-1.2.72-.85,1.33-.9s1.18-.07,1.17.94c-.06,5.2-.26,10.39.16,15.58,0,.6.11,1.2.19,1.79.46,3.11,2.38,4.68,5.61,4.6a5.11,5.11,0,0,0,5.27-5c.11-1.47.07-3,.08-4.43,0-4.08,0-8.16,0-12.23,0-.92.1-1.41,1.2-1.34s1.64.07,1.62,1.41c-.08,5.27.2,10.55-.28,15.82-.23,2.51-.68,4.92-2.83,6.61-2.84,2.23-6,2.15-9.06.88s-4.26-3.76-4.38-6.86c-.11-2.79,0-5.59,0-8.39Z" transform="translate(-517.02 -382.3)"/><path class="cls-5" d="M675.52,642.37a8,8,0,0,1-7.11-4.87c-.16-.4-.07-.57.25-.76a4.45,4.45,0,0,1,1.5-.73c.86-.15.7.71,1,1.1,1.84,2.64,4.14,3.39,6.69,2.11a3.43,3.43,0,0,0,1.76-4.63,9.66,9.66,0,0,0-3-3.84c-1.2-1-2.46-1.91-3.7-2.86a7.28,7.28,0,0,1-3-4.86,5.34,5.34,0,0,1,2.34-5.61,5.87,5.87,0,0,1,6.45-.36,10.18,10.18,0,0,1,3.11,2.77c.45.55.31.86-.18,1.26-1.2,1-1.32,1-2.3-.17a4.32,4.32,0,0,0-5-1.55,2.75,2.75,0,0,0-1.81,3.54,6,6,0,0,0,2.41,3.18c1.47,1.1,3,2.19,4.31,3.43a15.9,15.9,0,0,1,2.17,2.4c1.33,1.89,2.11,3.92,1,6.16a7.18,7.18,0,0,1-5.93,4.29C676.16,642.4,675.83,642.37,675.52,642.37Z" transform="translate(-517.02 -382.3)"/><path class="cls-5" d="M750.77,594.84l7.07-16.17a5.25,5.25,0,0,0,.5-1.21c.19-1.3.92-1.58,2.15-1.55s1.19.4.81,1.27q-2.13,4.82-4.22,9.64c-1.93,4.47-3.89,8.92-5.76,13.41-.4.95-.76.56-1.19.17a1.67,1.67,0,0,1-.34-.63c-3.11-7.3-6.25-14.59-9.31-21.91-.88-2.11-1.15-1.85,1.36-1.92.79,0,.91.48,1.12,1l7,16.63A2.85,2.85,0,0,0,750.77,594.84Z" transform="translate(-517.02 -382.3)"/><path class="cls-5" d="M616.79,635.76c2.66-6.19,5.25-12.24,7.85-18.28.21-.49,2.44-.91,2.76-.5s0,.78-.17,1.11c-1.12,2.64-2.29,5.27-3.43,7.91-2.13,4.94-4.24,9.9-6.37,14.84-.14.32-.09.84-.68.84s-.76-.45-1-.9l-8.88-20.93c-.31-.73-.63-1.47-.92-2.21-.16-.44-.11-.71.5-.76,1.94-.17,2-.16,2.74,1.61q3.21,7.6,6.44,15.2A6.86,6.86,0,0,0,616.79,635.76Z" transform="translate(-517.02 -382.3)"/><path class="cls-5" d="M624.42,600.86c1.3-2.8,2.51-5.43,3.74-8.06,2-4.3,4-8.61,6-12.89.47-1,.23-1.2-.79-1.16-2.07.07-4.15.07-6.22.06a1.71,1.71,0,0,1-1.64-2.53c.15-.37.42-.32.68-.32h11.61c.58,0,.71.23.52.73-.38,1-.71,2-1.16,2.87-2.83,5.81-5.44,11.72-8.08,17.61-.54,1.19-.53,1.19.78,1.2,2.48,0,5,0,7.43,0,1.15,0,.91.69.92,1.34s.16,1.23-.9,1.21C633.12,600.82,628.89,600.86,624.42,600.86Z" transform="translate(-517.02 -382.3)"/><path class="cls-9" d="M717.53,627c1.49-3,3.41-5.57,5-8.35,1.16-2,1.2-2.06,3.73-1.66a4.28,4.28,0,0,1-.79,1.7c-1.78,2.94-3.54,5.88-5.38,8.78a9.21,9.21,0,0,0-1.52,5.42c.1,2.6,0,5.2.13,7.79,0,1.07-.51,1-1.23,1s-1.31.17-1.28-1c.09-3,0-6.08.05-9.11a4.76,4.76,0,0,0-.75-2.71q-3.21-5.12-6.37-10.27c-.31-.5-.91-1.11-.67-1.57s1.08-.11,1.64-.21c.77-.12,1.14.21,1.55.9,1.68,2.85,3.48,5.64,5.24,8.44A9.15,9.15,0,0,0,717.53,627Z" transform="translate(-517.02 -382.3)"/><path class="cls-6" d="M698.51,630.72c0-3.35,0-6.71,0-10.07,0-.87-.26-1.1-1.09-1a21.51,21.51,0,0,1-3.11.1,1.8,1.8,0,0,1-1.3-2.6c.18-.31.48-.22.75-.22,4,0,8,0,12,0,.65,0,.86.23.81.84a6.49,6.49,0,0,0,0,1.08c.06.62-.19.85-.82.83-1,0-2.08.06-3.11,0s-1.36.19-1.35,1.29c.06,6.56,0,13.12,0,19.68,0,.38.29,1-.33,1.11a4.18,4.18,0,0,1-2.35-.1c-.14-.07-.11-.59-.11-.9Q698.51,635.7,698.51,630.72Z" transform="translate(-517.02 -382.3)"/><path class="cls-6" d="M695.89,588.5c0-3.68,0-7.36,0-11a1.71,1.71,0,0,1,2.56-1.46c.44.26.24.72.24,1.09,0,6.6,0,13.2,0,19.8,0,1.26.36,1.53,1.53,1.48,2.28-.09,4.56,0,6.83-.06,1.15-.05,1.07.56,1.06,1.32s.1,1.27-1,1.25c-3.4-.08-6.79-.06-10.19,0-.89,0-1-.3-1-1.1C695.91,596,695.89,592.26,695.89,588.5Z" transform="translate(-517.02 -382.3)"/><path class="cls-2" d="M602.18,629.42c0,3.76,0,7.51,0,11.26,0,1.31-.74,1-1.45,1s-1.34.14-1.33-1c.06-7.59,0-15.18,0-22.76,0-.73.11-1.18,1-1s1.79-.46,1.78,1C602.17,621.75,602.18,625.59,602.18,629.42Z" transform="translate(-517.02 -382.3)"/><path class="cls-7" d="M687.48,629.18c0-3.75,0-7.51,0-11.27,0-1,.47-1.06,1.22-1s1.36-.17,1.35,1q-.09,11.4,0,22.78c0,1.2-.63,1-1.35,1s-1.24,0-1.22-1C687.52,636.85,687.48,633,687.48,629.18Z" transform="translate(-517.02 -382.3)"/><path class="cls-3" d="M635,542.63a6,6,0,0,1-.23,1.17,2.1,2.1,0,0,1-4,.07,5,5,0,0,1,0-3.61,1.92,1.92,0,0,1,3.28-.71A3.81,3.81,0,0,1,635,542.63Z" transform="translate(-517.02 -382.3)"/></svg>