<svg width="360" height="433" viewBox="0 0 360 433" fill="none" xmlns="http://www.w3.org/2000/svg">
<path d="M261.126 272.617C261.126 273.722 260.231 274.617 259.126 274.617H257.135C256.031 274.617 255.135 275.512 255.135 276.617V375.197C255.135 376.301 254.24 377.197 253.135 377.197H250.645C249.541 377.197 248.645 376.301 248.645 375.197V333.213C248.645 332.108 247.75 331.213 246.645 331.213H243.656C242.551 331.213 241.656 330.317 241.656 329.213V289.253C241.656 288.426 240.985 287.755 240.158 287.755H239.924C239.226 287.755 238.661 287.19 238.661 286.492V285.978C238.661 285.564 238.325 285.229 237.912 285.229C237.498 285.229 237.163 284.893 237.163 284.48V284.218C237.163 283.66 236.71 283.207 236.152 283.207H231.175C230.07 283.207 229.175 282.312 229.175 281.207V273.856C229.175 273.718 229.063 273.606 228.925 273.606C228.788 273.606 228.676 273.495 228.676 273.357V261.978C228.676 261.702 228.452 261.479 228.177 261.479C227.901 261.479 227.677 261.702 227.677 261.978V273.357C227.677 273.495 227.566 273.606 227.428 273.606C227.29 273.606 227.178 273.718 227.178 273.856V281.207C227.178 282.312 226.283 283.207 225.178 283.207H220.7C220.142 283.207 219.689 283.666 219.689 284.224C219.689 284.776 219.242 285.229 218.691 285.229C218.14 285.229 217.693 285.676 217.693 286.227V286.507C217.693 287.197 217.134 287.755 216.444 287.755C215.755 287.755 215.196 288.314 215.196 289.003V371.154C215.196 372.259 214.301 373.154 213.196 373.154H212.204C211.099 373.154 210.204 372.259 210.204 371.154V330.686C210.204 329.582 209.309 328.686 208.204 328.686H191.735C190.631 328.686 189.735 329.582 189.735 330.686V393.891C189.735 394.718 189.065 395.388 188.237 395.388C187.41 395.388 186.74 394.718 186.74 393.891V385.264C186.74 384.437 186.069 383.766 185.242 383.766C184.415 383.766 183.744 383.095 183.744 382.268V370.606C183.744 369.502 182.849 368.606 181.744 368.606H167.772C166.667 368.606 165.772 369.502 165.772 370.606V384.798C165.772 385.902 164.876 386.798 163.772 386.798H163.279C162.174 386.798 161.279 385.902 161.279 384.798V375.154C161.279 374.05 160.383 373.154 159.279 373.154H150.298C149.194 373.154 148.298 372.259 148.298 371.154V334.729C148.298 333.624 147.403 332.729 146.298 332.729H144.307C143.203 332.729 142.307 331.833 142.307 330.729V317.043C142.307 315.938 141.412 315.043 140.307 315.043H138.816C137.711 315.043 136.816 314.147 136.816 313.043V297.338C136.816 296.511 136.145 295.84 135.318 295.84C134.491 295.84 133.82 295.17 133.82 294.343V268.541C133.82 267.99 133.373 267.543 132.822 267.543C132.27 267.543 131.823 267.99 131.823 268.541V294.343C131.823 295.17 131.153 295.84 130.326 295.84C129.499 295.84 128.828 296.511 128.828 297.338V313.043C128.828 314.147 127.933 315.043 126.828 315.043H125.836C124.731 315.043 123.836 315.938 123.836 317.043V330.729C123.836 331.833 122.94 332.729 121.836 332.729H119.346C118.241 332.729 117.346 333.624 117.346 334.729V376.46C117.346 377.425 116.563 378.207 115.598 378.207C114.633 378.207 113.851 377.425 113.851 376.46V346.351C113.851 345.247 112.955 344.351 111.851 344.351H110.858C109.754 344.351 108.858 343.456 108.858 342.351V260.952C108.858 259.848 107.963 258.952 106.858 258.952H104.868C103.763 258.952 102.868 258.057 102.868 256.952V232.651C102.868 231.548 101.974 230.654 100.871 230.654C99.7677 230.654 98.8737 229.76 98.8737 228.657V224.401C98.8737 223.875 98.6663 223.37 98.2964 222.996L91.9723 216.594C91.5966 216.214 91.0842 216 90.5496 216H85.8965C84.7919 216 83.8965 216.895 83.8965 218V229.157C83.8965 229.984 83.226 230.654 82.3988 230.654C81.5716 230.654 80.9011 231.325 80.9011 232.152V257.704C80.9011 258.393 80.3423 258.952 79.653 258.952C78.9637 258.952 78.4049 259.511 78.4049 260.2V326.686C78.4049 327.791 77.5094 328.686 76.4049 328.686H74.9132C73.8087 328.686 72.9132 327.791 72.9132 326.686V306.431C72.9132 305.326 72.0178 304.431 70.9132 304.431H43.4612C42.3566 304.431 41.4612 305.326 41.4612 306.431V393.891C41.4612 394.718 40.7906 395.388 39.9635 395.388C39.1363 395.388 38.4658 394.718 38.4658 393.891V380.204C38.4658 379.102 37.5717 378.207 36.4688 378.207C35.3659 378.207 34.4718 377.313 34.4718 376.21V361.514C34.4718 360.687 33.8013 360.016 32.9741 360.016C32.147 360.016 31.4764 359.345 31.4764 358.518V340.287C31.4764 339.183 30.581 338.287 29.4764 338.287H20.9954C19.8909 338.287 18.9954 339.183 18.9954 340.287V358.518C18.9954 359.345 18.3249 360.016 17.4977 360.016C16.6706 360.016 16 360.687 16 361.514V404C16 405.105 16.8954 406 18 406H342C343.105 406 344 405.105 344 404V381.218C344 380.114 343.105 379.218 342 379.218H328.027C326.923 379.218 326.027 380.114 326.027 381.218V385.044C326.027 385.734 325.469 386.293 324.779 386.293H324.542C323.984 386.293 323.531 385.84 323.531 385.282V385.02C323.531 384.607 323.196 384.271 322.782 384.271C322.369 384.271 322.033 383.936 322.033 383.522V318.053C322.033 316.949 321.138 316.053 320.033 316.053H290.584C289.48 316.053 288.584 316.949 288.584 318.053V323.654C288.584 324.759 287.689 325.654 286.584 325.654H283.595C282.491 325.654 281.595 324.759 281.595 323.654V261.963C281.595 260.858 280.7 259.963 279.595 259.963H270.948C270.414 259.963 269.901 260.177 269.525 260.557L261.704 268.474C261.334 268.849 261.126 269.354 261.126 269.88V272.617Z" fill="#E3EBFA"/>
</svg>
