<svg width="657" height="712" viewBox="0 0 657 712" fill="none" xmlns="http://www.w3.org/2000/svg">
<path d="M491 450C491 451.105 490.105 452 489 452H481C479.895 452 479 452.895 479 454V653C479 654.105 478.105 655 477 655H468C466.895 655 466 654.105 466 653V566C466 564.895 465.105 564 464 564H454C452.895 564 452 563.105 452 562V480C452 478.895 451.105 478 450 478H448C446.895 478 446 477.105 446 476V474.5C446 473.672 445.328 473 444.5 473C443.672 473 443 472.328 443 471.5V471C443 469.895 442.105 469 441 469H429C427.895 469 427 468.105 427 467V450.5C427 450.224 426.776 450 426.5 450C426.224 450 426 449.776 426 449.5V427C426 426.448 425.552 426 425 426C424.448 426 424 426.448 424 427V449.5C424 449.776 423.776 450 423.5 450C423.224 450 423 450.224 423 450.5V467C423 468.105 422.105 469 421 469H410C408.895 469 408 469.895 408 471C408 472.105 407.105 473 406 473C404.895 473 404 473.895 404 475V476C404 477.105 403.105 478 402 478H401C399.895 478 399 478.895 399 480V645C399 646.105 398.105 647 397 647H391C389.895 647 389 646.105 389 645V561C389 559.895 388.105 559 387 559H350C348.895 559 348 559.895 348 561V689C348 690.105 347.105 691 346 691H344C342.895 691 342 690.105 342 689V670C342 668.895 341.105 668 340 668H338C336.895 668 336 667.105 336 666V640C336 638.895 335.105 638 334 638H302C300.895 638 300 638.895 300 640V672C300 673.105 299.105 674 298 674H293C291.895 674 291 673.105 291 672V649C291 647.895 290.105 647 289 647H267C265.895 647 265 646.105 265 645V569C265 567.895 264.105 567 263 567H255C253.895 567 253 566.105 253 565V534C253 532.895 252.105 532 251 532H244C242.895 532 242 531.105 242 530V496C242 494.895 241.105 494 240 494H238C236.895 494 236 493.105 236 492V440C236 438.895 235.105 438 234 438C232.895 438 232 438.895 232 440V492C232 493.105 231.105 494 230 494H228C226.895 494 226 494.895 226 496V530C226 531.105 225.105 532 224 532H218C216.895 532 216 532.895 216 534V565C216 566.105 215.105 567 214 567H205C203.895 567 203 567.895 203 569V655C203 656.105 202.105 657 201 657H198C196.895 657 196 656.105 196 655V592C196 590.895 195.105 590 194 590H188C186.895 590 186 589.105 186 588V423C186 421.895 185.105 421 184 421H176C174.895 421 174 420.105 174 419V367C174 365.895 173.105 365 172 365H168C166.895 365 166 364.105 166 363V351.828C166 351.298 165.789 350.789 165.414 350.414L151.586 336.586C151.211 336.211 150.702 336 150.172 336H138C136.895 336 136 336.895 136 338V363C136 364.105 135.105 365 134 365H132C130.895 365 130 365.895 130 367V419C130 420.105 129.105 421 128 421H127C125.895 421 125 421.895 125 423V557C125 558.105 124.105 559 123 559H116C114.895 559 114 558.105 114 557V513C114 511.895 113.105 511 112 511H53C51.8954 511 51 511.895 51 513V689C51 690.105 50.1046 691 49 691H47C45.8954 691 45 690.105 45 689V659C45 657.895 44.1046 657 43 657H39C37.8954 657 37 656.105 37 655V623C37 621.895 36.1046 621 35 621H33C31.8954 621 31 620.105 31 619V580C31 578.895 30.1046 578 29 578H8C6.89543 578 6 578.895 6 580V619C6 620.105 5.10457 621 4 621H2C0.895431 621 0 621.895 0 623V710C0 711.105 0.895423 712 1.99999 712H655C656.105 712 657 711.105 657 710V661C657 659.895 656.105 659 655 659H623C621.895 659 621 659.895 621 661V671C621 672.105 620.105 673 619 673H618C616.895 673 616 672.105 616 671V670.5C616 669.672 615.328 669 614.5 669C613.672 669 613 668.328 613 667.5V536C613 534.895 612.105 534 611 534H548C546.895 534 546 534.895 546 536V551C546 552.105 545.105 553 544 553H534C532.895 553 532 552.105 532 551V425C532 423.895 531.105 423 530 423H509.828C509.298 423 508.789 423.211 508.414 423.586L491.586 440.414C491.211 440.789 491 441.298 491 441.828V450Z" fill="#E3EBFA"/>
<path d="M508.4 128H429.2C415.857 128 405 117.143 405 103.8C405 90.27 416.11 79.2106 429.761 79.6066C429.387 78.1766 429.2 76.7048 429.2 75.2C429.2 65.4958 437.096 57.6 446.8 57.6C448.703 57.6 450.564 57.9058 452.359 58.5108C457.877 47.1962 469.284 40 482 40C499.725 40 514.23 54.0448 514.969 71.5876C527.841 74.5994 537 86.013 537 99.4C537 115.17 524.17 128 508.4 128Z" fill="white"/>
<path d="M508.4 128H429.2C415.857 128 405 117.143 405 103.8C405 90.27 416.11 79.2106 429.761 79.6066C429.387 78.1766 429.2 76.7048 429.2 75.2C429.2 65.4958 437.096 57.6 446.8 57.6C448.703 57.6 450.564 57.9058 452.359 58.5108C457.877 47.1962 469.284 40 482 40C499.725 40 514.23 54.0448 514.969 71.5876C527.841 74.5994 537 86.013 537 99.4C537 115.17 524.17 128 508.4 128ZM429.2 84C418.284 84 409.4 92.8814 409.4 103.8C409.4 114.719 418.284 123.6 429.2 123.6H508.4C521.743 123.6 532.6 112.743 532.6 99.4C532.6 87.5442 524.112 77.521 512.417 75.563C511.344 75.3826 510.563 74.4454 510.58 73.3564C510.58 73.3146 510.593 73.088 510.596 73.044C510.6 57.2304 497.77 44.4 482 44.4C470.342 44.4 459.954 51.3806 455.532 62.1826C455.303 62.7436 454.85 63.1858 454.282 63.4036C453.717 63.6258 453.083 63.595 452.538 63.331C450.716 62.4466 448.787 62 446.8 62C439.52 62 433.6 67.9202 433.6 75.2C433.6 77.2812 434.084 79.2876 435.037 81.1642C435.415 81.9078 435.34 82.801 434.843 83.472C434.346 84.143 433.523 84.4796 432.691 84.3278C431.451 84.1078 430.309 84 429.2 84Z" fill="#D0DEFD"/>
<path d="M534.8 101.6C533.586 101.6 532.6 100.617 532.6 99.4C532.6 86.057 521.743 75.2 508.4 75.2C495.057 75.2 484.2 86.057 484.2 99.4C484.2 100.617 483.214 101.6 482 101.6C480.786 101.6 479.8 100.617 479.8 99.4C479.8 83.6304 492.63 70.8 508.4 70.8C524.17 70.8 537 83.6304 537 99.4C537 100.617 536.014 101.6 534.8 101.6Z" fill="#D0DEFD"/>
<path d="M453.22 86.1978C452.335 86.1978 451.499 85.661 451.165 84.781C449.728 81.0212 449 77.059 449 73C449 54.8038 463.804 40 482 40C483.214 40 484.2 40.9834 484.2 42.2C484.2 43.4166 483.214 44.4 482 44.4C466.23 44.4 453.4 57.2304 453.4 73C453.4 76.52 454.031 79.9542 455.277 83.2146C455.71 84.3498 455.142 85.6214 454.007 86.0548C453.748 86.1516 453.481 86.1978 453.22 86.1978Z" fill="#D0DEFD"/>
<path d="M124.779 200C112.805 200 104.122 209.713 103.486 220.336C96.2372 222.788 91 229.598 91 237.655C91 247.764 99.2326 256 109.337 256H155.663C166.321 256 174 248.685 174 239.586C174 232.431 169.324 225.501 162.238 223.565C161.776 217.975 159.034 213.67 155.21 211.375C151.52 209.16 146.99 208.775 142.905 210.228C139.428 204.527 133.063 200 124.779 200Z" fill="white"/>
<path d="M124.779 200C112.805 200 104.122 209.713 103.486 220.336C96.2372 222.788 91 229.598 91 237.655C91 247.764 99.2326 256 109.337 256H155.663C166.321 256 174 248.685 174 239.586C174 232.431 169.324 225.501 162.238 223.565C161.776 217.975 159.034 213.67 155.21 211.375C151.52 209.16 146.99 208.775 142.905 210.228C139.428 204.527 133.063 200 124.779 200ZM124.779 203.862C132.276 203.862 137.84 208.21 140.432 213.397C140.544 213.625 140.701 213.829 140.892 213.996C141.083 214.164 141.306 214.292 141.547 214.373C141.788 214.455 142.043 214.488 142.297 214.47C142.55 214.453 142.798 214.385 143.026 214.272C146.282 212.643 150.163 212.829 153.22 214.664C156.277 216.499 158.558 219.9 158.558 225.103C158.559 225.558 158.719 225.997 159.011 226.345C159.304 226.693 159.709 226.926 160.157 227.004C165.956 227.978 170.14 233.767 170.14 239.586C170.14 246.573 164.633 252.138 155.663 252.138H109.337C101.319 252.138 94.8605 245.677 94.8605 237.655C94.8605 230.868 99.5111 225.213 105.778 223.625C106.198 223.517 106.569 223.27 106.831 222.925C107.094 222.581 107.233 222.158 107.226 221.724C107.139 212.661 114.457 203.862 124.779 203.862Z" fill="#D0DEFD"/>
<path d="M254 451L258 402.5L251.5 399.5L245 392.5L248 375L263 338.5L245 317.5L247 290L238.5 269.5L226 260.5L229 237.5L244 206L234 155V128L227 110.5L224 102.5V84.5L228.5 81.5L227 68.5L216 67.5L213 59V42.5L230 41L224 29.5L228.5 13L233.5 16.5L241 4L244.5 13L250 8.5V30.5L246.5 40L251 42.5H261.5V63.5L248.5 70.5V86.5L255.5 102.5L253.5 128L264 177L267 190.5L273 212.5L286.5 230.5L290 223L286.5 197L270 190.5L289 190L293.5 183L274.5 159.5L304.5 178.5L311.5 174.5L315.5 139.5L323.5 177H330L350.5 154L338 184.5L345 188.5L374.5 184.5L349.5 194.5L347 203L367 211.5H347L345 223.5L347 248L354 271.5L373 287L381 318.5L399.5 332.5L414 313.5L449 332.5L440 349L443.5 360L429.5 384.5L418 390L408.5 429.5L395 438L401.5 519L393 523L398.5 590.5L389 600.5L400.5 661.5L415.5 671.5V686.5L425.5 688.5V708.5L344 712L208 707V688.5H217.5V671.5L235 661.5L242.5 655L251.5 645.5L258 510L254 451Z" fill="white"/>
<path d="M296.362 219.083C296.343 219.083 296.324 219.083 296.305 219.083C297.104 219.694 297.903 220.306 298.702 220.917C298.687 220.808 298.594 220.12 298.683 220.785C298.658 220.595 298.633 220.406 298.609 220.216C298.563 219.862 298.517 219.508 298.472 219.154C298.061 219.873 297.651 220.593 297.241 221.311C297.406 221.225 297.571 221.139 297.738 221.055C296.492 220.336 295.245 219.616 293.998 218.897C293.879 219.79 293.834 220.682 293.878 221.581C293.944 222.941 294.958 224.08 296.363 224.08C297.668 224.08 298.914 222.943 298.848 221.581C298.805 220.682 298.849 219.79 298.969 218.897C299.081 218.058 298.416 217.14 297.738 216.74C296.936 216.268 296.036 216.33 295.23 216.74C295.063 216.824 294.898 216.91 294.732 216.997C294.04 217.36 293.399 218.343 293.502 219.154C293.633 220.185 293.77 221.216 293.91 222.246C294.057 223.327 295.313 224.08 296.307 224.08C296.326 224.08 296.344 224.08 296.363 224.08C297.718 224.08 298.848 222.943 298.848 221.581C298.848 220.219 297.716 219.083 296.362 219.083Z" fill="#BFD2FA"/>
<path d="M356.882 270.611C353.233 267.339 349.156 264.282 344.623 262.383C342.201 261.368 339.667 260.684 337.028 260.979C333.921 261.325 333.038 263.41 331.093 265.574C329.636 267.195 328.37 269.366 326.514 269.133C324.45 268.875 322.386 268.617 320.323 268.36C316.953 267.938 313.584 267.517 310.215 267.095C310.801 267.34 311.387 267.584 311.972 267.827C309.717 265.423 308.011 262.662 306.468 259.757C304.694 256.418 303.943 251.846 301.615 248.949C296.731 242.873 292.065 236.618 287.545 230.264C287.545 231.105 287.545 231.945 287.545 232.786C289.323 229.192 291.439 225.966 294.399 223.241C293.814 223.484 293.228 223.729 292.642 223.973C293.863 224.008 295.085 224.044 296.307 224.08C295.508 223.469 294.709 222.857 293.91 222.246C294.883 228.875 295.953 236.316 300.176 241.729C303.737 246.294 312.516 248.629 318.033 248.629C323.919 248.629 333.173 245.74 336.478 240.501C340.262 234.502 341.188 226.822 342.097 219.919C341.489 220.722 340.881 221.525 340.273 222.328C341.724 222.007 343.174 221.686 344.626 221.364C343.606 220.783 342.588 220.201 341.568 219.62C342.27 224.397 343.03 229.168 343.986 233.902C344.584 236.865 345.037 241.16 347.623 243.12C347.327 241.981 347.029 240.841 346.732 239.701C346.247 240.736 345.286 243.299 344.184 243.722C342.598 244.331 341.973 245.836 342.698 247.392C346.569 255.685 350.204 264.232 352.729 273.043C353.615 276.133 358.412 274.818 357.522 271.715C354.88 262.498 351.039 253.546 346.991 244.87C346.496 246.094 346 247.317 345.505 248.541C348.242 247.49 349.823 244.787 351.023 242.224C351.654 240.876 351.289 239.683 350.131 238.805C350.907 239.394 349.85 237.125 349.69 236.543C349.171 234.645 348.797 232.705 348.421 230.775C347.613 226.636 346.973 222.462 346.36 218.291C346.155 216.894 344.498 216.281 343.303 216.546C341.852 216.867 340.401 217.188 338.95 217.51C337.775 217.77 337.267 218.843 337.126 219.919C336.401 225.422 335.532 231.319 333.133 236.371C330.842 241.194 323.003 243.493 318.033 243.632C313.198 243.768 307.202 241.489 303.69 238.196C301.685 236.317 301.028 232.382 300.381 229.846C299.633 226.913 299.14 223.911 298.702 220.918C298.54 219.815 297.31 219.114 296.305 219.084C294.649 219.036 292.229 218.472 290.884 219.709C287.633 222.7 285.207 226.313 283.253 230.266C282.879 231.022 282.724 232.044 283.253 232.788C286.837 237.827 290.533 242.782 294.313 247.675C295.396 249.076 296.49 250.469 297.594 251.854C299.072 253.707 299.718 257.03 300.727 259.296C302.676 263.673 305.176 267.863 308.458 271.363C309.768 272.76 313.892 272.554 315.581 272.765C318.949 273.187 322.318 273.608 325.686 274.029C329.283 274.479 331.337 272.369 333.903 269.848C334.758 269.008 335.53 268.081 336.285 267.151C336.621 266.714 336.956 266.277 337.291 265.84C337.888 265.057 337.788 265.123 336.99 266.04C339.054 265.345 341.654 266.464 343.499 267.317C347.114 268.986 350.411 271.495 353.368 274.147C355.751 276.282 359.279 272.761 356.882 270.611Z" fill="#BFD2FA"/>
<path d="M323.304 174.022C318.998 173.403 314.845 173.405 310.539 174.022C311.588 174.825 312.636 175.628 313.685 176.431C314.983 163.974 316.28 151.516 317.578 139.059C315.951 139.28 314.324 139.502 312.697 139.724C315.213 152.181 317.73 164.638 320.247 177.096C320.885 180.252 325.676 178.913 325.04 175.767C322.523 163.31 320.006 150.853 317.49 138.395C316.89 135.424 312.879 136.456 312.608 139.06C311.31 151.517 310.013 163.975 308.715 176.432C308.529 178.219 310.431 179.046 311.861 178.841C315.215 178.361 318.629 178.359 321.983 178.841C325.116 179.291 326.466 174.477 323.304 174.022Z" fill="#BFD2FA"/>
<path d="M349.183 152.321C344.432 161.934 339.681 171.546 334.929 181.159C336.063 180.861 337.196 180.562 338.33 180.263C335.682 178.337 332.859 176.902 329.82 175.713C330.185 177.105 330.55 178.497 330.916 179.889C338.306 171.709 345.696 163.529 353.087 155.349C355.237 152.97 351.732 149.425 349.573 151.815C342.183 159.995 334.793 168.176 327.402 176.356C326.061 177.84 326.74 179.843 328.498 180.532C331.132 181.562 333.534 182.914 335.821 184.578C336.868 185.338 338.66 184.817 339.221 183.682C343.972 174.068 348.724 164.456 353.476 154.843C354.897 151.967 350.61 149.435 349.183 152.321Z" fill="#BFD2FA"/>
<path d="M302.122 176.49C298.73 177.982 295.719 179.929 292.945 182.389C294.116 182.389 295.288 182.389 296.459 182.389C289.382 174.003 282.304 165.617 275.227 157.23C274.223 158.538 273.219 159.846 272.215 161.154C282.184 167.704 292.153 174.254 302.122 180.803C304.814 182.572 307.302 178.244 304.631 176.489C294.661 169.939 284.692 163.389 274.723 156.839C272.22 155.195 269.981 158.713 271.711 160.763C278.789 169.149 285.867 177.536 292.944 185.922C293.86 187.007 295.509 186.765 296.459 185.922C298.919 183.741 301.633 182.123 304.63 180.804C307.562 179.515 305.029 175.211 302.122 176.49Z" fill="#BFD2FA"/>
<path d="M370.427 210.16C361.682 209.518 352.933 208.913 344.191 208.233C344.99 209.287 345.789 210.341 346.587 211.396C347.33 208.917 348.083 206.442 348.831 203.965C347.812 204.546 346.793 205.127 345.774 205.709C353.772 208.829 361.769 211.948 369.766 215.068C372.759 216.235 374.042 211.402 371.088 210.249C363.09 207.13 355.092 204.01 347.095 200.891C345.807 200.388 344.4 201.435 344.038 202.635C343.289 205.112 342.537 207.588 341.794 210.066C341.298 211.719 342.63 213.108 344.19 213.229C352.933 213.91 361.682 214.515 370.427 215.157C373.627 215.392 373.605 210.393 370.427 210.16Z" fill="#BFD2FA"/>
<path d="M397.046 332.386C391.792 341.892 386.537 351.397 381.283 360.903C382.827 361.324 384.37 361.744 385.913 362.165C385.843 345.361 384.662 328.466 381.564 311.939C380.05 312.581 378.536 313.223 377.022 313.864C378.07 315.493 379.096 317.133 380.085 318.798C380.686 319.809 381.162 321.35 382.044 322.144C383.291 323.266 384.553 324.368 385.82 325.467C388.073 327.421 390.361 329.335 392.701 331.184C393.651 331.933 394.614 332.664 395.592 333.376C396.093 333.74 396.61 334.082 397.129 334.419C396.171 333.798 396.396 333.084 396.794 334.312C397.786 337.36 402.585 336.055 401.587 332.983C400.91 330.901 399.83 330.283 398.101 329.061C395.658 327.337 393.373 325.375 391.093 323.443C389.383 321.994 387.696 320.517 386.021 319.025C385.438 318.507 385.345 317.998 384.939 317.257C383.828 315.231 382.562 313.285 381.314 311.342C379.737 308.89 376.253 310.504 376.772 313.267C379.786 329.353 380.874 345.809 380.943 362.164C380.954 364.612 384.358 365.626 385.574 363.425C390.828 353.92 396.083 344.414 401.337 334.908C402.896 332.089 398.602 329.57 397.046 332.386Z" fill="#BFD2FA"/>
<path d="M414.287 390.639C413.968 400.437 412.91 410.446 409.716 419.754C408.292 423.903 405.894 429.165 401.478 430.791C399.654 431.464 398.031 430.966 396.554 432.45C395.07 433.943 393.586 435.435 392.102 436.927C393.515 437.516 394.93 438.104 396.344 438.694C395.08 428.197 393.721 417.712 392.257 407.242C391.04 408.182 389.823 409.124 388.606 410.064C392.819 412.628 397.032 415.194 401.246 417.759C402.398 418.46 403.979 418.029 404.646 416.862C409.403 408.541 414.16 400.221 418.918 391.899C420.518 389.1 416.223 386.585 414.626 389.377C409.869 397.698 405.112 406.018 400.354 414.34C401.488 414.042 402.62 413.743 403.754 413.444C399.541 410.879 395.328 408.313 391.115 405.749C389.051 404.492 387.181 406.547 387.464 408.57C388.866 418.598 390.162 428.64 391.373 438.693C391.62 440.746 393.941 442.144 395.616 440.46C397.273 438.795 398.929 437.129 400.586 435.463C400.001 435.707 399.415 435.952 398.829 436.195C408.494 436.121 413.014 426.295 415.408 418.269C418.056 409.396 418.956 399.869 419.257 390.638C419.363 387.414 414.391 387.425 414.287 390.639Z" fill="#BFD2FA"/>
<path d="M442.587 338.22C443.077 338.96 443.568 339.7 444.057 340.44C444.057 339.599 444.057 338.759 444.057 337.918C441.771 341.915 439.485 345.913 437.198 349.91C438.5 349.742 439.801 349.573 441.101 349.405C438.721 346.671 435.017 340.551 430.564 343.174C427.936 344.721 427.845 347.706 429.116 350.121C430.36 352.484 435.8 355.367 434.053 358.59C435.354 358.422 436.655 358.254 437.956 358.085C434.193 354.157 420.807 346.077 419.381 356.325C420.18 355.714 420.979 355.102 421.777 354.491C417.5 354.984 414.798 358.199 416.172 362.551C416.749 361.526 417.329 360.502 417.907 359.477C415.826 359.781 414.369 361.1 413.59 362.996C412.56 365.5 414.861 367.935 416.557 369.373C419.514 371.878 421.553 374.844 419.673 378.641C418.248 381.523 416.852 384.432 415.598 387.394C414.807 389.265 415.758 390.888 417.744 391.154C417.796 391.161 417.848 391.168 417.9 391.175C417.185 389.921 416.47 388.669 415.755 387.415C410.6 396.379 405.486 405.365 400.354 414.342C401.488 414.043 402.621 413.744 403.755 413.445C391.633 406.065 379.514 398.677 367.393 391.295C367.69 392.435 367.988 393.573 368.285 394.713C382.366 369.237 396.446 343.761 410.525 318.283C409.391 318.581 408.259 318.881 407.125 319.179C408.225 319.795 409.327 320.412 410.426 321.028C412.215 322.029 413.949 320.716 414.166 318.871C414.413 316.779 414.658 314.688 414.905 312.596C413.658 313.315 412.412 314.034 411.165 314.753C423.529 321.52 435.894 328.287 448.258 335.055C448.09 333.747 447.922 332.438 447.755 331.131C446.162 332.485 444.569 333.838 442.977 335.192C440.526 337.275 444.059 340.792 446.491 338.726C448.084 337.372 449.677 336.018 451.269 334.664C452.483 333.633 452.094 331.467 450.767 330.74C438.402 323.973 426.038 317.206 413.674 310.439C411.88 309.457 410.153 310.736 409.934 312.596C409.687 314.688 409.442 316.779 409.195 318.871C410.442 318.152 411.688 317.432 412.935 316.713C411.835 316.097 410.733 315.481 409.633 314.865C408.47 314.214 406.9 314.553 406.233 315.76C392.154 341.237 378.075 366.715 363.993 392.191C363.327 393.396 363.709 394.893 364.885 395.609C377.005 402.992 389.124 410.378 401.246 417.759C402.398 418.46 403.979 418.029 404.646 416.862C409.778 407.886 414.893 398.9 420.047 389.936C421.086 388.13 419.701 386.418 417.901 386.177C417.849 386.169 417.798 386.162 417.745 386.156C418.461 387.409 419.176 388.662 419.891 389.916C422.179 384.51 427.025 378.63 424.98 372.547C424.093 369.905 422.111 367.657 420.072 365.839C419.485 365.315 418.853 364.833 418.216 364.373C418.3 364.433 418.185 364.625 418.474 364.455C418.667 364.343 419.005 364.328 419.229 364.295C420.537 364.103 421.336 362.4 420.964 361.221C420.738 360.501 420.408 360.001 421.217 359.682C421.43 359.598 422.825 359.366 421.777 359.487C422.776 359.371 424.01 358.82 424.173 357.653C424.48 355.443 425.748 356.432 427.561 357.072C430.091 357.966 432.584 359.68 434.44 361.618C435.53 362.756 437.584 362.514 438.344 361.112C440.382 357.35 439.41 353.345 436.115 350.611C435.149 349.81 434.144 348.609 433.407 347.599C433.169 347.273 433.258 347.949 433.48 348.206C434.844 349.787 436.215 351.363 437.586 352.938C438.647 354.158 440.729 353.761 441.489 352.433C443.775 348.435 446.061 344.438 448.348 340.441C448.772 339.699 448.835 338.655 448.348 337.919C447.858 337.178 447.368 336.438 446.878 335.699C445.113 333.029 440.806 335.529 442.587 338.22Z" fill="#BFD2FA"/>
<path d="M332.77 263.615C327.135 270.565 319.397 275.063 311.972 267.827C309.646 265.56 307.979 262.603 306.468 259.757C304.519 256.087 303.692 251.539 301.109 248.318C301.322 249.128 301.535 249.939 301.748 250.749C302.399 247.106 303.049 243.463 303.7 239.821C302.316 240.188 300.931 240.555 299.547 240.923C303.458 245.936 311.857 248.629 318.033 248.629C324.649 248.629 333.412 245.359 337.043 239.603C335.499 239.182 333.955 238.762 332.412 238.341C331.882 247.342 331.896 256.369 332.042 265.382C332.094 268.6 337.064 268.606 337.012 265.382C336.867 256.369 336.851 247.342 337.382 238.341C337.536 235.739 334.002 235.096 332.751 237.08C330.059 241.349 322.701 243.631 317.849 243.631C312.918 243.631 306.158 241.357 303.062 237.388C301.942 235.953 299.219 236.749 298.908 238.491C298.286 241.977 297.663 245.464 297.039 248.95C296.932 249.551 296.788 250.136 296.956 250.748C297.143 251.433 297.671 251.945 298.101 252.481C298.436 252.899 298.814 254.748 299.047 255.341C300.455 258.932 302.118 262.42 304.13 265.71C307.61 271.402 312.666 276.298 319.57 276.816C326.248 277.316 332.381 271.962 336.285 267.148C338.29 264.675 334.796 261.117 332.77 263.615Z" fill="#BFD2FA"/>
<path d="M334.925 277.232C334.063 277.31 333.202 277.389 332.34 277.467C332.758 279.019 333.176 280.571 333.594 282.123C334.436 281.51 335.277 280.897 336.123 280.289C334.876 279.57 333.63 278.85 332.383 278.131C332.401 278.665 332.42 279.197 332.44 279.73C332.491 281.091 333.532 282.229 334.925 282.229C336.241 282.229 337.461 281.092 337.41 279.73C337.39 279.197 337.372 278.665 337.353 278.131C337.323 277.242 336.898 276.431 336.123 275.974C335.41 275.554 334.318 275.467 333.614 275.974C332.77 276.582 331.927 277.195 331.086 277.809C330.172 278.475 329.626 279.468 329.944 280.63C330.217 281.629 331.253 282.563 332.34 282.464C333.202 282.386 334.063 282.307 334.925 282.229C336.273 282.106 337.41 281.185 337.41 279.73C337.409 278.462 336.277 277.109 334.925 277.232Z" fill="#BFD2FA"/>
<path d="M381.283 360.903C380.951 361.506 380.619 362.108 380.288 362.709C381.802 362.908 383.316 363.108 384.83 363.306C380.021 341.323 372.648 319.994 363.278 299.563C358.54 289.23 353.632 278.171 346.231 269.469C345.554 268.673 344.075 268.477 343.22 269.078C342.475 269.601 341.736 270.131 340.996 270.66C341.102 270.768 341.209 270.877 341.315 270.986C340.866 270.987 340.448 271.101 340.06 271.327C339.392 271.807 338.719 272.282 338.05 272.762C336.412 273.937 332.383 275.714 332.383 278.131C332.793 277.412 333.202 276.693 333.613 275.974C319.89 285.884 306.502 296.225 293.313 306.84C279.866 317.663 267.036 329.339 257.2 343.671C258.744 344.091 260.287 344.512 261.831 344.932C261.878 341.89 263.865 338.339 264.873 335.499C266.212 331.727 267.54 327.952 268.86 324.174C271.292 317.214 273.697 310.242 275.969 303.228C281.364 286.582 282.023 269.248 285.131 252.141C285.699 249.017 281.083 247.642 280.338 250.813C277.985 260.834 274.779 270.702 270.943 280.243C267.999 287.565 264.474 294.709 260.085 301.27C256.28 306.956 251.256 312.752 244.69 315.184C245.709 315.765 246.728 316.347 247.747 316.928C245.705 309.161 248.145 299.513 249.913 291.845C250.192 290.636 249.698 289.743 248.771 289.023C243.428 284.876 242.39 274.677 241.587 268.452C240.759 269.285 239.931 270.117 239.102 270.95C252.483 271.527 262.841 260.562 270.093 250.548C275.842 242.609 282.133 233.111 282.025 222.959C280.482 223.379 278.938 223.8 277.394 224.22C282.872 232.51 288.758 240.516 294.846 248.362C295.664 249.415 296.489 250.463 297.319 251.507C298.436 252.914 298.824 254.801 299.52 256.503C301.157 260.504 303.1 264.371 305.603 267.898C310.055 274.167 316.745 278.41 324.512 276.07C328.136 274.978 331.245 272.457 333.903 269.847C335.154 268.617 336.226 267.227 337.291 265.838C338.256 264.58 335.9 266.102 337.749 265.895C338.832 265.775 339.886 266.043 340.92 266.318C344.226 267.199 347.256 269.345 349.981 271.349C352.193 272.976 353.675 274.766 356.359 275.5C363.821 277.543 368.213 285.901 370.948 292.501C378.533 310.804 379.98 331.86 380.726 351.454C380.861 355.023 380.927 358.593 380.943 362.164C380.957 365.385 385.928 365.387 385.914 362.164C385.837 343.815 384.541 325.243 380.602 307.296C378.72 298.722 376.031 290.091 371.497 282.533C369.743 279.61 367.545 276.914 364.96 274.701C363.789 273.698 362.504 272.849 361.158 272.109C360.165 271.563 357.419 271.097 356.884 270.611C352.469 266.606 347.267 262.837 341.455 261.289C339.177 260.682 335.043 260.341 333.511 262.594C331.163 266.047 327.922 269.011 324.193 270.864C315.232 275.316 308.75 264.494 305.502 257.807C303.799 254.301 302.946 250.631 300.519 247.575C297.959 244.351 295.465 241.075 293.004 237.775C289.085 232.522 285.302 227.167 281.688 221.698C280.367 219.698 277.03 220.361 277.057 222.959C277.15 231.752 271.487 239.786 266.69 246.769C260.48 255.808 251.042 266.468 239.104 265.953C237.878 265.9 236.45 267.138 236.619 268.452C237.702 276.854 239.128 287.799 246.264 293.337C245.883 292.397 245.503 291.456 245.122 290.516C243.148 299.077 240.676 309.581 242.956 318.256C243.281 319.489 244.75 320.469 246.014 320.001C260.451 314.655 268.58 298.349 274.288 285.053C278.836 274.461 282.494 263.373 285.133 252.14C283.536 251.697 281.938 251.254 280.34 250.811C277.233 267.919 276.539 285.244 271.179 301.898C268.814 309.245 266.273 316.536 263.728 323.821C262.42 327.568 261.097 331.309 259.77 335.049C258.648 338.21 256.915 341.553 256.863 344.931C256.822 347.564 260.154 348.143 261.494 346.193C271.398 331.762 284.59 320.207 298.123 309.333C305.158 303.679 312.22 298.067 319.432 292.641C323.287 289.74 327.147 286.845 331.039 283.993C332.832 282.679 337.355 280.588 337.355 278.124C336.944 278.843 336.535 279.563 336.124 280.281C338.266 278.759 340.379 277.199 342.522 275.677C341.099 275.991 340.92 276.063 341.985 275.893C342.556 275.702 343.064 275.396 343.507 274.974C344.246 274.443 344.987 273.916 345.731 273.393C344.727 273.263 343.723 273.132 342.72 273.002C349.487 280.96 354.399 292.15 358.989 302.084C368.227 322.079 375.33 343.103 380.039 364.634C380.503 366.755 383.57 367.069 384.581 365.231C384.913 364.628 385.245 364.026 385.576 363.425C387.128 360.604 382.835 358.084 381.283 360.903Z" fill="#BFD2FA"/>
<path d="M280.34 250.813C277.282 267.645 276.656 284.757 271.419 301.153C266.94 315.175 261.937 329.038 256.972 342.891C258.6 343.113 260.226 343.334 261.854 343.556C261.504 337.235 258.754 331.561 255.248 326.407C253.79 324.264 252.149 322.233 250.448 320.28C249.505 319.197 248.204 318.242 247.749 316.929C247.17 317.954 246.591 318.978 246.013 320.003C260.451 314.658 268.579 298.351 274.287 285.055C278.835 274.463 282.493 263.375 285.133 252.142C285.868 249.008 281.076 247.677 280.34 250.813C277.986 260.834 274.78 270.702 270.944 280.243C268.001 287.565 264.476 294.709 260.086 301.27C256.282 306.956 251.258 312.752 244.691 315.184C243.489 315.629 242.482 316.892 242.956 318.257C244.048 321.408 246.715 323.47 248.784 326.012C252.798 330.942 256.523 337.053 256.883 343.556C257.043 346.437 260.813 346.875 261.765 344.22C266.643 330.61 271.513 316.985 275.971 303.229C281.366 286.583 282.025 269.248 285.133 252.142C285.704 248.99 280.915 247.646 280.34 250.813Z" fill="#BFD2FA"/>
<path d="M336.123 280.281C336.163 280.253 336.203 280.224 336.243 280.196C335.239 278.888 334.235 277.579 333.232 276.272C333.212 276.288 333.192 276.305 333.171 276.321C333.339 276.19 333.507 276.06 333.674 275.931C333.655 275.946 333.634 275.959 333.614 275.974C334.861 276.693 336.107 277.413 337.354 278.132C337.354 278.13 337.355 278.126 337.355 278.124C337.355 276.762 336.223 275.626 334.869 275.626C333.514 275.626 332.384 276.763 332.384 278.125C332.384 278.127 332.384 278.13 332.384 278.132C332.384 279.013 332.859 279.844 333.614 280.289C334.323 280.707 335.423 280.798 336.123 280.289C336.336 280.134 336.542 279.972 336.746 279.806C337.602 279.11 337.654 277.67 337.135 276.778C336.494 275.677 334.845 275.097 333.735 275.882C333.694 275.911 333.655 275.939 333.614 275.968C333.067 276.357 332.655 276.791 332.472 277.46C332.296 278.106 332.386 278.809 332.723 279.385C333.361 280.482 335.016 281.072 336.123 280.281Z" fill="#BFD2FA"/>
<path d="M340.011 271.363C339.361 271.834 338.709 272.301 338.051 272.763C338.888 274.201 339.723 275.639 340.56 277.077C341.212 276.609 341.863 276.14 342.52 275.678C343.627 274.899 344.138 273.507 343.411 272.259C342.769 271.156 341.124 270.581 340.011 271.363C339.354 271.825 338.704 272.295 338.051 272.763C337.505 273.154 337.093 273.585 336.909 274.255C336.733 274.9 336.824 275.604 337.16 276.18C337.803 277.284 339.447 277.858 340.56 277.077C341.217 276.616 341.87 276.148 342.52 275.677C343.066 275.283 343.479 274.857 343.662 274.185C343.838 273.539 343.748 272.836 343.411 272.259C342.775 271.168 341.113 270.566 340.011 271.363Z" fill="#BFD2FA"/>
<path d="M400.238 517.336C397.391 518.766 394.543 520.196 391.696 521.626C390.966 521.993 390.411 522.965 390.466 523.783C391.31 536.515 392.156 549.248 393 561.98C393.51 569.67 394.021 577.362 394.53 585.052C394.639 586.698 394.749 588.345 394.858 589.993C394.886 590.424 394.744 590.051 394.847 589.818C394.267 591.139 393.039 591.964 391.739 592.443C390.505 592.899 389.114 593.024 387.809 592.911C386.06 592.759 385.167 594.61 385.413 596.074C389.087 617.981 392.76 639.889 396.434 661.797C397.232 660.742 398.031 659.688 398.83 658.634C384.823 658.76 370.814 658.818 356.809 659.011C357.394 659.255 357.979 659.5 358.566 659.743C357.558 658.73 355.802 659.004 354.499 659.004C351.836 659.004 349.173 659.004 346.51 659.004C337.2 659.004 327.889 659.004 318.579 659.004C296.557 659.004 274.534 659.004 252.511 659.004C248.084 659.004 243.656 659.004 239.228 659.004C236.535 659.004 234.873 658.836 232.446 660.188C233.579 661.328 234.713 662.466 235.847 663.606C239.285 657.225 245.179 652.264 251.713 649.262C252.508 648.896 252.912 647.923 252.943 647.105C254.39 609.316 255.628 571.497 258.176 533.762C257.568 534.565 256.96 535.368 256.352 536.171C264.36 534.107 271.414 529.814 277.85 524.7C280.738 522.404 283.802 519.929 285.875 516.826C293.044 506.089 299.531 494.599 308.832 485.517C312.744 481.696 316.452 478.333 319.753 473.885C323.788 468.451 327.342 462.65 330.784 456.824C333.66 451.956 336.407 447.009 339.071 442.021C339.953 440.369 341.948 437.695 342.025 435.904C342.527 424.173 343.029 412.443 343.531 400.712C343.62 398.644 341.395 397.833 339.791 398.554C340.672 398.158 340.316 398.842 339.648 397.707C337.029 393.262 338.481 385.6 338.971 380.861C340.358 367.468 342.528 354.131 344.43 340.806C346.24 328.122 348.12 315.438 349.597 302.709C350.686 293.305 350.378 283.773 349.901 274.691C348.358 275.112 346.814 275.532 345.27 275.953C361.938 302.811 373.304 333.85 380.039 364.635C380.122 363.993 380.206 363.352 380.29 362.71C374.859 372.537 369.427 382.364 363.995 392.191C363.329 393.396 363.711 394.893 364.887 395.61C370.486 399.019 376.085 402.429 381.682 405.841C383.658 407.046 385.633 408.25 387.609 409.455C389.201 410.426 387.625 409.706 387.657 409.938C388.07 412.887 388.47 415.837 388.862 418.788C390.175 428.644 391.378 438.514 392.513 448.392C395.221 471.99 397.599 495.656 399.286 519.352C399.696 518.632 400.106 517.913 400.516 517.195C400.422 517.241 400.33 517.289 400.238 517.336C397.386 518.808 399.901 523.121 402.747 521.651C402.839 521.603 402.931 521.555 403.024 521.508C403.749 521.133 404.313 520.175 404.254 519.351C402.469 494.276 399.911 469.238 397.005 444.273C395.884 434.643 394.668 425.024 393.38 415.415C393.03 412.798 393.451 407.173 390.941 405.644C389.078 404.507 387.214 403.371 385.351 402.236C379.366 398.587 373.38 394.941 367.393 391.295C367.69 392.435 367.988 393.573 368.285 394.713C372.065 387.875 375.844 381.036 379.625 374.197C381.227 371.298 382.829 368.401 384.431 365.503C385.613 363.363 384.168 360.304 383.654 358.11C382.479 353.086 381.13 348.104 379.686 343.152C372.658 319.044 362.833 294.817 349.561 273.431C348.314 271.421 344.794 272.107 344.93 274.692C345.431 284.249 345.628 294.326 344.401 304.616C342.673 319.11 340.479 333.549 338.422 347.998C337.379 355.318 336.35 362.64 335.371 369.97C334.399 377.249 333.208 384.614 333.513 391.977C333.699 396.457 335.777 405.803 342.293 402.872C342.295 402.872 342.297 402.87 342.3 402.87C341.053 402.15 339.807 401.431 338.56 400.712C338.054 412.541 337.547 424.369 337.041 436.197C337.284 435.608 337.526 435.02 337.769 434.43C336.089 436.145 335.175 438.764 334.053 440.853C331.361 445.864 328.564 450.817 325.66 455.707C322.478 461.063 319.138 466.337 315.461 471.366C312.305 475.679 308.551 478.827 304.778 482.511C295.845 491.234 289.23 502.429 282.514 512.875C280.802 515.538 279.033 517.175 276.171 519.645C270.039 524.938 262.902 529.326 255.03 531.354C253.907 531.643 253.281 532.659 253.206 533.763C250.658 571.498 249.42 609.318 247.973 647.106C248.383 646.386 248.794 645.668 249.203 644.949C241.962 648.277 235.357 654.029 231.555 661.086C230.365 663.294 232.746 665.736 234.956 664.504C235.936 663.957 236.883 664.002 235.263 664.002C235.392 664.002 235.521 664.002 235.651 664.002C236.345 664.002 237.04 664.002 237.735 664.002C240.466 664.002 243.196 664.002 245.927 664.002C255.318 664.002 264.711 664.002 274.103 664.002C296.074 664.002 318.046 664.002 340.017 664.002C345.612 664.002 351.208 664.002 356.804 664.002C356.219 663.758 355.633 663.514 355.047 663.271C356.285 664.516 359.607 663.985 361.199 663.97C365.938 663.927 370.677 663.885 375.415 663.842C383.221 663.771 391.027 663.702 398.832 663.631C400.57 663.616 401.495 662.057 401.229 660.468C397.555 638.561 393.882 616.653 390.208 594.746C389.409 595.801 388.61 596.854 387.811 597.909C393.86 598.432 400.132 594.536 399.706 588.116C399.22 580.799 398.735 573.48 398.249 566.163C397.312 552.037 396.375 537.91 395.437 523.784C395.027 524.503 394.617 525.222 394.207 525.941C397.054 524.511 399.902 523.081 402.749 521.651C405.614 520.211 403.096 515.9 400.238 517.336Z" fill="#BFD2FA"/>
<path d="M374.559 181.454C364.695 185.817 354.831 190.181 344.967 194.544C346.184 195.042 347.401 195.539 348.618 196.037C347.988 192.919 346.829 190.118 345.159 187.421C344.664 188.644 344.168 189.868 343.673 191.091C354.607 189.401 365.541 187.711 376.474 186.021C379.634 185.533 378.287 180.718 375.153 181.203C364.219 182.893 353.285 184.583 342.352 186.273C340.766 186.518 340.088 188.686 340.867 189.943C342.324 192.294 343.278 194.655 343.825 197.366C344.175 199.093 346.114 199.462 347.476 198.859C357.34 194.496 367.204 190.132 377.068 185.769C379.996 184.474 377.463 180.17 374.559 181.454Z" fill="#BFD2FA"/>
<path d="M288.076 188.426C286.626 191.054 285.627 193.751 285.144 196.724C286.163 196.143 287.182 195.561 288.201 194.98C280.614 192.767 273.026 190.554 265.439 188.341C265.218 189.977 264.998 191.612 264.778 193.248C273.259 192.894 281.74 192.54 290.222 192.186C293.415 192.052 293.428 187.055 290.222 187.189C281.74 187.543 273.259 187.898 264.778 188.252C261.991 188.368 261.372 192.358 264.117 193.159C271.704 195.372 279.292 197.585 286.879 199.798C288.075 200.146 289.72 199.386 289.937 198.053C290.353 195.486 291.109 193.23 292.367 190.949C293.923 188.128 289.63 185.608 288.076 188.426Z" fill="#BFD2FA"/>
<path d="M296.362 219.083C296.343 219.083 296.324 219.083 296.305 219.083C297.104 219.694 297.903 220.306 298.702 220.917C298.687 220.808 298.594 220.12 298.683 220.785C298.658 220.595 298.633 220.406 298.609 220.216C298.563 219.862 298.517 219.508 298.472 219.154C298.061 219.873 297.651 220.593 297.241 221.311C297.406 221.225 297.571 221.139 297.738 221.055C296.492 220.336 295.245 219.616 293.998 218.897C293.879 219.79 293.834 220.682 293.878 221.581C293.944 222.941 294.958 224.08 296.363 224.08C297.668 224.08 298.914 222.943 298.848 221.581C298.805 220.682 298.849 219.79 298.969 218.897C299.081 218.058 298.416 217.14 297.738 216.74C296.936 216.268 296.036 216.33 295.23 216.74C295.063 216.824 294.898 216.91 294.732 216.997C294.04 217.36 293.399 218.343 293.502 219.154C293.633 220.185 293.77 221.216 293.91 222.246C294.057 223.327 295.313 224.08 296.307 224.08C296.326 224.08 296.344 224.08 296.363 224.08C297.718 224.08 298.848 222.943 298.848 221.581C298.848 220.219 297.716 219.083 296.362 219.083Z" fill="#BFD2FA"/>
<path d="M344.652 208.268C344.498 208.256 344.344 208.244 344.191 208.233C344.99 209.287 345.789 210.341 346.587 211.396C346.663 211.143 346.739 210.891 346.814 210.639C345.216 210.639 343.619 210.639 342.021 210.639C342.105 210.902 342.184 211.165 342.255 211.431C342.613 212.744 344.008 213.537 345.313 213.176C346.619 212.815 347.406 211.416 347.048 210.102C346.976 209.837 346.898 209.572 346.814 209.31C346.474 208.245 345.558 207.476 344.417 207.476C343.291 207.476 342.341 208.242 342.021 209.31C341.946 209.562 341.869 209.814 341.794 210.066C341.604 210.7 341.716 211.426 342.045 211.992C342.515 212.796 343.298 213.159 344.191 213.229C344.345 213.241 344.498 213.253 344.652 213.264C346.004 213.369 347.137 212.048 347.137 210.766C347.137 210.106 346.873 209.466 346.409 208.999C345.916 208.505 345.331 208.321 344.652 208.268Z" fill="#BFD2FA"/>
<path d="M344.006 199.981C343.912 202.993 343.222 205.631 341.881 208.321C343.396 208.52 344.91 208.719 346.423 208.918C338.918 182.066 294.938 182.066 287.432 208.918C288.946 208.719 290.461 208.52 291.975 208.321C284.058 192.987 299.393 180.205 313.449 178.646C326.751 177.17 343.587 184.79 344.006 199.981C344.094 203.197 349.065 203.206 348.976 199.981C348.459 181.232 328.272 171.494 311.657 173.864C303.11 175.083 294.42 179.177 289.362 186.464C284.245 193.837 283.551 202.837 287.684 210.843C288.698 212.809 291.666 212.249 292.226 210.246C298.401 188.155 335.456 188.155 341.631 210.246C342.184 212.227 345.182 212.834 346.173 210.843C347.904 207.371 348.855 203.869 348.976 199.981C349.076 196.757 344.106 196.767 344.006 199.981Z" fill="#BFD2FA"/>
<path d="M337.126 219.919C336.401 225.422 335.532 231.319 333.133 236.371C330.842 241.194 323.003 243.493 318.033 243.632C313.198 243.768 307.202 241.489 303.69 238.196C301.685 236.317 301.028 232.382 300.381 229.846C299.633 226.913 299.14 223.91 298.702 220.917C297.903 221.971 297.104 223.026 296.305 224.08C296.324 224.08 296.343 224.08 296.362 224.08C297.712 224.08 298.854 222.944 298.847 221.582C298.83 217.802 300.13 214.57 302.569 211.71C305.346 208.453 309.197 207.41 312.855 205.551C315.69 204.111 318.931 201.228 319.048 197.769C317.421 197.99 315.794 198.211 314.167 198.433C316.075 203.135 321.954 204.826 326.451 205.97C333.128 207.669 335.946 214.19 337.208 220.583C337.421 221.663 338.56 222.417 339.604 222.417C339.606 222.417 339.609 222.417 339.611 222.417C342.816 222.417 342.816 217.42 339.611 217.42C339.609 217.42 339.606 217.42 339.604 217.42C340.403 218.031 341.202 218.643 342 219.254C340.763 212.984 337.774 206.308 332.313 202.717C330.453 201.494 328.11 201.278 326.009 200.669C324.18 200.138 319.772 199.108 318.959 197.105C317.934 194.581 314.179 194.785 314.077 197.769C314.105 196.944 314.069 197.697 313.948 198.062C313.732 198.711 313.052 199.278 312.586 199.729C309.885 202.342 305.63 202.996 302.534 205.11C297.121 208.807 293.846 215.04 293.876 221.583C294.705 220.75 295.533 219.917 296.361 219.084C296.342 219.084 296.324 219.084 296.305 219.084C294.541 219.084 293.677 220.67 293.908 222.247C294.881 228.877 295.952 236.317 300.174 241.73C303.736 246.295 312.514 248.631 318.032 248.631C323.918 248.631 333.172 245.742 336.476 240.502C340.26 234.503 341.187 226.824 342.096 219.92C342.516 216.731 337.541 216.773 337.126 219.919Z" fill="#BFD2FA"/>
<path d="M345.646 216.031C344.714 216.235 343.782 216.439 342.85 216.645C342.061 216.82 341.271 216.994 340.482 217.169C340.172 217.238 338.293 217.419 339.604 217.419C340.403 218.03 341.202 218.642 342 219.253C340.763 212.982 337.774 206.307 332.313 202.715C330.453 201.493 328.11 201.277 326.009 200.667C324.18 200.136 319.772 199.107 318.959 197.103C317.934 194.579 314.179 194.784 314.077 197.768C314.097 197.182 314.152 197.358 314.039 197.784C313.888 198.36 313.446 198.843 313.06 199.27C310.81 201.76 307.149 202.456 304.285 203.982C301.526 205.453 299.33 207.732 297.448 210.187C296.56 211.344 295.882 212.671 295.325 214.015C295.08 214.564 294.865 215.123 294.68 215.695C294.415 216.443 293.612 217.576 294.732 216.997C294.04 217.355 293.397 218.348 293.501 219.155C293.635 220.186 293.771 221.216 293.91 222.247C294.708 221.192 295.506 220.139 296.305 219.084C294.12 219.021 291.937 218.957 289.752 218.898C290.551 219.509 291.35 220.121 292.149 220.732C291.338 217.213 291.46 213.397 292.028 209.861C290.514 210.059 289 210.258 287.486 210.458C287.552 210.586 287.618 210.715 287.684 210.843C288.698 212.809 291.666 212.249 292.226 210.246C298.401 188.155 335.456 188.155 341.631 210.246C342.184 212.227 345.182 212.834 346.173 210.843C346.227 210.734 346.283 210.624 346.337 210.515C344.823 210.316 343.309 210.116 341.795 209.918C341.954 209.565 341.953 209.615 341.794 210.066C341.298 211.719 342.632 213.108 344.192 213.229C344.346 213.242 344.499 213.254 344.652 213.265C343.854 212.654 343.054 212.042 342.255 211.431C342.968 213.96 343.5 216.51 343.911 219.105C344.413 222.28 349.202 220.927 348.703 217.777C348.293 215.182 347.761 212.631 347.048 210.102C346.729 208.969 345.773 208.355 344.652 208.268C344.498 208.256 344.344 208.244 344.191 208.233C344.99 209.287 345.789 210.342 346.588 211.396C346.899 210.358 346.919 209.642 346.588 208.59C345.981 206.658 343.061 205.958 342.046 207.993C341.992 208.103 341.937 208.213 341.883 208.322C343.397 208.521 344.911 208.72 346.425 208.919C338.92 182.066 294.94 182.066 287.434 208.919C288.948 208.72 290.462 208.521 291.976 208.322C291.91 208.193 291.843 208.065 291.777 207.936C290.842 206.124 287.58 206.383 287.235 208.533C286.519 212.995 286.333 217.624 287.356 222.062C287.609 223.16 288.678 223.866 289.752 223.896C291.937 223.955 294.121 224.017 296.306 224.081C298.089 224.133 298.908 222.456 298.702 220.918C298.625 220.331 298.549 219.743 298.472 219.156C298.061 219.875 297.651 220.594 297.241 221.313C298.414 220.706 298.802 220.007 299.027 218.718C299.357 216.822 300.206 215.115 301.201 213.494C303.482 209.777 307.104 208.176 310.89 206.487C314.347 204.945 318.902 202.108 319.049 197.769C317.421 197.991 315.795 198.212 314.167 198.434C316.076 203.136 321.955 204.827 326.452 205.971C333.128 207.669 335.947 214.191 337.208 220.584C337.421 221.663 338.56 222.418 339.605 222.418C341.97 222.418 344.643 221.361 346.968 220.851C350.098 220.164 348.77 215.347 345.646 216.031Z" fill="#BFD2FA"/>
<path d="M296.362 219.083C296.343 219.083 296.324 219.083 296.305 219.083C297.104 219.694 297.903 220.306 298.702 220.917C298.687 220.808 298.594 220.12 298.683 220.785C298.658 220.595 298.633 220.406 298.609 220.216C298.563 219.862 298.517 219.508 298.472 219.154C298.061 219.873 297.651 220.593 297.241 221.311C297.406 221.225 297.571 221.139 297.738 221.055C296.492 220.336 295.245 219.616 293.998 218.897C293.879 219.79 293.834 220.682 293.878 221.581C293.944 222.941 294.958 224.08 296.363 224.08C297.668 224.08 298.914 222.943 298.848 221.581C298.805 220.682 298.849 219.79 298.969 218.897C299.081 218.058 298.416 217.14 297.738 216.74C296.936 216.268 296.036 216.33 295.23 216.74C295.063 216.824 294.898 216.91 294.732 216.997C294.04 217.36 293.399 218.343 293.502 219.154C293.633 220.185 293.77 221.216 293.91 222.246C294.057 223.327 295.313 224.08 296.307 224.08C296.326 224.08 296.344 224.08 296.363 224.08C297.718 224.08 298.848 222.943 298.848 221.581C298.848 220.219 297.716 219.083 296.362 219.083Z" fill="#BFD2FA"/>
<path d="M245.601 68.1711C245.594 68.2924 245.586 68.4138 245.579 68.5351C246.408 67.7021 247.236 66.8698 248.064 66.0367C241.007 66.0367 233.949 66.0367 226.891 66.0367C227.719 66.8698 228.547 67.7021 229.376 68.5351C229.369 68.4138 229.362 68.2924 229.355 68.1711C228.526 69.0041 227.698 69.8365 226.87 70.6695C233.942 70.6695 241.014 70.6695 248.086 70.6695C251.291 70.6695 251.291 65.6727 248.086 65.6727C241.014 65.6727 233.942 65.6727 226.87 65.6727C225.576 65.6727 224.304 66.8105 224.384 68.1711C224.391 68.2924 224.399 68.4138 224.406 68.5351C224.486 69.8943 225.476 71.0336 226.891 71.0336C233.949 71.0336 241.007 71.0336 248.064 71.0336C249.48 71.0336 250.469 69.8943 250.55 68.5351C250.557 68.4138 250.564 68.2924 250.571 68.1711C250.761 64.951 245.79 64.9695 245.601 68.1711Z" fill="#BFD2FA"/>
<path d="M243.563 36.4197C243.563 38.3878 243.563 40.3551 243.563 42.3231C244.391 41.4901 245.219 40.6578 246.048 39.8247C240.417 39.8247 234.787 39.8247 229.156 39.8247C229.984 40.6578 230.812 41.4901 231.641 42.3231C231.641 40.3551 231.641 38.3878 231.641 36.4197C230.812 37.2528 229.984 38.0851 229.156 38.9181C234.787 38.9181 240.417 38.9181 246.048 38.9181C249.253 38.9181 249.253 33.9213 246.048 33.9213C240.417 33.9213 234.787 33.9213 229.156 33.9213C227.801 33.9213 226.671 35.0577 226.671 36.4197C226.671 38.3878 226.671 40.3551 226.671 42.3231C226.671 43.6851 227.801 44.8216 229.156 44.8216C234.787 44.8216 240.417 44.8216 246.048 44.8216C247.403 44.8216 248.533 43.6851 248.533 42.3231C248.533 40.3551 248.533 38.3878 248.533 36.4197C248.533 33.1975 243.563 33.1975 243.563 36.4197Z" fill="#BFD2FA"/>
<path d="M258.985 42.3231C258.985 45.5104 258.985 48.6977 258.985 51.8842C258.985 55.6105 259.958 61.2083 257.292 64.2057C258.593 65.2151 259.894 66.2245 261.195 67.2338C263.215 64.4906 263.593 61.5139 263.593 58.1988C263.593 56.8368 262.463 55.7004 261.108 55.7004C245.07 55.7004 229.033 55.7004 212.995 55.7004C213.824 56.5334 214.652 57.3658 215.48 58.1988C215.48 52.9065 215.48 47.6148 215.48 42.3231C214.652 43.1562 213.824 43.9885 212.995 44.8216C229.154 44.8216 245.312 44.8216 261.47 44.8216C264.675 44.8216 264.675 39.8247 261.47 39.8247C245.312 39.8247 229.154 39.8247 212.995 39.8247C211.64 39.8247 210.51 40.9611 210.51 42.3231C210.51 47.6155 210.51 52.9072 210.51 58.1988C210.51 59.5608 211.64 60.6972 212.995 60.6972C229.033 60.6972 245.07 60.6972 261.108 60.6972C260.279 59.8642 259.452 59.0319 258.623 58.1988C258.623 60.6715 258.43 62.6382 256.903 64.7119C255.215 67.004 258.943 69.835 260.806 67.7399C264.284 63.8281 263.955 59.4516 263.955 54.6032C263.955 50.5101 263.955 46.417 263.955 42.3231C263.955 39.1009 258.985 39.1009 258.985 42.3231Z" fill="#BFD2FA"/>
<path d="M229.814 34.0077C230.132 34.1205 230.117 34.159 229.607 33.8571C229.298 33.6743 228.87 33.326 228.562 32.9176C226.914 30.7383 227.178 27.7302 227.665 25.2118C228.631 20.2057 232.011 14.3786 229.463 9.31114C228.163 10.3205 226.861 11.3299 225.56 12.3392C227.746 14.1602 230.472 16.8128 230.708 19.8031C230.959 22.9746 235.648 23.0639 235.678 19.8031C235.707 16.7964 236.376 13.3643 238.386 11.0529C240.511 8.60801 243.481 6.60285 244.036 3.11434C242.439 3.11434 240.841 3.11434 239.244 3.11434C240.477 6.53717 241.511 10.2341 241.358 13.8961C241.283 15.6942 243.563 17.1398 245.098 16.0533C247.744 14.1795 250.484 11.8852 251.866 8.88069C250.352 8.23896 248.838 7.59722 247.324 6.95548C246.65 11.9366 246.708 17.0819 248.058 21.9453C248.978 25.2589 248.738 29.0365 247.008 32.0225C245.984 33.7907 246.24 33.9206 244.379 33.9206C242.354 33.9206 240.329 33.9206 238.303 33.9206C235.254 33.9206 232.203 33.9206 229.154 33.9206C225.949 33.9206 225.949 38.9174 229.154 38.9174C232.666 38.9174 236.18 38.9174 239.692 38.9174C243.845 38.9174 246.778 39.5884 249.89 36.4026C253.459 32.7485 253.86 27.2127 253.213 22.425C252.912 20.1957 252.185 18.0963 251.979 15.8334C251.83 14.1938 251.866 12.5362 251.927 10.8937C251.947 10.3619 252.206 7.62577 252.117 8.28464C252.459 5.75053 248.87 3.54121 247.575 6.35943C246.547 8.59302 244.568 10.3376 242.589 11.7396C243.835 12.4584 245.082 13.178 246.329 13.8968C246.5 9.80725 245.415 5.61062 244.037 1.7866C243.289 -0.287086 239.67 -0.88528 239.244 1.7866C238.658 5.46714 234.29 7.51584 232.664 10.7881C231.317 13.4992 230.736 16.7821 230.708 19.8031C232.365 19.8031 234.022 19.8031 235.678 19.8031C235.326 15.3552 232.409 11.5847 229.075 8.80645C226.911 7.00331 223.857 9.22048 225.172 11.8345C226.145 13.7712 224.768 17.4646 224.208 19.4355C223.126 23.2438 221.859 26.8807 222.536 30.9061C223.108 34.3075 225.132 37.634 228.493 38.8282C231.522 39.9025 232.815 35.0734 229.814 34.0077Z" fill="#BFD2FA"/>
<path d="M276.704 228.241C276.116 231.144 274.246 234.055 272.88 236.621C270.02 241.993 266.693 247.155 262.852 251.871C258.785 256.865 254.005 261.388 248.167 264.189C243.153 266.596 235.59 267.149 231.366 262.938C228.349 259.928 228.552 254.772 228.944 250.878C229.505 245.303 231.397 239.796 233.361 234.587C236.556 226.111 240.703 217.919 245.302 210.128C245.505 209.784 245.71 209.44 245.922 209.101C244.378 208.681 242.834 208.26 241.291 207.84C241.639 210.954 241.971 214.07 242.32 217.183C242.595 219.632 243.698 223.018 243.137 225.405C242.222 229.308 241.558 233.266 241.11 237.249C240.394 243.614 240.077 256.316 249.475 255.88C253.547 255.691 257.17 252.714 260.04 250.093C264.228 246.269 267.66 241.465 270.517 236.585C271.797 234.399 272.857 232.103 273.808 229.757C273.942 229.424 275.061 227.076 274.245 227.871C274.962 227.172 275.68 226.472 276.397 225.773C278.142 224.072 277.908 222.849 277.37 220.5C276.42 216.356 275.093 212.292 273.765 208.26C272.548 209.201 271.331 210.141 270.114 211.081C272.422 212.084 273.364 212.839 274.777 215.053C277.279 218.969 277.368 223.785 276.704 228.241C276.235 231.392 281.024 232.748 281.497 229.57C282.766 221.052 281.33 210.551 272.623 206.768C270.808 205.979 268.209 207.275 268.972 209.59C270.525 214.3 272.01 219.042 273.033 223.902C273.246 223.092 273.459 222.281 273.672 221.471C271.817 223.28 270.359 224.459 269.553 226.958C268.28 230.912 266.044 234.587 263.749 238.012C261.363 241.574 258.524 244.847 255.296 247.658C253.646 249.095 250.222 251.851 247.848 250.639C245.591 249.487 245.777 244.779 245.758 242.732C245.725 239.105 246.238 235.474 246.865 231.911C247.271 229.606 248.538 226.627 248.197 224.294C247.396 218.829 246.874 213.328 246.262 207.841C245.995 205.449 243.035 204.332 241.631 206.579C237.623 212.995 234.238 219.895 231.207 226.818C227.049 236.315 222.376 247.781 224.088 258.379C226 270.212 238.761 273.144 248.762 269.325C260.409 264.879 268.75 253.487 274.926 243.127C277.309 239.13 280.554 234.227 281.497 229.57C282.134 226.425 277.343 225.085 276.704 228.241Z" fill="#BFD2FA"/>
<path d="M269.987 225.543C268.227 231.589 264.697 237.161 260.765 242.011C258.353 244.986 253.119 251.557 248.623 250.904C244.662 250.327 245.738 241.399 245.931 238.828C246.265 234.38 247.142 229.952 248.196 225.622C246.598 225.622 245.001 225.622 243.403 225.622C244.086 230.054 244.929 234.44 246.002 238.793C246.649 241.417 247.427 246.523 249.431 248.639C250.376 249.636 251.992 249.569 252.946 248.639C260.011 241.751 267.076 234.862 274.141 227.974C276.445 225.727 272.928 222.197 270.626 224.44C263.561 231.329 256.496 238.217 249.431 245.106C250.603 245.106 251.774 245.106 252.946 245.106C254.414 246.656 253.469 245.95 253.067 244.916C252.82 244.281 252.607 243.635 252.392 242.988C251.698 240.893 251.114 238.762 250.587 236.618C249.585 232.552 248.834 228.433 248.196 224.293C247.81 221.789 243.957 222.017 243.403 224.293C241.997 230.069 240.966 236.012 240.795 241.963C240.649 247.056 241.435 254.226 247.301 255.72C253.371 257.267 259.509 250.929 263.09 246.939C268.199 241.245 272.626 234.269 274.78 226.871C275.683 223.771 270.885 222.457 269.987 225.543Z" fill="#BFD2FA"/>
<path d="M269.987 225.543C268.227 231.589 264.697 237.161 260.765 242.011C258.353 244.986 253.119 251.557 248.623 250.904C244.662 250.327 245.738 241.399 245.931 238.828C246.265 234.38 247.142 229.952 248.196 225.622C246.598 225.622 245.001 225.622 243.403 225.622C244.151 230.474 245.082 235.281 246.326 240.03C246.94 242.37 247.662 246.771 249.431 248.639C250.376 249.636 251.992 249.569 252.946 248.639C260.011 241.751 267.076 234.862 274.141 227.974C276.445 225.727 272.928 222.197 270.626 224.44C263.561 231.329 256.496 238.217 249.431 245.106C250.603 245.106 251.774 245.106 252.946 245.106C254.414 246.656 253.469 245.95 253.067 244.916C252.913 244.52 252.775 244.118 252.634 243.717C251.909 241.67 251.345 239.564 250.795 237.464C249.661 233.137 248.877 228.712 248.196 224.293C247.81 221.789 243.957 222.017 243.403 224.293C241.997 230.069 240.966 236.012 240.795 241.963C240.649 247.056 241.435 254.226 247.301 255.72C253.371 257.267 259.509 250.929 263.09 246.939C268.199 241.245 272.626 234.269 274.78 226.871C275.683 223.771 270.885 222.457 269.987 225.543Z" fill="#BFD2FA"/>
<path d="M245.579 68.5351C244.622 85.6001 243.666 102.666 242.711 119.731C244.367 119.731 246.025 119.731 247.681 119.731C247.683 119.529 247.686 119.327 247.688 119.125C247.704 117.766 246.546 116.622 245.203 116.626C240.064 116.643 234.887 116.835 229.752 116.626C228.41 116.571 227.252 117.804 227.267 119.125C227.269 119.327 227.272 119.529 227.274 119.731C228.931 119.731 230.588 119.731 232.245 119.731C232.081 116.821 231.918 113.911 231.755 111.001C230.926 111.834 230.098 112.667 229.269 113.5C232.827 113.5 236.584 114.153 239.545 111.848C240.962 110.745 241.695 107.688 240.985 105.991C239.909 103.422 238.33 102.227 235.582 101.857C235.802 103.493 236.022 105.128 236.243 106.765C239.127 106.375 241.184 103.968 241.184 101.029C241.184 97.6054 238.72 95.6337 235.582 95.2119C235.802 96.848 236.022 98.4834 236.243 100.119C241.097 99.4635 242.998 92.8933 239.042 89.8238C236.257 87.6623 231.456 88.5661 228.155 88.5661C228.983 89.3991 229.811 90.2314 230.64 91.0645C230.626 90.8168 230.611 90.5698 230.597 90.3221C229.769 91.1551 228.941 91.9875 228.112 92.8205C232.824 92.8205 241.184 94.1097 241.184 86.9992C241.184 79.7752 232.491 81.1779 227.736 81.1779C228.564 82.0109 229.392 82.8432 230.221 83.6763C229.94 78.6295 229.658 73.582 229.376 68.5351C228.547 69.3682 227.719 70.2005 226.891 71.0336C233.949 71.0336 241.007 71.0336 248.064 71.0336C251.27 71.0336 251.27 66.0367 248.064 66.0367C241.007 66.0367 233.949 66.0367 226.891 66.0367C225.594 66.0367 224.33 67.1739 224.406 68.5351C224.687 73.582 224.969 78.6295 225.251 83.6763C225.327 85.0354 226.323 86.1747 227.736 86.1747C228.875 86.1747 236.032 85.4495 236.214 86.8172C236.443 88.5396 229.313 87.8237 228.112 87.8237C226.816 87.8237 225.549 88.9615 225.627 90.3221C225.641 90.5698 225.655 90.8168 225.67 91.0645C225.748 92.4236 226.741 93.5629 228.155 93.5629C229.847 93.5629 231.54 93.5629 233.232 93.5629C233.987 93.5629 234.743 93.5629 235.498 93.5629C237.633 93.5629 234.982 95.2925 234.921 95.3011C231.875 95.713 233.099 99.8746 235.582 100.209C237.787 100.506 234.65 101.983 234.921 101.947C231.875 102.359 233.099 106.52 235.582 106.855C236.435 106.969 236.478 108.503 235.49 108.503C234.907 108.503 234.324 108.503 233.742 108.503C232.252 108.503 230.761 108.503 229.27 108.503C227.973 108.503 226.709 109.641 226.785 111.002C226.948 113.912 227.112 116.822 227.275 119.732C227.454 122.925 232.284 122.974 232.245 119.732C232.243 119.53 232.24 119.328 232.238 119.125C231.41 119.958 230.582 120.791 229.753 121.624C234.888 121.832 240.064 121.64 245.204 121.624C244.375 120.791 243.547 119.958 242.719 119.125C242.716 119.327 242.714 119.529 242.711 119.732C242.672 122.974 247.503 122.926 247.682 119.732C248.637 102.666 249.593 85.6008 250.55 68.5351C250.729 65.3136 245.759 65.3322 245.579 68.5351Z" fill="#BFD2FA"/>
<path d="M242.719 119.125C242.682 122.134 241.872 126.346 238.696 127.596C233.993 129.446 232.276 122.255 232.238 119.125C231.41 119.958 230.582 120.791 229.753 121.624C234.885 121.857 240.067 121.64 245.204 121.624C248.408 121.613 248.409 116.615 245.203 116.626C240.066 116.643 234.883 116.86 229.752 116.626C228.41 116.566 227.252 117.809 227.267 119.125C227.343 125.448 230.727 133.174 238.12 132.775C244.8 132.415 247.62 124.827 247.689 119.125C247.727 115.901 242.758 115.905 242.719 119.125Z" fill="#BFD2FA"/>
<path d="M273.672 221.471C265.592 229.349 257.512 237.228 249.431 245.106C250.603 245.106 251.774 245.106 252.946 245.106C254.564 246.814 253.29 245.515 252.918 244.516C252.589 243.634 252.307 242.734 252.023 241.836C251.233 239.338 250.594 236.788 250.028 234.23C248.455 227.121 247.587 219.917 246.789 212.685C246.201 207.362 246.029 201.777 244.63 196.588C243.879 193.802 243.074 192.706 242.234 190.163C240.189 183.968 239.203 177.391 238.426 170.933C237.704 164.936 237.274 158.905 236.959 152.874C236.758 149.041 236.635 145.205 236.543 141.369C236.491 139.227 236.463 137.085 236.439 134.942C236.423 133.447 236.012 131.288 236.394 129.861C235.177 130.359 233.96 130.856 232.743 131.354C240.249 135.793 246.497 128.924 247.502 121.671C247.948 118.454 247.938 115.126 248.12 111.889C248.641 102.584 249.162 93.2802 249.683 83.9754C248.269 84.5643 246.855 85.1532 245.441 85.7421C251.135 90.3007 252.174 99.6455 252.441 106.453C252.609 110.743 252.299 115.045 251.831 119.307C251.535 122.001 250.709 124.66 251.139 127.352C251.975 132.582 252.899 137.799 253.911 142.997C256.426 155.906 261.199 168.152 262.522 181.315C262.794 184.019 263.072 186.96 262.504 189.643C262.056 191.757 263.262 193.682 264.003 195.643C267.484 204.852 271 214.244 273.033 223.903C273.697 227.054 278.487 225.717 277.825 222.574C275.791 212.911 272.259 203.536 268.796 194.315C268.331 193.076 267.857 191.841 267.378 190.607C267.061 189.792 267.467 190.347 267.297 190.972C267.445 190.43 267.508 189.847 267.575 189.292C267.964 186.059 267.665 182.782 267.307 179.561C265.799 166.026 260.943 153.319 258.38 139.998C257.455 135.189 256.621 130.361 255.852 125.525C255.721 124.707 256.25 123.485 256.395 122.476C256.714 120.242 256.956 118 257.152 115.752C257.522 111.494 257.548 107.205 257.201 102.945C256.631 95.9535 254.792 86.8835 248.956 82.2101C247.263 80.8552 244.843 81.6611 244.713 83.9768C244.301 91.3357 243.889 98.6947 243.477 106.054C243.247 110.157 243.972 132.198 235.252 127.041C233.873 126.225 232.018 126.977 231.601 128.534C230.776 131.616 231.47 135.67 231.522 138.854C231.586 142.809 231.713 146.762 231.885 150.713C232.167 157.214 232.639 163.71 233.367 170.176C234.165 177.244 235.199 184.41 237.35 191.208C238.021 193.33 238.999 195.327 239.694 197.437C241.6 203.233 241.511 209.952 242.185 215.981C242.941 222.755 243.89 229.481 245.363 236.137C245.951 238.795 246.679 241.423 247.5 244.018C247.952 245.446 248.385 247.533 249.431 248.639C250.376 249.636 251.992 249.569 252.946 248.639C261.026 240.761 269.106 232.882 277.187 225.005C279.491 222.758 275.973 219.228 273.672 221.471Z" fill="#BFD2FA"/>
<path d="M236.214 94.1975C236.214 95.8615 232.943 95.2111 231.931 95.2111C231.205 95.2111 226.645 95.84 226.5 94.5687C226.315 92.9412 229.947 93.5622 230.783 93.5622C231.5 93.5629 236.07 92.9383 236.214 94.1975C236.574 97.3605 241.549 97.3955 241.184 94.1975C240.502 88.2248 235.401 88.5653 230.783 88.5653C226.494 88.5653 221.53 88.8809 221.53 94.5687C221.53 100.58 227.754 100.208 231.931 100.208C236.223 100.208 241.184 99.8875 241.184 94.1975C241.184 90.9753 236.214 90.9753 236.214 94.1975Z" fill="#BFD2FA"/>
<path d="M236.214 100.843C236.214 102.507 232.943 101.857 231.931 101.857C231.205 101.857 226.645 102.486 226.5 101.215C226.315 99.587 229.947 100.208 230.783 100.208C231.5 100.209 236.07 99.5841 236.214 100.843C236.574 104.006 241.549 104.041 241.184 100.843C240.502 94.8707 235.401 95.2112 230.783 95.2112C226.494 95.2112 221.53 95.5267 221.53 101.215C221.53 107.226 227.754 106.854 231.931 106.854C236.223 106.854 241.184 106.533 241.184 100.843C241.184 97.6211 236.214 97.6211 236.214 100.843Z" fill="#BFD2FA"/>
<path d="M236.214 107.489C236.214 109.152 232.943 108.503 231.931 108.503C231.205 108.503 226.645 109.132 226.5 107.86C226.314 106.232 229.947 106.854 230.783 106.854C231.501 106.854 236.07 106.229 236.214 107.489C236.574 110.652 241.549 110.687 241.184 107.489C240.502 101.516 235.401 101.857 230.783 101.857C226.494 101.857 221.53 102.172 221.53 107.86C221.53 113.872 227.754 113.5 231.931 113.5C236.223 113.5 241.184 113.179 241.184 107.489C241.184 104.267 236.214 104.267 236.214 107.489Z" fill="#BFD2FA"/>
<path d="M236.214 86.8172C236.214 88.4711 232.933 87.823 231.931 87.823C231.205 87.823 226.645 88.4519 226.5 87.1805C226.314 85.5523 229.949 86.174 230.783 86.174C231.508 86.174 236.069 85.5465 236.214 86.8172C236.574 89.9802 241.549 90.0144 241.184 86.8165C240.502 80.8402 235.405 81.1772 230.783 81.1772C226.497 81.1772 221.53 81.4948 221.53 87.1805C221.53 93.191 227.754 92.8198 231.931 92.8198C236.217 92.8198 241.184 92.5021 241.184 86.8165C241.184 83.5942 236.214 83.5949 236.214 86.8172Z" fill="#BFD2FA"/>
<path d="M385.413 596.074C389.087 617.981 392.76 639.889 396.434 661.797C397.232 660.742 398.031 659.688 398.83 658.634C384.823 658.76 370.814 658.818 356.809 659.011C357.394 659.255 357.979 659.5 358.566 659.743C357.558 658.73 355.802 659.004 354.499 659.004C351.836 659.004 349.173 659.004 346.51 659.004C337.2 659.004 327.889 659.004 318.579 659.004C296.557 659.004 274.534 659.004 252.511 659.004C248.084 659.004 243.656 659.004 239.228 659.004C236.535 659.004 234.873 658.836 232.446 660.188C233.579 661.328 234.713 662.466 235.847 663.606C239.285 657.225 245.179 652.264 251.713 649.262C252.508 648.896 252.912 647.923 252.943 647.105C252.952 646.857 252.962 646.61 252.972 646.362C251.428 646.783 249.884 647.203 248.341 647.624C252.404 653.746 258.623 650.288 262.508 645.884C267.462 640.268 270.991 633.326 274.324 626.675C275.554 624.22 276.013 623.305 277.922 621.545C280.333 619.324 282.616 616.964 284.789 614.507C287.142 611.844 289.305 608.987 291.142 605.941C291.991 604.532 292.652 603.037 293.276 601.52C293.734 600.407 294.504 599.657 292.87 600.748C293.062 600.62 293.256 600.493 293.449 600.366C299.097 596.661 304.944 593.251 310.864 590.006C320.232 584.87 330.123 580.807 339.478 575.65C344.157 573.071 353.523 568.588 354.086 562.285C354.641 556.06 344.244 554.13 340.273 551.711C336.844 549.621 338.441 547.597 340.8 545.397C344.595 541.857 349.604 539.428 354.073 536.871C361.355 532.703 368.836 528.902 376.161 524.813C381.24 521.977 386.962 518.779 390.196 513.722C388.651 513.302 387.108 512.882 385.565 512.461C385.891 514.924 386.218 517.387 386.545 519.85C386.753 521.426 387.975 522.735 389.691 522.259C390.994 521.898 392.315 521.611 393.641 521.35C394.8 521.123 395.963 520.977 397.14 520.894C397.608 520.861 399.589 521.076 399.345 520.754C399.643 519.614 399.94 518.476 400.238 517.336C397.391 518.766 394.543 520.196 391.696 521.626C390.966 521.993 390.411 522.965 390.466 523.783C391.31 536.515 392.156 549.248 393 561.98C393.51 569.67 394.021 577.362 394.53 585.052C394.639 586.698 394.749 588.345 394.858 589.993C394.886 590.424 394.744 590.051 394.847 589.818C394.267 591.139 393.039 591.964 391.739 592.443C390.505 592.899 389.114 593.024 387.809 592.911C384.615 592.634 384.64 597.633 387.809 597.908C393.857 598.432 400.129 594.535 399.703 588.115C399.217 580.798 398.732 573.48 398.246 566.162C397.309 552.036 396.372 537.909 395.435 523.783C395.024 524.503 394.614 525.222 394.204 525.94C397.051 524.51 399.899 523.08 402.746 521.65C403.856 521.093 404.419 519.27 403.638 518.232C400.391 513.926 392.711 516.237 388.369 517.441C389.418 518.244 390.466 519.047 391.515 519.85C391.188 517.387 390.862 514.924 390.535 512.461C390.22 510.082 387.347 508.945 385.904 511.2C382.842 515.988 376.777 518.742 372.02 521.411C364.902 525.404 357.621 529.09 350.535 533.145C344.726 536.469 335.46 540.508 333.317 547.594C331.306 554.242 340.488 557.557 344.918 559.538C347.024 560.479 350.227 560.986 348.264 563.361C345.62 566.56 341.539 568.711 338.013 570.746C328.767 576.085 318.821 580.073 309.418 585.114C303.205 588.446 297.114 592.039 291.199 595.882C289.487 596.994 289.187 598.268 288.483 600.191C287.118 603.923 284.386 607.298 281.863 610.291C278.99 613.699 275.788 616.872 272.425 619.793C271.807 620.329 271.574 620.989 271.211 621.746C270.114 624.032 268.963 626.291 267.783 628.536C266.107 631.726 264.3 634.847 262.327 637.861C260.557 640.567 257.955 644.628 254.944 645.869C254.433 646.08 254.274 646.094 254.113 646.104C253.704 646.132 253.559 646.029 253.711 646.097C253.087 645.813 252.952 645.585 252.631 645.101C251.258 643.034 248.097 643.817 248 646.362C247.991 646.61 247.981 646.857 247.971 647.105C248.382 646.385 248.792 645.666 249.202 644.947C241.96 648.276 235.356 654.027 231.554 661.084C230.364 663.292 232.744 665.734 234.954 664.503C235.935 663.956 236.882 664.001 235.262 664.001C235.391 664.001 235.52 664.001 235.649 664.001C236.344 664.001 237.038 664.001 237.733 664.001C240.464 664.001 243.194 664.001 245.925 664.001C255.317 664.001 264.709 664.001 274.101 664.001C296.072 664.001 318.044 664.001 340.015 664.001C345.611 664.001 351.207 664.001 356.803 664.001C356.217 663.757 355.632 663.513 355.046 663.269C356.284 664.514 359.605 663.983 361.198 663.969C365.937 663.925 370.676 663.883 375.414 663.84C383.22 663.77 391.025 663.701 398.831 663.63C400.568 663.615 401.493 662.056 401.227 660.467C397.553 638.56 393.88 616.652 390.206 594.744C389.674 591.573 384.885 592.923 385.413 596.074Z" fill="#BFD2FA"/>
<path d="M385.904 511.2C383.783 514.516 380.09 516.648 376.831 518.649C371.668 521.817 366.223 524.536 360.896 527.41C354.502 530.861 348.074 534.332 341.976 538.297C338.148 540.786 333.525 544.173 333.107 549.124C333.715 548.321 334.323 547.518 334.931 546.715C334.626 546.803 334.321 546.891 334.015 546.979C335.064 547.782 336.113 548.585 337.161 549.388C338.663 514.344 340.164 479.298 341.666 444.254C342.288 429.74 342.909 415.225 343.531 400.711C343.619 398.644 341.395 397.833 339.791 398.554C340.672 398.158 340.316 398.841 339.647 397.706C337.029 393.261 338.48 385.599 338.971 380.86C340.357 367.468 342.527 354.13 344.43 340.805C346.239 328.121 348.12 315.438 349.597 302.709C350.677 293.382 350.392 284.058 349.9 274.691C348.357 275.111 346.813 275.532 345.27 275.952C361.937 302.81 373.304 333.849 380.039 364.634C380.122 363.993 380.206 363.352 380.29 362.71C374.859 372.537 369.426 382.363 363.994 392.191C363.328 393.396 363.711 394.893 364.887 395.61C369.348 398.327 373.809 401.044 378.27 403.761C378.27 402.323 378.27 400.884 378.27 399.446C377.378 400.024 376.483 400.534 375.537 401.017C374.618 401.485 374.022 402.848 374.395 403.838C376.702 409.958 377.25 417.129 378.155 423.535C382.309 452.966 383.989 482.804 385.567 512.462C385.737 515.666 390.708 515.683 390.537 512.462C388.943 482.503 387.134 452.427 383.015 422.691C382.106 416.133 381.55 408.774 379.187 402.51C378.807 403.45 378.426 404.391 378.045 405.332C378.991 404.848 379.887 404.337 380.779 403.761C382.349 402.746 382.42 400.445 380.779 399.446C376.318 396.729 371.857 394.012 367.395 391.294C367.691 392.434 367.989 393.573 368.287 394.713C372.066 387.874 375.846 381.035 379.627 374.196C381.229 371.297 382.83 368.4 384.432 365.502C385.615 363.362 384.17 360.303 383.656 358.109C382.48 353.085 381.131 348.104 379.688 343.152C372.659 319.043 362.835 294.816 349.563 273.43C348.315 271.421 344.795 272.106 344.932 274.691C345.459 284.744 345.595 294.619 344.403 304.615C342.674 319.109 340.48 333.548 338.423 347.997C337.381 355.318 336.351 362.639 335.372 369.969C334.4 377.248 333.209 384.613 333.515 391.977C333.701 396.456 335.778 405.802 342.294 402.872C342.297 402.871 342.299 402.87 342.302 402.869C341.055 402.149 339.809 401.431 338.562 400.712C337.191 432.706 335.822 464.703 334.451 496.697C333.698 514.261 332.945 531.825 332.193 549.389C332.123 551.01 333.833 552.232 335.339 551.798C335.644 551.711 335.949 551.622 336.255 551.534C337.388 551.207 337.984 550.256 338.079 549.125C338.227 547.364 340.293 545.839 341.493 544.801C344.322 542.353 347.756 540.55 350.964 538.667C356.725 535.286 362.626 532.159 368.502 528.989C375.92 524.987 385.46 521.13 390.199 513.722C391.935 511.003 387.632 508.5 385.904 511.2Z" fill="#BFD2FA"/>
<path d="M439.925 362.28C437.099 367.319 434.22 372.327 431.339 377.335C428.457 382.343 423.981 386.992 417.745 386.156C418.461 387.409 419.176 388.662 419.891 389.916C422.179 384.51 427.025 378.63 424.98 372.547C424.093 369.905 422.111 367.657 420.072 365.839C419.485 365.315 418.853 364.833 418.216 364.373C418.3 364.433 418.185 364.625 418.474 364.455C418.667 364.343 419.005 364.328 419.229 364.295C420.537 364.103 421.336 362.4 420.964 361.221C420.738 360.501 420.408 360.001 421.217 359.682C421.43 359.598 422.825 359.366 421.777 359.487C422.776 359.371 424.01 358.82 424.173 357.653C424.48 355.443 425.748 356.432 427.561 357.072C430.091 357.966 432.584 359.68 434.44 361.618C435.53 362.756 437.584 362.514 438.344 361.112C439.933 358.179 439.808 355.49 437.984 352.683C437.483 351.913 436.82 351.197 436.114 350.611C435.419 350.034 434.801 349.205 434.179 348.547C434.018 348.377 432.464 347.177 433.321 348.026C435.101 349.789 436.645 351.867 438.297 353.749C440.609 356.381 442.035 359.076 439.925 362.28C438.15 364.976 442.457 367.476 444.217 364.802C449.469 356.822 441.818 350.077 436.838 344.492C434.344 341.696 429.47 342.003 428.369 346.028C426.988 351.074 436.339 354.37 434.053 358.589C435.354 358.421 436.655 358.252 437.956 358.084C434.193 354.155 420.807 346.076 419.381 356.323C420.18 355.712 420.979 355.101 421.777 354.489C417.5 354.983 414.798 358.197 416.171 362.549C416.749 361.524 417.329 360.501 417.907 359.476C415.826 359.78 414.369 361.099 413.59 362.994C412.56 365.498 414.861 367.934 416.557 369.372C419.514 371.877 421.553 374.842 419.673 378.64C418.248 381.522 416.852 384.431 415.598 387.393C414.807 389.263 415.758 390.886 417.744 391.153C423.631 391.942 429.536 388.491 433 383.917C437.396 378.113 440.648 371.165 444.217 364.802C445.794 361.992 441.499 359.475 439.925 362.28Z" fill="#BFD2FA"/>
<path d="M280.34 250.813C277.282 267.645 276.656 284.757 271.419 301.153C266.94 315.175 261.937 329.038 256.972 342.891C258.6 343.113 260.226 343.334 261.854 343.556C261.504 337.235 258.754 331.561 255.248 326.407C253.79 324.264 252.149 322.233 250.448 320.28C249.505 319.197 248.204 318.242 247.749 316.929C247.17 317.954 246.591 318.978 246.013 320.003C260.451 314.658 268.579 298.351 274.287 285.055C278.835 274.463 282.493 263.375 285.133 252.142C285.868 249.008 281.076 247.677 280.34 250.813C277.986 260.834 274.78 270.702 270.944 280.243C268.001 287.565 264.476 294.709 260.086 301.27C256.282 306.956 251.258 312.752 244.691 315.184C243.489 315.629 242.482 316.892 242.956 318.257C244.048 321.408 246.715 323.47 248.784 326.012C252.798 330.942 256.523 337.053 256.883 343.556C257.043 346.437 260.813 346.875 261.765 344.22C266.643 330.61 271.513 316.985 275.971 303.229C281.366 286.583 282.025 269.248 285.133 252.142C285.704 248.99 280.915 247.646 280.34 250.813Z" fill="#BFD2FA"/>
<path d="M345.018 274.027C340.115 287.63 331.661 300.072 322.687 311.272C317.214 318.103 311.263 324.537 305.063 330.703C297.529 338.196 289.338 344.959 282.07 352.727C272.822 362.611 264.701 373.87 259.719 386.549C257.837 391.34 256.202 396.793 256.294 402.011C257.123 401.178 257.95 400.345 258.779 399.512C254.978 399.964 250.905 399.97 248.712 396.324C247.573 394.43 247.428 391.973 247.393 389.824C247.294 383.852 249.037 377.842 250.827 372.207C253.566 363.585 257.204 355.155 261.387 347.141C265.175 339.882 271.236 333.594 277.052 327.767C283.059 321.749 289.562 316.252 296.165 310.911C302.912 305.453 309.698 300.047 316.598 294.786C320.536 291.784 324.511 288.833 328.483 285.879C330.093 284.681 331.715 283.501 333.333 282.316C334.273 281.628 331.438 282.547 333.011 282.404C333.65 282.346 334.289 282.288 334.926 282.229C336.234 282.11 337.465 281.183 337.411 279.731C337.392 279.198 337.372 278.665 337.354 278.132C336.943 278.851 336.535 279.57 336.124 280.289C338.203 278.685 340.392 277.211 342.522 275.677C341.099 275.991 340.92 276.063 341.985 275.893C342.556 275.702 343.064 275.396 343.507 274.974C344.246 274.443 344.987 273.916 345.731 273.393C344.727 273.263 343.723 273.132 342.72 273.002C343.7 274.154 344.678 275.308 345.66 276.458C347.75 278.907 351.25 275.356 349.174 272.925C348.192 271.775 347.214 270.622 346.234 269.47C345.557 268.674 344.077 268.478 343.222 269.079C342.88 269.32 340.452 270.987 341.317 270.987C339.797 270.987 338.411 272.505 337.277 273.323C334.522 275.309 332.308 276.102 332.442 279.731C333.27 278.898 334.098 278.066 334.927 277.233C332.49 277.455 331.306 277.652 329.313 279.108C325.156 282.143 321.019 285.209 316.924 288.328C309.619 293.891 302.4 299.55 295.237 305.297C281.433 316.374 268.147 328.095 257.885 342.678C257.494 343.234 256.731 345.319 257.062 344.686C256.899 344.998 256.739 345.311 256.58 345.624C255.781 347.196 255.016 348.785 254.264 350.38C251.805 355.597 249.566 360.927 247.587 366.347C245.383 372.385 243.505 378.65 242.741 385.054C242.138 390.115 242.145 395.775 245.236 400.081C248.362 404.439 253.845 405.094 258.781 404.509C260.107 404.351 261.293 403.491 261.266 402.01C261.181 397.13 262.889 392.014 264.733 387.321C270.067 373.744 279.745 362.01 289.89 351.799C297.099 344.543 304.961 337.994 312.115 330.669C317.972 324.671 323.494 318.34 328.642 311.716C337.21 300.692 345.049 288.573 349.813 275.354C350.906 272.319 346.101 271.021 345.018 274.027Z" fill="#BFD2FA"/>
<path d="M334.925 277.232C334.063 277.31 333.202 277.389 332.34 277.467C332.758 279.019 333.176 280.571 333.594 282.123C334.436 281.51 335.277 280.897 336.123 280.289C334.876 279.57 333.63 278.85 332.383 278.131C332.401 278.665 332.42 279.197 332.44 279.73C332.491 281.091 333.532 282.229 334.925 282.229C336.241 282.229 337.461 281.092 337.41 279.73C337.39 279.197 337.372 278.665 337.353 278.131C337.323 277.242 336.898 276.431 336.123 275.974C335.41 275.554 334.318 275.467 333.614 275.974C332.77 276.582 331.927 277.195 331.086 277.809C330.172 278.475 329.626 279.468 329.944 280.63C330.217 281.629 331.253 282.563 332.34 282.464C333.202 282.386 334.063 282.307 334.925 282.229C336.273 282.106 337.41 281.185 337.41 279.73C337.409 278.462 336.277 277.109 334.925 277.232Z" fill="#BFD2FA"/>
<path d="M333.232 276.272C333.212 276.288 333.192 276.305 333.171 276.321C333.339 276.19 333.507 276.06 333.674 275.931C333.655 275.946 333.633 275.959 333.613 275.974C334.859 276.693 336.106 277.412 337.353 278.131C337.353 278.129 337.353 278.127 337.353 278.125C336.943 278.844 336.533 279.562 336.123 280.281C336.163 280.253 336.203 280.224 336.243 280.196C336.791 279.809 337.203 279.371 337.385 278.704C337.561 278.059 337.471 277.355 337.134 276.779C336.493 275.678 334.844 275.097 333.734 275.883C333.525 276.03 333.277 276.192 333.111 276.359C332.643 276.829 332.383 277.47 332.383 278.133C332.383 279.014 332.858 279.844 333.613 280.29C334.323 280.708 335.423 280.8 336.122 280.29C336.335 280.135 336.542 279.972 336.745 279.807C337.231 279.412 337.473 278.641 337.473 278.04C337.473 277.38 337.209 276.74 336.745 276.273C336.282 275.807 335.645 275.541 334.988 275.541C334.274 275.54 333.767 275.837 333.232 276.272Z" fill="#BFD2FA"/>
<path d="M340.011 271.363C339.361 271.834 338.709 272.301 338.051 272.763C338.888 274.201 339.723 275.639 340.56 277.077C341.212 276.609 341.863 276.14 342.52 275.678C343.627 274.899 344.138 273.507 343.411 272.259C342.769 271.156 341.124 270.581 340.011 271.363C339.354 271.825 338.704 272.295 338.051 272.763C337.505 273.154 337.093 273.585 336.909 274.255C336.733 274.9 336.824 275.604 337.16 276.18C337.803 277.284 339.447 277.858 340.56 277.077C341.217 276.616 341.87 276.148 342.52 275.677C343.066 275.283 343.479 274.857 343.662 274.185C343.838 273.539 343.748 272.836 343.411 272.259C342.775 271.168 341.113 270.566 340.011 271.363Z" fill="#BFD2FA"/>
<path d="M345.63 278.841C345.588 278.929 345.546 279.017 345.502 279.105C347.047 279.525 348.59 279.946 350.133 280.366C350.065 278.562 349.997 276.759 349.913 274.955C348.369 275.376 346.825 275.796 345.282 276.217C345.497 276.627 345.788 276.988 345.991 277.408C345.865 277.103 345.849 277.09 345.943 277.367C346.134 277.996 345.948 276.878 345.975 277.613C345.986 277.899 345.862 278.36 345.63 278.841C345.04 280.066 345.287 281.532 346.522 282.259C347.622 282.907 349.332 282.589 349.922 281.364C350.733 279.682 351.103 278.101 350.785 276.247C350.618 275.267 350.016 274.538 349.575 273.695C348.434 271.518 344.829 272.49 344.944 274.956C345.027 276.759 345.096 278.563 345.164 280.367C345.252 282.688 348.655 283.99 349.795 281.628C349.838 281.54 349.88 281.452 349.923 281.364C350.515 280.139 350.265 278.672 349.031 277.946C347.931 277.297 346.222 277.616 345.63 278.841Z" fill="#BFD2FA"/>
<path d="M338.56 400.711C338.053 412.539 337.546 424.367 337.04 436.196C337.283 435.607 337.526 435.019 337.768 434.429C336.088 436.144 335.174 438.763 334.052 440.851C331.36 445.862 328.563 450.816 325.659 455.706C322.478 461.061 319.138 466.336 315.46 471.364C312.305 475.678 308.55 478.825 304.777 482.51C295.844 491.233 289.23 502.427 282.513 512.874C280.801 515.536 279.033 517.173 276.17 519.644C270.038 524.936 262.901 529.325 255.029 531.353C256.078 532.156 257.128 532.959 258.176 533.762C258.665 526.633 259.142 519.487 260.022 512.393C260.156 511.321 260.316 510.248 260.548 509.195C260.599 508.962 260.66 508.731 260.736 508.505C260.376 509.574 258.543 510.768 256.78 509.302C258.764 510.952 261.346 509.388 260.934 506.872C260.022 501.298 259.244 495.71 258.609 490.098C258.148 486.026 257.369 482.27 258.685 478.375C260.36 473.415 262.054 468.461 263.759 463.512C268.398 450.054 273.146 436.634 278.05 423.271C283.111 409.48 288.31 395.722 294.039 382.194C298.54 371.564 303.852 361.847 309.639 351.902C317.468 338.45 324.601 324.579 331.697 310.726C335.381 303.532 339.424 296.642 343.294 289.56C345.779 285.014 347.909 280.287 349.775 275.454C348.177 275.454 346.58 275.454 344.982 275.454C345.399 276.824 345.172 280.451 345.234 282.621C345.338 286.211 345.404 289.802 345.412 293.393C345.419 297.352 344.793 301.357 344.32 305.277C342.559 319.862 340.355 334.394 338.287 348.937C337.252 356.211 336.231 363.487 335.264 370.77C334.301 378.022 333.108 385.377 333.557 392.712C333.829 397.156 336.099 405.657 342.299 402.869C345.221 401.555 342.691 397.251 339.791 398.554C340.672 398.158 340.316 398.841 339.647 397.706C337.029 393.261 338.48 385.599 338.971 380.86C340.39 367.151 342.618 353.498 344.564 339.858C346.357 327.288 348.225 314.718 349.665 302.101C350.14 297.94 350.403 293.884 350.361 289.695C350.334 286.863 350.249 284.03 350.163 281.2C350.096 278.999 350.425 276.262 349.776 274.125C349.012 271.615 345.848 271.885 344.983 274.125C342.084 281.636 338.292 288.71 334.019 295.515C331.263 299.903 329.152 304.797 326.788 309.412C324.19 314.483 321.566 319.539 318.915 324.583C314.201 333.556 309.393 342.486 304.267 351.229C301.55 355.864 298.7 360.342 296.312 365.163C283.953 390.114 274.903 416.937 265.616 443.149C262.317 452.461 259.082 461.797 255.894 471.148C254.758 474.481 252.554 478.603 252.854 482.15C253.589 490.874 254.729 499.562 256.141 508.199C257.526 507.389 258.91 506.578 260.295 505.769C257.723 503.63 256.022 506.376 255.596 508.654C254.057 516.877 253.775 525.439 253.205 533.761C253.092 535.421 254.873 536.552 256.351 536.17C264.359 534.106 271.414 529.813 277.849 524.699C280.737 522.403 283.802 519.929 285.875 516.826C293.044 506.089 299.53 494.598 308.831 485.516C312.744 481.696 316.451 478.332 319.752 473.885C323.787 468.45 327.341 462.65 330.783 456.823C333.659 451.955 336.406 447.008 339.07 442.02C339.952 440.369 341.948 437.695 342.025 435.904C342.527 424.173 343.029 412.442 343.531 400.711C343.668 397.488 338.697 397.502 338.56 400.711Z" fill="#BFD2FA"/>
<path d="M349.575 273.695C349.561 273.666 349.549 273.636 349.536 273.606C349.619 273.805 349.702 274.005 349.787 274.203C349.783 274.177 349.779 274.152 349.775 274.126C349.775 274.569 349.775 275.012 349.775 275.454C349.787 275.421 349.799 275.387 349.811 275.354C348.184 275.132 346.557 274.911 344.929 274.69C344.936 274.778 344.939 274.866 344.944 274.954C345.005 276.314 346.028 277.452 347.429 277.452C348.737 277.452 349.975 276.315 349.914 274.954C349.91 274.866 349.907 274.778 349.9 274.691C349.823 273.571 349.198 272.591 348.076 272.281C347.434 272.103 346.734 272.194 346.161 272.533C345.569 272.881 345.246 273.394 345.019 274.025C344.736 274.812 344.973 275.503 345.283 276.215C345.528 276.774 346.208 277.208 346.768 277.363C347.41 277.54 348.11 277.449 348.683 277.111C349.239 276.784 349.655 276.242 349.825 275.618C350.018 274.913 349.856 274.338 349.575 273.695Z" fill="#BFD2FA"/>
<path d="M345.267 281.523C345.269 281.539 345.272 281.556 345.274 281.573C345.244 281.351 345.215 281.129 345.185 280.908C345.185 280.967 345.185 281.027 345.185 281.087C346.842 281.087 348.499 281.087 350.155 281.087C350.157 281.01 350.154 280.935 350.148 280.858C350.074 279.499 349.073 278.36 347.663 278.36C346.364 278.36 345.104 279.497 345.178 280.858C345.184 280.934 345.186 281.01 345.185 281.087C345.196 282.449 346.308 283.585 347.67 283.585C349.025 283.585 350.155 282.449 350.155 281.087C350.155 280.785 350.102 280.496 350.06 280.194C349.976 279.592 349.413 278.994 348.918 278.702C348.343 278.363 347.644 278.272 347.003 278.45C346.381 278.622 345.843 279.039 345.517 279.598C345.146 280.234 345.169 280.823 345.267 281.523Z" fill="#BFD2FA"/>
<path d="M350.304 286.526C350.297 286.119 350.289 285.712 350.275 285.305C348.619 285.305 346.962 285.305 345.305 285.305C345.321 285.712 345.332 286.119 345.333 286.526C345.339 287.888 346.46 289.024 347.819 289.024C349.17 289.024 350.309 287.889 350.304 286.526C350.302 286.119 350.292 285.712 350.275 285.305C350.219 283.945 349.188 282.807 347.79 282.807C346.471 282.807 345.259 283.943 345.305 285.305C345.319 285.712 345.326 286.119 345.333 286.526C345.356 287.887 346.446 289.024 347.819 289.024C349.156 289.024 350.327 287.889 350.304 286.526Z" fill="#BFD2FA"/>
<path d="M333.268 296.687C323.81 315.354 314.382 334.11 303.736 352.13C298.063 361.733 293.215 371.402 288.888 381.71C277.722 408.313 268.13 435.599 258.729 462.872C256.742 468.637 254.777 474.41 252.832 480.19C254.459 480.412 256.086 480.633 257.713 480.855C256.209 462.068 256.235 443.166 258.181 424.412C258.937 417.131 259.878 409.726 261.665 402.612C262.02 401.2 260.93 399.232 259.268 399.449C259.105 399.47 258.942 399.491 258.779 399.512C259.608 400.345 260.435 401.179 261.264 402.012C261.034 388.881 270.435 374.732 278.28 364.749C288.489 351.758 301.533 341.608 312.962 329.791C322.057 320.387 330.407 310.188 337.56 299.21C339.323 296.504 335.016 294.003 333.268 296.687C325.884 308.021 317.166 318.363 307.733 328.021C296.164 339.868 283.2 350.071 273.112 363.344C265.129 373.849 256.052 388.105 256.294 402.011C256.315 403.237 257.416 404.687 258.779 404.509C258.942 404.487 259.106 404.466 259.269 404.444C258.47 403.39 257.671 402.336 256.873 401.281C255.108 408.307 254.203 415.604 253.388 422.788C251.203 442.048 251.198 461.546 252.744 480.853C252.969 483.664 256.704 484.255 257.625 481.518C265.946 456.792 274.566 432.157 283.84 407.775C288.62 395.209 293.526 382.647 299.255 370.481C305.358 357.52 313.41 345.494 320.16 332.858C326.11 321.721 331.852 310.472 337.56 299.208C339.012 296.344 334.724 293.814 333.268 296.687Z" fill="#BFD2FA"/>
<path d="M258.623 58.1988C258.623 61.6474 258.009 65.6727 253.619 65.6727C252.761 65.6727 251.903 65.6727 251.046 65.6727C246.406 65.6727 241.766 65.6727 237.126 65.6727C232.59 65.6727 228.055 65.6727 223.519 65.6727C218.588 65.6727 215.48 63.6561 215.48 58.1988C214.652 59.0319 213.824 59.8642 212.995 60.6972C229.033 60.6972 245.07 60.6972 261.108 60.6972C264.313 60.6972 264.313 55.7004 261.108 55.7004C245.07 55.7004 229.033 55.7004 212.995 55.7004C211.64 55.7004 210.51 56.8368 210.51 58.1988C210.51 64.9217 214.37 70.6695 221.63 70.6695C226.561 70.6695 231.493 70.6695 236.424 70.6695C241.852 70.6695 247.28 70.6695 252.708 70.6695C260.284 70.6695 263.593 65.3008 263.593 58.1988C263.593 54.9766 258.623 54.9766 258.623 58.1988Z" fill="#BFD2FA"/>
<path d="M257.292 64.2057C254.92 66.6892 251.327 66.0374 248.187 66.0374C243.57 66.0374 238.952 66.0374 234.334 66.0374C230.497 66.0374 226.66 66.0374 222.823 66.0374C217.924 66.0374 215.111 63.1978 215.111 58.1995C214.282 59.0326 213.455 59.8649 212.626 60.698C212.749 60.698 212.872 60.6972 212.995 60.6972C212.167 59.8642 211.339 59.0319 210.51 58.1988C210.51 64.6797 214.199 70.6702 221.338 70.6702C224.989 70.6702 228.64 70.6702 232.291 70.6702C237.767 70.6702 243.244 70.6702 248.72 70.6702C253.196 70.6702 257.137 70.9243 260.807 67.7406C263.237 65.6306 259.705 62.1113 257.292 64.2057C254.898 66.283 251.138 65.6734 248.187 65.6734C243.57 65.6734 238.952 65.6734 234.334 65.6734C230.497 65.6734 226.66 65.6734 222.823 65.6734C218.029 65.6734 215.48 63.1164 215.48 58.1988C215.48 56.8368 214.35 55.7004 212.995 55.7004C212.872 55.7004 212.749 55.7011 212.626 55.7011C211.271 55.7011 210.141 56.8375 210.141 58.1995C210.141 64.7447 214.138 71.0343 221.337 71.0343C224.988 71.0343 228.64 71.0343 232.291 71.0343C237.767 71.0343 243.243 71.0343 248.719 71.0343C253.229 71.0343 257.36 71.3484 260.806 67.7399C263.025 65.4157 259.515 61.8772 257.292 64.2057Z" fill="#BFD2FA"/>
<path d="M356.801 659.005C340.964 659.005 325.129 659.005 309.292 659.005C310.091 660.059 310.89 661.113 311.688 662.168C316.786 636.594 321.694 610.967 325.936 585.235C326.284 583.126 325.965 582.449 327.908 581.535C330.312 580.405 332.692 579.225 335.057 578.015C339.145 575.926 343.161 573.665 346.928 571.031C350.588 568.472 355.736 564.407 353.476 559.379C352.495 557.195 349.4 556.124 347.427 555.225C344.384 553.837 340.851 552.686 338.486 550.215C335.026 546.601 352.966 537.5 355.094 536.292C353.848 535.572 352.602 534.853 351.355 534.135C349.839 557.794 348.745 581.501 348.629 605.212C348.571 617.113 348.741 629.052 349.8 640.911C350.434 647.999 350.926 656.486 354.654 662.765C356.295 665.528 360.593 663.017 358.946 660.243C355.35 654.185 355.146 645.583 354.588 638.767C353.623 627.008 353.537 615.171 353.608 603.38C353.751 580.282 354.847 557.182 356.324 534.135C356.449 532.187 354.137 531.096 352.584 531.977C346.294 535.551 338.075 539.157 334.14 545.596C330.714 551.201 336.292 555.458 340.788 557.67C343.387 558.947 346.755 559.78 348.993 561.671C350.035 562.552 345.042 566.262 344.418 566.716C340.713 569.421 336.605 571.591 332.547 573.701C330.19 574.927 327.797 576.079 325.399 577.221C323.343 578.198 322.018 578.495 321.638 580.862C317.338 607.625 312.192 634.261 306.894 660.839C306.58 662.416 307.589 664.002 309.291 664.002C325.128 664.002 340.963 664.002 356.8 664.002C360.006 664.002 360.006 659.005 356.801 659.005Z" fill="#BFD2FA"/>
<path d="M413.052 671.104C413.052 676.273 413.052 681.44 413.052 686.609C413.88 685.776 414.708 684.944 415.537 684.11C384.731 684.11 353.926 684.11 323.122 684.11C288.421 684.11 253.72 684.11 219.019 684.11C218.663 684.11 218.308 684.11 217.952 684.11C218.781 684.944 219.609 685.776 220.437 686.609C220.437 681.441 220.437 676.273 220.437 671.104C220.027 671.824 219.616 672.543 219.207 673.262C222.912 671.2 226.618 669.14 230.324 667.078C231.828 666.242 233.331 665.406 234.836 664.569C235.72 664.078 237.064 664.001 235.219 664.001C235.333 664.001 235.446 664.001 235.559 664.001C240.705 664.001 245.851 664.001 250.996 664.001C272.856 664.001 294.715 664.001 316.575 664.001C329.984 664.001 343.394 664.001 356.803 664.001C356.217 663.757 355.632 663.513 355.046 663.269C355.997 664.227 357.526 664.001 358.768 664.001C361.338 664.001 363.908 664.001 366.478 664.001C374.108 664.001 381.737 664.001 389.367 664.001C392.026 664.001 394.685 664.001 397.345 664.001C398.018 664.001 398.692 664.001 399.366 664.001C400.447 664.001 397.604 663.121 399.203 664.093C404.229 667.149 409.256 670.206 414.282 673.262C417.032 674.933 419.529 670.611 416.791 668.947C411.862 665.951 406.934 662.953 402.005 659.957C399.12 658.203 394.987 659.004 391.742 659.004C380.1 659.004 368.448 658.85 356.809 659.011C357.394 659.255 357.979 659.5 358.566 659.743C357.558 658.73 355.802 659.004 354.499 659.004C351.836 659.004 349.173 659.004 346.51 659.004C337.2 659.004 327.889 659.004 318.579 659.004C296.557 659.004 274.534 659.004 252.511 659.004C246.86 659.004 241.21 659.004 235.558 659.004C233.434 659.004 230.707 661.156 228.89 662.166C224.826 664.426 220.762 666.687 216.697 668.947C215.937 669.37 215.467 670.241 215.467 671.104C215.467 676.272 215.467 681.439 215.467 686.608C215.467 687.97 216.597 689.107 217.952 689.107C248.757 689.107 279.562 689.107 310.367 689.107C345.068 689.107 379.768 689.107 414.469 689.107C414.825 689.107 415.181 689.107 415.537 689.107C416.891 689.107 418.022 687.97 418.022 686.608C418.022 681.44 418.022 676.273 418.022 671.104C418.022 667.883 413.052 667.883 413.052 671.104Z" fill="#BFD2FA"/>
<path d="M357.313 659.005C357.145 659.007 356.976 659.009 356.809 659.011C357.394 659.255 357.979 659.5 358.566 659.743C358.564 659.74 358.562 659.739 358.559 659.737C357.973 661.158 357.388 662.58 356.801 664.002C356.972 664.002 357.142 664.002 357.313 664.002C358.667 664.002 359.798 662.865 359.798 661.503C359.798 660.141 358.667 659.005 357.313 659.005C357.142 659.005 356.973 659.005 356.801 659.005C354.634 659.005 353.51 661.728 355.044 663.27C355.683 663.913 356.477 664.014 357.313 664.002C358.667 663.983 359.798 662.88 359.798 661.503C359.799 660.156 358.667 658.986 357.313 659.005Z" fill="#BFD2FA"/>
<path d="M425.637 707.003C396.453 707.003 367.269 707.003 338.084 707.003C298.034 707.003 257.983 707.003 217.933 707.003C214.45 707.003 210.967 707.003 207.485 707.003C208.314 707.836 209.142 708.669 209.97 709.502C209.97 702.117 209.97 694.733 209.97 687.348C209.142 688.182 208.314 689.014 207.485 689.847C236.67 689.847 265.854 689.847 295.038 689.847C335.089 689.847 375.138 689.847 415.189 689.847C418.672 689.847 422.154 689.847 425.637 689.847C424.809 689.014 423.981 688.182 423.152 687.348C423.152 694.733 423.152 702.117 423.152 709.502C423.152 712.724 428.122 712.724 428.122 709.502C428.122 702.117 428.122 694.733 428.122 687.348C428.122 685.986 426.992 684.85 425.637 684.85C396.453 684.85 367.269 684.85 338.084 684.85C298.034 684.85 257.983 684.85 217.933 684.85C214.45 684.85 210.967 684.85 207.485 684.85C206.13 684.85 205 685.986 205 687.348C205 694.733 205 702.117 205 709.502C205 710.864 206.13 712 207.485 712C236.67 712 265.854 712 295.038 712C335.089 712 375.138 712 415.189 712C418.672 712 422.154 712 425.637 712C428.842 712 428.842 707.003 425.637 707.003Z" fill="#BFD2FA"/>
<path d="M229.868 34.0077C230.186 34.1205 230.172 34.159 229.661 33.8571C229.352 33.6743 228.925 33.326 228.617 32.9176C226.968 30.7383 227.233 27.7302 227.719 25.2118C228.685 20.2057 232.065 14.3786 229.518 9.31114C228.217 10.3205 226.915 11.3299 225.614 12.3392C227.801 14.1602 230.526 16.8128 230.762 19.8031C231.014 22.9746 235.702 23.0639 235.733 19.8031C235.761 16.7964 236.431 13.3643 238.44 11.0529C240.565 8.60801 243.535 6.60285 244.091 3.11434C242.493 3.11434 240.895 3.11434 239.298 3.11434C240.531 6.53717 241.565 10.2341 241.412 13.8961C241.337 15.6942 243.618 17.1398 245.152 16.0533C247.798 14.1795 250.538 11.8852 251.92 8.88069C250.407 8.23896 248.892 7.59722 247.378 6.95548C246.704 11.9366 246.762 17.0819 248.112 21.9453C249.033 25.2589 248.793 29.0365 247.062 32.0225C246.038 33.7907 246.295 33.9206 244.434 33.9206C242.408 33.9206 240.383 33.9206 238.358 33.9206C235.308 33.9206 232.258 33.9206 229.208 33.9206C226.003 33.9206 226.003 38.9174 229.208 38.9174C232.721 38.9174 236.234 38.9174 239.747 38.9174C243.9 38.9174 246.832 39.5884 249.944 36.4026C253.514 32.7485 253.914 27.2127 253.267 22.425C252.966 20.1957 252.239 18.0963 252.033 15.8334C251.884 14.1938 251.92 12.5362 251.981 10.8937C252.001 10.3619 252.26 7.62577 252.171 8.28464C252.513 5.75053 248.925 3.54121 247.629 6.35943C246.601 8.59302 244.622 10.3376 242.644 11.7396C243.89 12.4584 245.137 13.178 246.383 13.8968C246.554 9.80725 245.47 5.61062 244.091 1.7866C243.344 -0.287086 239.725 -0.88528 239.299 1.7866C238.713 5.46714 234.344 7.51584 232.718 10.7881C231.371 13.4992 230.791 16.7821 230.762 19.8031C232.419 19.8031 234.076 19.8031 235.733 19.8031C235.38 15.3552 232.463 11.5847 229.129 8.80645C226.965 7.00331 223.912 9.22048 225.226 11.8345C226.2 13.7712 224.822 17.4646 224.263 19.4355C223.18 23.2438 221.914 26.8807 222.59 30.9061C223.162 34.3075 225.186 37.634 228.548 38.8282C231.577 39.9025 232.869 35.0734 229.868 34.0077Z" fill="#FFDD2D"/>
</svg>
