<svg width="192" height="64" viewBox="0 0 192 64" fill="none" xmlns="http://www.w3.org/2000/svg">
<path d="M169 23C169 21.8954 169.895 21 171 21H175C176.105 21 177 21.8954 177 23V27C177 28.1046 177.895 29 179 29H182C183.105 29 184 28.1046 184 27V23.0027C184 21.8985 184.895 21.0033 185.999 21.0028L189.999 21.0009C191.104 21.0004 192 21.896 192 23.0009L192 40.9999C192 42.1045 191.104 42.9999 190 42.9999L186 42.9996C184.895 42.9995 184 42.1041 184 40.9996V37C184 35.8954 183.105 35 182 35H179C177.895 35 177 35.8954 177 37L177 41.0053C177 42.1076 176.108 43.0021 175.006 43.0032C173.692 43.0045 172.311 43.0039 170.997 43.0025C169.893 43.0014 169 42.1064 169 41.003L169 23Z" fill="#2B6BF3"/>
<path d="M154.103 20.337C156.89 19.6532 160.165 19.9607 163.491 21.7152C163.808 21.8826 164 22.2163 164 22.5752V25.2204C164 25.9988 163.143 26.4894 162.436 26.1626C160.582 25.3048 158.329 24.6888 156.494 25.1623C155.223 25.456 154.904 27.3645 155.945 28.1295C158.246 29.9491 161.555 30.0187 163.578 32.2865C165.12 33.9516 165.229 36.486 164.744 38.6148C163.842 41.8291 160.57 43.6604 157.494 43.9269C154.4 44.1894 151.209 43.7694 148.484 42.2637C148.179 42.0956 148 41.7701 148 41.4223V37.931C148 37.1172 148.932 36.6289 149.641 37.028C151.576 38.1171 153.956 38.992 155.926 38.6997C156.957 38.5568 158.096 37.7687 158.006 36.5787C157.697 35.3579 156.404 34.8711 155.396 34.4114C153.464 33.5266 151.249 33.0205 149.715 31.4327C148.034 29.7096 147.857 26.9357 148.692 24.7528C149.594 22.4309 151.835 20.9744 154.103 20.337Z" fill="#2B6BF3"/>
<path fill-rule="evenodd" clip-rule="evenodd" d="M134 44C134 47 133 58 104.5 58L104.5 55C129 55 131 47 131 44L134 44Z" fill="#C2D2F4"/>
<path fill-rule="evenodd" clip-rule="evenodd" d="M134 44C134 47 133 58 104.5 58L104.5 55C129 55 131 47 131 44L134 44Z" fill="#B7C6E7"/>
<path fill-rule="evenodd" clip-rule="evenodd" d="M137.676 20.4503C137.691 20.3927 137.692 20.3896 137.692 20.4383C137.692 17.5848 135.368 15.2716 132.5 15.2716C129.632 15.2716 127.308 17.5848 127.308 20.4383C127.308 20.3896 127.309 20.3927 127.324 20.4503C127.372 20.6294 127.563 21.3357 128.314 22.6574C129.197 24.2114 130.472 25.9548 131.895 27.6768C132.096 27.921 132.298 28.1616 132.5 28.398C132.702 28.1616 132.904 27.921 133.105 27.6768C134.528 25.9548 135.803 24.2114 136.686 22.6574C137.437 21.3357 137.628 20.6294 137.676 20.4503ZM132.5 39C132.5 39 145 27.3077 145 20.4383C145 13.5688 139.404 8 132.5 8C125.596 8 120 13.5688 120 20.4383C120 27.3077 132.5 39 132.5 39Z" fill="#FFDD2D"/>
<path fill-rule="evenodd" clip-rule="evenodd" d="M109.676 32.4503C109.691 32.3927 109.692 32.3896 109.692 32.4383C109.692 29.5848 107.368 27.2716 104.5 27.2716C101.632 27.2716 99.3077 29.5848 99.3077 32.4383C99.3077 32.3896 99.3085 32.3927 99.3241 32.4503C99.3724 32.6294 99.5632 33.3357 100.314 34.6574C101.197 36.2114 102.472 37.9548 103.895 39.6768C104.096 39.921 104.298 40.1616 104.5 40.398C104.702 40.1616 104.904 39.921 105.105 39.6768C106.528 37.9548 107.803 36.2114 108.686 34.6574C109.437 33.3357 109.628 32.6294 109.676 32.4503ZM104.5 51C104.5 51 117 39.3077 117 32.4383C117 25.5688 111.404 20 104.5 20C97.5964 20 92 25.5688 92 32.4383C92 39.3077 104.5 51 104.5 51Z" fill="#2B6BF3"/>
<path d="M64 23C64 21.8954 64.8954 21 66 21H70C71.1046 21 72 21.8954 72 23V27C72 28.1046 72.8955 29 74 29H77C78.1046 29 79 28.1046 79 27V23.0027C79 21.8985 79.8949 21.0033 80.9991 21.0028L84.9991 21.0009C86.104 21.0004 87 21.896 87 23.0009L87 40.9999C87 42.1045 86.1045 42.9999 84.9999 42.9999L80.9999 42.9996C79.8954 42.9995 79 42.1041 79 40.9996V37C79 35.8954 78.1046 35 77 35H74C72.8955 35 72 35.8954 72 37L72 41.0053C72 42.1076 71.1083 43.0021 70.0061 43.0032C68.6916 43.0045 67.3107 43.0039 65.9969 43.0025C64.8935 43.0014 64 42.1064 64 41.003L64 23Z" fill="#2B6BF3"/>
<path d="M7 18C7 16.5 8 15.0564 10 15H27.4672C28.3716 15 29.1634 15.6068 29.3985 16.4801L31.6539 24.8575C31.9101 25.8088 33.2423 25.8556 33.5645 24.9246L36.5331 16.3489C36.8124 15.5419 37.5734 15.0013 38.4275 15.0032L42.5798 15.0124C43.4303 15.0143 44.1866 15.5539 44.4651 16.3575L47.4356 24.9287C47.7581 25.8592 49.0897 25.8124 49.346 24.8615L51.6012 16.495C51.8365 15.6221 52.6282 15.0155 53.5323 15.0155L58.2559 15.0155C59.6121 15.0155 60.5751 16.3368 60.1599 17.6279L52.4463 41.6123C52.1803 42.4393 51.411 43 50.5423 43H45.5808C44.6542 43 43.8489 42.3635 43.6349 41.462L41.4777 32.3756C41.2344 31.3507 39.7762 31.3501 39.532 32.3748L37.3661 41.4636C37.1515 42.3644 36.3466 43 35.4206 43H21C19 43 18 41.5 18 40C18 38.5 19 37 21 37H24C26 37 27 36 27 34.5C27 33 26 32 24 32H3C1 32 0 30.5 0 29C0 27.5 1 26 3 26H22C24 26 25 25 25 23.5C25 22 23.9284 20.974 22 21H10C8 21 7 19.5 7 18Z" fill="#2B6BF3"/>
<path d="M6 40C6 38.3431 7.34315 37 9 37H12C13.6569 37 15 38.3431 15 40C15 41.6569 13.6569 43 12 43H9C7.34315 43 6 41.6569 6 40Z" fill="#2B6BF3"/>
</svg>
