<svg width="85" height="64" viewBox="0 0 85 64" fill="none" xmlns="http://www.w3.org/2000/svg">
<g clip-path="url(#clip0_10012_61)">
<path d="M14.0781 42.8428L42.5 0.13208L70.9219 42.8428H64.2812L42.5 10.4461L20.7188 42.8428H14.0781Z" fill="#D9E3F6"/>
<path d="M4.38281 57.3883L13.2812 44.1651H24.5703L31.875 54.2147H25.1016L30.8125 62.5453L34.9297 56.3304L26.1641 44.1651H33.3359L38.3828 51.3056L43.1641 44.1651H49.9375L36.7891 63.9999H0L3.58594 58.7106H21.9141L16.0703 50.38H22.7109L21.7812 49.0577H16.6016L10.7578 57.3883H4.38281Z" fill="#D9E3F6"/>
<path d="M51.5312 44.1651H58.3047L55.7812 47.9999H59.7656V53.2891H52.1953L48.6094 58.7106H60.0312V63.9999H38.25L51.5312 44.1651Z" fill="#D9E3F6"/>
<path d="M61.3594 44.1651H71.7188L75.0391 49.0577H66.8047V50.38H75.8359L79.2891 55.5371H66.8047V58.7103H81.4141L85 63.9999H61.3594V44.1651Z" fill="#D9E3F6"/>
<path d="M37.5234 18.5269C37.5234 18.5269 25.5177 36.052 17.825 47.2813" stroke="#2B6BF3" stroke-width="2" stroke-linejoin="round"/>
<path d="M27.1232 18.9345C31.0171 16.2819 50.3673 10.0137 51.9726 12.405C54.6007 16.32 34.7728 30.793 28.8554 31.6292" stroke="#2B6BF3" stroke-width="2" stroke-linejoin="round"/>
<path d="M41.6212 28.1681C39.2487 29.9218 35.9853 34.4425 36.872 35.5489C37.3534 36.1495 42.437 32.5921 43.9111 31.232" stroke="#2B6BF3" stroke-width="2" stroke-linejoin="round"/>
<path d="M50.0004 25.702C43.6195 30.2085 36.5489 39.9007 36.5489 42.0942C39.5718 40.8189 63.4478 34.3914 81.9004 36.2754" stroke="#2B6BF3" stroke-width="2" stroke-linejoin="round"/>
<path d="M54.4824 25.6172C53.5639 26.6756 47.5187 33.9145 46.2847 36.1256" stroke="#2B6BF3" stroke-width="2" stroke-linejoin="round"/>
<path d="M51.2936 28.4765C52.9639 26.716 58.2687 24.0507 59.1035 25.5178C59.652 27.2692 51.9257 31.3704 50.6385 30.5657C52.1232 31.9384 56.5613 33.9038 58.4264 34.6466" stroke="#2B6BF3" stroke-width="2" stroke-linejoin="round"/>
<path d="M68.8852 24.8683C65.9161 23.1703 59.6111 31.4784 60.937 33.5748C61.3756 34.2682 71.5941 27.8104 68.8852 24.8683Z" stroke="#2B6BF3" stroke-width="2" stroke-linejoin="round"/>
</g>
<defs>
<clipPath id="clip0_10012_61">
<rect width="85" height="64" fill="white"/>
</clipPath>
</defs>
</svg>
