<?xml version="1.0" ?><svg viewBox="0 0 32 32" xmlns="http://www.w3.org/2000/svg"><defs><style>.cls-1{fill:none;}</style></defs><title/><g id="INSTAGRAM"><rect class="cls-1" height="32" id="Frame" width="32"/><g fill="#ffffff" data-name="Instagram" id="Instagram-2"><path d="M20,9.4H12A2.603,2.603,0,0,0,9.4,12v8A2.6029,2.6029,0,0,0,12,22.6h8A2.6029,2.6029,0,0,0,22.6,20V12A2.603,2.603,0,0,0,20,9.4ZM16,20a4,4,0,1,1,4-4A4,4,0,0,1,16,20Zm4.25317-7.27875a1,1,0,1,1,1-1A1,1,0,0,1,20.25317,12.72125Z"/><path d="M16,13.4A2.6,2.6,0,1,0,18.6,16,2.603,2.603,0,0,0,16,13.4Z"/><path d="M16,2A14,14,0,1,0,30,16,14,14,0,0,0,16,2Zm8,18a4,4,0,0,1-4,4H12a4,4,0,0,1-4-4V12a4,4,0,0,1,4-4h8a4,4,0,0,1,4,4Z"/></g></g></svg>