<svg xmlns="http://www.w3.org/2000/svg" width="66.22" height="87.337" viewBox="0 0 66.22 87.337">
  <g id="medal" transform="translate(-61.898 0)">
    <g id="Сгруппировать_5" data-name="Сгруппировать 5" transform="translate(70.083 8.202)">
      <g id="Сгруппировать_4" data-name="Сгруппировать 4" transform="translate(0)">
        <path id="Контур_99" data-name="Контур 99" d="M145.952,50.762A24.871,24.871,0,0,0,115.1,88.213a1.376,1.376,0,0,0,2.173-1.691,22.119,22.119,0,0,1,27.443-33.3,1.376,1.376,0,1,0,1.241-2.457Z" transform="translate(-109.878 -48.082)" fill="#ff1552"/>
      </g>
    </g>
    <g id="Сгруппировать_7" data-name="Сгруппировать 7" transform="translate(79.163 21.119)">
      <g id="Сгруппировать_6" data-name="Сгруппировать 6" transform="translate(0)">
        <path id="Контур_100" data-name="Контур 100" d="M201.093,124.563a1.376,1.376,0,0,0-2.457,1.241,22.119,22.119,0,0,1-33.305,27.438,1.376,1.376,0,1,0-1.69,2.172,24.871,24.871,0,0,0,37.453-30.852Z" transform="translate(-163.109 -123.806)" fill="#ff1552"/>
      </g>
    </g>
    <g id="Сгруппировать_9" data-name="Сгруппировать 9" transform="translate(109.106 14.091)">
      <g id="Сгруппировать_8" data-name="Сгруппировать 8" transform="translate(0)">
        <path id="Контур_101" data-name="Контур 101" d="M343.132,85.147c-.341-.386-.7-.767-1.065-1.132s-.746-.724-1.132-1.065a1.376,1.376,0,0,0-1.823,2.062c.344.3.683.623,1.009.949s.645.665.949,1.009a1.376,1.376,0,0,0,2.063-1.823Z" transform="translate(-338.647 -82.605)" fill="#ff1552"/>
      </g>
    </g>
    <g id="Сгруппировать_11" data-name="Сгруппировать 11" transform="translate(61.898 0)">
      <g id="Сгруппировать_10" data-name="Сгруппировать 10" transform="translate(0 0)">
        <path id="Контур_102" data-name="Контур 102" d="M127.429,35.55a4.671,4.671,0,0,0,0-4.881L125.618,27.7a1.937,1.937,0,0,1-.259-1.308l.54-3.429a4.669,4.669,0,0,0-1.873-4.52L121.219,16.4a1.938,1.938,0,0,1-.743-1.11l-.817-3.377a4.669,4.669,0,0,0-3.454-3.454l-3.377-.817a1.937,1.937,0,0,1-1.11-.743l-2.041-2.807a4.668,4.668,0,0,0-4.52-1.873l-3.43.54a1.937,1.937,0,0,1-1.308-.259L97.449.688a4.67,4.67,0,0,0-4.881,0L89.6,2.5a1.937,1.937,0,0,1-1.308.259l-3.429-.54a4.669,4.669,0,0,0-4.52,1.873L78.3,6.9a1.938,1.938,0,0,1-1.11.743l-3.377.817a4.67,4.67,0,0,0-3.454,3.454L69.54,15.29A1.936,1.936,0,0,1,68.8,16.4l-2.807,2.041a4.668,4.668,0,0,0-1.873,4.52l.54,3.431A1.937,1.937,0,0,1,64.4,27.7l-1.811,2.97a4.671,4.671,0,0,0,0,4.881L64.4,38.52a1.938,1.938,0,0,1,.259,1.308l-.54,3.429a4.668,4.668,0,0,0,1.873,4.52L68.8,49.819a1.937,1.937,0,0,1,.743,1.11l.817,3.377A4.669,4.669,0,0,0,73.81,57.76l1.41.341L65.676,79.392a1.376,1.376,0,0,0,1.419,1.93l7.68-.918L79.2,86.747a1.377,1.377,0,0,0,1.129.589c.043,0,.086,0,.129-.006a1.377,1.377,0,0,0,1.127-.807l9.748-21.745,1.235.753a4.67,4.67,0,0,0,4.881,0l1.28-.78,9.76,21.772a1.376,1.376,0,0,0,1.127.807c.043,0,.086.006.129.006a1.376,1.376,0,0,0,1.129-.589L115.3,80.4l7.68.918a1.376,1.376,0,0,0,1.419-1.93l-9.55-21.3,1.357-.328a4.67,4.67,0,0,0,3.454-3.454l.817-3.377a1.937,1.937,0,0,1,.743-1.11l2.807-2.042a4.668,4.668,0,0,0,1.873-4.52l-.54-3.431a1.937,1.937,0,0,1,.259-1.308ZM80.067,83.179,76.56,78.152a1.376,1.376,0,0,0-1.292-.579l-6.086.728,8.7-19.4a1.925,1.925,0,0,1,.419.419l2.042,2.807a4.732,4.732,0,0,0,.65.724l-4.577,10.21a1.376,1.376,0,1,0,2.512,1.126l4.561-10.174A4.711,4.711,0,0,0,84.858,64l3.43-.54a1.932,1.932,0,0,1,.615,0ZM120.89,78.3l-6.086-.727a1.376,1.376,0,0,0-1.292.579l-3.506,5.028-8.841-19.722a1.937,1.937,0,0,1,.562,0l3.429.54a4.714,4.714,0,0,0,1.429,0l4.564,10.182a1.376,1.376,0,1,0,2.512-1.126l-4.595-10.249a4.734,4.734,0,0,0,.609-.685l2.041-2.806a1.932,1.932,0,0,1,.463-.451Zm4.189-44.182-1.811,2.97a4.7,4.7,0,0,0-.628,3.169l.54,3.43a1.928,1.928,0,0,1-.773,1.866L119.6,47.594a4.693,4.693,0,0,0-1.8,2.688l-.817,3.377a1.928,1.928,0,0,1-1.426,1.426l-3.377.817a4.693,4.693,0,0,0-2.689,1.8l-2.041,2.806a1.926,1.926,0,0,1-1.866.773l-3.429-.54a4.694,4.694,0,0,0-3.17.628l-2.969,1.811a1.929,1.929,0,0,1-2.015,0L91.03,61.37a4.692,4.692,0,0,0-3.169-.628l-3.431.54a1.927,1.927,0,0,1-1.866-.773L80.523,57.7a4.693,4.693,0,0,0-2.688-1.8l-3.377-.817a1.928,1.928,0,0,1-1.426-1.426l-.817-3.377a4.693,4.693,0,0,0-1.8-2.689l-2.806-2.041a1.927,1.927,0,0,1-.773-1.866l.54-3.429a4.693,4.693,0,0,0-.628-3.169l-1.811-2.97a1.928,1.928,0,0,1,0-2.015l1.811-2.97a4.693,4.693,0,0,0,.628-3.169l-.54-3.43a1.928,1.928,0,0,1,.773-1.866l2.807-2.042a4.693,4.693,0,0,0,1.8-2.688l.817-3.377a1.928,1.928,0,0,1,1.426-1.426l3.377-.817a4.692,4.692,0,0,0,2.689-1.8l2.041-2.806a1.927,1.927,0,0,1,1.866-.773l3.429.54a4.692,4.692,0,0,0,3.17-.628L94,3.038a1.929,1.929,0,0,1,2.015,0l2.97,1.811a4.691,4.691,0,0,0,3.169.629l3.431-.54a1.928,1.928,0,0,1,1.866.773l2.042,2.807a4.693,4.693,0,0,0,2.688,1.8l3.377.817a1.928,1.928,0,0,1,1.426,1.426l.817,3.377a4.693,4.693,0,0,0,1.8,2.689l2.806,2.041a1.927,1.927,0,0,1,.773,1.866l-.54,3.429a4.694,4.694,0,0,0,.628,3.169l1.811,2.97A1.927,1.927,0,0,1,125.079,34.117Z" transform="translate(-61.898 0)" fill="#ff1552"/>
      </g>
    </g>
    <g id="Сгруппировать_13" data-name="Сгруппировать 13" transform="translate(78.777 17.126)">
      <g id="Сгруппировать_12" data-name="Сгруппировать 12" transform="translate(0)">
        <path id="Контур_103" data-name="Контур 103" d="M193.185,112.1a2.462,2.462,0,0,0-2.072-1.7l-8.282-.982-3.493-7.573a2.487,2.487,0,0,0-4.517,0l-3.493,7.573-8.282.982a2.487,2.487,0,0,0-1.4,4.3l6.123,5.662-1.625,8.18a2.5,2.5,0,0,0,2.436,2.976,2.489,2.489,0,0,0,1.218-.321l7.277-4.073,7.277,4.073a2.487,2.487,0,0,0,3.654-2.655l-1.625-8.18,6.123-5.662A2.462,2.462,0,0,0,193.185,112.1Zm-9.234,6.759a1.377,1.377,0,0,0-.416,1.279l1.663,8.371-7.447-4.168a1.376,1.376,0,0,0-1.345,0l-7.447,4.168,1.663-8.371a1.375,1.375,0,0,0-.415-1.279l-6.266-5.795,8.475-1a1.377,1.377,0,0,0,1.088-.79l3.575-7.75,3.575,7.75a1.376,1.376,0,0,0,1.088.79l8.475,1Z" transform="translate(-160.849 -100.398)" fill="#ff1552"/>
      </g>
    </g>
  </g>
</svg>
