<svg xmlns="http://www.w3.org/2000/svg" viewBox="0 0 512 512"><path d="M139.055 288.696a6.549 6.549 0 01-6.549-6.549V140.876a6.549 6.549 0 1113.098 0v141.271a6.55 6.55 0 01-6.549 6.549z" fill="#fff"/><path d="M372.945 288.696a6.549 6.549 0 01-6.549-6.549V140.876a6.549 6.549 0 1113.098 0v141.271a6.549 6.549 0 01-6.549 6.549z" fill="#d0d1d3"/><path d="M379.494 335.007H132.506c-25.578 0-46.311-20.735-46.311-46.311s20.733-46.311 46.311-46.311h246.989c25.576 0 46.311 20.733 46.311 46.311-.001 25.575-20.735 46.311-46.312 46.311z" fill="#3f3d3d"/><path d="M379.494 242.385H253.506v92.62h125.988c25.576 0 46.311-20.733 46.311-46.311 0-25.574-20.734-46.309-46.311-46.309z" fill="#272525"/><g fill="#8bc180"><circle cx="124.085" cy="288.702" r="8.42"/><circle cx="154.962" cy="288.702" r="8.42"/><circle cx="185.837" cy="288.702" r="8.42"/><circle cx="216.712" cy="288.702" r="8.42"/><circle cx="371.071" cy="288.702" r="8.42"/></g><circle cx="340.196" cy="288.702" r="8.42" fill="#e09112"/></svg>