<svg width="100" height="100" xmlns="http://www.w3.org/2000/svg" viewBox="0 0 512 512"><path fill="#0050c7" d="M181 361h150v121H181z"/><path fill="#004597" d="M256 361h75v121h-75z"/><path d="M512 45v256l-30 30H30L0 301V45C0 20.099 20.099 0 45 0h422c24.901 0 45 20.099 45 45z" fill="#0050c7"/><path d="M512 45v256l-30 30H256V0h211c24.901 0 45 20.099 45 45z" fill="#004597"/><path d="M467 30H45c-8.401 0-15 6.599-15 15v316h452V45c0-8.401-6.599-15-15-15z" fill="#00e3ff"/><path d="M482 45v316H256V30h211c8.401 0 15 6.599 15 15z" fill="#00d0ff"/><path d="M391 497c0 8.399-6.599 15-15 15H136c-8.401 0-15-6.601-15-15 0-24.901 20.099-45 45-45h180c24.901 0 45 20.099 45 45z" fill="#007bff"/><path d="M391 497c0 8.399-6.599 15-15 15H256v-60h90c24.901 0 45 20.099 45 45z" fill="#0050c7"/><path d="M512 301v45c0 24.899-20.099 45-45 45H45c-24.901 0-45-20.101-45-45v-45h512z" fill="#007bff"/><path d="M512 301v45c0 24.899-20.099 45-45 45H256v-90h256z" fill="#0050c7"/><path d="M166 121h-61c-8.291 0-15-6.709-15-15s6.709-15 15-15h61c8.291 0 15 6.709 15 15s-6.709 15-15 15zm0 60h-61c-8.291 0-15-6.709-15-15s6.709-15 15-15h61c8.291 0 15 6.709 15 15s-6.709 15-15 15zm0 60h-61c-8.291 0-15-6.709-15-15s6.709-15 15-15h61c8.291 0 15 6.709 15 15s-6.709 15-15 15z" fill="#e1e4fb"/><path d="M412.301 126.7L373.3 142.599 361 166l-30 45v15l30 45 83.32-55.547a15 15 0 006.68-12.481V113.5l-38.699 13.2z" fill="#9e0a48"/><path d="M352.301 145L316 130.899 271 113.5v89.472c0 5.015 2.507 9.699 6.68 12.481L361 271V166l-8.699-21z" fill="#dd025b"/><path d="M451 113.5L361 166l-90-52.5 6.301-3.9L353.5 63.1c4.501-2.701 10.499-2.701 15 0l82.5 50.4z" fill="#ff0b69"/></svg>