<svg opacity=".05" xmlns="http://www.w3.org/2000/svg" width="420" height="335"><g fill="none" stroke-miterlimit="10" font-family="none" font-weight="none" font-size="none" text-anchor="none" style="mix-blend-mode:normal"><path d="M8.4-34.1H42L8.4-.5z" fill="#fdfa66"/><path d="M42-.5v33.6H8.4zM8.4 33.1l.004.556C8.702 51.956 23.63 66.7 42 66.7H8.4z" fill="#1ac0c6"/><path d="M8.4 100.3H42V83.5c0-8.4-7.522-16.8-16.8-16.8S8.4 74.222 8.4 83.5v16.8zM42 133.9H8.4v-33.6z" fill="#fc5185"/><path d="M8.4 167.5c18.557 0 33.6-16.8 33.6-33.6H8.4v33.6z" fill="#fdfa66"/><path d="M8.4 167.5h16.8L42 184.3H25.2v16.8L8.4 184.3z" fill="#3fc1c9"/><path d="M8.4 201.1H42L8.4 234.7z" fill="#364f6b"/><path d="M42 234.7v33.6l-.004-.504C41.699 251.166 26.77 234.7 8.4 234.7z" fill="#1ac0c6"/><path d="M42 268.3v33.6H8.4z" fill="#fdfa66"/><path d="M42 301.9v33.6H8.4l.556-.005C27.256 335.164 42 318.532 42 301.9z" fill="#fdfa66"/><path d="M25.2 369.1c9.278 0 16.8-7.522 16.8-16.8s-7.522-16.8-16.8-16.8H8.4v33.6h16.8zM75.6-34.1V-.5H42z" fill="#3fc1c9"/><path d="M75.6 16.3c0-9.278-7.522-16.8-16.8-16.8S42 7.022 42 16.3h33.6z" fill="#1ac0c6"/><path d="M58.8 66.7c9.278 0 16.8-8.4 16.8-16.8s-7.522-16.8-16.8-16.8S42 40.622 42 49.9s7.522 16.8 16.8 16.8zm0 33.6c9.278 0 16.8-7.522 16.8-16.8H42c0 9.278 7.522 16.8 16.8 16.8z" fill="#fdfa66"/><path d="M75.6 133.9v-33.6c-18.557 0-33.6 15.043-33.6 33.6h33.6z" fill="#364f6b"/><path d="M58.8 167.5c9.278 0 16.8-7.522 16.8-16.8s-7.522-16.8-16.8-16.8v33.6z" fill="#364f6b"/><path d="M58.8 201.1h16.8v-33.6H58.8c-9.278 0-16.8 7.522-16.8 16.8s7.522 16.8 16.8 16.8z" fill="#1ac0c6"/><path d="M75.6 201.1v16.8l-16.8 16.8v-16.8H42l16.8-16.8z" fill="#1ac0c6"/><path d="M58.8 268.3c9.278 0 16.8-8.4 16.8-16.8v-16.8H42v16.8c0 9.278 7.522 16.8 16.8 16.8z" fill="#fc5185"/><path d="M75.6 285.1c0-9.278-7.522-16.8-16.8-16.8S42 275.822 42 285.1h33.6zm-16.8 50.4c9.278 0 16.8-7.522 16.8-16.8s-7.522-16.8-16.8-16.8H42v33.6h16.8z" fill="#3fc1c9"/><path d="M42 369.1c18.557 0 33.6-16.8 33.6-33.6H42v33.6zm67.2-403.2V-.5H75.6z" fill="#fc5185"/><path d="M92.4 33.1c9.278 0 16.8-7.522 16.8-16.8H75.6c0 9.278 7.522 16.8 16.8 16.8z" fill="#364f6b"/><path d="M92.4 66.7h16.8V33.1H92.4c-9.278 0-16.8 7.522-16.8 16.8s7.522 16.8 16.8 16.8z" fill="#fdfa66"/><path d="M75.6 66.7h33.6l-33.6 33.6z" fill="#1ac0c6"/><path d="M109.2 100.3v33.6l-.004-.504C108.899 116.766 93.97 100.3 75.6 100.3z" fill="#1ac0c6"/><path d="M109.2 133.9c-18.557 0-33.6 15.043-33.6 33.6v-33.6z" fill="#fdfa66"/><path d="M109.2 167.5c-18.557 0-33.6 15.043-33.6 33.6v-33.6zm-33.6 67.2c18.557 0 33.6-16.8 33.6-33.6H75.6v33.6z" fill="#1ac0c6"/><path d="M109.2 234.7v33.6l-.004-.504C108.899 251.166 93.97 234.7 75.6 234.7z" fill="#fdfa66"/><path d="M109.2 268.3v33.6H75.6l.556-.005c18.3-.331 33.044-16.963 33.044-33.595z" fill="#364f6b"/><path d="M109.2 335.5v-33.6c-18.557 0-33.6 15.043-33.6 33.6h33.6z" fill="#fc5185"/><path d="M92.4 352.3h16.8l-16.8 16.8H75.6v-16.8l16.8-16.8zM109.2-.5c18.557 0 33.6-16.8 33.6-33.6h-33.6V-.5z" fill="#3fc1c9"/><path d="M109.2-.5l.004.556c.297 18.3 15.225 33.044 33.596 33.044h-33.6z" fill="#364f6b"/><path d="M142.8 49.9c0-9.278-7.522-16.8-16.8-16.8s-16.8 7.522-16.8 16.8h33.6z" fill="#1ac0c6"/><path d="M126 100.3c9.278 0 16.8-8.4 16.8-16.8s-7.522-16.8-16.8-16.8-16.8 7.522-16.8 16.8 7.522 16.8 16.8 16.8z" fill="#364f6b"/><path d="M126 133.9v-33.6c-9.278 0-16.8 7.522-16.8 16.8s7.522 16.8 16.8 16.8zm16.8 33.6c0-16.8-15.043-33.6-33.6-33.6v33.6h33.6z" fill="#1ac0c6"/><path d="M126 201.1c9.278 0 16.8-7.522 16.8-16.8s-7.522-16.8-16.8-16.8v33.6z" fill="#3fc1c9"/><path d="M142.8 234.7v-33.6c-18.557 0-33.6 15.043-33.6 33.6h33.6z" fill="#fdfa66"/><path d="M126 268.3c9.278 0 16.8-7.522 16.8-16.8h-33.6c0 9.278 7.522 16.8 16.8 16.8zm-16.8 0H126l16.8 16.8H126v16.8l-16.8-16.8z" fill="#fc5185"/><path d="M142.8 335.5v-33.6h-33.6c0 9.691 4.103 18.424 10.666 24.556A33.482 33.482 0 00142.8 335.5z" fill="#1ac0c6"/><path d="M126 369.1h16.8v-33.6H126c-9.278 0-16.8 7.522-16.8 16.8s7.522 16.8 16.8 16.8z" fill="#fdfa66"/><path d="M176.4-34.1V-.5h-33.6z" fill="#3fc1c9"/><path d="M159.6 33.1V-.5c-9.278 0-16.8 7.522-16.8 16.8s7.522 16.8 16.8 16.8z" fill="#fc5185"/><path d="M176.4 33.1c-18.557 0-33.6 15.043-33.6 33.6V33.1zm-16.8 67.2c9.278 0 16.8-8.4 16.8-16.8s-7.522-16.8-16.8-16.8-16.8 7.522-16.8 16.8 7.522 16.8 16.8 16.8z" fill="#1ac0c6"/><path d="M176.4 100.3v33.6l-.004-.504c-.297-16.63-15.225-33.096-33.596-33.096z" fill="#fdfa66"/><path d="M176.4 167.5v-33.6c-18.557 0-33.6 15.043-33.6 33.6h33.6z" fill="#1ac0c6"/><path d="M142.8 167.5l.004.556c.297 18.3 15.225 33.044 33.596 33.044h-33.6z" fill="#364f6b"/><path d="M176.4 201.1c-18.557 0-33.6 15.043-33.6 33.6v-33.6zm-16.8 50.4v-16.8l16.8 16.8v16.8h-16.8l-16.8-16.8z" fill="#1ac0c6"/><path d="M159.6 301.9v-33.6c-9.278 0-16.8 7.522-16.8 16.8s7.522 16.8 16.8 16.8z" fill="#fdfa66"/><path d="M142.8 301.9l.004.556c.297 18.3 15.225 33.044 33.596 33.044h-33.6z" fill="#3fc1c9"/><path d="M176.4 335.5v33.6h-33.6l.556-.005c18.3-.331 33.044-16.963 33.044-33.595z" fill="#1ac0c6"/><path d="M193.2-.5c9.278 0 16.8-8.4 16.8-16.8s-7.522-16.8-16.8-16.8-16.8 7.522-16.8 16.8S183.922-.5 193.2-.5z" fill="#fdfa66"/><path d="M193.2 33.1H210V-.5h-16.8c-9.278 0-16.8 7.522-16.8 16.8s7.522 16.8 16.8 16.8z" fill="#1ac0c6"/><path d="M193.2 66.7H210V33.1h-16.8c-9.278 0-16.8 7.522-16.8 16.8s7.522 16.8 16.8 16.8z" fill="#364f6b"/><path d="M210 66.7v33.6h-33.6l.556-.005C195.256 99.964 210 83.332 210 66.7z" fill="#fc5185"/><path d="M176.4 133.9c18.557 0 33.6-16.8 33.6-33.6h-33.6v33.6z" fill="#364f6b"/><path d="M210 133.9v33.6h-33.6z" fill="#fc5185"/><path d="M193.2 184.3v-16.8l16.8 16.8v16.8h-16.8l-16.8-16.8z" fill="#3fc1c9"/><path d="M210 234.7v-33.6h-33.6c0 9.691 4.103 18.424 10.666 24.556A33.482 33.482 0 00210 234.7z" fill="#fdfa66"/><path d="M210 234.7v33.6h-33.6z" fill="#3fc1c9"/><path d="M193.2 301.9c9.278 0 16.8-8.4 16.8-16.8v-16.8h-33.6v16.8c0 9.278 7.522 16.8 16.8 16.8z" fill="#364f6b"/><path d="M210 301.9v33.6l-.004-.504c-.297-16.63-15.225-33.096-33.596-33.096z" fill="#1ac0c6"/><path d="M193.2 369.1c9.278 0 16.8-8.4 16.8-16.8s-7.522-16.8-16.8-16.8-16.8 7.522-16.8 16.8 7.522 16.8 16.8 16.8zm50.4-386.4c0-9.278-7.522-16.8-16.8-16.8S210-26.578 210-17.3h33.6z" fill="#fc5185"/><path d="M210 33.1c18.557 0 33.6-16.8 33.6-33.6H210v33.6z" fill="#fdfa66"/><path d="M210 33.1h33.6L210 66.7z" fill="#fc5185"/><path d="M243.6 100.3c0-16.8-15.043-33.6-33.6-33.6v33.6h33.6z" fill="#3fc1c9"/><path d="M243.6 100.3v16.8l-16.8 16.8v-16.8H210l16.8-16.8zm-16.8 67.2v-33.6c-9.278 0-16.8 7.522-16.8 16.8s7.522 16.8 16.8 16.8z" fill="#1ac0c6"/><path d="M226.8 201.1c9.278 0 16.8-7.522 16.8-16.8s-7.522-16.8-16.8-16.8v33.6z" fill="#3fc1c9"/><path d="M226.8 234.7h16.8v-33.6h-16.8c-9.278 0-16.8 7.522-16.8 16.8s7.522 16.8 16.8 16.8z" fill="#1ac0c6"/><path d="M243.6 268.3v-33.6c-18.557 0-33.6 15.043-33.6 33.6h33.6z" fill="#3fc1c9"/><path d="M210 268.3h33.6L210 301.9z" fill="#fc5185"/><path d="M243.6 301.9c-18.557 0-33.6 15.043-33.6 33.6v-33.6z" fill="#1ac0c6"/><path d="M243.6 335.5c-18.557 0-33.6 15.043-33.6 33.6v-33.6zm16.8-336c9.278 0 16.8-8.4 16.8-16.8s-7.522-16.8-16.8-16.8-16.8 7.522-16.8 16.8S251.122-.5 260.4-.5z" fill="#3fc1c9"/><path d="M260.4 33.1c9.278 0 16.8-7.522 16.8-16.8S269.678-.5 260.4-.5v33.6z" fill="#1ac0c6"/><path d="M277.2 33.1v33.6h-33.6l.556-.005c18.3-.331 33.044-16.963 33.044-33.595z" fill="#3fc1c9"/><path d="M260.4 100.3h16.8V66.7h-16.8c-9.278 0-16.8 7.522-16.8 16.8s7.522 16.8 16.8 16.8zm16.8 0v33.6h-33.6l.556-.005c18.3-.331 33.044-16.963 33.044-33.595z" fill="#364f6b"/><path d="M277.2 133.9c-18.557 0-33.6 15.043-33.6 33.6v-33.6z" fill="#fdfa66"/><path d="M277.2 184.3c0-9.278-7.522-16.8-16.8-16.8s-16.8 7.522-16.8 16.8h33.6z" fill="#fc5185"/><path d="M277.2 201.1v33.6h-33.6z" fill="#1ac0c6"/><path d="M277.2 268.3v-33.6h-33.6c0 9.691 4.103 18.424 10.666 24.556A33.482 33.482 0 00277.2 268.3z" fill="#fdfa66"/><path d="M277.2 285.1c0-9.278-7.522-16.8-16.8-16.8s-16.8 7.522-16.8 16.8h33.6zm-33.6 16.8l.004.556c.297 18.3 15.225 33.044 33.596 33.044h-33.6zm0 67.2h33.6v-16.8c0-8.4-7.522-16.8-16.8-16.8s-16.8 7.522-16.8 16.8v16.8z" fill="#1ac0c6"/><path d="M294-.5c9.278 0 16.8-8.4 16.8-16.8v-16.8h-33.6v16.8c0 9.278 7.522 16.8 16.8 16.8z" fill="#fc5185"/><path d="M294 33.1V-.5c-9.278 0-16.8 7.522-16.8 16.8s7.522 16.8 16.8 16.8z" fill="#3fc1c9"/><path d="M310.8 33.1v33.6l-.004-.504C310.498 49.566 295.57 33.1 277.2 33.1z" fill="#fc5185"/><path d="M294 100.3V66.7c-9.278 0-16.8 7.522-16.8 16.8s7.522 16.8 16.8 16.8z" fill="#3fc1c9"/><path d="M310.8 100.3v33.6h-33.6z" fill="#1ac0c6"/><path d="M294 167.5c9.278 0 16.8-7.522 16.8-16.8h-33.6c0 9.278 7.522 16.8 16.8 16.8z" fill="#fc5185"/><path d="M310.8 201.1v-33.6h-33.6c0 9.691 4.103 18.424 10.666 24.556A33.482 33.482 0 00310.8 201.1z" fill="#1ac0c6"/><path d="M277.2 201.1l.004.556c.297 18.3 15.225 33.044 33.596 33.044h-33.6z" fill="#364f6b"/><path d="M310.8 234.7v16.8L294 268.3v-16.8h-16.8l16.8-16.8z" fill="#fdfa66"/><path d="M277.2 301.9c18.557 0 33.6-16.8 33.6-33.6h-33.6v33.6z" fill="#364f6b"/><path d="M294 335.5v-33.6c-9.278 0-16.8 7.522-16.8 16.8s7.522 16.8 16.8 16.8zm16.8 0v33.6h-33.6z" fill="#fdfa66"/><path d="M310.8-34.1h16.8l16.8 16.8h-16.8V-.5l-16.8-16.8z" fill="#3fc1c9"/><path d="M327.6 33.1V-.5c-9.278 0-16.8 7.522-16.8 16.8s7.522 16.8 16.8 16.8z" fill="#1ac0c6"/><path d="M344.4 33.1v33.6l-.004-.504C344.098 49.566 329.17 33.1 310.8 33.1z" fill="#364f6b"/><path d="M344.4 100.3c0-16.8-15.043-33.6-33.6-33.6v33.6h33.6z" fill="#fc5185"/><path d="M327.6 133.9v-33.6c-9.278 0-16.8 7.522-16.8 16.8s7.522 16.8 16.8 16.8z" fill="#3fc1c9"/><path d="M344.4 133.9v33.6h-33.6l.556-.005c18.3-.331 33.044-16.963 33.044-33.595z" fill="#fc5185"/><path d="M310.8 167.5l.004.556c.297 18.3 15.225 33.044 33.596 33.044h-33.6z" fill="#364f6b"/><path d="M344.4 201.1v33.6h-33.6zm0 67.2v-33.6c-18.557 0-33.6 15.043-33.6 33.6h33.6z" fill="#fc5185"/><path d="M327.6 301.9c9.278 0 16.8-8.4 16.8-16.8s-7.522-16.8-16.8-16.8-16.8 7.522-16.8 16.8 7.522 16.8 16.8 16.8z" fill="#fdfa66"/><path d="M344.4 335.5c0-16.8-15.043-33.6-33.6-33.6v33.6h33.6z" fill="#3fc1c9"/><path d="M344.4 335.5v16.8l-16.8 16.8v-16.8h-16.8l16.8-16.8z" fill="#1ac0c6"/><path d="M344.4-34.1h16.8L378-17.3h-16.8V-.5l-16.8-16.8z" fill="#fc5185"/><path d="M378 33.1c0-16.8-15.043-33.6-33.6-33.6v33.6H378z" fill="#364f6b"/><path d="M344.4 33.1h16.8L378 49.9h-16.8v16.8l-16.8-16.8z" fill="#fc5185"/><path d="M378 66.7v33.6l-.004-.504C377.698 83.166 362.77 66.7 344.4 66.7zm0 67.2v-33.6c-18.557 0-33.6 15.043-33.6 33.6H378z" fill="#1ac0c6"/><path d="M361.2 150.7v-16.8l16.8 16.8v16.8h-16.8l-16.8-16.8z" fill="#fdfa66"/><path d="M361.2 201.1H378v-33.6h-16.8c-9.278 0-16.8 7.522-16.8 16.8s7.522 16.8 16.8 16.8z" fill="#fc5185"/><path d="M361.2 217.9v-16.8l16.8 16.8v16.8h-16.8l-16.8-16.8z" fill="#3fc1c9"/><path d="M344.4 268.3H378v-16.8c0-8.4-7.522-16.8-16.8-16.8s-16.8 7.522-16.8 16.8v16.8z" fill="#fdfa66"/><path d="M344.4 268.3l.004.556c.297 18.3 15.225 33.044 33.596 33.044h-33.6z" fill="#3fc1c9"/><path d="M361.2 335.5c9.278 0 16.8-7.522 16.8-16.8s-7.522-16.8-16.8-16.8v33.6z" fill="#fdfa66"/><path d="M361.2 352.3H378l-16.8 16.8h-16.8v-16.8l16.8-16.8z" fill="#364f6b"/><path d="M378-.5h33.6v-16.8c0-8.4-7.522-16.8-16.8-16.8S378-26.578 378-17.3V-.5z" fill="#3fc1c9"/><path d="M394.8 33.1c9.278 0 16.8-8.4 16.8-16.8S404.078-.5 394.8-.5 378 7.022 378 16.3s7.522 16.8 16.8 16.8z" fill="#fdfa66"/><path d="M394.8 49.9h16.8l-16.8 16.8H378V49.9l16.8-16.8zm16.8 16.8v33.6H378z" fill="#364f6b"/><path d="M378 100.3h16.8l16.8 16.8h-16.8v16.8L378 117.1z" fill="#1ac0c6"/><path d="M411.6 133.9v33.6H378l.556-.005c18.3-.331 33.044-16.963 33.044-33.595zm0 50.4c0-9.278-7.522-16.8-16.8-16.8s-16.8 7.522-16.8 16.8h33.6zm0 16.8v16.8l-16.8 16.8v-16.8H378l16.8-16.8z" fill="#fdfa66"/><path d="M411.6 268.3c0-16.8-15.043-33.6-33.6-33.6v33.6h33.6z" fill="#fc5185"/><path d="M378 268.3h33.6L378 301.9zm16.8 67.2c9.278 0 16.8-7.522 16.8-16.8H378c0 9.278 7.522 16.8 16.8 16.8z" fill="#3fc1c9"/><path d="M378 335.5l.004.556c.297 18.3 15.225 33.044 33.596 33.044H378z" fill="#1ac0c6"/></g></svg>