<svg width="643" height="778" viewBox="0 0 643 778" fill="none" xmlns="http://www.w3.org/2000/svg">
<path d="M18.4913 594.804L98.0335 739.253L88.1692 743.347C84.839 744.729 81.0147 744.906 77.5359 743.839C74.0572 742.773 71.208 740.55 69.6181 737.66L2.0725 615.001C0.482627 612.112 0.278277 608.792 1.50597 605.772C2.73553 602.751 5.29681 600.279 8.62515 598.897L18.4913 594.804Z" fill="#EFAFBE"/>
<path d="M105.09 562.185L50.1943 581.884L80.9908 619.69L129.657 606.799L105.09 562.185Z" fill="#FFCCB3"/>
<path d="M70.0251 583.394C70.0251 583.394 91.4568 612.13 94.6905 628.186C97.9222 644.243 108.996 725.462 106.016 732.784C103.875 738.046 96.0965 740.303 91.1615 740.782C90.0787 740.882 88.9866 740.687 88.0375 740.224C87.0884 739.762 86.3268 739.054 85.8625 738.199L13.6586 607.077C12.4514 604.889 12.2824 602.379 13.1851 600.083C14.0896 597.788 15.9934 595.892 18.4915 594.804C28.4802 590.448 43.7605 583.919 50.1943 581.886C60.1385 578.744 66.7023 578.763 70.0251 583.394Z" fill="#F40638"/>
<path d="M458.63 652.137L384.032 771.676C382.275 774.493 379.301 776.587 375.764 777.5C372.228 778.412 368.417 778.067 365.174 776.542L355.559 772.021L443.409 631.244L453.024 635.767C456.269 637.292 458.682 639.874 459.733 642.943C460.784 646.013 460.388 649.32 458.63 652.137Z" fill="#EFAFBE"/>
<path d="M358.82 594.87L412.499 616.952L379.541 653.359L331.687 638.35L358.82 594.87Z" fill="#FFCCB3"/>
<path d="M392.605 617.589C392.605 617.589 369.528 645.347 365.364 661.241C361.201 677.136 345.416 757.765 347.964 765.209C349.795 770.558 357.433 773.154 362.334 773.848C363.41 773.996 364.511 773.849 365.486 773.428C366.461 773.008 367.262 772.334 367.776 771.5L447.523 643.714C448.854 641.582 449.17 639.081 448.401 636.75C447.632 634.417 445.84 632.44 443.411 631.244C433.688 626.455 418.805 619.264 412.499 616.952C402.75 613.378 396.194 613.109 392.605 617.589Z" fill="#F40638"/>
<path d="M520.537 424.588C520.537 424.588 541.086 513.174 525.139 530.53L118.782 620.856L84.1299 564.51L321.423 471.037L368.947 414.493L520.537 424.588Z" fill="#D1E8F7"/>
<path d="M417.707 487.799L328.05 513.83L286.213 529.058L340.618 571.548L291.978 581.086L159.307 487.799H417.707Z" fill="#5CA4E6"/>
<path d="M109.592 557.121L112.35 565.442L175.351 608.129L234.531 595.594C234.531 595.594 120.366 548.431 109.592 557.121Z" fill="#5CA4E6"/>
<path d="M223.643 419.42C223.643 419.42 108.739 414.009 51.786 418.355C15.1129 421.154 1.89243 502.619 31.1584 517.44L345.245 657.045L382.258 598.985L179.643 479.929L324.599 462.229L223.643 419.42Z" fill="#D1E8F7"/>
<path d="M61.4443 524.374C95.3778 524.374 122.887 500.494 122.887 471.037C122.887 441.578 95.3778 417.698 61.4443 417.698C27.509 417.698 0 441.578 0 471.037C0 500.494 27.509 524.374 61.4443 524.374Z" fill="#D1E8F7"/>
<path d="M514.931 531.264C548.865 531.264 576.374 507.384 576.374 477.925C576.374 448.468 548.865 424.588 514.931 424.588C480.996 424.588 453.487 448.468 453.487 477.925C453.487 507.384 480.996 531.264 514.931 531.264Z" fill="#D1E8F7"/>
<path d="M346.615 226.232C340.143 198.49 355.365 199.206 360.432 194.795C360.432 194.795 379.436 181.19 393.918 193.872C409.247 207.287 497.115 311.491 497.115 311.491L442.136 355.387L431.802 344.681L405.032 316.967L376.4 287.345L372.843 283.972L334.218 245.994C334.218 245.994 350.276 240.836 346.615 226.232Z" fill="#F40638"/>
<path d="M377.106 254.089C399.232 247.654 411.161 226.868 403.751 207.661C396.34 188.453 372.395 178.097 350.267 184.53C328.141 190.964 316.211 211.751 323.622 230.959C331.034 250.166 354.979 260.522 377.106 254.089Z" fill="#F40638"/>
<path d="M373.35 283.825C372.241 278.027 370.023 266.432 367.637 255.863L354.951 204.712C354.951 204.712 389.02 248.422 404.715 278.867C416.34 301.683 429.824 324.936 432.055 344.608L405.287 316.893L376.654 287.271L373.35 283.825Z" fill="#BC1940"/>
<path d="M552.031 194.174C565.096 173.489 558.818 169.978 564.375 158.208C569.851 146.723 560.129 118.256 569.436 122.137C578.742 126.019 581.622 136.335 581.622 136.335C587.987 126.561 593.849 108.577 609.085 106.518C624.324 104.459 625.673 108.622 634.309 114.775C657.286 131.371 627.987 156.312 623.097 165.81C619.95 171.762 596.832 189.912 594.271 193.88L582.635 208.532L552.031 194.174Z" fill="#FFCCB3"/>
<path d="M596.921 137.617L615.489 107.858L596.921 137.617Z" fill="#E56441"/>
<path d="M596.921 137.617L615.489 107.858" stroke="#E56441" stroke-width="0.94666" stroke-linecap="round"/>
<path d="M609.087 142.436L629.324 114.722L609.087 142.436Z" fill="#E56441"/>
<path d="M609.087 142.436L629.324 114.722" stroke="#E56441" stroke-width="0.94666" stroke-linecap="round"/>
<path d="M623.541 147.765L635.106 130.981L623.541 147.765Z" fill="#E56441"/>
<path d="M623.541 147.765L635.106 130.981" stroke="#E56441" stroke-width="0.94666" stroke-linecap="round"/>
<path d="M592.334 163.814C592.235 153.511 585.112 141.041 585.112 141.041L592.334 163.814Z" fill="#E56441"/>
<path d="M592.334 163.814C592.235 153.511 585.112 141.041 585.112 141.041" stroke="#E56441" stroke-width="0.94666" stroke-linecap="round"/>
<path d="M441.67 310.662L553.469 181.419C554.18 180.659 555.193 180.156 556.307 180.006C557.421 179.855 558.562 180.068 559.505 180.604L588.781 197.41C590.172 198.229 591.162 199.467 591.561 200.883C591.96 202.3 591.737 203.796 590.937 205.078L501.031 349.008L441.67 310.662Z" fill="#F40638"/>
<path d="M468.834 365.251C489.511 365.251 506.274 350.701 506.274 332.751C506.274 314.803 489.511 300.252 468.834 300.252C448.158 300.252 431.396 314.803 431.396 332.751C431.396 350.701 448.158 365.251 468.834 365.251Z" fill="#F40638"/>
<path d="M302.814 166.226C302.814 166.226 365.551 180.638 376.322 184.379C387.093 188.118 387.809 203.077 388.528 213.673C389.245 224.268 386.834 462.229 386.834 462.229L247.987 457.594L144.151 404.829C144.151 404.829 148.665 216.017 150.102 207.292C151.538 198.566 140.255 191.051 152.485 186.659L231.106 168.63L302.814 166.226Z" fill="#F40638"/>
<path d="M198.334 250.997L199.452 426.811L139.761 369.058L168.64 245.526L198.334 250.997Z" fill="#BC1940"/>
<path d="M220.867 171.316C220.867 171.316 211.985 186.823 220.867 197.519C229.749 208.215 265.305 218.605 289.597 218.301C313.888 217.994 326.759 197.89 315.747 169.742L275.515 159.93L231.106 168.63L220.867 171.316Z" fill="#BC1940"/>
<path d="M321.427 37.6799C321.427 37.6799 338.919 70.4472 320.262 77.2157C301.605 83.9843 303.778 39.2697 321.427 37.6799Z" fill="#93523E"/>
<path d="M301.694 142.533L306.756 192.07C306.756 192.07 311.607 198.711 292.712 202.198C280.558 204.443 247.826 193.248 241.478 189.89C238.777 188.645 236.662 186.622 235.495 184.169C234.329 181.717 234.182 178.987 235.085 176.453C237.014 170.389 245.01 119.889 245.01 119.889L301.694 142.533Z" fill="#FFCCB3"/>
<path d="M302.669 152.084L272.521 139.155L306.131 185.964L302.669 152.084Z" fill="#FF967C"/>
<path d="M311.38 47.1635C311.38 47.1635 329.073 85.6819 335.49 112.704C341.965 139.966 331.635 146.774 318.002 150.784C307.251 153.946 290.082 156.468 278.402 153.295C257.105 147.506 236.27 130.801 231.287 127.37C223.571 122.058 215.952 97.9598 227.262 84.326C238.571 70.6938 283.127 27.8511 311.38 47.1635Z" fill="#FFCCB3"/>
<path d="M288.602 100.33C290.955 99.5272 291.717 96.3477 290.303 93.2311C288.89 90.1129 285.838 88.2377 283.485 89.0407C281.132 89.8436 280.37 93.0231 281.782 96.1413C283.195 99.258 286.249 101.135 288.602 100.33Z" fill="#080B09"/>
<path d="M320.942 89.0807C323.295 88.2778 324.057 85.0983 322.643 81.9801C321.232 78.8635 318.178 76.9867 315.825 77.7912C313.472 78.5942 312.71 81.7737 314.123 84.8903C315.535 88.0085 318.589 89.8837 320.942 89.0807Z" fill="#080B09"/>
<path d="M309.081 94.4C309.081 94.4 306.208 101.949 312.248 101.214C317.989 100.338 321.884 102.8 316.869 107.858" fill="#E56441"/>
<path d="M309.081 94.4C309.081 94.4 306.208 101.949 312.248 101.214C317.989 100.338 321.884 102.8 316.869 107.858" stroke="#E56441" stroke-width="0.94666" stroke-linecap="round"/>
<path d="M317.149 114.533L317.179 114.527L317.208 114.519C317.292 114.498 317.381 114.494 317.465 114.512C317.55 114.53 317.628 114.567 317.691 114.62C317.754 114.672 317.801 114.739 317.825 114.812C317.847 114.885 317.849 114.962 317.827 115.036L317.808 115.099L317.801 115.163C317.431 118.467 316.484 120.429 315.334 121.534C314.224 122.6 312.831 122.954 311.25 122.849C309.629 122.743 307.847 122.15 306.122 121.335C304.417 120.531 302.833 119.543 301.609 118.694C301.525 118.627 301.464 118.541 301.43 118.448C301.393 118.348 301.39 118.241 301.419 118.141C301.447 118.04 301.508 117.948 301.592 117.874C301.677 117.801 301.783 117.75 301.9 117.725L301.91 117.722C306.579 116.697 313.622 115.255 317.149 114.533Z" fill="#E56441" stroke="#E56441"/>
<path d="M268.113 87.1316L268.555 87.6702C269.122 88.5037 270.045 89.11 271.124 89.3551C272.201 89.6001 273.347 89.4663 274.313 88.9794L290.632 80.2518C291.443 79.8568 292.053 79.2135 292.342 78.4477C292.63 77.6818 292.578 76.8483 292.194 76.1147C291.982 75.6568 291.663 75.2408 291.252 74.8973C290.844 74.5539 290.353 74.2895 289.818 74.1218C289.283 73.9557 288.711 73.888 288.145 73.9267C287.576 73.9654 287.025 74.1073 286.525 74.3443L269.763 82.5349C269.3 82.7365 268.89 83.017 268.554 83.3604C268.219 83.7022 267.967 84.1005 267.813 84.5294C267.66 84.9582 267.606 85.4097 267.658 85.8579C267.709 86.3045 267.865 86.7382 268.113 87.1316Z" fill="#080B09"/>
<path d="M324.493 64.7478L305.34 66.2892C304.773 66.3408 304.226 66.4956 303.733 66.7455C303.241 66.9938 302.816 67.3307 302.485 67.7322C302.155 68.1337 301.926 68.5932 301.815 69.0769C301.703 69.5622 301.711 70.062 301.837 70.5441C302.002 71.3374 302.504 72.0484 303.243 72.5353C303.984 73.0223 304.907 73.2512 305.832 73.1754L324.974 72.2951C326.084 72.2193 327.117 71.763 327.843 71.0294C328.57 70.2958 328.932 69.3413 328.85 68.3755L328.863 67.7145C328.809 67.2678 328.651 66.8342 328.401 66.4408C328.15 66.0473 327.81 65.7023 327.403 65.4266C326.995 65.1493 326.527 64.9461 326.027 64.8301C325.527 64.714 325.005 64.6849 324.493 64.7478Z" fill="#080B09"/>
<path d="M289.421 54.8481C289.421 54.8481 279.861 70.6392 262.517 75.323C245.174 80.0051 254.652 103.768 254.652 103.768C254.652 103.768 242.759 93.4987 229.087 99.2789C215.417 105.061 225.794 127.748 244.682 128.038L239.544 153.567C239.544 153.567 229.979 143.226 219.92 137.692C209.858 132.161 173.718 110.681 189.684 82.3946C189.684 82.3946 177.193 42.6734 211.45 22.0808C245.707 1.48658 275.357 9.25798 275.357 9.25798C275.357 9.25798 283.524 -1.98801 302.454 0.309548C321.382 2.60711 325.749 32.2384 319.48 42.9555C313.212 53.6727 302.996 58.2275 289.421 54.8481Z" fill="#93523E"/>
<path d="M146.702 213.169C170.791 194.095 177.905 205.799 184.868 207.306C184.868 207.306 208.077 214.47 202.985 231.77C197.602 250.079 139.761 369.058 139.761 369.058L68.1328 350.664L73.404 337.467L87.0405 303.291L101.606 266.748L103.11 262.367L120.799 214.088C120.799 214.088 134.148 223.397 146.702 213.169Z" fill="#F40638"/>
<path d="M194.409 246.178C209.585 230.79 207.516 207.635 189.79 194.463C172.063 181.288 145.39 183.084 130.216 198.472C115.04 213.86 117.107 237.015 134.835 250.188C152.561 263.362 179.233 261.566 194.409 246.178Z" fill="#F40638"/>
<path d="M132.67 339.834L265.651 452.955C266.425 453.667 266.868 454.603 266.894 455.581C266.92 456.562 266.528 457.514 265.792 458.258L242.77 481.253C241.654 482.343 240.111 483.034 238.439 483.192C236.769 483.35 235.09 482.962 233.731 482.106L81.1118 385.906L132.67 339.834Z" fill="#F40638"/>
<path d="M103.888 392.823C124.566 392.823 141.328 378.272 141.328 360.324C141.328 342.374 124.566 327.823 103.888 327.823C83.2122 327.823 66.4497 342.374 66.4497 360.324C66.4497 378.272 83.2122 392.823 103.888 392.823Z" fill="#F40638"/>
<path d="M320.238 318.044L248.067 491.614H102.958C102.958 486.314 105.383 481.232 109.7 477.484C114.018 473.736 119.872 471.631 125.977 471.631H230.959L293.279 318.044H320.238Z" fill="white"/>
<path d="M320.238 318.044H514.931L439.635 491.616H248.067L320.238 318.044Z" fill="url(#paint0_linear_415_143)"/>
<defs>
<linearGradient id="paint0_linear_415_143" x1="374.856" y1="317.631" x2="400.982" y2="688.123" gradientUnits="userSpaceOnUse">
<stop stop-color="white"/>
<stop offset="1" stop-color="#94B9FF"/>
</linearGradient>
</defs>
</svg>
