<svg width="643" height="778" fill="none" xmlns="http://www.w3.org/2000/svg"><path d="m18.491 594.804 79.543 144.449-9.865 4.094c-3.33 1.382-7.154 1.559-10.633.492-3.479-1.066-6.328-3.289-7.918-6.179L2.073 615.001c-1.59-2.889-1.795-6.209-.567-9.229 1.23-3.021 3.79-5.493 7.12-6.875l9.865-4.093z" fill="#EFAFBE"/><path d="m105.09 562.185-54.896 19.699 30.797 37.806 48.666-12.891-24.567-44.614z" fill="#FFCCB3"/><path d="M70.025 583.394s21.432 28.736 24.665 44.792c3.232 16.057 14.306 97.276 11.326 104.598-2.141 5.262-9.92 7.519-14.855 7.998a5.918 5.918 0 0 1-3.124-.558c-.949-.462-1.71-1.17-2.175-2.025L13.66 607.077c-1.208-2.188-1.377-4.698-.474-6.994.905-2.295 2.808-4.191 5.306-5.279 9.99-4.356 25.27-10.885 31.703-12.918 9.944-3.142 16.508-3.123 19.831 1.508z" fill="#F40638"/><path d="m458.63 652.137-74.598 119.539c-1.757 2.817-4.731 4.911-8.268 5.824-3.536.912-7.347.567-10.59-.958l-9.615-4.521 87.85-140.777 9.615 4.523c3.245 1.525 5.658 4.107 6.709 7.176 1.051 3.07.655 6.377-1.103 9.194z" fill="#EFAFBE"/><path d="m358.82 594.87 53.679 22.082-32.958 36.407-47.854-15.009 27.133-43.48z" fill="#FFCCB3"/><path d="M392.605 617.589s-23.077 27.758-27.241 43.652c-4.163 15.895-19.948 96.524-17.4 103.968 1.831 5.349 9.469 7.945 14.37 8.639a5.946 5.946 0 0 0 3.152-.42c.975-.42 1.776-1.094 2.29-1.928l79.747-127.786c1.331-2.132 1.647-4.633.878-6.964-.769-2.333-2.561-4.31-4.99-5.506-9.723-4.789-24.606-11.98-30.912-14.292-9.749-3.574-16.305-3.843-19.894.637z" fill="#F40638"/><path d="M520.537 424.588s20.549 88.586 4.602 105.942l-406.357 90.326L84.13 564.51l237.293-93.473 47.524-56.544 151.59 10.095z" fill="#D1E8F7"/><path d="M417.707 487.799 328.05 513.83l-41.837 15.228 54.405 42.49-48.64 9.538-132.671-93.287h258.4zM109.592 557.121l2.758 8.321 63.001 42.687 59.18-12.535s-114.165-47.163-124.939-38.473z" fill="#5CA4E6"/><path d="M223.643 419.42s-114.904-5.411-171.857-1.065c-36.673 2.799-49.894 84.264-20.628 99.085l314.087 139.605 37.013-58.06-202.615-119.056 144.956-17.7-100.956-42.809z" fill="#D1E8F7"/><path d="M61.444 524.374c33.934 0 61.443-23.88 61.443-53.337 0-29.459-27.51-53.339-61.443-53.339C27.51 417.698 0 441.578 0 471.037c0 29.457 27.509 53.337 61.444 53.337zM514.931 531.264c33.934 0 61.443-23.88 61.443-53.339 0-29.457-27.509-53.337-61.443-53.337-33.935 0-61.444 23.88-61.444 53.337 0 29.459 27.509 53.339 61.444 53.339z" fill="#D1E8F7"/><path d="M346.615 226.232c-6.472-27.742 8.75-27.026 13.817-31.437 0 0 19.004-13.605 33.486-.923 15.329 13.415 103.197 117.619 103.197 117.619l-54.979 43.896-10.334-10.706-26.77-27.714-28.632-29.622-3.557-3.373-38.625-37.978s16.058-5.158 12.397-19.762z" fill="#F40638"/><path d="M377.106 254.089c22.126-6.435 34.055-27.221 26.645-46.428-7.411-19.208-31.356-29.564-53.484-23.131-22.126 6.434-34.056 27.221-26.645 46.429 7.412 19.207 31.357 29.563 53.484 23.13z" fill="#F40638"/><path d="M373.35 283.825c-1.109-5.798-3.327-17.393-5.713-27.962l-12.686-51.151s34.069 43.71 49.764 74.155c11.625 22.816 25.109 46.069 27.34 65.741l-26.768-27.715-28.633-29.622-3.304-3.446z" fill="#BC1940"/><path d="M552.031 194.174c13.065-20.685 6.787-24.196 12.344-35.966 5.476-11.485-4.246-39.952 5.061-36.071 9.306 3.882 12.186 14.198 12.186 14.198 6.365-9.774 12.227-27.758 27.463-29.817 15.239-2.059 16.588 2.104 25.224 8.257 22.977 16.596-6.322 41.537-11.212 51.035-3.147 5.952-26.265 24.102-28.826 28.07l-11.636 14.652-30.604-14.358z" fill="#FFCCB3"/><path d="m596.921 137.617 18.568-29.759-18.568 29.759z" fill="#E56441"/><path d="m596.921 137.617 18.568-29.759" stroke="#E56441" stroke-width=".947" stroke-linecap="round"/><path d="m609.087 142.436 20.237-27.714-20.237 27.714z" fill="#E56441"/><path d="m609.087 142.436 20.237-27.714" stroke="#E56441" stroke-width=".947" stroke-linecap="round"/><path d="m623.541 147.765 11.565-16.784-11.565 16.784z" fill="#E56441"/><path d="m623.541 147.765 11.565-16.784" stroke="#E56441" stroke-width=".947" stroke-linecap="round"/><path d="M592.334 163.814c-.099-10.303-7.222-22.773-7.222-22.773l7.222 22.773z" fill="#E56441"/><path d="M592.334 163.814c-.099-10.303-7.222-22.773-7.222-22.773" stroke="#E56441" stroke-width=".947" stroke-linecap="round"/><path d="m441.67 310.662 111.799-129.243c.711-.76 1.724-1.263 2.838-1.413a5.124 5.124 0 0 1 3.198.598l29.276 16.806c1.391.819 2.381 2.057 2.78 3.473.399 1.417.176 2.913-.624 4.195l-89.906 143.93-59.361-38.346z" fill="#F40638"/><path d="M468.834 365.251c20.677 0 37.44-14.55 37.44-32.5 0-17.948-16.763-32.499-37.44-32.499-20.676 0-37.438 14.551-37.438 32.499 0 17.95 16.762 32.5 37.438 32.5zM302.814 166.226s62.737 14.412 73.508 18.153c10.771 3.739 11.487 18.698 12.206 29.294.717 10.595-1.694 248.556-1.694 248.556l-138.847-4.635-103.836-52.765s4.514-188.812 5.951-197.537c1.436-8.726-9.847-16.241 2.383-20.633l78.621-18.029 71.708-2.404z" fill="#F40638"/><path d="m198.334 250.997 1.118 175.814-59.691-57.753 28.879-123.532 29.694 5.471zM220.867 171.316s-8.882 15.507 0 26.203 44.438 21.086 68.73 20.782c24.291-.307 37.162-20.411 26.15-48.559l-40.232-9.812-44.409 8.7-10.239 2.686z" fill="#BC1940"/><path d="M321.427 37.68s17.492 32.767-1.165 39.536c-18.657 6.768-16.484-37.946 1.165-39.536z" fill="#93523E"/><path d="m301.694 142.533 5.062 49.537s4.851 6.641-14.044 10.128c-12.154 2.245-44.886-8.95-51.234-12.308-2.701-1.245-4.816-3.268-5.983-5.721-1.166-2.452-1.313-5.182-.41-7.716 1.929-6.064 9.925-56.564 9.925-56.564l56.684 22.644z" fill="#FFCCB3"/><path d="m302.669 152.084-30.148-12.929 33.61 46.809-3.462-33.88z" fill="#FF967C"/><path d="M311.38 47.163s17.693 38.519 24.11 65.541c6.475 27.262-3.855 34.07-17.488 38.08-10.751 3.162-27.92 5.684-39.6 2.511-21.297-5.789-42.132-22.494-47.115-25.925-7.716-5.312-15.335-29.41-4.025-43.044 11.309-13.632 55.865-56.475 84.118-37.162z" fill="#FFCCB3"/><path d="M288.602 100.33c2.353-.803 3.115-3.982 1.701-7.099-1.413-3.118-4.465-4.993-6.818-4.19-2.353.803-3.115 3.982-1.703 7.1 1.413 3.117 4.467 4.994 6.82 4.189zM320.942 89.08c2.353-.802 3.115-3.982 1.701-7.1-1.411-3.117-4.465-4.993-6.818-4.189-2.353.803-3.115 3.983-1.702 7.1 1.412 3.117 4.466 4.993 6.819 4.19z" fill="#080B09"/><path d="M309.081 94.4s-2.873 7.549 3.167 6.814c5.741-.876 9.636 1.586 4.621 6.644" fill="#E56441"/><path d="M309.081 94.4s-2.873 7.549 3.167 6.814c5.741-.876 9.636 1.586 4.621 6.644" stroke="#E56441" stroke-width=".947" stroke-linecap="round"/><path d="m317.149 114.533.03-.006.029-.008a.572.572 0 0 1 .257-.007.517.517 0 0 1 .226.108.388.388 0 0 1 .136.416l-.019.063-.007.064c-.37 3.304-1.317 5.266-2.467 6.371-1.11 1.066-2.503 1.42-4.084 1.315-1.621-.106-3.403-.699-5.128-1.514-1.705-.804-3.289-1.792-4.513-2.641a.564.564 0 0 1-.179-.246.49.49 0 0 1-.011-.307.558.558 0 0 1 .173-.267.693.693 0 0 1 .308-.149l.01-.003c4.669-1.025 11.712-2.467 15.239-3.189z" fill="#E56441" stroke="#E56441"/><path d="m268.113 87.132.442.538c.567.834 1.49 1.44 2.569 1.685a4.784 4.784 0 0 0 3.189-.376l16.319-8.727c.811-.395 1.421-1.038 1.71-1.804.288-.766.236-1.6-.148-2.333a3.515 3.515 0 0 0-.942-1.218 4.16 4.16 0 0 0-1.434-.775 4.607 4.607 0 0 0-1.673-.195c-.569.038-1.12.18-1.62.417l-16.762 8.19a3.82 3.82 0 0 0-1.209.826c-.335.342-.587.74-.741 1.17-.153.428-.207.88-.155 1.328.051.447.207.88.455 1.274zM324.493 64.748l-19.153 1.541a4.449 4.449 0 0 0-1.607.457 3.875 3.875 0 0 0-1.248.986c-.33.402-.559.861-.67 1.345a3.06 3.06 0 0 0 .022 1.467c.165.793.667 1.504 1.406 1.991a4.125 4.125 0 0 0 2.589.64l19.142-.88c1.11-.076 2.143-.532 2.869-1.266.727-.733 1.089-1.688 1.007-2.653l.013-.662a3.06 3.06 0 0 0-.462-1.273 3.518 3.518 0 0 0-.998-1.014 4.096 4.096 0 0 0-1.376-.597 4.419 4.419 0 0 0-1.534-.082z" fill="#080B09"/><path d="M289.421 54.848s-9.56 15.791-26.904 20.475c-17.343 4.682-7.865 28.445-7.865 28.445s-11.893-10.27-25.565-4.49c-13.67 5.783-3.293 28.47 15.595 28.76l-5.138 25.529s-9.565-10.341-19.624-15.875c-10.062-5.531-46.202-27.011-30.236-55.297 0 0-12.491-39.722 21.766-60.314 34.257-20.594 63.907-12.823 63.907-12.823S283.524-1.988 302.454.31c18.928 2.297 23.295 31.928 17.026 42.645-6.268 10.718-16.484 15.273-30.059 11.893z" fill="#93523E"/><path d="M146.702 213.169c24.089-19.074 31.203-7.37 38.166-5.863 0 0 23.209 7.164 18.117 24.464-5.383 18.309-63.224 137.288-63.224 137.288l-71.628-18.394 5.271-13.197 13.636-34.176 14.566-36.543 1.504-4.381 17.689-48.279s13.349 9.309 25.903-.919z" fill="#F40638"/><path d="M194.409 246.178c15.176-15.388 13.107-38.543-4.619-51.715-17.727-13.175-44.4-11.379-59.574 4.009-15.176 15.388-13.109 38.543 4.619 51.716 17.726 13.174 44.398 11.378 59.574-4.01zM132.67 339.834l132.981 113.121c.774.712 1.217 1.648 1.243 2.626.026.981-.366 1.933-1.102 2.677l-23.022 22.995c-1.116 1.09-2.659 1.781-4.331 1.939-1.67.158-3.349-.23-4.708-1.086l-152.62-96.2 51.559-46.072z" fill="#F40638"/><path d="M103.888 392.823c20.678 0 37.44-14.551 37.44-32.499 0-17.95-16.762-32.501-37.44-32.501-20.676 0-37.438 14.551-37.438 32.501 0 17.948 16.762 32.499 37.438 32.499z" fill="#F40638"/><path d="m320.238 318.044-72.171 173.57H102.958c0-5.3 2.425-10.382 6.742-14.13 4.318-3.748 10.172-5.853 16.277-5.853h104.982l62.32-153.587h26.959z" fill="#fff"/><path d="M320.238 318.044h194.693l-75.296 173.572H248.067l72.171-173.572z" fill="url(#a)"/><defs><linearGradient id="a" x1="374.856" y1="317.631" x2="400.982" y2="688.123" gradientUnits="userSpaceOnUse"><stop stop-color="#fff"/><stop offset="1" stop-color="#94B9FF"/></linearGradient></defs></svg>