<svg width="771" height="554" viewBox="0 0 771 554" fill="none" xmlns="http://www.w3.org/2000/svg">
<path d="M625.288 0H547.375C542.125 0 537.868 4.33943 537.868 9.69339V95.698C537.868 101.052 542.125 105.391 547.375 105.391H625.288C630.538 105.391 634.795 101.052 634.795 95.698V9.69339C634.795 4.33943 630.538 0 625.288 0Z" fill="#F40638"/>
<path d="M549.676 79.218H574.652" stroke="white" stroke-width="3" stroke-miterlimit="10" stroke-linecap="round"/>
<path opacity="0.4" d="M549.676 91.1033H601.292" stroke="white" stroke-width="3" stroke-miterlimit="10" stroke-linecap="round"/>
<path d="M550.228 29.8796H563.145C564.094 29.8796 565.026 30.1329 565.849 30.6144C566.673 31.096 567.358 31.7895 567.837 32.6248L580.341 54.4302C580.833 55.2866 581.541 55.9933 582.393 56.4765C583.243 56.9588 584.206 57.1996 585.18 57.1723C586.153 57.1458 587.102 56.8528 587.926 56.3245C588.75 55.7962 589.421 55.0521 589.867 54.1692L597.597 38.8608C598.049 37.964 598.733 37.2112 599.572 36.6814C600.412 36.1523 601.383 35.8663 602.369 35.8554L625.059 35.6076" stroke="white" stroke-width="2" stroke-miterlimit="10" stroke-linecap="round"/>
<path opacity="0.4" d="M550.228 53.3345H556.58C558.015 53.3345 559.392 52.7563 560.41 51.7247L589.775 21.99C590.794 20.9583 592.17 20.3801 593.605 20.3801H602.201C603.431 20.3801 604.623 20.804 605.586 21.5832C606.549 22.3617 607.222 23.4502 607.497 24.6697L612.013 44.4998C612.289 45.7193 612.961 46.8071 613.924 47.5863C614.887 48.3655 616.079 48.7894 617.302 48.7894H625.059" stroke="white" stroke-width="2" stroke-miterlimit="10" stroke-linecap="round"/>
<path d="M736.324 524.709C736.324 524.709 733.473 553.999 683.974 553.999H625.938L702.927 492.968L736.324 524.709Z" fill="#F28EA6"/>
<path d="M621.161 185.257L757.446 216.046C758.662 216.311 759.816 216.8 760.855 217.488C764.623 220.025 771.355 227.44 770.064 247.718C768.337 274.746 736.323 524.709 736.323 524.709L605.472 409.204L621.161 185.257Z" fill="#F28EA6"/>
<path d="M606.595 184.462L743.873 215.477C743.873 215.477 755.619 219.838 755.497 246.923C755.375 274.009 721.756 523.914 721.756 523.914L590.902 408.408L606.595 184.462Z" fill="#9D0D30"/>
<path d="M608.827 198.741C608.827 198.741 611.242 234.418 612.304 240.072C614.169 249.976 656.844 229.17 653.71 220.352C652.09 215.776 644.7 172.181 644.7 172.181L608.827 198.741Z" fill="#E2AA93"/>
<path d="M612.556 238.701L608.903 202.175H630.531L612.556 238.701Z" fill="#BB8473" stroke="#BB8473"/>
<path d="M663.072 164.535C664.723 146.572 644.738 150.445 641.322 151.256C637.906 152.066 632.557 125.447 632.557 125.447C632.557 125.447 593.129 118.288 584.682 125.43C584.682 125.43 579.382 158.981 578.528 180.468C577.674 201.954 583.584 211.577 591.31 212.312C601.835 214.235 614.284 212.069 622.24 207.289C636.408 198.771 642.461 183.366 642.461 183.366C642.713 183.248 642.851 183.186 642.851 183.186C642.851 183.186 661.521 181.5 663.072 164.535Z" fill="#E2AA93"/>
<path d="M583.561 179.788C586.959 177.593 595.55 177.785 599.039 178.48C605.686 179.808 607.727 180.689 608.476 182.263C609.225 183.836 609.37 185.577 606.596 184.463C603.814 183.35 598.004 181.316 592.831 181.459C590.428 181.711 588.047 182.154 585.711 182.784C583.015 183.608 580.497 181.767 583.561 179.788Z" fill="#493212"/>
<path d="M581.157 157.863C581.157 157.863 583.399 137.763 583.683 132.198C584.094 124.192 589.832 126.768 593.941 132.383C599.855 140.721 611.135 140.193 620.619 137.577C628.941 135.509 629.064 135.996 629.82 144.957C630.584 153.919 633.42 170.561 636.087 166.578C639.404 161.365 641.666 156.484 647.497 153.311C655.422 149 663.553 156.954 661.643 163.096C659.732 169.241 655.261 176.313 645.281 182.121L650.164 205.193C674.902 170.206 684.218 122.156 650.668 111.03C638.135 106.873 625.12 79.9352 600.864 86.0637C583.683 90.4054 583.683 104.449 582.462 116.661C559.376 117.679 581.157 157.863 581.157 157.863Z" fill="#493212"/>
<path d="M610.822 164.482C611.295 161.935 610.348 159.615 608.712 159.298C607.077 158.983 605.365 160.791 604.899 163.339C604.425 165.885 605.365 168.206 607 168.521C608.636 168.837 610.348 167.028 610.822 164.482Z" fill="#080B09"/>
<path d="M588.3 159.983C588.773 157.437 587.829 155.116 586.193 154.801C584.556 154.485 582.846 156.294 582.374 158.84C581.901 161.388 582.845 163.708 584.481 164.024C586.118 164.339 587.827 162.531 588.3 159.983Z" fill="#080B09"/>
<path d="M592.909 166.579C592.909 166.579 595.839 171.957 591.825 172.155C587.987 172.21 585.815 174.57 589.777 177.785" stroke="#93523E" stroke-width="1.51544" stroke-linecap="round"/>
<path d="M590.569 182.269C592.952 182.375 597.72 182.588 600.895 182.783C601.086 182.793 601.27 182.855 601.422 182.964C601.583 183.074 601.705 183.225 601.789 183.402C601.866 183.578 601.896 183.775 601.873 183.968C601.858 184.161 601.782 184.344 601.667 184.498C598.913 187.77 592.519 193.723 589.623 183.628C589.551 183.474 589.521 183.304 589.536 183.135C589.549 182.966 589.608 182.804 589.704 182.665C589.801 182.527 589.932 182.417 590.084 182.347C590.236 182.278 590.403 182.251 590.569 182.269Z" fill="white"/>
<path d="M618.387 155.917L618.181 156.382C617.929 157.087 617.416 157.663 616.759 157.984C616.094 158.306 615.33 158.347 614.642 158.099L602.842 153.511C602.262 153.313 601.773 152.9 601.482 152.355C601.184 151.808 601.1 151.169 601.245 150.563C601.314 150.188 601.467 149.832 601.681 149.52C601.902 149.207 602.178 148.946 602.499 148.751C602.827 148.557 603.186 148.434 603.553 148.392C603.928 148.35 604.31 148.389 604.661 148.507L616.667 152.63C616.996 152.725 617.302 152.887 617.569 153.105C617.837 153.324 618.051 153.594 618.211 153.901C618.372 154.208 618.471 154.544 618.502 154.891C618.532 155.237 618.494 155.586 618.387 155.917Z" fill="#080B09"/>
<path d="M578.734 145.975L591.347 144.744C591.721 144.712 592.097 144.762 592.45 144.889C592.804 145.016 593.127 145.219 593.398 145.483C593.669 145.747 593.882 146.067 594.023 146.421C594.164 146.776 594.23 147.157 594.215 147.539C594.221 148.162 593.997 148.765 593.588 149.229C593.178 149.692 592.613 149.981 592.004 150.039L579.492 151.771C578.763 151.853 578.03 151.636 577.456 151.169C576.883 150.702 576.513 150.023 576.428 149.279L576.327 148.778C576.299 148.431 576.338 148.082 576.445 147.752C576.552 147.422 576.723 147.116 576.947 146.855C577.171 146.594 577.446 146.381 577.753 146.23C578.06 146.079 578.393 145.991 578.734 145.975Z" fill="#080B09"/>
<path d="M34.5544 524.709C34.5544 524.709 37.4043 553.999 86.908 553.999H144.94L67.9536 492.968L34.5544 524.709Z" fill="#F28EA6"/>
<path d="M149.72 185.257L13.4337 216.046C12.2209 216.311 11.0654 216.8 10.0253 217.488C6.25532 220.025 -0.478317 227.44 0.815524 247.718C2.53963 274.746 34.5547 524.709 34.5547 524.709L165.41 409.204L149.72 185.257Z" fill="#F28EA6"/>
<path d="M164.286 184.462L27.0024 215.477C27.0024 215.477 15.2593 219.838 15.3816 246.923C15.5046 274.009 49.1208 523.914 49.1208 523.914L179.976 408.408L164.286 184.462Z" fill="#9D0D30"/>
<path d="M223.703 313.406L237.024 332.414C238.926 335.128 241.371 337.399 244.197 339.078C247.023 340.758 250.166 341.808 253.42 342.158L340.612 351.539L341.937 373.805L235.541 380.391C229.548 380.762 223.555 379.627 218.092 377.086C212.628 374.546 207.859 370.676 204.203 365.818L175.688 327.914L223.703 313.406Z" fill="#FFCCB3"/>
<path d="M232.034 325.295C232.034 325.295 204.623 332.675 196.609 355.725L182.951 335.141L229.088 321.092L232.034 325.295Z" fill="#FF967C"/>
<path d="M165.143 241.707C165.143 241.707 191.815 249.633 199.24 258.786C205.018 265.908 214.842 295.498 222.54 309.749C224.401 313.193 227.04 313.505 225.079 316.889C216.967 330.891 210.015 351.301 196.61 355.725C151.742 348.814 165.143 241.707 165.143 241.707Z" fill="#5661AE"/>
<path d="M193.968 282.254C193.968 282.254 211.768 315.168 214.471 332.856C214.471 332.856 208.133 349.255 203.659 352.591C196.679 357.795 192.847 354.871 192.847 354.871L193.968 282.254Z" fill="#465393"/>
<path d="M100.936 175.222C125.538 175.222 145.48 154.887 145.48 129.805C145.48 104.721 125.538 84.3867 100.936 84.3867C76.3349 84.3867 56.3923 104.721 56.3923 129.805C56.3923 154.887 76.3349 175.222 100.936 175.222Z" fill="#080B09"/>
<path d="M138.678 105.591C138.678 105.591 81.1894 95.2414 74.4451 166.319C74.4451 166.319 80.2043 172.633 88.4939 173.324C88.4939 173.324 95.226 104.357 142.044 109.686L138.678 105.591Z" fill="#FEBB94"/>
<path d="M126.489 108.3C126.489 108.3 119.877 104.801 124.859 100.767C128.006 98.0921 130.512 94.7197 132.185 90.907C133.761 91.7976 134.946 93.2641 135.501 95.0111C136.057 96.7581 135.941 98.6547 135.178 100.318C132.625 106.743 131.027 107.104 131.027 107.104L126.489 108.3Z" fill="#FEBB94"/>
<path d="M126.154 104.433C126.154 104.433 124.334 111.797 119.339 107.78C116.062 105.273 112.267 103.561 108.244 102.776C108.731 101.008 109.859 99.4951 111.399 98.5421C112.939 97.5899 114.776 97.2689 116.539 97.6437C123.259 98.7011 123.97 100.204 123.97 100.204L126.154 104.433Z" fill="#FEBB94"/>
<path d="M138.897 209.636L145.935 236.334C145.935 236.334 199.662 298.488 155.07 321.091C147.232 325.064 109.772 294.532 102.739 287.763C95.705 280.994 98.6213 241.007 98.6213 241.007L114.772 183.892L138.897 209.636Z" fill="#FFCCB3"/>
<path d="M123.065 294.345C123.065 294.345 149.311 311.167 175.689 295.558C175.689 295.558 171.624 318.731 155.635 326.19C139.645 333.648 123.065 294.345 123.065 294.345Z" fill="#1C85E8"/>
<path d="M140.282 214.353L126.171 204.942L147.065 240.77L140.282 214.353Z" fill="#FF967C"/>
<path d="M176 143.938C176 143.938 183.464 183.98 170.125 207.323C161.426 222.547 149.476 222.976 126.171 204.942C104.802 188.406 100.447 178.521 100.447 178.521L105.67 136.893C105.67 136.893 167.446 107.826 176 143.938Z" fill="#FFCCB3"/>
<path d="M145.935 236.336C145.935 236.336 172.354 242.988 176.614 246.05C180.873 249.112 186.341 275.917 194.011 288.329C201.682 300.741 212.16 320.353 198.699 343.035C185.239 365.717 186.452 387.422 186.452 387.422L196.64 444.359H83.1751C78.4323 444.8 75.9096 432.547 76.051 427.694C76.5156 411.685 78.0036 406.913 77.0009 381.53C75.6429 347.129 63.0422 249.537 63.0422 249.537L100.448 235.375C99.2981 289.067 129.892 277.348 155.635 326.19C176.707 284.921 145.935 236.336 145.935 236.336Z" fill="#5661AE"/>
<path d="M87.667 277.348C87.667 277.348 93.2191 289.147 88.8348 301.2C83.9047 314.751 78.4795 347.772 102.509 349.853C131.963 352.403 119.598 357.847 106.264 362.02C92.9287 366.192 98.4694 365.853 99.3208 380.148C99.9268 390.322 73.1016 410.978 75.5723 403.093C88.8294 360.788 43.7773 308.514 87.667 277.348Z" fill="#465393"/>
<path d="M151.568 195.829L165.704 198.231C165.652 198.353 165.587 198.496 165.508 198.658C165.253 199.181 164.86 199.876 164.311 200.564C163.215 201.939 161.522 203.26 159.06 203.198C155.205 202.748 153.348 200.782 152.437 198.953C151.976 198.027 151.753 197.127 151.646 196.457C151.606 196.212 151.582 196 151.568 195.829Z" fill="#E56441" stroke="#E56441"/>
<path d="M173.126 178.021C174.71 177.942 175.901 175.949 175.787 173.569C175.672 171.19 174.296 169.325 172.712 169.404C171.129 169.483 169.938 171.476 170.052 173.856C170.167 176.236 171.543 178.1 173.126 178.021Z" fill="#080B09"/>
<path d="M149.746 179.53C151.329 179.452 152.52 177.458 152.406 175.079C152.291 172.699 150.915 170.834 149.331 170.914C147.748 170.993 146.557 172.986 146.671 175.365C146.785 177.744 148.161 179.61 149.746 179.53Z" fill="#080B09"/>
<path d="M178.099 163.483L166.208 164.277C166.005 164.273 165.81 164.194 165.659 164.055C165.509 163.916 165.412 163.726 165.389 163.52C165.414 163.148 165.513 162.786 165.68 162.455C165.847 162.124 166.078 161.831 166.358 161.593C166.64 161.355 166.965 161.179 167.315 161.073C167.665 160.967 168.033 160.934 168.395 160.977L178.227 162.081C179.007 162.042 179.074 163.434 178.099 163.483Z" fill="#080B09"/>
<path d="M137.758 164.736L153.608 164.942C153.569 164.451 153.43 163.974 153.2 163.541C152.97 163.109 152.652 162.73 152.27 162.429C151.887 162.129 151.446 161.914 150.977 161.798C150.507 161.682 150.02 161.667 149.544 161.755L137.515 163.751C137.125 163.771 137.173 164.766 137.758 164.736Z" fill="#080B09"/>
<path d="M163.146 172.996L168.232 184.478L164.687 187.782" stroke="#E56441" stroke-width="1.66686" stroke-linecap="round"/>
<path d="M161.41 150.151C153.106 150.21 149.217 148.246 140.506 152.425C137.757 153.743 135.157 155.063 133.58 158.295C131.891 164.795 132.974 173.824 121.738 173.574C121.738 173.574 125.372 161.239 117.651 159.662C104.54 156.986 106.648 178.616 114.771 183.893C120.291 187.479 110.807 213.347 103.753 222.855C79.6231 165.361 87.9975 159.57 94.2711 144.562C104.931 119.058 114.272 111.294 139.507 107.076C139.507 107.076 172.942 107.997 181.807 137.989C189.384 163.629 178.012 173.459 178.012 173.459C178.012 173.459 178.365 154.38 176.514 152.425C174.079 149.853 172.104 150.076 161.41 150.151Z" fill="#080B09"/>
<path d="M567.116 460.497L472.5 477.635L491.123 554H551.73C551.73 554 580.539 490.861 567.116 460.497Z" fill="#FFCCB3"/>
<path d="M506.708 467.187C506.708 467.187 521.29 471.765 527.309 496.013C533.329 520.263 526.761 554 526.761 554H536.137C536.137 554 569.57 513.968 544.973 462.949L506.708 467.187Z" fill="#FF967C"/>
<path d="M704.5 436.432C704.5 436.432 711.791 491.945 700.908 518.406C691.646 540.911 677.34 553.669 659.969 553.999H526.76C526.76 553.999 526.55 481.454 470.366 469.06C470.366 469.06 655.276 416.55 704.5 436.432Z" fill="#1F2D49"/>
<path d="M707.06 453.267L586.196 457.324L587.481 448.716L611.035 445.94H706.892L707.06 453.267Z" fill="#0D1B33"/>
<path d="M613.26 235.817C612.221 240.311 611.953 224.412 609.852 225.075C600.23 228.115 572.852 236.826 567.029 239.31C559.935 242.336 559.462 254.438 558.989 263.011C558.657 269.017 567.425 353.332 567.863 410.454C567.956 422.657 555.843 436.942 554.41 443.725C554.012 445.551 553.798 447.415 553.773 449.286C553.766 450.59 554.267 451.845 555.166 452.773C556.064 453.702 557.288 454.228 558.568 454.239L702.897 455.614C702.897 455.614 709.293 456.562 707.749 449.117C706.221 440.973 705.388 432.71 705.243 424.42C703.806 365.091 703.531 265.731 702.904 261.027C701.957 253.967 709.393 247.888 701.338 244.334L656.638 226.125C656.638 226.125 648.445 232.219 647.261 232.837C624.808 244.544 613.26 235.817 613.26 235.817Z" fill="#FEBB94"/>
<path d="M622.559 241.873C622.559 241.873 617.454 260.985 619.816 279.446C622.169 297.907 612.869 323.165 610.943 343.435C609.017 363.705 618.448 390.259 616.973 407.274C615.505 424.288 620.855 455.654 620.855 455.654" stroke="#FF967C" stroke-width="3" stroke-miterlimit="10"/>
<path d="M218.002 446.347L312.619 463.485L293.995 539.851H233.388C233.388 539.851 204.579 476.712 218.002 446.347Z" fill="#FFCCB3"/>
<path d="M278.41 453.036C278.41 453.036 263.829 457.615 257.81 481.864C251.79 506.112 258.358 539.85 258.358 539.85H248.982C248.982 539.85 215.549 499.818 240.147 448.799L278.41 453.036Z" fill="#FF967C"/>
<path d="M77.8141 425.873C77.8141 425.873 61.0469 457.962 63.0415 500.276C64.9368 540.464 86.5003 553.999 120.59 553.999L258.359 539.85C258.359 539.85 258.569 467.304 314.753 454.911C314.753 454.911 252.198 408.484 188.924 420.148C157.868 425.873 138.356 432.839 77.8141 425.873Z" fill="#1F2D49"/>
<path d="M75.4579 415.147C75.4579 415.147 164.685 424.652 197.572 399.597L196.101 420.514C196.101 420.514 140.495 452.014 76.7701 434.288C76.7701 434.288 67.2157 427.446 75.4579 415.147Z" fill="#1C85E8"/>
<path d="M347.753 383.033C347.753 383.033 374.26 377.374 385.236 379.966C396.423 382.323 419.967 388.329 415.75 405.928C412.833 418.494 399.967 413.516 399.967 413.516C399.967 413.516 403.316 418.534 398.338 420.824C395.302 422.109 375.718 411.158 375.718 411.158C362.648 415.445 345.594 406.395 345.594 406.395L347.753 383.033Z" fill="#FFCCB3"/>
<path d="M385.467 406.816L399.748 413.527" stroke="#FF967C" stroke-width="2.89316" stroke-linecap="round" stroke-linejoin="round"/>
<path d="M388.66 395.365C392.238 396.083 408.342 403.828 408.342 403.828" stroke="#FF967C" stroke-width="2.89316" stroke-linecap="round" stroke-linejoin="round"/>
<path d="M390.664 386.685C397.836 388.513 404.698 391.43 411.019 395.338" stroke="#FF967C" stroke-width="2.89316" stroke-linecap="round" stroke-linejoin="round"/>
<path d="M229.907 295.558H517.586L663.17 539.851H110.962L229.907 295.558Z" fill="url(#paint0_linear_28_293)"/>
<path d="M464.1 399.719L473.745 459.255L527.31 496.012L616.981 486.133L594.953 459.255L464.1 399.719Z" fill="#9D0D30"/>
<path d="M412.559 340.614L452.71 416.1L512.501 473.934L464.1 399.72L412.559 340.614Z" fill="white"/>
<path d="M412.56 340.614L452.712 416.099L448.839 419.136L409.288 342.653L412.56 340.614Z" fill="#E51A4B"/>
<path d="M452.711 416.099L512.502 473.934V477.638L448.839 419.136L452.711 416.099Z" fill="#E51A4B"/>
<path d="M512.501 477.638L594.953 462.271V459.256L512.501 473.934V477.638Z" fill="#E51A4B"/>
<path d="M594.953 459.256L541.239 389.159L464.1 399.72L512.501 473.934L594.953 459.256Z" fill="#E7EFFF"/>
<path d="M103.399 282.413L90.9479 355.412C90.6338 357.237 89.6456 358.87 88.1874 359.976C86.7285 361.082 84.9104 361.576 83.1061 361.357C83.1061 361.357 48.0173 359.004 36.3368 358.012C33.5856 357.779 26.1083 350.864 28.3941 339.475C30.4897 323.917 40.3046 287.59 46.511 267.417C49.4013 257.38 80.309 263.389 80.309 263.389L103.399 282.413Z" fill="#5661AE"/>
<path d="M74.2736 307.396C90.5448 307.396 103.735 293.948 103.735 277.357C103.735 260.768 90.5448 247.319 74.2736 247.319C58.0031 247.319 44.8125 260.768 44.8125 277.357C44.8125 293.948 58.0031 307.396 74.2736 307.396Z" fill="#5661AE"/>
<path d="M37.1427 362.068L37.6242 356.248L81.3075 361.32L80.6312 366.273L76.9147 397.505L34.4412 392.834L37.1427 362.068Z" fill="#FFCCB3"/>
<path d="M37.8353 356.198L81.3062 361.321L80.6298 366.273C70.7522 365.16 48.6063 363.265 37.1414 362.068L37.8353 356.198Z" fill="#FF967C"/>
<path d="M55.5105 415.788C67.3217 415.788 76.8967 406.025 76.8967 393.982C76.8967 381.939 67.3217 372.176 55.5105 372.176C43.6986 372.176 34.1235 381.939 34.1235 393.982C34.1235 406.025 43.6986 415.788 55.5105 415.788Z" fill="#FFCCB3"/>
<path d="M66.0684 412.755L186.766 354.984C186.766 354.984 194.006 328.74 186.133 333.097C178.062 337.551 49.4785 372.99 49.4785 372.99L66.0684 412.755Z" fill="#FFCCB3"/>
<path d="M255.807 357.881L204.492 367.022C201.186 367.611 198.989 365.27 199.584 361.794L215.363 269.568C215.958 266.092 219.12 262.796 222.426 262.207L273.741 253.066C277.047 252.477 279.244 254.817 278.65 258.294L262.87 350.52C262.275 353.996 259.114 357.292 255.807 357.881Z" fill="#1C85E8"/>
<path d="M258.109 357.471L206.794 366.613C203.488 367.202 201.291 364.86 201.885 361.384L217.665 269.158C218.26 265.682 221.422 262.386 224.727 261.797L276.043 252.655C279.348 252.066 281.546 254.407 280.951 257.884L265.172 350.11C264.576 353.587 261.415 356.882 258.109 357.471Z" fill="#B2CDFF"/>
<path d="M178.849 335.665L184.807 355.468C184.807 355.468 209.49 349.433 214.77 346.79C225.066 341.392 236.139 334.112 237.435 331.345C241.408 324.344 241.876 315.682 241.421 309.633C241.364 308.733 241.089 307.863 240.624 307.097C240.158 306.331 239.515 305.695 238.751 305.242C237.987 304.789 237.125 304.535 236.242 304.502C235.359 304.469 234.482 304.657 233.687 305.052L212.081 316.046C212.081 316.046 209.268 311.2 212.098 307.35C213.922 304.808 211.109 299.963 209.858 298.477C209.365 297.791 206.735 297.771 206.139 298.465C205.133 299.775 206.516 304.324 204.394 307.212C200.781 311.835 203.988 313.843 194.685 321.724C187.326 327.905 178.772 335.475 178.849 335.665Z" fill="#FFCCB3"/>
<path d="M220.635 319.396C226.782 317.284 239.319 309.84 239.319 309.84" stroke="#FF967C" stroke-width="2.09903" stroke-linecap="round" stroke-linejoin="round"/>
<path d="M219.828 327.753C224.775 325.917 237.84 318.699 237.84 318.699" stroke="#FF967C" stroke-width="2.09903" stroke-linecap="round" stroke-linejoin="round"/>
<path d="M222.807 335.203C226.069 334.069 235.768 329.365 235.768 329.365" stroke="#FF967C" stroke-width="2.09903" stroke-linecap="round" stroke-linejoin="round"/>
<path d="M36.4149 353.871C35.3572 358.208 35.4581 362.753 36.7068 367.035C36.7068 367.035 57.7217 377.414 79.9264 372.201C81.4227 370.896 82.5186 369.18 83.0826 367.256C83.6466 365.333 83.6558 363.284 83.1078 361.356L36.4149 353.871Z" fill="#5661AE"/>
<path d="M662.422 276.249C662.422 276.249 655.949 312.369 659.968 347.691C662.483 369.793 676.308 392.482 676.132 403.032C675.849 420.112 656.698 427.347 656.644 437.237C656.606 443.088 672.112 439.447 678.967 437.173C694.366 432.06 704.485 439.007 704.485 439.007L700.381 289.154L662.422 276.249Z" fill="#FF967C"/>
<path d="M703.569 267.465C689.362 249.335 682.988 258.018 677.998 258.461C677.998 258.461 661.093 261.672 662.423 276.248C663.829 291.671 688.697 394.451 688.697 394.451L740.901 390.451L738.425 376.278L733.328 347.087L727.894 315.876L727.413 312.161L721.306 271.1C721.306 271.1 710.928 277.148 703.569 267.465Z" fill="#FEBB94"/>
<path d="M707.075 298.761C720.954 290.073 725.302 271.558 716.781 257.406C708.26 243.255 690.102 238.826 676.223 247.514C662.337 256.202 657.997 274.717 666.518 288.868C675.039 303.02 693.197 307.449 707.075 298.761Z" fill="#FEBB94"/>
<path d="M582.13 398.718L549.216 401.214L541.437 419.925L544.095 443.021C544.095 443.021 549.759 440.668 550.345 432.498C550.931 424.328 577.133 430.124 583.983 421.15" fill="#E2AA93"/>
<path d="M707.68 368.454L579.982 392.996C579.214 393.176 578.539 393.639 578.087 394.296C577.634 394.954 577.436 395.758 577.531 396.555L580.622 421.331C580.784 422.515 581.37 423.597 582.27 424.364C583.169 425.133 584.316 425.532 585.487 425.486L717.027 420.239L707.68 368.454Z" fill="#FEBB94"/>
<path d="M715.231 420.439C729.659 420.439 741.36 408.511 741.36 393.797C741.36 379.082 729.659 367.155 715.231 367.155C700.802 367.155 689.102 379.082 689.102 393.797C689.102 408.511 700.802 420.439 715.231 420.439Z" fill="#FEBB94"/>
<path d="M583.095 272.659C587.358 251.197 577.332 251.75 573.995 248.337C573.995 248.337 561.476 237.813 551.938 247.624C541.841 258.002 483.963 338.621 483.963 338.621L520.177 372.581L526.984 364.299L544.616 342.857L563.477 319.94L565.82 317.33L591.261 287.949C591.261 287.949 580.683 283.958 583.095 272.659Z" fill="#FEBB94"/>
<path d="M598.241 276.314C603.125 261.454 595.265 245.372 580.691 240.395C566.116 235.417 550.343 243.429 545.461 258.289C540.58 273.15 548.438 289.232 563.012 294.209C577.587 299.187 593.36 291.175 598.241 276.314Z" fill="#FEBB94"/>
<path d="M563.478 319.939C562.395 308.01 558.515 290.142 558.515 290.142C558.515 290.142 555.164 289.826 544.826 313.38C537.17 331.031 528.288 349.023 526.818 364.241L544.451 342.799L563.478 319.939Z" fill="#FF967C"/>
<path d="M492.763 234.118C490.877 215.969 495.721 215.089 495.788 205.249C495.821 195.633 510.062 177.831 503.27 178.191C496.478 178.55 491.708 185.168 491.708 185.168C490.702 176.542 492.403 162.187 483.746 156.771C475.088 151.354 473.049 153.976 465.999 156.13C447.179 162.023 457.685 187.416 457.877 195.462C458.048 200.527 466.784 219.471 467.18 222.966L469.962 236.439L492.763 234.118Z" fill="#E2AA93"/>
<path d="M482.035 182.122L479.461 156.07L482.035 182.122Z" fill="#93523E"/>
<path d="M482.035 182.122L479.461 156.07" stroke="#93523E" stroke-width="1.51544" stroke-linecap="round"/>
<path d="M473.232 182.41L469.044 157.385L473.232 182.41Z" fill="#93523E"/>
<path d="M473.232 182.41L469.044 157.385" stroke="#93523E" stroke-width="1.51544" stroke-linecap="round"/>
<path d="M462.888 182.469L460.771 167.492L462.888 182.469Z" fill="#93523E"/>
<path d="M462.888 182.469L460.771 167.492" stroke="#93523E" stroke-width="1.51544" stroke-linecap="round"/>
<path d="M477.156 202.008C480.232 194.679 488.21 187.625 488.21 187.625L477.156 202.008Z" fill="#93523E"/>
<path d="M477.156 202.008C480.232 194.679 488.21 187.625 488.21 187.625" stroke="#93523E" stroke-width="1.51544" stroke-linecap="round"/>
<path d="M525.736 345.856L497.538 236.433C497.328 235.706 496.86 235.085 496.226 234.689C495.594 234.293 494.839 234.149 494.108 234.287L471.399 238.699C470.314 238.923 469.349 239.55 468.692 240.458C468.036 241.366 467.733 242.491 467.844 243.614L478.439 357.85L525.736 345.856Z" fill="#FEBB94"/>
<path d="M469.707 243.44C469.707 243.44 466.911 232.516 469.707 231.316C472.504 230.116 490.025 226.703 492.377 228.934C494.728 231.166 496.781 240.47 496.781 240.47L469.707 243.44Z" fill="#FEBB94"/>
<path d="M502.763 379.73C516.382 379.73 527.423 368.472 527.423 354.586C527.423 340.7 516.382 329.442 502.763 329.442C489.143 329.442 478.102 340.7 478.102 354.586C478.102 368.472 489.143 379.73 502.763 379.73Z" fill="#FEBB94"/>
<path d="M100.935 232.821C100.935 232.821 118.908 268.314 137.263 274.151C137.263 274.151 147.578 268.566 145.934 236.334" stroke="white" stroke-miterlimit="10"/>
<path d="M136.618 283.3C140.075 283.3 142.878 280.442 142.878 276.918C142.878 273.393 140.075 270.535 136.618 270.535C133.16 270.535 130.358 273.393 130.358 276.918C130.358 280.442 133.16 283.3 136.618 283.3Z" fill="#5661AE"/>
<path d="M128.195 271.23C129.391 271.23 130.359 270.242 130.359 269.024C130.359 267.806 129.391 266.818 128.195 266.818C127.001 266.818 126.033 267.806 126.033 269.024C126.033 270.242 127.001 271.23 128.195 271.23Z" fill="#5661AE"/>
<path d="M142.878 269.865C144.073 269.865 145.042 268.877 145.042 267.659C145.042 266.441 144.073 265.453 142.878 265.453C141.683 265.453 140.715 266.441 140.715 267.659C140.715 268.877 141.683 269.865 142.878 269.865Z" fill="#5661AE"/>
<path d="M316.719 379.287L246.174 379.693V448.798L351.17 442.559L316.719 379.287Z" fill="white"/>
<path d="M310.039 386.021L321.704 410.454" stroke="#E51A4B" stroke-miterlimit="10" stroke-linecap="round"/>
<path opacity="0.4" d="M298.671 386.022L303.042 395.178" stroke="#E51A4B" stroke-miterlimit="10" stroke-linecap="round"/>
<path opacity="0.4" d="M250.932 386.023L285.823 385.196L288.386 393.898L251.629 395.179L250.932 386.023Z" fill="#E51A4B"/>
<path opacity="0.4" d="M251.91 400.181L272.394 399.617L274.958 408.319L252.607 409.337L251.91 400.181Z" fill="#E51A4B"/>
<path opacity="0.4" d="M251.91 415.595L286.8 414.77L289.365 423.471L252.607 424.751L251.91 415.595Z" fill="#E51A4B"/>
<path opacity="0.4" d="M252.89 429.755L273.374 429.191L275.938 437.893L253.588 438.911L252.89 429.755Z" fill="#E51A4B"/>
<path d="M192.847 496.013L270.638 446.347L325.791 462.34L259.319 521.911L192.847 496.013Z" fill="#E51A4B"/>
<path d="M622.383 239.028C622.383 239.028 648.443 230.12 653.342 218.345C653.342 218.345 665.241 220.09 669.911 224.651C674.557 229.212 685.898 230.569 676.07 235.64C666.242 240.711 627.916 245.007 625.585 244.344C623.254 243.681 622.383 239.028 622.383 239.028Z" fill="white"/>
<path d="M611.586 222.815V228.775C611.586 228.775 613.917 237.335 622.385 239.029C622.385 239.029 623.707 243.753 619.045 244.314C614.391 244.875 600.849 237.896 598.856 237.213C596.855 236.539 595.974 233.723 599.855 231.468C599.855 231.468 601.246 223.744 611.586 222.815Z" fill="white"/>
<path d="M635.322 306.352C635.284 306.354 635.246 306.351 635.215 306.342C635.085 306.312 634.971 306.231 634.902 306.118C634.833 306.003 634.803 305.864 634.833 305.73C636.255 299.403 632.281 291.588 628.444 284.027C625.594 278.415 622.644 272.609 621.895 267.375C620.13 255.222 624.952 241.57 625.005 241.437C625.051 241.311 625.143 241.208 625.265 241.151C625.388 241.093 625.517 241.086 625.647 241.131C625.709 241.153 625.762 241.189 625.815 241.234C625.861 241.279 625.9 241.333 625.93 241.393C625.961 241.454 625.976 241.52 625.976 241.587C625.976 241.655 625.968 241.722 625.945 241.785C625.899 241.917 621.154 255.334 622.873 267.232C623.615 272.293 626.519 278.017 629.339 283.557C633.251 291.282 637.317 299.271 635.812 305.964C635.789 306.077 635.727 306.176 635.636 306.246C635.544 306.317 635.437 306.354 635.322 306.352Z" fill="white"/>
<path d="M616.821 300.557C616.706 300.559 616.599 300.521 616.507 300.451C616.423 300.38 616.362 300.28 616.339 300.169C613.206 286.772 616.561 263.804 617.661 257.079C618.579 251.997 618.9 246.822 618.624 241.662C618.609 241.529 618.655 241.395 618.739 241.292C618.823 241.19 618.938 241.124 619.075 241.111C619.205 241.098 619.335 241.137 619.435 241.221C619.542 241.305 619.603 241.426 619.618 241.56C619.908 246.809 619.58 252.072 618.647 257.243C617.547 263.926 614.215 286.721 617.31 299.934C617.325 300.01 617.333 300.089 617.31 300.164C617.295 300.241 617.264 300.311 617.218 300.373C617.172 300.431 617.111 300.477 617.042 300.509C616.966 300.541 616.897 300.557 616.821 300.557Z" fill="white"/>
<g opacity="0.6">
<path opacity="0.6" d="M634.795 310.013C636.537 310.013 637.951 308.575 637.951 306.801C637.951 305.028 636.537 303.589 634.795 303.589C633.044 303.589 631.631 305.028 631.631 306.801C631.631 308.575 633.044 310.013 634.795 310.013Z" fill="white"/>
</g>
<g opacity="0.6">
<path opacity="0.6" d="M617.385 303.268C619.135 303.268 620.549 301.831 620.549 300.057C620.549 298.283 619.135 296.845 617.385 296.845C615.643 296.845 614.229 298.283 614.229 300.057C614.229 301.831 615.643 303.268 617.385 303.268Z" fill="white"/>
</g>
<path d="M427.62 24.5759H432.205" stroke="#5CA4E6" stroke-miterlimit="10"/>
<path d="M511.554 0.114258H247.401C239.683 0.114258 233.425 6.49444 233.425 14.3637V187.928C233.425 195.798 239.683 202.178 247.401 202.178H511.554C519.272 202.178 525.529 195.798 525.529 187.928V14.3637C525.529 6.49444 519.272 0.114258 511.554 0.114258Z" fill="url(#paint1_linear_28_293)"/>
<path d="M502.311 151.007H355.567C353.138 151.007 351.169 153.015 351.169 155.491V175.725C351.169 178.201 353.138 180.208 355.567 180.208H502.311C504.74 180.208 506.708 178.201 506.708 175.725V155.491C506.708 153.015 504.74 151.007 502.311 151.007Z" fill="white"/>
<path d="M456.862 163.604V162.441H459.446V172.573H458.181V163.604H456.862ZM461.567 164.991C461.631 164.132 461.956 163.459 462.543 162.973C463.129 162.487 463.889 162.244 464.824 162.244C465.448 162.244 465.983 162.361 466.432 162.595C466.891 162.819 467.234 163.127 467.463 163.52C467.701 163.912 467.821 164.356 467.821 164.851C467.821 165.431 467.656 165.93 467.325 166.351C467.005 166.771 466.583 167.042 466.061 167.164V167.234C466.657 167.383 467.129 167.677 467.477 168.117C467.825 168.555 467.999 169.13 467.999 169.84C467.999 170.372 467.88 170.854 467.642 171.283C467.403 171.704 467.046 172.036 466.57 172.278C466.093 172.521 465.52 172.643 464.852 172.643C463.88 172.643 463.083 172.386 462.46 171.872C461.837 171.349 461.489 170.611 461.416 169.658H462.625C462.69 170.219 462.913 170.676 463.299 171.032C463.683 171.386 464.197 171.564 464.838 171.564C465.479 171.564 465.965 171.395 466.295 171.06C466.634 170.714 466.803 170.269 466.803 169.728C466.803 169.027 466.574 168.522 466.116 168.215C465.658 167.906 464.966 167.752 464.041 167.752H463.724V166.687H464.054C464.897 166.677 465.534 166.538 465.965 166.267C466.395 165.986 466.611 165.557 466.611 164.977C466.611 164.482 466.45 164.085 466.13 163.786C465.818 163.487 465.37 163.338 464.783 163.338C464.215 163.338 463.756 163.487 463.409 163.786C463.06 164.085 462.854 164.487 462.79 164.991H461.567ZM469.537 171.55C470.7 170.597 471.612 169.817 472.272 169.21C472.932 168.593 473.486 167.953 473.935 167.29C474.393 166.617 474.622 165.958 474.622 165.314C474.622 164.707 474.476 164.23 474.182 163.884C473.899 163.529 473.435 163.352 472.794 163.352C472.171 163.352 471.685 163.553 471.338 163.954C470.998 164.347 470.815 164.874 470.787 165.538H469.578C469.614 164.492 469.926 163.684 470.512 163.113C471.099 162.544 471.855 162.258 472.78 162.258C473.724 162.258 474.471 162.525 475.02 163.057C475.58 163.59 475.859 164.323 475.859 165.258C475.859 166.033 475.63 166.79 475.172 167.527C474.723 168.257 474.21 168.901 473.633 169.461C473.056 170.013 472.317 170.658 471.419 171.395H476.148V172.461H469.537V171.55Z" fill="#1C85E8"/>
<path d="M330.608 21.5164H253.706C250.823 21.5164 248.485 23.9 248.485 26.8407V174.885C248.485 177.825 250.823 180.208 253.706 180.208H330.608C333.492 180.208 335.83 177.825 335.83 174.885V26.8407C335.83 23.9 333.492 21.5164 330.608 21.5164Z" fill="#FFD8DC"/>
<path opacity="0.4" d="M292.158 126.906C304.322 126.906 314.184 116.851 314.184 104.448C314.184 92.0444 304.322 81.9895 292.158 81.9895C279.993 81.9895 270.131 92.0444 270.131 104.448C270.131 116.851 279.993 126.906 292.158 126.906Z" fill="white"/>
<path d="M285.344 98.2649V112.518C285.344 112.913 285.445 113.302 285.637 113.646C285.829 113.989 286.105 114.275 286.438 114.476C286.771 114.678 287.15 114.788 287.538 114.795C287.926 114.801 288.308 114.706 288.648 114.516L301.427 107.389C301.779 107.193 302.073 106.904 302.277 106.553C302.481 106.201 302.588 105.8 302.588 105.392C302.588 104.983 302.481 104.582 302.277 104.231C302.073 103.879 301.779 103.59 301.427 103.394L288.648 96.267C288.308 96.0777 287.926 95.9818 287.538 95.9881C287.15 95.9951 286.771 96.105 286.438 96.306C286.105 96.5078 285.829 96.7946 285.637 97.1374C285.445 97.4811 285.344 97.8691 285.344 98.2649Z" fill="white"/>
<path d="M355.115 40.5767H410.052" stroke="white" stroke-width="7" stroke-miterlimit="10" stroke-linecap="round"/>
<path opacity="0.4" d="M355.115 66.7175H468.648" stroke="white" stroke-width="7" stroke-miterlimit="10" stroke-linecap="round"/>
<path d="M355.792 101.367H410.73" stroke="white" stroke-width="7" stroke-miterlimit="10" stroke-linecap="round"/>
<path opacity="0.4" d="M355.792 127.507H469.325" stroke="white" stroke-width="7" stroke-miterlimit="10" stroke-linecap="round"/>
<path d="M375.704 160.613C374.844 159.803 373.716 159.353 372.546 159.353C371.375 159.353 370.248 159.803 369.388 160.613L368.198 161.733L367.008 160.613C366.149 159.803 365.021 159.353 363.851 159.353C362.681 159.353 361.553 159.803 360.694 160.613C360.24 161.032 359.877 161.543 359.628 162.114C359.38 162.684 359.251 163.302 359.251 163.926C359.251 164.55 359.38 165.167 359.628 165.738C359.877 166.309 360.24 166.82 360.694 167.239L368.198 174.331L375.704 167.332C376.178 166.916 376.557 166.4 376.818 165.82C377.079 165.241 377.214 164.61 377.214 163.973C377.214 163.335 377.079 162.704 376.818 162.125C376.557 161.545 376.178 161.029 375.704 160.613Z" fill="#F4608A"/>
<path d="M384.085 164.991C384.149 164.132 384.475 163.459 385.061 162.973C385.648 162.487 386.408 162.244 387.343 162.244C387.966 162.244 388.502 162.361 388.951 162.595C389.41 162.819 389.753 163.127 389.982 163.52C390.22 163.912 390.34 164.356 390.34 164.851C390.34 165.431 390.175 165.93 389.844 166.351C389.523 166.771 389.102 167.042 388.58 167.164V167.234C389.176 167.383 389.647 167.677 389.996 168.117C390.343 168.555 390.518 169.13 390.518 169.84C390.518 170.372 390.398 170.854 390.161 171.283C389.922 171.704 389.565 172.036 389.089 172.278C388.612 172.521 388.039 172.643 387.371 172.643C386.399 172.643 385.602 172.386 384.979 171.872C384.356 171.349 384.008 170.611 383.935 169.658H385.144C385.208 170.219 385.432 170.676 385.818 171.032C386.202 171.386 386.716 171.564 387.357 171.564C387.998 171.564 388.484 171.395 388.813 171.06C389.153 170.714 389.322 170.269 389.322 169.728C389.322 169.027 389.093 168.522 388.635 168.215C388.177 167.906 387.485 167.752 386.56 167.752H386.243V166.687H386.573C387.416 166.677 388.053 166.538 388.484 166.267C388.914 165.986 389.13 165.557 389.13 164.977C389.13 164.482 388.969 164.085 388.648 163.786C388.337 163.487 387.888 163.338 387.302 163.338C386.734 163.338 386.275 163.487 385.927 163.786C385.579 164.085 385.373 164.487 385.309 164.991H384.085ZM393.704 170.807L392.165 174.577H391.327L392.33 170.807H393.704ZM401.267 163.548H396.444V166.743C396.654 166.444 396.965 166.201 397.378 166.014C397.79 165.818 398.235 165.72 398.711 165.72C399.471 165.72 400.09 165.883 400.567 166.211C401.043 166.528 401.382 166.944 401.584 167.458C401.795 167.962 401.9 168.499 401.9 169.069C401.9 169.742 401.776 170.344 401.529 170.877C401.281 171.409 400.901 171.83 400.388 172.138C399.884 172.447 399.257 172.601 398.505 172.601C397.542 172.601 396.764 172.348 396.168 171.844C395.573 171.339 395.211 170.667 395.082 169.826H396.306C396.425 170.358 396.677 170.774 397.062 171.074C397.447 171.372 397.932 171.522 398.518 171.522C399.243 171.522 399.788 171.302 400.155 170.863C400.521 170.414 400.704 169.826 400.704 169.098C400.704 168.369 400.521 167.808 400.155 167.416C399.788 167.014 399.247 166.813 398.532 166.813C398.047 166.813 397.62 166.934 397.254 167.178C396.897 167.411 396.635 167.733 396.471 168.145H395.289V162.427H401.267V163.548ZM403.411 171.55C404.574 170.597 405.486 169.817 406.146 169.21C406.806 168.593 407.36 167.953 407.809 167.29C408.267 166.617 408.496 165.958 408.496 165.314C408.496 164.707 408.349 164.23 408.056 163.884C407.772 163.529 407.309 163.352 406.668 163.352C406.045 163.352 405.559 163.553 405.211 163.954C404.872 164.347 404.689 164.874 404.661 165.538H403.452C403.489 164.492 403.8 163.684 404.387 163.113C404.973 162.544 405.729 162.258 406.654 162.258C407.598 162.258 408.345 162.525 408.895 163.057C409.454 163.59 409.733 164.323 409.733 165.258C409.733 166.033 409.504 166.79 409.046 167.527C408.597 168.257 408.083 168.901 407.506 169.461C406.929 170.013 406.192 170.658 405.294 171.395H410.022V172.461H403.411V171.55ZM417.584 163.436L413.763 172.573H412.498L416.375 163.562H411.069V162.469H417.584V163.436Z" fill="#1C85E8"/>
<path d="M451.254 165.623C451.254 161.324 446.258 157.839 440.096 157.839C433.934 157.839 428.938 161.324 428.938 165.623C428.938 169.922 433.934 173.406 440.096 173.406C440.537 173.406 440.968 173.383 441.396 173.346C441.461 173.34 441.527 173.35 441.588 173.374C441.65 173.398 441.705 173.436 441.75 173.485C442.542 174.33 444.28 175.639 447.572 175.846C447.655 175.851 447.736 175.834 447.81 175.795C447.883 175.755 447.944 175.697 447.986 175.625C448.028 175.552 448.051 175.47 448.05 175.385C448.048 175.301 448.025 175.219 447.981 175.148C447.406 174.272 446.957 173.317 446.647 172.311C446.622 172.211 446.631 172.105 446.673 172.011C446.715 171.917 446.788 171.841 446.879 171.795C449.536 170.373 451.254 168.139 451.254 165.623Z" fill="#1C85E8"/>
<path d="M209.433 0H112.541C105.154 0 99.1658 6.10512 99.1658 13.637V149.884C99.1658 157.415 105.154 163.521 112.541 163.521H209.433C216.82 163.521 222.808 157.415 222.808 149.884V13.637C222.808 6.10512 216.82 0 209.433 0Z" fill="#F40638"/>
<path d="M155.899 99.8127L152.272 109H151.071L154.75 99.9395H149.714V98.8401H155.899V99.8127ZM158.938 103.702C158.45 103.495 158.076 103.195 157.815 102.8C157.554 102.405 157.424 101.926 157.424 101.363C157.424 100.855 157.542 100.4 157.777 99.9961C158.011 99.5826 158.359 99.2582 158.82 99.0235C159.29 98.7793 159.855 98.6572 160.516 98.6572C161.177 98.6572 161.739 98.7793 162.2 99.0235C162.669 99.2582 163.021 99.5826 163.256 99.9961C163.5 100.4 163.622 100.855 163.622 101.363C163.622 101.908 163.487 102.387 163.217 102.8C162.948 103.204 162.578 103.505 162.108 103.702C162.647 103.88 163.074 104.195 163.387 104.646C163.708 105.087 163.87 105.623 163.87 106.252C163.87 106.863 163.73 107.399 163.452 107.859C163.174 108.31 162.778 108.662 162.265 108.916C161.76 109.16 161.177 109.282 160.516 109.282C159.855 109.282 159.272 109.16 158.768 108.916C158.272 108.662 157.885 108.31 157.607 107.859C157.328 107.399 157.189 106.863 157.189 106.252C157.189 105.623 157.346 105.083 157.659 104.632C157.972 104.181 158.398 103.871 158.938 103.702ZM162.474 101.518C162.474 100.944 162.299 100.503 161.952 100.193C161.604 99.8828 161.125 99.7283 160.516 99.7283C159.916 99.7283 159.442 99.8828 159.094 100.193C158.746 100.503 158.572 100.949 158.572 101.532C158.572 102.058 158.751 102.48 159.107 102.8C159.473 103.119 159.942 103.279 160.516 103.279C161.099 103.279 161.569 103.119 161.925 102.8C162.291 102.471 162.474 102.044 162.474 101.518ZM160.516 104.266C159.873 104.266 159.347 104.43 158.938 104.759C158.529 105.078 158.324 105.562 158.324 106.21C158.324 106.811 158.52 107.295 158.911 107.662C159.312 108.028 159.846 108.211 160.516 108.211C161.186 108.211 161.717 108.028 162.108 107.662C162.499 107.295 162.695 106.811 162.695 106.21C162.695 105.581 162.495 105.101 162.095 104.773C161.695 104.434 161.168 104.266 160.516 104.266ZM165.186 101.109C165.186 100.47 165.364 99.963 165.72 99.5873C166.077 99.2022 166.534 99.0093 167.091 99.0093C167.647 99.0093 168.104 99.2022 168.46 99.5873C168.817 99.963 168.995 100.47 168.995 101.109C168.995 101.757 168.817 102.274 168.46 102.659C168.104 103.035 167.647 103.223 167.091 103.223C166.534 103.223 166.077 103.035 165.72 102.659C165.364 102.274 165.186 101.757 165.186 101.109ZM172.805 99.1645L167.521 109H166.347L171.631 99.1645H172.805ZM167.091 99.7985C166.795 99.7985 166.56 99.9111 166.386 100.136C166.221 100.353 166.138 100.677 166.138 101.109C166.138 101.541 166.221 101.87 166.386 102.095C166.56 102.321 166.795 102.434 167.091 102.434C167.386 102.434 167.621 102.321 167.795 102.095C167.969 101.86 168.056 101.532 168.056 101.109C168.056 100.677 167.969 100.353 167.795 100.136C167.621 99.9111 167.386 99.7985 167.091 99.7985ZM170.183 107.055C170.183 106.407 170.361 105.895 170.718 105.52C171.075 105.134 171.531 104.942 172.088 104.942C172.645 104.942 173.097 105.134 173.445 105.52C173.801 105.895 173.98 106.407 173.98 107.055C173.98 107.694 173.801 108.206 173.445 108.591C173.097 108.976 172.645 109.169 172.088 109.169C171.531 109.169 171.075 108.981 170.718 108.605C170.361 108.22 170.183 107.704 170.183 107.055ZM172.075 105.745C171.779 105.745 171.544 105.858 171.37 106.083C171.196 106.299 171.109 106.624 171.109 107.055C171.109 107.478 171.196 107.802 171.37 108.028C171.544 108.244 171.779 108.352 172.075 108.352C172.371 108.352 172.605 108.244 172.78 108.028C172.953 107.802 173.04 107.478 173.04 107.055C173.04 106.624 172.953 106.299 172.78 106.083C172.605 105.858 172.371 105.745 172.075 105.745Z" fill="white"/>
<path d="M160.987 141.505C181.741 141.505 198.565 124.351 198.565 103.191C198.565 82.03 181.741 64.8765 160.987 64.8765C140.233 64.8765 123.409 82.03 123.409 103.191C123.409 124.351 140.233 141.505 160.987 141.505Z" stroke="white" stroke-width="13" stroke-miterlimit="10" stroke-linecap="round"/>
<path d="M198.565 103.19C198.552 113.344 194.588 123.076 187.541 130.251C180.496 137.426 170.945 141.456 160.987 141.456C151.029 141.456 141.478 137.426 134.432 130.251C127.386 123.076 123.422 113.344 123.409 103.19" stroke="#EF7693" stroke-width="13" stroke-linecap="round" stroke-linejoin="round"/>
<path d="M160.987 64.8765C165.923 64.8765 170.809 65.8668 175.368 67.7923C179.927 69.7185 184.07 72.54 187.559 76.0979C191.048 79.6558 193.816 83.8799 195.705 88.5286C197.593 93.1766 198.565 98.1589 198.565 103.191" stroke="#FEBB94" stroke-width="13" stroke-linecap="round" stroke-linejoin="round"/>
<path d="M117.065 25.2754H142.042" stroke="white" stroke-width="4" stroke-miterlimit="10" stroke-linecap="round"/>
<path opacity="0.4" d="M117.065 37.1606H168.682" stroke="white" stroke-width="4" stroke-miterlimit="10" stroke-linecap="round"/>
<path d="M663.17 539.85H110.962V553.999H663.17V539.85Z" fill="#9D0D30"/>
<path d="M115.288 182.335C116.554 182.335 117.58 181.288 117.58 179.997C117.58 178.706 116.554 177.66 115.288 177.66C114.022 177.66 112.995 178.706 112.995 179.997C112.995 181.288 114.022 182.335 115.288 182.335Z" fill="#5661AE"/>
<defs>
<linearGradient id="paint0_linear_28_293" x1="320.482" y1="-8.96045" x2="379.622" y2="819.937" gradientUnits="userSpaceOnUse">
<stop stop-color="white"/>
<stop offset="1" stop-color="#E51A4B"/>
</linearGradient>
<linearGradient id="paint1_linear_28_293" x1="345.661" y1="-64.1774" x2="392.714" y2="431.756" gradientUnits="userSpaceOnUse">
<stop stop-color="white"/>
<stop offset="1" stop-color="#E51A4B"/>
</linearGradient>
</defs>
</svg>
