<svg width="771" height="554" fill="none" xmlns="http://www.w3.org/2000/svg"><path d="M625.288 0h-77.913c-5.25 0-9.507 4.34-9.507 9.693v86.005c0 5.354 4.257 9.693 9.507 9.693h77.913c5.25 0 9.507-4.339 9.507-9.693V9.693c0-5.354-4.257-9.693-9.507-9.693z" fill="#F40638"/><path d="M549.676 79.218h24.976" stroke="#fff" stroke-width="3" stroke-miterlimit="10" stroke-linecap="round"/><path opacity=".4" d="M549.676 91.103h51.616" stroke="#fff" stroke-width="3" stroke-miterlimit="10" stroke-linecap="round"/><path d="M550.228 29.88h12.917c.949 0 1.881.253 2.704.734a5.486 5.486 0 0 1 1.988 2.01l12.504 21.806a5.497 5.497 0 0 0 2.052 2.047 5.343 5.343 0 0 0 5.533-.152 5.509 5.509 0 0 0 1.941-2.156l7.73-15.308a5.508 5.508 0 0 1 1.975-2.18 5.367 5.367 0 0 1 2.797-.826l22.69-.247" stroke="#fff" stroke-width="2" stroke-miterlimit="10" stroke-linecap="round"/><path opacity=".4" d="M550.228 53.334h6.352a5.38 5.38 0 0 0 3.83-1.61l29.365-29.734a5.381 5.381 0 0 1 3.83-1.61h8.596c1.23 0 2.422.424 3.385 1.203a5.53 5.53 0 0 1 1.911 3.087l4.516 19.83a5.537 5.537 0 0 0 1.911 3.086 5.373 5.373 0 0 0 3.378 1.203h7.757" stroke="#fff" stroke-width="2" stroke-miterlimit="10" stroke-linecap="round"/><path d="M736.324 524.709s-2.851 29.29-52.35 29.29h-58.036l76.989-61.031 33.397 31.741z" fill="#F28EA6"/><path d="m621.161 185.257 136.285 30.789c1.216.265 2.37.754 3.409 1.442 3.768 2.537 10.5 9.952 9.209 30.23-1.727 27.028-33.741 276.991-33.741 276.991L605.472 409.204l15.689-223.947z" fill="#F28EA6"/><path d="m606.595 184.462 137.278 31.015s11.746 4.361 11.624 31.446c-.122 27.086-33.741 276.991-33.741 276.991L590.902 408.408l15.693-223.946z" fill="#9D0D30"/><path d="M608.827 198.741s2.415 35.677 3.477 41.331c1.865 9.904 44.54-10.902 41.406-19.72-1.62-4.576-9.01-48.171-9.01-48.171l-35.873 26.56z" fill="#E2AA93"/><path d="m612.556 238.701-3.653-36.526h21.628l-17.975 36.526z" fill="#BB8473" stroke="#BB8473"/><path d="M663.072 164.535c1.651-17.963-18.334-14.09-21.75-13.279-3.416.81-8.765-25.809-8.765-25.809s-39.428-7.159-47.875-.017c0 0-5.3 33.551-6.154 55.038-.854 21.486 5.056 31.109 12.782 31.844 10.525 1.923 22.974-.243 30.93-5.023 14.168-8.518 20.221-23.923 20.221-23.923.252-.118.39-.18.39-.18s18.67-1.686 20.221-18.651z" fill="#E2AA93"/><path d="M583.561 179.788c3.398-2.195 11.989-2.003 15.478-1.308 6.647 1.328 8.688 2.209 9.437 3.783.749 1.573.894 3.314-1.88 2.2-2.782-1.113-8.592-3.147-13.765-3.004a45.616 45.616 0 0 0-7.12 1.325c-2.696.824-5.214-1.017-2.15-2.996zM581.157 157.863s2.242-20.1 2.526-25.665c.411-8.006 6.149-5.43 10.258.185 5.914 8.338 17.194 7.81 26.678 5.194 8.322-2.068 8.445-1.581 9.201 7.38.764 8.962 3.6 25.604 6.267 21.621 3.317-5.213 5.579-10.094 11.41-13.267 7.925-4.311 16.056 3.643 14.146 9.785-1.911 6.145-6.382 13.217-16.362 19.025l4.883 23.072c24.738-34.987 34.054-83.037.504-94.163-12.533-4.157-25.548-31.095-49.804-24.966-17.181 4.341-17.181 18.385-18.402 30.597-23.086 1.018-1.305 41.202-1.305 41.202z" fill="#493212"/><path d="M610.822 164.482c.473-2.547-.474-4.867-2.11-5.184-1.635-.315-3.347 1.493-3.813 4.041-.474 2.546.466 4.867 2.101 5.182 1.636.316 3.348-1.493 3.822-4.039zM588.3 159.983c.473-2.546-.471-4.867-2.107-5.182-1.637-.316-3.347 1.493-3.819 4.039-.473 2.548.471 4.868 2.107 5.184 1.637.315 3.346-1.493 3.819-4.041z" fill="#080B09"/><path d="M592.909 166.579s2.93 5.378-1.084 5.576c-3.838.055-6.01 2.415-2.048 5.63" stroke="#93523E" stroke-width="1.515" stroke-linecap="round"/><path d="M590.569 182.269c2.383.106 7.151.319 10.326.514.191.01.375.072.527.181.161.11.283.261.367.438.077.176.107.373.084.566a1.024 1.024 0 0 1-.206.53c-2.754 3.272-9.148 9.225-12.044-.87a.963.963 0 0 1-.087-.493.952.952 0 0 1 .548-.788.93.93 0 0 1 .485-.078z" fill="#fff"/><path d="m618.387 155.917-.206.465a2.846 2.846 0 0 1-1.422 1.602 2.734 2.734 0 0 1-2.117.115l-11.8-4.588a2.436 2.436 0 0 1-1.36-1.156 2.52 2.52 0 0 1-.237-1.792c.069-.375.222-.731.436-1.043.221-.313.497-.574.818-.769a2.59 2.59 0 0 1 2.162-.244l12.006 4.123a2.528 2.528 0 0 1 1.544 1.271 2.604 2.604 0 0 1 .176 2.016zM578.734 145.975l12.613-1.231c.374-.032.75.018 1.103.145.354.127.677.33.948.594a2.739 2.739 0 0 1 .817 2.056 2.52 2.52 0 0 1-.627 1.69c-.41.463-.975.752-1.584.81l-12.512 1.732a2.741 2.741 0 0 1-2.036-.602 2.855 2.855 0 0 1-1.028-1.89l-.101-.501a2.62 2.62 0 0 1 .62-1.923c.224-.261.499-.474.806-.625.307-.151.64-.239.981-.255z" fill="#080B09"/><path d="M34.554 524.709s2.85 29.29 52.354 29.29h58.032l-76.986-61.031-33.4 31.741z" fill="#F28EA6"/><path d="M149.72 185.257 13.434 216.046a10.079 10.079 0 0 0-3.409 1.442c-3.77 2.537-10.503 9.952-9.21 30.23 1.725 27.028 33.74 276.991 33.74 276.991L165.41 409.204l-15.69-223.947z" fill="#F28EA6"/><path d="M164.286 184.462 27.002 215.477s-11.743 4.361-11.62 31.446c.123 27.086 33.739 276.991 33.739 276.991l130.855-115.506-15.69-223.946z" fill="#9D0D30"/><path d="m223.703 313.406 13.321 19.008a23.295 23.295 0 0 0 7.173 6.664 22.82 22.82 0 0 0 9.223 3.08l87.192 9.381 1.325 22.266-106.396 6.586a36.075 36.075 0 0 1-17.449-3.305 36.828 36.828 0 0 1-13.889-11.268l-28.515-37.904 48.015-14.508z" fill="#FFCCB3"/><path d="M232.034 325.295s-27.411 7.38-35.425 30.43l-13.658-20.584 46.137-14.049 2.946 4.203z" fill="#FF967C"/><path d="M165.143 241.707s26.672 7.926 34.097 17.079c5.778 7.122 15.602 36.712 23.3 50.963 1.861 3.444 4.5 3.756 2.539 7.14-8.112 14.002-15.064 34.412-28.469 38.836-44.868-6.911-31.467-114.018-31.467-114.018z" fill="#5661AE"/><path d="M193.968 282.254s17.8 32.914 20.503 50.602c0 0-6.338 16.399-10.812 19.735-6.98 5.204-10.812 2.28-10.812 2.28l1.121-72.617z" fill="#465393"/><path d="M100.936 175.222c24.602 0 44.544-20.335 44.544-45.417 0-25.084-19.942-45.418-44.544-45.418-24.601 0-44.544 20.334-44.544 45.418 0 25.082 19.943 45.417 44.544 45.417z" fill="#080B09"/><path d="M138.678 105.591s-57.489-10.35-64.233 60.728c0 0 5.76 6.314 14.049 7.005 0 0 6.732-68.967 53.55-63.638l-3.366-4.095z" fill="#FEBB94"/><path d="M126.489 108.3s-6.612-3.499-1.63-7.533a27.365 27.365 0 0 0 7.326-9.86 7.215 7.215 0 0 1 3.316 4.104 7.377 7.377 0 0 1-.323 5.307c-2.553 6.425-4.151 6.786-4.151 6.786l-4.538 1.196z" fill="#FEBB94"/><path d="M126.154 104.433s-1.82 7.364-6.815 3.347a26.667 26.667 0 0 0-11.095-5.004 7.23 7.23 0 0 1 3.155-4.234 6.997 6.997 0 0 1 5.14-.898c6.72 1.057 7.431 2.56 7.431 2.56l2.184 4.229z" fill="#FEBB94"/><path d="m138.897 209.636 7.038 26.698s53.727 62.154 9.135 84.757c-7.838 3.973-45.298-26.559-52.331-33.328-7.034-6.769-4.118-46.756-4.118-46.756l16.151-57.115 24.125 25.744z" fill="#FFCCB3"/><path d="M123.065 294.345s26.246 16.822 52.624 1.213c0 0-4.065 23.173-20.054 30.632-15.99 7.458-32.57-31.845-32.57-31.845z" fill="#1C85E8"/><path d="m140.282 214.353-14.111-9.411 20.894 35.828-6.783-26.417z" fill="#FF967C"/><path d="M176 143.938s7.464 40.042-5.875 63.385c-8.699 15.224-20.649 15.653-43.954-2.381-21.369-16.536-25.724-26.421-25.724-26.421l5.223-41.628s61.776-29.067 70.33 7.045z" fill="#FFCCB3"/><path d="M145.935 236.336s26.419 6.652 30.679 9.714c4.259 3.062 9.727 29.867 17.397 42.279 7.671 12.412 18.149 32.024 4.688 54.706-13.46 22.682-12.247 44.387-12.247 44.387l10.188 56.937H83.175c-4.743.441-7.265-11.812-7.124-16.665.465-16.009 1.953-20.781.95-46.164-1.358-34.401-13.959-131.993-13.959-131.993l37.406-14.162c-1.15 53.692 29.444 41.973 55.187 90.815 21.072-41.269-9.7-89.854-9.7-89.854z" fill="#5661AE"/><path d="M87.667 277.348s5.552 11.799 1.168 23.852c-4.93 13.551-10.355 46.572 13.674 48.653 29.454 2.55 17.089 7.994 3.755 12.167-13.335 4.172-7.795 3.833-6.943 18.128.606 10.174-26.22 30.83-23.749 22.945 13.257-42.305-31.795-94.579 12.095-125.745z" fill="#465393"/><path d="m151.568 195.829 14.136 2.402a10.402 10.402 0 0 1-1.393 2.333c-1.096 1.375-2.789 2.696-5.251 2.634-3.855-.45-5.712-2.416-6.623-4.245a8.746 8.746 0 0 1-.869-3.124z" fill="#E56441" stroke="#E56441"/><path d="M173.126 178.021c1.584-.079 2.775-2.072 2.661-4.452-.115-2.379-1.491-4.244-3.075-4.165-1.583.079-2.774 2.072-2.66 4.452.115 2.38 1.491 4.244 3.074 4.165zM149.746 179.53c1.583-.078 2.774-2.072 2.66-4.451-.115-2.38-1.491-4.245-3.075-4.165-1.583.079-2.774 2.072-2.66 4.451.114 2.379 1.49 4.245 3.075 4.165zM178.099 163.483l-11.891.794a.835.835 0 0 1-.549-.222.86.86 0 0 1-.27-.535 2.777 2.777 0 0 1 .969-1.927c.282-.238.607-.414.957-.52a2.65 2.65 0 0 1 1.08-.096l9.832 1.104c.78-.039.847 1.353-.128 1.402zM137.758 164.736l15.85.206a3.593 3.593 0 0 0-.408-1.401 3.529 3.529 0 0 0-.93-1.112 3.436 3.436 0 0 0-1.293-.631 3.395 3.395 0 0 0-1.433-.043l-12.029 1.996c-.39.02-.342 1.015.243.985z" fill="#080B09"/><path d="m163.146 172.996 5.086 11.482-3.545 3.304" stroke="#E56441" stroke-width="1.667" stroke-linecap="round"/><path d="M161.41 150.151c-8.304.059-12.193-1.905-20.904 2.274-2.749 1.318-5.349 2.638-6.926 5.87-1.689 6.5-.606 15.529-11.842 15.279 0 0 3.634-12.335-4.087-13.912-13.111-2.676-11.003 18.954-2.88 24.231 5.52 3.586-3.964 29.454-11.018 38.962-24.13-57.494-15.755-63.285-9.482-78.293 10.66-25.504 20.001-33.268 45.236-37.486 0 0 33.435.921 42.3 30.913 7.577 25.64-3.795 35.47-3.795 35.47s.353-19.079-1.498-21.034c-2.435-2.572-4.41-2.349-15.104-2.274z" fill="#080B09"/><path d="M567.116 460.497 472.5 477.635 491.123 554h60.607s28.809-63.139 15.386-93.503z" fill="#FFCCB3"/><path d="M506.708 467.187s14.582 4.578 20.601 28.826c6.02 24.25-.548 57.987-.548 57.987h9.376s33.433-40.032 8.836-91.051l-38.265 4.238z" fill="#FF967C"/><path d="M704.5 436.432s7.291 55.513-3.592 81.974c-9.262 22.505-23.568 35.263-40.939 35.593H526.76s-.21-72.545-56.394-84.939c0 0 184.91-52.51 234.134-32.628z" fill="#1F2D49"/><path d="m707.06 453.267-120.864 4.057 1.285-8.608 23.554-2.776h95.857l.168 7.327z" fill="#0D1B33"/><path d="M613.26 235.817c-1.039 4.494-1.307-11.405-3.408-10.742-9.622 3.04-37 11.751-42.823 14.235-7.094 3.026-7.567 15.128-8.04 23.701-.332 6.006 8.436 90.321 8.874 147.443.093 12.203-12.02 26.488-13.453 33.271a27.868 27.868 0 0 0-.637 5.561 4.976 4.976 0 0 0 1.393 3.487 4.787 4.787 0 0 0 3.402 1.466l144.329 1.375s6.396.948 4.852-6.497a147.964 147.964 0 0 1-2.506-24.697c-1.437-59.329-1.712-158.689-2.339-163.393-.947-7.06 6.489-13.139-1.566-16.693l-44.7-18.209s-8.193 6.094-9.377 6.712c-22.453 11.707-34.001 2.98-34.001 2.98z" fill="#FEBB94"/><path d="M622.559 241.873s-5.105 19.112-2.743 37.573c2.353 18.461-6.947 43.719-8.873 63.989-1.926 20.27 7.505 46.824 6.03 63.839-1.468 17.014 3.882 48.38 3.882 48.38" stroke="#FF967C" stroke-width="3" stroke-miterlimit="10"/><path d="m218.002 446.347 94.617 17.138-18.624 76.366h-60.607s-28.809-63.139-15.386-93.504z" fill="#FFCCB3"/><path d="M278.41 453.036s-14.581 4.579-20.6 28.828c-6.02 24.248.548 57.986.548 57.986h-9.376s-33.433-40.032-8.835-91.051l38.263 4.237z" fill="#FF967C"/><path d="M77.814 425.873s-16.767 32.089-14.772 74.403c1.895 40.188 23.458 53.723 57.548 53.723l137.769-14.149s.21-72.546 56.394-84.939c0 0-62.555-46.427-125.829-34.763-31.056 5.725-50.568 12.691-111.11 5.725z" fill="#1F2D49"/><path d="M75.458 415.147s89.227 9.505 122.114-15.55l-1.471 20.917s-55.606 31.5-119.33 13.774c0 0-9.555-6.842-1.313-19.141z" fill="#1C85E8"/><path d="M347.753 383.033s26.507-5.659 37.483-3.067c11.187 2.357 34.731 8.363 30.514 25.962-2.917 12.566-15.783 7.588-15.783 7.588s3.349 5.018-1.629 7.308c-3.036 1.285-22.62-9.666-22.62-9.666-13.07 4.287-30.124-4.763-30.124-4.763l2.159-23.362z" fill="#FFCCB3"/><path d="m385.467 406.816 14.281 6.711M388.66 395.365c3.578.718 19.682 8.463 19.682 8.463M390.664 386.685a72.987 72.987 0 0 1 20.355 8.653" stroke="#FF967C" stroke-width="2.893" stroke-linecap="round" stroke-linejoin="round"/><path d="M229.907 295.558h287.679L663.17 539.851H110.962l118.945-244.293z" fill="url(#a)"/><path d="m464.1 399.719 9.645 59.536 53.565 36.757 89.671-9.879-22.028-26.878L464.1 399.719z" fill="#9D0D30"/><path d="M412.559 340.614 452.71 416.1l59.791 57.834L464.1 399.72l-51.541-59.106z" fill="#fff"/><path d="m412.56 340.614 40.152 75.485-3.873 3.037-39.551-76.483 3.272-2.039z" fill="#E51A4B"/><path d="m452.711 416.099 59.791 57.835v3.704l-63.663-58.502 3.872-3.037z" fill="#E51A4B"/><path d="m512.501 477.638 82.452-15.367v-3.015l-82.452 14.678v3.704z" fill="#E51A4B"/><path d="m594.953 459.256-53.714-70.097L464.1 399.72l48.401 74.214 82.452-14.678z" fill="#E7EFFF"/><path d="m103.399 282.413-12.451 72.999a7.272 7.272 0 0 1-2.76 4.564 7.007 7.007 0 0 1-5.082 1.381s-35.089-2.353-46.77-3.345c-2.75-.233-10.228-7.148-7.942-18.537 2.096-15.558 11.91-51.885 18.117-72.058 2.89-10.037 33.798-4.028 33.798-4.028l23.09 19.024z" fill="#5661AE"/><path d="M74.274 307.396c16.27 0 29.461-13.448 29.461-30.039 0-16.589-13.19-30.038-29.461-30.038-16.27 0-29.462 13.449-29.462 30.038 0 16.591 13.191 30.039 29.462 30.039z" fill="#5661AE"/><path d="m37.143 362.068.481-5.82 43.684 5.072-.677 4.953-3.716 31.232-42.474-4.671 2.702-30.766z" fill="#FFCCB3"/><path d="m37.835 356.198 43.471 5.123-.676 4.952c-9.878-1.113-32.024-3.008-43.489-4.205l.694-5.87z" fill="#FF967C"/><path d="M55.51 415.788c11.812 0 21.387-9.763 21.387-21.806 0-12.043-9.575-21.806-21.387-21.806-11.811 0-21.386 9.763-21.386 21.806 0 12.043 9.575 21.806 21.386 21.806z" fill="#FFCCB3"/><path d="m66.068 412.755 120.698-57.771s7.24-26.244-.633-21.887c-8.071 4.454-136.655 39.893-136.655 39.893l16.59 39.765z" fill="#FFCCB3"/><path d="m255.807 357.881-51.315 9.141c-3.306.589-5.503-1.752-4.908-5.228l15.779-92.226c.595-3.476 3.757-6.772 7.063-7.361l51.315-9.141c3.306-.589 5.503 1.751 4.909 5.228l-15.78 92.226c-.595 3.476-3.756 6.772-7.063 7.361z" fill="#1C85E8"/><path d="m258.109 357.471-51.315 9.142c-3.306.589-5.503-1.753-4.909-5.229l15.78-92.226c.595-3.476 3.757-6.772 7.062-7.361l51.316-9.142c3.305-.589 5.503 1.752 4.908 5.229l-15.779 92.226c-.596 3.477-3.757 6.772-7.063 7.361z" fill="#B2CDFF"/><path d="m178.849 335.665 5.958 19.803s24.683-6.035 29.963-8.678c10.296-5.398 21.369-12.678 22.665-15.445 3.973-7.001 4.441-15.663 3.986-21.712a5.566 5.566 0 0 0-.797-2.536 5.442 5.442 0 0 0-1.873-1.855 5.293 5.293 0 0 0-5.064-.19l-21.606 10.994s-2.813-4.846.017-8.696c1.824-2.542-.989-7.387-2.24-8.873-.493-.686-3.123-.706-3.719-.012-1.006 1.31.377 5.859-1.745 8.747-3.613 4.623-.406 6.631-9.709 14.512-7.359 6.181-15.913 13.751-15.836 13.941z" fill="#FFCCB3"/><path d="M220.635 319.396c6.147-2.112 18.684-9.556 18.684-9.556M219.828 327.753c4.947-1.836 18.012-9.054 18.012-9.054M222.807 335.203c3.262-1.134 12.961-5.838 12.961-5.838" stroke="#FF967C" stroke-width="2.099" stroke-linecap="round" stroke-linejoin="round"/><path d="M36.415 353.871a25.483 25.483 0 0 0 .292 13.164s21.015 10.379 43.22 5.166a10.462 10.462 0 0 0 3.156-4.945c.564-1.923.573-3.972.025-5.9l-46.693-7.485z" fill="#5661AE"/><path d="M662.422 276.249s-6.473 36.12-2.454 71.442c2.515 22.102 16.34 44.791 16.164 55.341-.283 17.08-19.434 24.315-19.488 34.205-.038 5.851 15.468 2.21 22.323-.064 15.399-5.113 25.518 1.834 25.518 1.834l-4.104-149.853-37.959-12.905z" fill="#FF967C"/><path d="M703.569 267.465c-14.207-18.13-20.581-9.447-25.571-9.004 0 0-16.905 3.211-15.575 17.787 1.406 15.423 26.274 118.203 26.274 118.203l52.204-4-2.476-14.173-5.097-29.191-5.434-31.211-.481-3.715-6.107-41.061s-10.378 6.048-17.737-3.635z" fill="#FEBB94"/><path d="M707.075 298.761c13.879-8.688 18.227-27.203 9.706-41.355-8.521-14.151-26.679-18.58-40.558-9.892-13.886 8.688-18.226 27.203-9.705 41.354 8.521 14.152 26.679 18.581 40.557 9.893z" fill="#FEBB94"/><path d="m582.13 398.718-32.914 2.496-7.779 18.711 2.658 23.096s5.664-2.353 6.25-10.523c.586-8.17 26.788-2.374 33.638-11.348" fill="#E2AA93"/><path d="m707.68 368.454-127.698 24.542a3.184 3.184 0 0 0-1.895 1.3 3.297 3.297 0 0 0-.556 2.259l3.091 24.776a4.845 4.845 0 0 0 1.648 3.033 4.665 4.665 0 0 0 3.217 1.122l131.54-5.247-9.347-51.785z" fill="#FEBB94"/><path d="M715.231 420.439c14.428 0 26.129-11.928 26.129-26.642 0-14.715-11.701-26.642-26.129-26.642-14.429 0-26.129 11.927-26.129 26.642 0 14.714 11.7 26.642 26.129 26.642zM583.095 272.659c4.263-21.462-5.763-20.909-9.1-24.322 0 0-12.519-10.524-22.057-.713-10.097 10.378-67.975 90.997-67.975 90.997l36.214 33.96 6.807-8.282 17.632-21.442 18.861-22.917 2.343-2.61 25.441-29.381s-10.578-3.991-8.166-15.29z" fill="#FEBB94"/><path d="M598.241 276.314c4.884-14.86-2.976-30.942-17.55-35.919-14.575-4.978-30.348 3.034-35.23 17.894-4.881 14.861 2.977 30.943 17.551 35.92 14.575 4.978 30.348-3.034 35.229-17.895z" fill="#FEBB94"/><path d="M563.478 319.939c-1.083-11.929-4.963-29.797-4.963-29.797s-3.351-.316-13.689 23.238c-7.656 17.651-16.538 35.643-18.008 50.861l17.633-21.442 19.027-22.86z" fill="#FF967C"/><path d="M492.763 234.118c-1.886-18.149 2.958-19.029 3.025-28.869.033-9.616 14.274-27.418 7.482-27.058-6.792.359-11.562 6.977-11.562 6.977-1.006-8.626.695-22.981-7.962-28.397-8.658-5.417-10.697-2.795-17.747-.641-18.82 5.893-8.314 31.286-8.122 39.332.171 5.065 8.907 24.009 9.303 27.504l2.782 13.473 22.801-2.321z" fill="#E2AA93"/><path d="m482.035 182.122-2.574-26.052 2.574 26.052z" fill="#93523E"/><path d="m482.035 182.122-2.574-26.052" stroke="#93523E" stroke-width="1.515" stroke-linecap="round"/><path d="m473.232 182.41-4.188-25.025 4.188 25.025z" fill="#93523E"/><path d="m473.232 182.41-4.188-25.025" stroke="#93523E" stroke-width="1.515" stroke-linecap="round"/><path d="m462.888 182.469-2.117-14.977 2.117 14.977z" fill="#93523E"/><path d="m462.888 182.469-2.117-14.977" stroke="#93523E" stroke-width="1.515" stroke-linecap="round"/><path d="M477.156 202.008c3.076-7.329 11.054-14.383 11.054-14.383l-11.054 14.383z" fill="#93523E"/><path d="M477.156 202.008c3.076-7.329 11.054-14.383 11.054-14.383" stroke="#93523E" stroke-width="1.515" stroke-linecap="round"/><path d="m525.736 345.856-28.198-109.423a3.053 3.053 0 0 0-1.312-1.744 2.954 2.954 0 0 0-2.118-.402l-22.709 4.412a4.457 4.457 0 0 0-2.707 1.759 4.619 4.619 0 0 0-.848 3.156l10.595 114.236 47.297-11.994z" fill="#FEBB94"/><path d="M469.707 243.44s-2.796-10.924 0-12.124c2.797-1.2 20.318-4.613 22.67-2.382 2.351 2.232 4.404 11.536 4.404 11.536l-27.074 2.97zM502.763 379.73c13.619 0 24.66-11.258 24.66-25.144s-11.041-25.144-24.66-25.144c-13.62 0-24.661 11.258-24.661 25.144s11.041 25.144 24.661 25.144z" fill="#FEBB94"/><path d="M100.935 232.821s17.973 35.493 36.328 41.33c0 0 10.315-5.585 8.671-37.817" stroke="#fff" stroke-miterlimit="10"/><path d="M136.618 283.3c3.457 0 6.26-2.858 6.26-6.382 0-3.525-2.803-6.383-6.26-6.383-3.458 0-6.26 2.858-6.26 6.383 0 3.524 2.802 6.382 6.26 6.382zM128.195 271.23c1.196 0 2.164-.988 2.164-2.206s-.968-2.206-2.164-2.206c-1.194 0-2.162.988-2.162 2.206s.968 2.206 2.162 2.206zM142.878 269.865c1.195 0 2.164-.988 2.164-2.206s-.969-2.206-2.164-2.206c-1.195 0-2.163.988-2.163 2.206s.968 2.206 2.163 2.206z" fill="#5661AE"/><path d="m316.719 379.287-70.545.406v69.105l104.996-6.239-34.451-63.272z" fill="#fff"/><path d="m310.039 386.021 11.665 24.433" stroke="#E51A4B" stroke-miterlimit="10" stroke-linecap="round"/><path opacity=".4" d="m298.671 386.022 4.371 9.156" stroke="#E51A4B" stroke-miterlimit="10" stroke-linecap="round"/><path opacity=".4" d="m250.932 386.023 34.891-.827 2.563 8.702-36.757 1.281-.697-9.156zM251.91 400.181l20.484-.564 2.564 8.702-22.351 1.018-.697-9.156zM251.91 415.595l34.89-.825 2.565 8.701-36.758 1.28-.697-9.156zM252.89 429.755l20.484-.564 2.564 8.702-22.35 1.018-.698-9.156z" fill="#E51A4B"/><path d="m192.847 496.013 77.791-49.666 55.153 15.993-66.472 59.571-66.472-25.898z" fill="#E51A4B"/><path d="M622.383 239.028s26.06-8.908 30.959-20.683c0 0 11.899 1.745 16.569 6.306 4.646 4.561 15.987 5.918 6.159 10.989-9.828 5.071-48.154 9.367-50.485 8.704-2.331-.663-3.202-5.316-3.202-5.316z" fill="#fff"/><path d="M611.586 222.815v5.96s2.331 8.56 10.799 10.254c0 0 1.322 4.724-3.34 5.285-4.654.561-18.196-6.418-20.189-7.101-2.001-.674-2.882-3.49.999-5.745 0 0 1.391-7.724 11.731-8.653zM635.322 306.352a.333.333 0 0 1-.107-.01.499.499 0 0 1-.313-.224c-.069-.115-.099-.254-.069-.388 1.422-6.327-2.552-14.142-6.389-21.703-2.85-5.612-5.8-11.418-6.549-16.652-1.765-12.153 3.057-25.805 3.11-25.938a.504.504 0 0 1 .642-.306.537.537 0 0 1 .168.103.594.594 0 0 1 .115.159.426.426 0 0 1 .046.194.574.574 0 0 1-.031.198c-.046.132-4.791 13.549-3.072 25.447.742 5.061 3.646 10.785 6.466 16.325 3.912 7.725 7.978 15.714 6.473 22.407a.493.493 0 0 1-.49.388z" fill="#fff"/><path d="M616.821 300.557a.499.499 0 0 1-.314-.106.506.506 0 0 1-.168-.282c-3.133-13.397.222-36.365 1.322-43.09a66.697 66.697 0 0 0 .963-15.417.503.503 0 0 1 .115-.37.489.489 0 0 1 .696-.071.492.492 0 0 1 .183.339 67.387 67.387 0 0 1-.971 15.683c-1.1 6.683-4.432 29.478-1.337 42.691a.471.471 0 0 1 0 .23.511.511 0 0 1-.092.209.483.483 0 0 1-.176.136.55.55 0 0 1-.221.048z" fill="#fff"/><path opacity=".6" d="M634.795 310.013c1.742 0 3.156-1.438 3.156-3.212 0-1.773-1.414-3.212-3.156-3.212-1.751 0-3.164 1.439-3.164 3.212 0 1.774 1.413 3.212 3.164 3.212zM617.385 303.268c1.75 0 3.164-1.437 3.164-3.211 0-1.774-1.414-3.212-3.164-3.212-1.742 0-3.156 1.438-3.156 3.212 0 1.774 1.414 3.211 3.156 3.211z" fill="#fff"/><path d="M427.62 24.576h4.585" stroke="#5CA4E6" stroke-miterlimit="10"/><path d="M511.554.114H247.401c-7.718 0-13.976 6.38-13.976 14.25v173.564c0 7.87 6.258 14.25 13.976 14.25h264.153c7.718 0 13.975-6.38 13.975-14.25V14.364c0-7.87-6.257-14.25-13.975-14.25z" fill="url(#b)"/><path d="M502.311 151.007H355.567c-2.429 0-4.398 2.008-4.398 4.484v20.234c0 2.476 1.969 4.483 4.398 4.483h146.744c2.429 0 4.397-2.007 4.397-4.483v-20.234c0-2.476-1.968-4.484-4.397-4.484z" fill="#fff"/><path d="M456.862 163.604v-1.163h2.584v10.132h-1.265v-8.969h-1.319zm4.705 1.387c.064-.859.389-1.532.976-2.018.586-.486 1.346-.729 2.281-.729.624 0 1.159.117 1.608.351.459.224.802.532 1.031.925.238.392.358.836.358 1.331 0 .58-.165 1.079-.496 1.5a2.16 2.16 0 0 1-1.264.813v.07c.596.149 1.068.443 1.416.883.348.438.522 1.013.522 1.723 0 .532-.119 1.014-.357 1.443-.239.421-.596.753-1.072.995-.477.243-1.05.365-1.718.365-.972 0-1.769-.257-2.392-.771-.623-.523-.971-1.261-1.044-2.214h1.209c.065.561.288 1.018.674 1.374.384.354.898.532 1.539.532.641 0 1.127-.169 1.457-.504.339-.346.508-.791.508-1.332 0-.701-.229-1.206-.687-1.513-.458-.309-1.15-.463-2.075-.463h-.317v-1.065h.33c.843-.01 1.48-.149 1.911-.42.43-.281.646-.71.646-1.29 0-.495-.161-.892-.481-1.191-.312-.299-.76-.448-1.347-.448-.568 0-1.027.149-1.374.448-.349.299-.555.701-.619 1.205h-1.223zm7.97 6.559a66.31 66.31 0 0 0 2.735-2.34 11.368 11.368 0 0 0 1.663-1.92c.458-.673.687-1.332.687-1.976 0-.607-.146-1.084-.44-1.43-.283-.355-.747-.532-1.388-.532-.623 0-1.109.201-1.456.602-.34.393-.523.92-.551 1.584h-1.209c.036-1.046.348-1.854.934-2.425.587-.569 1.343-.855 2.268-.855.944 0 1.691.267 2.24.799.56.533.839 1.266.839 2.201 0 .775-.229 1.532-.687 2.269a9.92 9.92 0 0 1-1.539 1.934 39.762 39.762 0 0 1-2.214 1.934h4.729v1.066h-6.611v-.911z" fill="#1C85E8"/><path d="M330.608 21.516h-76.902c-2.883 0-5.221 2.384-5.221 5.325v148.044c0 2.94 2.338 5.323 5.221 5.323h76.902c2.884 0 5.222-2.383 5.222-5.323V26.841c0-2.941-2.338-5.325-5.222-5.325z" fill="#FFD8DC"/><path opacity=".4" d="M292.158 126.906c12.164 0 22.026-10.055 22.026-22.458 0-12.404-9.862-22.458-22.026-22.458-12.165 0-22.027 10.054-22.027 22.458 0 12.403 9.862 22.458 22.027 22.458z" fill="#fff"/><path d="M285.344 98.265v14.253c0 .395.101.784.293 1.128.192.343.468.629.801.83a2.196 2.196 0 0 0 2.21.04l12.779-7.127c.352-.196.646-.485.85-.836a2.316 2.316 0 0 0 0-2.322 2.247 2.247 0 0 0-.85-.837l-12.779-7.127a2.206 2.206 0 0 0-1.11-.279 2.205 2.205 0 0 0-1.1.318 2.266 2.266 0 0 0-.801.831 2.311 2.311 0 0 0-.293 1.128z" fill="#fff"/><path d="M355.115 40.577h54.937" stroke="#fff" stroke-width="7" stroke-miterlimit="10" stroke-linecap="round"/><path opacity=".4" d="M355.115 66.718h113.533" stroke="#fff" stroke-width="7" stroke-miterlimit="10" stroke-linecap="round"/><path d="M355.792 101.367h54.938" stroke="#fff" stroke-width="7" stroke-miterlimit="10" stroke-linecap="round"/><path opacity=".4" d="M355.792 127.507h113.533" stroke="#fff" stroke-width="7" stroke-miterlimit="10" stroke-linecap="round"/><path d="M375.704 160.613a4.606 4.606 0 0 0-3.158-1.26c-1.171 0-2.298.45-3.158 1.26l-1.19 1.12-1.19-1.12a4.602 4.602 0 0 0-3.157-1.26c-1.17 0-2.298.45-3.157 1.26-.454.419-.817.93-1.066 1.501a4.546 4.546 0 0 0 0 3.624 4.476 4.476 0 0 0 1.066 1.501l7.504 7.092 7.506-6.999a4.425 4.425 0 0 0 1.114-1.512 4.499 4.499 0 0 0-1.114-5.207z" fill="#F4608A"/><path d="M384.085 164.991c.064-.859.39-1.532.976-2.018.587-.486 1.347-.729 2.282-.729.623 0 1.159.117 1.608.351.459.224.802.532 1.031.925.238.392.358.836.358 1.331 0 .58-.165 1.079-.496 1.5-.321.42-.742.691-1.264.813v.07c.596.149 1.067.443 1.416.883.347.438.522 1.013.522 1.723 0 .532-.12 1.014-.357 1.443-.239.421-.596.753-1.072.995-.477.243-1.05.365-1.718.365-.972 0-1.769-.257-2.392-.771-.623-.523-.971-1.261-1.044-2.214h1.209c.064.561.288 1.018.674 1.374.384.354.898.532 1.539.532.641 0 1.127-.169 1.456-.504.34-.346.509-.791.509-1.332 0-.701-.229-1.206-.687-1.513-.458-.309-1.15-.463-2.075-.463h-.317v-1.065h.33c.843-.01 1.48-.149 1.911-.42.43-.281.646-.71.646-1.29 0-.495-.161-.892-.482-1.191-.311-.299-.76-.448-1.346-.448-.568 0-1.027.149-1.375.448-.348.299-.554.701-.618 1.205h-1.224zm9.619 5.816-1.539 3.77h-.838l1.003-3.77h1.374zm7.563-7.259h-4.823v3.195c.21-.299.521-.542.934-.729a3.065 3.065 0 0 1 1.333-.294c.76 0 1.379.163 1.856.491.476.317.815.733 1.017 1.247.211.504.316 1.041.316 1.611 0 .673-.124 1.275-.371 1.808a2.845 2.845 0 0 1-1.141 1.261c-.504.309-1.131.463-1.883.463-.963 0-1.741-.253-2.337-.757-.595-.505-.957-1.177-1.086-2.018h1.224c.119.532.371.948.756 1.248.385.298.87.448 1.456.448.725 0 1.27-.22 1.637-.659.366-.449.549-1.037.549-1.765 0-.729-.183-1.29-.549-1.682-.367-.402-.908-.603-1.623-.603-.485 0-.912.121-1.278.365a2.014 2.014 0 0 0-.783.967h-1.182v-5.718h5.978v1.121zm2.144 8.002a66.31 66.31 0 0 0 2.735-2.34 11.368 11.368 0 0 0 1.663-1.92c.458-.673.687-1.332.687-1.976 0-.607-.147-1.084-.44-1.43-.284-.355-.747-.532-1.388-.532-.623 0-1.109.201-1.457.602-.339.393-.522.92-.55 1.584h-1.209c.037-1.046.348-1.854.935-2.425.586-.569 1.342-.855 2.267-.855.944 0 1.691.267 2.241.799.559.533.838 1.266.838 2.201 0 .775-.229 1.532-.687 2.269a9.925 9.925 0 0 1-1.54 1.934 39.631 39.631 0 0 1-2.212 1.934h4.728v1.066h-6.611v-.911zm14.173-8.114-3.821 9.137h-1.265l3.877-9.011h-5.306v-1.093h6.515v.967zM451.254 165.623c0-4.299-4.996-7.784-11.158-7.784-6.162 0-11.158 3.485-11.158 7.784 0 4.299 4.996 7.783 11.158 7.783.441 0 .872-.023 1.3-.06a.43.43 0 0 1 .354.139c.792.845 2.53 2.154 5.822 2.361a.448.448 0 0 0 .478-.461.47.47 0 0 0-.069-.237 11.156 11.156 0 0 1-1.334-2.837.462.462 0 0 1 .026-.3.446.446 0 0 1 .206-.216c2.657-1.422 4.375-3.656 4.375-6.172z" fill="#1C85E8"/><path d="M209.433 0h-96.892c-7.387 0-13.375 6.105-13.375 13.637v136.247c0 7.531 5.988 13.637 13.375 13.637h96.892c7.387 0 13.375-6.106 13.375-13.637V13.637C222.808 6.105 216.82 0 209.433 0z" fill="#F40638"/><path d="M155.899 99.813 152.272 109h-1.201l3.679-9.06h-5.036v-1.1h6.185v.973zm3.039 3.889c-.488-.207-.862-.507-1.123-.902s-.391-.874-.391-1.437c0-.508.118-.963.353-1.367a2.426 2.426 0 0 1 1.043-.972c.47-.245 1.035-.367 1.696-.367s1.223.122 1.684.367c.469.234.821.559 1.056.972.244.404.366.859.366 1.367 0 .545-.135 1.024-.405 1.437a2.423 2.423 0 0 1-1.109.902c.539.178.966.493 1.279.944.321.441.483.977.483 1.606 0 .611-.14 1.147-.418 1.607a2.831 2.831 0 0 1-1.187 1.057c-.505.244-1.088.366-1.749.366s-1.244-.122-1.748-.366a2.864 2.864 0 0 1-1.161-1.057c-.279-.46-.418-.996-.418-1.607 0-.629.157-1.169.47-1.62a2.373 2.373 0 0 1 1.279-.93zm3.536-2.184c0-.574-.175-1.015-.522-1.325-.348-.31-.827-.465-1.436-.465-.6 0-1.074.155-1.422.465-.348.31-.522.756-.522 1.339 0 .526.179.948.535 1.268.366.319.835.479 1.409.479.583 0 1.053-.16 1.409-.479.366-.329.549-.756.549-1.282zm-1.958 2.748c-.643 0-1.169.164-1.578.493-.409.319-.614.803-.614 1.451 0 .601.196 1.085.587 1.452.401.366.935.549 1.605.549.67 0 1.201-.183 1.592-.549.391-.367.587-.851.587-1.452 0-.629-.2-1.109-.6-1.437-.4-.339-.927-.507-1.579-.507zm4.67-3.157c0-.639.178-1.146.534-1.522.357-.385.814-.578 1.371-.578.556 0 1.013.193 1.369.578.357.376.535.883.535 1.522 0 .648-.178 1.165-.535 1.55-.356.376-.813.564-1.369.564-.557 0-1.014-.188-1.371-.564-.356-.385-.534-.902-.534-1.55zm7.619-1.944L167.521 109h-1.174l5.284-9.835h1.174zm-5.714.633a.845.845 0 0 0-.705.338c-.165.217-.248.541-.248.973 0 .432.083.761.248.986a.843.843 0 0 0 .705.339c.295 0 .53-.113.704-.339.174-.235.261-.563.261-.986 0-.432-.087-.756-.261-.973a.844.844 0 0 0-.704-.337zm3.092 7.257c0-.648.178-1.16.535-1.535.357-.386.813-.578 1.37-.578.557 0 1.009.192 1.357.578.356.375.535.887.535 1.535 0 .639-.179 1.151-.535 1.536-.348.385-.8.578-1.357.578-.557 0-1.013-.188-1.37-.564-.357-.385-.535-.901-.535-1.55zm1.892-1.31a.845.845 0 0 0-.705.338c-.174.216-.261.541-.261.972 0 .423.087.747.261.973a.858.858 0 0 0 .705.324.86.86 0 0 0 .705-.324c.173-.226.26-.55.26-.973 0-.431-.087-.756-.26-.972a.846.846 0 0 0-.705-.338z" fill="#fff"/><path d="M160.987 141.505c20.754 0 37.578-17.154 37.578-38.314 0-21.161-16.824-38.315-37.578-38.315s-37.578 17.154-37.578 38.315c0 21.16 16.824 38.314 37.578 38.314z" stroke="#fff" stroke-width="13" stroke-miterlimit="10" stroke-linecap="round"/><path d="M198.565 103.19c-.013 10.154-3.977 19.886-11.024 27.061-7.045 7.175-16.596 11.205-26.554 11.205-9.958 0-19.509-4.03-26.555-11.205-7.046-7.175-11.01-16.907-11.023-27.061" stroke="#EF7693" stroke-width="13" stroke-linecap="round" stroke-linejoin="round"/><path d="M160.987 64.876c4.936 0 9.822.99 14.381 2.916a37.545 37.545 0 0 1 12.191 8.306 38.39 38.39 0 0 1 8.146 12.43 38.972 38.972 0 0 1 2.86 14.663" stroke="#FEBB94" stroke-width="13" stroke-linecap="round" stroke-linejoin="round"/><path d="M117.065 25.275h24.977" stroke="#fff" stroke-width="4" stroke-miterlimit="10" stroke-linecap="round"/><path opacity=".4" d="M117.065 37.16h51.617" stroke="#fff" stroke-width="4" stroke-miterlimit="10" stroke-linecap="round"/><path d="M663.17 539.85H110.962v14.149H663.17V539.85z" fill="#9D0D30"/><path d="M115.288 182.335c1.266 0 2.292-1.047 2.292-2.338 0-1.291-1.026-2.337-2.292-2.337-1.266 0-2.293 1.046-2.293 2.337 0 1.291 1.027 2.338 2.293 2.338z" fill="#5661AE"/><defs><linearGradient id="a" x1="320.482" y1="-8.96" x2="379.622" y2="819.937" gradientUnits="userSpaceOnUse"><stop stop-color="#fff"/><stop offset="1" stop-color="#E51A4B"/></linearGradient><linearGradient id="b" x1="345.661" y1="-64.177" x2="392.714" y2="431.756" gradientUnits="userSpaceOnUse"><stop stop-color="#fff"/><stop offset="1" stop-color="#E51A4B"/></linearGradient></defs></svg>