<svg width="775" height="731" viewBox="0 0 775 731" fill="none" xmlns="http://www.w3.org/2000/svg">
<path d="M155.245 0H629.794C636.972 0 643.852 3.05842 648.929 8.50247C653.999 13.9465 656.848 21.3301 656.848 29.0293V61.0806H128.189V29.0293C128.189 21.3301 131.041 13.9465 136.114 8.50247C141.188 3.05842 148.07 0 155.245 0Z" fill="#F40638"/>
<path d="M128.189 61.0806H656.848V575.247C656.848 582.216 655.573 589.117 653.086 595.555C650.598 601.994 646.961 607.844 642.365 612.772C637.775 617.7 632.32 621.609 626.322 624.276C620.316 626.942 613.885 628.316 607.391 628.316H177.649C171.155 628.316 164.723 626.942 158.722 624.276C152.721 621.609 147.268 617.7 142.676 612.772C138.083 607.844 134.44 601.994 131.954 595.555C129.469 589.117 128.189 582.216 128.189 575.247V61.0806Z" fill="url(#paint0_linear_420_300)"/>
<path d="M473.604 425.809H328.6V501.368H473.604V425.809Z" fill="#FFCCB3"/>
<path d="M327.746 472.391C310.74 490.345 304.049 578.762 304.945 628.316H507.377C507.377 628.316 507.014 520.253 491.666 483.838C477.553 450.349 454.092 499.749 327.746 472.391Z" fill="#1F2D49"/>
<path d="M449.238 81.9368C449.238 81.9368 466.035 61.3804 498.637 58.3897C531.24 55.399 540.995 86.0381 539.602 104.862C538.208 123.686 512.658 162.565 517.768 179.015C522.878 195.463 498.849 187.488 496.23 154.59C493.611 121.692 483.855 75.8355 457.376 92.2838L449.238 81.9368Z" fill="#080B09"/>
<path d="M454.337 72.3144C454.337 72.3144 458.354 69.8169 461.262 75.6429C464.172 81.4688 469.605 93.299 462.719 96.4349C455.833 99.5717 454.337 72.3144 454.337 72.3144Z" fill="#1C85E8"/>
<path d="M361.206 261.772C361.206 261.772 387.251 293.138 378.589 303.198C361.433 323.876 315.805 362.738 300.854 375.602C300.209 376.132 299.472 376.52 298.686 376.743C297.9 376.966 297.081 377.02 296.275 376.902C295.47 376.784 294.694 376.496 293.993 376.054C293.292 375.613 292.679 375.027 292.19 374.33L256.837 324.458C255.454 322.539 254.81 320.123 255.035 317.708C255.261 315.295 256.339 313.065 258.049 311.477L326.529 248.117L361.206 261.772Z" fill="#F40638"/>
<path d="M320.089 301.648C320.089 301.648 287.631 322.347 284.706 363.937L291.17 372.847C291.17 372.847 295.229 380.436 300.854 375.602C306.479 370.768 332.497 348.405 332.497 348.405L320.089 301.648Z" fill="#BC1940"/>
<path d="M350.437 317.414C370.682 317.414 387.095 299.805 387.095 278.081C387.095 256.358 370.682 238.748 350.437 238.748C330.191 238.748 313.778 256.358 313.778 278.081C313.778 299.805 330.191 317.414 350.437 317.414Z" fill="#F40638"/>
<path d="M254.979 401.378L222.942 355.865L253.27 330.602L258.023 326.496L291.255 373.125L285.468 377.59L254.979 401.378Z" fill="#FFCCB3"/>
<path d="M285.468 377.59C276.886 365.262 260.749 341.169 253.27 330.602L258.024 326.496L291.171 372.847L285.468 377.59Z" fill="#FF967C"/>
<path d="M238.474 407.691C253.171 407.691 265.085 394.907 265.085 379.138C265.085 363.367 253.171 350.584 238.474 350.584C223.776 350.584 211.862 363.367 211.862 379.138C211.862 394.907 223.776 407.691 238.474 407.691Z" fill="#FFCCB3"/>
<path d="M261.006 363.777C261.006 363.777 175.162 228.512 171.194 217.024C167.332 205.806 147.056 232.801 147.056 232.801L213.494 388.332L261.006 363.777Z" fill="#FFCCB3"/>
<path d="M379.188 175.144L368.868 252.342C368.868 252.342 366.159 262.589 378.182 264.139C390.205 265.691 415.841 262.225 424.996 251.756C434.152 241.287 430.949 236.101 430.949 236.101L411.531 152.309L379.188 175.144Z" fill="#FFCCB3"/>
<path d="M377.752 185.133L402.995 175.567L371.722 225.299L377.752 185.133Z" fill="#FF967C"/>
<path d="M350.627 79.7881C350.627 79.7881 328.97 134.386 340.257 171.807C347.618 196.211 363.648 200.599 400.359 182.31C434.02 165.542 442.763 152.857 442.763 152.857L447.727 91.9933C447.727 91.9933 372.621 31.1238 350.627 79.7881Z" fill="#FFCCB3"/>
<path d="M368.686 230.147C368.686 230.147 340.943 238.417 335.313 243.25C329.683 248.083 325.588 287.363 317.267 306.766C304.948 335.491 296.973 350.772 317.669 382.338C330.15 401.378 325.906 449.78 325.906 449.78H477.879C473.274 354.606 493.649 242.412 493.649 242.412L425.061 225.454C409.597 228.315 368.686 230.147 368.686 230.147Z" fill="#F40638"/>
<path d="M363.834 231.682C363.834 231.682 365.886 216.721 372.442 215.668C378.998 214.615 419.062 208.149 425.294 210.965C431.525 213.78 439.069 231.682 439.069 231.682C439.069 231.682 426.278 265.158 407.911 266.917C389.544 268.677 357.932 262.602 361.275 250.155C364.618 237.709 363.834 231.682 363.834 231.682Z" fill="#F40638"/>
<path d="M351.357 236.23C351.357 236.23 355.789 265.103 379.857 264.647C403.926 264.191 438.902 225.454 438.902 225.454" stroke="white" stroke-width="1.35709" stroke-miterlimit="10"/>
<path d="M460.406 278.082C460.406 278.082 436.489 295.048 443.535 312.168C451.457 331.417 451.388 380.991 428.653 384.099C388.087 389.642 405.712 397.253 424.469 402.117C443.226 406.98 435.546 406.985 435.546 427.835C435.546 442.673 479.007 455.539 477.878 443.549C470.321 363.331 501.734 312.537 460.406 278.082Z" fill="#BC1940"/>
<path d="M348.697 160.117L368.843 161.186C368.771 161.452 368.662 161.817 368.504 162.245C368.161 163.174 367.593 164.398 366.692 165.583C364.904 167.932 361.782 170.165 356.389 169.58C352.983 168.88 351.047 166.423 349.95 164.097C349.402 162.932 349.069 161.808 348.874 160.975C348.793 160.633 348.736 160.342 348.697 160.117Z" fill="#E56441" stroke="#E56441"/>
<path d="M350.026 124.225C350.868 120.876 349.834 117.665 347.716 117.052C345.599 116.439 343.199 118.657 342.357 122.006C341.516 125.354 342.55 128.565 344.668 129.179C346.785 129.791 349.184 127.574 350.026 124.225Z" fill="#080B09"/>
<path d="M381.192 133.761C382.034 130.412 381 127.201 378.882 126.588C376.765 125.975 374.365 128.192 373.523 131.541C372.682 134.89 373.716 138.101 375.834 138.714C377.952 139.327 380.35 137.11 381.192 133.761Z" fill="#080B09"/>
<path d="M342.146 106.928L357.989 111.815C358.264 111.874 358.551 111.823 358.795 111.673C359.039 111.523 359.223 111.283 359.315 110.997C359.388 110.461 359.358 109.915 359.229 109.391C359.099 108.867 358.871 108.377 358.56 107.95C358.249 107.523 357.86 107.168 357.417 106.907C356.975 106.646 356.488 106.483 355.985 106.43L342.377 104.894C341.334 104.591 340.841 106.551 342.146 106.928Z" fill="#080B09"/>
<path d="M396.311 121.459L374.825 116.742C375.02 116.057 375.346 115.421 375.782 114.879C376.219 114.336 376.757 113.898 377.361 113.592C377.965 113.286 378.622 113.119 379.291 113.102C379.959 113.085 380.623 113.219 381.24 113.494L396.923 120.136C397.444 120.286 397.092 121.687 396.311 121.459Z" fill="#080B09"/>
<path d="M359.608 125.183L349.417 139.908L353.255 145.729" stroke="#E56441" stroke-width="2.23881" stroke-linecap="round"/>
<path d="M378.56 285.829C380.533 285.829 382.133 281.087 382.133 275.238C382.133 269.389 380.533 264.646 378.56 264.646C376.586 264.646 374.987 269.389 374.987 275.238C374.987 281.087 376.586 285.829 378.56 285.829Z" fill="white"/>
<path d="M543.239 431.548L490.261 436.206L481.216 395.009L470.321 363.33L526.076 356.171L533.046 391.625L543.239 431.548Z" fill="#FFCCB3"/>
<path d="M527.958 365.745L529.912 375.687L475.007 376.954L471.395 366.453L527.958 365.745Z" fill="#FF967C"/>
<path d="M484.534 319.843C504.779 319.843 521.191 302.233 521.191 280.509C521.191 258.787 504.779 241.176 484.534 241.176C464.287 241.176 447.875 258.787 447.875 280.509C447.875 302.233 464.287 319.843 484.534 319.843Z" fill="#F40638"/>
<path d="M477.464 262.018C477.464 262.018 516.098 255.213 519.379 268.45C526.467 295.068 535.18 337.8 537.299 358.237C537.37 359.105 537.28 359.981 537.036 360.813C536.791 361.644 536.394 362.416 535.87 363.082C535.346 363.749 534.703 364.298 533.981 364.696C533.258 365.095 532.469 365.336 531.658 365.407L473.472 370.736C471.22 370.96 468.974 370.251 467.195 368.754C465.415 367.256 464.237 365.085 463.904 362.685L448.146 286.128L477.464 262.018Z" fill="#F40638"/>
<path d="M364.129 74.5984C364.129 74.5984 365.5 101.118 386.438 113.97C386.438 113.97 392.561 134.31 415.413 139.094C415.413 139.094 414.063 120.399 424.955 120.596C443.45 120.933 434.353 151.034 421.849 155.973C413.351 159.329 408.233 171.241 420.847 198.389C449.812 187.304 470.182 142.538 462.195 92.8719C455.8 53.0986 409.846 40.1105 400.404 41.4061C400.404 41.4061 361.192 26.8716 340.546 66.7336C322.897 100.809 339.38 121.146 339.38 121.146L348.786 90.8187C348.786 90.8187 352.715 93.779 364.129 74.5984Z" fill="#080B09"/>
<path d="M543.435 529.823H403.113C400.398 529.823 397.778 528.759 395.742 526.833C393.708 524.905 392.398 522.248 392.061 519.357L379.109 408.447C378.912 406.765 379.052 405.058 379.518 403.438C379.983 401.819 380.765 400.324 381.81 399.053C382.855 397.782 384.14 396.765 385.58 396.068C387.02 395.37 388.582 395.01 390.161 395.01H556.387C557.966 395.01 559.528 395.37 560.968 396.068C562.408 396.765 563.693 397.782 564.738 399.053C565.783 400.324 566.565 401.819 567.03 403.438C567.496 405.058 567.636 406.765 567.439 408.447L554.487 519.357C554.149 522.248 552.84 524.905 550.805 526.833C548.77 528.759 546.149 529.823 543.435 529.823Z" fill="url(#paint1_linear_420_300)"/>
<path d="M473.604 470.916C479.044 470.916 483.453 466.185 483.453 460.349C483.453 454.512 479.044 449.78 473.604 449.78C468.165 449.78 463.755 454.512 463.755 460.349C463.755 466.185 468.165 470.916 473.604 470.916Z" fill="white"/>
<path d="M150.704 241.687L142.249 224.281C142.249 224.281 112.35 205.93 108.885 199.295C105.419 192.659 104.057 173.715 110.191 168.865C110.191 168.865 86.3365 149.64 90.3975 145.745C94.445 141.568 141.313 178.925 141.313 178.925C141.313 178.925 135.607 151.403 144.278 150.113C146.627 160.78 150.651 170.941 156.178 180.159C165.307 195.304 166.432 208.869 166.432 208.869L177.191 231.026L150.704 241.687Z" fill="#FFCCB3"/>
<path d="M111.799 169.352L126.246 179.12" stroke="#FF967C" stroke-width="2.87188" stroke-linecap="round" stroke-linejoin="round"/>
<path d="M109.646 180.527L121.907 188.705" stroke="#FF967C" stroke-width="2.87188" stroke-linecap="round" stroke-linejoin="round"/>
<path d="M112.028 192.609L120.206 198.155" stroke="#FF967C" stroke-width="2.87188" stroke-linecap="round" stroke-linejoin="round"/>
<path d="M168.312 37.928C172.114 37.928 175.197 34.6206 175.197 30.5404C175.197 26.4602 172.114 23.1528 168.312 23.1528C164.509 23.1528 161.426 26.4602 161.426 30.5404C161.426 34.6206 164.509 37.928 168.312 37.928Z" fill="white"/>
<path d="M196.12 37.928C199.923 37.928 203.005 34.6206 203.005 30.5404C203.005 26.4602 199.923 23.1528 196.12 23.1528C192.317 23.1528 189.235 26.4602 189.235 30.5404C189.235 34.6206 192.317 37.928 196.12 37.928Z" fill="white"/>
<path d="M222.249 37.928C226.052 37.928 229.134 34.6206 229.134 30.5404C229.134 26.4602 226.052 23.1528 222.249 23.1528C218.446 23.1528 215.364 26.4602 215.364 30.5404C215.364 34.6206 218.446 37.928 222.249 37.928Z" fill="white"/>
<path opacity="0.7" d="M15.4257 29.6351C43.1076 54.966 116.111 112.722 208.828 115.482C210.724 115.542 212.523 116.395 213.843 117.857C215.163 119.318 215.9 121.275 215.897 123.31V280.938C215.898 282.949 215.179 284.883 213.887 286.34C212.595 287.797 210.83 288.665 208.958 288.765C181.082 290.253 75.373 290.08 5.32891 209.617C4.07969 208.172 3.38857 206.271 3.39408 204.301V35.6046C3.39329 34.1089 3.79159 32.6435 4.54253 31.3825C5.29348 30.1224 6.3648 29.1182 7.63054 28.4907C8.8955 27.8623 10.3029 27.636 11.6844 27.8395C13.0658 28.0422 14.3639 28.6647 15.4257 29.6351Z" fill="#E51A4B"/>
<path d="M25.9268 76.0854C25.9268 76.0854 47.771 98.8598 77.6294 113.007" stroke="white" stroke-width="7.4328" stroke-miterlimit="10" stroke-linecap="round"/>
<path opacity="0.4" d="M25.9268 103.696C25.9268 103.696 56.3282 134.122 95.8756 145.42" stroke="white" stroke-width="7.4328" stroke-miterlimit="10" stroke-linecap="round"/>
<path d="M21.3979 204.656V138.816L42.9116 155.335V222.766L21.3979 204.656Z" fill="white"/>
<path d="M57.71 231.261V184.35L79.2236 198.155V244.528L57.71 231.261Z" fill="white"/>
<path d="M149.703 267.984V221.073L128.189 217.914V264.287L149.703 267.984Z" fill="white"/>
<path d="M185.041 269.993V187.86H163.527V269.457L185.041 269.993Z" fill="white"/>
<path d="M92.9502 251.815V230.367L114.464 236.859V260.174L92.9502 251.815Z" fill="white"/>
<g opacity="0.7">
<path opacity="0.7" d="M69.3072 356.259C96.989 378.068 169.992 434.981 262.709 425.942C263.611 425.829 264.525 425.925 265.39 426.224C266.254 426.523 267.048 427.018 267.719 427.675C268.389 428.332 268.921 429.136 269.276 430.033C269.631 430.93 269.802 431.898 269.779 432.871V590.5C269.731 592.586 269.016 594.591 267.752 596.178C266.488 597.765 264.754 598.835 262.84 599.21C234.963 604.245 119.022 601.759 59.2096 537.526C58.5909 536.86 58.1013 536.069 57.7691 535.198C57.4369 534.328 57.2693 533.396 57.2756 532.456V363.76C57.2756 357.079 64.5693 352.526 69.3072 356.259Z" fill="#E51A4B"/>
</g>
<path d="M514.862 525.297C514.862 525.297 522.278 525.958 521.161 529.974C520.044 533.989 513.423 532.136 507.377 536.151C501.331 540.167 477.429 543.033 465.49 540.898C453.55 538.763 450.234 525.297 450.234 525.297C450.234 525.297 448.238 512.522 469.327 511.21C490.416 509.899 500.231 517.16 503.899 525.03L514.862 525.297Z" fill="#FFCCB3"/>
<path d="M459.2 513.196L463.755 526.34" stroke="#E56441" stroke-width="2.23881" stroke-linecap="round"/>
<path d="M470.996 511.056L475.551 524.201" stroke="#E56441" stroke-width="2.23881" stroke-linecap="round"/>
<path d="M483.453 512.169L488.008 525.313" stroke="#E56441" stroke-width="2.23881" stroke-linecap="round"/>
<path opacity="0.7" d="M739.294 369.082C700.684 404.416 598.854 484.981 469.523 488.83C466.878 488.915 464.368 490.103 462.526 492.143C460.685 494.182 459.657 496.911 459.661 499.749V719.625C459.66 722.43 460.664 725.127 462.466 727.16C464.268 729.192 466.729 730.404 469.339 730.542C508.225 732.618 655.675 732.376 753.384 620.139C755.124 618.123 756.092 615.473 756.084 612.724V377.41C756.084 375.323 755.525 373.28 754.479 371.52C753.432 369.762 751.936 368.362 750.173 367.486C748.41 366.61 746.442 366.295 744.521 366.578C742.592 366.861 740.782 367.73 739.294 369.082Z" fill="#E51A4B"/>
<path d="M724.653 433.876C724.653 433.876 694.182 465.645 652.534 485.378" stroke="white" stroke-width="10.368" stroke-miterlimit="10" stroke-linecap="round"/>
<path opacity="0.4" d="M724.654 472.391C724.654 472.391 682.242 514.832 627.078 530.591" stroke="white" stroke-width="10.368" stroke-miterlimit="10" stroke-linecap="round"/>
<path d="M704.848 299.522H586.979C584.666 299.522 582.376 300.011 580.24 300.961C578.103 301.91 576.162 303.302 574.527 305.056C572.892 306.811 571.594 308.894 570.71 311.186C569.825 313.478 569.369 315.935 569.369 318.417V357.544C569.369 360.025 569.825 362.482 570.71 364.774C571.594 367.068 572.892 369.15 574.527 370.904C576.162 372.66 578.103 374.051 580.24 375.001C582.376 375.95 584.667 376.439 586.979 376.439H628.825L641.168 389.687C642.325 390.928 643.891 391.625 645.529 391.625C647.166 391.625 648.732 390.928 649.889 389.687L662.232 376.439H704.848C709.516 376.439 714.003 374.448 717.301 370.904C720.607 367.361 722.457 362.555 722.457 357.544V318.417C722.457 313.406 720.607 308.6 717.301 305.056C714.003 301.513 709.516 299.522 704.848 299.522Z" fill="#F7F7F7"/>
<path d="M619.372 325.57C617.798 324.01 615.735 323.145 613.594 323.145C611.453 323.145 609.391 324.01 607.816 325.57L605.641 327.726L603.464 325.57C601.891 324.01 599.828 323.145 597.686 323.145C595.544 323.145 593.481 324.01 591.907 325.57C591.077 326.377 590.413 327.362 589.958 328.46C589.504 329.559 589.27 330.748 589.27 331.949C589.27 333.151 589.504 334.34 589.958 335.439C590.413 336.538 591.077 337.522 591.907 338.329L605.641 351.986L619.372 338.508C620.238 337.707 620.938 336.714 621.411 335.598C621.891 334.481 622.135 333.268 622.135 332.04C622.135 330.812 621.891 329.598 621.411 328.481C620.938 327.365 620.238 326.372 619.372 325.57Z" fill="#F4608A"/>
<path d="M634.706 333.55C634.824 331.896 635.422 330.6 636.493 329.664C637.564 328.729 638.957 328.261 640.665 328.261C641.806 328.261 642.79 328.486 643.609 328.936C644.451 329.368 645.081 329.962 645.498 330.717C645.931 331.473 646.151 332.327 646.151 333.281C646.151 334.396 645.852 335.359 645.246 336.168C644.656 336.978 643.884 337.5 642.932 337.734V337.868C644.018 338.156 644.884 338.723 645.522 339.568C646.159 340.413 646.482 341.52 646.482 342.887C646.482 343.913 646.262 344.839 645.821 345.667C645.388 346.477 644.734 347.115 643.861 347.583C642.987 348.05 641.94 348.284 640.72 348.284C638.941 348.284 637.485 347.79 636.343 346.8C635.202 345.793 634.564 344.372 634.431 342.537H636.643C636.761 343.616 637.17 344.498 637.878 345.181C638.579 345.864 639.524 346.206 640.696 346.206C641.869 346.206 642.759 345.883 643.357 345.235C643.979 344.57 644.294 343.715 644.294 342.672C644.294 341.322 643.869 340.351 643.034 339.757C642.192 339.163 640.925 338.867 639.232 338.867H638.658V336.815H639.264C640.799 336.798 641.972 336.527 642.759 336.006C643.546 335.467 643.94 334.639 643.94 333.523C643.94 332.57 643.648 331.805 643.058 331.229C642.491 330.654 641.665 330.366 640.594 330.366C639.555 330.366 638.713 330.654 638.075 331.229C637.438 331.805 637.06 332.579 636.95 333.55H634.706ZM652.307 344.75L649.497 352.009H647.962L649.796 344.75H652.307ZM666.145 330.771H657.321V336.924C657.707 336.348 658.274 335.881 659.029 335.521C659.785 335.142 660.596 334.954 661.469 334.954C662.863 334.954 663.996 335.268 664.862 335.898C665.736 336.51 666.358 337.31 666.728 338.3C667.113 339.272 667.302 340.306 667.302 341.403C667.302 342.699 667.082 343.858 666.625 344.885C666.177 345.91 665.476 346.719 664.539 347.313C663.618 347.907 662.469 348.204 661.092 348.204C659.336 348.204 657.912 347.717 656.817 346.746C655.731 345.775 655.062 344.479 654.834 342.86H657.069C657.29 343.886 657.746 344.686 658.455 345.262C659.155 345.838 660.045 346.125 661.115 346.125C662.445 346.125 663.437 345.703 664.114 344.858C664.783 343.994 665.114 342.86 665.114 341.457C665.114 340.054 664.783 338.974 664.114 338.219C663.437 337.446 662.453 337.059 661.147 337.059C660.257 337.059 659.478 337.293 658.801 337.761C658.148 338.21 657.675 338.831 657.368 339.622H655.212V328.612H666.145V330.771ZM670.073 346.179C672.198 344.345 673.867 342.842 675.071 341.673C676.284 340.486 677.299 339.253 678.118 337.976C678.96 336.68 679.377 335.413 679.377 334.171C679.377 333.002 679.11 332.084 678.574 331.419C678.055 330.735 677.205 330.393 676.032 330.393C674.89 330.393 674.001 330.78 673.363 331.554C672.741 332.309 672.411 333.326 672.356 334.603H670.144C670.215 332.588 670.781 331.032 671.852 329.935C672.93 328.837 674.316 328.288 676.008 328.288C677.732 328.288 679.102 328.801 680.101 329.826C681.125 330.852 681.636 332.264 681.636 334.063C681.636 335.556 681.219 337.014 680.385 338.435C679.558 339.838 678.622 341.08 677.567 342.159C676.512 343.22 675.158 344.461 673.513 345.883H682.164V347.934H670.073V346.179ZM696.002 330.555L689.012 348.15H686.698L693.79 330.798H684.084V328.693H696.002V330.555Z" fill="#1C85E8"/>
<path opacity="0.7" d="M13.2769 659.657H102.144C103.888 659.657 105.614 659.289 107.225 658.573C108.836 657.857 110.3 656.807 111.533 655.485C112.765 654.162 113.743 652.592 114.41 650.863C115.078 649.135 115.421 647.282 115.421 645.412V615.912C115.421 614.042 115.078 612.189 114.41 610.461C113.743 608.733 112.765 607.162 111.533 605.839C110.3 604.516 108.836 603.467 107.225 602.751C105.614 602.035 103.888 601.667 102.144 601.667H70.5975L61.2878 591.678C60.4164 590.743 59.2341 590.218 58.0014 590.218C56.7695 590.218 55.5872 590.743 54.7158 591.678L45.4062 601.667H13.2769C9.7552 601.667 6.37831 603.168 3.88854 605.839C1.39877 608.51 0 612.134 0 615.912V645.412C0 649.19 1.39877 652.813 3.88854 655.485C6.37831 658.156 9.7552 659.657 13.2769 659.657Z" fill="#E51A4B"/>
<path d="M55.1416 637.913C56.7474 636.529 58.0045 635.397 58.9152 634.515C59.8252 633.62 60.5903 632.691 61.2098 631.728C61.8418 630.751 62.1575 629.795 62.1575 628.859C62.1575 627.977 61.9552 627.285 61.5506 626.784C61.1586 626.268 60.5202 626.01 59.6354 626.01C58.7759 626.01 58.106 626.302 57.6259 626.885C57.1583 627.455 56.9048 628.221 56.867 629.184H55.1983C55.2494 627.665 55.6792 626.492 56.4876 625.665C57.2968 624.837 58.3398 624.424 59.6166 624.424C60.9185 624.424 61.9489 624.81 62.7077 625.584C63.4783 626.356 63.864 627.421 63.864 628.778C63.864 629.904 63.5484 631.002 62.9163 632.073C62.2968 633.132 61.5884 634.067 60.7926 634.881C59.996 635.681 58.9782 636.617 57.7392 637.689H64.2624V639.235H55.1416V637.913ZM65.8398 636.122V634.719L72.4952 624.83H74.5623V634.515H76.4585V636.122H74.5623V639.398H72.8557V636.122H65.8398ZM72.9313 626.763L67.8305 634.515H72.9313V626.763ZM78.1446 628.391C78.2327 627.143 78.6814 626.166 79.4906 625.461C80.2998 624.756 81.3491 624.403 82.6385 624.403C83.498 624.403 84.2372 624.573 84.8567 624.912C85.4887 625.237 85.9626 625.685 86.279 626.255C86.6073 626.824 86.7718 627.469 86.7718 628.187C86.7718 629.029 86.5443 629.754 86.0893 630.365C85.647 630.975 85.0653 631.368 84.345 631.545V631.646C85.1668 631.863 85.8178 632.29 86.2979 632.928C86.7781 633.566 87.0182 634.399 87.0182 635.431C87.0182 636.203 86.8537 636.902 86.5254 637.526C86.1964 638.137 85.7036 638.618 85.0464 638.97C84.3891 639.323 83.5988 639.5 82.6762 639.5C81.3365 639.5 80.2361 639.127 79.3765 638.381C78.5169 637.621 78.0368 636.55 77.936 635.166H79.604C79.6929 635.98 80.0023 636.644 80.5336 637.159C81.0641 637.676 81.7726 637.933 82.6573 637.933C83.5421 637.933 84.212 637.689 84.667 637.2C85.1345 636.698 85.3691 636.054 85.3691 635.268C85.3691 634.251 85.0526 633.518 84.4206 633.07C83.7885 632.622 82.8344 632.399 81.5577 632.399H81.1216V630.853H81.5766C82.7392 630.839 83.6177 630.636 84.212 630.242C84.8063 629.835 85.103 629.211 85.103 628.371C85.103 627.652 84.8818 627.075 84.4395 626.641C84.0097 626.207 83.3902 625.99 82.581 625.99C81.7978 625.99 81.1657 626.207 80.6847 626.641C80.2046 627.075 79.9204 627.659 79.8315 628.391H78.1446ZM96.9898 628.187C96.712 626.682 95.8461 625.929 94.3922 625.929C93.2666 625.929 92.4259 626.397 91.8702 627.333C91.3137 628.255 91.0421 629.781 91.0547 631.91C91.3452 631.205 91.8261 630.656 92.496 630.263C93.1784 629.855 93.9373 629.652 94.7709 629.652C96.0736 629.652 97.1095 630.086 97.8809 630.954C98.6649 631.823 99.0569 633.023 99.0569 634.556C99.0569 635.478 98.8861 636.306 98.5445 637.038C98.2162 637.77 97.7101 638.354 97.0276 638.787C96.3578 639.221 95.5423 639.438 94.5819 639.438C93.2792 639.438 92.2622 639.126 91.5286 638.502C90.7957 637.878 90.2833 637.018 89.9928 635.919C89.7024 634.82 89.5568 633.464 89.5568 631.85C89.5568 626.872 91.1751 624.383 94.4111 624.383C95.6501 624.383 96.623 624.742 97.3315 625.461C98.0391 626.18 98.4563 627.089 98.5823 628.187H96.9898ZM94.4111 631.219C93.8672 631.219 93.3556 631.341 92.8754 631.585C92.3944 631.816 92.0024 632.175 91.6994 632.664C91.4089 633.138 91.2633 633.721 91.2633 634.413C91.2633 635.444 91.5412 636.284 92.0977 636.936C92.6542 637.573 93.45 637.893 94.4867 637.893C95.3715 637.893 96.0736 637.6 96.5915 637.018C97.1229 636.42 97.3881 635.621 97.3881 634.616C97.3881 633.559 97.1355 632.731 96.6293 632.134C96.124 631.524 95.384 631.219 94.4111 631.219Z" fill="white"/>
<path d="M486.288 635.11C486.288 635.11 514.629 628.744 527.587 613.994C544.756 594.451 548.716 571.015 567.526 568.604C597.047 564.822 614.16 676.651 650 661.521C685.839 646.391 677.369 562.88 698.693 548.726C713.381 538.975 721.017 567.974 741.585 560.409" stroke="white" stroke-width="10.368" stroke-miterlimit="10" stroke-linecap="round"/>
<path opacity="0.7" d="M207.381 543.349C228.567 549.838 278.129 561.436 343.073 553.436C344.117 553.278 345.18 553.364 346.189 553.69C347.198 554.015 348.13 554.573 348.918 555.323C349.706 556.074 350.332 557 350.753 558.037C351.174 559.073 351.381 560.196 351.357 561.326V668.87C351.309 671.244 350.482 673.522 349.023 675.305C347.564 677.088 345.564 678.262 343.378 678.619C320.254 682.011 251.596 689.267 200.431 665.565C199.122 664.943 198.013 663.92 197.246 662.623C196.478 661.326 196.087 659.815 196.12 658.279V552.86C196.12 546.625 201.97 541.691 207.381 543.349Z" fill="url(#paint2_linear_420_300)"/>
<path d="M17.359 642.374H20.2699C20.8107 642.373 21.3287 642.143 21.7104 641.733C22.093 641.323 22.3079 640.767 22.3087 640.187V625.817C22.3079 625.237 22.093 624.682 21.7104 624.271C21.3287 623.862 20.8107 623.631 20.2699 623.63H17.359C16.8183 623.631 16.3003 623.862 15.9186 624.271C15.536 624.682 15.3211 625.237 15.3203 625.817V640.187C15.3211 640.767 15.536 641.323 15.9186 641.733C16.3003 642.143 16.8183 642.373 17.359 642.374Z" fill="white"/>
<path d="M30.2052 614.57C29.041 614.57 28.4585 615.195 28.4585 618.319C28.4585 621.289 25.779 623.677 24.0552 624.909V640.388C25.9199 641.315 29.6518 642.686 35.4461 642.686H37.3093C38.4081 642.687 39.4708 642.272 40.3107 641.512C41.1506 640.753 41.7134 639.699 41.8984 638.538L43.2027 630.415C43.3184 629.698 43.2869 628.962 43.109 628.259C42.9319 627.556 42.6139 626.903 42.177 626.345C41.7394 625.789 41.1939 625.34 40.5791 625.034C39.9636 624.726 39.2929 624.567 38.6144 624.567H33.1169C33.7356 622.986 34.0339 621.283 33.9906 619.569C33.9906 615.82 31.3702 614.571 30.2052 614.571V614.57Z" fill="white"/>
<path d="M114.358 515.744C98.9112 509.901 86.3892 491.727 86.3892 475.153C86.3892 458.577 98.9112 449.879 114.358 455.724V436.46C89.4032 427.019 69.1733 441.072 69.1733 467.848C69.1733 494.624 89.4032 523.983 114.358 533.425C138.259 542.467 157.813 529.95 159.424 505.353L142.219 498.844C141.003 513.754 128.998 521.283 114.358 515.744Z" fill="white"/>
<path d="M120.096 432.476V451.738C135.543 457.583 148.065 475.757 148.065 492.331C148.065 493.197 148.024 494.037 147.957 494.859L165.161 501.369C165.232 500.283 165.281 499.184 165.281 498.052C165.281 471.276 145.051 441.916 120.096 432.476Z" fill="#E51A4B"/>
<path d="M114.358 515.744V533.425" stroke="white" stroke-width="2.42819" stroke-miterlimit="10"/>
<path d="M86.3892 475.153L69.1733 468.639" stroke="white" stroke-width="2.42819" stroke-miterlimit="10"/>
<path d="M186.821 477.906L218.766 484.419" stroke="white" stroke-width="10.368" stroke-miterlimit="10" stroke-linecap="round"/>
<path opacity="0.4" d="M186.821 531.612L218.766 538.126" stroke="white" stroke-width="10.368" stroke-miterlimit="10" stroke-linecap="round"/>
<path d="M186.821 505.306L232.716 514.663" stroke="white" stroke-width="10.368" stroke-miterlimit="10" stroke-linecap="round"/>
<g opacity="0.7">
<path opacity="0.7" d="M762.965 17.1693C735.281 38.9779 684.643 93.9724 574.124 112.244C565.662 113.643 562.494 120.102 562.494 127.24V277.593C562.541 279.679 563.257 281.685 564.521 283.271C565.784 284.857 567.519 285.928 569.433 286.302C597.31 291.337 704.668 261.953 768.869 202.794C775 197.144 775 187.665 775 185.695V24.6705C775 17.9899 767.704 13.4368 762.965 17.1693Z" fill="url(#paint3_linear_420_300)"/>
</g>
<path d="M577.106 139.037V232.034C577.106 232.844 577.275 233.643 577.601 234.372C577.927 235.102 578.402 235.744 578.99 236.251C579.579 236.757 580.266 237.115 581.001 237.298C581.736 237.48 582.499 237.484 583.236 237.307C599.023 233.513 641.727 222.545 668.695 208.894C669.561 208.456 670.285 207.764 670.797 206.9C671.3 206.035 671.576 205.032 671.568 204.009V113.446C671.576 112.54 671.363 111.649 670.954 110.854C670.553 110.059 669.97 109.387 669.254 108.898C668.545 108.409 667.735 108.119 666.892 108.056C666.05 107.992 665.208 108.157 664.436 108.535C649.41 115.962 613.295 132.185 581.884 133.644C580.594 133.71 579.377 134.308 578.487 135.312C577.597 136.316 577.103 137.651 577.106 139.037Z" fill="white"/>
<path d="M581.01 217.064V226.846C581.01 227.586 581.169 228.317 581.475 228.981C581.781 229.644 582.225 230.224 582.774 230.673C583.322 231.123 583.961 231.43 584.638 231.571C585.316 231.713 586.014 231.685 586.68 231.49L633.918 217.633C634.666 217.415 635.343 216.994 635.894 216.411C636.445 215.829 636.839 215.105 637.051 214.308C637.264 213.511 637.279 212.67 637.098 211.865C636.917 211.059 636.547 210.318 636.028 209.711L610.697 180.474C610.241 179.95 609.69 179.54 609.068 179.277C608.446 179.012 607.777 178.9 607.111 178.948C606.445 178.996 605.797 179.203 605.216 179.554C604.633 179.905 604.131 180.391 603.746 180.976L581.831 214.287C581.296 215.1 581.01 216.069 581.01 217.064Z" fill="#1C85E8"/>
<path opacity="0.6" d="M629.171 194.122L643.348 210.263C643.805 210.782 644.395 211.143 645.04 211.3C645.686 211.457 646.363 211.402 646.985 211.143C651.172 209.388 660.579 205.42 665.341 203.222C665.939 202.945 666.443 202.487 666.805 201.904C667.159 201.32 667.348 200.637 667.348 199.938V184.815C667.348 184.043 667.112 183.292 666.687 182.675L646.756 154.028C646.394 153.514 645.914 153.112 645.363 152.865C644.812 152.619 644.206 152.536 643.616 152.625C643.025 152.716 642.466 152.974 641.994 153.375C641.53 153.777 641.175 154.304 640.963 154.905L628.479 190.405C628.258 191.033 628.203 191.714 628.329 192.371C628.447 193.028 628.746 193.634 629.171 194.122Z" fill="#1C85E8"/>
<path d="M616.727 168.921C620.93 168.921 624.339 165.265 624.339 160.755C624.339 156.245 620.93 152.59 616.727 152.59C612.524 152.59 609.115 156.245 609.115 160.755C609.115 165.265 612.524 168.921 616.727 168.921Z" fill="#FEBB94"/>
<path d="M693.514 105.501C713.043 94.8744 731.84 82.7588 749.756 69.2488" stroke="white" stroke-width="10.368" stroke-miterlimit="10" stroke-linecap="round"/>
<path d="M693.514 140.775C693.514 140.775 706.313 134.082 723.874 122.649" stroke="white" stroke-width="10.368" stroke-miterlimit="10" stroke-linecap="round"/>
<path d="M693.514 175.262C713.043 164.635 731.84 152.52 749.756 139.01" stroke="white" stroke-width="10.368" stroke-miterlimit="10" stroke-linecap="round"/>
<path d="M693.514 213.981C713.043 203.354 731.84 191.239 749.756 177.729" stroke="white" stroke-width="10.368" stroke-miterlimit="10" stroke-linecap="round"/>
<path d="M587.96 264.127C591.799 264.127 594.912 260.788 594.912 256.669C594.912 252.55 591.799 249.21 587.96 249.21C584.121 249.21 581.01 252.55 581.01 256.669C581.01 260.788 584.121 264.127 587.96 264.127Z" fill="white"/>
<path d="M628.267 252.06C632.1 252.06 635.218 248.722 635.218 244.602C635.218 240.483 632.1 237.145 628.267 237.145C624.426 237.145 621.316 240.483 621.316 244.602C621.316 248.722 624.426 252.06 628.267 252.06Z" fill="white"/>
<path d="M664.618 238.738C668.459 238.738 671.568 235.398 671.568 231.279C671.568 227.16 668.459 223.822 664.618 223.822C660.784 223.822 657.667 227.16 657.667 231.279C657.667 235.398 660.784 238.738 664.618 238.738Z" fill="white"/>
<defs>
<linearGradient id="paint0_linear_420_300" x1="328.775" y1="-645.996" x2="653.787" y2="1232.21" gradientUnits="userSpaceOnUse">
<stop stop-color="white"/>
<stop offset="1" stop-color="#94B9FF"/>
</linearGradient>
<linearGradient id="paint1_linear_420_300" x1="468.581" y1="394.689" x2="490.871" y2="682.154" gradientUnits="userSpaceOnUse">
<stop stop-color="white"/>
<stop offset="1" stop-color="#FF6D7C"/>
</linearGradient>
<linearGradient id="paint2_linear_420_300" x1="269.874" y1="542.693" x2="298.692" y2="838.817" gradientUnits="userSpaceOnUse">
<stop stop-color="white"/>
<stop offset="1" stop-color="#E51A4B"/>
</linearGradient>
<linearGradient id="paint3_linear_420_300" x1="643.121" y1="-322.019" x2="825.533" y2="564.755" gradientUnits="userSpaceOnUse">
<stop stop-color="white"/>
<stop offset="1" stop-color="#F40638"/>
</linearGradient>
</defs>
</svg>
