<svg width="775" height="731" fill="none" xmlns="http://www.w3.org/2000/svg"><path d="M155.245 0h474.549c7.178 0 14.058 3.058 19.135 8.502 5.07 5.444 7.919 12.828 7.919 20.527v32.052H128.189V29.029c0-7.699 2.852-15.082 7.925-20.527C141.188 3.058 148.07 0 155.245 0z" fill="#F40638"/><path d="M128.189 61.08h528.659v514.167a56.41 56.41 0 0 1-3.762 20.308c-2.488 6.439-6.125 12.289-10.721 17.217-4.59 4.928-10.045 8.837-16.043 11.504-6.006 2.666-12.437 4.04-18.931 4.04H177.649c-6.494 0-12.926-1.374-18.927-4.04-6.001-2.667-11.454-6.576-16.046-11.504-4.593-4.928-8.236-10.778-10.722-17.217a56.455 56.455 0 0 1-3.765-20.308V61.081z" fill="url(#a)"/><path d="M473.604 425.809H328.6v75.559h145.004v-75.559z" fill="#FFCCB3"/><path d="M327.746 472.391c-17.006 17.954-23.697 106.371-22.801 155.925h202.432s-.363-108.063-15.711-144.478c-14.113-33.489-37.574 15.911-163.92-11.447z" fill="#1F2D49"/><path d="M449.238 81.937s16.797-20.557 49.399-23.547c32.603-2.991 42.358 27.648 40.965 46.472-1.394 18.824-26.944 57.703-21.834 74.153 5.11 16.448-18.919 8.473-21.538-24.425-2.619-32.898-12.375-78.755-38.854-62.306l-8.138-10.347z" fill="#080B09"/><path d="M454.337 72.314s4.017-2.497 6.925 3.329c2.91 5.826 8.343 17.656 1.457 20.792-6.886 3.137-8.382-24.12-8.382-24.12z" fill="#1C85E8"/><path d="M361.206 261.772s26.045 31.366 17.383 41.426c-17.156 20.678-62.784 59.54-77.735 72.404a5.994 5.994 0 0 1-2.168 1.141 5.761 5.761 0 0 1-2.411.159 5.875 5.875 0 0 1-2.282-.848 6.319 6.319 0 0 1-1.803-1.724l-35.353-49.872c-1.383-1.919-2.027-4.335-1.802-6.75.226-2.413 1.304-4.643 3.014-6.231l68.48-63.36 34.677 13.655z" fill="#F40638"/><path d="M320.089 301.648s-32.458 20.699-35.383 62.289l6.464 8.91s4.059 7.589 9.684 2.755l31.643-27.197-12.408-46.757z" fill="#BC1940"/><path d="M350.437 317.414c20.245 0 36.658-17.609 36.658-39.333 0-21.723-16.413-39.333-36.658-39.333-20.246 0-36.659 17.61-36.659 39.333 0 21.724 16.413 39.333 36.659 39.333z" fill="#F40638"/><path d="m254.979 401.378-32.037-45.513 30.328-25.263 4.753-4.106 33.232 46.629-5.787 4.465-30.489 23.788z" fill="#FFCCB3"/><path d="M285.468 377.59c-8.582-12.328-24.719-36.421-32.198-46.988l4.754-4.106 33.147 46.351-5.703 4.743z" fill="#FF967C"/><path d="M238.474 407.691c14.697 0 26.611-12.784 26.611-28.553 0-15.771-11.914-28.554-26.611-28.554-14.698 0-26.612 12.783-26.612 28.554 0 15.769 11.914 28.553 26.612 28.553z" fill="#FFCCB3"/><path d="M261.006 363.777s-85.844-135.265-89.812-146.753c-3.862-11.218-24.138 15.777-24.138 15.777l66.438 155.531 47.512-24.555zM379.188 175.144l-10.32 77.198s-2.709 10.247 9.314 11.797c12.023 1.552 37.659-1.914 46.814-12.383 9.156-10.469 5.953-15.655 5.953-15.655l-19.418-83.792-32.343 22.835z" fill="#FFCCB3"/><path d="m377.752 185.133 25.243-9.566-31.273 49.732 6.03-40.166z" fill="#FF967C"/><path d="M350.627 79.788s-21.657 54.598-10.37 92.019c7.361 24.404 23.391 28.792 60.102 10.503 33.661-16.768 42.404-29.453 42.404-29.453l4.964-60.864s-75.106-60.87-97.1-12.205z" fill="#FFCCB3"/><path d="M368.686 230.147s-27.743 8.27-33.373 13.103c-5.63 4.833-9.725 44.113-18.046 63.516-12.319 28.725-20.294 44.006.402 75.572 12.481 19.04 8.237 67.442 8.237 67.442h151.973c-4.605-95.174 15.77-207.368 15.77-207.368l-68.588-16.958c-15.464 2.861-56.375 4.693-56.375 4.693z" fill="#F40638"/><path d="M363.834 231.682s2.052-14.961 8.608-16.014c6.556-1.053 46.62-7.519 52.852-4.703 6.231 2.815 13.775 20.717 13.775 20.717s-12.791 33.476-31.158 35.235c-18.367 1.76-49.979-4.315-46.636-16.762 3.343-12.446 2.559-18.473 2.559-18.473z" fill="#F40638"/><path d="M351.357 236.23s4.432 28.873 28.5 28.417c24.069-.456 59.045-39.193 59.045-39.193" stroke="#fff" stroke-width="1.357" stroke-miterlimit="10"/><path d="M460.406 278.082s-23.917 16.966-16.871 34.086c7.922 19.249 7.853 68.823-14.882 71.931-40.566 5.543-22.941 13.154-4.184 18.018 18.757 4.863 11.077 4.868 11.077 25.718 0 14.838 43.461 27.704 42.332 15.714-7.557-80.218 23.856-131.012-17.472-165.467z" fill="#BC1940"/><path d="m348.697 160.117 20.146 1.069a13.005 13.005 0 0 1-2.151 4.397c-1.788 2.349-4.91 4.582-10.303 3.997-3.406-.7-5.342-3.157-6.439-5.483a16.005 16.005 0 0 1-1.253-3.98z" fill="#E56441" stroke="#E56441"/><path d="M350.026 124.225c.842-3.349-.192-6.56-2.31-7.173-2.117-.613-4.517 1.605-5.359 4.954-.841 3.348.193 6.559 2.311 7.173 2.117.612 4.516-1.605 5.358-4.954zM381.192 133.761c.842-3.349-.192-6.56-2.31-7.173-2.117-.613-4.517 1.604-5.359 4.953-.841 3.349.193 6.56 2.311 7.173 2.118.613 4.516-1.604 5.358-4.953zM342.146 106.928l15.843 4.887c.275.059.562.008.806-.142s.428-.39.52-.676a4.299 4.299 0 0 0-.086-1.606 4.142 4.142 0 0 0-.669-1.441 3.811 3.811 0 0 0-1.143-1.043 3.546 3.546 0 0 0-1.432-.477l-13.608-1.536c-1.043-.303-1.536 1.657-.231 2.034zM396.311 121.459l-21.486-4.717a5.28 5.28 0 0 1 .957-1.863 4.837 4.837 0 0 1 1.579-1.287 4.519 4.519 0 0 1 1.93-.49 4.501 4.501 0 0 1 1.949.392l15.683 6.642c.521.15.169 1.551-.612 1.323z" fill="#080B09"/><path d="m359.608 125.183-10.191 14.725 3.838 5.821" stroke="#E56441" stroke-width="2.239" stroke-linecap="round"/><path d="M378.56 285.829c1.973 0 3.573-4.742 3.573-10.591 0-5.849-1.6-10.592-3.573-10.592-1.974 0-3.573 4.743-3.573 10.592s1.599 10.591 3.573 10.591z" fill="#fff"/><path d="m543.239 431.548-52.978 4.658-9.045-41.197-10.895-31.679 55.755-7.159 6.97 35.454 10.193 39.923z" fill="#FFCCB3"/><path d="m527.958 365.745 1.954 9.942-54.905 1.267-3.612-10.501 56.563-.708z" fill="#FF967C"/><path d="M484.534 319.843c20.245 0 36.657-17.61 36.657-39.334 0-21.722-16.412-39.333-36.657-39.333-20.247 0-36.659 17.611-36.659 39.333 0 21.724 16.412 39.334 36.659 39.334z" fill="#F40638"/><path d="M477.464 262.018s38.634-6.805 41.915 6.432c7.088 26.618 15.801 69.35 17.92 89.787a7.11 7.11 0 0 1-.263 2.576 6.765 6.765 0 0 1-1.166 2.269 6.24 6.24 0 0 1-1.889 1.614 5.86 5.86 0 0 1-2.323.711l-58.186 5.329c-2.252.224-4.498-.485-6.277-1.982-1.78-1.498-2.958-3.669-3.291-6.069l-15.758-76.557 29.318-24.11z" fill="#F40638"/><path d="M364.129 74.598s1.371 26.52 22.309 39.372c0 0 6.123 20.34 28.975 25.124 0 0-1.35-18.695 9.542-18.498 18.495.337 9.398 30.438-3.106 35.377-8.498 3.356-13.616 15.268-1.002 42.416 28.965-11.085 49.335-55.851 41.348-105.517-6.395-39.773-52.349-52.761-61.791-51.466 0 0-39.212-14.534-59.858 25.328-17.649 34.075-1.166 54.412-1.166 54.412l9.406-30.327s3.929 2.96 15.343-16.22z" fill="#080B09"/><path d="M543.435 529.823H403.113c-2.715 0-5.335-1.064-7.371-2.99-2.034-1.928-3.344-4.585-3.681-7.476l-12.952-110.91a12.77 12.77 0 0 1 .409-5.009 12.212 12.212 0 0 1 2.292-4.385 11.217 11.217 0 0 1 3.77-2.985 10.491 10.491 0 0 1 4.581-1.058h166.226c1.579 0 3.141.36 4.581 1.058a11.217 11.217 0 0 1 3.77 2.985 12.212 12.212 0 0 1 2.292 4.385 12.77 12.77 0 0 1 .409 5.009l-12.952 110.91c-.338 2.891-1.647 5.548-3.682 7.476-2.035 1.926-4.656 2.99-7.37 2.99z" fill="url(#b)"/><path d="M473.604 470.916c5.44 0 9.849-4.731 9.849-10.567 0-5.837-4.409-10.569-9.849-10.569-5.439 0-9.849 4.732-9.849 10.569 0 5.836 4.41 10.567 9.849 10.567z" fill="#fff"/><path d="m150.704 241.687-8.455-17.406s-29.899-18.351-33.364-24.986c-3.466-6.636-4.828-25.58 1.306-30.43 0 0-23.855-19.225-19.794-23.12 4.048-4.177 50.916 33.18 50.916 33.18s-5.706-27.522 2.965-28.812c2.349 10.667 6.373 20.828 11.9 30.046 9.129 15.145 10.254 28.71 10.254 28.71l10.759 22.157-26.487 10.661z" fill="#FFCCB3"/><path d="m111.799 169.352 14.447 9.768M109.646 180.527l12.261 8.178M112.028 192.609l8.178 5.546" stroke="#FF967C" stroke-width="2.872" stroke-linecap="round" stroke-linejoin="round"/><path d="M168.312 37.928c3.802 0 6.885-3.307 6.885-7.388 0-4.08-3.083-7.387-6.885-7.387-3.803 0-6.886 3.307-6.886 7.387s3.083 7.388 6.886 7.388zM196.12 37.928c3.803 0 6.885-3.307 6.885-7.388 0-4.08-3.082-7.387-6.885-7.387s-6.885 3.307-6.885 7.387 3.082 7.388 6.885 7.388zM222.249 37.928c3.803 0 6.885-3.307 6.885-7.388 0-4.08-3.082-7.387-6.885-7.387s-6.885 3.307-6.885 7.387 3.082 7.388 6.885 7.388z" fill="#fff"/><path opacity=".7" d="M15.426 29.635c27.682 25.331 100.685 83.087 193.402 85.847 1.896.06 3.695.913 5.015 2.375 1.32 1.461 2.057 3.418 2.054 5.453v157.628c.001 2.011-.718 3.945-2.01 5.402-1.292 1.457-3.057 2.325-4.929 2.425-27.876 1.488-133.585 1.315-203.63-79.148-1.248-1.445-1.94-3.346-1.934-5.316V35.605c0-1.496.398-2.961 1.149-4.222A7.485 7.485 0 0 1 7.63 28.49a6.848 6.848 0 0 1 4.053-.651 7.068 7.068 0 0 1 3.742 1.795z" fill="#E51A4B"/><path d="M25.927 76.085S47.77 98.86 77.629 113.007" stroke="#fff" stroke-width="7.433" stroke-miterlimit="10" stroke-linecap="round"/><path opacity=".4" d="M25.927 103.696s30.401 30.426 69.949 41.724" stroke="#fff" stroke-width="7.433" stroke-miterlimit="10" stroke-linecap="round"/><path d="M21.398 204.656v-65.84l21.514 16.519v67.431l-21.514-18.11zM57.71 231.261V184.35l21.514 13.805v46.373L57.71 231.261zM149.703 267.984v-46.911l-21.514-3.159v46.373l21.514 3.697zM185.041 269.993V187.86h-21.514v81.597l21.514.536zM92.95 251.815v-21.448l21.514 6.492v23.315l-21.514-8.359z" fill="#fff"/><path opacity=".7" d="M69.307 356.259c27.682 21.809 100.685 78.722 193.402 69.683a5.934 5.934 0 0 1 2.681.282 6.26 6.26 0 0 1 2.329 1.451 6.81 6.81 0 0 1 1.557 2.358c.355.897.526 1.865.503 2.838V590.5c-.048 2.086-.763 4.091-2.027 5.678-1.264 1.587-2.998 2.657-4.912 3.032-27.877 5.035-143.818 2.549-203.63-61.684a7.173 7.173 0 0 1-1.44-2.328 7.553 7.553 0 0 1-.494-2.742V363.76c0-6.681 7.293-11.234 12.031-7.501z" fill="#E51A4B"/><path d="M514.862 525.297s7.416.661 6.299 4.677c-1.117 4.015-7.738 2.162-13.784 6.177-6.046 4.016-29.948 6.882-41.887 4.747-11.94-2.135-15.256-15.601-15.256-15.601s-1.996-12.775 19.093-14.087c21.089-1.311 30.904 5.95 34.572 13.82l10.963.267z" fill="#FFCCB3"/><path d="m459.2 513.196 4.555 13.144M470.996 511.056l4.555 13.145M483.453 512.169l4.555 13.144" stroke="#E56441" stroke-width="2.239" stroke-linecap="round"/><path opacity=".7" d="M739.294 369.082c-38.61 35.334-140.44 115.899-269.771 119.748-2.645.085-5.155 1.273-6.997 3.313-1.841 2.039-2.869 4.768-2.865 7.606v219.876c-.001 2.805 1.003 5.502 2.805 7.535 1.802 2.032 4.263 3.244 6.873 3.382 38.886 2.076 186.336 1.834 284.045-110.403 1.74-2.016 2.708-4.666 2.7-7.415V377.41c0-2.087-.559-4.13-1.605-5.89-1.047-1.758-2.543-3.158-4.306-4.034a9.56 9.56 0 0 0-5.652-.908c-1.929.283-3.739 1.152-5.227 2.504z" fill="#E51A4B"/><path d="M724.653 433.876s-30.471 31.769-72.119 51.502" stroke="#fff" stroke-width="10.368" stroke-miterlimit="10" stroke-linecap="round"/><path opacity=".4" d="M724.654 472.391s-42.412 42.441-97.576 58.2" stroke="#fff" stroke-width="10.368" stroke-miterlimit="10" stroke-linecap="round"/><path d="M704.848 299.522H586.979c-2.313 0-4.603.489-6.739 1.439a17.572 17.572 0 0 0-5.713 4.095 19.038 19.038 0 0 0-3.817 6.13 20.095 20.095 0 0 0-1.341 7.231v39.127c0 2.481.456 4.938 1.341 7.23a19.006 19.006 0 0 0 3.817 6.13 17.564 17.564 0 0 0 5.713 4.097 16.585 16.585 0 0 0 6.739 1.438h41.846l12.343 13.248c1.157 1.241 2.723 1.938 4.361 1.938 1.637 0 3.203-.697 4.36-1.938l12.343-13.248h42.616c4.668 0 9.155-1.991 12.453-5.535 3.306-3.543 5.156-8.349 5.156-13.36v-39.127c0-5.011-1.85-9.817-5.156-13.361-3.298-3.543-7.785-5.534-12.453-5.534z" fill="#F7F7F7"/><path d="M619.372 325.57c-1.574-1.56-3.637-2.425-5.778-2.425-2.141 0-4.203.865-5.778 2.425l-2.175 2.156-2.177-2.156c-1.573-1.56-3.636-2.425-5.778-2.425-2.142 0-4.205.865-5.779 2.425a8.64 8.64 0 0 0-1.949 2.89 9.15 9.15 0 0 0-.688 3.489c0 1.202.234 2.391.688 3.49a8.63 8.63 0 0 0 1.949 2.89l13.734 13.657 13.731-13.478a8.467 8.467 0 0 0 2.039-2.91c.48-1.117.724-2.33.724-3.558a9.02 9.02 0 0 0-.724-3.559 8.48 8.48 0 0 0-2.039-2.911z" fill="#F4608A"/><path d="M634.706 333.55c.118-1.654.716-2.95 1.787-3.886 1.071-.935 2.464-1.403 4.172-1.403 1.141 0 2.125.225 2.944.675.842.432 1.472 1.026 1.889 1.781.433.756.653 1.61.653 2.564 0 1.115-.299 2.078-.905 2.887-.59.81-1.362 1.332-2.314 1.566v.134c1.086.288 1.952.855 2.59 1.7.637.845.96 1.952.96 3.319 0 1.026-.22 1.952-.661 2.78-.433.81-1.087 1.448-1.96 1.916-.874.467-1.921.701-3.141.701-1.779 0-3.235-.494-4.377-1.484-1.141-1.007-1.779-2.428-1.912-4.263h2.212c.118 1.079.527 1.961 1.235 2.644.701.683 1.646 1.025 2.818 1.025 1.173 0 2.063-.323 2.661-.971.622-.665.937-1.52.937-2.563 0-1.35-.425-2.321-1.26-2.915-.842-.594-2.109-.89-3.802-.89h-.574v-2.052h.606c1.535-.017 2.708-.288 3.495-.809.787-.539 1.181-1.367 1.181-2.483 0-.953-.292-1.718-.882-2.294-.567-.575-1.393-.863-2.464-.863-1.039 0-1.881.288-2.519.863-.637.576-1.015 1.35-1.125 2.321h-2.244zm17.601 11.2-2.81 7.259h-1.535l1.834-7.259h2.511zm13.838-13.979h-8.824v6.153c.386-.576.953-1.043 1.708-1.403a5.36 5.36 0 0 1 2.44-.567c1.394 0 2.527.314 3.393.944a5.014 5.014 0 0 1 1.866 2.402c.385.972.574 2.006.574 3.103 0 1.296-.22 2.455-.677 3.482a5.363 5.363 0 0 1-2.086 2.428c-.921.594-2.07.891-3.447.891-1.756 0-3.18-.487-4.275-1.458-1.086-.971-1.755-2.267-1.983-3.886h2.235c.221 1.026.677 1.826 1.386 2.402.7.576 1.59.863 2.66.863 1.33 0 2.322-.422 2.999-1.267.669-.864 1-1.998 1-3.401 0-1.403-.331-2.483-1-3.238-.677-.773-1.661-1.16-2.967-1.16-.89 0-1.669.234-2.346.702-.653.449-1.126 1.07-1.433 1.861h-2.156v-11.01h10.933v2.159zm3.928 15.408c2.125-1.834 3.794-3.337 4.998-4.506 1.213-1.187 2.228-2.42 3.047-3.697.842-1.296 1.259-2.563 1.259-3.805 0-1.169-.267-2.087-.803-2.752-.519-.684-1.369-1.026-2.542-1.026-1.142 0-2.031.387-2.669 1.161-.622.755-.952 1.772-1.007 3.049h-2.212c.071-2.015.637-3.571 1.708-4.668 1.078-1.098 2.464-1.647 4.156-1.647 1.724 0 3.094.513 4.093 1.538 1.024 1.026 1.535 2.438 1.535 4.237 0 1.493-.417 2.951-1.251 4.372-.827 1.403-1.763 2.645-2.818 3.724-1.055 1.061-2.409 2.302-4.054 3.724h8.651v2.051h-12.091v-1.755zm25.929-15.624-6.99 17.595h-2.314l7.092-17.352h-9.706v-2.105h11.918v1.862z" fill="#1C85E8"/><path opacity=".7" d="M13.277 659.657h88.867c1.744 0 3.47-.368 5.081-1.084a13.272 13.272 0 0 0 4.308-3.088 14.362 14.362 0 0 0 2.877-4.622 15.135 15.135 0 0 0 1.011-5.451v-29.5c0-1.87-.343-3.723-1.011-5.451a14.372 14.372 0 0 0-2.877-4.622 13.257 13.257 0 0 0-4.308-3.088 12.495 12.495 0 0 0-5.081-1.084H70.597l-9.31-9.989c-.87-.935-2.053-1.46-3.286-1.46-1.231 0-2.414.525-3.285 1.46l-9.31 9.989h-32.13c-3.52 0-6.898 1.501-9.387 4.172C1.399 608.51 0 612.134 0 615.912v29.5c0 3.778 1.399 7.401 3.889 10.073 2.49 2.671 5.866 4.172 9.388 4.172z" fill="#E51A4B"/><path d="M55.142 637.913c1.605-1.384 2.862-2.516 3.773-3.398a16.279 16.279 0 0 0 2.295-2.787c.632-.977.947-1.933.947-2.869 0-.882-.202-1.574-.606-2.075-.392-.516-1.03-.774-1.916-.774-.86 0-1.529.292-2.01.875-.467.57-.72 1.336-.758 2.299h-1.669c.051-1.519.481-2.692 1.29-3.519.809-.828 1.852-1.241 3.129-1.241 1.302 0 2.332.386 3.09 1.16.771.772 1.157 1.837 1.157 3.194 0 1.126-.316 2.224-.948 3.295a14.375 14.375 0 0 1-2.123 2.808c-.797.8-1.815 1.736-3.054 2.808h6.523v1.546h-9.12v-1.322zm10.698-1.791v-1.403l6.655-9.889h2.067v9.685h1.897v1.607h-1.897v3.276h-1.706v-3.276H65.84zm7.091-9.359-5.1 7.752h5.1v-7.752zm5.214 1.628c.088-1.248.536-2.225 1.346-2.93.809-.705 1.858-1.058 3.147-1.058.86 0 1.6.17 2.219.509.632.325 1.106.773 1.422 1.343.328.569.493 1.214.493 1.932 0 .842-.228 1.567-.683 2.178a2.97 2.97 0 0 1-1.744 1.18v.101c.822.217 1.473.644 1.953 1.282s.72 1.471.72 2.503c0 .772-.164 1.471-.493 2.095-.329.611-.821 1.092-1.479 1.444-.657.353-1.447.53-2.37.53-1.34 0-2.44-.373-3.3-1.119-.86-.76-1.34-1.831-1.44-3.215h1.668c.089.814.398 1.478.93 1.993.53.517 1.239.774 2.123.774.885 0 1.555-.244 2.01-.733.468-.502.702-1.146.702-1.932 0-1.017-.316-1.75-.948-2.198-.633-.448-1.587-.671-2.863-.671h-.436v-1.546h.455c1.162-.014 2.04-.217 2.635-.611.594-.407.891-1.031.891-1.871 0-.719-.221-1.296-.663-1.73-.43-.434-1.05-.651-1.859-.651-.783 0-1.415.217-1.896.651-.48.434-.765 1.018-.853 1.75h-1.687zm18.845-.204c-.278-1.505-1.144-2.258-2.598-2.258-1.125 0-1.966.468-2.522 1.404-.556.922-.828 2.448-.815 4.577a3.344 3.344 0 0 1 1.441-1.647 4.35 4.35 0 0 1 2.275-.611c1.303 0 2.338.434 3.11 1.302.784.869 1.176 2.069 1.176 3.602 0 .922-.17 1.75-.513 2.482a3.942 3.942 0 0 1-1.516 1.749c-.67.434-1.486.651-2.446.651-1.303 0-2.32-.312-3.053-.936-.733-.624-1.246-1.484-1.536-2.583-.29-1.099-.436-2.455-.436-4.069 0-4.978 1.618-7.467 4.854-7.467 1.24 0 2.212.359 2.92 1.078.708.719 1.125 1.628 1.251 2.726H96.99zm-2.579 3.032c-.544 0-1.055.122-1.536.366-.48.231-.873.59-1.176 1.079-.29.474-.436 1.057-.436 1.749 0 1.031.278 1.871.835 2.523.556.637 1.352.957 2.389.957.885 0 1.587-.293 2.105-.875.53-.598.796-1.397.796-2.402 0-1.057-.253-1.885-.759-2.482-.505-.61-1.245-.915-2.218-.915z" fill="#fff"/><path d="M486.288 635.11s28.341-6.366 41.299-21.116c17.169-19.543 21.129-42.979 39.939-45.39 29.521-3.782 46.634 108.047 82.474 92.917 35.839-15.13 27.369-98.641 48.693-112.795 14.688-9.751 22.324 19.248 42.892 11.683" stroke="#fff" stroke-width="10.368" stroke-miterlimit="10" stroke-linecap="round"/><path opacity=".7" d="M207.381 543.349c21.186 6.489 70.748 18.087 135.692 10.087a6.805 6.805 0 0 1 3.116.254 7.14 7.14 0 0 1 2.729 1.633 7.793 7.793 0 0 1 1.835 2.714 8.284 8.284 0 0 1 .604 3.289V668.87c-.048 2.374-.875 4.652-2.334 6.435-1.459 1.783-3.459 2.957-5.645 3.314-23.124 3.392-91.782 10.648-142.947-13.054a7.417 7.417 0 0 1-3.185-2.942 8.192 8.192 0 0 1-1.126-4.344V552.86c0-6.235 5.85-11.169 11.261-9.511z" fill="url(#c)"/><path d="M17.359 642.374h2.91a1.972 1.972 0 0 0 1.441-.641c.383-.41.598-.966.599-1.546v-14.37c-.001-.58-.216-1.135-.599-1.546-.381-.409-.9-.64-1.44-.641h-2.911a1.976 1.976 0 0 0-1.44.641 2.274 2.274 0 0 0-.599 1.546v14.37c.001.58.216 1.136.599 1.546.381.41.9.64 1.44.641zM30.205 614.57c-1.164 0-1.746.625-1.746 3.749 0 2.97-2.68 5.358-4.404 6.59v15.479c1.865.927 5.597 2.298 11.391 2.298h1.863a4.462 4.462 0 0 0 3.002-1.174 5.082 5.082 0 0 0 1.587-2.974l1.305-8.123a5.337 5.337 0 0 0-.094-2.156 5.14 5.14 0 0 0-.932-1.914 4.716 4.716 0 0 0-1.598-1.311 4.385 4.385 0 0 0-1.965-.467h-5.497c.619-1.581.917-3.284.874-4.998 0-3.749-2.62-4.998-3.786-4.998v-.001zM114.358 515.744c-15.447-5.843-27.969-24.017-27.969-40.591 0-16.576 12.522-25.274 27.969-19.429V436.46c-24.955-9.441-45.185 4.612-45.185 31.388 0 26.776 20.23 56.135 45.185 65.577 23.901 9.042 43.455-3.475 45.066-28.072l-17.205-6.509c-1.216 14.91-13.221 22.439-27.861 16.9z" fill="#fff"/><path d="M120.096 432.476v19.262c15.447 5.845 27.969 24.019 27.969 40.593 0 .866-.041 1.706-.108 2.528l17.204 6.51a50.58 50.58 0 0 0 .12-3.317c0-26.776-20.23-56.136-45.185-65.576z" fill="#E51A4B"/><path d="M114.358 515.744v17.681M86.39 475.153l-17.217-6.514" stroke="#fff" stroke-width="2.428" stroke-miterlimit="10"/><path d="m186.821 477.906 31.945 6.513" stroke="#fff" stroke-width="10.368" stroke-miterlimit="10" stroke-linecap="round"/><path opacity=".4" d="m186.821 531.612 31.945 6.514" stroke="#fff" stroke-width="10.368" stroke-miterlimit="10" stroke-linecap="round"/><path d="m186.821 505.306 45.895 9.357" stroke="#fff" stroke-width="10.368" stroke-miterlimit="10" stroke-linecap="round"/><path opacity=".7" d="M762.965 17.17c-27.684 21.808-78.322 76.802-188.841 95.074-8.462 1.399-11.63 7.858-11.63 14.996v150.353c.047 2.086.763 4.092 2.027 5.678 1.263 1.586 2.998 2.657 4.912 3.031 27.877 5.035 135.235-24.349 199.436-83.508C775 197.144 775 187.665 775 185.695V24.671c0-6.681-7.296-11.234-12.035-7.502z" fill="url(#d)"/><path d="M577.106 139.037v92.997c0 .81.169 1.609.495 2.338.326.73.801 1.372 1.389 1.879a4.908 4.908 0 0 0 2.011 1.047 4.705 4.705 0 0 0 2.235.009c15.787-3.794 58.491-14.762 85.459-28.413a5.166 5.166 0 0 0 2.102-1.994 5.683 5.683 0 0 0 .771-2.891v-90.563a5.564 5.564 0 0 0-.614-2.592 5.187 5.187 0 0 0-1.7-1.956 4.78 4.78 0 0 0-2.362-.842 4.75 4.75 0 0 0-2.456.479c-15.026 7.427-51.141 23.65-82.552 25.109-1.29.066-2.507.664-3.397 1.668-.89 1.004-1.384 2.339-1.381 3.725z" fill="#fff"/><path d="M581.01 217.064v9.782c0 .74.159 1.471.465 2.135.306.663.75 1.243 1.299 1.692a4.33 4.33 0 0 0 1.864.898 4.192 4.192 0 0 0 2.042-.081l47.238-13.857a4.423 4.423 0 0 0 1.976-1.222 4.868 4.868 0 0 0 1.157-2.103 5.124 5.124 0 0 0 .047-2.443 5.001 5.001 0 0 0-1.07-2.154l-25.331-29.237a4.471 4.471 0 0 0-1.629-1.197 4.214 4.214 0 0 0-3.852.277 4.616 4.616 0 0 0-1.47 1.422l-21.915 33.311a5.056 5.056 0 0 0-.821 2.777z" fill="#1C85E8"/><path opacity=".6" d="m629.171 194.122 14.177 16.141c.457.519 1.047.88 1.692 1.037a3.125 3.125 0 0 0 1.945-.157c4.187-1.755 13.594-5.723 18.356-7.921a3.429 3.429 0 0 0 1.464-1.318 3.799 3.799 0 0 0 .543-1.966v-15.123c0-.772-.236-1.523-.661-2.14l-19.931-28.647a3.427 3.427 0 0 0-1.393-1.163 3.137 3.137 0 0 0-1.747-.24 3.275 3.275 0 0 0-1.622.75 3.603 3.603 0 0 0-1.031 1.53l-12.484 35.5a3.787 3.787 0 0 0-.15 1.966c.118.657.417 1.263.842 1.751z" fill="#1C85E8"/><path d="M616.727 168.921c4.203 0 7.612-3.656 7.612-8.166s-3.409-8.165-7.612-8.165-7.612 3.655-7.612 8.165 3.409 8.166 7.612 8.166z" fill="#FEBB94"/><path d="M693.514 105.501a453.227 453.227 0 0 0 56.242-36.252M693.514 140.775s12.799-6.693 30.36-18.126M693.514 175.262a453.272 453.272 0 0 0 56.242-36.252M693.514 213.981a453.272 453.272 0 0 0 56.242-36.252" stroke="#fff" stroke-width="10.368" stroke-miterlimit="10" stroke-linecap="round"/><path d="M587.96 264.127c3.839 0 6.952-3.339 6.952-7.458s-3.113-7.459-6.952-7.459-6.95 3.34-6.95 7.459 3.111 7.458 6.95 7.458zM628.267 252.06c3.833 0 6.951-3.338 6.951-7.458 0-4.119-3.118-7.457-6.951-7.457-3.841 0-6.951 3.338-6.951 7.457 0 4.12 3.11 7.458 6.951 7.458zM664.618 238.738c3.841 0 6.95-3.34 6.95-7.459s-3.109-7.457-6.95-7.457c-3.834 0-6.951 3.338-6.951 7.457s3.117 7.459 6.951 7.459z" fill="#fff"/><defs><linearGradient id="a" x1="328.775" y1="-645.996" x2="653.787" y2="1232.21" gradientUnits="userSpaceOnUse"><stop stop-color="#fff"/><stop offset="1" stop-color="#94B9FF"/></linearGradient><linearGradient id="b" x1="468.581" y1="394.689" x2="490.871" y2="682.154" gradientUnits="userSpaceOnUse"><stop stop-color="#fff"/><stop offset="1" stop-color="#FF6D7C"/></linearGradient><linearGradient id="c" x1="269.874" y1="542.693" x2="298.692" y2="838.817" gradientUnits="userSpaceOnUse"><stop stop-color="#fff"/><stop offset="1" stop-color="#E51A4B"/></linearGradient><linearGradient id="d" x1="643.121" y1="-322.019" x2="825.533" y2="564.755" gradientUnits="userSpaceOnUse"><stop stop-color="#fff"/><stop offset="1" stop-color="#F40638"/></linearGradient></defs></svg>