<svg width="901" height="618" viewBox="0 0 901 618" fill="none" xmlns="http://www.w3.org/2000/svg">
<path d="M728.424 25.9034H176.575C156.376 25.9034 140 42.361 140 62.6627V413.814C140 434.116 156.376 450.573 176.575 450.573H728.424C748.626 450.573 765 434.116 765 413.814V62.6627C765 42.361 748.626 25.9034 728.424 25.9034Z" fill="url(#paint0_linear_412_12)"/>
<path d="M181.378 0.922882H723.616C734.592 0.922882 745.119 7.76624 752.875 19.9463C760.64 32.1264 765 48.6473 765 65.8724H140C140 48.6473 144.359 32.1264 152.119 19.9463C159.879 7.76624 170.403 0.922882 181.378 0.922882Z" fill="#F40638"/>
<path d="M470.919 94.7113H726.592C730.975 94.7113 735.189 96.4633 738.286 99.5819C741.392 102.701 743.135 106.931 743.135 111.342V238.423C743.135 242.833 741.392 247.063 738.286 250.182C735.189 253.301 730.975 255.053 726.592 255.053H470.919C466.533 255.053 462.326 253.301 459.224 250.182C456.122 247.063 454.38 242.833 454.38 238.423V111.342C454.38 109.158 454.807 106.996 455.638 104.977C456.47 102.96 457.688 101.126 459.224 99.5827C460.76 98.0384 462.583 96.8131 464.59 95.9775C466.596 95.1419 468.747 94.7113 470.919 94.7113Z" stroke="#5661AE" stroke-miterlimit="10" stroke-dasharray="11.93 11.93"/>
<path d="M657.965 278.558H402.291C393.157 278.558 385.752 286.003 385.752 295.189V422.269C385.752 431.453 393.157 438.899 402.291 438.899H657.965C667.099 438.899 674.505 431.453 674.505 422.269V295.189C674.505 286.003 667.099 278.558 657.965 278.558Z" fill="white"/>
<path d="M354.773 278.558H176.116C168.389 278.558 162.125 284.856 162.125 292.627V424.831C162.125 432.6 168.389 438.899 176.116 438.899H354.773C362.5 438.899 368.764 432.6 368.764 424.831V292.627C368.764 284.856 362.5 278.558 354.773 278.558Z" fill="white"/>
<path d="M409.281 395.162C409.281 395.162 428.444 393.132 439.965 401.806C455.418 413.437 467.864 422.415 484.292 393.828C502.288 362.507 505.117 351.568 518.247 351.438C535.099 351.273 541.677 396.439 572.75 399.631C603.822 402.823 624.95 397.715 624.95 397.715" stroke="#F40638" stroke-width="10" stroke-miterlimit="10" stroke-linecap="round"/>
<path d="M409.281 305.02H453.931" stroke="#F40638" stroke-width="16" stroke-miterlimit="10" stroke-linecap="round"/>
<path d="M409.281 325.973H501.556" stroke="#D4DCF4" stroke-width="16" stroke-miterlimit="10" stroke-linecap="round"/>
<path d="M179.261 43.8606C183.173 43.8606 186.344 40.6723 186.344 36.7403C186.344 32.8074 183.173 29.6191 179.261 29.6191C175.351 29.6191 172.18 32.8074 172.18 36.7403C172.18 40.6723 175.351 43.8606 179.261 43.8606Z" fill="white"/>
<path d="M203.261 43.8606C207.172 43.8606 210.342 40.6723 210.342 36.7403C210.342 32.8074 207.172 29.6191 203.261 29.6191C199.35 29.6191 196.18 32.8074 196.18 36.7403C196.18 40.6723 199.35 43.8606 203.261 43.8606Z" fill="white"/>
<path d="M226.575 43.8606C230.487 43.8606 233.657 40.6723 233.657 36.7403C233.657 32.8074 230.487 29.6191 226.575 29.6191C222.664 29.6191 219.493 32.8074 219.493 36.7403C219.493 40.6723 222.664 43.8606 226.575 43.8606Z" fill="white"/>
<path d="M599.165 203.695C614.99 203.695 627.82 190.795 627.82 174.882C627.82 158.969 614.99 146.069 599.165 146.069C583.339 146.069 570.51 158.969 570.51 174.882C570.51 190.795 583.339 203.695 599.165 203.695Z" fill="#F40638"/>
<path d="M601.426 161.269C601.426 160.013 600.413 158.994 599.164 158.994C597.915 158.994 596.902 160.013 596.902 161.269V190.323C596.902 191.579 597.915 192.597 599.164 192.597C600.413 192.597 601.426 191.579 601.426 190.323V161.269Z" fill="white"/>
<path d="M613.612 178.07C614.861 178.07 615.873 177.051 615.873 175.795C615.873 174.539 614.861 173.521 613.612 173.521H584.717C583.467 173.521 582.455 174.539 582.455 175.795C582.455 177.051 583.467 178.07 584.717 178.07H613.612Z" fill="white"/>
<path d="M450.283 618C698.971 618 900.569 612.821 900.569 606.433C900.569 600.044 698.971 594.866 450.283 594.866C201.599 594.866 0 600.044 0 606.433C0 612.821 201.599 618 450.283 618Z" fill="#F5F8FF"/>
<path d="M845.191 379.257H530.128V603.055H845.191V379.257Z" fill="#F40638"/>
<path d="M655.991 379.257H530.128V603.055H655.991V379.257Z" fill="url(#paint1_linear_412_12)"/>
<path d="M77.1518 518.939L64.2223 602.429L59.2997 601.658C57.6386 601.397 56.1484 600.484 55.1566 599.119C54.1648 597.755 53.7527 596.049 54.0116 594.379L64.9906 523.485C65.2496 521.815 66.1576 520.316 67.515 519.319C68.8723 518.322 70.5682 517.908 72.2293 518.168L77.1518 518.939Z" fill="#B2B3B4"/>
<path d="M117.562 532.99L97.3456 526.908L90.9185 555.229L113.036 562.211L117.562 532.99Z" fill="#FFCCB3"/>
<path d="M103.651 559.249L99.9131 558.069L109.096 530.443L112.509 531.47L103.651 559.249Z" fill="#FF967C"/>
<path d="M99.9087 527.309C99.9087 527.309 91.9879 541.147 96.3528 556.945L69.1413 601.676C66.7761 603.414 63.1822 602.383 61.1851 601.315C60.7484 601.078 60.3955 600.71 60.1764 600.263C59.9563 599.816 59.8802 599.311 59.9589 598.818L71.6961 523.033C71.8908 521.767 72.572 520.63 73.5917 519.865C74.6122 519.099 75.8901 518.767 77.1518 518.939C82.1987 519.627 89.88 520.739 92.901 521.52C97.5705 522.725 100.033 524.432 99.9087 527.309Z" fill="#E51A4B"/>
<path d="M90.9271 566.446L86.932 560.039C86.7856 559.805 86.585 559.61 86.3464 559.473C86.1086 559.336 85.8404 559.259 85.5662 559.25C85.2911 559.241 85.0186 559.3 84.7724 559.422C84.5261 559.544 84.3129 559.725 84.1521 559.949C83.9558 560.224 83.8458 560.551 83.8365 560.89C83.828 561.229 83.9211 561.561 84.103 561.846L89.0907 569.631L90.9271 566.446Z" fill="white"/>
<path d="M86.3976 573.309L82.4415 566.917C82.2951 566.683 82.0945 566.488 81.8567 566.351C81.6181 566.213 81.3499 566.137 81.0757 566.128C80.8007 566.119 80.5282 566.178 80.2819 566.3C80.0356 566.422 79.8224 566.603 79.6625 566.827C79.4653 567.102 79.3553 567.429 79.3468 567.768C79.3375 568.106 79.4306 568.44 79.6125 568.724L84.4953 576.437L86.3976 573.309Z" fill="white"/>
<path d="M81.7037 581.025L77.8204 574.679C77.6749 574.445 77.4734 574.251 77.2357 574.113C76.997 573.975 76.7288 573.899 76.4546 573.89C76.1804 573.881 75.9079 573.94 75.6608 574.062C75.4146 574.184 75.2022 574.365 75.0414 574.589C74.8442 574.864 74.7342 575.192 74.7257 575.53C74.7164 575.868 74.8095 576.202 74.9923 576.486L79.8514 584.071L81.7037 581.025Z" fill="white"/>
<path d="M299.405 591.671H383.437V596.681C383.437 597.518 383.273 598.347 382.955 599.119C382.636 599.893 382.169 600.596 381.58 601.187C380.992 601.779 380.293 602.249 379.524 602.569C378.756 602.89 377.931 603.054 377.099 603.054H305.744C304.063 603.054 302.451 602.383 301.262 601.187C300.073 599.992 299.405 598.371 299.405 596.681V591.671Z" fill="#B2B3B4"/>
<path d="M306.995 549.36L304.129 570.381L332.949 572.41L336.407 549.36H306.995Z" fill="#FFCCB3"/>
<path d="M336.108 551.351L335.37 556.27L305.775 558.309L306.724 551.351H336.108Z" fill="#FF967C"/>
<path d="M304.129 567.773C304.129 567.773 318.947 573.514 333.799 566.747L381.942 586.899C384.013 588.982 383.554 592.711 382.81 594.86C382.645 595.33 382.338 595.737 381.932 596.025C381.526 596.311 381.042 596.464 380.545 596.462H304.267C302.994 596.463 301.772 595.962 300.863 595.066C299.954 594.17 299.431 592.951 299.405 591.671C299.305 586.551 299.217 578.749 299.518 575.627C299.984 570.801 301.283 568.092 304.129 567.773Z" fill="#E51A4B"/>
<path d="M343.97 570.675L338.288 575.631C338.081 575.811 337.921 576.041 337.823 576.299C337.724 576.557 337.69 576.835 337.724 577.109C337.757 577.383 337.857 577.645 338.015 577.871C338.172 578.097 338.383 578.281 338.627 578.406C338.928 578.559 339.267 578.618 339.601 578.574C339.935 578.532 340.248 578.388 340.5 578.163L347.383 572.01L343.97 570.675Z" fill="white"/>
<path d="M351.41 574.119L345.738 579.034C345.53 579.214 345.37 579.444 345.272 579.702C345.173 579.96 345.139 580.238 345.173 580.512C345.206 580.786 345.307 581.048 345.464 581.273C345.621 581.5 345.832 581.683 346.078 581.809C346.377 581.962 346.716 582.02 347.051 581.977C347.384 581.934 347.698 581.791 347.949 581.565L354.777 575.528L351.41 574.119Z" fill="white"/>
<path d="M359.716 577.595L354.076 582.431C353.869 582.611 353.709 582.841 353.611 583.099C353.512 583.356 353.478 583.635 353.512 583.909C353.545 584.183 353.645 584.445 353.803 584.671C353.96 584.897 354.171 585.08 354.416 585.205C354.716 585.359 355.055 585.417 355.39 585.374C355.723 585.331 356.036 585.188 356.288 584.962L362.994 578.967L359.716 577.595Z" fill="white"/>
<path d="M257.499 273.859L274.914 239.381C274.914 239.381 264.312 240.774 262.465 234.157C260.617 227.539 312.57 221.619 312.57 221.619C312.57 221.619 308.413 236.247 302.179 237.988L285.035 288.486L257.499 273.859Z" fill="#FFCCB3"/>
<path d="M260.094 268.723L287.297 281.826L285.035 288.486L258.599 271.683L260.094 268.723Z" fill="#FF967C"/>
<path d="M425.956 89.3413L175.541 130.561C171.245 131.268 168.332 135.344 169.036 139.664L185.387 240.103C186.091 244.423 190.144 247.353 194.441 246.646L444.855 205.425C449.152 204.718 452.065 200.643 451.361 196.322L435.01 95.8831C434.307 91.563 430.253 88.6334 425.956 89.3413Z" fill="#F40638"/>
<path d="M297.992 152.316L399.763 135.564" stroke="white" stroke-width="16.5208" stroke-miterlimit="10" stroke-linecap="round"/>
<path opacity="0.7" d="M305.222 183.388L371.61 172.46" stroke="white" stroke-width="16.5208" stroke-miterlimit="10" stroke-linecap="round"/>
<path d="M237.158 220.849C257.037 220.849 273.152 204.645 273.152 184.658C273.152 164.669 257.037 148.465 237.158 148.465C217.28 148.465 201.166 164.669 201.166 184.658C201.166 204.645 217.28 220.849 237.158 220.849Z" stroke="#EF6A77" stroke-width="16.5208" stroke-miterlimit="10"/>
<path d="M272.679 178.81C273.829 185.874 272.87 193.122 269.924 199.638C266.977 206.155 262.175 211.646 256.124 215.418C250.074 219.189 243.046 221.072 235.932 220.828C228.817 220.584 221.935 218.225 216.154 214.047C210.373 209.87 205.954 204.062 203.456 197.36C200.957 190.657 200.491 183.36 202.117 176.391C203.742 169.422 207.387 163.095 212.59 158.208C217.792 153.322 224.319 150.097 231.344 148.941" stroke="white" stroke-width="16.5208" stroke-miterlimit="10" stroke-linecap="round"/>
<path d="M248.887 455.67L259.274 573.889C259.274 599.231 233.56 602.114 225.328 599.127C213.717 594.914 101.256 566.127 101.256 566.127L113.174 529.422L199.488 541.485C199.488 541.485 197.128 516.856 173.982 441.649L248.887 455.67Z" fill="#5661AE"/>
<path d="M181.694 467.699L251.68 487.457L247.745 439.986L173.982 441.649L181.694 467.699Z" fill="#465393"/>
<path d="M247.871 196.66C247.871 196.66 261.73 212.48 265.851 218.883C269.972 225.286 270.119 237.845 261.503 241.046C252.889 244.248 245.841 244.786 233.262 242.423C223.475 240.586 210.787 224.344 214.533 216.058C218.279 207.772 235.697 192.706 247.871 196.66Z" fill="#FFCCB3"/>
<path d="M250.493 240.916L248.433 267.659L218.279 261.068L231.764 235.832L250.493 240.916Z" fill="#FFCCB3"/>
<path d="M250.493 243.7H242.295L249.308 256.292" fill="#FF967C"/>
<path d="M214.908 259.373L219.405 254.992C219.989 254.423 220.706 254.011 221.489 253.795C222.273 253.578 223.098 253.563 223.889 253.752L248.546 259.623C249.14 259.764 249.687 260.058 250.134 260.475C250.581 260.893 250.913 261.42 251.097 262.004L252.879 267.659L214.908 259.373Z" fill="url(#paint2_linear_412_12)"/>
<path d="M175.856 394.579L171.442 416.08C166.473 448.881 189.86 470.577 225.604 464.664C257.525 459.384 352.083 422.52 352.083 422.52L348.314 364.178L268.822 377.365C268.822 377.365 197.371 364.055 175.856 394.579Z" fill="#5661AE"/>
<path d="M354.235 415.199C368.438 415.199 379.951 403.622 379.951 389.343C379.951 375.062 368.438 363.485 354.235 363.485C340.034 363.485 328.521 375.062 328.521 389.343C328.521 403.622 340.034 415.199 354.235 415.199Z" fill="#5661AE"/>
<path d="M354.235 415.199C368.438 415.199 379.951 403.622 379.951 389.343C379.951 375.062 368.438 363.485 354.235 363.485C340.034 363.485 328.521 375.062 328.521 389.343C328.521 403.622 340.034 415.199 354.235 415.199Z" fill="#5661AE"/>
<path d="M233.56 600.488C247.762 600.488 259.275 588.912 259.275 574.632C259.275 560.351 247.762 548.775 233.56 548.775C219.359 548.775 207.846 560.351 207.846 574.632C207.846 588.912 219.359 600.488 233.56 600.488Z" fill="#5661AE"/>
<path d="M378.696 396.814L342.546 551.351H299.312L328.521 389.342L378.696 396.814Z" fill="#5661AE"/>
<path d="M268.822 377.366L173.61 407.16L175.855 394.579L268.822 377.366Z" fill="#465393"/>
<path d="M290.187 290.068L299.647 296.988L331.236 244.852C331.236 244.852 327.03 227.775 326.741 224.868L337.019 223.394C337.019 223.394 345.344 207.617 347.717 204.496C350.09 201.376 352.829 201.927 354.289 204.496C354.289 204.496 358.853 205.231 359.583 211.472C359.583 211.472 363.6 212.39 365.242 220.466C365.242 220.466 368.711 224.138 367.981 228.176C367.25 232.214 358.123 248.041 356.662 249.673C355.538 251.004 354.501 252.407 353.559 253.874L323.134 327.182C323.134 327.182 315.7 343.216 298.278 337.135L276.679 327.069C266.764 320.61 290.187 290.068 290.187 290.068Z" fill="#FFCCB3"/>
<path d="M306.109 339.03C316.151 339.03 324.293 330.844 324.293 320.746C324.293 310.648 316.151 302.461 306.109 302.461C296.066 302.461 287.924 310.648 287.924 320.746C287.924 330.844 296.066 339.03 306.109 339.03Z" fill="#FFCCB3"/>
<path d="M229.891 209.843C229.891 209.843 247.684 203.817 251.242 191.199C254.8 178.581 247.31 171.99 237.57 178.393C237.57 178.393 230.64 167.282 218.841 175.003C207.042 182.725 209.289 200.992 209.664 204.57C209.664 204.57 196.366 213.986 202.734 228.864C209.102 243.741 226.575 247.319 226.575 247.319C228.504 244.533 229.884 241.401 230.64 238.092C230.64 238.092 221.011 230.747 226.575 223.591C232.138 216.434 238.506 227.922 238.506 227.922C238.506 227.922 243.376 211.726 229.891 209.843Z" fill="#465393"/>
<path d="M214.909 259.373C214.909 259.373 202.556 265.548 199.758 272.199C197.172 278.344 179.188 359.059 173.681 391.551C173.549 392.322 173.608 393.113 173.852 393.855C174.096 394.598 174.518 395.268 175.08 395.809C175.642 396.349 176.327 396.742 177.076 396.953C177.824 397.165 178.613 397.188 179.373 397.021L268.822 377.365C268.822 377.365 264.447 330.094 265.98 316.221C267.513 302.348 252.88 267.659 252.88 267.659L214.909 259.373Z" fill="url(#paint3_linear_412_12)"/>
<path d="M265.663 322.762L243.111 309.286L266.577 348.1L265.663 322.762Z" fill="#96BAFD"/>
<path d="M299.647 296.987L306.214 301.59L312.57 275.66L299.647 296.987Z" fill="#FF967C"/>
<path d="M252.88 267.659C252.88 267.659 288.773 287.388 293.131 290.624C293.696 291.043 294.093 291.651 294.251 292.339C294.409 293.027 294.318 293.749 293.993 294.375L277.508 326.201C277.323 326.559 277.068 326.874 276.756 327.129C276.446 327.383 276.087 327.572 275.702 327.682C275.316 327.793 274.912 327.822 274.514 327.77C274.118 327.719 273.735 327.585 273.39 327.379L231.554 302.38C231.554 302.38 229.328 269.103 252.88 267.659Z" fill="url(#paint4_linear_412_12)"/>
<path d="M248.301 220.391C249.16 219.745 249.063 218.152 248.083 216.832C247.102 215.511 245.61 214.965 244.751 215.611C243.89 216.257 243.988 217.85 244.968 219.17C245.948 220.49 247.44 221.037 248.301 220.391Z" fill="#080B09"/>
<path d="M260.095 211.417C260.955 210.771 260.858 209.177 259.878 207.857C258.897 206.537 257.405 205.99 256.546 206.636C255.685 207.282 255.783 208.876 256.763 210.196C257.743 211.515 259.235 212.062 260.095 211.417Z" fill="#080B09"/>
<path d="M255.32 213.875C255.32 213.875 255.116 217.779 257.495 216.751C259.733 215.691 261.645 216.421 260.243 219.384" stroke="#93523E" stroke-width="1.20877" stroke-linecap="round" stroke-linejoin="round"/>
<path d="M261.029 222.17C259.679 222.909 256.977 224.386 255.194 225.4C255.086 225.46 254.997 225.548 254.936 225.655C254.875 225.763 254.844 225.885 254.847 226.008C254.849 226.132 254.887 226.252 254.953 226.357C255.019 226.461 255.113 226.545 255.223 226.599C257.723 227.685 263.078 229.266 261.954 222.677C261.954 222.569 261.924 222.463 261.869 222.37C261.813 222.278 261.734 222.202 261.64 222.15C261.546 222.099 261.44 222.073 261.332 222.077C261.225 222.08 261.121 222.113 261.029 222.17Z" fill="white"/>
<path d="M238.157 216.489L238.407 216.695C238.747 217.027 239.203 217.21 239.676 217.205C240.149 217.2 240.602 217.007 240.933 216.668L246.493 210.692C246.774 210.414 246.941 210.041 246.96 209.645C246.98 209.248 246.851 208.86 246.599 208.555C246.453 208.361 246.269 208.2 246.057 208.084C245.845 207.966 245.61 207.896 245.37 207.877C245.129 207.858 244.887 207.89 244.659 207.972C244.432 208.055 244.223 208.184 244.05 208.353L238.24 214.122C238.076 214.271 237.944 214.45 237.851 214.65C237.758 214.85 237.707 215.067 237.699 215.288C237.69 215.509 237.728 215.729 237.806 215.936C237.885 216.142 238.004 216.33 238.157 216.489Z" fill="#080B09"/>
<path d="M258.362 199.531L250.717 202.416C250.491 202.504 250.288 202.64 250.118 202.812C249.949 202.986 249.818 203.194 249.734 203.422C249.65 203.65 249.616 203.893 249.633 204.135C249.65 204.378 249.717 204.614 249.831 204.828C250.001 205.185 250.298 205.466 250.663 205.614C251.029 205.762 251.437 205.767 251.806 205.627L259.532 203.057C259.977 202.897 260.341 202.565 260.544 202.134C260.746 201.704 260.772 201.211 260.615 200.763L260.534 200.448C260.454 200.241 260.334 200.054 260.181 199.895C260.028 199.737 259.844 199.611 259.642 199.526C259.439 199.44 259.221 199.397 259.001 199.398C258.782 199.399 258.565 199.444 258.362 199.531Z" fill="#080B09"/>
<path d="M635.936 333.684C635.936 333.684 611.699 312.411 591.995 330.489C572.29 348.566 490.877 472.708 490.877 472.708L515.501 489.83L607.85 385.401L623.925 411.418L635.936 333.684Z" fill="#FCBA9F"/>
<path fill-rule="evenodd" clip-rule="evenodd" d="M619.447 571.22C629.598 563.761 640.062 556.072 651.081 553.589C651.329 553.532 651.586 553.531 651.835 553.583C652.084 553.636 652.319 553.743 652.523 553.896C652.726 554.05 652.895 554.245 653.016 554.471C653.137 554.696 653.208 554.945 653.223 555.2L654.431 575.756C654.455 576.18 654.328 576.598 654.069 576.933C653.811 577.269 653.442 577.499 653.028 577.58L577.546 592.582C571.981 593.688 568.411 591.254 566.699 586.933C566.644 586.784 566.632 586.621 566.665 586.466C566.698 586.31 566.776 586.167 566.887 586.054C567 585.941 567.142 585.863 567.297 585.83C567.452 585.796 567.613 585.808 567.761 585.864C577.677 589.526 588.624 589.143 598.26 584.793C605.223 581.672 612.256 576.503 619.447 571.22Z" fill="#5661AE"/>
<path fill-rule="evenodd" clip-rule="evenodd" d="M642.611 503.874C642.611 503.874 644.04 536.318 644.793 539.618C645.311 541.422 645.961 543.185 646.736 544.893C648.03 547.994 649.471 551.449 649.603 553.96C639.126 556.767 629.144 564.1 619.448 571.223C612.257 576.506 605.225 581.672 598.261 584.793C589.09 588.931 578.713 589.489 569.155 586.355C567.843 580.747 571.652 574.538 581.263 571.742C598.489 566.729 607.902 563.552 613.909 549.064C618.177 538.769 611.028 502.928 611.028 502.928L642.611 503.874Z" fill="#FFCCB3"/>
<path fill-rule="evenodd" clip-rule="evenodd" d="M614.663 543.587C618.051 543.378 631.509 542.487 644.394 540.793C646.898 540.464 649.133 545.193 648.063 548.201C647.364 550.397 646.841 552.647 646.5 554.928C642.296 556.473 638.263 558.451 634.464 560.831C635.243 555.471 631.992 553.098 627.161 553.343C623.346 553.536 614.727 555.973 610.283 557.296C610.039 557.368 609.779 557.368 609.535 557.298C609.291 557.226 609.072 557.086 608.903 556.893C608.736 556.701 608.626 556.465 608.587 556.211C608.549 555.958 608.583 555.7 608.686 555.466L613.525 544.388C613.623 544.161 613.782 543.967 613.982 543.826C614.184 543.685 614.419 543.602 614.663 543.587Z" fill="#DCDCDC"/>
<path fill-rule="evenodd" clip-rule="evenodd" d="M579.023 588.268C587.791 588.958 593.096 586.665 593.096 586.665L589.567 568.716L575.847 572.11L579.023 588.268Z" fill="#DCDCDC"/>
<path fill-rule="evenodd" clip-rule="evenodd" d="M469.066 506.415C481.604 507.355 494.528 508.324 504.518 513.617C504.744 513.736 504.941 513.902 505.097 514.105C505.252 514.308 505.361 514.542 505.418 514.792C505.475 515.041 505.476 515.3 505.423 515.55C505.37 515.801 505.263 516.037 505.111 516.241L492.775 532.678C492.521 533.016 492.153 533.25 491.74 533.338C491.328 533.425 490.898 533.359 490.53 533.152L423.393 495.361C418.442 492.574 417.294 488.393 418.777 483.987C418.831 483.838 418.926 483.707 419.052 483.61C419.179 483.513 419.329 483.454 419.487 483.441C419.646 483.428 419.804 483.462 419.944 483.537C420.083 483.612 420.198 483.727 420.275 483.867C425.462 493.119 434.043 499.964 444.185 502.935C451.499 505.099 460.185 505.75 469.066 506.415Z" fill="#5661AE"/>
<path fill-rule="evenodd" clip-rule="evenodd" d="M530.128 470.247L508.74 498.881C507.972 500.593 507.33 502.358 506.819 504.165C505.804 507.369 504.673 510.939 503.154 512.937C493.368 508.242 481.04 507.317 469.065 506.418C460.184 505.752 451.5 505.1 444.186 502.936C434.534 500.107 426.276 493.766 421.02 485.149C423.637 480.024 430.541 477.781 439.661 481.918C456.008 489.333 465.223 493.051 479.137 485.938C481.379 484.61 483.389 482.92 485.085 480.937L506.694 448.936L530.128 470.247Z" fill="#FCBA9F"/>
<path fill-rule="evenodd" clip-rule="evenodd" d="M483.243 482.26C485.957 484.309 496.777 492.404 507.679 499.515C509.797 500.898 508.449 505.955 505.696 507.548C503.747 508.763 501.898 510.135 500.168 511.65C495.972 510.085 491.625 508.962 487.198 508.297C491.247 504.725 490.303 500.798 486.467 497.835C483.438 495.494 475.305 491.73 471.069 489.84C470.836 489.736 470.638 489.567 470.498 489.353C470.358 489.139 470.282 488.89 470.277 488.634C470.274 488.378 470.343 488.126 470.477 487.908C470.611 487.691 470.804 487.516 471.034 487.405L481.861 482.126C482.081 482.018 482.327 481.974 482.571 481.997C482.814 482.021 483.047 482.112 483.243 482.26Z" fill="#DCDCDC"/>
<path fill-rule="evenodd" clip-rule="evenodd" d="M427.298 493.038C433.529 499.281 439.044 500.993 439.044 500.993L447.933 485.027L435.299 478.667L427.298 493.038Z" fill="#DCDCDC"/>
<path d="M669.172 318.249L605.268 329.665L617.846 380.529H658.78C658.78 380.529 678.238 338.475 669.172 318.249Z" fill="#FFCCB3"/>
<path d="M613.459 380.031C627.66 380.031 639.173 368.456 639.173 354.175C639.173 339.895 627.66 328.318 613.459 328.318C599.256 328.318 587.743 339.895 587.743 354.175C587.743 368.456 599.256 380.031 613.459 380.031Z" fill="#FFCCB3"/>
<path d="M588.062 358.249L613.793 520.254L643.472 521.499L640.007 361.357L588.062 358.249Z" fill="#FFCCB3"/>
<path d="M628.372 322.705C628.372 322.705 638.221 325.755 642.286 341.907C646.351 358.058 641.915 380.529 641.915 380.529H648.248C648.248 380.529 670.829 353.865 654.216 319.883L628.372 322.705Z" fill="#FF967C"/>
<path d="M690.507 184.166L682.463 188.046C679.379 189.534 676.66 191.688 674.499 194.355C672.339 197.023 670.79 200.136 669.965 203.474L651.782 277.04L610.789 296.748L620.135 311.674L697.642 308.91L690.507 184.166Z" fill="#5661AE"/>
<path d="M678.923 210.648C678.923 210.648 664.809 230.587 671.639 249.578C678.469 268.569 675.68 272.09 673.972 288.915C672.264 305.739 677.842 301.827 677.842 301.827L697.642 292.436C697.642 292.436 705.901 212.852 678.923 210.648Z" fill="#465393"/>
<path d="M761.964 302.221C761.964 302.221 769.792 340.73 759.535 356.822C746.554 377.191 730.679 380.31 718.942 380.529H641.915C641.915 380.529 641.773 332.209 603.826 323.953C603.826 323.953 728.716 288.979 761.964 302.221Z" fill="#1F2D49"/>
<path d="M763.69 313.435L682.058 316.137L682.926 310.404L698.835 308.555H763.572L763.69 313.435Z" fill="#0D1B33"/>
<path d="M658.112 295.391C658.112 295.391 648.125 298.31 643.639 299.636C639.153 300.963 630.283 304.148 630.283 304.148L636.778 313.435L666.212 311.674L658.112 295.391Z" fill="#FFCCB3"/>
<path d="M706.503 177.298C706.503 177.298 689.743 183.967 687.183 186.026C684.624 188.085 682.194 204.887 677.842 212.865C673.492 220.843 667.127 235.568 676.423 249.093C685.72 262.619 684.732 273.359 684.732 273.359L682.753 307.288L760.306 309.66C761.008 309.682 761.711 309.554 762.362 309.282C763.014 309.012 763.606 308.605 764.089 308.088C764.571 307.572 764.943 306.957 765.172 306.287C765.4 305.616 765.485 304.904 765.426 304.197C764.537 294.305 763.039 279.526 762.718 263.774C762.286 242.427 761.965 171.097 761.965 171.097L727.058 169.996C720.034 171.214 706.503 177.298 706.503 177.298Z" fill="#5661AE"/>
<path d="M761.964 208.968C772.365 208.968 780.793 200.49 780.793 190.033C780.793 179.575 772.365 171.097 761.964 171.097C751.564 171.097 743.136 179.575 743.136 190.033C743.136 200.49 751.564 208.968 761.964 208.968Z" fill="#5661AE"/>
<path d="M764.503 296.374C764.503 296.374 762.895 302.294 745.674 309.212C745.674 309.212 705.301 308.33 685.242 308.754C665.184 309.178 687.393 303.858 698.59 298.244C709.786 292.631 763.234 277.04 763.234 277.04L764.503 296.374Z" fill="#465393"/>
<path d="M748.229 200.255C748.229 200.255 736.551 210.96 735.866 218.902C735.172 226.844 733.59 248.99 718.586 251.199C700.189 253.906 695.374 256.543 703.904 258.614C712.425 260.686 731.779 257.329 731.779 266.211C731.779 272.532 739.293 277.261 743.076 273.808C746.85 270.355 776.942 217.867 748.229 200.255Z" fill="#465393"/>
<path d="M780.59 192.803C779.008 200.402 763.945 280.454 763.945 280.454C763.945 280.454 761.964 292.43 750.329 295.391L669.172 316.137L654.892 294.598L728.496 269.287L743.136 190.033C743.136 190.033 782.706 182.666 780.59 192.803Z" fill="#5661AE"/>
<path d="M704.615 162.555L705.385 188.825C705.385 188.825 705.182 193.357 710.649 192.746C716.124 192.135 727.133 188.022 730.171 182.725C733.209 177.427 731.289 175.611 731.289 175.611L714.592 142.884L704.615 162.555Z" fill="#FFCCB3"/>
<path d="M704.615 165.608L711.453 157.458L705.199 182.534L704.615 165.608Z" fill="#FF967C"/>
<path d="M710.708 97.8019C710.412 92.7901 711.495 87.7927 713.848 83.3621C717.74 76.2928 725.813 66.5159 738.084 70.7279C750.346 74.939 759.324 84.4155 754.687 97.8019C750.049 111.189 737.17 115.473 730.603 114.046C724.036 112.62 710.708 97.8019 710.708 97.8019Z" fill="#080B09"/>
<path d="M706.756 99.6636C707.467 98.4655 708.516 97.5168 709.785 96.9467C711.046 96.3766 712.451 96.2132 713.813 96.4795C718.671 97.3781 723.774 101.232 728.123 105.855C732.465 110.479 732.321 113.834 730.349 115.881C728.377 117.928 706.756 99.6636 706.756 99.6636Z" fill="#FEBB94"/>
<path d="M599.164 233.695L630.283 320.385H692.852C692.852 317.738 691.803 315.198 689.944 313.327C688.084 311.455 685.558 310.404 682.926 310.404H637.66L610.789 233.695H599.164Z" fill="white"/>
<path d="M599.164 233.695H515.216L547.682 320.385H630.284L599.164 233.695Z" fill="#D4DCF4"/>
<path d="M572.75 287.274C576.931 287.274 580.32 283.865 580.32 279.661C580.32 275.457 576.931 272.048 572.75 272.048C568.569 272.048 565.18 275.457 565.18 279.661C565.18 283.865 568.569 287.274 572.75 287.274Z" fill="white"/>
<path d="M670.636 130.253C670.636 130.253 673.225 155.398 685.391 166.846C693.327 174.312 700.604 172.4 711.453 157.458C721.396 143.756 722.268 137.094 722.268 137.094L711.758 113.31C711.758 113.31 669.4 107.248 670.636 130.253Z" fill="#FFCCB3"/>
<path d="M674.941 125.331C674.941 125.331 680.927 134.912 691.887 135.067C694.189 136.957 696.922 138.221 699.842 138.738C702.77 139.254 705.774 139.007 708.567 138.017C708.567 138.017 704.2 131.349 708.567 129.011C715.997 125.043 718.552 138.276 714.592 142.884C711.901 146.016 714.744 149.663 716.75 152.924C718.764 156.186 725.246 164.26 725.246 164.26C725.246 164.26 724.628 159.601 727.565 156.186C730.501 152.769 740.013 117.795 722.335 104.93C704.657 92.0651 686.047 102.357 682.558 104.93C682.558 104.93 663.98 108.192 663.947 127.619C663.919 144.227 675.674 148.178 675.674 148.178L672.166 134.773C672.166 134.773 674.336 135.006 674.941 125.331Z" fill="#080B09"/>
<path d="M694.697 156.302C694.697 156.302 696.068 160.612 691.414 162.614C688.268 163.654 686.071 160.557 686.071 160.557L694.697 156.302Z" fill="#E56441"/>
<path d="M678.399 149.982C679.367 149.742 679.866 148.384 679.513 146.949C679.161 145.514 678.092 144.547 677.124 144.787C676.156 145.028 675.656 146.385 676.008 147.819C676.36 149.254 677.431 150.222 678.399 149.982Z" fill="#080B09"/>
<path d="M692.751 146.637C693.716 146.397 694.215 145.04 693.868 143.605C693.513 142.17 692.446 141.202 691.473 141.443C690.507 141.683 690.007 143.041 690.36 144.475C690.712 145.909 691.786 146.878 692.751 146.637Z" fill="#080B09"/>
<path d="M672.831 142.247L680.134 140.561C680.256 140.522 680.359 140.44 680.425 140.33C680.491 140.22 680.516 140.09 680.494 139.963C680.413 139.747 680.288 139.55 680.129 139.384C679.97 139.217 679.78 139.084 679.568 138.994C679.357 138.904 679.13 138.858 678.9 138.859C678.67 138.859 678.444 138.906 678.232 138.997L672.505 141.437C672.028 141.555 672.234 142.395 672.831 142.247Z" fill="#080B09"/>
<path d="M697.355 135.674L687.842 138.671C687.779 138.372 687.778 138.064 687.84 137.764C687.902 137.466 688.027 137.183 688.204 136.936C688.381 136.688 688.609 136.48 688.871 136.326C689.133 136.171 689.425 136.075 689.727 136.04L697.329 135.044C697.566 134.985 697.71 135.584 697.355 135.674Z" fill="#080B09"/>
<path d="M683.521 145.185L682.489 152.929L685.209 154.25" stroke="#E56441" stroke-width="0.94666" stroke-linecap="round"/>
<defs>
<linearGradient id="paint0_linear_412_12" x1="436.94" y1="24.8946" x2="503.687" y2="930.947" gradientUnits="userSpaceOnUse">
<stop stop-color="white"/>
<stop offset="1" stop-color="#94B9FF"/>
</linearGradient>
<linearGradient id="paint1_linear_412_12" x1="589.926" y1="378.725" x2="679.159" y2="841.597" gradientUnits="userSpaceOnUse">
<stop stop-color="white"/>
<stop offset="1" stop-color="#F40638"/>
</linearGradient>
<linearGradient id="paint2_linear_412_12" x1="232.948" y1="253.587" x2="234.154" y2="283.653" gradientUnits="userSpaceOnUse">
<stop stop-color="white"/>
<stop offset="1" stop-color="#94B9FF"/>
</linearGradient>
<linearGradient id="paint3_linear_412_12" x1="218.847" y1="259.045" x2="264.09" y2="547.459" gradientUnits="userSpaceOnUse">
<stop stop-color="white"/>
<stop offset="1" stop-color="#94B9FF"/>
</linearGradient>
<linearGradient id="paint4_linear_412_12" x1="261.348" y1="267.516" x2="274.593" y2="395.142" gradientUnits="userSpaceOnUse">
<stop stop-color="white"/>
<stop offset="1" stop-color="#94B9FF"/>
</linearGradient>
</defs>
</svg>
