<svg width="901" height="618" fill="none" xmlns="http://www.w3.org/2000/svg"><path d="M728.424 25.903H176.575c-20.199 0-36.575 16.458-36.575 36.76v351.151c0 20.302 16.376 36.759 36.575 36.759h551.849c20.202 0 36.576-16.457 36.576-36.759V62.663c0-20.302-16.374-36.76-36.576-36.76z" fill="url(#a)"/><path d="M181.378.923h542.238c10.976 0 21.503 6.843 29.259 19.023C760.64 32.126 765 48.647 765 65.872H140c0-17.225 4.359-33.746 12.119-45.926S170.403.923 181.378.923z" fill="#F40638"/><path d="M470.919 94.711h255.673a16.49 16.49 0 0 1 11.694 4.87 16.665 16.665 0 0 1 4.849 11.761v127.081c0 4.41-1.743 8.64-4.849 11.759a16.488 16.488 0 0 1-11.694 4.871H470.919a16.494 16.494 0 0 1-11.695-4.871 16.676 16.676 0 0 1-4.844-11.759V111.342c0-2.184.427-4.346 1.258-6.365a16.642 16.642 0 0 1 3.586-5.394 16.53 16.53 0 0 1 5.366-3.605 16.46 16.46 0 0 1 6.329-1.267z" stroke="#5661AE" stroke-miterlimit="10" stroke-dasharray="11.93 11.93"/><path d="M657.965 278.558H402.291c-9.134 0-16.539 7.445-16.539 16.631v127.08c0 9.184 7.405 16.63 16.539 16.63h255.674c9.134 0 16.54-7.446 16.54-16.63v-127.08c0-9.186-7.406-16.631-16.54-16.631zM354.773 278.558H176.116c-7.727 0-13.991 6.298-13.991 14.069v132.204c0 7.769 6.264 14.068 13.991 14.068h178.657c7.727 0 13.991-6.299 13.991-14.068V292.627c0-7.771-6.264-14.069-13.991-14.069z" fill="#fff"/><path d="M409.281 395.162s19.163-2.03 30.684 6.644c15.453 11.631 27.899 20.609 44.327-7.978 17.996-31.321 20.825-42.26 33.955-42.39 16.852-.165 23.43 45.001 54.503 48.193 31.072 3.192 52.2-1.916 52.2-1.916" stroke="#F40638" stroke-width="10" stroke-miterlimit="10" stroke-linecap="round"/><path d="M409.281 305.02h44.65" stroke="#F40638" stroke-width="16" stroke-miterlimit="10" stroke-linecap="round"/><path d="M409.281 325.973h92.275" stroke="#D4DCF4" stroke-width="16" stroke-miterlimit="10" stroke-linecap="round"/><path d="M179.261 43.86c3.912 0 7.083-3.188 7.083-7.12 0-3.933-3.171-7.12-7.083-7.12-3.91 0-7.081 3.187-7.081 7.12 0 3.932 3.171 7.12 7.081 7.12zM203.261 43.86c3.911 0 7.081-3.188 7.081-7.12 0-3.933-3.17-7.12-7.081-7.12-3.911 0-7.081 3.187-7.081 7.12 0 3.932 3.17 7.12 7.081 7.12zM226.575 43.86c3.912 0 7.082-3.188 7.082-7.12 0-3.933-3.17-7.12-7.082-7.12-3.911 0-7.082 3.187-7.082 7.12 0 3.932 3.171 7.12 7.082 7.12z" fill="#fff"/><path d="M599.165 203.695c15.825 0 28.655-12.9 28.655-28.813 0-15.913-12.83-28.813-28.655-28.813-15.826 0-28.655 12.9-28.655 28.813 0 15.913 12.829 28.813 28.655 28.813z" fill="#F40638"/><path d="M601.426 161.269a2.269 2.269 0 0 0-2.262-2.275 2.269 2.269 0 0 0-2.262 2.275v29.054a2.268 2.268 0 0 0 2.262 2.274 2.268 2.268 0 0 0 2.262-2.274v-29.054z" fill="#fff"/><path d="M613.612 178.07a2.268 2.268 0 0 0 2.261-2.275 2.267 2.267 0 0 0-2.261-2.274h-28.895a2.267 2.267 0 0 0-2.262 2.274 2.268 2.268 0 0 0 2.262 2.275h28.895z" fill="#fff"/><path d="M450.283 618c248.688 0 450.286-5.179 450.286-11.567 0-6.389-201.598-11.567-450.286-11.567C201.599 594.866 0 600.044 0 606.433 0 612.821 201.599 618 450.283 618z" fill="#F5F8FF"/><path d="M845.191 379.257H530.128v223.798h315.063V379.257z" fill="#F40638"/><path d="M655.991 379.257H530.128v223.798h125.863V379.257z" fill="url(#b)"/><path d="m77.152 518.939-12.93 83.49-4.922-.771a6.338 6.338 0 0 1-4.143-2.539 6.397 6.397 0 0 1-1.145-4.74l10.979-70.894a6.382 6.382 0 0 1 2.524-4.166 6.313 6.313 0 0 1 4.714-1.151l4.923.771z" fill="#B2B3B4"/><path d="m117.562 532.99-20.216-6.082-6.428 28.321 22.118 6.982 4.526-29.221z" fill="#FFCCB3"/><path d="m103.651 559.249-3.738-1.18 9.183-27.626 3.413 1.027-8.858 27.779z" fill="#FF967C"/><path d="M99.909 527.309s-7.921 13.838-3.556 29.636L69.14 601.676c-2.365 1.738-5.959.707-7.956-.361a2.411 2.411 0 0 1-1.226-2.497l11.737-75.785a4.888 4.888 0 0 1 1.896-3.168 4.839 4.839 0 0 1 3.56-.926c5.047.688 12.728 1.8 15.749 2.581 4.67 1.205 7.132 2.912 7.008 5.789z" fill="#E51A4B"/><path d="m90.927 566.446-3.995-6.407a1.677 1.677 0 0 0-1.366-.789 1.664 1.664 0 0 0-1.414.699 1.698 1.698 0 0 0-.049 1.897l4.988 7.785 1.836-3.185zM86.398 573.309l-3.956-6.392a1.682 1.682 0 0 0-1.366-.789 1.665 1.665 0 0 0-1.413.699 1.69 1.69 0 0 0-.05 1.897l4.882 7.713 1.903-3.128zM81.704 581.025l-3.884-6.346a1.67 1.67 0 0 0-2.779-.09 1.688 1.688 0 0 0-.049 1.897l4.86 7.585 1.852-3.046z" fill="#fff"/><path d="M299.405 591.671h84.032v5.01c0 .837-.164 1.666-.482 2.438a6.364 6.364 0 0 1-3.431 3.45 6.29 6.29 0 0 1-2.425.485h-71.355a6.319 6.319 0 0 1-4.482-1.867 6.389 6.389 0 0 1-1.857-4.506v-5.01z" fill="#B2B3B4"/><path d="m306.995 549.36-2.866 21.021 28.82 2.029 3.458-23.05h-29.412z" fill="#FFCCB3"/><path d="m336.108 551.351-.738 4.919-29.595 2.039.949-6.958h29.384z" fill="#FF967C"/><path d="M304.129 567.773s14.818 5.741 29.67-1.026l48.143 20.152c2.071 2.083 1.612 5.812.868 7.961a2.39 2.39 0 0 1-2.265 1.602h-76.278a4.843 4.843 0 0 1-3.404-1.396 4.907 4.907 0 0 1-1.458-3.395c-.1-5.12-.188-12.922.113-16.044.466-4.826 1.765-7.535 4.611-7.854z" fill="#E51A4B"/><path d="m343.97 570.675-5.682 4.956c-.207.18-.367.41-.465.668-.099.258-.133.536-.099.81a1.681 1.681 0 0 0 .903 1.297 1.668 1.668 0 0 0 1.873-.243l6.883-6.153-3.413-1.335zM351.41 574.119l-5.672 4.915c-.208.18-.368.41-.466.668a1.685 1.685 0 0 0 .806 2.107 1.668 1.668 0 0 0 1.871-.244l6.828-6.037-3.367-1.409zM359.716 577.595l-5.64 4.836c-.207.18-.367.41-.465.668-.099.257-.133.536-.099.81a1.681 1.681 0 0 0 1.878 1.465c.333-.043.646-.186.898-.412l6.706-5.995-3.278-1.372z" fill="#fff"/><path d="m257.499 273.859 17.415-34.478s-10.602 1.393-12.449-5.224c-1.848-6.618 50.105-12.538 50.105-12.538s-4.157 14.628-10.391 16.369l-17.144 50.498-27.536-14.627z" fill="#FFCCB3"/><path d="m260.094 268.723 27.203 13.103-2.262 6.66-26.436-16.803 1.495-2.96z" fill="#FF967C"/><path d="m425.956 89.341-250.415 41.22c-4.296.707-7.209 4.783-6.505 9.103l16.351 100.439c.704 4.32 4.757 7.25 9.054 6.543l250.414-41.221c4.297-.707 7.21-4.782 6.506-9.103L435.01 95.883c-.703-4.32-4.757-7.25-9.054-6.542z" fill="#F40638"/><path d="m297.992 152.316 101.771-16.752" stroke="#fff" stroke-width="16.521" stroke-miterlimit="10" stroke-linecap="round"/><path opacity=".7" d="m305.222 183.388 66.388-10.928" stroke="#fff" stroke-width="16.521" stroke-miterlimit="10" stroke-linecap="round"/><path d="M237.158 220.849c19.879 0 35.994-16.204 35.994-36.191 0-19.989-16.115-36.193-35.994-36.193-19.878 0-35.992 16.204-35.992 36.193 0 19.987 16.114 36.191 35.992 36.191z" stroke="#EF6A77" stroke-width="16.521" stroke-miterlimit="10"/><path d="M272.679 178.81a36.379 36.379 0 0 1-2.755 20.828 36.129 36.129 0 0 1-13.8 15.78 35.848 35.848 0 0 1-20.192 5.41 35.858 35.858 0 0 1-19.778-6.781 36.165 36.165 0 0 1-12.698-16.687 36.377 36.377 0 0 1-1.339-20.969 36.23 36.23 0 0 1 10.473-18.183 35.913 35.913 0 0 1 18.754-9.267" stroke="#fff" stroke-width="16.521" stroke-miterlimit="10" stroke-linecap="round"/><path d="m248.887 455.67 10.387 118.219c0 25.342-25.714 28.225-33.946 25.238-11.611-4.213-124.072-33-124.072-33l11.918-36.705 86.314 12.063s-2.36-24.629-25.506-99.836l74.905 14.021z" fill="#5661AE"/><path d="m181.694 467.699 69.986 19.758-3.935-47.471-73.763 1.663 7.712 26.05z" fill="#465393"/><path d="M247.871 196.66s13.859 15.82 17.98 22.223c4.121 6.403 4.268 18.962-4.348 22.163-8.614 3.202-15.662 3.74-28.241 1.377-9.787-1.837-22.475-18.079-18.729-26.365 3.746-8.286 21.164-23.352 33.338-19.398z" fill="#FFCCB3"/><path d="m250.493 240.916-2.06 26.743-30.154-6.591 13.485-25.236 18.729 5.084z" fill="#FFCCB3"/><path d="M250.493 243.7h-8.198l7.013 12.592" fill="#FF967C"/><path d="m214.908 259.373 4.497-4.381a4.827 4.827 0 0 1 4.484-1.24l24.657 5.871a3.52 3.52 0 0 1 1.588.852c.447.418.779.945.963 1.529l1.782 5.655-37.971-8.286z" fill="url(#c)"/><path d="m175.856 394.579-4.414 21.501c-4.969 32.801 18.418 54.497 54.162 48.584 31.921-5.28 126.479-42.144 126.479-42.144l-3.769-58.342-79.492 13.187s-71.451-13.31-92.966 17.214z" fill="#5661AE"/><path d="M354.235 415.199c14.203 0 25.716-11.577 25.716-25.856 0-14.281-11.513-25.858-25.716-25.858-14.201 0-25.714 11.577-25.714 25.858 0 14.279 11.513 25.856 25.714 25.856z" fill="#5661AE"/><path d="M354.235 415.199c14.203 0 25.716-11.577 25.716-25.856 0-14.281-11.513-25.858-25.716-25.858-14.201 0-25.714 11.577-25.714 25.858 0 14.279 11.513 25.856 25.714 25.856zM233.56 600.488c14.202 0 25.715-11.576 25.715-25.856 0-14.281-11.513-25.857-25.715-25.857-14.201 0-25.714 11.576-25.714 25.857 0 14.28 11.513 25.856 25.714 25.856z" fill="#5661AE"/><path d="m378.696 396.814-36.15 154.537h-43.234l29.209-162.009 50.175 7.472z" fill="#5661AE"/><path d="M268.822 377.366 173.61 407.16l2.245-12.581 92.967-17.213z" fill="#465393"/><path d="m290.187 290.068 9.46 6.92 31.589-52.136s-4.206-17.077-4.495-19.984l10.278-1.474s8.325-15.777 10.698-18.898c2.373-3.12 5.112-2.569 6.572 0 0 0 4.564.735 5.294 6.976 0 0 4.017.918 5.659 8.994 0 0 3.469 3.672 2.739 7.71-.731 4.038-9.858 19.865-11.319 21.497a40.062 40.062 0 0 0-3.103 4.201l-30.425 73.308s-7.434 16.034-24.856 9.953l-21.599-10.066c-9.915-6.459 13.508-37.001 13.508-37.001z" fill="#FFCCB3"/><path d="M306.109 339.03c10.042 0 18.184-8.186 18.184-18.284 0-10.098-8.142-18.285-18.184-18.285-10.043 0-18.185 8.187-18.185 18.285s8.142 18.284 18.185 18.284z" fill="#FFCCB3"/><path d="M229.891 209.843s17.793-6.026 21.351-18.644c3.558-12.618-3.932-19.209-13.672-12.806 0 0-6.93-11.111-18.729-3.39-11.799 7.722-9.552 25.989-9.177 29.567 0 0-13.298 9.416-6.93 24.294 6.368 14.877 23.841 18.455 23.841 18.455a26.627 26.627 0 0 0 4.065-9.227s-9.629-7.345-4.065-14.501c5.563-7.157 11.931 4.331 11.931 4.331s4.87-16.196-8.615-18.079z" fill="#465393"/><path d="M214.909 259.373s-12.353 6.175-15.151 12.826c-2.586 6.145-20.57 86.86-26.077 119.352a4.789 4.789 0 0 0 1.399 4.258 4.733 4.733 0 0 0 4.293 1.212l89.449-19.656s-4.375-47.271-2.842-61.144c1.533-13.873-13.1-48.562-13.1-48.562l-37.971-8.286z" fill="url(#d)"/><path d="m265.663 322.762-22.552-13.476 23.466 38.814-.914-25.338z" fill="#96BAFD"/><path d="m299.647 296.987 6.567 4.603 6.356-25.93-12.923 21.327z" fill="#FF967C"/><path d="M252.88 267.659s35.893 19.729 40.251 22.965a2.974 2.974 0 0 1 .862 3.751l-16.485 31.826a2.939 2.939 0 0 1-1.806 1.481 2.925 2.925 0 0 1-2.312-.303l-41.836-24.999s-2.226-33.277 21.326-34.721z" fill="url(#e)"/><path d="M248.301 220.391c.859-.646.762-2.239-.218-3.559-.981-1.321-2.473-1.867-3.332-1.221-.861.646-.763 2.239.217 3.559.98 1.32 2.472 1.867 3.333 1.221zM260.095 211.417c.86-.646.763-2.24-.217-3.56-.981-1.32-2.473-1.867-3.332-1.221-.861.646-.763 2.24.217 3.56.98 1.319 2.472 1.866 3.332 1.221z" fill="#080B09"/><path d="M255.32 213.875s-.204 3.904 2.175 2.876c2.238-1.06 4.15-.33 2.748 2.633" stroke="#93523E" stroke-width="1.209" stroke-linecap="round" stroke-linejoin="round"/><path d="M261.029 222.17c-1.35.739-4.052 2.216-5.835 3.23a.672.672 0 0 0-.347.608.677.677 0 0 0 .376.591c2.5 1.086 7.855 2.667 6.731-3.922a.604.604 0 0 0-.622-.6.608.608 0 0 0-.303.093z" fill="#fff"/><path d="m238.157 216.489.25.206a1.789 1.789 0 0 0 2.526-.027l5.56-5.976a1.584 1.584 0 0 0 .106-2.137 1.701 1.701 0 0 0-1.229-.678 1.703 1.703 0 0 0-1.32.476l-5.81 5.769a1.657 1.657 0 0 0-.434 1.814c.079.206.198.394.351.553zM258.362 199.531l-7.645 2.885a1.721 1.721 0 0 0-.599.396 1.714 1.714 0 0 0-.485 1.323c.017.243.084.479.198.693a1.566 1.566 0 0 0 1.975.799l7.726-2.57a1.79 1.79 0 0 0 1.012-.923c.202-.43.228-.923.071-1.371l-.081-.315a1.634 1.634 0 0 0-2.172-.917z" fill="#080B09"/><path d="M635.936 333.684s-24.237-21.273-43.941-3.195c-19.705 18.077-101.118 142.219-101.118 142.219l24.624 17.122 92.349-104.429 16.075 26.017 12.011-77.734z" fill="#FCBA9F"/><path fill-rule="evenodd" clip-rule="evenodd" d="M619.447 571.22c10.151-7.459 20.615-15.148 31.634-17.631a1.76 1.76 0 0 1 1.442.307 1.773 1.773 0 0 1 .7 1.304l1.208 20.556a1.76 1.76 0 0 1-.362 1.177 1.731 1.731 0 0 1-1.041.647l-75.482 15.002c-5.565 1.106-9.135-1.328-10.847-5.649a.836.836 0 0 1 .188-.879.822.822 0 0 1 .874-.19 40.227 40.227 0 0 0 30.499-1.071c6.963-3.121 13.996-8.29 21.187-13.573z" fill="#5661AE"/><path fill-rule="evenodd" clip-rule="evenodd" d="M642.611 503.874s1.429 32.444 2.182 35.744a38.447 38.447 0 0 0 1.943 5.275c1.294 3.101 2.735 6.556 2.867 9.067-10.477 2.807-20.459 10.14-30.155 17.263-7.191 5.283-14.223 10.449-21.187 13.57a40.254 40.254 0 0 1-29.106 1.562c-1.312-5.608 2.497-11.817 12.108-14.613 17.226-5.013 26.639-8.19 32.646-22.678 4.268-10.295-2.881-46.136-2.881-46.136l31.583.946z" fill="#FFCCB3"/><path fill-rule="evenodd" clip-rule="evenodd" d="M614.663 543.587c3.388-.209 16.846-1.1 29.731-2.794 2.504-.329 4.739 4.4 3.669 7.408a43.278 43.278 0 0 0-1.563 6.727 64.723 64.723 0 0 0-12.036 5.903c.779-5.36-2.472-7.733-7.303-7.488-3.815.193-12.434 2.63-16.878 3.953a1.34 1.34 0 0 1-.748.002 1.346 1.346 0 0 1-.849-1.832l4.839-11.078a1.336 1.336 0 0 1 1.138-.801zM579.023 588.268c8.768.69 14.073-1.603 14.073-1.603l-3.529-17.949-13.72 3.394 3.176 16.158z" fill="#DCDCDC"/><path fill-rule="evenodd" clip-rule="evenodd" d="M469.066 506.415c12.538.94 25.462 1.909 35.452 7.202a1.768 1.768 0 0 1 .593 2.624l-12.336 16.437a1.736 1.736 0 0 1-2.245.474l-67.137-37.791c-4.951-2.787-6.099-6.968-4.616-11.374a.834.834 0 0 1 .71-.546.824.824 0 0 1 .788.426c5.187 9.252 13.768 16.097 23.91 19.068 7.314 2.164 16 2.815 24.881 3.48z" fill="#5661AE"/><path fill-rule="evenodd" clip-rule="evenodd" d="m530.128 470.247-21.388 28.634a38.509 38.509 0 0 0-1.921 5.284c-1.015 3.204-2.146 6.774-3.665 8.772-9.786-4.695-22.114-5.62-34.089-6.519-8.881-.666-17.565-1.318-24.879-3.482a40.486 40.486 0 0 1-23.166-17.787c2.617-5.125 9.521-7.368 18.641-3.231 16.347 7.415 25.562 11.133 39.476 4.02a23.766 23.766 0 0 0 5.948-5.001l21.609-32.001 23.434 21.311z" fill="#FCBA9F"/><path fill-rule="evenodd" clip-rule="evenodd" d="M483.243 482.26c2.714 2.049 13.534 10.144 24.436 17.255 2.118 1.383.77 6.44-1.983 8.033a42.596 42.596 0 0 0-5.528 4.102 64.555 64.555 0 0 0-12.97-3.353c4.049-3.572 3.105-7.499-.731-10.462-3.029-2.341-11.162-6.105-15.398-7.995a1.33 1.33 0 0 1-.571-.487 1.36 1.36 0 0 1-.221-.719 1.34 1.34 0 0 1 .757-1.229l10.827-5.279a1.328 1.328 0 0 1 1.382.134zM427.298 493.038c6.231 6.243 11.746 7.955 11.746 7.955l8.889-15.966-12.634-6.36-8.001 14.371z" fill="#DCDCDC"/><path d="m669.172 318.249-63.904 11.416 12.578 50.864h40.934s19.458-42.054 10.392-62.28z" fill="#FFCCB3"/><path d="M613.459 380.031c14.201 0 25.714-11.575 25.714-25.856 0-14.28-11.513-25.857-25.714-25.857-14.203 0-25.716 11.577-25.716 25.857 0 14.281 11.513 25.856 25.716 25.856z" fill="#FFCCB3"/><path d="m588.062 358.249 25.731 162.005 29.679 1.245-3.465-160.142-51.945-3.108z" fill="#FFCCB3"/><path d="M628.372 322.705s9.849 3.05 13.914 19.202c4.065 16.151-.371 38.622-.371 38.622h6.333s22.581-26.664 5.968-60.646l-25.844 2.822z" fill="#FF967C"/><path d="m690.507 184.166-8.044 3.88a23.262 23.262 0 0 0-7.964 6.309 23.425 23.425 0 0 0-4.534 9.119l-18.183 73.566-40.993 19.708 9.346 14.926 77.507-2.764-7.135-124.744z" fill="#5661AE"/><path d="M678.923 210.648s-14.114 19.939-7.284 38.93c6.83 18.991 4.041 22.512 2.333 39.337-1.708 16.824 3.87 12.912 3.87 12.912l19.8-9.391s8.259-79.584-18.719-81.788z" fill="#465393"/><path d="M761.964 302.221s7.828 38.509-2.429 54.601c-12.981 20.369-28.856 23.488-40.593 23.707h-77.027s-.142-48.32-38.089-56.576c0 0 124.89-34.974 158.138-21.732z" fill="#1F2D49"/><path d="m763.69 313.435-81.632 2.702.868-5.733 15.909-1.849h64.737l.118 4.88z" fill="#0D1B33"/><path d="M658.112 295.391s-9.987 2.919-14.473 4.245c-4.486 1.327-13.356 4.512-13.356 4.512l6.495 9.287 29.434-1.761-8.1-16.283z" fill="#FFCCB3"/><path d="M706.503 177.298s-16.76 6.669-19.32 8.728c-2.559 2.059-4.989 18.861-9.341 26.839-4.35 7.978-10.715 22.703-1.419 36.228 9.297 13.526 8.309 24.266 8.309 24.266l-1.979 33.929 77.553 2.372a4.938 4.938 0 0 0 2.056-.378 4.966 4.966 0 0 0 1.727-1.194 5.026 5.026 0 0 0 1.337-3.891c-.889-9.892-2.387-24.671-2.708-40.423-.432-21.347-.753-92.677-.753-92.677l-34.907-1.101c-7.024 1.218-20.555 7.302-20.555 7.302z" fill="#5661AE"/><path d="M761.964 208.968c10.401 0 18.829-8.478 18.829-18.935 0-10.458-8.428-18.936-18.829-18.936-10.4 0-18.828 8.478-18.828 18.936 0 10.457 8.428 18.935 18.828 18.935z" fill="#5661AE"/><path d="M764.503 296.374s-1.608 5.92-18.829 12.838c0 0-40.373-.882-60.432-.458-20.058.424 2.151-4.896 13.348-10.51 11.196-5.613 64.644-21.204 64.644-21.204l1.269 19.334zM748.229 200.255s-11.678 10.705-12.363 18.647c-.694 7.942-2.276 30.088-17.28 32.297-18.397 2.707-23.212 5.344-14.682 7.415 8.521 2.072 27.875-1.285 27.875 7.597 0 6.321 7.514 11.05 11.297 7.597 3.774-3.453 33.866-55.941 5.153-73.553z" fill="#465393"/><path d="M780.59 192.803c-1.582 7.599-16.645 87.651-16.645 87.651s-1.981 11.976-13.616 14.937l-81.157 20.746-14.28-21.539 73.604-25.311 14.64-79.254s39.57-7.367 37.454 2.77z" fill="#5661AE"/><path d="m704.615 162.555.77 26.27s-.203 4.532 5.264 3.921c5.475-.611 16.484-4.724 19.522-10.021 3.038-5.298 1.118-7.114 1.118-7.114l-16.697-32.727-9.977 19.671z" fill="#FFCCB3"/><path d="m704.615 165.608 6.838-8.15-6.254 25.076-.584-16.926z" fill="#FF967C"/><path d="M710.708 97.802a27.348 27.348 0 0 1 3.14-14.44c3.892-7.07 11.965-16.846 24.236-12.634 12.262 4.211 21.24 13.688 16.603 27.074-4.638 13.387-17.517 17.671-24.084 16.244-6.567-1.426-19.895-16.244-19.895-16.244z" fill="#080B09"/><path d="M706.756 99.664a6.727 6.727 0 0 1 3.029-2.717 6.664 6.664 0 0 1 4.028-.468c4.858.9 9.961 4.753 14.31 9.376 4.342 4.624 4.198 7.979 2.226 10.026-1.972 2.047-23.593-16.217-23.593-16.217z" fill="#FEBB94"/><path d="m599.164 233.695 31.119 86.69h62.569a10.02 10.02 0 0 0-2.908-7.058 9.894 9.894 0 0 0-7.018-2.923H637.66l-26.871-76.709h-11.625z" fill="#fff"/><path d="M599.164 233.695h-83.948l32.466 86.69h82.602l-31.12-86.69z" fill="#D4DCF4"/><path d="M572.75 287.274c4.181 0 7.57-3.409 7.57-7.613 0-4.204-3.389-7.613-7.57-7.613-4.181 0-7.57 3.409-7.57 7.613 0 4.204 3.389 7.613 7.57 7.613z" fill="#fff"/><path d="M670.636 130.253s2.589 25.145 14.755 36.593c7.936 7.466 15.213 5.554 26.062-9.388 9.943-13.702 10.815-20.364 10.815-20.364l-10.51-23.784s-42.358-6.062-41.122 16.943z" fill="#FFCCB3"/><path d="M674.941 125.331s5.986 9.581 16.946 9.736a17.276 17.276 0 0 0 7.955 3.671 17.18 17.18 0 0 0 8.725-.721s-4.367-6.668 0-9.006c7.43-3.968 9.985 9.265 6.025 13.873-2.691 3.132.152 6.779 2.158 10.04 2.014 3.262 8.496 11.336 8.496 11.336s-.618-4.659 2.319-8.074c2.936-3.417 12.448-38.391-5.23-51.256-17.678-12.865-36.288-2.573-39.777 0 0 0-18.578 3.262-18.611 22.689-.028 16.608 11.727 20.559 11.727 20.559l-3.508-13.405s2.17.233 2.775-9.442z" fill="#080B09"/><path d="M694.697 156.302s1.371 4.31-3.283 6.312c-3.146 1.04-5.343-2.057-5.343-2.057l8.626-4.255z" fill="#E56441"/><path d="M678.399 149.982c.968-.24 1.467-1.598 1.114-3.033-.352-1.435-1.421-2.402-2.389-2.162-.968.241-1.468 1.598-1.116 3.032.352 1.435 1.423 2.403 2.391 2.163zM692.751 146.637c.965-.24 1.464-1.597 1.117-3.032-.355-1.435-1.422-2.403-2.395-2.162-.966.24-1.466 1.598-1.113 3.032.352 1.434 1.426 2.403 2.391 2.162zM672.831 142.247l7.303-1.686a.535.535 0 0 0 .36-.598 1.703 1.703 0 0 0-2.262-.966l-5.727 2.44c-.477.118-.271.958.326.81zM697.355 135.674l-9.513 2.997a2.191 2.191 0 0 1 1.029-2.345 2.17 2.17 0 0 1 .856-.286l7.602-.996c.237-.059.381.54.026.63z" fill="#080B09"/><path d="m683.521 145.185-1.032 7.744 2.72 1.321" stroke="#E56441" stroke-width=".947" stroke-linecap="round"/><defs><linearGradient id="a" x1="436.94" y1="24.895" x2="503.687" y2="930.947" gradientUnits="userSpaceOnUse"><stop stop-color="#fff"/><stop offset="1" stop-color="#94B9FF"/></linearGradient><linearGradient id="b" x1="589.926" y1="378.725" x2="679.159" y2="841.597" gradientUnits="userSpaceOnUse"><stop stop-color="#fff"/><stop offset="1" stop-color="#F40638"/></linearGradient><linearGradient id="c" x1="232.948" y1="253.587" x2="234.154" y2="283.653" gradientUnits="userSpaceOnUse"><stop stop-color="#fff"/><stop offset="1" stop-color="#94B9FF"/></linearGradient><linearGradient id="d" x1="218.847" y1="259.045" x2="264.09" y2="547.459" gradientUnits="userSpaceOnUse"><stop stop-color="#fff"/><stop offset="1" stop-color="#94B9FF"/></linearGradient><linearGradient id="e" x1="261.348" y1="267.516" x2="274.593" y2="395.142" gradientUnits="userSpaceOnUse"><stop stop-color="#fff"/><stop offset="1" stop-color="#94B9FF"/></linearGradient></defs></svg>