<svg width="180" height="36" viewBox="0 0 180 36" fill="none" xmlns="http://www.w3.org/2000/svg">
<path d="M2.97 29V8H6.15L15.36 23.33H13.65L22.71 8H25.89L25.95 29H22.23L22.2 13.79H22.98L15.3 26.6H13.56L5.76 13.79H6.66V29H2.97ZM38.8767 29.21C37.0967 29.21 35.5367 28.86 34.1967 28.16C32.8767 27.44 31.8467 26.46 31.1067 25.22C30.3867 23.98 30.0267 22.57 30.0267 20.99C30.0267 19.39 30.3767 17.98 31.0767 16.76C31.7967 15.52 32.7767 14.55 34.0167 13.85C35.2767 13.15 36.7067 12.8 38.3067 12.8C39.8667 12.8 41.2567 13.14 42.4767 13.82C43.6967 14.5 44.6567 15.46 45.3567 16.7C46.0567 17.94 46.4067 19.4 46.4067 21.08C46.4067 21.24 46.3967 21.42 46.3767 21.62C46.3767 21.82 46.3667 22.01 46.3467 22.19H32.9967V19.7H44.3667L42.8967 20.48C42.9167 19.56 42.7267 18.75 42.3267 18.05C41.9267 17.35 41.3767 16.8 40.6767 16.4C39.9967 16 39.2067 15.8 38.3067 15.8C37.3867 15.8 36.5767 16 35.8767 16.4C35.1967 16.8 34.6567 17.36 34.2567 18.08C33.8767 18.78 33.6867 19.61 33.6867 20.57V21.17C33.6867 22.13 33.9067 22.98 34.3467 23.72C34.7867 24.46 35.4067 25.03 36.2067 25.43C37.0067 25.83 37.9267 26.03 38.9667 26.03C39.8667 26.03 40.6767 25.89 41.3967 25.61C42.1167 25.33 42.7567 24.89 43.3167 24.29L45.3267 26.6C44.6067 27.44 43.6967 28.09 42.5967 28.55C41.5167 28.99 40.2767 29.21 38.8767 29.21ZM61.2832 27.26V16.16H55.1332L55.0432 18.74C55.0032 19.66 54.9432 20.55 54.8632 21.41C54.7832 22.25 54.6532 23.03 54.4732 23.75C54.2932 24.45 54.0332 25.03 53.6932 25.49C53.3532 25.95 52.9032 26.25 52.3432 26.39L48.6232 25.82C49.2232 25.82 49.7032 25.63 50.0632 25.25C50.4432 24.85 50.7332 24.31 50.9332 23.63C51.1532 22.93 51.3132 22.14 51.4132 21.26C51.5132 20.36 51.5832 19.43 51.6232 18.47L51.8332 12.98H65.0332V27.26H61.2832ZM48.0532 32.57V25.82H67.4032V32.57H63.8932V29H51.5332V32.57H48.0532ZM70.7524 29V12.98H74.5024V23.54L83.3524 12.98H86.7724V29H83.0224V18.44L74.2024 29H70.7524ZM101.537 29V25.76L101.327 25.07V19.4C101.327 18.3 100.997 17.45 100.337 16.85C99.6769 16.23 98.6769 15.92 97.3369 15.92C96.4369 15.92 95.5469 16.06 94.6669 16.34C93.8069 16.62 93.0769 17.01 92.4769 17.51L91.0069 14.78C91.8669 14.12 92.8869 13.63 94.0669 13.31C95.2669 12.97 96.5069 12.8 97.7869 12.8C100.107 12.8 101.897 13.36 103.157 14.48C104.437 15.58 105.077 17.29 105.077 19.61V29H101.537ZM96.4969 29.21C95.2969 29.21 94.2469 29.01 93.3469 28.61C92.4469 28.19 91.7469 27.62 91.2469 26.9C90.7669 26.16 90.5269 25.33 90.5269 24.41C90.5269 23.51 90.7369 22.7 91.1569 21.98C91.5969 21.26 92.3069 20.69 93.2869 20.27C94.2669 19.85 95.5669 19.64 97.1869 19.64H101.837V22.13H97.4569C96.1769 22.13 95.3169 22.34 94.8769 22.76C94.4369 23.16 94.2169 23.66 94.2169 24.26C94.2169 24.94 94.4869 25.48 95.0269 25.88C95.5669 26.28 96.3169 26.48 97.2769 26.48C98.1969 26.48 99.0169 26.27 99.7369 25.85C100.477 25.43 101.007 24.81 101.327 23.99L101.957 26.24C101.597 27.18 100.947 27.91 100.007 28.43C99.0869 28.95 97.9169 29.21 96.4969 29.21Z" fill="#FAFBF5"/>
<path d="M110.857 29.21C110.177 29.21 109.597 28.98 109.117 28.52C108.637 28.04 108.397 27.44 108.397 26.72C108.397 25.96 108.637 25.36 109.117 24.92C109.597 24.46 110.177 24.23 110.857 24.23C111.537 24.23 112.117 24.46 112.597 24.92C113.077 25.36 113.317 25.96 113.317 26.72C113.317 27.44 113.077 28.04 112.597 28.52C112.117 28.98 111.537 29.21 110.857 29.21ZM132.101 8H136.001V29H132.101V8ZM121.241 29H117.341V8H121.241V29ZM132.401 20H120.911V16.67H132.401V20ZM148.049 29.21C146.689 29.21 145.489 28.96 144.449 28.46C143.409 27.94 142.599 27.16 142.019 26.12C141.439 25.06 141.149 23.73 141.149 22.13V12.98H144.899V21.62C144.899 23.06 145.219 24.14 145.859 24.86C146.519 25.56 147.449 25.91 148.649 25.91C149.529 25.91 150.289 25.73 150.929 25.37C151.589 25.01 152.099 24.47 152.459 23.75C152.839 23.03 153.029 22.14 153.029 21.08V12.98H156.779V29H153.209V24.68L153.839 26C153.299 27.04 152.509 27.84 151.469 28.4C150.429 28.94 149.289 29.21 148.049 29.21ZM170.569 29.21C169.209 29.21 167.999 28.91 166.939 28.31C165.879 27.71 165.039 26.81 164.419 25.61C163.819 24.39 163.519 22.85 163.519 20.99C163.519 19.11 163.829 17.57 164.449 16.37C165.089 15.17 165.939 14.28 166.999 13.7C168.079 13.1 169.269 12.8 170.569 12.8C172.149 12.8 173.539 13.14 174.739 13.82C175.959 14.5 176.919 15.45 177.619 16.67C178.339 17.89 178.699 19.33 178.699 20.99C178.699 22.65 178.339 24.09 177.619 25.31C176.919 26.53 175.959 27.49 174.739 28.19C173.539 28.87 172.149 29.21 170.569 29.21ZM161.689 29V6.74H165.439V16.7L165.139 20.96L165.259 25.22V29H161.689ZM170.149 26C171.049 26 171.849 25.8 172.549 25.4C173.269 25 173.839 24.42 174.259 23.66C174.679 22.9 174.889 22.01 174.889 20.99C174.889 19.95 174.679 19.06 174.259 18.32C173.839 17.56 173.269 16.98 172.549 16.58C171.849 16.18 171.049 15.98 170.149 15.98C169.249 15.98 168.439 16.18 167.719 16.58C166.999 16.98 166.429 17.56 166.009 18.32C165.589 19.06 165.379 19.95 165.379 20.99C165.379 22.01 165.589 22.9 166.009 23.66C166.429 24.42 166.999 25 167.719 25.4C168.439 25.8 169.249 26 170.149 26Z" fill="#F40638"/>
<rect x="33" y="15" width="10" height="6" fill="#FAFBF5"/>
<ellipse cx="170.5" cy="21" rx="5.5" ry="6" fill="#F40638"/>
<path fill-rule="evenodd" clip-rule="evenodd" d="M168.21 22.9802C169.003 22.9802 168.268 22.9792 168.296 22.9773C173.975 22.9703 175.53 22.9859 175.948 22.9935C175.97 22.8175 175.987 22.6398 176 22.4605L168.222 22.0606V22.0581L168.21 22.0582C167.91 22.0582 167.666 21.7908 167.666 21.4609C167.666 21.2803 167.739 21.1185 167.855 21.009V21.0084L173.391 15.3458C173.269 15.2266 173.145 15.111 173.016 15C172.755 15.2527 171.693 16.2569 167.384 20.2423C167.035 20.5281 166.826 20.976 166.826 21.4609C166.826 22.3069 167.418 22.9802 168.21 22.9802ZM166.226 19.4588C165.485 18.7453 165.151 18.4235 165 18.2783C165.427 17.7325 166.06 17.3867 166.767 17.3867C167.47 17.3867 168.101 17.7296 168.528 18.2716C168.354 18.4392 167.837 18.9219 166.755 19.9625C166.344 20.3955 166.237 20.8872 166.237 21.4991C166.237 22.526 166.906 23.3813 167.792 23.568C168.187 23.6511 168.797 23.6408 169.179 23.6517L173.026 23.7385C174.083 23.7209 175.021 24.3623 175.295 25.4869C175.337 25.6576 175.362 25.8297 175.37 26H174.913C174.815 25.182 174.155 24.4592 173.482 24.3722C173.097 24.3393 172.452 24.3427 172.066 24.3387C171.17 24.3295 169.742 24.3688 168.808 24.3624C168.486 24.3602 167.971 24.3781 167.672 24.3268C166.442 24.1149 165.501 22.9466 165.501 21.537C165.501 20.7981 165.755 19.9824 166.226 19.4588ZM171.039 20.448L175.009 19.5823C175.043 19.7111 175.075 19.8413 175.103 19.9728L171.225 20.9795L175.271 21.1122C175.282 21.2585 175.29 21.4058 175.294 21.5542C173.095 21.5629 170.893 21.5843 168.693 21.5751C168.561 21.5734 168.454 21.4625 168.455 21.3152C168.455 21.2197 168.517 21.1315 168.579 21.0901L168.865 20.8684L173.667 16.8053C173.742 16.9057 173.815 17.0082 173.886 17.1128L170.758 19.9774L174.482 18.153C174.537 18.2685 174.59 18.3856 174.64 18.5044L171.039 20.448Z" fill="#FAFBF5"/>
</svg>
