<svg width="180" height="36" fill="none" xmlns="http://www.w3.org/2000/svg"><path d="M2.97 29V8h3.18l9.21 15.33h-1.71L22.71 8h3.18l.06 21h-3.72l-.03-15.21h.78L15.3 26.6h-1.74l-7.8-12.81h.9V29H2.97zm35.907.21c-1.78 0-3.34-.35-4.68-1.05-1.32-.72-2.35-1.7-3.09-2.94-.72-1.24-1.08-2.65-1.08-4.23 0-1.6.35-3.01 1.05-4.23a7.75 7.75 0 0 1 2.94-2.91c1.26-.7 2.69-1.05 4.29-1.05 1.56 0 2.95.34 4.17 1.02 1.22.68 2.18 1.64 2.88 2.88.7 1.24 1.05 2.7 1.05 4.38 0 .16-.01.34-.03.54 0 .2-.01.39-.03.57h-13.35V19.7h11.37l-1.47.78c.02-.92-.17-1.73-.57-2.43-.4-.7-.95-1.25-1.65-1.65-.68-.4-1.47-.6-2.37-.6-.92 0-1.73.2-2.43.6-.68.4-1.22.96-1.62 1.68-.38.7-.57 1.53-.57 2.49v.6c0 .96.22 1.81.66 2.55a4.4 4.4 0 0 0 1.86 1.71c.8.4 1.72.6 2.76.6.9 0 1.71-.14 2.43-.42.72-.28 1.36-.72 1.92-1.32l2.01 2.31c-.72.84-1.63 1.49-2.73 1.95-1.08.44-2.32.66-3.72.66zm22.406-1.95v-11.1h-6.15l-.09 2.58c-.04.92-.1 1.81-.18 2.67-.08.84-.21 1.62-.39 2.34-.18.7-.44 1.28-.78 1.74-.34.46-.79.76-1.35.9l-3.72-.57c.6 0 1.08-.19 1.44-.57.38-.4.67-.94.87-1.62.22-.7.38-1.49.48-2.37.1-.9.17-1.83.21-2.79l.21-5.49h13.2v14.28h-3.75zm-13.23 5.31v-6.75h19.35v6.75h-3.51V29h-12.36v3.57h-3.48zm22.7-3.57V12.98h3.75v10.56l8.85-10.56h3.42V29h-3.75V18.44L74.202 29h-3.45zm30.784 0v-3.24l-.21-.69V19.4c0-1.1-.33-1.95-.99-2.55-.66-.62-1.66-.93-3-.93-.9 0-1.79.14-2.67.42-.86.28-1.59.67-2.19 1.17l-1.47-2.73c.86-.66 1.88-1.15 3.06-1.47 1.2-.34 2.44-.51 3.72-.51 2.32 0 4.11.56 5.37 1.68 1.28 1.1 1.92 2.81 1.92 5.13V29h-3.54zm-5.04.21c-1.2 0-2.25-.2-3.15-.6-.9-.42-1.6-.99-2.1-1.71-.48-.74-.72-1.57-.72-2.49 0-.9.21-1.71.63-2.43.44-.72 1.15-1.29 2.13-1.71.98-.42 2.28-.63 3.9-.63h4.65v2.49h-4.38c-1.28 0-2.14.21-2.58.63-.44.4-.66.9-.66 1.5 0 .68.27 1.22.81 1.62.54.4 1.29.6 2.25.6.92 0 1.74-.21 2.46-.63.74-.42 1.27-1.04 1.59-1.86l.63 2.25c-.36.94-1.01 1.67-1.95 2.19-.92.52-2.09.78-3.51.78z" fill="#FAFBF5"/><path d="M110.857 29.21c-.68 0-1.26-.23-1.74-.69-.48-.48-.72-1.08-.72-1.8 0-.76.24-1.36.72-1.8.48-.46 1.06-.69 1.74-.69.68 0 1.26.23 1.74.69.48.44.72 1.04.72 1.8 0 .72-.24 1.32-.72 1.8-.48.46-1.06.69-1.74.69zM132.101 8h3.9v21h-3.9V8zm-10.86 21h-3.9V8h3.9v21zm11.16-9h-11.49v-3.33h11.49V20zm15.648 9.21c-1.36 0-2.56-.25-3.6-.75a5.599 5.599 0 0 1-2.43-2.34c-.58-1.06-.87-2.39-.87-3.99v-9.15h3.75v8.64c0 1.44.32 2.52.96 3.24.66.7 1.59 1.05 2.79 1.05.88 0 1.64-.18 2.28-.54.66-.36 1.17-.9 1.53-1.62.38-.72.57-1.61.57-2.67v-8.1h3.75V29h-3.57v-4.32l.63 1.32a5.602 5.602 0 0 1-2.37 2.4c-1.04.54-2.18.81-3.42.81zm22.52 0c-1.36 0-2.57-.3-3.63-.9-1.06-.6-1.9-1.5-2.52-2.7-.6-1.22-.9-2.76-.9-4.62 0-1.88.31-3.42.93-4.62.64-1.2 1.49-2.09 2.55-2.67 1.08-.6 2.27-.9 3.57-.9 1.58 0 2.97.34 4.17 1.02a7.44 7.44 0 0 1 2.88 2.85c.72 1.22 1.08 2.66 1.08 4.32 0 1.66-.36 3.1-1.08 4.32a7.657 7.657 0 0 1-2.88 2.88c-1.2.68-2.59 1.02-4.17 1.02zm-8.88-.21V6.74h3.75v9.96l-.3 4.26.12 4.26V29h-3.57zm8.46-3c.9 0 1.7-.2 2.4-.6.72-.4 1.29-.98 1.71-1.74.42-.76.63-1.65.63-2.67 0-1.04-.21-1.93-.63-2.67-.42-.76-.99-1.34-1.71-1.74-.7-.4-1.5-.6-2.4-.6-.9 0-1.71.2-2.43.6-.72.4-1.29.98-1.71 1.74-.42.74-.63 1.63-.63 2.67 0 1.02.21 1.91.63 2.67.42.76.99 1.34 1.71 1.74.72.4 1.53.6 2.43.6z" fill="#F40638"/><path fill="#FAFBF5" d="M33 15h10v6H33z"/><ellipse cx="170.5" cy="21" rx="5.5" ry="6" fill="#F40638"/><path fill-rule="evenodd" clip-rule="evenodd" d="M168.21 22.98c.793 0 .058 0 .086-.003 5.679-.007 7.234.009 7.652.017.022-.177.039-.354.052-.534l-7.778-.4v-.002h-.012c-.3 0-.544-.267-.544-.597a.62.62 0 0 1 .189-.452l5.536-5.663a8.053 8.053 0 0 0-.375-.346c-.261.253-1.323 1.257-5.632 5.242a1.57 1.57 0 0 0-.558 1.219c0 .846.592 1.52 1.384 1.52zm-1.984-3.521L165 18.279c.427-.546 1.06-.892 1.767-.892.703 0 1.334.343 1.761.885-.174.167-.691.65-1.773 1.69-.411.433-.518.925-.518 1.537 0 1.027.669 1.882 1.555 2.069.395.083 1.005.073 1.387.084l3.847.086c1.057-.017 1.995.624 2.269 1.749.042.17.067.343.075.513h-.457c-.098-.818-.758-1.54-1.431-1.628-.385-.033-1.03-.03-1.416-.033-.896-.01-2.324.03-3.258.023-.322-.002-.837.016-1.136-.035-1.23-.212-2.171-1.38-2.171-2.79 0-.739.254-1.555.725-2.078zm4.813.989 3.97-.866c.034.13.066.26.094.39l-3.878 1.008 4.046.132c.011.147.019.294.023.442-2.199.009-4.401.03-6.601.021-.132-.002-.239-.113-.238-.26 0-.095.062-.184.124-.225l.286-.222 4.802-4.063c.075.1.148.203.219.308l-3.128 2.864 3.724-1.824c.055.116.108.233.158.351l-3.601 1.944z" fill="#FAFBF5"/></svg>