<svg width="17" height="29" fill="none" xmlns="http://www.w3.org/2000/svg"><path d="M8.48 14.969c-3.884 0-7.112-3.226-7.112-7.043C1.368 3.977 4.596.75 8.482.75c4.018 0 7.113 3.226 7.113 7.176a7.07 7.07 0 0 1-7.091 7.044l-.023-.001zm0-10.07c-1.644 0-2.895 1.381-2.895 3.029 0 1.644 1.251 2.895 2.897 2.895 1.712 0 2.897-1.251 2.897-2.896.002-1.648-1.185-3.029-2.898-3.029zm2.833 15.93 4.02 3.884c.79.854.79 2.106 0 2.896-.856.854-2.175.854-2.833 0l-4.018-3.95-3.886 3.95c-.394.395-.922.591-1.516.591-.46 0-.988-.197-1.45-.59-.79-.791-.79-2.043 0-2.898l4.084-3.884a18.546 18.546 0 0 1-4.211-1.841c-.99-.527-1.186-1.843-.66-2.831.66-.988 1.845-1.25 2.9-.592a9.102 9.102 0 0 0 9.483 0c1.054-.658 2.304-.396 2.897.591.594.99.329 2.304-.594 2.832-1.25.79-2.7 1.383-4.214 1.844l-.002-.002z" fill="#FAFBF5"/></svg>