<svg width="17" height="29" viewBox="0 0 17 29" fill="none" xmlns="http://www.w3.org/2000/svg">
<path d="M8.48068 14.9689C4.5963 14.9689 1.3678 11.7431 1.3678 7.92612C1.3678 3.97712 4.5963 0.75 8.48205 0.75C12.4998 0.75 15.5949 3.97575 15.5949 7.92612C15.588 9.80032 14.8372 11.5951 13.5076 12.916C12.1779 14.2368 10.3783 14.9757 8.50405 14.9703L8.48068 14.9689ZM8.48068 4.89838C6.83618 4.89838 5.58493 6.28025 5.58493 7.9275C5.58493 9.572 6.83618 10.8232 8.48205 10.8232C10.1939 10.8232 11.3792 9.572 11.3792 7.9275C11.3806 6.27887 10.1939 4.89838 8.48068 4.89838ZM11.3132 20.8291L15.3323 24.7135C16.1229 25.5674 16.1229 26.8186 15.3323 27.6093C14.4771 28.4631 13.1584 28.4631 12.4998 27.6093L8.48205 23.6589L4.5963 27.6093C4.20168 28.0039 3.67368 28.2005 3.07968 28.2005C2.61905 28.2005 2.09243 28.0025 1.63043 27.6093C0.839802 26.8186 0.839802 25.5674 1.63043 24.7121L5.71418 20.8277C4.2394 20.391 2.82466 19.7726 1.50255 18.9866C0.513927 18.46 0.317302 17.1441 0.843927 16.1555C1.50255 15.1683 2.6878 14.9056 3.74243 15.5642C5.1705 16.4357 6.81113 16.8968 8.48411 16.8968C10.1571 16.8968 11.7977 16.4357 13.2258 15.5642C14.2804 14.9056 15.5303 15.1683 16.1229 16.1555C16.7169 17.1441 16.4516 18.4586 15.5289 18.9866C14.2791 19.7773 12.8298 20.3699 11.3146 20.8305L11.3132 20.8291Z" fill="#FAFBF5"/>
</svg>
