<svg width="705" height="450" fill="none" xmlns="http://www.w3.org/2000/svg"><g clip-path="url(#a)"><path d="M686.92 409.142a19.773 19.773 0 0 1-19.093-3.363c-6.688-5.613-8.785-14.856-10.491-23.417l-5.046-25.323 10.565 7.273c7.598 5.23 15.366 10.629 20.627 18.205 5.26 7.576 7.555 17.918 3.329 26.116" fill="#279D13"/><path d="M685.289 441.563c1.33-9.686 2.698-19.497 1.763-29.287-.829-8.695-3.482-17.185-8.883-24.15a40.199 40.199 0 0 0-10.309-9.341c-1.031-.65-1.979.983-.953 1.631a38.2 38.2 0 0 1 15.11 18.227c3.29 8.366 3.818 17.485 3.251 26.372-.342 5.374-1.07 10.712-1.801 16.045a.975.975 0 0 0 .66 1.161.947.947 0 0 0 1.161-.659l.001.001z" fill="#3CE92D"/><path d="M675.718 426.021a14.558 14.558 0 0 1-12.683 6.547c-6.422-.305-11.773-4.785-16.59-9.039l-14.251-12.58 9.431-.451c6.783-.325 13.741-.63 20.201 1.464 6.46 2.094 12.418 7.124 13.599 13.81" fill="#279D13"/><path d="M689.048 447.131c-6.402-11.326-13.827-23.912-27.095-27.935a30.246 30.246 0 0 0-11.396-1.177c-1.21.105-.908 1.969.3 1.865a28.09 28.09 0 0 1 18.186 4.811c5.129 3.49 9.121 8.342 12.5 13.487 2.071 3.152 3.925 6.437 5.779 9.718.592 1.049 2.325.291 1.726-.769z" fill="#3CE92D"/><path d="M434.542 11.906H.185v206.076h434.357V11.906z" fill="#E6E6E6"/><path d="M422.122 29.578H12.606v171.935h409.516V29.578z" fill="#fff"/><path d="M434.357 0H0v18.45h434.357V0z" fill="#F40638"/><path d="M13.713 14.268a3.42 3.42 0 1 0 0-6.84 3.42 3.42 0 0 0 0 6.84zM26.695 14.268a3.42 3.42 0 1 0 0-6.84 3.42 3.42 0 0 0 0 6.84zM39.677 14.268a3.42 3.42 0 1 0 0-6.84 3.42 3.42 0 0 0 0 6.84z" fill="#fff"/><path d="M402.02 166.691H198.971a.634.634 0 0 1-.636-.636V68.75a.633.633 0 0 1 .636-.635.636.636 0 0 1 .635.635v96.67H402.02a.638.638 0 0 1 .636.635.636.636 0 0 1-.636.636z" fill="#3F3D56"/><path d="M242.354 159.702h-18.468a1.887 1.887 0 0 1-1.886-1.886v-25.454a1.885 1.885 0 0 1 1.886-1.886h18.468a1.885 1.885 0 0 1 1.886 1.886v25.454a1.885 1.885 0 0 1-1.886 1.886zM276.033 159.702h-18.468c-.501-.001-.98-.2-1.334-.553a1.893 1.893 0 0 1-.553-1.333v-49.598a1.89 1.89 0 0 1 1.887-1.885h18.468a1.885 1.885 0 0 1 1.886 1.885v49.598a1.889 1.889 0 0 1-1.886 1.886zM309.712 159.702h-18.468a1.89 1.89 0 0 1-1.887-1.886v-25.454c.001-.5.2-.979.553-1.333a1.894 1.894 0 0 1 1.334-.553h18.468c.5.001.979.2 1.333.553.353.354.552.833.553 1.333v25.454a1.889 1.889 0 0 1-1.886 1.886zM343.391 159.702h-18.469a1.85 1.85 0 0 1-1.886-1.801V98.603a1.848 1.848 0 0 1 1.886-1.8h18.469a1.849 1.849 0 0 1 1.886 1.8v59.298a1.847 1.847 0 0 1-1.886 1.801zM377.07 159.702h-18.469a1.889 1.889 0 0 1-1.886-1.886V81.534a1.892 1.892 0 0 1 1.886-1.886h18.469a1.89 1.89 0 0 1 1.886 1.886v76.282a1.889 1.889 0 0 1-1.886 1.886z" fill="#F40638"/><path d="M233.12 122.852a3.813 3.813 0 1 0 0-7.625 3.813 3.813 0 0 0 0 7.625zM266.799 98.073a3.812 3.812 0 1 0 0-7.624 3.812 3.812 0 0 0 0 7.624zM300.478 122.852a3.812 3.812 0 1 0 0-7.625 3.812 3.812 0 0 0 0 7.625zM334.156 86.002a3.812 3.812 0 1 0 .001-7.625 3.812 3.812 0 0 0-.001 7.625zM367.835 72.024a3.812 3.812 0 1 0 .001-7.625 3.812 3.812 0 0 0-.001 7.625z" fill="#3F3D56"/><path d="m300.558 119.894-33.759-25.282-33.299 24.937-.761-1.018 34.06-25.507 33.598 25.162 33.388-36.531.134-.055 33.679-13.567.475 1.179-33.545 13.513-33.97 37.169z" fill="#3F3D56"/><path d="M116.573 50.593H58.898v4.334h57.675v-4.334z" fill="#E6E6E6"/><path d="M147.961 63.317H58.897v4.334h89.064v-4.334z" fill="#6C63FF"/><path d="M132.408 75.435H59.824v4.334h72.584v-4.334zM101.271 88.731H58.898v4.334h42.373v-4.334z" fill="#E6E6E6"/><path d="M122.85 101.718H58.898v4.335h63.952v-4.335z" fill="#6C63FF"/><path d="M39.672 49.23H32.61v7.06h7.062v-7.06z" fill="#E6E6E6"/><path d="M39.672 61.953H32.61v7.061h7.062v-7.06z" fill="#6C63FF"/><path d="M39.672 74.071H32.61v7.061h7.062v-7.06zM39.672 87.368H32.61v7.06h7.062v-7.06z" fill="#E6E6E6"/><path d="M39.672 100.355H32.61v7.061h7.062v-7.061z" fill="#6C63FF"/><path d="M116.573 114.787H58.898v4.334h57.675v-4.334z" fill="#E6E6E6"/><path d="M147.961 127.511H58.897v4.335h89.064v-4.335z" fill="#6C63FF"/><path d="M132.408 139.629H59.824v4.334h72.584v-4.334zM101.271 152.925H58.898v4.335h42.373v-4.335zM122.85 165.913H58.898v4.334h63.952v-4.334zM39.672 113.424H32.61v7.061h7.062v-7.061z" fill="#E6E6E6"/><path d="M39.672 126.148H32.61v7.061h7.062v-7.061z" fill="#6C63FF"/><path d="M39.672 138.266H32.61v7.061h7.062v-7.061zM39.672 151.562H32.61v7.061h7.062v-7.061zM39.672 164.549H32.61v7.061h7.062v-7.061z" fill="#E6E6E6"/><path d="M527.166 132.919c2.429-7.741 7.954-14.841 15.594-17.458 7.641-2.617 20.969-.171 24.573 7.093 5.192 10.469 2.86 23.29.106 34.657a289.263 289.263 0 0 0-4.338-.191l-2.056-6.85v6.783c-11.343-.351-23.152-.131-34.967.096-1.059-8.048-1.341-16.389 1.088-24.13z" fill="#2F2E41"/><path d="m631.394 427.889-9.543 3.998-19.965-34.894 14.083-5.902 15.425 36.798z" fill="#FFB7B7"/><path d="m637.703 436.117-30.767 12.892-.163-.389a12.988 12.988 0 0 1 6.956-16.992h.001l18.791-7.874 5.182 12.363z" fill="#2F2E41"/><path d="M491.465 263.053a7.158 7.158 0 0 1 2.904-10.583l20.508-61.875 13.735 7.324-24.478 58.518a7.192 7.192 0 0 1-3.396 8.934 7.195 7.195 0 0 1-9.273-2.318zM516.751 438.982l-10.346-.001-4.922-39.898h15.269l-.001 39.899z" fill="#FFB7B7"/><path d="m519.389 449.009-33.359-.001v-.422a12.985 12.985 0 0 1 12.984-12.982h.001l20.375.001-.001 13.404z" fill="#2F2E41"/><path d="m558.231 212.047 2.345 6.093-.469 6.094-45.009-5.624 1.407-5.157 5.157-6.094 36.569 4.688z" fill="#FFB7B7"/><path d="M543.726 157.207c9.049 0 16.386-7.335 16.386-16.383 0-9.048-7.337-16.384-16.386-16.384-9.05 0-16.387 7.336-16.387 16.384s7.337 16.383 16.387 16.383z" fill="#FFB8B8"/><path d="m560.825 218.577-44.632-4.746-1.934-6.323c-.6-.824-6.265-8.851-5.009-16.876a13.969 13.969 0 0 1 6.039-9.358l10.851-12.704 9.547-5.681 18.819-1.882.065.015 16.896 3.822-.205 30.966-10.437 22.767z" fill="#CCC"/><path d="m517.318 221.859-12.505-1.485.033-.392c.115-1.381 2.849-33.894 5.65-41.362 2.861-7.628 15.254-10.004 15.78-10.101l.152-.028 2.754 1.652-7.6 23.746-4.264 27.97z" fill="#CCC"/><path d="M560.576 221.891v10.412s12.19 15.839 5.626 28.027c0 0 14.065 26.25 15.003 35.626l13.128 43.126s32.819 32.814 30.006 56.252l1.875 7.5-21.567 9.375-4.688-6.562-36.57-62.815-30.944-57.189-5.626 67.502s3.751 52.502-6.564 58.127l-.937 8.438H497.43v-8.021s-8.118-28.543-3.43-50.106l-1.875-90.941s8.439-38.438 18.754-45.001l3.75-9.375 45.947 5.625z" fill="#2F2E41"/><path d="M544.989 243.419c.378.085.749.2 1.109.343l28.606-19.687-.655-8.41 12.565-2.647 2.606 14.776a5.604 5.604 0 0 1-3.039 5.996l-35.435 17.472a7.351 7.351 0 0 1-5.349 6.419 7.355 7.355 0 0 1-7.897-2.732 7.35 7.35 0 0 1 7.489-11.53z" fill="#FFB7B7"/><path d="m574.434 225.162-5.823-38.837-4.779-20.062 7.141-1.492c.194-.072 6.009-2.037 10.703 1.127 3.379 2.277 5.251 6.6 5.563 12.846l1.891 44.439-14.696 1.979z" fill="#CCC"/><path d="M532.466 119.49a20.591 20.591 0 0 1 20.96-.276 20.58 20.58 0 0 1 10.332 18.235c-9.16.421-18.782.531-28.538.55l-2.306-5.642-1.359 5.646c-2.973 0-5.952-.004-8.936-.012a21.013 21.013 0 0 1 9.847-18.501z" fill="#2F2E41"/><path d="M704.184 450H393.067a.817.817 0 0 1 0-1.633h311.117a.817.817 0 0 1 0 1.633z" fill="#CBCBCB"/></g><defs><clipPath id="a"><path fill="#fff" d="M0 0h705v450H0z"/></clipPath></defs></svg>