<svg width="647" height="472" fill="none" xmlns="http://www.w3.org/2000/svg"><g clip-path="url(#a)"><path d="m302.658 373.642 10.221-4.541-12.801-42.258-15.086 6.702 17.666 40.097z" fill="#FFB6B6"/><path d="m295.337 362.17 15.29-10.72 4.22 6.754 21.563 1.053a5.018 5.018 0 0 1 2.912 1.109 4.96 4.96 0 0 1 1.684 2.607 4.928 4.928 0 0 1-.2 3.09 4.978 4.978 0 0 1-2.005 2.372l-18.904 11.642-7.432-4.674 2.902 7.464-7.127 4.39-12.903-25.087z" fill="#2F2E41"/><path d="M565.213 293.658c0-4.25-1.437-7.699-3.202-7.707H80.841c-1.773.008-3.203 3.457-3.21 7.707v174.947c0 .395-.149.775-.416 1.068a1.603 1.603 0 0 1-1.03.513c-1.29.123-2.582.238-3.874.344-.032 0-.064.008-.096.008-.702.063-1.405.111-2.108.166H70.1c-.361-.663-.719-1.333-1.072-2.008a1.585 1.585 0 0 1-.182-.737V283.66c0-1.174.048-2.355.128-3.521.114-1.6.314-3.194.599-4.773 1.35-7.366 4.4-12.353 7.867-12.369h487.966a3.754 3.754 0 0 1 1.47.309 5.711 5.711 0 0 1 1.812 1.261c.701.723 1.3 1.536 1.781 2.418 1.709 2.989 2.931 7.445 3.363 12.631 0 .047.008.095.008.143.111 1.284.167 2.592.159 3.901l.112 16.991.072 10.134.216 31.795.08 11.291.351 115.921c0 .421-.168.824-.468 1.122a1.603 1.603 0 0 1-1.129.464h-6.421c-.424 0-.83-.167-1.13-.464a1.584 1.584 0 0 1-.468-1.122V293.658z" fill="#E6E6E6"/><path d="M434.464 183.488h-51.847a2.778 2.778 0 0 0-1.954.807 2.738 2.738 0 0 0-.808 1.943v81.314h57.378v-81.314a2.722 2.722 0 0 0-.81-1.945 2.774 2.774 0 0 0-1.959-.805zm-25.749 46.202a6.174 6.174 0 0 1-4.321-1.788 6.086 6.086 0 0 1-1.801-4.29v-9.379a6.058 6.058 0 0 1 1.795-4.293 6.144 6.144 0 0 1 4.327-1.778c1.623 0 3.179.639 4.327 1.778a6.054 6.054 0 0 1 1.795 4.293v9.379a6.086 6.086 0 0 1-1.801 4.29 6.174 6.174 0 0 1-4.321 1.788z" fill="#2F2E41"/><path d="M379.677 264.951v7.845c.001.407.164.797.454 1.084.289.287.681.449 1.091.45h54.645a1.56 1.56 0 0 0 1.09-.451c.289-.288.452-.676.454-1.083v-7.845h-57.734z" fill="#3F3D56"/><path d="M313.063 70.25a10.968 10.968 0 0 1-2.692 3.936 11.07 11.07 0 0 1-4.116 2.435 11.132 11.132 0 0 1-9.291-1.092l-73.185 50.617-2.02-20.171 71.958-46.286a11.12 11.12 0 0 1 6.577-4.342c2.654-.599 5.437-.21 7.821 1.091a11.059 11.059 0 0 1 5.118 5.973 10.963 10.963 0 0 1-.17 7.84z" fill="#FFB6B6"/><path d="M149.206 102.165s-7.925 11.625 4.51 21.913c12.436 10.288 62.838 8.241 70.972 8.153 8.133-.089 45.452-38.417 45.452-38.417l-.244-22.135-45.057 26.543-75.633 3.943z" fill="#6C63FF"/><path d="m144.719 179.347.799 15.066s-2.358 13.344-.419 16.224c1.924 2.866 54.761 7.128 54.761 7.128s-1.656-22.468 1.332-38.719l-56.473.301z" fill="#FFB6B6"/><path d="m306.878 332.736-20.339 17.675-39.863-80.939c-39.529 6.749-76.82 8.911-109.076.746-10.921-2.726-17.597-13.921-14.911-25.006.126-.518.271-1.03.436-1.538 3.86-11.693 13.965-19.967 21.927-32.829l58.154.877-6.495 22.251 56.492-7.258c11.361-1.459 21.737 6.705 23.175 18.235.076.609.125 1.22.149 1.834l30.351 85.952z" fill="#2F2E41"/><path d="M167.426 77.966c13.041 0 23.614-10.497 23.614-23.444 0-12.948-10.573-23.445-23.614-23.445-13.042 0-23.614 10.497-23.614 23.445 0 12.947 10.572 23.444 23.614 23.444z" fill="#FFB6B6"/><path d="m153.582 86.429 21.652 2.529c.913.107 1.77.493 2.451 1.106a4.379 4.379 0 0 1 1.349 2.314l3.443 15.643 21.465 25.096s7.708 14.348 4.817 30.609a114.552 114.552 0 0 1-8.952 28.344s-52.787 21.434-54.714 18.564c-1.927-2.869-2.552-15.904-2.552-15.904l-6.791-75.01a26.731 26.731 0 0 1 1.455-11.68 26.895 26.895 0 0 1 6.336-9.946c1.714-1.674 3.405-2.845 4.781-2.845 3.109-.104 2.71-7.051 5.26-8.82z" fill="#6C63FF"/><path d="m200.042 405.071 10.047 4.886 24.188-37.01-14.829-7.211-19.406 39.335z" fill="#FFB6B6"/><path d="m224.11 396.706-20.642-7.781 28.331-84.479c-38.489-11.204-67.521-29.25-92.87-50.671-8.6-7.218-15.049-16.488-7.725-25.269.342-.41.7-.807 1.073-1.19 8.648-8.816 30.597-7.12 43.445-15.192l28.737 30.46-1.801 8.159 53.948 18.156c10.849 3.652 16.55 15.515 12.732 26.498-.202.58-.428 1.151-.679 1.712l-44.549 99.597zM199.699 399.174l17.27 7.166-3.522 7.138 10.556 18.697a4.94 4.94 0 0 1-.729 5.84 5.017 5.017 0 0 1-2.744 1.474 5.033 5.033 0 0 1-3.089-.428l-19.977-9.716.041-8.734-4.828 6.406-7.532-3.663 14.554-24.18z" fill="#2F2E41"/><path d="M165.927 269.824a11.004 11.004 0 0 1-3.352-3.399 10.929 10.929 0 0 1-1.59-4.488 10.92 10.92 0 0 1 2.918-8.825l-35.482-81.244 20.315 2.028 31.449 79.193a10.99 10.99 0 0 1 2.984 7.26 10.985 10.985 0 0 1-2.626 7.395 11.133 11.133 0 0 1-6.91 3.797 11.174 11.174 0 0 1-7.706-1.717z" fill="#FFB6B6"/><path d="M166.864 104.045s-9.908-10.013-22.527.051c-12.62 10.064-20.579 59.519-22.103 67.451-1.523 7.933 28.928 51.84 28.928 51.84l21.903 4.146-17.284-49.104 11.083-74.384z" fill="#6C63FF"/><path d="M520.318 56.588H298.693a7.219 7.219 0 0 0-5.076 2.092 7.114 7.114 0 0 0-2.107 5.04v148.479a7.11 7.11 0 0 0 2.105 5.04 7.22 7.22 0 0 0 5.078 2.091h221.625a7.218 7.218 0 0 0 5.077-2.091 7.112 7.112 0 0 0 2.106-5.04V63.719a7.118 7.118 0 0 0-2.107-5.039 7.222 7.222 0 0 0-5.076-2.092z" fill="#3F3D56"/><path d="M518.468 61.739H300.544a3.867 3.867 0 0 0-2.717 1.122 3.808 3.808 0 0 0-1.124 2.7V210.36a3.808 3.808 0 0 0 1.127 2.695 3.867 3.867 0 0 0 2.714 1.119h217.924a3.867 3.867 0 0 0 2.714-1.119 3.804 3.804 0 0 0 1.127-2.695V65.56a3.808 3.808 0 0 0-1.124-2.699 3.865 3.865 0 0 0-2.717-1.122z" fill="#fff"/><path d="M476.02 277.06H346.367a2.402 2.402 0 0 1-1.852-.876 2.364 2.364 0 0 1-.482-1.98l2.012-9.486c.115-.53.409-1.006.833-1.348.425-.342.954-.53 1.501-.532h125.63c.546.002 1.076.19 1.5.532.425.342.719.818.833 1.348l2.012 9.486a2.35 2.35 0 0 1-.482 1.98 2.38 2.38 0 0 1-1.852.876z" fill="#2F2E41"/><path d="M352.903 264.546h-3.214a.39.39 0 0 0-.39.387v1.605c0 .214.175.387.39.387h3.214c.215 0 .39-.173.39-.387v-1.605a.39.39 0 0 0-.39-.387zM360.889 264.546h-3.213a.389.389 0 0 0-.39.387v1.605c0 .214.174.387.39.387h3.213c.216 0 .39-.173.39-.387v-1.605a.389.389 0 0 0-.39-.387zM368.876 264.546h-3.214a.39.39 0 0 0-.39.387v1.605c0 .214.175.387.39.387h3.214a.388.388 0 0 0 .389-.387v-1.605a.388.388 0 0 0-.389-.387zM376.862 264.546h-3.214a.388.388 0 0 0-.389.387v1.605c0 .214.174.387.389.387h3.214c.215 0 .39-.173.39-.387v-1.605a.39.39 0 0 0-.39-.387zM384.848 264.546h-3.213a.389.389 0 0 0-.39.387v1.605c0 .214.174.387.39.387h3.213c.215 0 .39-.173.39-.387v-1.605a.39.39 0 0 0-.39-.387zM392.835 264.546h-3.214a.39.39 0 0 0-.39.387v1.605c0 .214.175.387.39.387h3.214c.215 0 .39-.173.39-.387v-1.605a.39.39 0 0 0-.39-.387zM400.821 264.546h-3.213a.389.389 0 0 0-.39.387v1.605c0 .214.174.387.39.387h3.213c.215 0 .39-.173.39-.387v-1.605a.39.39 0 0 0-.39-.387zM408.807 264.546h-3.213a.39.39 0 0 0-.39.387v1.605c0 .214.175.387.39.387h3.213c.216 0 .39-.173.39-.387v-1.605a.389.389 0 0 0-.39-.387zM416.794 264.546h-3.214a.39.39 0 0 0-.39.387v1.605c0 .214.175.387.39.387h3.214a.388.388 0 0 0 .389-.387v-1.605a.388.388 0 0 0-.389-.387zM424.78 264.546h-3.213a.389.389 0 0 0-.39.387v1.605c0 .214.174.387.39.387h3.213c.215 0 .39-.173.39-.387v-1.605a.39.39 0 0 0-.39-.387zM432.766 264.546h-3.213a.39.39 0 0 0-.39.387v1.605c0 .214.175.387.39.387h3.213c.216 0 .39-.173.39-.387v-1.605a.389.389 0 0 0-.39-.387zM440.753 264.546h-3.214a.39.39 0 0 0-.39.387v1.605c0 .214.175.387.39.387h3.214c.215 0 .39-.173.39-.387v-1.605a.39.39 0 0 0-.39-.387zM448.739 264.546h-3.213a.389.389 0 0 0-.39.387v1.605c0 .214.174.387.39.387h3.213c.215 0 .39-.173.39-.387v-1.605a.39.39 0 0 0-.39-.387zM456.725 264.546h-3.213a.39.39 0 0 0-.39.387v1.605c0 .214.175.387.39.387h3.213c.216 0 .39-.173.39-.387v-1.605a.389.389 0 0 0-.39-.387zM464.712 264.546h-3.214a.388.388 0 0 0-.389.387v1.605c0 .214.174.387.389.387h3.214c.215 0 .39-.173.39-.387v-1.605a.39.39 0 0 0-.39-.387zM472.698 264.546h-3.213a.389.389 0 0 0-.39.387v1.605c0 .214.174.387.39.387h3.213c.215 0 .39-.173.39-.387v-1.605a.39.39 0 0 0-.39-.387zM352.808 268.511h-3.213a.389.389 0 0 0-.39.387v1.604c0 .214.175.387.39.387h3.213c.216 0 .39-.173.39-.387v-1.604a.388.388 0 0 0-.39-.387zM360.795 268.511h-3.214a.388.388 0 0 0-.389.387v1.604c0 .214.174.387.389.387h3.214c.215 0 .39-.173.39-.387v-1.604a.389.389 0 0 0-.39-.387zM368.781 268.511h-3.213a.388.388 0 0 0-.39.387v1.604c0 .214.174.387.39.387h3.213c.215 0 .39-.173.39-.387v-1.604a.389.389 0 0 0-.39-.387zM376.767 268.511h-3.213a.389.389 0 0 0-.39.387v1.604c0 .214.175.387.39.387h3.213c.216 0 .39-.173.39-.387v-1.604a.388.388 0 0 0-.39-.387zM384.754 268.511h-3.214a.388.388 0 0 0-.389.387v1.604c0 .214.174.387.389.387h3.214c.215 0 .39-.173.39-.387v-1.604a.389.389 0 0 0-.39-.387zM392.74 268.511h-3.213a.389.389 0 0 0-.39.387v1.604c0 .214.175.387.39.387h3.213c.216 0 .39-.173.39-.387v-1.604a.388.388 0 0 0-.39-.387zM400.726 268.511h-3.213a.389.389 0 0 0-.39.387v1.604c0 .214.175.387.39.387h3.213c.216 0 .39-.173.39-.387v-1.604a.388.388 0 0 0-.39-.387zM408.713 268.511h-3.214a.389.389 0 0 0-.39.387v1.604c0 .214.175.387.39.387h3.214c.215 0 .39-.173.39-.387v-1.604a.389.389 0 0 0-.39-.387zM416.699 268.511h-3.213a.388.388 0 0 0-.39.387v1.604c0 .214.174.387.39.387h3.213c.216 0 .39-.173.39-.387v-1.604a.388.388 0 0 0-.39-.387zM424.686 268.511h-3.214a.389.389 0 0 0-.39.387v1.604c0 .214.175.387.39.387h3.214a.388.388 0 0 0 .389-.387v-1.604a.388.388 0 0 0-.389-.387zM432.672 268.511h-3.213a.388.388 0 0 0-.39.387v1.604c0 .214.174.387.39.387h3.213c.215 0 .39-.173.39-.387v-1.604a.389.389 0 0 0-.39-.387zM440.658 268.511h-3.213a.389.389 0 0 0-.39.387v1.604c0 .214.175.387.39.387h3.213c.216 0 .39-.173.39-.387v-1.604a.388.388 0 0 0-.39-.387zM448.645 268.511h-3.214a.389.389 0 0 0-.39.387v1.604c0 .214.175.387.39.387h3.214c.215 0 .39-.173.39-.387v-1.604a.389.389 0 0 0-.39-.387zM456.631 268.511h-3.213a.388.388 0 0 0-.39.387v1.604c0 .214.174.387.39.387h3.213c.215 0 .39-.173.39-.387v-1.604a.389.389 0 0 0-.39-.387zM464.617 268.511h-3.213a.389.389 0 0 0-.39.387v1.604c0 .214.175.387.39.387h3.213c.216 0 .39-.173.39-.387v-1.604a.388.388 0 0 0-.39-.387zM472.604 268.511h-3.214a.389.389 0 0 0-.39.387v1.604c0 .214.175.387.39.387h3.214c.215 0 .39-.173.39-.387v-1.604a.389.389 0 0 0-.39-.387zM419.095 273.268H387.93a.388.388 0 0 0-.39.387v1.605c0 .214.174.387.39.387h31.165c.216 0 .39-.173.39-.387v-1.605a.388.388 0 0 0-.39-.387z" fill="#3F3D56"/><path d="m503.46 458.027-6.158-9.824-1.23 5.614c-.215.983-.431 1.982-.631 2.973-1.749-1.482-3.61-2.854-5.43-4.17-5.591-4.028-11.179-8.061-16.764-12.1l1.749 10.07c1.078 6.2 2.205 12.528 4.872 18.197.295.642.615 1.277.958 1.895h25.988c.209-.574.354-1.17.431-1.776a.59.59 0 0 0 .008-.119c.408-3.846-1.733-7.469-3.793-10.76zM152.06 458.027l-6.158-9.824-1.23 5.614c-.215.983-.431 1.982-.63 2.973-1.749-1.482-3.61-2.854-5.431-4.17-5.59-4.028-11.178-8.061-16.764-12.1l1.749 10.07c1.079 6.2 2.205 12.528 4.872 18.197.296.642.615 1.277.959 1.895h25.987c.209-.574.354-1.17.432-1.776a.59.59 0 0 0 .007-.119c.408-3.846-1.733-7.469-3.793-10.76z" fill="#F0F0F0"/><path d="M646.049 471.756 425.825 472a.958.958 0 0 1-.67-.277.94.94 0 0 1 0-1.334.954.954 0 0 1 .67-.277l220.224-.244a.957.957 0 0 1 .671.278.942.942 0 0 1-.671 1.61zM221.175 471.756.951 472a.96.96 0 0 1-.67-.277.941.941 0 0 1 .67-1.611l220.224-.244a.954.954 0 0 1 .67.278.939.939 0 0 1 0 1.333.95.95 0 0 1-.67.277z" fill="#CACACA"/><path d="M142.454 33.623c-3.809 1.126-7.363-2.038-10.015-5.035l.943 1.11c-6.238 4.361-9.967 11.465-12.387 18.657-2.42 7.184-3.77 14.708-6.501 21.789-2.731 7.072-7.14 13.915-13.888 17.444-9.04 4.725-20.118 2.576-29.734-.833-.127-.048-.247-.087-.375-.135a60.511 60.511 0 0 0 7.012-23.311 55.42 55.42 0 0 1-16.66 19.402 128.174 128.174 0 0 1-18.065-9.974c-3.713-2.466-7.627-5.654-8.058-10.07-.44-4.385 2.86-8.39 6.749-10.498 3.889-2.11 8.361-2.823 12.61-4.092 4.24-1.26 8.57-3.33 10.798-7.136 5.135-8.753-3.506-21.099 2.004-29.63 2.716-4.195 7.987-5.876 12.874-7.041A171.323 171.323 0 0 1 102.427.472c6.7-.666 13.624-.912 19.997 1.229 6.373 2.14 12.156 7.112 13.521 13.662 3.722 1.942 7.659 4.09 9.656 7.778 1.996 3.679.886 9.293-3.147 10.482z" fill="#2F2E41"/><path d="M136.767 32.148c-3.647 4.537-5.633 9.443-5.633 12.381-7.578 13.75 3.259 25.562 17.109 33.085a28.552 28.552 0 0 0 18.129 3.138l.58-2.456.785 2.212s9.017 29.57 11.992 31.305c-1.129-5.263-2.422-29.628-3.05-34.764-.87-6.99 2.162-17.396 4.35-23.725a37.132 37.132 0 0 0 2.06-12.123v-.18l2.13 6.792 7.754-3.284c-1.443-8.215 0-17.541-17.295-16.732-9.354-6.387-17.592-7.36-24.358-5.549-.874-1.34-5.909 1.17-7.364.465" fill="#2F2E41"/><path d="M522.309 65.56v144.8a3.804 3.804 0 0 1-1.127 2.695 3.867 3.867 0 0 1-2.714 1.119h-76.845a93.696 93.696 0 0 1-20.573-27.482 47.87 47.87 0 0 1-.958-2.022 92.263 92.263 0 0 1-8.306-31.74 56.366 56.366 0 0 1-.136-2.03 89.827 89.827 0 0 1-.151-5.288 92.59 92.59 0 0 1 6.62-34.499c.264-.682.543-1.356.831-2.03 8.833-20.605 24.795-37.397 45.003-47.344h54.515a3.863 3.863 0 0 1 2.717 1.122 3.808 3.808 0 0 1 1.124 2.7z" fill="#302D62"/><path d="M507.513 81.689h-203.91a.803.803 0 0 1 0-1.61h203.91a.813.813 0 0 1 .794.805.813.813 0 0 1-.794.805z" fill="#CACACA"/><path d="M364.52 128.722h-25.48c-1.913 0-3.465 1.54-3.465 3.44s1.552 3.441 3.465 3.441h25.48c1.914 0 3.465-1.541 3.465-3.441s-1.551-3.44-3.465-3.44z" fill="#302D62"/><path d="M380.98 142.484h-58.4c-1.913 0-3.465 1.54-3.465 3.44s1.552 3.44 3.465 3.44h58.4c1.914 0 3.465-1.54 3.465-3.44s-1.551-3.44-3.465-3.44zM380.98 156.245h-58.4c-1.913 0-3.465 1.54-3.465 3.44s1.552 3.441 3.465 3.441h58.4c1.914 0 3.465-1.541 3.465-3.441s-1.551-3.44-3.465-3.44z" fill="#E6E6E6"/><path d="M324.447 205.872a23.482 23.482 0 0 1-1.501 8.302h-22.402a3.867 3.867 0 0 1-2.714-1.119 3.808 3.808 0 0 1-1.127-2.695v-27.974a24.116 24.116 0 0 1 12.954 1.509 23.98 23.98 0 0 1 7.773 5.157 23.764 23.764 0 0 1 5.194 7.717 23.62 23.62 0 0 1 1.823 9.103z" fill="#302D62"/><path opacity=".2" d="M522.509 111.113v-2.03H488.24V85.558h-2.037v23.525h-39.277V85.558h-2.036v23.525h-25.94a63.543 63.543 0 0 0-.831 2.03h26.771V150.9h-33.24c.032.682.08 1.356.136 2.03h33.104v31.74h-24.798c.303.682.623 1.356.958 2.022h23.84v26.681h2.036v-26.681h39.277v26.681h2.037v-26.681h34.269v-2.022H488.24v-31.74h34.269v-2.03H488.24v-39.787h34.269zm-36.306 73.557h-39.277v-31.74h39.277v31.74zm0-33.77h-39.277v-39.787h39.277V150.9z" fill="#000"/><path d="M494.917 199.151a2.13 2.13 0 0 1-2.067-1.299 2.114 2.114 0 0 1 .52-2.373l.146-.578a5.697 5.697 0 0 0-2.179-2.669 5.76 5.76 0 0 0-6.348.024 5.693 5.693 0 0 0-2.103 2.546c-1.729 4.134-3.93 8.276-4.472 12.648a16.699 16.699 0 0 0 .298 5.789 67.075 67.075 0 0 1-6.184-28.03 64.636 64.636 0 0 1 .407-7.267c.225-1.978.537-3.942.935-5.892a68.063 68.063 0 0 1 13.637-28.934 18.226 18.226 0 0 0 7.611-7.84 13.788 13.788 0 0 0 1.269-3.787c-.37.048-.747.078-1.117.103l-.353.018-.043.002a2.125 2.125 0 0 1-1.983-1.153 2.096 2.096 0 0 1 .246-2.268l.481-.586c.243-.301.492-.597.735-.898a.96.96 0 0 0 .078-.091c.28-.343.559-.681.839-1.025a6.097 6.097 0 0 0-2.005-1.924c-2.8-1.628-6.663-.5-8.686 2.015-2.029 2.514-2.411 6.042-1.707 9.184a24.23 24.23 0 0 0 3.39 7.502c-.152.193-.31.38-.462.573a68.605 68.605 0 0 0-7.223 11.362 28.383 28.383 0 0 0-1.718-13.268c-1.644-3.937-4.726-7.254-7.439-10.658-3.26-4.088-9.944-2.304-10.518 2.879l-.017.151c.403.225.798.465 1.184.719.485.321.861.781 1.078 1.318.218.538.266 1.128.14 1.693a2.868 2.868 0 0 1-.847 1.476 2.9 2.9 0 0 1-1.538.743l-.059.009c.144 1.442.397 2.871.759 4.275a29.368 29.368 0 0 0 5.443 10.758 29.603 29.603 0 0 0 9.323 7.696c.237.12.468.241.705.356a69.66 69.66 0 0 0-3.802 17.766 66.06 66.06 0 0 0 .048 10.74l-.018-.127a17.546 17.546 0 0 0-6.044-10.149c-4.651-3.793-11.222-5.19-16.24-8.239a3.342 3.342 0 0 0-3.576-.009c-.535.338-.962.82-1.23 1.39a3.269 3.269 0 0 0-.262 1.961c.748.303 1.476.651 2.181 1.043.403.226.797.466 1.183.719.485.322.861.782 1.079 1.319a2.865 2.865 0 0 1-.708 3.168 2.905 2.905 0 0 1-1.538.744l-.059.009-.121.018a28.612 28.612 0 0 0 5.302 8.243 29.674 29.674 0 0 0 9.789 6.895 29.868 29.868 0 0 0 11.738 2.483h.006a69.88 69.88 0 0 0 4.744 13.75h16.947c.061-.187.116-.38.17-.567a19.444 19.444 0 0 1-4.689-.278c1.257-1.532 2.515-3.075 3.772-4.607a.972.972 0 0 0 .079-.091c.638-.784 1.282-1.561 1.919-2.345l.001-.001a27.804 27.804 0 0 0-.827-7.134zM475.51 161.25l.009-.012-.009.024v-.012zm-3.753 33.596-.146-.326c.006-.235.006-.47 0-.712 0-.066-.012-.132-.012-.199.054.417.103.833.164 1.249l-.006-.012z" fill="#279D13"/></g><defs><clipPath id="a"><path fill="#fff" d="M0 0h647v472H0z"/></clipPath></defs></svg>