<svg width="857" height="516" fill="none" xmlns="http://www.w3.org/2000/svg"><g clip-path="url(#a)"><path d="M857 402.666a13.031 13.031 0 0 1-12.962 13.099H273.735a13.035 13.035 0 0 1-11.996-8.107 13.019 13.019 0 0 1-.966-4.992V13.099A13.03 13.03 0 0 1 273.735 0h570.303A13.031 13.031 0 0 1 857 13.098v389.568z" fill="#E6E6E6"/><path d="M850.272 396.287a12.666 12.666 0 0 1-12.665 12.665H280.556a12.664 12.664 0 0 1-12.665-12.665V19.657A12.662 12.662 0 0 1 280.556 6.99h557.077a12.666 12.666 0 0 1 12.639 12.666v376.63z" fill="#fff"/><path d="M297.663 23.343h523.432a7.518 7.518 0 0 1 7.517 7.517v352.761a7.518 7.518 0 0 1-7.517 7.518H297.663a7.517 7.517 0 0 1-7.517-7.518V30.861a7.517 7.517 0 0 1 7.517-7.518z" fill="#E6E6E6"/><path d="M304.289 31.804H813.9a7.518 7.518 0 0 1 7.517 7.517v333.937a7.518 7.518 0 0 1-7.517 7.518H304.289a7.518 7.518 0 0 1-7.518-7.518V39.321a7.517 7.517 0 0 1 7.518-7.517z" fill="#fff"/><path d="M664.109 263.783a14.325 14.325 0 0 1-5.821-1.241 7.093 7.093 0 0 1-1.214-.689l-37.036-26.071a14.334 14.334 0 0 1-6.081-11.715v-35.555a14.337 14.337 0 0 1 6.081-11.715l37.036-26.071c.381-.269.788-.5 1.214-.689a14.33 14.33 0 0 1 18.415 6.257 14.333 14.333 0 0 1 1.735 6.836v86.319a14.326 14.326 0 0 1-14.329 14.329v.005z" fill="#3F3D56"/><path d="M581.222 270.773H477.925c-21.074-.017-38.153-13.64-38.175-30.45v-68.066c.022-16.811 17.101-30.434 38.175-30.451h103.566c20.924.02 37.881 13.545 37.905 30.236v68.281c-.021 16.81-17.1 30.433-38.174 30.45z" fill="#3F3D56"/><path d="M765.227 359.302c16.967 0 30.722-13.755 30.722-30.722 0-16.968-13.755-30.723-30.722-30.723s-30.721 13.755-30.721 30.723c0 16.967 13.754 30.722 30.721 30.722z" fill="#E6E6E6"/><path d="m781.184 328.029-24.488-14.139a.644.644 0 0 0-.636 0 .635.635 0 0 0-.318.551v28.278a.632.632 0 0 0 .636.636c.112 0 .221-.03.318-.086l24.488-14.138a.643.643 0 0 0 .318-.551.634.634 0 0 0-.318-.551l-24.488-14.139a.644.644 0 0 0-.636 0 .635.635 0 0 0-.318.551v28.278a.632.632 0 0 0 .636.636c.112 0 .221-.03.318-.086l24.488-14.138a.643.643 0 0 0 .318-.551.634.634 0 0 0-.318-.551z" fill="#fff"/><path d="M725.339 449.386a13.031 13.031 0 0 1-12.961 13.098H142.075a13.02 13.02 0 0 1-9.194-3.864 13.033 13.033 0 0 1-3.769-9.234V59.818a13.031 13.031 0 0 1 12.962-13.098h570.303a13.027 13.027 0 0 1 11.996 8.106c.647 1.585.975 3.28.966 4.992v389.568z" fill="#E6E6E6"/><path d="M718.612 443.007a12.665 12.665 0 0 1-12.665 12.665H148.895a12.665 12.665 0 0 1-12.665-12.665V66.377a12.667 12.667 0 0 1 12.665-12.666h557.077a12.663 12.663 0 0 1 12.64 12.665v376.631z" fill="#fff"/><path d="M166.003 70.063h523.431a7.518 7.518 0 0 1 7.517 7.518v352.76a7.518 7.518 0 0 1-7.517 7.518H166.003a7.518 7.518 0 0 1-7.518-7.518V77.581a7.517 7.517 0 0 1 7.518-7.518z" fill="#E6E6E6"/><path d="M172.628 78.523h509.611a7.518 7.518 0 0 1 7.518 7.518v333.937a7.518 7.518 0 0 1-7.518 7.518H172.628a7.518 7.518 0 0 1-7.517-7.518V86.041a7.517 7.517 0 0 1 7.517-7.518z" fill="#fff"/><path d="M532.449 310.503a14.324 14.324 0 0 1-5.821-1.24 7.127 7.127 0 0 1-1.214-.69l-37.036-26.071a14.329 14.329 0 0 1-6.081-11.715v-35.555a14.328 14.328 0 0 1 6.081-11.715l37.036-26.071c.381-.269.787-.5 1.214-.689a14.323 14.323 0 0 1 18.414 6.258 14.328 14.328 0 0 1 1.736 6.836v86.318a14.33 14.33 0 0 1-14.329 14.33v.004z" fill="#3F3D56"/><path d="M449.561 317.493H346.265c-21.075-.017-38.154-13.64-38.175-30.451v-68.066c.022-16.81 17.1-30.433 38.175-30.45H449.83c20.925.02 37.881 13.545 37.906 30.235v68.281c-.022 16.811-17.101 30.434-38.175 30.451z" fill="#3F3D56"/><path d="M633.567 406.022c16.967 0 30.721-13.755 30.721-30.722 0-16.968-13.754-30.723-30.721-30.723s-30.721 13.755-30.721 30.723c0 16.967 13.754 30.722 30.721 30.722z" fill="#E6E6E6"/><path d="m649.524 374.749-24.488-14.139a.634.634 0 0 0-.869.233.634.634 0 0 0-.085.318v28.277a.631.631 0 0 0 .318.551.634.634 0 0 0 .636 0l24.488-14.139a.64.64 0 0 0 .318-.55.631.631 0 0 0-.318-.551l-24.488-14.139a.634.634 0 0 0-.869.233.634.634 0 0 0-.085.318v28.277a.631.631 0 0 0 .318.551.634.634 0 0 0 .636 0l24.488-14.139a.64.64 0 0 0 .318-.55.631.631 0 0 0-.318-.551z" fill="#fff"/><path d="M596.227 502.901A13.03 13.03 0 0 1 583.265 516H12.962A13.033 13.033 0 0 1 0 502.902V113.334a13.032 13.032 0 0 1 12.962-13.099h570.303a13.03 13.03 0 0 1 12.962 13.099v389.567z" fill="#E6E6E6"/><path d="M589.499 496.522a12.666 12.666 0 0 1-12.664 12.666H19.783a12.666 12.666 0 0 1-12.665-12.666v-376.63a12.666 12.666 0 0 1 12.665-12.665H576.86a12.663 12.663 0 0 1 12.639 12.665v376.63z" fill="#fff"/><path d="M36.89 123.578h523.432a7.515 7.515 0 0 1 7.517 7.518v352.76a7.518 7.518 0 0 1-7.517 7.518H36.89a7.517 7.517 0 0 1-7.517-7.518v-352.76a7.519 7.519 0 0 1 7.517-7.518z" fill="#E6E6E6"/><path d="M43.516 132.039h509.611a7.524 7.524 0 0 1 6.945 4.641c.378.912.572 1.889.572 2.877v333.936a7.511 7.511 0 0 1-2.201 5.316 7.524 7.524 0 0 1-5.316 2.202H43.516a7.517 7.517 0 0 1-7.517-7.518V139.557a7.518 7.518 0 0 1 7.517-7.518z" fill="#fff"/><path d="M403.337 364.018a14.332 14.332 0 0 1-5.822-1.24 7.157 7.157 0 0 1-1.213-.69l-37.036-26.071a14.324 14.324 0 0 1-6.081-11.714v-35.556a14.328 14.328 0 0 1 6.081-11.714l37.036-26.071c.381-.27.787-.501 1.213-.69a14.322 14.322 0 0 1 13.629 1.078 14.326 14.326 0 0 1 6.522 12.016v86.318a14.33 14.33 0 0 1-14.329 14.33v.004z" fill="#F40638"/><path d="M320.449 371.009H217.153c-21.075-.018-38.153-13.641-38.175-30.451v-68.066c.022-16.81 17.1-30.433 38.175-30.45h103.566c20.924.019 37.88 13.545 37.905 30.235v68.281c-.022 16.81-17.1 30.433-38.175 30.451z" fill="#F40638"/><path d="M504.455 459.538c16.967 0 30.721-13.755 30.721-30.723 0-16.967-13.754-30.722-30.721-30.722s-30.722 13.755-30.722 30.722c0 16.968 13.755 30.723 30.722 30.723z" fill="#3F3D56"/><path d="m520.412 428.265-24.488-14.139a.637.637 0 0 0-.954.55v28.278a.634.634 0 0 0 .636.636c.111 0 .221-.03.318-.085l24.488-14.139a.632.632 0 0 0 .318-.551.638.638 0 0 0-.318-.55l-24.488-14.139a.637.637 0 0 0-.954.55v28.278a.634.634 0 0 0 .636.636c.111 0 .221-.03.318-.085l24.488-14.139a.632.632 0 0 0 .318-.551.638.638 0 0 0-.318-.55z" fill="#fff"/></g><defs><clipPath id="a"><path fill="#fff" d="M0 0h857v516H0z"/></clipPath></defs></svg>