<svg width="680" height="464" viewBox="0 0 680 464" fill="none" xmlns="http://www.w3.org/2000/svg">
<g clip-path="url(#clip0_785_610)">
<path d="M123.009 435.986C190.937 435.877 245.999 432.208 245.992 427.79C245.984 423.373 190.912 419.881 122.983 419.99C55.0542 420.099 -0.00719535 423.768 -0.000109639 428.186C0.00697607 432.603 55.0798 436.095 123.009 435.986Z" fill="#E6E6E6"/>
<path d="M383.178 331.18C436.515 331.094 479.749 328.213 479.743 324.745C479.737 321.276 436.495 318.534 383.158 318.62C329.821 318.705 286.587 321.586 286.592 325.055C286.598 328.523 329.841 331.266 383.178 331.18Z" fill="#E6E6E6"/>
<path d="M558.008 439.892C625.401 439.784 680.019 430.036 680 418.12C679.981 406.203 625.332 396.631 557.939 396.739C490.545 396.847 435.928 406.595 435.947 418.512C435.966 430.428 490.615 440 558.008 439.892Z" fill="#E6E6E6"/>
<path d="M141.246 210.203L155.096 206.344C155.096 206.344 160.52 205.261 157.206 194.66C153.891 184.059 147.317 187.026 147.317 187.026L135.031 190.597L130.18 192.096L137.005 201.677L137.577 208.062L141.246 210.203Z" fill="#3F3D56"/>
<path d="M114.485 182.193L110.14 199.56L132.404 221.15L134.318 221.63L139.424 220.195L143.77 202.829L139.368 198.197L143.867 197.018L134.266 187.692L129.256 188.744L125.237 184.751L127.949 183.667L128.206 182.645L124.92 180.058L114.485 182.193Z" fill="#3F3D56"/>
<path d="M135.344 206.689L132.468 218.181L119.199 205.629L122.522 193.977L135.344 206.689Z" fill="#6C63FF"/>
<path d="M114.485 182.193L113.875 184.628L136.014 206.178L137.928 206.658L142.876 205.318L143.148 205.313L143.77 202.829L139.368 198.197L143.867 197.018L134.266 187.692L129.256 188.744L125.237 184.751L127.949 183.667L128.206 182.645L124.92 180.058L114.485 182.193Z" stroke="#3F3D56" stroke-miterlimit="10"/>
<path d="M126.499 182.421C126.666 181.751 126.002 181.007 125.015 180.76C124.029 180.513 123.093 180.856 122.925 181.526C122.757 182.196 123.421 182.939 124.408 183.186C125.395 183.434 126.331 183.091 126.499 182.421Z" fill="#6C63FF"/>
<path d="M140.563 201.007C140.731 200.337 140.067 199.594 139.08 199.347C138.093 199.099 137.157 199.442 136.99 200.112C136.822 200.782 137.486 201.526 138.473 201.773C139.46 202.02 140.396 201.677 140.563 201.007Z" fill="#6C63FF"/>
<path d="M150.448 231.837L147.427 221.562C147.427 221.562 155.28 202.825 146.219 201.012C137.159 199.199 136.555 218.54 136.555 218.54L140.179 230.024L150.448 231.837Z" fill="#FFB6B6"/>
<path d="M94.3732 211.859C107.625 211.859 118.368 201.11 118.368 187.85C118.368 174.59 107.625 163.841 94.3732 163.841C81.1215 163.841 70.3789 174.59 70.3789 187.85C70.3789 201.11 81.1215 211.859 94.3732 211.859Z" fill="#FFB6B6"/>
<path d="M102.136 204.797C102.136 204.797 103.547 222.451 107.076 223.863C110.605 225.275 75.5283 235.161 75.5283 235.161L86.1141 223.157C86.1141 223.157 81.6703 204.797 76.7304 200.56L102.136 204.797Z" fill="#FFB6B6"/>
<path d="M135.951 226.397L145.615 225.188C145.615 225.188 157.092 231.232 157.092 239.09C157.092 246.947 163.737 259.639 163.737 259.639C163.737 259.639 168.569 276.563 157.696 277.771C146.823 278.98 137.159 259.639 137.159 259.639L135.951 226.397Z" fill="#F40638"/>
<path d="M141.387 322.497L160.87 309.067C163.952 306.904 167.609 305.711 171.373 305.643C175.137 305.575 178.835 306.635 181.992 308.685C184.677 310.476 186.69 312.827 186.69 315.849C186.69 324.915 166.757 346.069 166.757 346.069C166.757 346.069 151.656 379.311 137.159 380.52C127.622 381.385 118.143 382.798 108.769 384.751C108.769 384.751 115.413 408.927 111.789 415.575C108.165 422.224 94.2716 430.081 93.0635 429.476C91.8554 428.872 74.9421 413.158 67.6936 390.795C60.4451 368.432 55.6127 351.508 62.2572 350.3C68.9017 349.091 141.387 322.497 141.387 322.497Z" fill="#2F2E41"/>
<path d="M184.878 314.036C184.878 314.036 189.107 313.431 188.503 323.706C187.899 333.981 186.086 370.849 183.066 378.102C180.046 385.355 179.442 393.817 180.65 396.839C181.858 399.861 184.274 404.696 180.046 405.3C175.818 405.905 158.3 403.487 156.488 402.883C154.676 402.278 163.737 378.707 162.529 377.498C161.321 376.289 160.113 347.882 160.113 347.882L184.878 314.036Z" fill="#2F2E41"/>
<path d="M178.838 403.487C178.838 403.487 189.107 400.465 190.315 407.114C190.315 407.114 192.127 417.388 184.274 421.015C179.207 423.411 174.356 426.242 169.777 429.477C169.777 429.477 157.092 434.312 156.488 428.268C155.884 422.224 158.904 400.465 158.904 400.465L178.838 403.487Z" fill="#2F2E41"/>
<path d="M110.581 410.74L91.2514 395.026C91.2514 395.026 94.8757 414.366 90.0433 417.993L87.8359 424.45L94.0171 429.509C94.0171 429.509 112.997 426.455 110.581 410.74Z" fill="#2F2E41"/>
<path d="M83.3987 384.146C83.3987 384.146 96.0837 387.773 94.2715 400.465C92.4594 413.158 90.136 426.947 90.136 426.947C90.136 426.947 89.4391 460.905 80.3785 463.323C71.3179 465.741 68.9017 460.905 68.9017 460.905C68.9017 460.905 58.6022 434.369 61.6531 426.455C65.3461 416.874 70.6675 406.117 68.9017 402.883C67.1641 399.7 70.1097 382.333 83.3987 384.146Z" fill="#2F2E41"/>
<path d="M76.1503 217.331C76.1503 217.331 80.9827 217.935 88.8353 219.144C96.6879 220.353 102.124 214.309 106.353 215.518C110.581 216.727 145.616 225.188 145.616 225.188L142.585 248.435C141.592 256.054 139.125 263.35 135.965 270.353C130.87 281.645 138.419 317.019 145.615 323.706C151.875 329.523 160.113 330.959 151.052 341.234C141.991 351.508 126.286 360.575 94.2717 357.553C62.2573 354.531 58.029 355.135 58.029 350.3C58.029 345.464 69.4223 282.002 65.798 278.376C62.1737 274.749 60.3616 271.123 60.3616 269.31C60.3616 268.098 56.5829 254.463 54.0773 245.554C52.2572 239.267 52.9344 232.519 55.9677 226.719C57.1017 224.595 58.3984 222.965 59.7575 222.771C63.9858 222.166 61.0492 219.144 64.0694 219.144C67.0897 219.144 68.9018 219.749 70.7139 219.144L76.1503 217.331Z" fill="#F40638"/>
<path d="M122.448 171.656C122.448 171.656 121.902 141.987 92.7974 156.031C92.7974 156.031 70.4186 155.242 67.2868 183.567L64.2588 213.221L67.5024 210.781L69.6756 214.134L75.6029 214.74L77.3334 209.524L79.3843 215.247L126.874 213.019C126.874 213.019 104.086 203.704 100.482 181.522L105.096 185.155L122.448 171.656Z" fill="#2F2E41"/>
<path d="M67.7487 171.916C74.3184 171.916 79.6441 166.587 79.6441 160.014C79.6441 153.44 74.3184 148.111 67.7487 148.111C61.179 148.111 55.8533 153.44 55.8533 160.014C55.8533 166.587 61.179 171.916 67.7487 171.916Z" fill="#2F2E41"/>
<path d="M79.4506 155.344C78.8176 152.385 77.081 149.779 74.5946 148.056C72.1081 146.333 69.0589 145.624 66.0679 146.072C66.3063 146.005 66.5416 145.932 66.7871 145.88C68.3148 145.553 69.8917 145.531 71.428 145.814C72.9642 146.098 74.4297 146.681 75.7406 147.531C77.0516 148.381 78.1824 149.481 79.0684 150.768C79.9545 152.056 80.5785 153.505 80.9048 155.033C81.2311 156.562 81.2532 158.14 80.9701 159.677C80.6869 161.214 80.1039 162.681 79.2544 163.992C78.4049 165.304 77.3055 166.435 76.019 167.322C74.7325 168.209 73.284 168.833 71.7564 169.159C71.5109 169.212 71.2663 169.241 71.0215 169.278C73.9344 168.464 76.4279 166.57 77.994 163.982C79.5601 161.393 80.081 158.304 79.4506 155.344Z" fill="#2F2E41"/>
<path d="M370.505 71.9403C381.334 71.9403 390.113 63.1564 390.113 52.321C390.113 41.4855 381.334 32.7016 370.505 32.7016C359.676 32.7016 350.897 41.4855 350.897 52.321C350.897 63.1564 359.676 71.9403 370.505 71.9403Z" fill="#2F2E41"/>
<path d="M380.829 65.3824C380.829 65.3824 380.533 77.4929 381.714 77.7883C382.895 78.0837 365.478 82.8097 365.478 82.8097L363.707 66.2686L380.829 65.3824Z" fill="#FFB8B8"/>
<path d="M243.265 168.764C243.265 168.764 230.276 168.764 229.981 167.287C229.685 165.811 227.029 179.398 227.029 179.398L232.342 181.17C232.342 181.17 242.379 176.739 243.265 176.739C244.15 176.739 243.265 168.764 243.265 168.764Z" fill="#FFB8B8"/>
<path d="M229.095 174.081C229.095 174.081 231.457 166.106 234.409 165.811C234.409 165.811 224.372 159.312 224.077 157.245C223.781 155.177 220.239 149.86 218.763 151.632C217.287 153.405 217.287 181.465 219.944 184.419C222.601 187.373 234.409 180.268 234.409 180.268C234.409 180.268 227.029 177.035 229.095 174.081Z" fill="#2F2E41"/>
<path d="M389.39 287.211L391.751 299.912L380.829 301.684V287.211H389.39Z" fill="#FFB8B8"/>
<path d="M389.39 298.435C389.39 298.435 391.161 292.823 392.342 293.709C393.523 294.595 395.294 300.207 394.999 301.684C394.703 303.161 392.637 314.681 393.523 316.748C394.408 318.816 389.095 329.449 382.305 328.563C375.515 327.677 376.106 321.77 376.106 321.77L378.467 312.613L379.353 298.139C379.353 298.139 387.028 296.958 389.39 298.435Z" fill="#2F2E41"/>
<path d="M377.364 39.7901C381.845 39.7901 385.478 36.1554 385.478 31.6717C385.478 27.1881 381.845 23.5533 377.364 23.5533C372.883 23.5533 369.251 27.1881 369.251 31.6717C369.251 36.1554 372.883 39.7901 377.364 39.7901Z" fill="#2F2E41"/>
<path d="M388.182 27.2743C388.182 25.2676 387.439 23.332 386.097 21.841C384.755 20.3499 382.908 19.409 380.914 19.1998C381.195 19.1707 381.477 19.156 381.759 19.1559C383.91 19.1579 385.971 20.0141 387.491 21.5364C389.011 23.0587 389.865 25.1225 389.865 27.2743C389.865 29.4261 389.011 31.4899 387.491 33.0122C385.971 34.5345 383.91 35.3907 381.759 35.3927C381.477 35.3926 381.195 35.3779 380.914 35.3488C382.908 35.1396 384.755 34.1987 386.097 32.7076C387.439 31.2166 388.182 29.281 388.182 27.2743Z" fill="#2F2E41"/>
<path d="M370.497 73.653C377.344 73.653 382.895 68.0987 382.895 61.2471C382.895 54.3956 377.344 48.8413 370.497 48.8413C363.649 48.8413 358.098 54.3956 358.098 61.2471C358.098 68.0987 363.649 73.653 370.497 73.653Z" fill="#FFB8B8"/>
<path d="M394.998 147.497C394.998 147.497 394.408 162.266 392.046 169.946C389.685 177.626 381.171 232.319 382.942 236.455C384.713 240.59 393.818 286.324 391.751 288.983C389.685 291.641 379.943 290.755 379.943 290.755L366.706 235.273C366.706 235.273 369.316 174.081 347.471 172.604C325.626 171.127 289.907 170.241 289.907 170.241C289.907 170.241 266.881 177.035 256.549 176.74C246.217 176.444 240.313 179.398 240.313 179.398L238.542 167.288L284.298 157.245C284.298 157.245 326.216 142.771 349.242 146.611C372.268 150.451 394.998 147.497 394.998 147.497Z" fill="#2F2E41"/>
<path d="M378.467 73.9483C378.467 73.9483 382.01 71.8807 382.895 73.9483C383.781 76.016 389.98 77.7882 392.342 76.016C394.703 74.2437 400.607 76.6067 400.607 76.6067L407.102 95.8063C407.102 95.8063 403.855 112.347 400.903 121.504C397.95 130.661 396.77 149.565 397.95 151.337C399.131 153.109 374.334 160.198 362.231 155.768C350.128 151.337 347.471 146.316 347.471 146.316C347.471 146.316 360.755 127.412 356.327 118.55C351.899 109.689 355.441 99.6462 355.441 99.6462L353.67 89.6033L363.707 83.9912C363.707 83.9912 364.297 78.6744 366.659 78.6744C369.021 78.6744 378.467 73.9483 378.467 73.9483Z" fill="#D0CDE1"/>
<path d="M358.098 89.8987H353.67C352.442 91.0488 351.526 92.4928 351.01 94.0948C350.493 95.6967 350.393 97.4039 350.718 99.0554C351.899 104.668 357.224 123.274 357.224 123.274L361.641 111.757L358.098 89.8987Z" fill="#D0CDE1"/>
<path d="M345.383 137.335C345.383 137.335 336.548 146.906 343.043 151.928C349.537 156.949 351.138 140.408 351.138 140.408L345.383 137.335Z" fill="#FFB8B8"/>
<path d="M358.098 117.369L356.032 125.639L352.489 132.138C352.489 132.138 340.386 140.113 340.386 143.067C340.386 143.067 345.7 136.273 352.489 143.067L358.541 128.445L358.098 117.369Z" fill="#D0CDE1"/>
<path d="M368.224 56.2795C375.693 56.2795 381.747 52.6448 381.747 48.1611C381.747 43.6775 375.693 40.0428 368.224 40.0428C360.756 40.0428 354.702 43.6775 354.702 48.1611C354.702 52.6448 360.756 56.2795 368.224 56.2795Z" fill="#2F2E41"/>
<path d="M394.999 48.8413C394.999 48.8413 385.552 43.5245 381.715 47.3644C377.877 51.2043 393.227 57.1119 393.227 57.1119L394.999 48.8413Z" fill="#FFB8B8"/>
<path d="M398.541 78.0836L400.607 76.6067C400.607 76.6067 402.969 73.0622 405.035 74.2437C407.102 75.4252 419.205 69.8131 419.205 69.8131C419.205 69.8131 414.777 71.8807 414.777 68.3362C414.777 64.7916 414.187 65.3824 411.235 65.3824C408.282 65.3824 408.283 66.8593 407.102 64.7916C405.921 62.724 406.511 61.5425 404.445 62.724C402.378 63.9055 400.017 63.0194 399.426 62.1332C398.836 61.2471 388.209 59.7702 388.209 59.7702C388.209 59.7702 392.342 47.6598 393.227 46.7736C394.113 45.8875 416.843 55.9304 416.843 55.9304C416.843 55.9304 445.478 63.9055 438.098 73.0622C430.718 82.2189 404.15 96.1017 404.15 96.1017L398.541 78.0836Z" fill="#D0CDE1"/>
<path d="M453.793 0L507.05 0.330976C507.05 0.330976 594.709 46.9997 533.182 143.647C533.182 143.647 508.043 137.689 480.256 158.21C480.257 158.21 464.048 3.64082 453.793 0Z" fill="#302D62"/>
<path d="M469.636 0.483764C479.177 40.3626 489.963 143.218 489.963 143.218C514.788 124.884 537.484 127.684 542.043 128.489C539.354 133.817 536.397 139.004 533.182 144.032C533.182 144.032 508.043 138.074 480.256 158.595C480.256 158.595 464.048 4.02614 453.793 0.385315L469.636 0.483764Z" fill="white" fill-opacity="0.2"/>
<path d="M533.513 49.9783L538.144 72.4854L596.343 61.9003L596.362 61.8935L597.686 35.4151H586.439L533.513 49.9783Z" fill="#3F3D56"/>
<path opacity="0.2" d="M587.378 35.4151L596.343 61.9003L596.362 61.8935L597.686 35.4151H587.378Z" fill="black"/>
<path d="M535.498 75.1333C539.152 75.1333 542.114 68.3167 542.114 59.908C542.114 51.4994 539.152 44.6828 535.498 44.6828C531.844 44.6828 528.882 51.4994 528.882 59.908C528.882 68.3167 531.844 75.1333 535.498 75.1333Z" fill="#3F3D56"/>
<path d="M569.9 381.661C569.635 381.661 569.372 381.609 569.126 381.508C568.881 381.406 568.658 381.257 568.47 381.069C568.282 380.881 568.134 380.658 568.032 380.413C567.93 380.167 567.878 379.904 567.878 379.638V59.9081C567.878 59.3715 568.091 58.8569 568.47 58.4774C568.849 58.0979 569.364 57.8848 569.9 57.8848C570.436 57.8848 570.951 58.0979 571.33 58.4774C571.709 58.8569 571.922 59.3715 571.922 59.9081V379.638C571.922 379.904 571.87 380.167 571.768 380.412C571.667 380.658 571.518 380.881 571.33 381.069C571.142 381.257 570.92 381.406 570.674 381.507C570.429 381.609 570.166 381.661 569.9 381.661H569.9Z" fill="#3F3D56"/>
<path d="M542.116 437.929C541.818 437.93 541.523 437.864 541.252 437.737C540.982 437.61 540.744 437.424 540.553 437.194C540.363 436.963 540.227 436.693 540.153 436.404C540.08 436.114 540.072 435.812 540.129 435.518L565.942 303.106L498.156 406.565C498.011 406.787 497.823 406.979 497.603 407.129C497.384 407.279 497.137 407.384 496.877 407.439C496.616 407.493 496.348 407.495 496.087 407.446C495.826 407.396 495.577 407.296 495.354 407.15C495.132 407.004 494.941 406.816 494.791 406.596C494.642 406.376 494.537 406.128 494.483 405.868C494.429 405.607 494.427 405.339 494.477 405.078C494.527 404.816 494.628 404.567 494.774 404.345L568.209 292.267C568.466 291.875 568.851 291.584 569.298 291.445C569.746 291.305 570.228 291.326 570.662 291.502C571.096 291.679 571.455 292.001 571.679 292.414C571.902 292.826 571.975 293.303 571.885 293.764L544.099 436.293C544.009 436.753 543.762 437.168 543.401 437.466C543.039 437.765 542.585 437.928 542.116 437.929Z" fill="#3F3D56"/>
<path d="M646.644 412.774C646.308 412.774 645.977 412.691 645.682 412.531C645.386 412.372 645.135 412.141 644.951 411.859L568.209 294.692C568.063 294.469 567.962 294.22 567.912 293.959C567.862 293.698 567.864 293.429 567.918 293.169C567.972 292.909 568.077 292.661 568.226 292.441C568.376 292.222 568.567 292.033 568.79 291.888C569.012 291.742 569.261 291.641 569.522 291.592C569.783 291.542 570.052 291.545 570.312 291.599C570.572 291.654 570.819 291.759 571.038 291.909C571.258 292.059 571.446 292.251 571.591 292.474L648.334 409.642C648.533 409.947 648.647 410.3 648.663 410.664C648.678 411.029 648.595 411.391 648.422 411.711C648.249 412.032 647.992 412.301 647.679 412.488C647.366 412.675 647.009 412.773 646.644 412.774Z" fill="#3F3D56"/>
</g>
<defs>
<clipPath id="clip0_785_610">
<rect width="680" height="464" fill="white"/>
</clipPath>
</defs>
</svg>
