<svg width="680" height="464" fill="none" xmlns="http://www.w3.org/2000/svg"><g clip-path="url(#a)"><path d="M123.009 435.986c67.928-.109 122.99-3.778 122.983-8.196-.008-4.417-55.08-7.909-123.009-7.8-67.929.109-122.99 3.778-122.983 8.196.007 4.417 55.08 7.909 123.009 7.8zM383.178 331.18c53.337-.086 96.571-2.967 96.565-6.435-.006-3.469-43.248-6.211-96.585-6.125-53.337.085-96.571 2.966-96.566 6.435.006 3.468 43.249 6.211 96.586 6.125zM558.008 439.892c67.393-.108 122.011-9.856 121.992-21.772-.019-11.917-54.668-21.489-122.061-21.381-67.394.108-122.011 9.856-121.992 21.773.019 11.916 54.668 21.488 122.061 21.38z" fill="#E6E6E6"/><path d="m141.246 210.203 13.85-3.859s5.424-1.083 2.11-11.684c-3.315-10.601-9.889-7.634-9.889-7.634l-12.286 3.571-4.851 1.499 6.825 9.581.572 6.385 3.669 2.141z" fill="#3F3D56"/><path d="m114.485 182.193-4.345 17.367 22.264 21.59 1.914.48 5.106-1.435 4.346-17.366-4.402-4.632 4.499-1.179-9.601-9.326-5.01 1.052-4.019-3.993 2.712-1.084.257-1.022-3.286-2.587-10.435 2.135z" fill="#3F3D56"/><path d="m135.344 206.689-2.876 11.492-13.269-12.552 3.323-11.652 12.822 12.712z" fill="#6C63FF"/><path d="m114.485 182.193-.61 2.435 22.139 21.55 1.914.48 4.948-1.34.272-.005.622-2.484-4.402-4.632 4.499-1.179-9.601-9.326-5.01 1.052-4.019-3.993 2.712-1.084.257-1.022-3.286-2.587-10.435 2.135z" stroke="#3F3D56" stroke-miterlimit="10"/><path d="M126.499 182.421c.167-.67-.497-1.414-1.484-1.661-.986-.247-1.922.096-2.09.766-.168.67.496 1.413 1.483 1.66.987.248 1.923-.095 2.091-.765zM140.563 201.007c.168-.67-.496-1.413-1.483-1.66-.987-.248-1.923.095-2.09.765-.168.67.496 1.414 1.483 1.661.987.247 1.923-.096 2.09-.766z" fill="#6C63FF"/><path d="m150.448 231.837-3.021-10.275s7.853-18.737-1.208-20.55c-9.06-1.813-9.664 17.528-9.664 17.528l3.624 11.484 10.269 1.813zM94.373 211.859c13.252 0 23.995-10.749 23.995-24.009s-10.743-24.009-23.995-24.009S70.38 174.59 70.38 187.85s10.742 24.009 23.994 24.009z" fill="#FFB6B6"/><path d="M102.136 204.797s1.411 17.654 4.94 19.066c3.529 1.412-31.548 11.298-31.548 11.298l10.586-12.004s-4.444-18.36-9.384-22.597l25.406 4.237z" fill="#FFB6B6"/><path d="m135.951 226.397 9.664-1.209s11.477 6.044 11.477 13.902c0 7.857 6.645 20.549 6.645 20.549s4.832 16.924-6.041 18.132c-10.873 1.209-20.537-18.132-20.537-18.132l-1.208-33.242z" fill="#F40638"/><path d="m141.387 322.497 19.483-13.43a18.873 18.873 0 0 1 21.122-.382c2.685 1.791 4.698 4.142 4.698 7.164 0 9.066-19.933 30.22-19.933 30.22s-15.101 33.242-29.598 34.451a249.839 249.839 0 0 0-28.39 4.231s6.644 24.176 3.02 30.824c-3.624 6.649-17.517 14.506-18.725 13.901-1.209-.604-18.122-16.318-25.37-38.681-7.249-22.363-12.081-39.287-5.437-40.495 6.645-1.209 79.13-27.803 79.13-27.803z" fill="#2F2E41"/><path d="M184.878 314.036s4.229-.605 3.625 9.67c-.604 10.275-2.417 47.143-5.437 54.396-3.02 7.253-3.624 15.715-2.416 18.737 1.208 3.022 3.624 7.857-.604 8.461-4.228.605-21.746-1.813-23.558-2.417-1.812-.605 7.249-24.176 6.041-25.385-1.208-1.209-2.416-29.616-2.416-29.616l24.765-33.846z" fill="#2F2E41"/><path d="M178.838 403.487s10.269-3.022 11.477 3.627c0 0 1.812 10.274-6.041 13.901a96.95 96.95 0 0 0-14.497 8.462s-12.685 4.835-13.289-1.209c-.604-6.044 2.416-27.803 2.416-27.803l19.934 3.022zM110.581 410.74l-19.33-15.714s3.625 19.34-1.208 22.967l-2.207 6.457 6.181 5.059s18.98-3.054 16.564-18.769z" fill="#2F2E41"/><path d="M83.399 384.146s12.685 3.627 10.873 16.319c-1.813 12.693-4.136 26.482-4.136 26.482s-.697 33.958-9.757 36.376c-9.061 2.418-11.477-2.418-11.477-2.418s-10.3-26.536-7.249-34.45c3.693-9.581 9.015-20.338 7.249-23.572-1.738-3.183 1.208-20.55 14.497-18.737z" fill="#2F2E41"/><path d="M76.15 217.331s4.833.604 12.685 1.813c7.853 1.209 13.289-4.835 17.518-3.626 4.228 1.209 39.263 9.67 39.263 9.67l-3.031 23.247c-.993 7.619-3.46 14.915-6.62 21.918-5.095 11.292 2.454 46.666 9.65 53.353 6.26 5.817 14.498 7.253 5.437 17.528-9.061 10.274-24.766 19.341-56.78 16.319-32.015-3.022-36.243-2.418-36.243-7.253 0-4.836 11.393-68.298 7.769-71.924-3.624-3.627-5.436-7.253-5.436-9.066 0-1.212-3.78-14.847-6.285-23.756a25.402 25.402 0 0 1 1.89-18.835c1.135-2.124 2.431-3.754 3.79-3.948 4.229-.605 1.292-3.627 4.312-3.627 3.02 0 4.833.605 6.645 0l5.436-1.813z" fill="#F40638"/><path d="M122.448 171.656s-.546-29.669-29.65-15.625c0 0-22.38-.789-25.511 27.536l-3.028 29.654 3.243-2.44 2.174 3.353 5.927.606 1.73-5.216 2.051 5.723 47.49-2.228s-22.788-9.315-26.392-31.497l4.614 3.633 17.352-13.499z" fill="#2F2E41"/><path d="M67.749 171.916c6.57 0 11.895-5.329 11.895-11.902 0-6.574-5.326-11.903-11.895-11.903-6.57 0-11.896 5.329-11.896 11.903 0 6.573 5.326 11.902 11.896 11.902z" fill="#2F2E41"/><path d="M79.45 155.344a11.894 11.894 0 0 0-4.855-7.288 11.88 11.88 0 0 0-8.527-1.984c.238-.067.474-.14.72-.192a11.885 11.885 0 0 1 12.28 4.888 11.915 11.915 0 0 1 1.902 8.909 11.903 11.903 0 0 1-9.214 9.482c-.245.053-.49.082-.734.119a11.89 11.89 0 0 0 8.429-13.934zM370.505 71.94c10.829 0 19.608-8.784 19.608-19.619 0-10.835-8.779-19.62-19.608-19.62s-19.608 8.785-19.608 19.62 8.779 19.62 19.608 19.62z" fill="#2F2E41"/><path d="M380.829 65.382s-.296 12.11.885 12.406c1.181.296-16.236 5.022-16.236 5.022l-1.771-16.541 17.122-.887zM243.265 168.764s-12.989 0-13.284-1.477c-.296-1.476-2.952 12.111-2.952 12.111l5.313 1.772s10.037-4.431 10.923-4.431c.885 0 0-7.975 0-7.975z" fill="#FFB8B8"/><path d="M229.095 174.081s2.362-7.975 5.314-8.27c0 0-10.037-6.499-10.332-8.566-.296-2.068-3.838-7.385-5.314-5.613-1.476 1.773-1.476 29.833 1.181 32.787 2.657 2.954 14.465-4.151 14.465-4.151s-7.38-3.233-5.314-6.187z" fill="#2F2E41"/><path d="m389.39 287.211 2.361 12.701-10.922 1.772v-14.473h8.561z" fill="#FFB8B8"/><path d="M389.39 298.435s1.771-5.612 2.952-4.726c1.181.886 2.952 6.498 2.657 7.975-.296 1.477-2.362 12.997-1.476 15.064.885 2.068-4.428 12.701-11.218 11.815-6.79-.886-6.199-6.793-6.199-6.793l2.361-9.157.886-14.474s7.675-1.181 10.037.296zM377.364 39.79a8.116 8.116 0 0 0 8.114-8.118 8.116 8.116 0 0 0-8.114-8.119c-4.481 0-8.113 3.635-8.113 8.119 0 4.483 3.632 8.118 8.113 8.118z" fill="#2F2E41"/><path d="M388.182 27.274a8.122 8.122 0 0 0-7.268-8.074 8.11 8.11 0 0 1 6.577 2.337 8.121 8.121 0 0 1 0 11.475 8.11 8.11 0 0 1-6.577 2.337 8.113 8.113 0 0 0 7.268-8.075z" fill="#2F2E41"/><path d="M370.497 73.653c6.847 0 12.398-5.554 12.398-12.406 0-6.851-5.551-12.406-12.398-12.406-6.848 0-12.399 5.555-12.399 12.406 0 6.852 5.551 12.406 12.399 12.406z" fill="#FFB8B8"/><path d="M394.998 147.497s-.59 14.769-2.952 22.449c-2.361 7.68-10.875 62.373-9.104 66.509 1.771 4.135 10.876 49.869 8.809 52.528-2.066 2.658-11.808 1.772-11.808 1.772l-13.237-55.482s2.61-61.192-19.235-62.669c-21.845-1.477-57.564-2.363-57.564-2.363s-23.026 6.794-33.358 6.499c-10.332-.296-16.236 2.658-16.236 2.658l-1.771-12.11 45.756-10.043s41.918-14.474 64.944-10.634c23.026 3.84 45.756.886 45.756.886z" fill="#2F2E41"/><path d="M378.467 73.948s3.543-2.067 4.428 0c.886 2.068 7.085 3.84 9.447 2.068 2.361-1.772 8.265.59 8.265.59l6.495 19.2s-3.247 16.541-6.199 25.698c-2.953 9.157-4.133 28.061-2.953 29.833 1.181 1.772-23.616 8.861-35.719 4.431-12.103-4.431-14.76-9.452-14.76-9.452s13.284-18.904 8.856-27.766c-4.428-8.861-.886-18.904-.886-18.904l-1.771-10.043 10.037-5.612s.59-5.317 2.952-5.317 11.808-4.726 11.808-4.726z" fill="#D0CDE1"/><path d="M358.098 89.899h-4.428a9.915 9.915 0 0 0-2.952 9.156c1.181 5.613 6.506 24.219 6.506 24.219l4.417-11.517-3.543-21.858z" fill="#D0CDE1"/><path d="M345.383 137.335s-8.835 9.571-2.34 14.593c6.494 5.021 8.095-11.52 8.095-11.52l-5.755-3.073z" fill="#FFB8B8"/><path d="m358.098 117.369-2.066 8.27-3.543 6.499s-12.103 7.975-12.103 10.929c0 0 5.314-6.794 12.103 0l6.052-14.622-.443-11.076z" fill="#D0CDE1"/><path d="M368.224 56.28c7.469 0 13.523-3.635 13.523-8.119 0-4.483-6.054-8.118-13.523-8.118-7.468 0-13.522 3.635-13.522 8.118 0 4.484 6.054 8.118 13.522 8.118z" fill="#2F2E41"/><path d="M394.999 48.841s-9.447-5.316-13.284-1.477c-3.838 3.84 11.512 9.748 11.512 9.748l1.772-8.27z" fill="#FFB8B8"/><path d="m398.541 78.084 2.066-1.477s2.362-3.545 4.428-2.363c2.067 1.181 14.17-4.43 14.17-4.43s-4.428 2.067-4.428-1.478c0-3.544-.59-2.954-3.542-2.954-2.953 0-2.952 1.477-4.133-.59-1.181-2.068-.591-3.25-2.657-2.068-2.067 1.182-4.428.295-5.019-.59-.59-.887-11.217-2.364-11.217-2.364s4.133-12.11 5.018-12.996c.886-.886 23.616 9.156 23.616 9.156s28.635 7.976 21.255 17.132c-7.38 9.157-33.948 23.04-33.948 23.04l-5.609-18.018z" fill="#D0CDE1"/><path d="m453.793 0 53.257.331S594.709 47 533.182 143.647c0 0-25.139-5.958-52.926 14.563.001 0-16.208-154.57-26.463-158.21z" fill="#302D62"/><path d="M469.636.484c9.541 39.879 20.327 142.734 20.327 142.734 24.825-18.334 47.521-15.534 52.08-14.729a176.322 176.322 0 0 1-8.861 15.543s-25.139-5.958-52.926 14.563c0 0-16.208-154.569-26.463-158.21l15.843.099z" fill="#fff" fill-opacity=".2"/><path d="m533.513 49.978 4.631 22.507L596.343 61.9l.019-.006 1.324-26.479h-11.247l-52.926 14.563z" fill="#3F3D56"/><path opacity=".2" d="m587.378 35.415 8.965 26.485.019-.006 1.324-26.479h-10.308z" fill="#000"/><path d="M535.498 75.133c3.654 0 6.616-6.816 6.616-15.225 0-8.409-2.962-15.225-6.616-15.225-3.654 0-6.616 6.816-6.616 15.225 0 8.409 2.962 15.225 6.616 15.225zM569.9 381.661c-.265 0-.528-.052-.774-.153a2.032 2.032 0 0 1-1.094-1.095 2.022 2.022 0 0 1-.154-.775V59.908a2.025 2.025 0 0 1 2.022-2.023 2.022 2.022 0 0 1 2.022 2.023v319.73a2.013 2.013 0 0 1-.592 1.431 2.013 2.013 0 0 1-1.43.592z" fill="#3F3D56"/><path d="M542.116 437.929a2.02 2.02 0 0 1-1.987-2.411l25.813-132.412-67.786 103.459a2.02 2.02 0 0 1-2.802.585 2.034 2.034 0 0 1-.871-1.282 2.02 2.02 0 0 1 .291-1.523l73.435-112.078a2.02 2.02 0 0 1 3.47.147c.223.412.296.889.206 1.35l-27.786 142.529a2.026 2.026 0 0 1-1.983 1.636z" fill="#3F3D56"/><path d="M646.644 412.774a2.018 2.018 0 0 1-1.693-.915l-76.742-117.167a2.039 2.039 0 0 1-.291-1.523 2.02 2.02 0 0 1 1.604-1.577 2.02 2.02 0 0 1 2.069.882l76.743 117.168a2.027 2.027 0 0 1-1.69 3.132z" fill="#3F3D56"/></g><defs><clipPath id="a"><path fill="#fff" d="M0 0h680v464H0z"/></clipPath></defs></svg>