<svg width="647" height="472" viewBox="0 0 647 472" fill="none" xmlns="http://www.w3.org/2000/svg">
<g clip-path="url(#clip0_785_658)">
<path d="M302.658 373.642L312.879 369.101L300.078 326.843L284.992 333.545L302.658 373.642Z" fill="#FFB6B6"/>
<path d="M295.337 362.17L310.627 351.45L314.847 358.204L336.41 359.257C337.475 359.309 338.495 359.697 339.322 360.366C340.149 361.034 340.739 361.948 341.006 362.973C341.273 363.998 341.203 365.08 340.806 366.063C340.409 367.045 339.707 367.877 338.801 368.435L319.897 380.077L312.465 375.403L315.367 382.867L308.24 387.257L295.337 362.17Z" fill="#2F2E41"/>
<path d="M565.213 293.658C565.213 289.408 563.776 285.959 562.011 285.951H80.8407C79.0677 285.959 77.6382 289.408 77.6302 293.658V468.605C77.6303 469 77.4824 469.38 77.2154 469.673C76.9483 469.965 76.5813 470.148 76.1857 470.186C74.8942 470.309 73.6028 470.424 72.3113 470.53C72.2794 470.53 72.2474 470.538 72.2154 470.538C71.5127 470.601 70.8099 470.649 70.1071 470.704H70.0991C69.7376 470.041 69.3802 469.371 69.0271 468.696C68.9077 468.469 68.8453 468.216 68.8452 467.959V283.66C68.8452 282.486 68.8931 281.305 68.973 280.139C69.087 278.539 69.2869 276.945 69.572 275.366C70.9217 268 73.9725 263.013 77.4385 262.997H565.405C565.911 263 566.411 263.105 566.875 263.306C567.556 263.605 568.171 264.033 568.687 264.567C569.388 265.29 569.987 266.103 570.468 266.985C572.177 269.974 573.399 274.43 573.831 279.616C573.831 279.663 573.839 279.711 573.839 279.759C573.95 281.043 574.006 282.351 573.998 283.66L574.11 300.651L574.182 310.785L574.398 342.58L574.478 353.871L574.829 469.792C574.829 470.213 574.661 470.616 574.361 470.914C574.062 471.211 573.655 471.378 573.232 471.378H566.811C566.387 471.378 565.981 471.211 565.681 470.914C565.382 470.616 565.213 470.213 565.213 469.792V293.658Z" fill="#E6E6E6"/>
<path d="M434.464 183.488H382.617C381.884 183.489 381.181 183.78 380.663 184.295C380.145 184.811 379.854 185.51 379.855 186.238V267.552H437.233V186.238C437.234 185.877 437.162 185.519 437.023 185.185C436.884 184.852 436.68 184.549 436.423 184.293C436.166 184.038 435.86 183.835 435.524 183.697C435.188 183.559 434.828 183.488 434.464 183.488ZM408.715 229.69C407.094 229.683 405.541 229.04 404.394 227.902C403.248 226.763 402.6 225.222 402.593 223.612V214.233C402.595 212.622 403.241 211.078 404.388 209.94C405.536 208.801 407.093 208.162 408.715 208.162C410.338 208.162 411.894 208.801 413.042 209.94C414.19 211.078 414.835 212.622 414.837 214.233V223.612C414.83 225.222 414.182 226.763 413.036 227.902C411.889 229.04 410.336 229.683 408.715 229.69Z" fill="#2F2E41"/>
<path d="M379.677 264.951V272.796C379.678 273.203 379.841 273.593 380.131 273.88C380.42 274.167 380.812 274.329 381.222 274.33H435.867C436.276 274.328 436.667 274.166 436.957 273.879C437.246 273.591 437.409 273.203 437.411 272.796V264.951H379.677Z" fill="#3F3D56"/>
<path d="M313.063 70.2501C312.466 71.7415 311.548 73.0848 310.371 74.1855C309.195 75.2862 307.79 76.1175 306.255 76.6208C304.72 77.124 303.093 77.287 301.488 77.0983C299.883 76.9096 298.339 76.3738 296.964 75.5286L223.779 126.146L221.759 105.975L293.717 59.6885C295.3 57.4908 297.64 55.9462 300.294 55.3471C302.948 54.748 305.731 55.1362 308.115 56.438C310.5 57.7399 312.321 59.865 313.233 62.4106C314.145 64.9563 314.084 67.7456 313.063 70.2501Z" fill="#FFB6B6"/>
<path d="M149.206 102.165C149.206 102.165 141.281 113.79 153.716 124.078C166.152 134.366 216.554 132.319 224.688 132.231C232.821 132.142 270.14 93.8144 270.14 93.8144L269.896 71.6787L224.839 98.2216L149.206 102.165Z" fill="#6C63FF"/>
<path d="M144.719 179.347L145.518 194.413C145.518 194.413 143.16 207.757 145.099 210.637C147.023 213.503 199.86 217.765 199.86 217.765C199.86 217.765 198.204 195.297 201.192 179.046L144.719 179.347Z" fill="#FFB6B6"/>
<path d="M306.878 332.736L286.539 350.411L246.676 269.472C207.147 276.221 169.856 278.383 137.6 270.218C126.679 267.492 120.003 256.297 122.689 245.212C122.815 244.694 122.96 244.182 123.125 243.674C126.985 231.981 137.09 223.707 145.052 210.845L203.206 211.722L196.711 233.973L253.203 226.715C264.564 225.256 274.94 233.42 276.378 244.95C276.454 245.559 276.503 246.17 276.527 246.784L306.878 332.736Z" fill="#2F2E41"/>
<path d="M167.426 77.9657C180.467 77.9657 191.04 67.4693 191.04 54.5215C191.04 41.5736 180.467 31.0772 167.426 31.0772C154.384 31.0772 143.812 41.5736 143.812 54.5215C143.812 67.4693 154.384 77.9657 167.426 77.9657Z" fill="#FFB6B6"/>
<path d="M153.582 86.429L175.234 88.958C176.147 89.0647 177.004 89.4514 177.685 90.0645C178.366 90.6775 178.838 91.4862 179.034 92.3779L182.477 108.021L203.942 133.117C203.942 133.117 211.65 147.465 208.759 163.726C207.02 173.518 204.011 183.046 199.807 192.07C199.807 192.07 147.02 213.504 145.093 210.634C143.166 207.765 142.541 194.73 142.541 194.73L135.75 119.72C135.361 115.768 135.858 111.779 137.205 108.04C138.552 104.301 140.716 100.905 143.541 98.0936C145.255 96.4204 146.946 95.2491 148.322 95.2491C151.431 95.145 151.032 88.1979 153.582 86.429Z" fill="#6C63FF"/>
<path d="M200.042 405.071L210.089 409.957L234.277 372.947L219.448 365.736L200.042 405.071Z" fill="#FFB6B6"/>
<path d="M224.11 396.706L203.468 388.925L231.799 304.446C193.31 293.242 164.278 275.196 138.929 253.775C130.329 246.557 123.88 237.287 131.204 228.506C131.546 228.096 131.904 227.699 132.277 227.316C140.925 218.5 162.874 220.196 175.722 212.124L204.459 242.584L202.658 250.743L256.606 268.899C267.455 272.551 273.156 284.414 269.338 295.397C269.136 295.977 268.91 296.548 268.659 297.109L224.11 396.706Z" fill="#2F2E41"/>
<path d="M199.699 399.174L216.969 406.34L213.447 413.478L224.003 432.175C224.524 433.099 224.735 434.163 224.604 435.214C224.473 436.264 224.007 437.246 223.274 438.015C222.541 438.784 221.58 439.3 220.53 439.489C219.481 439.677 218.399 439.527 217.441 439.061L197.464 429.345L197.505 420.611L192.677 427.017L185.145 423.354L199.699 399.174Z" fill="#2F2E41"/>
<path d="M165.927 269.824C164.573 268.948 163.428 267.788 162.575 266.425C161.721 265.062 161.178 263.53 160.985 261.937C160.793 260.344 160.954 258.728 161.458 257.203C161.962 255.678 162.797 254.282 163.903 253.112L128.421 171.868L148.736 173.896L180.185 253.089C182.042 255.064 183.103 257.648 183.169 260.349C183.235 263.05 182.301 265.681 180.543 267.744C178.786 269.807 176.327 271.158 173.633 271.541C170.939 271.925 168.197 271.314 165.927 269.824V269.824Z" fill="#FFB6B6"/>
<path d="M166.864 104.045C166.864 104.045 156.956 94.0316 144.337 104.096C131.717 114.16 123.758 163.615 122.234 171.547C120.711 179.48 151.162 223.387 151.162 223.387L173.065 227.533L155.781 178.429L166.864 104.045Z" fill="#6C63FF"/>
<path d="M520.318 56.5881H298.693C296.788 56.5911 294.963 57.3434 293.617 58.6802C292.27 60.0169 291.513 61.829 291.51 63.7195V212.199C291.511 214.089 292.269 215.902 293.615 217.239C294.962 218.576 296.788 219.328 298.693 219.33H520.318C522.222 219.328 524.048 218.576 525.395 217.239C526.742 215.902 527.499 214.089 527.501 212.199V63.7195C527.498 61.829 526.74 60.0169 525.394 58.6802C524.047 57.3434 522.222 56.5911 520.318 56.5881Z" fill="#3F3D56"/>
<path d="M518.468 61.739H300.544C299.525 61.7412 298.548 62.1448 297.827 62.8613C297.107 63.5777 296.703 64.5486 296.703 65.5608V210.36C296.705 211.371 297.11 212.34 297.83 213.055C298.55 213.769 299.526 214.172 300.544 214.174H518.468C519.486 214.172 520.462 213.769 521.182 213.055C521.902 212.34 522.308 211.371 522.309 210.36V65.5608C522.309 64.5486 521.905 63.5777 521.185 62.8613C520.464 62.1448 519.488 61.7412 518.468 61.739Z" fill="white"/>
<path d="M476.02 277.06H346.367C346.012 277.06 345.662 276.981 345.342 276.83C345.021 276.678 344.739 276.458 344.515 276.184C344.292 275.91 344.132 275.591 344.049 275.248C343.966 274.906 343.96 274.549 344.033 274.204L346.045 264.718C346.16 264.188 346.454 263.712 346.878 263.37C347.303 263.028 347.832 262.84 348.379 262.838H474.009C474.555 262.84 475.085 263.028 475.509 263.37C475.934 263.712 476.228 264.188 476.342 264.718L478.354 274.204C478.427 274.549 478.422 274.906 478.338 275.248C478.255 275.591 478.096 275.91 477.872 276.184C477.649 276.458 477.366 276.678 477.046 276.83C476.725 276.981 476.375 277.06 476.02 277.06H476.02Z" fill="#2F2E41"/>
<path d="M352.903 264.546H349.689C349.474 264.546 349.299 264.72 349.299 264.933V266.538C349.299 266.752 349.474 266.925 349.689 266.925H352.903C353.118 266.925 353.293 266.752 353.293 266.538V264.933C353.293 264.72 353.118 264.546 352.903 264.546Z" fill="#3F3D56"/>
<path d="M360.889 264.546H357.676C357.46 264.546 357.286 264.72 357.286 264.933V266.538C357.286 266.752 357.46 266.925 357.676 266.925H360.889C361.105 266.925 361.279 266.752 361.279 266.538V264.933C361.279 264.72 361.105 264.546 360.889 264.546Z" fill="#3F3D56"/>
<path d="M368.876 264.546H365.662C365.447 264.546 365.272 264.72 365.272 264.933V266.538C365.272 266.752 365.447 266.925 365.662 266.925H368.876C369.091 266.925 369.265 266.752 369.265 266.538V264.933C369.265 264.72 369.091 264.546 368.876 264.546Z" fill="#3F3D56"/>
<path d="M376.862 264.546H373.648C373.433 264.546 373.259 264.72 373.259 264.933V266.538C373.259 266.752 373.433 266.925 373.648 266.925H376.862C377.077 266.925 377.252 266.752 377.252 266.538V264.933C377.252 264.72 377.077 264.546 376.862 264.546Z" fill="#3F3D56"/>
<path d="M384.848 264.546H381.635C381.419 264.546 381.245 264.72 381.245 264.933V266.538C381.245 266.752 381.419 266.925 381.635 266.925H384.848C385.063 266.925 385.238 266.752 385.238 266.538V264.933C385.238 264.72 385.063 264.546 384.848 264.546Z" fill="#3F3D56"/>
<path d="M392.835 264.546H389.621C389.406 264.546 389.231 264.72 389.231 264.933V266.538C389.231 266.752 389.406 266.925 389.621 266.925H392.835C393.05 266.925 393.225 266.752 393.225 266.538V264.933C393.225 264.72 393.05 264.546 392.835 264.546Z" fill="#3F3D56"/>
<path d="M400.821 264.546H397.608C397.392 264.546 397.218 264.72 397.218 264.933V266.538C397.218 266.752 397.392 266.925 397.608 266.925H400.821C401.036 266.925 401.211 266.752 401.211 266.538V264.933C401.211 264.72 401.036 264.546 400.821 264.546Z" fill="#3F3D56"/>
<path d="M408.807 264.546H405.594C405.379 264.546 405.204 264.72 405.204 264.933V266.538C405.204 266.752 405.379 266.925 405.594 266.925H408.807C409.023 266.925 409.197 266.752 409.197 266.538V264.933C409.197 264.72 409.023 264.546 408.807 264.546Z" fill="#3F3D56"/>
<path d="M416.794 264.546H413.58C413.365 264.546 413.19 264.72 413.19 264.933V266.538C413.19 266.752 413.365 266.925 413.58 266.925H416.794C417.009 266.925 417.183 266.752 417.183 266.538V264.933C417.183 264.72 417.009 264.546 416.794 264.546Z" fill="#3F3D56"/>
<path d="M424.78 264.546H421.567C421.351 264.546 421.177 264.72 421.177 264.933V266.538C421.177 266.752 421.351 266.925 421.567 266.925H424.78C424.995 266.925 425.17 266.752 425.17 266.538V264.933C425.17 264.72 424.995 264.546 424.78 264.546Z" fill="#3F3D56"/>
<path d="M432.766 264.546H429.553C429.338 264.546 429.163 264.72 429.163 264.933V266.538C429.163 266.752 429.338 266.925 429.553 266.925H432.766C432.982 266.925 433.156 266.752 433.156 266.538V264.933C433.156 264.72 432.982 264.546 432.766 264.546Z" fill="#3F3D56"/>
<path d="M440.753 264.546H437.539C437.324 264.546 437.149 264.72 437.149 264.933V266.538C437.149 266.752 437.324 266.925 437.539 266.925H440.753C440.968 266.925 441.143 266.752 441.143 266.538V264.933C441.143 264.72 440.968 264.546 440.753 264.546Z" fill="#3F3D56"/>
<path d="M448.739 264.546H445.526C445.31 264.546 445.136 264.72 445.136 264.933V266.538C445.136 266.752 445.31 266.925 445.526 266.925H448.739C448.954 266.925 449.129 266.752 449.129 266.538V264.933C449.129 264.72 448.954 264.546 448.739 264.546Z" fill="#3F3D56"/>
<path d="M456.725 264.546H453.512C453.297 264.546 453.122 264.72 453.122 264.933V266.538C453.122 266.752 453.297 266.925 453.512 266.925H456.725C456.941 266.925 457.115 266.752 457.115 266.538V264.933C457.115 264.72 456.941 264.546 456.725 264.546Z" fill="#3F3D56"/>
<path d="M464.712 264.546H461.498C461.283 264.546 461.109 264.72 461.109 264.933V266.538C461.109 266.752 461.283 266.925 461.498 266.925H464.712C464.927 266.925 465.102 266.752 465.102 266.538V264.933C465.102 264.72 464.927 264.546 464.712 264.546Z" fill="#3F3D56"/>
<path d="M472.698 264.546H469.485C469.269 264.546 469.095 264.72 469.095 264.933V266.538C469.095 266.752 469.269 266.925 469.485 266.925H472.698C472.913 266.925 473.088 266.752 473.088 266.538V264.933C473.088 264.72 472.913 264.546 472.698 264.546Z" fill="#3F3D56"/>
<path d="M352.808 268.511H349.595C349.38 268.511 349.205 268.684 349.205 268.898V270.502C349.205 270.716 349.38 270.889 349.595 270.889H352.808C353.024 270.889 353.198 270.716 353.198 270.502V268.898C353.198 268.684 353.024 268.511 352.808 268.511Z" fill="#3F3D56"/>
<path d="M360.795 268.511H357.581C357.366 268.511 357.192 268.684 357.192 268.898V270.502C357.192 270.716 357.366 270.889 357.581 270.889H360.795C361.01 270.889 361.185 270.716 361.185 270.502V268.898C361.185 268.684 361.01 268.511 360.795 268.511Z" fill="#3F3D56"/>
<path d="M368.781 268.511H365.568C365.352 268.511 365.178 268.684 365.178 268.898V270.502C365.178 270.716 365.352 270.889 365.568 270.889H368.781C368.996 270.889 369.171 270.716 369.171 270.502V268.898C369.171 268.684 368.996 268.511 368.781 268.511Z" fill="#3F3D56"/>
<path d="M376.767 268.511H373.554C373.339 268.511 373.164 268.684 373.164 268.898V270.502C373.164 270.716 373.339 270.889 373.554 270.889H376.767C376.983 270.889 377.157 270.716 377.157 270.502V268.898C377.157 268.684 376.983 268.511 376.767 268.511Z" fill="#3F3D56"/>
<path d="M384.754 268.511H381.54C381.325 268.511 381.151 268.684 381.151 268.898V270.502C381.151 270.716 381.325 270.889 381.54 270.889H384.754C384.969 270.889 385.144 270.716 385.144 270.502V268.898C385.144 268.684 384.969 268.511 384.754 268.511Z" fill="#3F3D56"/>
<path d="M392.74 268.511H389.527C389.312 268.511 389.137 268.684 389.137 268.898V270.502C389.137 270.716 389.312 270.889 389.527 270.889H392.74C392.956 270.889 393.13 270.716 393.13 270.502V268.898C393.13 268.684 392.956 268.511 392.74 268.511Z" fill="#3F3D56"/>
<path d="M400.726 268.511H397.513C397.298 268.511 397.123 268.684 397.123 268.898V270.502C397.123 270.716 397.298 270.889 397.513 270.889H400.726C400.942 270.889 401.116 270.716 401.116 270.502V268.898C401.116 268.684 400.942 268.511 400.726 268.511Z" fill="#3F3D56"/>
<path d="M408.713 268.511H405.499C405.284 268.511 405.109 268.684 405.109 268.898V270.502C405.109 270.716 405.284 270.889 405.499 270.889H408.713C408.928 270.889 409.103 270.716 409.103 270.502V268.898C409.103 268.684 408.928 268.511 408.713 268.511Z" fill="#3F3D56"/>
<path d="M416.699 268.511H413.486C413.27 268.511 413.096 268.684 413.096 268.898V270.502C413.096 270.716 413.27 270.889 413.486 270.889H416.699C416.915 270.889 417.089 270.716 417.089 270.502V268.898C417.089 268.684 416.915 268.511 416.699 268.511Z" fill="#3F3D56"/>
<path d="M424.686 268.511H421.472C421.257 268.511 421.082 268.684 421.082 268.898V270.502C421.082 270.716 421.257 270.889 421.472 270.889H424.686C424.901 270.889 425.075 270.716 425.075 270.502V268.898C425.075 268.684 424.901 268.511 424.686 268.511Z" fill="#3F3D56"/>
<path d="M432.672 268.511H429.459C429.243 268.511 429.069 268.684 429.069 268.898V270.502C429.069 270.716 429.243 270.889 429.459 270.889H432.672C432.887 270.889 433.062 270.716 433.062 270.502V268.898C433.062 268.684 432.887 268.511 432.672 268.511Z" fill="#3F3D56"/>
<path d="M440.658 268.511H437.445C437.23 268.511 437.055 268.684 437.055 268.898V270.502C437.055 270.716 437.23 270.889 437.445 270.889H440.658C440.874 270.889 441.048 270.716 441.048 270.502V268.898C441.048 268.684 440.874 268.511 440.658 268.511Z" fill="#3F3D56"/>
<path d="M448.645 268.511H445.431C445.216 268.511 445.041 268.684 445.041 268.898V270.502C445.041 270.716 445.216 270.889 445.431 270.889H448.645C448.86 270.889 449.035 270.716 449.035 270.502V268.898C449.035 268.684 448.86 268.511 448.645 268.511Z" fill="#3F3D56"/>
<path d="M456.631 268.511H453.418C453.202 268.511 453.028 268.684 453.028 268.898V270.502C453.028 270.716 453.202 270.889 453.418 270.889H456.631C456.846 270.889 457.021 270.716 457.021 270.502V268.898C457.021 268.684 456.846 268.511 456.631 268.511Z" fill="#3F3D56"/>
<path d="M464.617 268.511H461.404C461.189 268.511 461.014 268.684 461.014 268.898V270.502C461.014 270.716 461.189 270.889 461.404 270.889H464.617C464.833 270.889 465.007 270.716 465.007 270.502V268.898C465.007 268.684 464.833 268.511 464.617 268.511Z" fill="#3F3D56"/>
<path d="M472.604 268.511H469.39C469.175 268.511 469 268.684 469 268.898V270.502C469 270.716 469.175 270.889 469.39 270.889H472.604C472.819 270.889 472.994 270.716 472.994 270.502V268.898C472.994 268.684 472.819 268.511 472.604 268.511Z" fill="#3F3D56"/>
<path d="M419.095 273.268H387.93C387.714 273.268 387.54 273.441 387.54 273.655V275.26C387.54 275.474 387.714 275.647 387.93 275.647H419.095C419.311 275.647 419.485 275.474 419.485 275.26V273.655C419.485 273.441 419.311 273.268 419.095 273.268Z" fill="#3F3D56"/>
<path d="M503.46 458.027L497.302 448.203L496.072 453.817C495.857 454.8 495.641 455.799 495.441 456.79C493.692 455.308 491.831 453.936 490.011 452.62C484.42 448.592 478.832 444.559 473.247 440.52L474.996 450.59C476.074 456.79 477.201 463.118 479.868 468.787C480.163 469.429 480.483 470.064 480.826 470.682H506.814C507.023 470.108 507.168 469.512 507.245 468.906C507.252 468.867 507.254 468.827 507.253 468.787C507.661 464.941 505.52 461.318 503.46 458.027Z" fill="#F0F0F0"/>
<path d="M152.06 458.027L145.902 448.203L144.672 453.817C144.457 454.8 144.241 455.799 144.042 456.79C142.293 455.308 140.432 453.936 138.611 452.62C133.021 448.592 127.433 444.559 121.847 440.52L123.596 450.59C124.675 456.79 125.801 463.118 128.468 468.787C128.764 469.429 129.083 470.064 129.427 470.682H155.414C155.623 470.108 155.768 469.512 155.846 468.906C155.852 468.867 155.855 468.827 155.853 468.787C156.261 464.941 154.12 461.318 152.06 458.027Z" fill="#F0F0F0"/>
<path d="M646.049 471.756L425.825 472C425.574 471.999 425.332 471.899 425.155 471.723C424.977 471.546 424.877 471.306 424.877 471.056C424.877 470.806 424.977 470.566 425.155 470.389C425.332 470.212 425.574 470.113 425.825 470.112L646.049 469.868C646.301 469.869 646.542 469.969 646.72 470.146C646.897 470.323 646.997 470.562 646.997 470.812C646.997 471.062 646.897 471.302 646.72 471.479C646.542 471.656 646.301 471.756 646.049 471.756Z" fill="#CACACA"/>
<path d="M221.175 471.756L0.950859 472C0.699135 471.999 0.457977 471.899 0.280239 471.723C0.102501 471.546 0.00268555 471.306 0.00268555 471.056C0.00268555 470.806 0.102501 470.566 0.280239 470.389C0.457977 470.212 0.699135 470.113 0.950859 470.112L221.175 469.868C221.426 469.869 221.668 469.969 221.845 470.146C222.023 470.323 222.123 470.562 222.123 470.812C222.123 471.062 222.023 471.302 221.845 471.479C221.668 471.656 221.426 471.756 221.175 471.756Z" fill="#CACACA"/>
<path d="M142.454 33.6229C138.645 34.7488 135.091 31.5851 132.439 28.588L133.382 29.698C127.144 34.059 123.415 41.1633 120.995 48.3549C118.575 55.5386 117.225 63.0632 114.494 70.1437C111.763 77.2164 107.354 84.0591 100.606 87.5875C91.5651 92.3132 80.488 90.1644 70.8724 86.7549C70.7446 86.7074 70.6248 86.6677 70.497 86.6202C74.3915 79.3978 76.7766 71.4688 77.5091 63.309C73.5535 70.9761 67.8488 77.62 60.8495 82.7112C54.5666 79.8756 48.5252 76.5399 42.7844 72.7365C39.0707 70.2706 35.1574 67.0832 34.7261 62.6667C34.2869 58.282 37.5853 54.2779 41.4746 52.1688C45.364 50.0596 49.8363 49.346 54.0851 48.0774C58.3258 46.8167 62.6544 44.7472 64.8826 40.9413C70.0179 32.1877 61.3766 19.8423 66.8872 11.3107C69.6026 7.11632 74.8736 5.43537 79.7612 4.26981C87.2215 2.49819 94.7938 1.22931 102.427 0.471836C109.127 -0.194198 116.051 -0.439994 122.424 1.70083C128.797 3.84165 134.58 8.81312 135.945 15.3625C139.667 17.305 143.604 19.4538 145.601 23.1408C147.597 26.8198 146.487 32.4335 142.454 33.6229Z" fill="#2F2E41"/>
<path d="M136.767 32.1478C133.12 36.6847 131.134 41.591 131.134 44.5293C123.556 58.2798 134.393 70.0909 148.243 77.6143C153.767 80.6308 160.146 81.7348 166.372 80.7522L166.952 78.2964L167.737 80.5085C167.737 80.5085 176.754 110.078 179.729 111.813C178.6 106.55 177.307 82.1847 176.679 77.049C175.809 70.059 178.841 59.6526 181.029 53.3242C182.385 49.424 183.081 45.3276 183.089 41.2014V41.021L185.219 47.8134L192.973 44.5293C191.53 36.3141 192.973 26.9879 175.678 27.7968C166.324 21.4097 158.086 20.4367 151.32 22.2483C150.446 20.9079 145.411 23.4184 143.956 22.7126" fill="#2F2E41"/>
<path d="M522.309 65.5608V210.36C522.308 211.371 521.902 212.34 521.182 213.055C520.462 213.769 519.486 214.172 518.468 214.174H441.623C433.122 206.346 426.148 197.03 421.05 186.692C420.715 186.026 420.396 185.352 420.092 184.67C415.447 174.663 412.635 163.916 411.786 152.93C411.73 152.256 411.682 151.582 411.65 150.9C411.547 149.156 411.499 147.388 411.499 145.612C411.483 133.799 413.73 122.092 418.119 111.113C418.383 110.431 418.662 109.757 418.95 109.083C427.783 88.4777 443.745 71.6862 463.953 61.739H518.468C519.488 61.7412 520.465 62.1448 521.185 62.8613C521.905 63.5777 522.309 64.5486 522.309 65.5608Z" fill="#302D62"/>
<path d="M507.513 81.689H303.603C303.391 81.6844 303.189 81.5976 303.041 81.4471C302.893 81.2966 302.81 81.0945 302.81 80.884C302.81 80.6735 302.893 80.4713 303.041 80.3209C303.189 80.1704 303.391 80.0835 303.603 80.0789H507.513C507.725 80.0835 507.927 80.1704 508.075 80.3209C508.224 80.4713 508.307 80.6735 508.307 80.884C508.307 81.0945 508.224 81.2966 508.075 81.4471C507.927 81.5976 507.725 81.6844 507.513 81.689Z" fill="#CACACA"/>
<path d="M364.52 128.722H339.04C337.127 128.722 335.575 130.262 335.575 132.162V132.162C335.575 134.062 337.127 135.603 339.04 135.603H364.52C366.434 135.603 367.985 134.062 367.985 132.162C367.985 130.262 366.434 128.722 364.52 128.722Z" fill="#302D62"/>
<path d="M380.98 142.484H322.58C320.667 142.484 319.115 144.024 319.115 145.924C319.115 147.824 320.667 149.364 322.58 149.364H380.98C382.894 149.364 384.445 147.824 384.445 145.924C384.445 144.024 382.894 142.484 380.98 142.484Z" fill="#E6E6E6"/>
<path d="M380.98 156.245H322.58C320.667 156.245 319.115 157.785 319.115 159.685V159.685C319.115 161.585 320.667 163.126 322.58 163.126H380.98C382.894 163.126 384.445 161.585 384.445 159.685C384.445 157.785 382.894 156.245 380.98 156.245Z" fill="#E6E6E6"/>
<path d="M324.447 205.872C324.452 208.706 323.944 211.518 322.946 214.174H300.544C299.526 214.172 298.55 213.769 297.83 213.055C297.11 212.34 296.705 211.371 296.703 210.36V182.386C297.954 182.185 299.22 182.085 300.488 182.085C303.635 182.085 306.75 182.7 309.657 183.895C312.564 185.091 315.205 186.843 317.43 189.052C319.655 191.26 321.42 193.883 322.624 196.769C323.828 199.655 324.448 202.748 324.447 205.872Z" fill="#302D62"/>
<path opacity="0.2" d="M522.509 111.113V109.083H488.24V85.5577H486.203V109.083H446.926V85.5577H444.89V109.083H418.95C418.662 109.757 418.383 110.431 418.119 111.113H444.89V150.9H411.65C411.682 151.582 411.73 152.256 411.786 152.93H444.89V184.67H420.092C420.395 185.352 420.715 186.026 421.05 186.692H444.89V213.373H446.926V186.692H486.203V213.373H488.24V186.692H522.509V184.67H488.24V152.93H522.509V150.9H488.24V111.113H522.509ZM486.203 184.67H446.926V152.93H486.203V184.67ZM486.203 150.9H446.926V111.113H486.203V150.9Z" fill="black"/>
<path d="M494.917 199.151C494.48 199.171 494.047 199.057 493.677 198.825C493.308 198.592 493.019 198.253 492.85 197.852C492.681 197.451 492.64 197.008 492.734 196.584C492.827 196.159 493.049 195.774 493.37 195.479L493.516 194.901C493.497 194.855 493.478 194.809 493.458 194.763C493.018 193.73 492.28 192.85 491.337 192.232C490.394 191.614 489.289 191.287 488.159 191.291C487.03 191.295 485.927 191.631 484.989 192.256C484.05 192.88 483.319 193.766 482.886 194.802C481.157 198.936 478.956 203.078 478.414 207.45C478.175 209.382 478.276 211.341 478.712 213.239C474.65 204.444 472.542 194.884 472.528 185.209C472.527 182.781 472.663 180.355 472.935 177.942C473.16 175.964 473.472 174 473.87 172.05C476.047 161.471 480.721 151.554 487.507 143.116C490.792 141.337 493.448 138.6 495.118 135.276C495.723 134.081 496.15 132.806 496.387 131.489C496.017 131.537 495.64 131.567 495.27 131.592C495.154 131.598 495.033 131.604 494.917 131.61L494.874 131.612C494.467 131.63 494.063 131.531 493.711 131.326C493.359 131.122 493.074 130.821 492.891 130.459C492.707 130.098 492.633 129.692 492.677 129.289C492.721 128.887 492.88 128.506 493.137 128.191C493.297 127.996 493.457 127.801 493.618 127.605C493.861 127.304 494.11 127.008 494.353 126.707C494.381 126.678 494.407 126.648 494.431 126.616C494.711 126.273 494.99 125.935 495.27 125.591C494.76 124.805 494.074 124.147 493.265 123.667C490.465 122.039 486.602 123.167 484.579 125.682C482.55 128.196 482.168 131.724 482.872 134.866C483.565 137.54 484.711 140.076 486.262 142.368C486.11 142.561 485.952 142.748 485.8 142.941C483.024 146.485 480.605 150.29 478.577 154.303C479.07 149.808 478.481 145.26 476.859 141.035C475.215 137.098 472.133 133.781 469.42 130.377C466.16 126.289 459.476 128.073 458.902 133.256C458.896 133.306 458.891 133.357 458.885 133.407C459.288 133.632 459.683 133.872 460.069 134.126C460.554 134.447 460.93 134.907 461.147 135.444C461.365 135.982 461.413 136.572 461.287 137.137C461.161 137.702 460.866 138.217 460.44 138.613C460.015 139.009 459.478 139.268 458.902 139.356L458.843 139.365C458.987 140.807 459.24 142.236 459.602 143.64C460.651 147.56 462.504 151.223 465.045 154.398C467.585 157.573 470.76 160.194 474.368 162.094C474.605 162.214 474.836 162.335 475.073 162.45C473.035 168.183 471.757 174.155 471.271 180.216C470.995 183.791 471.012 187.383 471.319 190.956L471.301 190.829C470.524 186.856 468.389 183.271 465.257 180.68C460.606 176.887 454.035 175.49 449.017 172.441C448.484 172.101 447.864 171.92 447.23 171.918C446.597 171.917 445.976 172.095 445.441 172.432C444.906 172.77 444.479 173.252 444.211 173.822C443.943 174.392 443.845 175.026 443.929 175.65C443.935 175.694 443.942 175.739 443.949 175.783C444.697 176.086 445.425 176.434 446.13 176.826C446.533 177.052 446.927 177.292 447.313 177.545C447.798 177.867 448.174 178.327 448.392 178.864C448.609 179.401 448.658 179.991 448.531 180.557C448.405 181.122 448.11 181.636 447.684 182.032C447.259 182.428 446.723 182.687 446.146 182.776L446.087 182.785C446.045 182.791 446.008 182.797 445.966 182.803C447.244 185.832 449.038 188.621 451.268 191.046C454.024 193.982 457.355 196.329 461.057 197.941C464.759 199.554 468.753 200.398 472.795 200.424H472.801C473.899 205.158 475.489 209.766 477.545 214.174H494.492C494.553 213.987 494.608 213.794 494.662 213.607C493.094 213.704 491.519 213.611 489.973 213.329C491.23 211.797 492.488 210.254 493.745 208.722C493.773 208.693 493.8 208.663 493.824 208.631C494.462 207.847 495.106 207.07 495.743 206.286L495.744 206.285C495.778 203.882 495.5 201.484 494.917 199.151L494.917 199.151ZM475.51 161.25L475.519 161.238L475.51 161.262V161.25ZM471.757 194.846L471.611 194.52C471.617 194.285 471.617 194.05 471.611 193.808C471.611 193.742 471.599 193.676 471.599 193.609C471.653 194.026 471.702 194.442 471.763 194.858L471.757 194.846Z" fill="#279D13"/>
</g>
<defs>
<clipPath id="clip0_785_658">
<rect width="647" height="472" fill="white"/>
</clipPath>
</defs>
</svg>
