<svg width="581" height="521" fill="none" xmlns="http://www.w3.org/2000/svg"><g clip-path="url(#a)"><path d="m297.549 1.136-18.905 4.87-232.91 60.012-18.905 4.871A35.79 35.79 0 0 0 4.98 87.337a35.736 35.736 0 0 0-3.842 27.064l81.975 317.61a35.77 35.77 0 0 0 16.461 21.833 35.825 35.825 0 0 0 27.087 3.838l.049-.013 270.622-69.728.049-.013a35.788 35.788 0 0 0 21.851-16.448 35.736 35.736 0 0 0 3.841-27.063l-81.975-317.61a35.765 35.765 0 0 0-16.461-21.833 35.82 35.82 0 0 0-27.087-3.838z" fill="#F2F2F2"/><path d="m300.119 11.094-22.391 5.769L51.79 75.078l-22.39 5.77A25.487 25.487 0 0 0 13.838 92.56a25.448 25.448 0 0 0-2.736 19.273l81.975 317.61a25.469 25.469 0 0 0 11.723 15.547 25.503 25.503 0 0 0 19.289 2.734l.049-.013 270.622-69.728.049-.013a25.489 25.489 0 0 0 15.56-11.713 25.45 25.45 0 0 0 2.736-19.273l-81.975-317.61a25.47 25.47 0 0 0-11.723-15.547 25.507 25.507 0 0 0-19.289-2.733z" fill="#fff"/><path d="m283.212 113.944-136.901 35.274a5.957 5.957 0 0 1-7.252-4.275 5.947 5.947 0 0 1 4.278-7.246l136.901-35.274a5.961 5.961 0 0 1 4.51.64 5.948 5.948 0 0 1-1.536 10.881zM312.011 127.258 151.329 168.66a5.951 5.951 0 0 1-6.615-8.784 5.954 5.954 0 0 1 3.641-2.737l160.683-41.402a5.957 5.957 0 0 1 7.252 4.275 5.946 5.946 0 0 1-4.279 7.246zM305.699 201.07l-136.901 35.273a5.925 5.925 0 0 1-2.319.13 5.944 5.944 0 0 1-4.933-4.404 5.958 5.958 0 0 1 .637-4.509 5.958 5.958 0 0 1 3.642-2.737l136.9-35.274a5.97 5.97 0 0 1 4.513.637 5.957 5.957 0 0 1 2.74 3.638 5.953 5.953 0 0 1-.638 4.508 5.946 5.946 0 0 1-3.641 2.738zM334.498 214.383l-160.682 41.402a5.968 5.968 0 0 1-4.512-.637 5.943 5.943 0 0 1-2.103-8.147 5.955 5.955 0 0 1 3.641-2.737l160.683-41.402a5.957 5.957 0 0 1 7.252 4.275 5.946 5.946 0 0 1-4.279 7.246zM328.186 288.196l-136.901 35.273a5.95 5.95 0 0 1-6.612-8.782 5.956 5.956 0 0 1 3.638-2.738l136.901-35.274a5.957 5.957 0 0 1 7.252 4.275 5.952 5.952 0 0 1-4.278 7.246zM356.985 301.509l-160.682 41.402a5.974 5.974 0 0 1-4.515-.635 5.94 5.94 0 0 1-2.742-3.639 5.938 5.938 0 0 1 2.188-6.241 5.942 5.942 0 0 1 2.095-1.006l160.683-41.402a5.957 5.957 0 0 1 7.252 4.275 5.946 5.946 0 0 1-4.279 7.246z" fill="#F2F2F2"/><path d="m122.94 185.386-48.448 12.483a2.861 2.861 0 0 1-3.477-2.049l-11.121-43.089a2.853 2.853 0 0 1 2.051-3.475l48.448-12.483a2.858 2.858 0 0 1 3.477 2.05l11.121 43.089a2.852 2.852 0 0 1-2.051 3.474zM145.427 272.512l-48.448 12.483a2.854 2.854 0 0 1-3.477-2.05L82.38 239.857a2.853 2.853 0 0 1 2.052-3.475l48.448-12.483a2.858 2.858 0 0 1 3.477 2.05l11.122 43.089a2.858 2.858 0 0 1-2.052 3.474zM167.914 359.637l-48.448 12.483a2.854 2.854 0 0 1-3.477-2.049l-11.121-43.089a2.852 2.852 0 0 1 2.051-3.475l48.448-12.483a2.858 2.858 0 0 1 3.477 2.05l11.122 43.089a2.853 2.853 0 0 1-2.052 3.474zM486.362 81.645H206.786a35.81 35.81 0 0 0-25.27 10.475 35.746 35.746 0 0 0-10.483 25.248v328.001a35.747 35.747 0 0 0 10.483 25.248 35.808 35.808 0 0 0 25.27 10.475h279.576a35.808 35.808 0 0 0 25.27-10.475 35.747 35.747 0 0 0 10.483-25.248V117.368a35.746 35.746 0 0 0-10.483-25.248 35.81 35.81 0 0 0-25.27-10.475z" fill="#E6E6E6"/><path d="M486.362 91.93H206.786a25.5 25.5 0 0 0-17.995 7.459 25.46 25.46 0 0 0-7.466 17.98V445.37a25.459 25.459 0 0 0 7.466 17.979 25.503 25.503 0 0 0 17.995 7.46h279.576a25.502 25.502 0 0 0 17.995-7.46 25.459 25.459 0 0 0 7.466-17.979V117.369a25.459 25.459 0 0 0-7.466-17.98 25.499 25.499 0 0 0-17.995-7.46z" fill="#fff"/><path d="M515.734 521C551.78 521 581 491.805 581 455.79c0-36.015-29.22-65.211-65.266-65.211-36.046 0-65.266 29.196-65.266 65.211S479.688 521 515.734 521z" fill="#F40638"/><path d="M546.948 447.283h-22.701v-22.682a8.5 8.5 0 0 0-2.494-6.014 8.514 8.514 0 0 0-12.039 0 8.504 8.504 0 0 0-2.493 6.014v22.682h-22.702a8.517 8.517 0 0 0-6.019 2.492 8.499 8.499 0 0 0 0 12.029 8.516 8.516 0 0 0 6.019 2.491h22.702v22.682c0 2.256.897 4.419 2.493 6.014a8.52 8.52 0 0 0 12.039 0 8.499 8.499 0 0 0 2.494-6.014v-22.682h22.701a8.506 8.506 0 0 0 8.513-8.506 8.502 8.502 0 0 0-2.493-6.014 8.52 8.52 0 0 0-6.02-2.492z" fill="#fff"/><path d="M444.286 272.165h-141.38a5.951 5.951 0 0 1-5.507-8.227c.3-.722.739-1.378 1.293-1.93a5.947 5.947 0 0 1 4.214-1.74h141.38a5.952 5.952 0 0 1 5.947 5.948 5.945 5.945 0 0 1-1.742 4.205 5.956 5.956 0 0 1-4.205 1.744zM468.845 292.242H302.906a5.951 5.951 0 0 1-5.507-8.227 5.943 5.943 0 0 1 3.226-3.219 5.951 5.951 0 0 1 2.281-.451h165.939a5.954 5.954 0 0 1 5.954 5.949 5.954 5.954 0 0 1-5.954 5.948zM444.286 362.142h-141.38a5.96 5.96 0 0 1-5.507-3.671 5.955 5.955 0 0 1 0-4.556 5.958 5.958 0 0 1 5.507-3.671h141.38a5.956 5.956 0 0 1 5.954 5.949 5.956 5.956 0 0 1-5.954 5.949zM468.845 382.219H302.906a5.951 5.951 0 0 1-5.507-8.227 5.958 5.958 0 0 1 5.507-3.671h165.939a5.967 5.967 0 0 1 4.215 1.74 5.936 5.936 0 0 1 1.292 6.487 5.971 5.971 0 0 1-1.292 1.931 5.948 5.948 0 0 1-4.215 1.74zM271.236 301.357h-50.033a2.86 2.86 0 0 1-2.855-2.853v-44.498a2.855 2.855 0 0 1 2.855-2.853h50.033a2.86 2.86 0 0 1 2.855 2.853v44.498a2.857 2.857 0 0 1-2.855 2.853zM271.236 391.333h-50.033a2.859 2.859 0 0 1-2.855-2.852v-44.499a2.857 2.857 0 0 1 2.855-2.852h50.033a2.857 2.857 0 0 1 2.855 2.852v44.499a2.857 2.857 0 0 1-2.855 2.852z" fill="#E6E6E6"/><path d="M444.443 172.005H340.209a5.95 5.95 0 0 1-5.954-5.949 5.956 5.956 0 0 1 5.954-5.949h104.234a5.956 5.956 0 0 1 5.954 5.949 5.95 5.95 0 0 1-5.954 5.949zM469.003 192.082H340.209a5.954 5.954 0 0 1-5.954-5.949c0-.781.154-1.554.454-2.276a5.935 5.935 0 0 1 3.222-3.22 5.953 5.953 0 0 1 2.278-.452h128.794a5.949 5.949 0 1 1 0 11.897z" fill="#CCC"/><path d="M317.141 216.413h-96.095a2.857 2.857 0 0 1-2.855-2.853v-74.932a2.857 2.857 0 0 1 2.855-2.853h96.095a2.857 2.857 0 0 1 2.854 2.853v74.932a2.857 2.857 0 0 1-2.854 2.853z" fill="#F40638"/></g><defs><clipPath id="a"><path fill="#fff" d="M0 0h581v521H0z"/></clipPath></defs></svg>