<svg width="581" height="521" viewBox="0 0 581 521" fill="none" xmlns="http://www.w3.org/2000/svg">
<g clip-path="url(#clip0_796_1240)">
<path d="M297.549 1.13573L278.644 6.00671L45.734 66.0184L26.8293 70.8894C17.6531 73.2647 9.79474 79.1799 4.97811 87.3371C0.161479 95.4942 -1.22002 105.227 1.1367 114.401L83.1117 432.011C85.4891 441.179 91.4092 449.031 99.5734 453.844C107.737 458.656 117.479 460.036 126.66 457.682L126.709 457.669L397.331 387.941L397.38 387.928C406.556 385.553 414.414 379.638 419.231 371.48C424.047 363.323 425.429 353.59 423.072 344.417L341.097 26.8066C338.72 17.6382 332.8 9.7865 324.636 4.97394C316.471 0.16138 306.73 -1.21897 297.549 1.13573Z" fill="#F2F2F2"/>
<path d="M300.119 11.0936L277.728 16.863L51.7905 75.0781L29.3995 80.8474C22.865 82.5389 17.2688 86.7512 13.8388 92.5601C10.4087 98.369 9.42489 105.3 11.1032 111.833L93.0782 429.443C94.7712 435.972 98.9871 441.563 104.801 444.99C110.615 448.418 117.552 449.401 124.09 447.724L124.139 447.711L394.761 377.983L394.81 377.97C401.344 376.278 406.94 372.066 410.37 366.257C413.8 360.448 414.784 353.517 413.106 346.984L331.131 29.3744C329.438 22.8455 325.222 17.2542 319.408 13.827C313.595 10.3999 306.658 9.41686 300.119 11.0936Z" fill="white"/>
<path d="M283.212 113.944L146.311 149.218C144.782 149.612 143.159 149.383 141.799 148.581C140.439 147.78 139.453 146.471 139.059 144.943C138.665 143.416 138.894 141.794 139.696 140.435C140.499 139.076 141.808 138.091 143.337 137.697L280.238 102.423C281.767 102.031 283.389 102.261 284.748 103.063C286.107 103.865 287.091 105.173 287.485 106.7C287.879 108.227 287.651 109.847 286.849 111.206C286.048 112.564 284.74 113.549 283.212 113.944Z" fill="#F2F2F2"/>
<path d="M312.011 127.258L151.329 168.66C149.8 169.054 148.177 168.824 146.817 168.023C145.457 167.221 144.471 165.912 144.077 164.385C143.682 162.857 143.912 161.235 144.714 159.876C145.516 158.518 146.826 157.533 148.355 157.139L309.038 115.737C310.567 115.343 312.19 115.572 313.55 116.374C314.91 117.176 315.896 118.484 316.29 120.012C316.684 121.54 316.455 123.162 315.653 124.52C314.85 125.879 313.54 126.864 312.011 127.258Z" fill="#F2F2F2"/>
<path d="M305.699 201.07L168.798 236.343C168.041 236.539 167.253 236.583 166.479 236.473C165.704 236.364 164.959 236.104 164.286 235.707C163.613 235.31 163.024 234.784 162.554 234.16C162.084 233.536 161.741 232.825 161.546 232.069C161.351 231.312 161.307 230.525 161.416 229.751C161.525 228.978 161.786 228.233 162.183 227.56C162.581 226.887 163.107 226.299 163.731 225.83C164.356 225.36 165.067 225.018 165.825 224.823L302.725 189.549C303.483 189.354 304.271 189.31 305.045 189.419C305.819 189.528 306.564 189.789 307.238 190.186C307.911 190.583 308.5 191.108 308.97 191.732C309.44 192.357 309.782 193.067 309.978 193.824C310.173 194.58 310.217 195.368 310.108 196.141C309.998 196.915 309.737 197.659 309.34 198.332C308.943 199.005 308.417 199.593 307.792 200.063C307.167 200.532 306.456 200.874 305.699 201.07Z" fill="#F2F2F2"/>
<path d="M334.498 214.383L173.816 255.785C173.059 255.98 172.27 256.024 171.496 255.915C170.722 255.805 169.977 255.545 169.304 255.148C168.63 254.751 168.042 254.225 167.571 253.601C167.101 252.977 166.759 252.266 166.564 251.51C166.368 250.753 166.324 249.966 166.434 249.192C166.543 248.419 166.804 247.674 167.201 247.001C167.598 246.329 168.124 245.741 168.749 245.271C169.374 244.801 170.085 244.459 170.842 244.264L331.525 202.862C333.054 202.468 334.677 202.697 336.037 203.499C337.397 204.301 338.383 205.609 338.777 207.137C339.171 208.665 338.942 210.287 338.14 211.645C337.337 213.004 336.027 213.989 334.498 214.383Z" fill="#F2F2F2"/>
<path d="M328.186 288.196L191.285 323.469C189.756 323.862 188.134 323.632 186.775 322.831C185.416 322.029 184.431 320.721 184.037 319.194C183.643 317.667 183.872 316.046 184.673 314.687C185.475 313.329 186.783 312.344 188.311 311.949L325.212 276.675C326.741 276.281 328.364 276.51 329.724 277.312C331.084 278.113 332.07 279.422 332.464 280.95C332.859 282.477 332.629 284.099 331.827 285.458C331.025 286.817 329.715 287.802 328.186 288.196Z" fill="#F2F2F2"/>
<path d="M356.985 301.509L196.303 342.911C195.545 343.106 194.757 343.151 193.982 343.042C193.207 342.934 192.462 342.673 191.788 342.276C191.114 341.88 190.525 341.354 190.054 340.729C189.584 340.105 189.241 339.394 189.046 338.637C188.85 337.88 188.806 337.092 188.916 336.318C189.025 335.544 189.286 334.8 189.684 334.126C190.082 333.453 190.609 332.865 191.234 332.396C191.86 331.926 192.571 331.584 193.329 331.39L354.012 289.988C355.541 289.594 357.164 289.823 358.524 290.625C359.884 291.427 360.87 292.735 361.264 294.263C361.658 295.791 361.429 297.413 360.627 298.771C359.824 300.13 358.514 301.115 356.985 301.509Z" fill="#F2F2F2"/>
<path d="M122.94 185.386L74.492 197.869C73.7588 198.057 72.981 197.947 72.3291 197.563C71.6772 197.179 71.2045 196.552 71.0147 195.82L59.8935 152.731C59.7053 151.998 59.8156 151.221 60.2002 150.57C60.5848 149.918 61.2123 149.446 61.945 149.256L110.393 136.773C111.126 136.585 111.904 136.695 112.556 137.08C113.208 137.464 113.68 138.091 113.87 138.823L124.991 181.912C125.18 182.644 125.069 183.422 124.685 184.073C124.3 184.724 123.673 185.197 122.94 185.386Z" fill="#E6E6E6"/>
<path d="M145.427 272.512L96.9791 284.995C96.2459 285.183 95.4681 285.073 94.8161 284.689C94.1642 284.305 93.6915 283.678 93.5017 282.945L82.3805 239.857C82.1923 239.124 82.3027 238.347 82.6873 237.696C83.0719 237.044 83.6994 236.572 84.4321 236.382L132.88 223.899C133.613 223.711 134.391 223.821 135.043 224.206C135.695 224.59 136.168 225.217 136.357 225.949L147.479 269.038C147.667 269.77 147.556 270.547 147.172 271.199C146.787 271.85 146.16 272.322 145.427 272.512Z" fill="#E6E6E6"/>
<path d="M167.914 359.637L119.466 372.12C118.733 372.308 117.955 372.198 117.303 371.814C116.651 371.43 116.179 370.803 115.989 370.071L104.868 326.982C104.679 326.249 104.79 325.472 105.174 324.821C105.559 324.169 106.186 323.697 106.919 323.507L155.367 311.024C156.1 310.836 156.878 310.946 157.53 311.331C158.182 311.715 158.655 312.342 158.844 313.074L169.966 356.163C170.154 356.895 170.044 357.673 169.659 358.324C169.274 358.975 168.647 359.447 167.914 359.637Z" fill="#E6E6E6"/>
<path d="M486.362 81.6455H206.786C197.307 81.6562 188.219 85.4233 181.516 92.1203C174.814 98.8173 171.043 107.897 171.033 117.368V445.369C171.043 454.84 174.814 463.92 181.516 470.617C188.219 477.314 197.307 481.082 206.786 481.092H486.362C495.841 481.082 504.929 477.314 511.632 470.617C518.334 463.92 522.105 454.84 522.115 445.369V117.368C522.105 107.897 518.334 98.8173 511.632 92.1203C504.929 85.4233 495.841 81.6562 486.362 81.6455Z" fill="#E6E6E6"/>
<path d="M486.362 91.9297H206.786C200.036 91.9372 193.564 94.6199 188.791 99.389C184.018 104.158 181.333 110.624 181.325 117.369V445.37C181.333 452.114 184.018 458.58 188.791 463.349C193.564 468.118 200.036 470.801 206.786 470.809H486.362C493.113 470.801 499.584 468.118 504.357 463.349C509.13 458.58 511.815 452.114 511.823 445.37V117.369C511.815 110.624 509.13 104.158 504.357 99.3891C499.584 94.62 493.113 91.9373 486.362 91.9297Z" fill="white"/>
<path d="M515.734 521C551.78 521 581 491.805 581 455.79C581 419.775 551.78 390.579 515.734 390.579C479.688 390.579 450.468 419.775 450.468 455.79C450.468 491.805 479.688 521 515.734 521Z" fill="#F40638"/>
<path d="M546.948 447.283H524.247V424.601C524.247 422.346 523.35 420.182 521.753 418.587C520.157 416.992 517.992 416.096 515.734 416.096C513.476 416.096 511.311 416.992 509.714 418.587C508.118 420.182 507.221 422.346 507.221 424.601V447.283H484.519C482.262 447.283 480.096 448.18 478.5 449.775C476.903 451.37 476.006 453.533 476.006 455.789C476.006 458.045 476.903 460.208 478.5 461.804C480.096 463.399 482.262 464.295 484.519 464.295H507.221V486.977C507.221 489.233 508.118 491.396 509.714 492.991C511.311 494.586 513.476 495.483 515.734 495.483C517.992 495.483 520.157 494.586 521.753 492.991C523.35 491.396 524.247 489.233 524.247 486.977V464.295H546.948C549.206 464.295 551.371 463.399 552.968 461.804C554.564 460.208 555.461 458.045 555.461 455.789C555.461 453.533 554.564 451.37 552.968 449.775C551.371 448.18 549.206 447.283 546.948 447.283Z" fill="white"/>
<path d="M444.286 272.165H302.906C302.123 272.166 301.349 272.013 300.625 271.714C299.902 271.416 299.245 270.978 298.692 270.425C298.138 269.873 297.699 269.217 297.399 268.494C297.1 267.772 296.945 266.998 296.945 266.216C296.945 265.435 297.1 264.661 297.399 263.938C297.699 263.216 298.138 262.56 298.692 262.008C299.245 261.455 299.902 261.017 300.625 260.718C301.349 260.42 302.123 260.267 302.906 260.268H444.286C445.864 260.269 447.376 260.897 448.491 262.012C449.607 263.128 450.233 264.64 450.233 266.216C450.233 267.793 449.607 269.305 448.491 270.421C447.376 271.536 445.864 272.163 444.286 272.165Z" fill="#E6E6E6"/>
<path d="M468.845 292.242H302.906C302.123 292.243 301.349 292.09 300.625 291.791C299.902 291.493 299.245 291.055 298.692 290.502C298.138 289.95 297.699 289.294 297.399 288.572C297.1 287.849 296.945 287.075 296.945 286.294C296.945 285.512 297.1 284.738 297.399 284.015C297.699 283.293 298.138 282.637 298.692 282.085C299.245 281.532 299.902 281.094 300.625 280.796C301.349 280.497 302.123 280.344 302.906 280.345H468.845C470.424 280.345 471.939 280.971 473.055 282.087C474.172 283.203 474.799 284.716 474.799 286.294C474.799 287.871 474.172 289.384 473.055 290.5C471.939 291.616 470.424 292.242 468.845 292.242Z" fill="#E6E6E6"/>
<path d="M444.286 362.142H302.906C302.123 362.143 301.349 361.989 300.625 361.691C299.902 361.392 299.245 360.954 298.692 360.402C298.138 359.849 297.699 359.193 297.399 358.471C297.1 357.749 296.945 356.975 296.945 356.193C296.945 355.411 297.1 354.637 297.399 353.915C297.699 353.193 298.138 352.537 298.692 351.984C299.245 351.432 299.902 350.994 300.625 350.695C301.349 350.397 302.123 350.243 302.906 350.244H444.286C445.865 350.244 447.379 350.871 448.496 351.987C449.612 353.102 450.24 354.615 450.24 356.193C450.24 357.771 449.612 359.284 448.496 360.399C447.379 361.515 445.865 362.142 444.286 362.142Z" fill="#E6E6E6"/>
<path d="M468.845 382.219H302.906C302.123 382.22 301.349 382.067 300.625 381.768C299.902 381.469 299.245 381.031 298.692 380.479C298.138 379.926 297.699 379.27 297.399 378.548C297.1 377.826 296.945 377.052 296.945 376.27C296.945 375.488 297.1 374.714 297.399 373.992C297.699 373.27 298.138 372.614 298.692 372.061C299.245 371.509 299.902 371.071 300.625 370.772C301.349 370.474 302.123 370.32 302.906 370.321H468.845C469.628 370.32 470.403 370.474 471.126 370.772C471.849 371.071 472.506 371.509 473.06 372.061C473.613 372.614 474.052 373.27 474.352 373.992C474.652 374.714 474.806 375.488 474.806 376.27C474.806 377.052 474.652 377.826 474.352 378.548C474.052 379.27 473.613 379.926 473.06 380.479C472.506 381.031 471.849 381.469 471.126 381.768C470.403 382.067 469.628 382.22 468.845 382.219Z" fill="#E6E6E6"/>
<path d="M271.236 301.357H221.203C220.446 301.356 219.72 301.055 219.185 300.52C218.65 299.985 218.349 299.26 218.348 298.504V254.006C218.349 253.25 218.65 252.524 219.185 251.99C219.72 251.455 220.446 251.154 221.203 251.153H271.236C271.993 251.154 272.719 251.455 273.254 251.99C273.789 252.524 274.09 253.25 274.091 254.006V298.504C274.09 299.26 273.789 299.985 273.254 300.52C272.719 301.055 271.993 301.356 271.236 301.357Z" fill="#E6E6E6"/>
<path d="M271.236 391.333H221.203C220.446 391.332 219.72 391.032 219.185 390.497C218.65 389.962 218.349 389.237 218.348 388.481V343.982C218.349 343.226 218.65 342.501 219.185 341.966C219.72 341.432 220.446 341.131 221.203 341.13H271.236C271.993 341.131 272.719 341.432 273.254 341.966C273.789 342.501 274.09 343.226 274.091 343.982V388.481C274.09 389.237 273.789 389.962 273.254 390.497C272.719 391.032 271.993 391.332 271.236 391.333Z" fill="#E6E6E6"/>
<path d="M444.443 172.005H340.209C338.63 172.005 337.116 171.378 335.999 170.263C334.883 169.147 334.255 167.634 334.255 166.056C334.255 164.479 334.883 162.965 335.999 161.85C337.116 160.734 338.63 160.107 340.209 160.107H444.443C446.022 160.107 447.536 160.734 448.653 161.85C449.769 162.965 450.397 164.479 450.397 166.056C450.397 167.634 449.769 169.147 448.653 170.263C447.536 171.378 446.022 172.005 444.443 172.005Z" fill="#CCCCCC"/>
<path d="M469.003 192.082H340.209C339.427 192.082 338.653 191.928 337.931 191.629C337.208 191.33 336.552 190.892 335.999 190.34C335.446 189.787 335.008 189.132 334.709 188.41C334.409 187.688 334.255 186.915 334.255 186.133C334.255 185.352 334.409 184.579 334.709 183.857C335.008 183.135 335.446 182.479 335.999 181.927C336.552 181.375 337.208 180.936 337.931 180.637C338.653 180.338 339.427 180.185 340.209 180.185H469.003C470.582 180.185 472.096 180.811 473.213 181.927C474.329 183.043 474.956 184.556 474.956 186.133C474.956 187.711 474.329 189.224 473.213 190.34C472.096 191.455 470.582 192.082 469.003 192.082Z" fill="#CCCCCC"/>
<path d="M317.141 216.413H221.046C220.289 216.412 219.564 216.111 219.029 215.576C218.493 215.042 218.192 214.316 218.191 213.56V138.628C218.192 137.872 218.493 137.147 219.029 136.612C219.564 136.077 220.289 135.776 221.046 135.775H317.141C317.898 135.776 318.623 136.077 319.158 136.612C319.694 137.147 319.995 137.872 319.995 138.628V213.56C319.995 214.316 319.694 215.042 319.158 215.576C318.623 216.111 317.898 216.412 317.141 216.413Z" fill="#F40638"/>
</g>
<defs>
<clipPath id="clip0_796_1240">
<rect width="581" height="521" fill="white"/>
</clipPath>
</defs>
</svg>
