<svg width="662" height="512" viewBox="0 0 662 512" fill="none" xmlns="http://www.w3.org/2000/svg">
<g clip-path="url(#clip0_789_1172)">
<path d="M599.188 489.85H62.8117C53.4197 489.85 44.1474 487.742 35.6775 483.681C27.2077 479.62 19.7561 473.71 13.8715 466.386C7.98691 459.061 3.81923 450.51 1.67539 441.36C-0.468456 432.21 -0.533845 422.696 1.48402 413.518L25.4423 304.553H636.558L660.516 413.518C662.534 422.696 662.468 432.21 660.324 441.36C658.181 450.51 654.013 459.061 648.128 466.386C642.244 473.71 634.792 479.62 626.322 483.681C617.852 487.742 608.58 489.85 599.188 489.85ZM26.9159 306.387L3.27453 413.912C1.31564 422.822 1.37916 432.059 3.46044 440.941C5.54171 449.824 9.58773 458.126 15.3005 465.236C21.0133 472.347 28.2473 478.084 36.4698 482.027C44.6923 485.969 53.6939 488.016 62.8116 488.016H599.188C608.306 488.016 617.307 485.969 625.53 482.027C633.753 478.084 640.987 472.347 646.699 465.236C652.412 458.126 656.458 449.824 658.539 440.941C660.621 432.059 660.684 422.822 658.725 413.912L635.084 306.387H26.9159Z" fill="#F2F2F2"/>
<path d="M531.081 71.8978L559.217 67.7021L554.773 48.1182L537.904 56.6186L503.104 43.4949C502.608 42.2139 501.75 41.105 500.635 40.3033C499.521 39.5016 498.197 39.0417 496.825 38.9798C495.454 38.918 494.094 39.2567 492.912 39.9547C491.729 40.6528 490.775 41.68 490.166 42.9111C489.557 44.1422 489.319 45.524 489.482 46.8881C489.644 48.2522 490.199 49.5395 491.08 50.5932C491.961 51.6468 493.129 52.4213 494.442 52.8221C495.755 53.223 497.157 53.2329 498.475 52.8506L531.081 71.8978Z" fill="#FFB6B6"/>
<path d="M588.267 57.2574C586.092 65.5085 535.968 74.8156 535.993 73.0306C536.064 67.9573 539.287 57.3124 537.447 54.5508C536.394 52.9714 550.568 48.9359 550.568 48.9359C550.568 48.9359 558.391 45.9229 568.533 42.2457C571.381 41.1529 574.459 40.7989 577.481 41.2166C580.502 41.6343 583.369 42.8102 585.814 44.6348C585.814 44.6348 590.442 49.0063 588.267 57.2574Z" fill="#F40638"/>
<path d="M103.38 400.867H85.9613C82.0711 400.867 78.3402 402.413 75.5894 405.165C72.8386 407.918 71.2932 411.651 71.2932 415.544C71.2932 419.436 72.8386 423.169 75.5894 425.922C78.3402 428.674 82.0711 430.221 85.9613 430.221H103.38C107.27 430.221 111.001 428.674 113.752 425.922C116.502 423.169 118.048 419.436 118.048 415.544C118.048 411.651 116.502 407.918 113.752 405.165C111.001 402.413 107.27 400.867 103.38 400.867Z" fill="#DADADA"/>
<path d="M159.302 400.867H141.883C137.993 400.867 134.262 402.413 131.512 405.165C128.761 407.918 127.215 411.651 127.215 415.544C127.215 419.436 128.761 423.169 131.512 425.922C134.262 428.674 137.993 430.221 141.883 430.221H159.302C163.192 430.221 166.923 428.674 169.674 425.922C172.424 423.169 173.97 419.436 173.97 415.544C173.97 411.651 172.424 407.918 169.674 405.165C166.923 402.413 163.192 400.867 159.302 400.867Z" fill="#DADADA"/>
<path d="M215.224 400.867H197.805C193.915 400.867 190.184 402.413 187.433 405.165C184.683 407.918 183.137 411.651 183.137 415.544C183.137 419.436 184.683 423.169 187.433 425.922C190.184 428.674 193.915 430.221 197.805 430.221H215.224C219.114 430.221 222.845 428.674 225.596 425.922C228.346 423.169 229.892 419.436 229.892 415.544C229.892 411.651 228.346 407.918 225.596 405.165C222.845 402.413 219.114 400.867 215.224 400.867Z" fill="#DADADA"/>
<path d="M271.146 400.867H253.727C249.837 400.867 246.106 402.413 243.356 405.165C240.605 407.918 239.059 411.651 239.059 415.544C239.059 419.436 240.605 423.169 243.356 425.922C246.106 428.674 249.837 430.221 253.727 430.221H271.146C275.036 430.221 278.767 428.674 281.518 425.922C284.268 423.169 285.814 419.436 285.814 415.544C285.814 411.651 284.268 407.918 281.518 405.165C278.767 402.413 275.036 400.867 271.146 400.867Z" fill="#DADADA"/>
<path d="M327.068 400.867H309.649C305.759 400.867 302.028 402.413 299.277 405.165C296.527 407.918 294.981 411.651 294.981 415.544C294.981 419.436 296.527 423.169 299.277 425.922C302.028 428.674 305.759 430.221 309.649 430.221H327.068C330.958 430.221 334.689 428.674 337.44 425.922C340.19 423.169 341.736 419.436 341.736 415.544C341.736 411.651 340.19 407.918 337.44 405.165C334.689 402.413 330.958 400.867 327.068 400.867Z" fill="#DADADA"/>
<path d="M382.99 400.867H365.571C361.681 400.867 357.95 402.413 355.199 405.165C352.449 407.918 350.903 411.651 350.903 415.544C350.903 419.436 352.449 423.169 355.199 425.922C357.95 428.674 361.681 430.221 365.571 430.221H382.99C386.88 430.221 390.611 428.674 393.362 425.922C396.112 423.169 397.658 419.436 397.658 415.544C397.658 411.651 396.112 407.918 393.362 405.165C390.611 402.413 386.88 400.867 382.99 400.867Z" fill="#DADADA"/>
<path d="M438.912 400.867H421.493C417.603 400.867 413.872 402.413 411.121 405.165C408.371 407.918 406.825 411.651 406.825 415.544C406.825 419.436 408.371 423.169 411.121 425.922C413.872 428.674 417.603 430.221 421.493 430.221H438.912C442.802 430.221 446.533 428.674 449.284 425.922C452.034 423.169 453.58 419.436 453.58 415.544C453.58 411.651 452.034 407.918 449.284 405.165C446.533 402.413 442.802 400.867 438.912 400.867Z" fill="#DADADA"/>
<path d="M494.834 400.867H477.415C473.525 400.867 469.794 402.413 467.043 405.165C464.293 407.918 462.747 411.651 462.747 415.544C462.747 419.436 464.293 423.169 467.043 425.922C469.794 428.674 473.525 430.221 477.415 430.221H494.834C498.724 430.221 502.455 428.674 505.206 425.922C507.956 423.169 509.502 419.436 509.502 415.544C509.502 411.651 507.956 407.918 505.206 405.165C502.455 402.413 498.724 400.867 494.834 400.867Z" fill="#DADADA"/>
<path d="M550.756 400.867H533.338C529.447 400.867 525.716 402.413 522.966 405.165C520.215 407.918 518.669 411.651 518.669 415.544C518.669 419.436 520.215 423.169 522.966 425.922C525.716 428.674 529.447 430.221 533.338 430.221H550.756C554.646 430.221 558.377 428.674 561.128 425.922C563.879 423.169 565.424 419.436 565.424 415.544C565.424 411.651 563.879 407.918 561.128 405.165C558.377 402.413 554.646 400.867 550.756 400.867Z" fill="#DADADA"/>
<path d="M103.38 339.406H85.9613C82.0711 339.406 78.3402 340.953 75.5894 343.705C72.8386 346.458 71.2932 350.191 71.2932 354.083C71.2932 357.976 72.8386 361.709 75.5894 364.461C78.3402 367.214 82.0711 368.76 85.9613 368.76H103.38C107.27 368.76 111.001 367.214 113.752 364.461C116.502 361.709 118.048 357.976 118.048 354.083C118.048 350.191 116.502 346.458 113.752 343.705C111.001 340.953 107.27 339.406 103.38 339.406Z" fill="#DADADA"/>
<path d="M159.302 339.406H141.883C137.993 339.406 134.262 340.953 131.512 343.705C128.761 346.458 127.215 350.191 127.215 354.083C127.215 357.976 128.761 361.709 131.512 364.461C134.262 367.214 137.993 368.76 141.883 368.76H159.302C163.192 368.76 166.923 367.214 169.674 364.461C172.424 361.709 173.97 357.976 173.97 354.083C173.97 350.191 172.424 346.458 169.674 343.705C166.923 340.953 163.192 339.406 159.302 339.406Z" fill="#DADADA"/>
<path d="M215.224 339.406H197.805C193.915 339.406 190.184 340.953 187.433 343.705C184.683 346.458 183.137 350.191 183.137 354.083C183.137 357.976 184.683 361.709 187.433 364.461C190.184 367.214 193.915 368.76 197.805 368.76H215.224C219.114 368.76 222.845 367.214 225.596 364.461C228.346 361.709 229.892 357.976 229.892 354.083C229.892 350.191 228.346 346.458 225.596 343.705C222.845 340.953 219.114 339.406 215.224 339.406Z" fill="#F40638"/>
<path d="M271.146 339.406H253.727C249.837 339.406 246.106 340.953 243.356 343.705C240.605 346.458 239.059 350.191 239.059 354.083C239.059 357.976 240.605 361.709 243.356 364.461C246.106 367.214 249.837 368.76 253.727 368.76H271.146C275.036 368.76 278.767 367.214 281.518 364.461C284.268 361.709 285.814 357.976 285.814 354.083C285.814 350.191 284.268 346.458 281.518 343.705C278.767 340.953 275.036 339.406 271.146 339.406Z" fill="#DADADA"/>
<path d="M327.068 339.406H309.649C305.759 339.406 302.028 340.953 299.277 343.705C296.527 346.458 294.981 350.191 294.981 354.083C294.981 357.976 296.527 361.709 299.277 364.461C302.028 367.214 305.759 368.76 309.649 368.76H327.068C330.958 368.76 334.689 367.214 337.44 364.461C340.19 361.709 341.736 357.976 341.736 354.083C341.736 350.191 340.19 346.458 337.44 343.705C334.689 340.953 330.958 339.406 327.068 339.406Z" fill="#DADADA"/>
<path d="M382.99 339.406H365.571C361.681 339.406 357.95 340.953 355.199 343.705C352.449 346.458 350.903 350.191 350.903 354.083C350.903 357.976 352.449 361.709 355.199 364.461C357.95 367.214 361.681 368.76 365.571 368.76H382.99C386.88 368.76 390.611 367.214 393.362 364.461C396.112 361.709 397.658 357.976 397.658 354.083C397.658 350.191 396.112 346.458 393.362 343.705C390.611 340.953 386.88 339.406 382.99 339.406Z" fill="#DADADA"/>
<path d="M438.912 339.406H421.493C417.603 339.406 413.872 340.953 411.121 343.705C408.371 346.458 406.825 350.191 406.825 354.083C406.825 357.976 408.371 361.709 411.121 364.461C413.872 367.214 417.603 368.76 421.493 368.76H438.912C442.802 368.76 446.533 367.214 449.284 364.461C452.034 361.709 453.58 357.976 453.58 354.083C453.58 350.191 452.034 346.458 449.284 343.705C446.533 340.953 442.802 339.406 438.912 339.406Z" fill="#DADADA"/>
<path d="M494.834 339.406H477.415C473.525 339.406 469.794 340.953 467.043 343.705C464.293 346.458 462.747 350.191 462.747 354.083C462.747 357.976 464.293 361.709 467.043 364.461C469.794 367.214 473.525 368.76 477.415 368.76H494.834C498.724 368.76 502.455 367.214 505.206 364.461C507.956 361.709 509.502 357.976 509.502 354.083C509.502 350.191 507.956 346.458 505.206 343.705C502.455 340.953 498.724 339.406 494.834 339.406Z" fill="#DADADA"/>
<path d="M550.756 339.406H533.338C529.447 339.406 525.716 340.953 522.966 343.705C520.215 346.458 518.669 350.191 518.669 354.083C518.669 357.976 520.215 361.709 522.966 364.461C525.716 367.214 529.447 368.76 533.338 368.76H550.756C554.646 368.76 558.377 367.214 561.128 364.461C563.879 361.709 565.424 357.976 565.424 354.083C565.424 350.191 563.879 346.458 561.128 343.705C558.377 340.953 554.646 339.406 550.756 339.406Z" fill="#DADADA"/>
<path d="M129.507 371.054H112.089C108.199 371.054 104.468 372.6 101.717 375.353C98.9661 378.105 97.4207 381.838 97.4207 385.731C97.4207 389.623 98.9661 393.356 101.717 396.109C104.468 398.861 108.199 400.408 112.089 400.408H129.507C133.397 400.408 137.128 398.861 139.879 396.109C142.63 393.356 144.175 389.623 144.175 385.731C144.175 381.838 142.63 378.105 139.879 375.353C137.128 372.6 133.397 371.054 129.507 371.054Z" fill="#DADADA"/>
<path d="M185.429 371.054H168.011C164.121 371.054 160.39 372.6 157.639 375.353C154.888 378.105 153.343 381.838 153.343 385.731C153.343 389.623 154.888 393.356 157.639 396.109C160.39 398.861 164.121 400.408 168.011 400.408H185.429C189.319 400.408 193.05 398.861 195.801 396.109C198.552 393.356 200.097 389.623 200.097 385.731C200.097 381.838 198.552 378.105 195.801 375.353C193.05 372.6 189.319 371.054 185.429 371.054Z" fill="#DADADA"/>
<path d="M241.351 371.054H223.933C220.043 371.054 216.312 372.6 213.561 375.353C210.81 378.105 209.265 381.838 209.265 385.731C209.265 389.623 210.81 393.356 213.561 396.109C216.312 398.861 220.043 400.408 223.933 400.408H241.351C245.241 400.408 248.972 398.861 251.723 396.109C254.474 393.356 256.019 389.623 256.019 385.731C256.019 381.838 254.474 378.105 251.723 375.353C248.972 372.6 245.241 371.054 241.351 371.054Z" fill="#DADADA"/>
<path d="M297.273 371.054H279.855C275.964 371.054 272.233 372.6 269.483 375.353C266.732 378.105 265.187 381.838 265.187 385.731C265.187 389.623 266.732 393.356 269.483 396.109C272.233 398.861 275.964 400.408 279.855 400.408H297.273C301.163 400.408 304.894 398.861 307.645 396.109C310.396 393.356 311.941 389.623 311.941 385.731C311.941 381.838 310.396 378.105 307.645 375.353C304.894 372.6 301.163 371.054 297.273 371.054Z" fill="#DADADA"/>
<path d="M353.195 371.054H335.777C331.887 371.054 328.156 372.6 325.405 375.353C322.654 378.105 321.109 381.838 321.109 385.731C321.109 389.623 322.654 393.356 325.405 396.109C328.156 398.861 331.887 400.408 335.777 400.408H353.195C357.085 400.408 360.816 398.861 363.567 396.109C366.318 393.356 367.863 389.623 367.863 385.731C367.863 381.838 366.318 378.105 363.567 375.353C360.816 372.6 357.085 371.054 353.195 371.054Z" fill="#DADADA"/>
<path d="M409.117 371.054H391.699C387.809 371.054 384.078 372.6 381.327 375.353C378.576 378.105 377.031 381.838 377.031 385.731C377.031 389.623 378.576 393.356 381.327 396.109C384.078 398.861 387.809 400.408 391.699 400.408H409.117C413.007 400.408 416.738 398.861 419.489 396.109C422.24 393.356 423.785 389.623 423.785 385.731C423.785 381.838 422.24 378.105 419.489 375.353C416.738 372.6 413.007 371.054 409.117 371.054Z" fill="#DADADA"/>
<path d="M465.039 371.054H447.621C443.731 371.054 440 372.6 437.249 375.353C434.498 378.105 432.953 381.838 432.953 385.731C432.953 389.623 434.498 393.356 437.249 396.109C440 398.861 443.731 400.408 447.621 400.408H465.039C468.93 400.408 472.66 398.861 475.411 396.109C478.162 393.356 479.707 389.623 479.707 385.731C479.707 381.838 478.162 378.105 475.411 375.353C472.66 372.6 468.93 371.054 465.039 371.054Z" fill="#DADADA"/>
<path d="M520.961 371.054H503.543C499.653 371.054 495.922 372.6 493.171 375.353C490.42 378.105 488.875 381.838 488.875 385.731C488.875 389.623 490.42 393.356 493.171 396.109C495.922 398.861 499.653 400.408 503.543 400.408H520.961C524.852 400.408 528.582 398.861 531.333 396.109C534.084 393.356 535.629 389.623 535.629 385.731C535.629 381.838 534.084 378.105 531.333 375.353C528.582 372.6 524.852 371.054 520.961 371.054Z" fill="#DADADA"/>
<path d="M576.883 371.054H559.465C555.575 371.054 551.844 372.6 549.093 375.353C546.342 378.105 544.797 381.838 544.797 385.731C544.797 389.623 546.342 393.356 549.093 396.109C551.844 398.861 555.575 400.408 559.465 400.408H576.883C580.773 400.408 584.504 398.861 587.255 396.109C590.006 393.356 591.551 389.623 591.551 385.731C591.551 381.838 590.006 378.105 587.255 375.353C584.504 372.6 580.773 371.054 576.883 371.054Z" fill="#DADADA"/>
<path d="M512.373 305.466H150.472C144.731 305.459 139.228 303.175 135.168 299.113C131.109 295.051 128.826 289.544 128.82 283.8L128.843 283.594C141.647 228.162 141.642 158.672 128.828 64.9036L128.82 64.7791C128.826 59.0351 131.109 53.5282 135.169 49.4666C139.228 45.405 144.731 43.1203 150.472 43.1138H512.373C518.114 43.1203 523.617 45.405 527.676 49.4666C531.735 53.5283 534.019 59.0351 534.025 64.7791L534.005 64.9708C518.52 137.027 518.52 211.553 534.005 283.609L534.025 283.801C534.019 289.545 531.735 295.051 527.676 299.113C523.617 303.175 518.114 305.459 512.373 305.466Z" fill="white"/>
<path d="M512.373 305.466H150.472C144.731 305.459 139.228 303.175 135.168 299.113C131.109 295.051 128.826 289.544 128.82 283.8L128.843 283.594C141.647 228.162 141.642 158.672 128.828 64.9036L128.82 64.7791C128.826 59.0351 131.109 53.5282 135.169 49.4666C139.228 45.405 144.731 43.1203 150.472 43.1138H512.373C518.114 43.1203 523.617 45.405 527.676 49.4666C531.735 53.5283 534.019 59.0351 534.025 64.7791L534.005 64.9708C518.52 137.027 518.52 211.553 534.005 283.609L534.025 283.801C534.019 289.545 531.735 295.051 527.676 299.113C523.617 303.175 518.114 305.459 512.373 305.466ZM130.654 283.903C130.687 289.143 132.789 294.157 136.501 297.853C140.213 301.548 145.235 303.625 150.472 303.631H512.373C517.611 303.625 522.634 301.547 526.346 297.85C530.059 294.153 532.16 289.137 532.191 283.896C516.679 211.65 516.679 136.93 532.191 64.6832C532.16 59.4423 530.059 54.4264 526.346 50.7295C522.634 47.0325 517.611 44.9544 512.373 44.9484H150.472C145.228 44.9544 140.2 47.0371 136.486 50.7415C132.773 54.4458 130.675 59.4704 130.653 64.7172C143.481 158.622 143.482 228.279 130.654 283.903Z" fill="#E6E6E6"/>
<path d="M474.436 107.784H181.991C180.411 107.784 178.895 107.156 177.778 106.038C176.66 104.92 176.032 103.403 176.032 101.822C176.032 100.241 176.66 98.724 177.778 97.6058C178.895 96.4876 180.411 95.8594 181.991 95.8594H474.436C476.016 95.8594 477.532 96.4876 478.65 97.6058C479.767 98.724 480.395 100.241 480.395 101.822C480.395 103.403 479.767 104.92 478.65 106.038C477.532 107.156 476.016 107.784 474.436 107.784Z" fill="#E6E6E6"/>
<path d="M474.436 136.68H181.991C180.411 136.68 178.895 136.052 177.778 134.934C176.66 133.815 176.032 132.299 176.032 130.717C176.032 129.136 176.66 127.619 177.778 126.501C178.895 125.383 180.411 124.755 181.991 124.755H474.436C476.016 124.755 477.532 125.383 478.65 126.501C479.767 127.619 480.395 129.136 480.395 130.717C480.395 132.299 479.767 133.815 478.65 134.934C477.532 136.052 476.016 136.68 474.436 136.68Z" fill="#E6E6E6"/>
<path d="M474.436 165.575H181.991C180.411 165.575 178.895 164.947 177.778 163.829C176.66 162.711 176.032 161.194 176.032 159.613C176.032 158.032 176.66 156.515 177.778 155.397C178.895 154.279 180.411 153.65 181.991 153.65H474.436C476.016 153.65 477.532 154.279 478.65 155.397C479.767 156.515 480.395 158.032 480.395 159.613C480.395 161.194 479.767 162.711 478.65 163.829C477.532 164.947 476.016 165.575 474.436 165.575Z" fill="#E6E6E6"/>
<path d="M474.436 194.471H181.991C180.411 194.471 178.895 193.842 177.778 192.724C176.66 191.606 176.032 190.089 176.032 188.508C176.032 186.927 176.66 185.41 177.778 184.292C178.895 183.174 180.411 182.545 181.991 182.545H474.436C476.016 182.545 477.532 183.174 478.65 184.292C479.767 185.41 480.395 186.927 480.395 188.508C480.395 190.089 479.767 191.606 478.65 192.724C477.532 193.842 476.016 194.471 474.436 194.471Z" fill="#E6E6E6"/>
<path d="M474.436 223.366H181.991C180.411 223.366 178.895 222.738 177.778 221.62C176.66 220.501 176.032 218.985 176.032 217.403C176.032 215.822 176.66 214.306 177.778 213.187C178.895 212.069 180.411 211.441 181.991 211.441H474.436C476.016 211.441 477.532 212.069 478.65 213.187C479.767 214.306 480.395 215.822 480.395 217.403C480.395 218.985 479.767 220.501 478.65 221.62C477.532 222.738 476.016 223.366 474.436 223.366Z" fill="#E6E6E6"/>
<path d="M313.087 252.262H181.991C180.411 252.262 178.895 251.633 177.778 250.515C176.66 249.397 176.032 247.88 176.032 246.299C176.032 244.718 176.66 243.201 177.778 242.083C178.895 240.965 180.411 240.336 181.991 240.336H313.087C314.668 240.336 316.183 240.965 317.301 242.083C318.418 243.201 319.046 244.718 319.046 246.299C319.046 247.88 318.418 249.397 317.301 250.515C316.183 251.633 314.668 252.262 313.087 252.262Z" fill="#F40638"/>
<path d="M329.755 297.669H305.623C305.257 297.665 304.897 297.579 304.568 297.418C304.24 297.256 303.952 297.022 303.727 296.733C303.461 296.394 303.273 296 303.178 295.579C303.083 295.158 303.082 294.721 303.176 294.3L314.532 242.889C314.622 242.312 314.913 241.785 315.354 241.402C315.794 241.019 316.356 240.804 316.94 240.795C317.523 240.786 318.091 240.984 318.543 241.353C318.995 241.723 319.302 242.24 319.41 242.814L332.185 294.225C332.292 294.65 332.302 295.094 332.213 295.524C332.125 295.953 331.941 296.357 331.674 296.706C331.449 297.002 331.159 297.243 330.827 297.41C330.494 297.577 330.127 297.665 329.755 297.669Z" fill="#E6E6E6"/>
<path d="M633.034 316.932H29.81C26.5277 316.932 23.3797 315.627 21.0588 313.305C18.7378 310.983 17.4338 307.833 17.4338 304.548C17.4338 301.264 18.7378 298.114 21.0588 295.792C23.3797 293.469 26.5277 292.165 29.81 292.165H633.034C636.317 292.165 639.465 293.469 641.786 295.792C644.107 298.114 645.411 301.264 645.411 304.548C645.411 307.833 644.107 310.983 641.786 313.305C639.465 315.627 636.317 316.932 633.034 316.932Z" fill="#F2F2F2"/>
<path d="M556.647 285.92L547.844 285.92L543.657 251.947L556.649 251.948L556.647 285.92Z" fill="#FFB6B6"/>
<path d="M558.892 294.458L530.509 294.457V294.098C530.509 291.166 531.673 288.355 533.745 286.282C535.817 284.209 538.627 283.044 541.556 283.044H541.557L546.742 279.108L556.415 283.045L558.892 283.045L558.892 294.458Z" fill="#2F2E41"/>
<path d="M636.182 274.469L628.304 278.398L609.41 249.862L621.038 244.063L636.182 274.469Z" fill="#FFB6B6"/>
<path d="M641.998 281.108L616.595 293.776L616.435 293.455C615.128 290.831 614.917 287.795 615.847 285.015C616.777 282.235 618.772 279.939 621.394 278.631L621.395 278.63L624.28 272.794L634.692 271.999L636.91 270.893L641.998 281.108Z" fill="#2F2E41"/>
<path d="M552.747 131.628L601.285 133.328L604.914 140.072C604.914 140.072 608.715 167.664 606.768 169.612C604.822 171.56 603.848 171.56 604.822 174.969C605.795 178.378 608.311 210.948 608.311 210.948C608.311 210.948 628.362 252.563 629.335 254.998C630.309 257.433 631.282 256.459 630.309 257.433C629.447 258.363 628.634 259.338 627.875 260.354H612.012C612.012 260.354 603.47 238.795 595.651 230.456C588.747 223.093 584.375 213.715 583.172 203.691L576.594 172.534L562.481 220.257C562.481 220.257 560.047 267.494 560.534 269.929L561.021 272.364L542.323 272.573C542.323 272.573 540.376 268.468 541.349 267.007C542.323 265.546 542.264 265.945 541.077 263.554C539.889 261.163 540.376 257.112 540.376 257.112C540.376 257.112 547.394 161.333 547.394 159.873C547.43 159.121 547.292 158.371 546.989 157.682V155.699L548.854 148.672L552.747 131.628Z" fill="#2F2E41"/>
<path d="M573.674 43.5083C570.515 45.3876 568.625 48.8408 567.54 52.3546C565.532 58.86 564.323 65.586 563.94 72.3841L562.794 92.7361C562.223 105.871 558.572 118.686 552.135 130.147C551.657 131.02 551.385 131.99 551.339 132.984C551.293 133.978 551.473 134.969 551.868 135.882C552.262 136.795 552.859 137.606 553.614 138.254C554.369 138.901 555.261 139.368 556.223 139.618C573.815 144.237 607.133 138.438 607.133 138.438C607.133 138.438 608.553 137.965 607.133 136.545C605.714 135.125 602.531 128.024 602.531 128.024L606.315 103.15L611.045 52.9752C605.369 45.875 593.952 41.6895 593.952 41.6895L591.002 36.3765L576.253 37.5571L573.674 43.5083Z" fill="#F40638"/>
<path d="M583.037 33.289C590.862 33.289 597.206 26.9415 597.206 19.1115C597.206 11.2815 590.862 4.93408 583.037 4.93408C575.212 4.93408 568.868 11.2815 568.868 19.1115C568.868 26.9415 575.212 33.289 583.037 33.289Z" fill="#FFB8B8"/>
<path d="M600.495 18.2697C599.862 21.1422 598.721 23.8782 597.125 26.3485C596.702 27.1907 596.069 27.9099 595.287 28.4368C594.891 28.6908 594.419 28.798 593.953 28.7397C593.486 28.6813 593.055 28.4611 592.734 28.1175L592.389 27.8364C593.065 27.4197 593.669 26.8955 594.177 26.2846C594.428 25.978 594.602 25.6158 594.686 25.2281C594.769 24.8405 594.758 24.4385 594.655 24.0557C594.533 23.6782 594.269 23.3628 593.919 23.1758C593.569 22.9889 593.16 22.9449 592.779 23.0531C591.949 23.3788 591.445 24.5794 590.577 24.3943C589.875 24.2409 589.728 23.315 589.728 22.5869C589.753 18.7806 587.915 13.3713 586.492 13.5374C585.054 13.616 583.614 13.4232 582.248 12.969C580.879 12.514 579.436 12.3296 577.997 12.4261C577.895 12.4389 577.793 12.4581 577.684 12.4772C577.453 11.7541 577.136 11.0614 576.739 10.4144C576.784 11.1954 576.746 11.979 576.625 12.7518C575.48 13.224 574.297 13.5979 573.089 13.8695C571.774 14.0547 568.883 17.9887 568.749 17.5863C568.518 16.8632 568.201 16.1705 567.804 15.5236C567.849 16.3046 567.81 17.0881 567.689 17.861C567.683 17.8929 567.683 17.9184 567.676 17.9504C567.038 17.1009 566.649 16.0664 566.866 16.8583C564.728 12.0174 565.557 8.54963 568.921 4.46872C569.576 3.59124 570.444 2.89465 571.442 2.44421C571.942 2.22451 572.49 2.13732 573.033 2.19101C573.576 2.24471 574.097 2.43749 574.544 2.75078C575.916 1.49224 577.599 0.623684 579.419 0.235154C581.24 -0.153376 583.131 -0.0477549 584.896 0.541074C588.4 1.76089 591.1 2.47617 591.636 6.15473C593.098 5.99475 594.576 6.25163 595.898 6.89572C597.221 7.53981 598.334 8.54487 599.11 9.79494C600.62 12.3451 601.115 15.371 600.495 18.2697Z" fill="#2F2E41"/>
<path d="M615.616 110.397L615.639 81.9336L595.625 83.4288L601.526 101.381L583.398 133.873C582.058 134.174 580.835 134.858 579.877 135.843C578.92 136.827 578.269 138.069 578.005 139.417C577.74 140.765 577.873 142.161 578.388 143.434C578.903 144.708 579.777 145.804 580.903 146.589C582.03 147.374 583.36 147.814 584.732 147.856C586.105 147.897 587.459 147.539 588.631 146.823C589.803 146.108 590.742 145.067 591.333 143.827C591.923 142.587 592.141 141.201 591.958 139.84L615.616 110.397Z" fill="#FFB6B6"/>
<path d="M609.622 51.6389C617.455 55.0143 619.225 105.994 617.464 105.705C612.46 104.882 602.417 100.115 599.415 101.528C597.698 102.335 595.81 87.7111 595.81 87.7111C595.81 87.7111 593.992 79.5232 591.86 68.942C591.202 65.9618 591.309 62.8634 592.169 59.9353C593.03 57.0071 594.617 54.3445 596.783 52.1952C596.783 52.1952 601.789 48.2635 609.622 51.6389Z" fill="#F40638"/>
<path d="M125.905 366.184C125.386 365.71 124.978 365.128 124.708 364.48C124.439 363.831 124.314 363.131 124.344 362.429C124.374 361.727 124.557 361.04 124.881 360.417C125.205 359.794 125.662 359.249 126.219 358.821L120.841 342.614L129.407 344.916L133.2 359.954C133.856 360.938 134.128 362.129 133.966 363.3C133.803 364.472 133.217 365.543 132.318 366.311C131.418 367.079 130.269 367.49 129.087 367.466C127.905 367.443 126.773 366.986 125.905 366.184Z" fill="#FFB6B6"/>
<path d="M141.429 278.124C142.85 278.94 151.258 276.92 152.9 277.494C151.994 283.029 156.918 280.952 151.571 288.22C146.224 295.488 135.456 317.279 133.009 325.424C130.563 333.568 132.984 345.046 132.618 348.906C132.441 351.143 132.452 353.39 132.651 355.625C129.762 355.588 126.915 356.188 123.981 355.805C120.853 346.946 118.749 334.337 117.32 327.368C115.892 320.4 115.84 323.347 116.495 319.862C117.15 316.378 117.309 318.91 116.621 315.576C115.932 312.243 118.716 308.054 121.287 305.666C122.396 302.475 123.829 299.499 124.927 296.341C132.971 289.319 133.5 285.263 141.429 278.124Z" fill="#3F3D56"/>
<path d="M216.725 355.909C216.03 356.009 215.321 355.955 214.649 355.751C213.977 355.547 213.358 355.198 212.836 354.729C212.313 354.259 211.9 353.681 211.625 353.035C211.35 352.389 211.22 351.69 211.244 350.988L195.321 344.84L202.541 339.687L216.555 346.315C217.731 346.433 218.823 346.979 219.623 347.85C220.424 348.72 220.878 349.854 220.899 351.036C220.919 352.219 220.506 353.368 219.737 354.266C218.968 355.164 217.896 355.749 216.725 355.909Z" fill="#FFB6B6"/>
<path d="M158.648 287.948C160.181 287.368 163.967 279.589 165.454 278.686C169.148 282.903 170.675 277.78 172.884 286.53C175.094 295.279 185.063 317.449 189.792 324.515C194.521 331.581 204.916 337.006 207.661 339.742C209.274 341.301 211.015 342.72 212.866 343.987C211.001 346.195 209.655 348.776 207.494 350.799C198.671 347.586 187.605 341.196 181.32 337.871C175.036 334.545 177.276 336.458 175.004 333.737C172.732 331.017 174.786 332.503 171.777 330.916C168.768 329.329 167.305 324.517 167.097 321.012C165.339 318.128 163.954 315.129 162.216 312.274C161.911 301.597 159.117 298.61 158.648 287.948Z" fill="#3F3D56"/>
<path d="M170.629 336.095L178.575 371.578L127.655 368.408L141.502 333.561L170.629 336.095Z" fill="#FFB6B6"/>
<path d="M162.15 499.86L167.87 499.859L170.591 477.784H162.149L162.15 499.86Z" fill="#FFB6B6"/>
<path d="M160.213 497.037L169.255 496.497V500.373L177.851 506.313C178.276 506.607 178.596 507.028 178.764 507.516C178.932 508.004 178.94 508.534 178.787 509.027C178.633 509.519 178.326 509.95 177.911 510.256C177.495 510.562 176.992 510.727 176.476 510.727H165.712L163.856 506.893L163.132 510.727H159.073L160.213 497.037Z" fill="#2F2E41"/>
<path d="M108.09 497.013L113.679 498.225L121.016 477.229L112.766 475.438L108.09 497.013Z" fill="#FFB6B6"/>
<path d="M106.795 493.842L115.746 495.233L114.924 499.021L122.067 506.65C122.42 507.027 122.643 507.506 122.704 508.019C122.765 508.532 122.66 509.051 122.406 509.5C122.151 509.949 121.76 510.305 121.289 510.516C120.818 510.727 120.292 510.781 119.788 510.672L109.268 508.388L108.267 504.247L106.746 507.841L102.78 506.98L106.795 493.842Z" fill="#2F2E41"/>
<path d="M179.875 401.248C175.861 423.323 174.857 432.854 174.857 432.854C174.857 432.854 177.868 436.366 175.861 438.375C173.854 440.383 175.861 444.394 175.861 444.394L171.348 493.06L167.715 492.471L158.963 491.063L155.807 490.552L157.814 444.899C157.814 444.899 155.807 440.882 156.81 439.878C157.814 438.874 155.807 432.854 155.807 432.854L153.301 385.193L137.754 437.37C137.754 437.37 139.262 439.379 137.754 440.882C136.251 442.386 133.246 449.914 133.246 449.914L124.001 482.283L123.216 485.032L118.395 484.129L113.147 483.142L112.183 482.962L110.467 482.637L109.363 482.429L108.987 482.362L107.17 482.02L107.72 479.579L108.006 478.295L115.827 443.536L116.006 442.733L116.197 441.886C116.197 441.886 115.193 439.379 116.696 437.87C117.135 437.41 117.456 436.85 117.631 436.238C117.806 435.626 117.83 434.981 117.699 434.358C117.65 434.305 117.605 434.249 117.565 434.19C117.387 433.946 117.265 433.666 117.206 433.371C117.136 432.899 117.192 432.418 117.367 431.975C117.542 431.531 117.831 431.142 118.204 430.846C118.49 430.542 118.73 430.198 118.916 429.825C120.441 426.936 121.209 420.816 121.209 420.816C121.209 420.816 122.566 372.34 127.006 364.935C127.242 364.548 131.955 357.117 132.202 356.966C137.214 353.959 176.264 358.112 176.264 358.112C176.264 358.112 178.629 364.47 178.736 365.132C179.313 368.851 183.278 382.522 179.875 401.248Z" fill="#2F2E41"/>
<path d="M168.01 284.485C168.01 284.485 168.855 280.096 160.736 271.972C156.437 270.538 148.99 271.374 146.408 271.972C134.468 287.742 136.605 284.96 133.497 293.771C132.677 295.753 132.384 297.914 132.647 300.044C134.079 307.212 136.406 344.009 135.928 345.921C135.45 347.832 132.107 350.222 135.45 350.222C138.794 350.222 181.907 349.467 180.952 348.033C179.997 346.599 168.01 284.485 168.01 284.485Z" fill="#3F3D56"/>
<path d="M154.543 269.216C162.106 269.216 168.237 263.081 168.237 255.513C168.237 247.946 162.106 241.811 154.543 241.811C146.98 241.811 140.849 247.946 140.849 255.513C140.849 263.081 146.98 269.216 154.543 269.216Z" fill="#FFB6B6"/>
<path d="M142.941 260.694C142.867 262.356 141.826 263.789 141.022 265.243C139.621 267.84 138.873 270.739 138.844 273.689C138.814 276.64 139.504 279.553 140.854 282.177C141.972 284.298 143.519 286.192 144.406 288.42C144.833 289.361 145.049 290.384 145.04 291.417C145.03 292.45 144.795 293.469 144.351 294.402C141.95 292.091 140.779 293.311 138.053 291.294C139.125 294.3 138.212 294.398 139.288 297.401C134.661 298.722 130.034 300.047 125.404 301.376C128.246 299.068 130.254 295.89 131.118 292.331C131.983 288.772 131.657 285.027 130.191 281.671C128.499 278.04 125.474 275.047 124.373 271.188C123.773 269.1 123.784 266.884 124.404 264.802C125.024 262.72 126.226 260.859 127.87 259.439C129.513 258.019 131.529 257.1 133.678 256.791C135.827 256.481 138.019 256.794 139.996 257.692C141.553 257.247 143.017 259.059 142.941 260.694Z" fill="#2F2E41"/>
<path d="M160.142 240.155C158.3 236.129 153.441 236.948 149.048 237.479C146.854 237.818 144.776 238.687 142.993 240.011C141.211 241.334 139.777 243.073 138.818 245.076C136.94 249.135 136.581 253.734 137.806 258.035C138.463 260.965 140.032 263.611 142.286 265.593C144.606 267.46 155.514 271.875 156.422 268.073C155.287 273.034 152.333 275.858 155.713 279.66C157.464 274.398 164.868 269.399 166.618 264.137C166.882 263.345 165.8 254.035 166.063 253.243C166.619 251.573 167.175 249.9 167.576 248.187C168.081 246.034 168.275 243.566 166.939 241.806C165.602 240.045 162.236 239.977 161.561 242.082" fill="#2F2E41"/>
<path d="M157.937 256.912L157.352 253.184C157.749 248.546 157.1 241.17 160.142 240.155L162.002 242.016C160.825 242.409 158.587 249.344 157.937 256.912Z" fill="#FF6584"/>
<path d="M291.334 510.909C291.335 511.052 291.307 511.194 291.252 511.327C291.197 511.459 291.117 511.58 291.016 511.681C290.914 511.783 290.794 511.863 290.661 511.918C290.529 511.973 290.387 512.001 290.243 512H33.2862C32.9969 512 32.7194 511.885 32.5148 511.68C32.3102 511.476 32.1953 511.198 32.1953 510.909C32.1953 510.619 32.3102 510.341 32.5148 510.137C32.7194 509.932 32.9969 509.817 33.2862 509.817H290.243C290.387 509.816 290.529 509.844 290.661 509.899C290.794 509.954 290.914 510.034 291.016 510.136C291.117 510.237 291.197 510.358 291.252 510.49C291.307 510.623 291.335 510.765 291.334 510.909Z" fill="#CCCCCC"/>
<path d="M425.848 443.067H236.997C233.106 443.067 229.375 444.614 226.625 447.366C223.874 450.119 222.328 453.852 222.328 457.744C222.328 461.637 223.874 465.37 226.625 468.123C229.375 470.875 233.106 472.421 236.997 472.421H425.848C429.738 472.421 433.469 470.875 436.22 468.123C438.971 465.37 440.516 461.637 440.516 457.744C440.516 453.852 438.971 450.119 436.22 447.366C433.469 444.614 429.738 443.067 425.848 443.067Z" fill="#DADADA"/>
</g>
<defs>
<clipPath id="clip0_789_1172">
<rect width="662" height="512" fill="white"/>
</clipPath>
</defs>
</svg>
