<svg width="464" height="536" fill="none" xmlns="http://www.w3.org/2000/svg"><g clip-path="url(#a)"><path d="m339.599 514.2-9.487.196-5.288-37.348 14-.29.775 37.442z" fill="#FFB6B6"/><path d="M306.118 531.544a2.541 2.541 0 0 0 2.54 2.543h18.831s1.853-6.527 9.408-9.336l.522 9.336h9.714v-21.824s.647-4.754-4.749-8.86c-5.397-4.106-.252 0-.252 0l-2.123-9.292-14.679 1.513-.108 14.586-7.124 14.477-10.448 4.523a2.544 2.544 0 0 0-1.532 2.334z" fill="#2F2E41"/><path d="m180.739 514.781-9.137-2.563 5.748-37.28 13.484 3.781-10.095 36.062z" fill="#FFB6B6"/><path d="M143.675 521.672a2.543 2.543 0 0 0 1.695 3.171l18.023 5.46s3.663-5.71 11.707-6.208l-2.203 9.088 9.298 2.817 6.316-20.889s1.996-4.362-1.981-9.857c-3.978-5.494-.241-.073-.241-.073l.657-9.509-14.487-2.809-4.325 13.929-11.008 11.792-11.31 1.298a2.54 2.54 0 0 0-2.141 1.79zM295.736 141.304l-2.362-.146c.168-.578.337-1.149.49-1.728 1.309-4.853-1.572-11.032-1.784-15.695-1.112 4.927.79 10.988-1.178 15.666-.219.52-.438 1.04-.672 1.552l-63.968-4.041-3.657-35.138c0-20.212 16.374-36.602 36.566-36.602a36.426 36.426 0 0 1 23.46 8.52c6.348 5.323 10.867 12.76 12.469 21.23.965 5.11 6.991 22.459.636 46.382z" fill="#2F2E41"/><path d="m182.815 278.196 6.138-17.676 10.577 2.101-7.154 18.457a6.263 6.263 0 0 1-5.508 8.425 6.26 6.26 0 0 1-4.053-11.307zM320.822 287.72l-5.756-17.805 9.702-4.711 5.416 19.041a6.268 6.268 0 0 1 .683 10.046 6.257 6.257 0 0 1-10.045-6.571zM227.828 206.917v30.222l65.922-8.093-18.49-37.231-47.432 15.102z" fill="#FFB6B6"/><path d="M269.409 123.735H245.31l-8.079 14.641h-21.772s-9.674 71.74 2.758 73.205l3.657.732 4.151 1.309c-1.531 1.599-1.288 3.509 0 5.602-1.324 1.154.122 2.881 1.866 4.668l63.457-5.723-1.462-8.053s8.775 0 5.119-10.248v-56.177l-23.402-6.047-2.194-13.909z" fill="#F40638"/><path d="m286.961 147.892 8.204-4.202s7.884.542 11.541 7.863c3.656 7.32 3.656 60.027 3.656 60.027l16.821 60.76-14.627 8.052-19.883-56.367-5.712-76.133zM224.799 142.768l-8.204-4.202s-7.885.542-11.541 7.863c-3.657 7.32-3.657 60.027-3.657 60.027l-16.82 60.76 14.626 8.052 19.884-56.367 5.712-76.133z" fill="#F40638"/><path d="m289.886 218.169-63.624 11.713v30.638c-1.245 2.368-1.251 4.964 0 7.791-2.386 3.372-1.523 8.327 0 13.603l-30.363 87.472-22.291 115.979 16.82 3.66 45.341-103.95 38.028-80.525 51.192 186.671 15.357-1.464s21.208-217.417-50.46-271.588z" fill="#2F2E41"/><path d="M255.103 119.952c11.457 0 20.744-9.297 20.744-20.766 0-11.468-9.287-20.765-20.744-20.765-11.457 0-20.745 9.297-20.745 20.765 0 11.469 9.288 20.766 20.745 20.766z" fill="#FFB6B6"/><path d="M283.304 94.087v4.027l-23.402-6.589-17.544 3.675a18.283 18.283 0 0 0-2.304-7.628c.373 2.68.388 5.41.044 8.104l-11.642 2.438v-4.027c0-15.16 12.279-27.451 27.424-27.451 7.576 0 14.429 3.074 19.394 8.038 4.959 4.97 8.03 11.83 8.03 19.413z" fill="#2F2E41"/><path d="M404.913 519.112c1.927.12 2.992-2.276 1.534-3.673l-.145-.577.058-.139c1.949-4.651 8.553-4.619 10.485.039 1.715 4.135 3.898 8.276 4.436 12.648a16.869 16.869 0 0 1-.295 5.789c4.018-8.787 6.132-18.381 6.132-28.029 0-2.424-.132-4.849-.403-7.267a66.75 66.75 0 0 0-.928-5.891c-2.151-10.529-6.808-20.558-13.525-28.934-3.229-1.767-5.921-4.529-7.548-7.839-.584-1.194-1.042-2.479-1.259-3.787.367.048 1.386-5.554 1.108-5.898.513-.778 1.429-1.165 1.988-1.924 2.782-3.775 6.614-3.116 8.615 2.014 4.274 2.16 4.315 5.741 1.693 9.185-1.668 2.191-1.898 5.156-3.362 7.501.151.193.308.38.458.573a68.664 68.664 0 0 1 7.164 11.361c-.569-4.45.272-9.811 1.704-13.266 1.631-3.938 4.687-7.254 7.378-10.658 3.233-4.089 9.862-2.304 10.432 2.879l.016.15c-.4.226-.792.466-1.174.719-2.182 1.445-1.428 4.831 1.157 5.23l.059.009a28.738 28.738 0 0 1-.753 4.276c3.453 13.366-4.001 18.234-14.645 18.452-.235.121-.464.242-.699.356a68.537 68.537 0 0 1 2.579 9.317 69.093 69.093 0 0 1 1.192 8.449c.277 3.576.253 7.17-.048 10.74l.018-.127c.765-3.932 2.898-7.604 5.994-10.149 4.613-3.793 11.13-5.19 16.107-8.239 2.395-1.467 5.465.429 5.047 3.209l-.021.133a19.366 19.366 0 0 0-3.336 1.762c-2.182 1.445-1.428 4.831 1.157 5.23l.059.009.12.019a28.617 28.617 0 0 1-5.259 8.243c-2.159 11.668-11.431 12.775-21.35 9.377h-.006a70.14 70.14 0 0 1-4.705 13.749h-16.807c-.061-.187-.115-.38-.169-.567a19.03 19.03 0 0 0 4.651-.277c-1.247-1.532-2.494-3.075-3.741-4.607a.815.815 0 0 1-.079-.091c-.632-.783-1.271-1.561-1.903-2.345l-.001-.001a28.055 28.055 0 0 1 .82-7.133z" fill="#F2F2F2"/><path d="M85.626 534.514c0 .617.495 1.111 1.11 1.111H462.89c.616 0 1.11-.494 1.11-1.111 0-.616-.494-1.111-1.11-1.111H86.736c-.615 0-1.11.495-1.11 1.111z" fill="#CCC"/><path d="M21.627 0C9.683 0 0 9.692 0 21.649V325.35h1.906V150.444C1.906 68.41 68.341 1.908 150.293 1.908l284.69-.347L434.637 0H21.627z" fill="#E6E6E6"/><path d="M446.612 333.129H120.163a5.603 5.603 0 0 0-5.597 5.602 5.604 5.604 0 0 0 5.597 5.602h326.449a5.603 5.603 0 0 0 0-11.204z" fill="#3F3D56"/><path d="M336.086 333.129v11.204H120.163a5.604 5.604 0 0 1-5.597-5.602 5.603 5.603 0 0 1 5.597-5.602h215.923zM177.525 321.925c11.332 0 20.519-9.196 20.519-20.54s-9.187-20.54-20.519-20.54c-11.333 0-20.52 9.196-20.52 20.54s9.187 20.54 20.52 20.54z" fill="#6C63FF"/><path d="M172.622 311.774c-.394 0-.786-.112-1.13-.333a2.089 2.089 0 0 1-.963-1.764v-14.821c0-.756.39-1.434 1.043-1.813a2.07 2.07 0 0 1 2.09-.006l14.397 8.233a2.092 2.092 0 0 1 1.053 1.917 2.088 2.088 0 0 1-1.221 1.81l-14.397 6.587c-.279.128-.576.19-.872.19z" fill="#fff"/></g><defs><clipPath id="a"><path fill="#fff" d="M0 0h464v536H0z"/></clipPath></defs></svg>