<svg width="630" height="419" fill="none" xmlns="http://www.w3.org/2000/svg"><g clip-path="url(#a)"><path d="M128.04 379.508a287.747 287.747 0 0 1-2.713 36.991c-.059.43-.124.861-.183 1.291l-115.851-.647a55.221 55.221 0 0 1-4.025-5.78c-4.474-7.427-6.521-16.123-4.47-22.122l.038-.094a10.533 10.533 0 0 1 2.053-3.57c4.679-5.268 14.139-4.39 22.723-.138-7.7-8.431-13.83-19.07-14.296-28.567-.457-9.263 4.384-15.881 9.636-21.504.172-.186.344-.367.517-.548.083-.093.172-.18.255-.273 4.097-4.286 8.874-8.511 15.788-8 7.582.562 15.99 6.916 21.884 14.32 5.894 7.399 9.812 15.804 13.782 24.007 3.975 8.198 8.277 16.606 14.656 23.613-8.64-10.934-15.607-23.374-18.18-35.473-2.574-12.099-.309-23.719 7.392-29.417a18.002 18.002 0 0 1 7.89-3.185c.331-.055.669-.1 1.011-.14 7.13-.811 15.641 1.656 22.882 7.551 7.976 6.492 13.505 16.116 16.256 25.252 2.751 9.135 3.044 17.931 2.955 26.433z" fill="#F2F2F2"/><path d="m52.244 417.383-2.216-.012c-.703-.44-1.41-.875-2.12-1.305-.44-.277-.884-.544-1.329-.817a604.517 604.517 0 0 0-22.182-12.919 575.284 575.284 0 0 0-22.412-11.81.931.931 0 0 1-.534-1.062.27.27 0 0 1 .037-.078c.105-.197.339-.279.68-.111.921.462 1.848.924 2.768 1.397a590.946 590.946 0 0 1 22.489 12.002 616.208 616.208 0 0 1 22.249 13.123c.155.094.31.194.465.288l2.105 1.304zM80.807 417.543l-1.37-.008c-.309-.432-.612-.865-.921-1.297-7.26-10.184-14.517-20.368-21.773-30.551a241677.622 241677.622 0 0 1-35.637-50.017.88.88 0 0 1-.154-.302c-.102-.369.17-.586.517-.547a1.048 1.048 0 0 1 .723.461l19.981 28.038 35.458 49.762c.751 1.052 1.503 2.11 2.255 3.163.309.433.618.865.921 1.298zM111.325 409.584c-.07 2.31-.222 4.583-.422 6.834l-.116 1.292-1.437-.008c.044-.43.087-.861.126-1.292.304-3.253.519-6.542.549-9.922a138.515 138.515 0 0 0-2.724-27.9 173.808 173.808 0 0 0-8.436-28.987 199.107 199.107 0 0 0-13.803-28.679.768.768 0 0 1-.127-.51c.06-.409.605-.531 1.013-.139.08.077.15.164.206.26a216.554 216.554 0 0 1 1.952 3.432 198.985 198.985 0 0 1 13.211 28.78 172.944 172.944 0 0 1 7.865 29.03 136.649 136.649 0 0 1 2.143 27.809z" fill="#fff"/><path d="M436.057 232.179H300.541a11.922 11.922 0 0 1-7.796-2.602.814.814 0 0 1 .385-1.449.816.816 0 0 1 .6.159 10.286 10.286 0 0 0 6.811 2.269h135.516a12.185 12.185 0 0 0 12.172-12.178v-82.805a12.19 12.19 0 0 0-12.172-12.177H300.541a12.185 12.185 0 0 0-12.172 12.177v48.709a.813.813 0 0 1-1.386.574.812.812 0 0 1-.237-.574v-48.709a13.815 13.815 0 0 1 13.795-13.801h135.516a13.811 13.811 0 0 1 13.795 13.801v82.805a13.823 13.823 0 0 1-4.045 9.755 13.806 13.806 0 0 1-9.75 4.046z" fill="#3F3D56"/><path d="M616.205 279.264H257.533a.811.811 0 1 1 0-1.623h358.672a12.185 12.185 0 0 0 12.172-12.178V13.801a12.195 12.195 0 0 0-3.569-8.607 12.184 12.184 0 0 0-8.603-3.57H234.811a12.184 12.184 0 0 0-8.603 3.57 12.195 12.195 0 0 0-3.569 8.607v163.986a.807.807 0 0 1-.238.574.807.807 0 0 1-1.147 0 .811.811 0 0 1-.238-.574V13.801a13.82 13.82 0 0 1 4.045-9.754A13.808 13.808 0 0 1 234.811 0h381.394a13.808 13.808 0 0 1 9.75 4.047A13.82 13.82 0 0 1 630 13.8v251.662a13.819 13.819 0 0 1-4.045 9.754 13.805 13.805 0 0 1-9.75 4.047z" fill="#3F3D56"/><path d="M629.735 26.445H221.562v1.624h408.173v-1.624zM236.981 20.73a4.87 4.87 0 0 0 4.868-4.87 4.87 4.87 0 1 0-9.737 0 4.87 4.87 0 0 0 4.869 4.87zM250.978 20.73a4.87 4.87 0 0 0 4.869-4.87 4.87 4.87 0 1 0-9.737 0 4.87 4.87 0 0 0 4.868 4.87zM264.977 20.73a4.87 4.87 0 0 0 4.868-4.87 4.87 4.87 0 1 0-9.737 0 4.87 4.87 0 0 0 4.869 4.87zM550.07 81.993H298.512a12.575 12.575 0 0 1-8.894-3.685 12.59 12.59 0 0 1 0-17.795 12.576 12.576 0 0 1 8.894-3.686H550.07c3.336 0 6.535 1.326 8.894 3.686a12.59 12.59 0 0 1 0 17.795 12.575 12.575 0 0 1-8.894 3.685zM298.512 58.451a10.96 10.96 0 0 0 0 21.919H550.07c2.905 0 5.692-1.155 7.746-3.21a10.964 10.964 0 0 0 0-15.5 10.952 10.952 0 0 0-7.746-3.21H298.512z" fill="#3F3D56"/><path d="M548.447 146.126h-48.689a12.578 12.578 0 0 1-12.578-12.583 12.578 12.578 0 0 1 12.578-12.583h48.689a12.576 12.576 0 0 1 12.577 12.583 12.576 12.576 0 0 1-12.577 12.583zM548.447 188.341h-48.689a12.578 12.578 0 0 1-12.578-12.583 12.578 12.578 0 0 1 12.578-12.583h48.689a12.578 12.578 0 0 1 12.578 12.583 12.578 12.578 0 0 1-12.578 12.583zM548.447 230.555h-48.689a12.583 12.583 0 0 1-8.894-21.481 12.574 12.574 0 0 1 8.894-3.685h48.689c3.335 0 6.535 1.325 8.893 3.685a12.587 12.587 0 0 1 0 17.795 12.573 12.573 0 0 1-8.893 3.686z" fill="#6C63FF"/><path d="M202.352 238.333a8.96 8.96 0 0 0-5.298.487 8.074 8.074 0 0 0-1.063.536l-36.306-16.301-1.022-9.856-15.654-.414.106 16.399a8.83 8.83 0 0 0 6.378 8.394l42.456 12.088c.098.308.187.576.292.828a8.931 8.931 0 0 0 5.308 5.001 8.82 8.82 0 0 0 2.945.503 8.475 8.475 0 0 0 1.858-.203c.35-.074.695-.171 1.031-.292v-16.886a9.415 9.415 0 0 0-1.031-.284zM103.095 409.338h9.949l4.732-38.389h-14.683l.002 38.389z" fill="#A0616A"/><path d="m132.23 418.579-31.266.002-.001-12.086 19.187-.001c3.203 0 6.276 1.273 8.542 3.54a12.088 12.088 0 0 1 3.538 8.545z" fill="#2F2E41"/><path d="m51.383 398.609 9.146 3.919 19.46-33.424-13.497-5.784-15.109 35.289z" fill="#A0616A"/><path d="m74.528 418.58-28.741-12.315 4.756-11.11 17.637 7.558a12.09 12.09 0 0 1 6.348 15.867z" fill="#2F2E41"/><path d="M127.692 160.733c11.008 0 19.931-8.927 19.931-19.939s-8.923-19.939-19.931-19.939c-11.007 0-19.93 8.927-19.93 19.939s8.923 19.939 19.93 19.939z" fill="#A0616A"/><path d="m113.293 399.953-10.952-2.088a3.63 3.63 0 0 1-2.949-3.96l7.262-70.838a2.838 2.838 0 0 0-5.436-1.409l-31.705 74.011a3.65 3.65 0 0 1-4.84 1.898l-8.907-3.96a3.644 3.644 0 0 1-1.981-4.494l21.684-65.081c.061-.183.103-.372.126-.563l7.039-59.463a3.653 3.653 0 0 1 2.252-2.956l22.225-9.032a3.653 3.653 0 0 1 3.922.766l28.053 27.327c.437.424.761.951.941 1.533.181.581.213 1.199.093 1.796l-22.562 113.636a3.667 3.667 0 0 1-4.265 2.877z" fill="#2F2E41"/><path d="M100.808 267.284c-3.883-4.498-6.717-6.539-8.654-6.217-1.923.311-3.032 2.998-4.207 5.843-1.603 3.884-3.42 8.287-7.9 8.631a3.766 3.766 0 0 1-3.702-1.518c-3.523-5.242 4.928-22.589 5.7-24.147l-.396-82.043a3.644 3.644 0 0 1 1.909-3.235c23.222-12.528 54.577 9.26 60.627 13.756a3.63 3.63 0 0 1 1.128 1.377c.257.545.374 1.145.341 1.747-.73 13.741-4.371 83.065-4.371 98.529 0 4.281-1.476 7.001-4.387 8.084a8.752 8.752 0 0 1-3.063.503c-8.882 0-23.43-10.195-33.025-21.31z" fill="#CCC"/><path d="M133.215 227.447a3.614 3.614 0 0 1-1.642-2.895L130 187.804a9.532 9.532 0 0 1 18.431-3.808l11.772 30.862a3.661 3.661 0 0 1-2.11 4.716l-21.569 8.234a3.608 3.608 0 0 1-3.309-.361z" fill="#CCC"/><path d="M78.402 284.864a8.713 8.713 0 0 1-3.804-6.322 8.722 8.722 0 0 1 2.403-6.977l-3.806-85.163 18.828 2.218-2.186 83.115a8.77 8.77 0 0 1-5.38 14.583 8.762 8.762 0 0 1-6.055-1.454z" fill="#A0616A"/><path d="M65.328 209.08a3.613 3.613 0 0 1-.502-3.291l11.627-34.894a9.537 9.537 0 0 1 10.57-6.398 9.532 9.532 0 0 1 8.006 9.414v33.033a3.657 3.657 0 0 1-3.652 3.653H68.29a3.614 3.614 0 0 1-2.962-1.517z" fill="#CCC"/><path d="M114.821 154.205a3.936 3.936 0 0 1-5.153-.257c-4.272-3.994-7.877-8.771-9.701-14.302-2.09-6.339-1.557-13.763 2.447-19.102 3.384-4.514 8.741-7.064 14.017-9.058a22.966 22.966 0 0 1 6.46-1.678 8.869 8.869 0 0 1 6.292 1.768 5.576 5.576 0 0 1 1.847 6.005 20.968 20.968 0 0 1 9.576-4.956 11.56 11.56 0 0 1 6.849.284c3.06 1.259 5.048 4.334 5.964 7.514.757 2.426.819 5.017.177 7.476a9.047 9.047 0 0 1-4.63 5.709c-2.8 1.32-6.122.822-9.05-.183-2.927-1.004-5.702-2.487-8.73-3.127-3.028-.641-6.523-.267-8.666 1.967-1.508 1.573-2.103 3.786-2.642 5.899l-2.807 10.987a13.71 13.71 0 0 1-1.75 4.525c-.142.198-.31.376-.5.529z" fill="#2F2E41"/><path d="M250.87 221.975v37.473l.512.373v-37.79a3.818 3.818 0 0 0-.512-.056zm54.345-24.517-25.902-18.81a8.798 8.798 0 0 0-12.262 1.948l-15.15 20.897-1.031 1.412v80.573a7.75 7.75 0 0 1-7.741 7.744h-4.301l2.491.504c.574.12 1.159.18 1.745.178a8.789 8.789 0 0 0 7.109-3.62l1.055-1.462 55.935-77.106a8.8 8.8 0 0 0-1.948-12.258zm1.112 11.649-54.458 75.069-.577.795-.056.082c.098-.52.147-1.047.146-1.575V203.96l.519-.714 15.994-22.041a7.753 7.753 0 0 1 10.809-1.721l25.902 18.81a7.753 7.753 0 0 1 1.721 10.813z" fill="#CCC"/><path d="M278.784 228.833a6.845 6.845 0 0 1-4.037-1.317l-14.556-10.567a6.912 6.912 0 0 1-1.531-9.638l10.563-14.562a6.896 6.896 0 0 1 9.634-1.532l14.555 10.567a6.907 6.907 0 0 1 1.532 9.638l-10.563 14.561a6.859 6.859 0 0 1-5.597 2.85z" fill="#CCC"/><path opacity=".5" d="M255.668 262.368a4.502 4.502 0 0 1-2.653-.865l-2.552-1.852v-38.109l.43.026c.385.022.765.093 1.132.209.458.145.889.364 1.277.648l18.379 13.347a4.539 4.539 0 0 1 1.744 4.727 4.536 4.536 0 0 1-.74 1.607l-13.338 18.387a4.494 4.494 0 0 1-2.953 1.817c-.24.038-.483.058-.726.058z" fill="#E6E6E6"/><path d="M243.129 177.625h-32.005a8.78 8.78 0 0 0-8.772 8.776v97.077a8.788 8.788 0 0 0 8.772 8.775h32.005a8.768 8.768 0 0 0 8.098-5.431 8.5 8.5 0 0 0 .487-1.542c.076-.364.128-.733.155-1.104a6.78 6.78 0 0 0 .032-.698v-97.077a8.783 8.783 0 0 0-8.772-8.776zm7.741 105.853a7.75 7.75 0 0 1-7.741 7.744h-32.005a7.754 7.754 0 0 1-7.741-7.744v-97.077a7.755 7.755 0 0 1 7.741-7.745h32.005a7.75 7.75 0 0 1 7.741 7.745v97.077z" fill="#3F3D56"/><path d="M236.119 219.854h-17.984a6.902 6.902 0 0 1-4.875-2.024 6.904 6.904 0 0 1-2.023-4.877v-17.992a6.906 6.906 0 0 1 6.898-6.9h17.984a6.901 6.901 0 0 1 4.875 2.023 6.912 6.912 0 0 1 2.023 4.877v17.992a6.908 6.908 0 0 1-6.898 6.901z" fill="#F40638"/><path d="M236.119 260.129h-17.984a6.905 6.905 0 0 1-6.898-6.9v-17.993a6.907 6.907 0 0 1 6.898-6.9h17.984a6.905 6.905 0 0 1 6.898 6.9v17.993a6.905 6.905 0 0 1-6.898 6.9zM227.127 269.02a6.713 6.713 0 1 0 2.568 12.916 6.709 6.709 0 0 0 4.142-6.203 6.72 6.72 0 0 0-6.71-6.713zm0 12.388a5.68 5.68 0 0 1-5.242-3.509 5.689 5.689 0 0 1-.321-3.282 5.686 5.686 0 0 1 4.463-4.458 5.676 5.676 0 0 1 5.112 9.586 5.68 5.68 0 0 1-4.012 1.663zM209.673 419H7.376a.968.968 0 0 1 0-1.934h202.297a.966.966 0 0 1 .963.967.967.967 0 0 1-.963.967z" fill="#3F3D56"/></g><defs><clipPath id="a"><path fill="#fff" d="M0 0h630v419H0z"/></clipPath></defs></svg>