<svg width="467" height="550" viewBox="0 0 467 550" fill="none" xmlns="http://www.w3.org/2000/svg">
<g clip-path="url(#clip0_796_1265)">
<path d="M460.039 460.044H148.826C146.981 460.042 145.211 459.307 143.906 458.001C142.601 456.694 141.867 454.922 141.865 453.074V6.97037C141.867 5.12235 142.601 3.3506 143.906 2.04385C145.211 0.737101 146.981 0.00206198 148.826 0H460.039C461.884 0.00206415 463.654 0.737102 464.959 2.04385C466.264 3.3506 466.998 5.12235 467 6.97037V453.074C466.998 454.922 466.264 456.694 464.959 458.001C463.654 459.307 461.884 460.042 460.039 460.044Z" fill="#3F3D56"/>
<path d="M453.487 453.484H155.378C153.533 453.482 151.763 452.747 150.458 451.44C149.153 450.134 148.419 448.362 148.417 446.514V13.5309C148.419 11.6829 149.153 9.91115 150.458 8.6044C151.763 7.29765 153.533 6.56261 155.378 6.56055H453.487C455.332 6.56261 457.102 7.29765 458.407 8.6044C459.712 9.91115 460.446 11.6829 460.448 13.5309V446.514C460.446 448.362 459.712 450.134 458.407 451.44C457.102 452.747 455.332 453.482 453.487 453.484Z" fill="white"/>
<path d="M236.922 430.781C210.403 395.729 220.92 355.723 205.383 327.814C145.838 220.848 219.16 230.703 302.057 251.504L302.255 253.812C249.494 261.965 214.795 289.154 207.055 328.408C201.04 358.915 212.078 394.684 238.135 429.127L236.922 430.781Z" fill="#F0F0F0"/>
<path d="M295.174 300.329L294.62 298.129C324.221 284.691 321.678 244.666 348.161 235.527C549.903 165.902 350.762 158.05 305.969 121.222C265.912 88.288 222.257 49.9978 166.777 30.2774L167.22 28.0322C222.942 47.8394 272.615 80.3051 307.085 119.449C341.729 158.789 356.911 200.224 349.833 236.121C344.252 264.428 325.351 286.63 295.174 300.329Z" fill="#F0F0F0"/>
<path d="M214.596 223.186C201.069 222.116 217.031 213.152 218.1 199.607C218.352 196.386 219.237 193.245 220.702 190.366C222.167 187.487 224.184 184.924 226.638 182.826C229.093 180.727 231.936 179.133 235.006 178.135C238.075 177.137 241.311 176.755 244.528 177.009C247.746 177.264 250.882 178.15 253.757 179.619C256.632 181.087 259.19 183.108 261.285 185.566C263.379 188.025 264.97 190.872 265.965 193.946C266.961 197.02 267.341 200.261 267.086 203.482C266.017 217.027 228.124 224.256 214.596 223.186Z" fill="#F40638"/>
<path d="M344.479 138.861C341.262 138.606 338.127 137.72 335.253 136.252C332.379 134.785 329.821 132.765 327.726 130.307C325.632 127.85 324.041 125.004 323.045 121.931C322.049 118.858 321.667 115.619 321.921 112.398C322.989 98.8535 296.127 89.793 309.654 90.863C323.181 91.9329 371.975 102.728 370.907 116.273C370.653 119.494 369.768 122.633 368.302 125.511C366.836 128.389 364.819 130.95 362.365 133.047C359.911 135.145 357.068 136.738 353.999 137.735C350.93 138.733 347.695 139.115 344.479 138.861Z" fill="#F40638"/>
<path d="M374.087 107.985C375.869 111.688 374.818 115.966 372.464 119.163C369.786 122.8 365.527 124.592 361.157 125.185C356.467 125.755 351.711 125.362 347.177 124.032C342.803 122.768 338.265 120.059 337.362 115.22C336.761 111.994 338.136 108.552 341.481 107.658C342.823 107.318 344.229 107.33 345.565 107.693C346.901 108.056 348.12 108.757 349.107 109.729C351.884 112.624 351.673 117.27 349.908 120.633C347.831 124.587 343.677 126.769 339.405 127.489C334.327 128.346 329.224 127.15 324.447 125.448C319.254 123.599 314.217 121.296 309.129 119.18C299.208 115.054 289.073 111.179 278.403 109.536C262.104 107.026 242.761 110.934 232.783 125.242C227.397 132.966 225.871 142.653 227.031 151.868C228.253 161.586 232.512 170.516 238.151 178.424C241.137 182.538 244.397 186.444 247.909 190.117C249.053 191.23 249.84 192.659 250.17 194.221C250.501 195.783 250.36 197.409 249.766 198.89C246.675 206.495 234.316 204.072 233.396 196.233C232.977 192.671 234.962 189.003 237.442 186.587C240.256 183.951 243.802 182.231 247.612 181.653C255.631 180.313 264.108 183.29 270.237 188.461C277.163 194.303 281.061 203.181 283.115 211.824C285.453 221.664 285.572 231.784 285.794 241.843C286.021 252.136 286.412 262.551 289.361 272.485C291.76 280.482 295.462 288.026 300.319 294.812C310.018 308.485 323.808 318.717 339.695 324.03C343.538 325.279 347.478 326.203 351.475 326.793C353.04 327.026 353.227 324.572 351.669 324.341C334.246 321.754 318.223 312.309 306.753 299.032C301.005 292.408 296.462 284.825 293.331 276.629C289.591 266.757 288.642 256.272 288.337 245.795C288.025 235.094 288.195 224.297 286.056 213.756C284.164 204.438 280.454 195.002 273.583 188.212C267.525 182.226 258.858 178.522 250.292 178.919C242.322 179.289 233.799 183.684 231.431 191.827C230.319 195.648 231.026 199.749 233.939 202.587C235.6 204.165 237.665 205.251 239.905 205.725C242.145 206.199 244.472 206.042 246.628 205.272C248.971 204.258 250.853 202.407 251.908 200.079C252.962 197.752 253.115 195.115 252.335 192.681C251.679 190.894 250.626 189.28 249.254 187.962C242.064 180.273 235.466 171.669 231.885 161.658C228.545 152.32 227.86 141.578 231.712 132.286C239.003 114.696 260.165 109.41 277.402 111.869C288.683 113.478 299.364 117.754 309.813 122.129C315.149 124.362 320.451 126.845 325.985 128.555C330.94 130.086 336.257 130.854 341.361 129.599C345.817 128.503 349.912 125.909 352.07 121.76C354.03 117.99 354.369 113.208 352.037 109.515C348.666 104.176 339.359 102.975 335.967 108.972C333.717 112.951 334.822 118.045 337.778 121.345C341.092 125.045 346.054 126.556 350.803 127.319C359.776 128.76 370.827 127.627 375.627 118.752C377.605 115.096 378.139 110.737 376.299 106.915C376.151 106.632 375.899 106.418 375.596 106.319C375.293 106.219 374.963 106.241 374.676 106.379C374.389 106.518 374.167 106.763 374.057 107.063C373.947 107.363 373.958 107.693 374.087 107.985L374.087 107.985Z" fill="#3F3D56"/>
<path d="M345.222 327.294C330.877 326.16 292.522 345.813 282.139 337.358C280.842 336.309 279.587 335.209 278.374 334.058C274.404 330.33 270.898 326.136 267.932 321.567C267.418 320.795 266.929 320.015 266.457 319.23C264.793 316.438 263.329 313.532 262.074 310.534C261.854 309.99 261.635 309.438 261.415 308.886C255.573 293.766 255.277 277.061 260.58 261.743C265.884 246.425 276.443 233.488 290.379 225.235C304.314 216.981 320.723 213.945 336.684 216.668C352.645 219.391 367.124 227.696 377.543 240.105C378.1 240.758 378.638 241.426 379.168 242.109C384.457 248.892 388.416 256.616 390.837 264.872C390.836 264.881 390.844 264.881 390.844 264.889C394.454 277.271 394.513 290.42 391.013 302.833L391.012 302.849C390.933 303.123 390.854 303.396 390.766 303.669C381.807 334.03 378.002 329.887 345.222 327.294Z" fill="#F40638"/>
<path d="M262.384 310.566C262.28 310.568 262.176 310.557 262.074 310.534C261.854 309.99 261.635 309.438 261.416 308.886C261.508 308.654 261.669 308.456 261.876 308.319C262.084 308.181 262.328 308.109 262.577 308.114C263.819 308.11 265.056 307.967 266.266 307.69C276.772 305.313 282.896 294.544 285.52 284.93C288.74 273.166 288.784 260.526 294.604 249.553C296.865 245.043 300.189 241.153 304.288 238.218C308.79 235.164 314.26 233.883 319.647 234.621C332.323 236.298 341.574 246.07 353.342 250.094C358.189 251.753 363.349 252.161 368.197 250.274C372.316 248.675 376.073 245.517 376.924 240.978C376.952 240.794 377.023 240.619 377.13 240.468C377.238 240.317 377.379 240.192 377.543 240.105C378.1 240.758 378.638 241.426 379.168 242.109C378.979 242.929 378.704 243.726 378.348 244.488C376.28 248.832 372.156 251.64 367.666 253.045C362.469 254.666 357.063 254.049 352.006 252.234C340.214 248.003 330.515 237.545 317.496 236.894C306.212 236.33 298.414 245.618 294.659 255.307C290.016 267.295 290.706 280.733 285.494 292.545C281.393 301.837 273.174 310.523 262.384 310.566Z" fill="#3F3D56"/>
<path d="M267.932 321.567C267.418 320.795 266.929 320.016 266.457 319.23C266.571 319.139 266.704 319.073 266.845 319.037C266.987 319.002 267.135 318.997 267.278 319.023C277.807 320.267 288.413 317.437 296.927 311.111C300.663 308.376 303.91 305.028 306.532 301.209C309.254 297.213 310.898 292.72 312.743 288.284C314.558 283.92 316.689 279.507 320.299 276.345C323.979 273.124 328.727 271.772 333.536 271.626C344.933 271.285 354.871 277.772 365.963 279.11C370.911 279.707 375.822 278.993 380.058 276.227C383.714 273.835 386.375 270.089 386.204 265.592C386.141 264.106 388.302 264.203 388.618 265.511C388.639 265.601 388.651 265.693 388.653 265.786C388.849 271.016 385.637 275.492 381.409 278.259C376.497 281.482 370.757 282.278 365.013 281.462C353.9 279.875 343.628 273.14 332.129 274.155C329.716 274.295 327.359 274.94 325.211 276.05C323.063 277.16 321.171 278.709 319.659 280.597C316.633 284.487 315.034 289.239 313.167 293.747C311.395 298.252 308.918 302.447 305.828 306.172C302.701 309.809 299.014 312.922 294.905 315.393C286.823 320.332 277.354 322.5 267.932 321.567Z" fill="#3F3D56"/>
<path d="M282.139 337.358C280.842 336.309 279.587 335.209 278.374 334.058C284.631 335.653 291.151 335.925 297.518 334.856C305.53 333.569 313.088 330.28 319.493 325.292C322.683 322.791 325.496 319.845 327.848 316.542C330.529 312.765 332.871 308.59 336.913 306.089C345.688 300.662 356.19 305.623 364.951 308.29C369.523 309.688 374.435 310.636 379.092 309.088C382.703 307.884 386.208 305.217 386.922 301.275C387.2 299.726 389.658 299.912 389.371 301.469C389.315 301.761 389.251 302.052 389.179 302.342C388.052 306.621 384.556 309.709 380.428 311.209C375.042 313.152 369.461 312.241 364.111 310.609C355.31 307.922 343.809 302.398 335.847 310.019C332.488 313.232 330.428 317.585 327.399 321.097C324.697 324.244 321.579 327.009 318.133 329.314C307.547 336.374 294.718 339.241 282.139 337.358Z" fill="#3F3D56"/>
<path d="M453.896 512.118H395.749C393.903 512.115 392.134 511.38 390.829 510.074C389.524 508.767 388.79 506.995 388.788 505.147V484.646C388.79 482.798 389.524 481.026 390.829 479.72C392.134 478.413 393.903 477.678 395.749 477.676H453.896C455.742 477.678 457.512 478.413 458.817 479.72C460.122 481.026 460.856 482.798 460.858 484.646V505.147C460.856 506.995 460.122 508.767 458.817 510.074C457.512 511.38 455.742 512.115 453.896 512.118Z" fill="#E6E6E6"/>
<path d="M116.69 274.193L118.225 288.447L117.321 307.138L158.668 302.219L162.553 274.193L157.603 274.243L116.69 274.193Z" fill="#FFB6B6"/>
<path d="M166.025 230.022L153.242 225.288L147.779 217.345L128.13 215.378L116.01 223.153L105.849 228.333L106.023 255.385L117.705 303.826L159.473 302.186L164.971 267.643C164.971 267.643 177.743 250.466 163.989 240.629L166.025 230.022Z" fill="#CCCCCC"/>
<path d="M95.2441 532.978H104.284L108.585 498.065H95.2441V532.978Z" fill="#FFB6B6"/>
<path d="M92.2939 526.778L106.736 525.915V532.111L120.466 541.606C121.144 542.074 121.655 542.748 121.924 543.528C122.193 544.308 122.205 545.154 121.96 545.942C121.715 546.73 121.224 547.418 120.56 547.907C119.897 548.396 119.094 548.66 118.27 548.66H101.076L98.1127 542.532L96.9556 548.66H90.4729L92.2939 526.778Z" fill="#2F2E41"/>
<path d="M146.021 532.978H155.061L159.362 498.065H146.021V532.978Z" fill="#FFB6B6"/>
<path d="M143.071 526.778L157.513 525.915V532.111L171.243 541.606C171.921 542.074 172.432 542.748 172.701 543.528C172.969 544.308 172.982 545.154 172.737 545.942C172.491 546.73 172.001 547.418 171.337 547.907C170.673 548.396 169.871 548.66 169.047 548.66H151.853L148.889 542.532L147.732 548.66H141.25L143.071 526.778Z" fill="#2F2E41"/>
<path d="M91.3441 502.87H91.4423L93.1808 446.104C92.0558 443.931 91.4848 441.513 91.5187 439.066C91.5527 436.619 92.1905 434.218 93.3753 432.077L93.6242 431.626L92.9789 428.631C92.15 424.782 92.5303 420.771 94.0678 417.148L95.6896 364.195C89.8954 326.595 117.509 302.074 117.509 302.074H158.874L167.755 332.626C173.626 389.898 172.56 445.708 163.244 499.779L163.498 499.907C164.413 500.223 164.805 501.492 164.374 502.741C163.944 503.989 162.854 504.745 161.939 504.429L140.093 503.669C139.179 503.353 138.787 502.084 139.217 500.835C139.648 499.586 140.738 498.83 141.652 499.146L143.138 499.899L139.97 445.121L140.322 435.116L139.597 423.765L136.249 372.709L123.574 435.494L110.628 503.502C110.985 503.826 111.235 504.25 111.346 504.72C111.457 505.189 111.424 505.681 111.25 506.131C111.076 506.581 110.77 506.967 110.372 507.239C109.974 507.511 109.503 507.656 109.022 507.654H91.3441C90.7105 507.654 90.1028 507.402 89.6548 506.954C89.2068 506.505 88.9551 505.897 88.9551 505.262C88.9551 504.628 89.2068 504.019 89.6548 503.571C90.1028 503.122 90.7105 502.87 91.3441 502.87V502.87Z" fill="#2F2E41"/>
<path d="M87.0433 342.047C86.2539 341.285 85.641 340.359 85.2478 339.334C84.8545 338.31 84.6905 337.211 84.7671 336.116C84.8438 335.021 85.1594 333.956 85.6916 332.996C86.2238 332.036 86.9597 331.205 87.8475 330.56L98.8686 262.824L111.794 267.378L98.6966 332.629C99.6787 334.194 100.053 336.066 99.7493 337.889C99.4454 339.712 98.4841 341.36 97.0477 342.521C95.6113 343.682 93.7994 344.275 91.9556 344.187C90.1117 344.1 88.3638 343.339 87.0432 342.047H87.0433Z" fill="#FFB6B6"/>
<path d="M107.587 228.274C107.587 228.274 103.88 226.875 102.534 235.171C101.457 241.813 90.9402 281.904 91.9353 291.193C90.701 291.626 89.6457 292.458 88.9356 293.557C88.2254 294.657 87.9008 295.962 88.0129 297.266L107.405 297.366C110.374 294.123 110.759 290.21 109.325 289.249L112.008 277.396L124.643 239.155L110.285 229.237L107.587 228.274Z" fill="#CCCCCC"/>
<path d="M176.322 344.931C177.174 344.239 177.864 343.37 178.344 342.383C178.824 341.395 179.082 340.315 179.1 339.217C179.117 338.12 178.895 337.031 178.447 336.029C177.999 335.027 177.337 334.135 176.508 333.417L172.577 265.284L158.08 268.406L165.522 334.543C164.409 336.018 163.875 337.85 164.021 339.693C164.167 341.535 164.983 343.26 166.314 344.541C167.646 345.821 169.4 346.568 171.244 346.64C173.089 346.712 174.896 346.103 176.322 344.931L176.322 344.931Z" fill="#FFB6B6"/>
<path d="M165.632 229.808C165.632 229.808 169.446 228.734 170.074 237.116C170.576 243.826 177.608 284.674 175.819 293.843C177.011 294.381 177.991 295.3 178.604 296.457C179.217 297.614 179.428 298.942 179.205 300.232L159.876 298.66C157.196 295.173 157.149 291.242 158.66 290.408L157.006 278.368L147.704 239.18L162.862 230.536L165.632 229.808Z" fill="#CCCCCC"/>
<path d="M129.334 213.981C140.133 213.981 148.887 205.215 148.887 194.401C148.887 183.588 140.133 174.822 129.334 174.822C118.534 174.822 109.78 183.588 109.78 194.401C109.78 205.215 118.534 213.981 129.334 213.981Z" fill="#FFB8B8"/>
<path d="M90.4722 235.549C86.3344 234.08 82.1965 232.609 78.0587 231.136C78.7718 229.937 79.6801 228.867 80.7459 227.969C84.6856 224.675 90.1235 224.079 95.1254 222.968C100.135 221.857 105.573 219.579 107.404 214.785C109.307 209.8 106.548 204.419 104.947 199.339C102.704 192.251 102.751 184.338 105.756 177.543C108.76 170.749 114.864 165.24 122.109 163.621C129.354 162.01 137.543 164.637 141.998 170.574C144.868 169.712 147.954 169.932 150.673 171.193C153.393 172.453 155.557 174.667 156.758 177.416C157.796 180.02 157.828 183.155 156.282 185.496C154.736 187.838 151.431 189.036 148.942 187.735L150.384 184.068C145.922 185.584 143.02 193.664 143.623 198.347C144.217 203.022 146.944 207.118 149.711 210.935C152.477 214.753 155.426 218.611 156.615 223.175C158.327 229.739 156.013 236.914 151.732 242.176C147.451 247.439 141.419 251.011 135.173 253.638C130.497 255.606 125.638 257.106 120.666 258.114C121.554 256.384 122.434 254.654 123.322 252.924L112.787 259.305C110.75 259.504 108.696 259.623 106.643 259.662C100.666 259.765 94.5707 259.138 89.1009 256.749C83.6235 254.352 78.8117 250.011 76.83 244.367C76.1947 242.542 75.8939 240.616 75.9423 238.684C80.7855 237.636 85.6288 236.591 90.4722 235.549Z" fill="#2F2E41"/>
<path d="M70.7523 527.094C70.1461 527.121 69.5461 526.962 69.0335 526.637C68.5208 526.312 68.1203 525.837 67.8863 525.277C67.6522 524.716 67.5959 524.097 67.7249 523.504C67.8539 522.91 68.1621 522.37 68.6076 521.958C68.6823 521.661 68.7358 521.448 68.8104 521.151C68.7837 521.086 68.7568 521.022 68.7298 520.957C68.1192 519.513 67.0961 518.282 65.7888 517.418C64.4816 516.554 62.9486 516.097 61.3825 516.102C59.8163 516.108 58.2868 516.577 56.986 517.451C55.6852 518.324 54.6712 519.563 54.0713 521.012C51.6739 526.793 48.6215 532.585 47.8699 538.698C47.5389 541.4 47.6785 544.14 48.2826 546.794C42.6516 534.495 39.7276 521.127 39.7087 507.597C39.7075 504.201 39.8959 500.809 40.273 497.435C40.5847 494.669 41.017 491.922 41.5701 489.196C44.5882 474.401 51.0682 460.534 60.4779 448.733C65.0322 446.245 68.7153 442.419 71.0309 437.77C71.8698 436.099 72.4627 434.315 72.7912 432.474C72.2774 432.542 71.7552 432.584 71.2415 432.618C71.0815 432.626 70.913 432.634 70.753 432.643L70.6926 432.646C70.128 432.671 69.5681 432.532 69.0803 432.246C68.5925 431.961 68.1976 431.54 67.9432 431.034C67.6888 430.529 67.5856 429.961 67.6462 429.398C67.7068 428.835 67.9286 428.302 68.2847 427.863C68.5066 427.589 68.7285 427.316 68.9506 427.043C69.2875 426.622 69.6328 426.208 69.9697 425.787C70.0086 425.747 70.0451 425.704 70.0792 425.66C70.4667 425.179 70.854 424.707 71.2415 424.226C70.5343 423.127 69.5831 422.207 68.4622 421.536C64.5795 419.259 59.223 420.836 56.4184 424.353C53.6054 427.87 53.0748 432.803 54.0517 437.197C55.0124 440.935 56.6017 444.483 58.7514 447.688C58.5408 447.957 58.3218 448.219 58.1112 448.489C54.2622 453.444 50.9076 458.766 48.0953 464.377C48.7792 458.091 47.963 451.732 45.7137 445.824C43.4342 440.317 39.1614 435.68 35.3987 430.92C30.8791 425.202 21.6112 427.697 20.815 434.945C20.8073 435.016 20.7998 435.086 20.7924 435.156C21.3513 435.472 21.8984 435.807 22.4337 436.161C23.1061 436.611 23.6272 437.254 23.9285 438.005C24.2299 438.757 24.2976 439.582 24.1227 440.372C23.9477 441.163 23.5384 441.882 22.9482 442.436C22.3581 442.989 21.6147 443.352 20.8154 443.475L20.7335 443.488C20.9326 445.505 21.2845 447.503 21.7863 449.467C23.2401 454.948 25.8091 460.07 29.3324 464.51C32.8556 468.951 37.257 472.615 42.2606 475.272C42.5891 475.441 42.9092 475.61 43.2377 475.77C40.4122 483.787 38.6399 492.139 37.9653 500.614C37.5834 505.614 37.606 510.637 38.0327 515.633L38.0074 515.456C36.9293 509.9 33.9693 504.887 29.6273 501.263C23.1784 495.959 14.0672 494.006 7.10994 489.742C6.37054 489.266 5.5108 489.013 4.63213 489.011C3.75346 489.008 2.89252 489.258 2.15082 489.73C1.40912 490.201 0.817602 490.876 0.446055 491.673C0.0745079 492.47 -0.0615801 493.357 0.0538352 494.23C0.0631552 494.292 0.072655 494.354 0.0823026 494.416C1.11942 494.839 2.1292 495.326 3.10581 495.875C3.6647 496.19 4.2118 496.525 4.74707 496.88C5.41952 497.33 5.94056 497.972 6.24194 498.724C6.54333 499.475 6.61097 500.3 6.43604 501.091C6.26111 501.882 5.85176 502.601 5.26161 503.155C4.67146 503.708 3.92804 504.071 3.12876 504.194L3.04685 504.206C2.98789 504.215 2.93738 504.223 2.8785 504.232C4.65057 508.469 7.13771 512.368 10.231 515.76C14.0523 519.866 18.6708 523.147 23.8034 525.401C28.936 527.656 34.4745 528.838 40.0793 528.873H40.0878C41.6092 535.494 43.8137 541.937 46.6656 548.101H70.1634C70.2477 547.84 70.3235 547.57 70.3993 547.308C68.2243 547.445 66.0407 547.315 63.8973 546.92C65.6407 544.778 67.3841 542.619 69.1275 540.477C69.1664 540.437 69.2029 540.395 69.237 540.351C70.1213 539.255 71.0141 538.167 71.8984 537.071L71.8989 537.069C71.946 533.709 71.5609 530.356 70.753 527.094L70.7523 527.094Z" fill="#279D13"/>
<path d="M228.581 549.748L2.74714 550C2.48851 550 2.24047 549.897 2.0576 549.714C1.87472 549.531 1.77197 549.282 1.77197 549.023C1.77197 548.764 1.87472 548.516 2.0576 548.333C2.24047 548.15 2.48851 548.047 2.74714 548.047L228.581 547.795C228.839 547.795 229.087 547.898 229.27 548.081C229.453 548.264 229.556 548.512 229.556 548.771C229.556 549.03 229.453 549.279 229.27 549.462C229.087 549.645 228.839 549.748 228.581 549.748Z" fill="#CACACA"/>
</g>
<defs>
<clipPath id="clip0_796_1265">
<rect width="467" height="550" fill="white"/>
</clipPath>
</defs>
</svg>
