<svg width="648" height="458" fill="none" xmlns="http://www.w3.org/2000/svg"><g clip-path="url(#a)"><path d="M648 340.939H0v2.927h648v-2.927zM648 226.805H0v2.927h648v-2.927zM648 112.671H0v2.926h648v-2.926z" fill="#000"/><path d="M519.886 0h-2.973v456.537h2.973V0zM390.286 0h-2.972v456.537h2.972V0zM260.686 0h-2.972v456.537h2.972V0zM131.086 0h-2.972v456.537h2.972V0z" fill="#000"/><path d="M389.395 114.134H129.303v114.134h260.092V114.134z" fill="#302D62"/><path d="M129.303 219.489v122.913L264.55 223.879l-135.247-4.39z" fill="#302D62"/><path d="M389.395 223.879v4.389l-1.695 1.478-3.418 2.985c-66.479 1.976-120.177 48.859-122.6 106.994l-3.047 2.663-.029.015V219.489l130.789 4.39z" fill="#302D62"/><path d="M388.651 229.732c-.312 0-.639 0-.951.014-70.715.439-128.188 50.658-129.065 112.642-.029.497-.029.98-.029 1.478C258.606 406.801 316.94 458 388.651 458c71.712 0 130.046-51.199 130.046-114.134s-58.335-114.134-130.046-114.134zm0 225.342c-70.061 0-127.073-49.883-127.073-111.208 0-1.39.03-2.766.104-4.141 2.423-58.135 56.121-105.018 122.6-106.994 1.442-.058 2.898-.073 4.369-.073 70.062 0 127.074 49.883 127.074 111.208 0 61.325-57.012 111.208-127.074 111.208z" fill="#000"/><path d="m317.312 342.426-7.431-.041c.003-.651 1.193-65.086 77.212-69.555l.442 7.303c-68.943 4.054-70.203 59.917-70.223 62.293z" fill="#E6E6E6"/><path d="M463.677 340.939a61.469 61.469 0 0 0-5.843-24.107 62.318 62.318 0 0 0-14.935-19.951c-14.779-13.269-34.099-20.558-54.099-20.413h-.149c-40.826 0-74.148 28.782-75.025 64.471-.03.483-.03.981-.03 1.464 0 18.671 8.873 35.542 23.111 47.541 14.538 12.025 32.957 18.548 51.944 18.393h.149c41.317-.073 74.906-29.616 74.906-65.934 0-.483 0-.981-.029-1.464z" fill="#E6E6E6"/><path d="m442.899 296.881-2.229 1.946-101.734 89.171-2.229 1.946c-14.238-11.999-23.111-28.87-23.111-47.541 0-.483 0-.981.03-1.464.877-35.689 34.199-64.471 75.025-64.471h.149c20-.145 39.32 7.144 54.099 20.413z" fill="#F40638"/></g><defs><clipPath id="a"><path fill="#fff" d="M0 0h648v458H0z"/></clipPath></defs></svg>