<svg width="662" height="512" fill="none" xmlns="http://www.w3.org/2000/svg"><g clip-path="url(#a)"><path d="M599.188 489.85H62.812a62.76 62.76 0 0 1-27.134-6.169 62.805 62.805 0 0 1-21.806-17.295 62.85 62.85 0 0 1-12.388-52.868l23.958-108.965h611.116l23.958 108.965a62.866 62.866 0 0 1-12.388 52.868 62.798 62.798 0 0 1-21.806 17.295 62.76 62.76 0 0 1-27.134 6.169zM26.916 306.387 3.275 413.912A61.034 61.034 0 0 0 15.3 465.236a60.934 60.934 0 0 0 47.511 22.78h536.377a60.935 60.935 0 0 0 47.511-22.78 61.022 61.022 0 0 0 12.026-51.324l-23.641-107.525H26.916z" fill="#F2F2F2"/><path d="m531.081 71.898 28.136-4.196-4.444-19.584-16.869 8.5-34.8-13.123a7.08 7.08 0 0 0-6.279-4.515 7.07 7.07 0 0 0-6.659 3.931 7.076 7.076 0 0 0-.684 3.977 7.077 7.077 0 0 0 8.993 5.963l32.606 19.047z" fill="#FFB6B6"/><path d="M588.267 57.257c-2.175 8.252-52.299 17.559-52.274 15.774.071-5.074 3.294-15.719 1.454-18.48-1.053-1.58 13.121-5.615 13.121-5.615s7.823-3.013 17.965-6.69a18.07 18.07 0 0 1 17.281 2.389s4.628 4.371 2.453 12.622z" fill="#F40638"/><path d="M103.38 400.867H85.961c-3.89 0-7.62 1.546-10.372 4.298a14.684 14.684 0 0 0 0 20.757 14.666 14.666 0 0 0 10.372 4.299h17.419c3.89 0 7.621-1.547 10.372-4.299a14.686 14.686 0 0 0 0-20.757 14.666 14.666 0 0 0-10.372-4.298zM159.302 400.867h-17.419c-3.89 0-7.621 1.546-10.371 4.298a14.684 14.684 0 0 0 0 20.757 14.663 14.663 0 0 0 10.371 4.299h17.419c3.89 0 7.621-1.547 10.372-4.299a14.686 14.686 0 0 0 0-20.757 14.666 14.666 0 0 0-10.372-4.298zM215.224 400.867h-17.419c-3.89 0-7.621 1.546-10.372 4.298a14.687 14.687 0 0 0 0 20.757 14.667 14.667 0 0 0 10.372 4.299h17.419c3.89 0 7.621-1.547 10.372-4.299a14.686 14.686 0 0 0 0-20.757 14.666 14.666 0 0 0-10.372-4.298zM271.146 400.867h-17.419c-3.89 0-7.621 1.546-10.371 4.298a14.684 14.684 0 0 0 0 20.757 14.663 14.663 0 0 0 10.371 4.299h17.419c3.89 0 7.621-1.547 10.372-4.299a14.686 14.686 0 0 0 0-20.757 14.666 14.666 0 0 0-10.372-4.298zM327.068 400.867h-17.419c-3.89 0-7.621 1.546-10.372 4.298a14.687 14.687 0 0 0 0 20.757 14.667 14.667 0 0 0 10.372 4.299h17.419c3.89 0 7.621-1.547 10.372-4.299a14.686 14.686 0 0 0 0-20.757 14.666 14.666 0 0 0-10.372-4.298zM382.99 400.867h-17.419c-3.89 0-7.621 1.546-10.372 4.298a14.687 14.687 0 0 0 0 20.757 14.667 14.667 0 0 0 10.372 4.299h17.419c3.89 0 7.621-1.547 10.372-4.299a14.686 14.686 0 0 0 0-20.757 14.666 14.666 0 0 0-10.372-4.298zM438.912 400.867h-17.419c-3.89 0-7.621 1.546-10.372 4.298a14.687 14.687 0 0 0 0 20.757 14.667 14.667 0 0 0 10.372 4.299h17.419c3.89 0 7.621-1.547 10.372-4.299a14.686 14.686 0 0 0 0-20.757 14.666 14.666 0 0 0-10.372-4.298zM494.834 400.867h-17.419c-3.89 0-7.621 1.546-10.372 4.298a14.687 14.687 0 0 0 0 20.757 14.667 14.667 0 0 0 10.372 4.299h17.419c3.89 0 7.621-1.547 10.372-4.299a14.686 14.686 0 0 0 0-20.757 14.666 14.666 0 0 0-10.372-4.298zM550.756 400.867h-17.418a14.662 14.662 0 0 0-10.372 4.298 14.684 14.684 0 0 0 0 20.757 14.663 14.663 0 0 0 10.372 4.299h17.418c3.89 0 7.621-1.547 10.372-4.299a14.682 14.682 0 0 0 0-20.757 14.666 14.666 0 0 0-10.372-4.298zM103.38 339.406H85.961c-3.89 0-7.62 1.547-10.372 4.299a14.683 14.683 0 0 0 0 20.756 14.662 14.662 0 0 0 10.372 4.299h17.419c3.89 0 7.621-1.546 10.372-4.299a14.683 14.683 0 0 0 0-20.756 14.667 14.667 0 0 0-10.372-4.299zM159.302 339.406h-17.419c-3.89 0-7.621 1.547-10.371 4.299a14.683 14.683 0 0 0 0 20.756 14.658 14.658 0 0 0 10.371 4.299h17.419c3.89 0 7.621-1.546 10.372-4.299a14.683 14.683 0 0 0 0-20.756 14.667 14.667 0 0 0-10.372-4.299z" fill="#DADADA"/><path d="M215.224 339.406h-17.419c-3.89 0-7.621 1.547-10.372 4.299a14.686 14.686 0 0 0 0 20.756 14.663 14.663 0 0 0 10.372 4.299h17.419c3.89 0 7.621-1.546 10.372-4.299a14.683 14.683 0 0 0 0-20.756 14.667 14.667 0 0 0-10.372-4.299z" fill="#F40638"/><path d="M271.146 339.406h-17.419c-3.89 0-7.621 1.547-10.371 4.299a14.683 14.683 0 0 0 0 20.756 14.658 14.658 0 0 0 10.371 4.299h17.419c3.89 0 7.621-1.546 10.372-4.299a14.683 14.683 0 0 0 0-20.756 14.667 14.667 0 0 0-10.372-4.299zM327.068 339.406h-17.419c-3.89 0-7.621 1.547-10.372 4.299a14.686 14.686 0 0 0 0 20.756 14.663 14.663 0 0 0 10.372 4.299h17.419c3.89 0 7.621-1.546 10.372-4.299a14.683 14.683 0 0 0 0-20.756 14.667 14.667 0 0 0-10.372-4.299zM382.99 339.406h-17.419c-3.89 0-7.621 1.547-10.372 4.299a14.686 14.686 0 0 0 0 20.756 14.663 14.663 0 0 0 10.372 4.299h17.419c3.89 0 7.621-1.546 10.372-4.299a14.683 14.683 0 0 0 0-20.756 14.667 14.667 0 0 0-10.372-4.299zM438.912 339.406h-17.419c-3.89 0-7.621 1.547-10.372 4.299a14.686 14.686 0 0 0 0 20.756 14.663 14.663 0 0 0 10.372 4.299h17.419c3.89 0 7.621-1.546 10.372-4.299a14.683 14.683 0 0 0 0-20.756 14.667 14.667 0 0 0-10.372-4.299zM494.834 339.406h-17.419c-3.89 0-7.621 1.547-10.372 4.299a14.686 14.686 0 0 0 0 20.756 14.663 14.663 0 0 0 10.372 4.299h17.419c3.89 0 7.621-1.546 10.372-4.299a14.683 14.683 0 0 0 0-20.756 14.667 14.667 0 0 0-10.372-4.299zM550.756 339.406h-17.418a14.663 14.663 0 0 0-10.372 4.299 14.683 14.683 0 0 0 0 20.756 14.659 14.659 0 0 0 10.372 4.299h17.418c3.89 0 7.621-1.546 10.372-4.299a14.682 14.682 0 0 0 0-20.756 14.667 14.667 0 0 0-10.372-4.299zM129.507 371.054h-17.418c-3.89 0-7.621 1.546-10.372 4.299a14.68 14.68 0 0 0 10.372 25.055h17.418c3.89 0 7.621-1.547 10.372-4.299a14.682 14.682 0 0 0 0-20.756 14.663 14.663 0 0 0-10.372-4.299zM185.429 371.054h-17.418c-3.89 0-7.621 1.546-10.372 4.299a14.682 14.682 0 0 0 0 20.756 14.667 14.667 0 0 0 10.372 4.299h17.418c3.89 0 7.621-1.547 10.372-4.299a14.682 14.682 0 0 0 0-20.756 14.663 14.663 0 0 0-10.372-4.299zM241.351 371.054h-17.418c-3.89 0-7.621 1.546-10.372 4.299a14.682 14.682 0 0 0 0 20.756 14.667 14.667 0 0 0 10.372 4.299h17.418c3.89 0 7.621-1.547 10.372-4.299a14.682 14.682 0 0 0 0-20.756 14.663 14.663 0 0 0-10.372-4.299zM297.273 371.054h-17.418a14.659 14.659 0 0 0-10.372 4.299 14.682 14.682 0 0 0 0 20.756 14.663 14.663 0 0 0 10.372 4.299h17.418c3.89 0 7.621-1.547 10.372-4.299a14.682 14.682 0 0 0 0-20.756 14.663 14.663 0 0 0-10.372-4.299zM353.195 371.054h-17.418c-3.89 0-7.621 1.546-10.372 4.299a14.682 14.682 0 0 0 0 20.756 14.667 14.667 0 0 0 10.372 4.299h17.418c3.89 0 7.621-1.547 10.372-4.299a14.682 14.682 0 0 0 0-20.756 14.663 14.663 0 0 0-10.372-4.299zM409.117 371.054h-17.418c-3.89 0-7.621 1.546-10.372 4.299a14.682 14.682 0 0 0 0 20.756 14.667 14.667 0 0 0 10.372 4.299h17.418c3.89 0 7.621-1.547 10.372-4.299a14.682 14.682 0 0 0 0-20.756 14.663 14.663 0 0 0-10.372-4.299zM465.039 371.054h-17.418c-3.89 0-7.621 1.546-10.372 4.299a14.682 14.682 0 0 0 0 20.756 14.667 14.667 0 0 0 10.372 4.299h17.418c3.891 0 7.621-1.547 10.372-4.299a14.682 14.682 0 0 0 0-20.756 14.66 14.66 0 0 0-10.372-4.299zM520.961 371.054h-17.418c-3.89 0-7.621 1.546-10.372 4.299a14.682 14.682 0 0 0 0 20.756 14.667 14.667 0 0 0 10.372 4.299h17.418c3.891 0 7.621-1.547 10.372-4.299a14.682 14.682 0 0 0 0-20.756 14.66 14.66 0 0 0-10.372-4.299zM576.883 371.054h-17.418c-3.89 0-7.621 1.546-10.372 4.299a14.682 14.682 0 0 0 0 20.756 14.667 14.667 0 0 0 10.372 4.299h17.418c3.89 0 7.621-1.547 10.372-4.299a14.682 14.682 0 0 0 0-20.756 14.663 14.663 0 0 0-10.372-4.299z" fill="#DADADA"/><path d="M512.373 305.466H150.472a21.673 21.673 0 0 1-15.304-6.353 21.696 21.696 0 0 1-6.348-15.313l.023-.206c12.804-55.432 12.799-124.922-.015-218.69l-.008-.125a21.69 21.69 0 0 1 6.349-15.312 21.669 21.669 0 0 1 15.303-6.353h361.901a21.669 21.669 0 0 1 15.303 6.353 21.695 21.695 0 0 1 6.349 15.312l-.02.192a520.312 520.312 0 0 0 0 218.638l.02.192a21.695 21.695 0 0 1-6.349 15.312 21.67 21.67 0 0 1-15.303 6.353z" fill="#fff"/><path d="M512.373 305.466H150.472a21.673 21.673 0 0 1-15.304-6.353 21.696 21.696 0 0 1-6.348-15.313l.023-.206c12.804-55.432 12.799-124.922-.015-218.69l-.008-.125a21.69 21.69 0 0 1 6.349-15.312 21.669 21.669 0 0 1 15.303-6.353h361.901a21.669 21.669 0 0 1 15.303 6.353 21.695 21.695 0 0 1 6.349 15.312l-.02.192a520.312 520.312 0 0 0 0 218.638l.02.192a21.695 21.695 0 0 1-6.349 15.312 21.67 21.67 0 0 1-15.303 6.353zm-381.719-21.563a19.862 19.862 0 0 0 5.847 13.95 19.836 19.836 0 0 0 13.971 5.778h361.901a19.833 19.833 0 0 0 13.973-5.781 19.857 19.857 0 0 0 5.845-13.954 522.13 522.13 0 0 1 0-219.213 19.856 19.856 0 0 0-5.845-13.954 19.833 19.833 0 0 0-13.973-5.78H150.472a19.836 19.836 0 0 0-13.986 5.793 19.86 19.86 0 0 0-5.833 13.975c12.828 93.905 12.829 163.562.001 219.186z" fill="#E6E6E6"/><path d="M474.436 107.784H181.991a5.963 5.963 0 0 1 0-11.925h292.445a5.96 5.96 0 0 1 5.959 5.963 5.96 5.96 0 0 1-5.959 5.962zM474.436 136.68H181.991a5.965 5.965 0 0 1-4.213-10.179 5.956 5.956 0 0 1 4.213-1.746h292.445a5.96 5.96 0 0 1 5.959 5.962 5.96 5.96 0 0 1-5.959 5.963zM474.436 165.575H181.991a5.963 5.963 0 0 1 0-11.925h292.445a5.961 5.961 0 0 1 5.959 5.963 5.96 5.96 0 0 1-5.959 5.962zM474.436 194.471H181.991a5.963 5.963 0 0 1 0-11.926h292.445a5.961 5.961 0 0 1 5.959 5.963 5.961 5.961 0 0 1-5.959 5.963zM474.436 223.366H181.991a5.965 5.965 0 0 1-4.213-10.179 5.956 5.956 0 0 1 4.213-1.746h292.445a5.96 5.96 0 0 1 5.959 5.962 5.96 5.96 0 0 1-5.959 5.963z" fill="#E6E6E6"/><path d="M313.087 252.262H181.991a5.963 5.963 0 0 1 0-11.926h131.096a5.96 5.96 0 0 1 5.959 5.963 5.96 5.96 0 0 1-5.959 5.963z" fill="#F40638"/><path d="M329.755 297.669h-24.132a2.429 2.429 0 0 1-1.896-.936 2.906 2.906 0 0 1-.551-2.433l11.356-51.411a2.475 2.475 0 0 1 4.878-.075l12.775 51.411a2.907 2.907 0 0 1-.511 2.481 2.444 2.444 0 0 1-1.919.963z" fill="#E6E6E6"/><path d="M633.034 316.932H29.81c-3.282 0-6.43-1.305-8.751-3.627a12.387 12.387 0 0 1 8.751-21.14h603.224a12.37 12.37 0 0 1 8.752 3.627 12.386 12.386 0 0 1-8.752 21.14z" fill="#F2F2F2"/><path d="M556.647 285.92h-8.803l-4.187-33.973 12.992.001-.002 33.972z" fill="#FFB6B6"/><path d="m558.892 294.458-28.383-.001v-.359a11.055 11.055 0 0 1 11.047-11.054h.001l5.185-3.936 9.673 3.937h2.477v11.413z" fill="#2F2E41"/><path d="m636.182 274.469-7.878 3.929-18.894-28.536 11.628-5.799 15.144 30.406z" fill="#FFB6B6"/><path d="m641.998 281.108-25.403 12.668-.16-.321a11.06 11.06 0 0 1 4.959-14.824l.001-.001 2.885-5.836 10.412-.795 2.218-1.106 5.088 10.215zM552.747 131.628l48.538 1.7 3.629 6.744s3.801 27.592 1.854 29.54c-1.946 1.948-2.92 1.948-1.946 5.357.973 3.409 3.489 35.979 3.489 35.979s20.051 41.615 21.024 44.05c.974 2.435 1.947 1.461.974 2.435a35.938 35.938 0 0 0-2.434 2.921h-15.863s-8.542-21.559-16.361-29.898a47.385 47.385 0 0 1-12.479-26.765l-6.578-31.157-14.113 47.723s-2.434 47.237-1.947 49.672l.487 2.435-18.698.209s-1.947-4.105-.974-5.566c.974-1.461.915-1.062-.272-3.453-1.188-2.391-.701-6.442-.701-6.442s7.018-95.779 7.018-97.239a4.864 4.864 0 0 0-.405-2.191v-1.983l1.865-7.027 3.893-17.044z" fill="#2F2E41"/><path d="M573.674 43.508c-3.159 1.88-5.049 5.333-6.134 8.847a83.916 83.916 0 0 0-3.6 20.03l-1.146 20.351a83.83 83.83 0 0 1-10.659 37.411 6.535 6.535 0 0 0-.267 5.735 6.541 6.541 0 0 0 4.355 3.736c17.592 4.619 50.91-1.18 50.91-1.18s1.42-.473 0-1.893c-1.419-1.42-4.602-8.521-4.602-8.521l3.784-24.874 4.73-50.175c-5.676-7.1-17.093-11.285-17.093-11.285l-2.95-5.313-14.749 1.18-2.579 5.951z" fill="#F40638"/><path d="M583.037 33.289c7.825 0 14.169-6.348 14.169-14.178 0-7.83-6.344-14.177-14.169-14.177s-14.169 6.347-14.169 14.177c0 7.83 6.344 14.178 14.169 14.178z" fill="#FFB8B8"/><path d="M600.495 18.27a24.67 24.67 0 0 1-3.37 8.079 5.489 5.489 0 0 1-1.838 2.088 2.009 2.009 0 0 1-2.553-.32l-.345-.28a7.324 7.324 0 0 0 1.788-1.552 2.5 2.5 0 0 0 .478-2.229 1.532 1.532 0 0 0-1.876-1.003c-.83.326-1.334 1.526-2.202 1.341-.702-.153-.849-1.079-.849-1.807.025-3.806-1.813-9.216-3.236-9.05a11.468 11.468 0 0 1-4.244-.568 11.116 11.116 0 0 0-4.251-.543c-.102.013-.204.032-.313.051a9.432 9.432 0 0 0-.945-2.063c.045.781.007 1.565-.114 2.338a21.842 21.842 0 0 1-3.536 1.117c-1.315.186-4.206 4.12-4.34 3.717a9.429 9.429 0 0 0-.945-2.062c.045.78.006 1.564-.115 2.337-.006.032-.006.057-.013.09-.638-.85-1.027-1.885-.81-1.093-2.138-4.84-1.309-8.308 2.055-12.39a6.465 6.465 0 0 1 2.521-2.024 3.178 3.178 0 0 1 3.102.307A10.434 10.434 0 0 1 584.896.54c3.504 1.22 6.204 1.935 6.74 5.614a7.796 7.796 0 0 1 7.474 3.64 11.793 11.793 0 0 1 1.385 8.475z" fill="#2F2E41"/><path d="m615.616 110.397.023-28.463-20.014 1.495 5.901 17.952-18.128 32.492a7.073 7.073 0 0 0-5.393 5.544 7.074 7.074 0 0 0 2.898 7.172 7.077 7.077 0 0 0 7.728.234 7.076 7.076 0 0 0 3.327-6.983l23.658-29.443z" fill="#FFB6B6"/><path d="M609.622 51.639c7.833 3.375 9.603 54.355 7.842 54.066-5.004-.823-15.047-5.59-18.049-4.177-1.717.807-3.605-13.817-3.605-13.817s-1.818-8.188-3.95-18.769a18.094 18.094 0 0 1 4.923-16.747s5.006-3.931 12.839-.556z" fill="#F40638"/><path d="M125.905 366.184a4.815 4.815 0 0 1-1.561-3.755 4.805 4.805 0 0 1 1.875-3.608l-5.378-16.207 8.566 2.302 3.793 15.038a4.838 4.838 0 0 1-.882 6.357 4.826 4.826 0 0 1-6.413-.127z" fill="#FFB6B6"/><path d="M141.429 278.124c1.421.816 9.829-1.204 11.471-.63-.906 5.535 4.018 3.458-1.329 10.726-5.347 7.268-16.115 29.059-18.562 37.204-2.446 8.144-.025 19.622-.391 23.482a40.093 40.093 0 0 0 .033 6.719c-2.889-.037-5.736.563-8.67.18-3.128-8.859-5.232-21.468-6.661-28.437-1.428-6.968-1.48-4.021-.825-7.506.655-3.484.814-.952.126-4.286-.689-3.333 2.095-7.522 4.666-9.91 1.109-3.191 2.542-6.167 3.64-9.325 8.044-7.022 8.573-11.078 16.502-18.217z" fill="#3F3D56"/><path d="M216.725 355.909a4.797 4.797 0 0 1-5.1-2.874 4.808 4.808 0 0 1-.381-2.047l-15.923-6.148 7.22-5.153 14.014 6.628a4.831 4.831 0 0 1 .17 9.594z" fill="#FFB6B6"/><path d="M158.648 287.948c1.533-.58 5.319-8.359 6.806-9.262 3.694 4.217 5.221-.906 7.43 7.844 2.21 8.749 12.179 30.919 16.908 37.985 4.729 7.066 15.124 12.491 17.869 15.227a39.989 39.989 0 0 0 5.205 4.245c-1.865 2.208-3.211 4.789-5.372 6.812-8.823-3.213-19.889-9.603-26.174-12.928-6.284-3.326-4.044-1.413-6.316-4.134-2.272-2.72-.218-1.234-3.227-2.821-3.009-1.587-4.472-6.399-4.68-9.904-1.758-2.884-3.143-5.883-4.881-8.738-.305-10.677-3.099-13.664-3.568-24.326z" fill="#3F3D56"/><path d="m170.629 336.095 7.946 35.483-50.92-3.17 13.847-34.847 29.127 2.534zM162.15 499.86l5.72-.001 2.721-22.075h-8.442l.001 22.076z" fill="#FFB6B6"/><path d="m160.213 497.037 9.042-.54v3.876l8.596 5.94a2.421 2.421 0 0 1-1.375 4.414h-10.764l-1.856-3.834-.724 3.834h-4.059l1.14-13.69z" fill="#2F2E41"/><path d="m108.09 497.013 5.589 1.212 7.337-20.996-8.25-1.791-4.676 21.575z" fill="#FFB6B6"/><path d="m106.795 493.842 8.951 1.391-.822 3.788 7.143 7.629a2.42 2.42 0 0 1 .339 2.85 2.425 2.425 0 0 1-2.618 1.172l-10.52-2.284-1.001-4.141-1.521 3.594-3.966-.861 4.015-13.138zM179.875 401.248c-4.014 22.075-5.018 31.606-5.018 31.606s3.011 3.512 1.004 5.521c-2.007 2.008 0 6.019 0 6.019l-4.513 48.666-3.633-.589-8.752-1.408-3.156-.511 2.007-45.653s-2.007-4.017-1.004-5.021c1.004-1.004-1.003-7.024-1.003-7.024l-2.506-47.661-15.547 52.177s1.508 2.009 0 3.512c-1.503 1.504-4.508 9.032-4.508 9.032l-9.245 32.369-.785 2.749-4.821-.903-5.248-.987-.964-.18-1.716-.325-1.104-.208-.376-.067-1.817-.342.55-2.441.286-1.284 7.821-34.759.179-.803.191-.847s-1.004-2.507.499-4.016a3.928 3.928 0 0 0 1.003-3.512 2.083 2.083 0 0 1-.493-.987 2.714 2.714 0 0 1 .998-2.525c.286-.304.526-.648.712-1.021 1.525-2.889 2.293-9.009 2.293-9.009s1.357-48.476 5.797-55.881c.236-.387 4.949-7.818 5.196-7.969 5.012-3.007 44.062 1.146 44.062 1.146s2.365 6.358 2.472 7.02c.577 3.719 4.542 17.39 1.139 36.116z" fill="#2F2E41"/><path d="M168.01 284.485s.845-4.389-7.274-12.513c-4.299-1.434-11.746-.598-14.328 0-11.94 15.77-9.803 12.988-12.911 21.799a12.425 12.425 0 0 0-.85 6.273c1.432 7.168 3.759 43.965 3.281 45.877-.478 1.911-3.821 4.301-.478 4.301 3.344 0 46.457-.755 45.502-2.189-.955-1.434-12.942-63.548-12.942-63.548z" fill="#3F3D56"/><path d="M154.543 269.216c7.563 0 13.694-6.135 13.694-13.703 0-7.567-6.131-13.702-13.694-13.702-7.563 0-13.694 6.135-13.694 13.702 0 7.568 6.131 13.703 13.694 13.703z" fill="#FFB6B6"/><path d="M142.941 260.694c-.074 1.662-1.115 3.095-1.919 4.549a18.166 18.166 0 0 0-.168 16.934c1.118 2.121 2.665 4.015 3.552 6.243a7.103 7.103 0 0 1-.055 5.982c-2.401-2.311-3.572-1.091-6.298-3.108 1.072 3.006.159 3.104 1.235 6.107-4.627 1.321-9.254 2.646-13.884 3.975a16.75 16.75 0 0 0 4.787-19.705c-1.692-3.631-4.717-6.624-5.818-10.483a11.371 11.371 0 0 1 3.497-11.749 11.354 11.354 0 0 1 12.126-1.747c1.557-.445 3.021 1.367 2.945 3.002z" fill="#2F2E41"/><path d="M160.142 240.155c-1.842-4.026-6.701-3.207-11.094-2.676a13.653 13.653 0 0 0-10.23 7.597 18.679 18.679 0 0 0-1.012 12.959 14.203 14.203 0 0 0 4.48 7.558c2.32 1.867 13.228 6.282 14.136 2.48-1.135 4.961-4.089 7.785-.709 11.587 1.751-5.262 9.155-10.261 10.905-15.523.264-.792-.818-10.102-.555-10.894.556-1.67 1.112-3.343 1.513-5.056.505-2.153.699-4.621-.637-6.381-1.337-1.761-4.703-1.829-5.378.276" fill="#2F2E41"/><path d="m157.937 256.912-.585-3.728c.397-4.638-.252-12.014 2.79-13.029l1.86 1.861c-1.177.393-3.415 7.328-4.065 14.896z" fill="#FF6584"/><path d="M291.334 510.909a1.074 1.074 0 0 1-.318.772 1.09 1.09 0 0 1-.773.319H33.286a1.09 1.09 0 0 1-1.09-1.091 1.09 1.09 0 0 1 1.09-1.092h256.957a1.09 1.09 0 0 1 1.091 1.092z" fill="#CCC"/><path d="M425.848 443.067H236.997a14.663 14.663 0 0 0-10.372 4.299 14.683 14.683 0 0 0 0 20.757 14.662 14.662 0 0 0 10.372 4.298h188.851c3.89 0 7.621-1.546 10.372-4.298a14.683 14.683 0 0 0 0-20.757 14.667 14.667 0 0 0-10.372-4.299z" fill="#DADADA"/></g><defs><clipPath id="a"><path fill="#fff" d="M0 0h662v512H0z"/></clipPath></defs></svg>