<svg width="710" height="441" viewBox="0 0 710 441" fill="none" xmlns="http://www.w3.org/2000/svg">
<g clip-path="url(#clip0_787_733)">
<path d="M171.969 397.509L172.758 379.746C180.988 375.344 190.167 373.019 199.499 372.972C186.656 383.48 188.261 403.734 179.553 417.864C176.804 422.25 173.103 425.96 168.726 428.721C164.348 431.481 159.406 433.221 154.266 433.81L143.518 440.395C142.043 432.168 142.369 423.719 144.471 415.63C146.574 407.54 150.404 400.004 155.698 393.538C158.703 389.941 162.15 386.736 165.956 384.001C168.53 390.792 171.969 397.509 171.969 397.509Z" fill="#F2F2F2"/>
<path d="M630.561 28.9414H130.238C130.028 28.9367 129.828 28.85 129.681 28.6998C129.534 28.5495 129.452 28.3476 129.452 28.1374C129.452 27.9272 129.534 27.7254 129.681 27.5751C129.828 27.4248 130.028 27.3381 130.238 27.3335H630.561C630.771 27.3381 630.971 27.4248 631.118 27.5751C631.265 27.7254 631.347 27.9272 631.347 28.1374C631.347 28.3476 631.265 28.5495 631.118 28.6998C630.971 28.85 630.771 28.9367 630.561 28.9414Z" fill="#CACACA"/>
<path d="M147.926 17.6864C152.7 17.6864 156.571 13.7272 156.571 8.8432C156.571 3.95924 152.7 0 147.926 0C143.152 0 139.281 3.95924 139.281 8.8432C139.281 13.7272 143.152 17.6864 147.926 17.6864Z" fill="#3F3D56"/>
<path d="M177.789 17.6864C182.564 17.6864 186.434 13.7272 186.434 8.8432C186.434 3.95924 182.564 0 177.789 0C173.015 0 169.145 3.95924 169.145 8.8432C169.145 13.7272 173.015 17.6864 177.789 17.6864Z" fill="#3F3D56"/>
<path d="M207.653 17.6864C212.427 17.6864 216.297 13.7272 216.297 8.8432C216.297 3.95924 212.427 0 207.653 0C202.878 0 199.008 3.95924 199.008 8.8432C199.008 13.7272 202.878 17.6864 207.653 17.6864Z" fill="#3F3D56"/>
<path d="M612.666 2.19189H591.453C591.032 2.20025 590.632 2.37326 590.337 2.67378C590.043 2.9743 589.878 3.37836 589.878 3.7992C589.878 4.22004 590.043 4.6241 590.337 4.92462C590.632 5.22514 591.032 5.39815 591.453 5.40651H612.666C613.086 5.39815 613.487 5.22514 613.781 4.92462C614.076 4.6241 614.241 4.22004 614.241 3.7992C614.241 3.37836 614.076 2.9743 613.781 2.67378C613.487 2.37326 613.086 2.20025 612.666 2.19189Z" fill="#3F3D56"/>
<path d="M612.666 8.22522H591.453C591.032 8.23357 590.632 8.40659 590.337 8.7071C590.043 9.00762 589.878 9.41168 589.878 9.83253C589.878 10.2534 590.043 10.6574 590.337 10.9579C590.632 11.2585 591.032 11.4315 591.453 11.4398H612.666C613.086 11.4315 613.487 11.2585 613.781 10.9579C614.076 10.6574 614.241 10.2534 614.241 9.83253C614.241 9.41168 614.076 9.00762 613.781 8.7071C613.487 8.40659 613.086 8.23357 612.666 8.22522Z" fill="#3F3D56"/>
<path d="M612.666 14.2506H591.453C591.032 14.259 590.632 14.432 590.337 14.7325C590.043 15.033 589.878 15.4371 589.878 15.8579C589.878 16.2788 590.043 16.6828 590.337 16.9833C590.632 17.2839 591.032 17.4569 591.453 17.4652H612.666C613.086 17.4569 613.487 17.2839 613.781 16.9833C614.076 16.6828 614.241 16.2788 614.241 15.8579C614.241 15.4371 614.076 15.033 613.781 14.7325C613.487 14.432 613.086 14.259 612.666 14.2506Z" fill="#3F3D56"/>
<path d="M519.622 91.9581H176.213C174.521 91.9582 172.898 92.6303 171.701 93.8269C170.504 95.0235 169.83 96.6466 169.828 98.3398V260.551C169.83 262.245 170.503 263.869 171.7 265.067C172.897 266.265 174.52 266.939 176.213 266.941H519.622C521.314 266.937 522.935 266.263 524.131 265.065C525.326 263.867 525.998 262.244 526 260.551V98.3398C525.998 96.6478 525.325 95.0256 524.13 93.8292C522.934 92.6328 521.313 91.9599 519.622 91.9581Z" fill="#3F3D56"/>
<path d="M428.914 170.106C427.223 170.108 425.602 170.781 424.406 171.978C423.21 173.174 422.538 174.796 422.536 176.488V222.308C422.538 224.001 423.21 225.624 424.405 226.822C425.601 228.02 427.222 228.694 428.914 228.698H526V170.106H428.914Z" fill="#6C63FF"/>
<path opacity="0.5" d="M689.245 228.695H428.917C427.225 228.693 425.603 228.019 424.406 226.822C423.21 225.625 422.536 224.001 422.535 222.308V176.49C422.536 174.797 423.21 173.173 424.406 171.976C425.603 170.779 427.225 170.105 428.917 170.103H689.245C690.937 170.105 692.56 170.779 693.756 171.976C694.953 173.173 695.626 174.797 695.628 176.49V222.308C695.626 224.001 694.953 225.625 693.756 226.822C692.56 228.019 690.937 228.693 689.245 228.695Z" fill="#6C63FF"/>
<path d="M464.123 212.692C469.843 212.692 474.479 208.052 474.479 202.328C474.479 196.604 469.843 191.964 464.123 191.964C458.403 191.964 453.766 196.604 453.766 202.328C453.766 208.052 458.403 212.692 464.123 212.692Z" fill="white"/>
<path d="M681.179 199.317H494.038C493.22 199.317 492.436 198.992 491.857 198.413C491.279 197.834 490.954 197.049 490.954 196.231C490.954 195.412 491.279 194.627 491.857 194.048C492.436 193.47 493.22 193.144 494.038 193.144H681.179C681.997 193.144 682.782 193.47 683.36 194.048C683.938 194.627 684.263 195.412 684.263 196.231C684.263 197.049 683.938 197.834 683.36 198.413C682.782 198.992 681.997 199.317 681.179 199.317Z" fill="white"/>
<path d="M610.101 211.512H494.038C493.22 211.512 492.436 211.186 491.857 210.608C491.279 210.029 490.954 209.244 490.954 208.425C490.954 207.607 491.279 206.822 491.857 206.243C492.436 205.664 493.22 205.339 494.038 205.339H610.101C610.919 205.339 611.704 205.664 612.282 206.243C612.86 206.822 613.185 207.607 613.185 208.425C613.185 209.244 612.86 210.029 612.282 210.608C611.704 211.186 610.919 211.512 610.101 211.512Z" fill="white"/>
<path d="M119.799 431.944L128.763 431.943L133.027 397.348H119.798L119.799 431.944Z" fill="#FFB6B6"/>
<path d="M117.513 429.015L120.036 429.015L129.886 425.006L135.165 429.014H135.166C138.149 429.014 141.01 430.2 143.12 432.311C145.229 434.422 146.415 437.285 146.415 440.27V440.636L117.514 440.637L117.513 429.015Z" fill="#2F2E41"/>
<path d="M38.8115 420.282L46.834 424.283L66.0723 395.224L54.2329 389.319L38.8115 420.282Z" fill="#FFB6B6"/>
<path d="M38.0707 416.641L40.3287 417.767L50.9309 418.576L53.8691 424.52L53.8697 424.52C56.5397 425.852 58.5716 428.19 59.5186 431.021C60.4656 433.852 60.25 436.944 58.9194 439.616L58.7563 439.943L32.8899 427.043L38.0707 416.641Z" fill="#2F2E41"/>
<path d="M123.771 274.823L66.7806 276.311L67.7718 304.081C67.7718 304.081 66.7806 311.519 68.7629 313.503C70.7452 315.487 71.7363 315.487 70.7452 318.958C69.754 322.429 67.1917 355.596 67.1917 355.596C67.1917 355.596 43.8012 396.982 44.7924 397.974C45.7835 398.966 46.7746 397.974 45.7835 400.454C44.7924 402.933 43.8012 401.941 44.7924 402.933C45.6703 403.88 46.4974 404.874 47.2702 405.909H63.4239C63.4239 405.909 64.3273 400.95 64.3273 400.454C64.3273 399.958 65.3184 396.982 65.3184 396.487C65.3184 395.991 93.5413 366.068 93.5413 366.068L99.4881 316.478L113.86 365.077C113.86 365.077 113.86 407.724 114.851 408.716C115.842 409.708 115.842 409.212 115.346 411.195C114.851 413.179 112.868 412.683 114.355 414.171C115.842 415.658 116.337 413.179 115.842 415.658L115.346 418.138L134.386 418.351C134.386 418.351 136.368 414.171 135.377 412.683C134.386 411.195 134.445 411.602 135.654 409.167C136.863 406.732 137.359 406.236 136.863 405.74C136.368 405.245 136.368 402.607 136.368 402.607C136.368 402.607 129.222 305.073 129.222 303.585C129.185 302.82 129.326 302.056 129.634 301.354V299.335L127.735 292.179L123.771 274.823Z" fill="#2F2E41"/>
<path d="M688.132 188.718C683.806 188.718 679.578 187.435 675.982 185.03C672.386 182.626 669.583 179.208 667.928 175.209C666.273 171.211 665.84 166.811 666.683 162.566C667.527 158.321 669.61 154.422 672.668 151.361C675.727 148.301 679.623 146.217 683.865 145.372C688.107 144.528 692.504 144.961 696.5 146.618C700.496 148.274 703.912 151.079 706.315 154.677C708.718 158.276 710 162.507 710 166.835C710 172.639 707.696 178.205 703.595 182.309C699.494 186.413 693.932 188.718 688.132 188.718Z" fill="#302D62"/>
<path d="M696.76 164.676H690.289V158.201C690.289 157.628 690.061 157.079 689.657 156.674C689.252 156.269 688.704 156.042 688.132 156.042C687.559 156.042 687.011 156.269 686.606 156.674C686.202 157.079 685.974 157.628 685.974 158.201V164.676H679.503C679.219 164.676 678.938 164.731 678.676 164.84C678.414 164.948 678.175 165.107 677.975 165.307C677.774 165.508 677.615 165.746 677.506 166.008C677.397 166.27 677.341 166.551 677.341 166.835C677.341 167.119 677.397 167.4 677.506 167.662C677.615 167.924 677.774 168.162 677.975 168.363C678.175 168.563 678.414 168.722 678.676 168.831C678.938 168.939 679.219 168.994 679.503 168.994H685.974V175.47C685.974 176.042 686.202 176.591 686.606 176.996C687.011 177.401 687.559 177.628 688.132 177.628C688.704 177.628 689.252 177.401 689.657 176.996C690.061 176.591 690.289 176.042 690.289 175.47V168.994H696.76C697.332 168.994 697.881 168.766 698.286 168.361C698.69 167.957 698.917 167.408 698.917 166.835C698.917 166.263 698.69 165.714 698.286 165.309C697.881 164.904 697.332 164.676 696.76 164.676Z" fill="white"/>
<path d="M354.386 228.991H271.297C269.604 228.993 267.981 229.667 266.784 230.865C265.587 232.062 264.914 233.687 264.912 235.381V266.941H360.764V235.381C360.762 233.688 360.09 232.065 358.895 230.867C357.699 229.669 356.078 228.994 354.386 228.991Z" fill="#6C63FF"/>
<path opacity="0.5" d="M354.383 317.67H271.294C269.602 317.668 267.98 316.995 266.783 315.797C265.587 314.6 264.914 312.976 264.912 311.283V235.377C264.914 233.684 265.587 232.061 266.783 230.864C267.98 229.666 269.602 228.993 271.294 228.991H354.383C356.075 228.993 357.698 229.666 358.894 230.864C360.091 232.061 360.764 233.684 360.766 235.377V311.283C360.764 312.976 360.091 314.6 358.894 315.797C357.698 316.995 356.075 317.668 354.383 317.67Z" fill="#6C63FF"/>
<path d="M295.775 264.97C301.495 264.97 306.132 260.33 306.132 254.606C306.132 248.882 301.495 244.242 295.775 244.242C290.055 244.242 285.418 248.882 285.418 254.606C285.418 260.33 290.055 264.97 295.775 264.97Z" fill="white"/>
<path d="M337.175 280.722H288.502C287.684 280.722 286.899 280.397 286.321 279.818C285.743 279.24 285.418 278.455 285.418 277.636C285.418 276.818 285.743 276.033 286.321 275.454C286.899 274.875 287.684 274.55 288.502 274.55H337.175C337.993 274.55 338.777 274.875 339.355 275.454C339.934 276.033 340.259 276.818 340.259 277.636C340.259 278.455 339.934 279.24 339.355 279.818C338.777 280.397 337.993 280.722 337.175 280.722Z" fill="white"/>
<path d="M311.989 292.917H288.502C287.684 292.917 286.899 292.592 286.321 292.013C285.743 291.434 285.418 290.649 285.418 289.831C285.418 289.012 285.743 288.227 286.321 287.649C286.899 287.07 287.684 286.745 288.502 286.745H311.989C312.807 286.745 313.592 287.07 314.17 287.649C314.748 288.227 315.073 289.012 315.073 289.831C315.073 290.649 314.748 291.434 314.17 292.013C313.592 292.592 312.807 292.917 311.989 292.917Z" fill="white"/>
<path d="M269.562 339.948C265.237 339.948 261.009 338.664 257.413 336.26C253.816 333.855 251.013 330.437 249.358 326.439C247.703 322.44 247.27 318.04 248.114 313.795C248.958 309.55 251.04 305.651 254.099 302.591C257.157 299.53 261.054 297.446 265.296 296.602C269.538 295.757 273.935 296.191 277.931 297.847C281.927 299.503 285.342 302.308 287.745 305.907C290.148 309.505 291.431 313.736 291.431 318.064C291.431 323.868 289.127 329.434 285.025 333.538C280.924 337.642 275.362 339.948 269.562 339.948Z" fill="#302D62"/>
<path d="M278.191 315.906H271.719V309.43C271.719 308.857 271.492 308.308 271.087 307.903C270.683 307.499 270.134 307.271 269.562 307.271C268.99 307.271 268.441 307.499 268.037 307.903C267.632 308.308 267.405 308.857 267.405 309.43V315.906H260.933C260.65 315.905 260.369 315.961 260.107 316.069C259.844 316.177 259.606 316.336 259.405 316.537C259.204 316.737 259.045 316.975 258.937 317.237C258.828 317.5 258.772 317.781 258.772 318.064C258.772 318.348 258.828 318.629 258.937 318.891C259.045 319.154 259.204 319.392 259.405 319.592C259.606 319.793 259.844 319.952 260.107 320.06C260.369 320.168 260.65 320.224 260.933 320.223H267.405V326.699C267.405 327.272 267.632 327.821 268.037 328.225C268.441 328.63 268.99 328.858 269.562 328.858C270.134 328.858 270.683 328.63 271.087 328.225C271.492 327.821 271.719 327.272 271.719 326.699V320.223H278.191C278.763 320.223 279.312 319.996 279.716 319.591C280.121 319.186 280.348 318.637 280.348 318.064C280.348 317.492 280.121 316.943 279.716 316.538C279.312 316.133 278.763 315.906 278.191 315.906Z" fill="white"/>
<path d="M259.439 180.736H176.351C174.658 180.734 173.036 180.061 171.84 178.863C170.643 177.666 169.97 176.043 169.968 174.349V98.4436C169.97 96.7504 170.643 95.127 171.84 93.9297C173.036 92.7325 174.658 92.059 176.351 92.0571H259.439C261.132 92.059 262.754 92.7325 263.95 93.9297C265.147 95.127 265.82 96.7504 265.822 98.4436V174.349C265.82 176.043 265.147 177.666 263.95 178.863C262.754 180.061 261.132 180.734 259.439 180.736Z" fill="#6C63FF"/>
<path d="M200.831 134.37C206.551 134.37 211.188 129.73 211.188 124.006C211.188 118.283 206.551 113.643 200.831 113.643C195.111 113.643 190.474 118.283 190.474 124.006C190.474 129.73 195.111 134.37 200.831 134.37Z" fill="#6C63FF"/>
<path d="M242.231 146.956H193.558C192.741 146.956 191.956 146.63 191.378 146.052C190.799 145.473 190.474 144.688 190.474 143.869C190.474 143.051 190.799 142.266 191.378 141.687C191.956 141.108 192.741 140.783 193.558 140.783H242.231C243.049 140.783 243.834 141.108 244.412 141.687C244.99 142.266 245.315 143.051 245.315 143.869C245.315 144.688 244.99 145.473 244.412 146.052C243.834 146.63 243.049 146.956 242.231 146.956Z" fill="#6C63FF"/>
<path d="M217.046 159.15H193.559C192.741 159.15 191.956 158.825 191.378 158.247C190.799 157.668 190.474 156.883 190.474 156.064C190.474 155.246 190.799 154.461 191.378 153.882C191.956 153.303 192.741 152.978 193.559 152.978H217.046C217.864 152.978 218.648 153.303 219.227 153.882C219.805 154.461 220.13 155.246 220.13 156.064C220.13 156.883 219.805 157.668 219.227 158.247C218.648 158.825 217.864 159.15 217.046 159.15Z" fill="#6C63FF"/>
<path opacity="0.5" d="M259.439 180.736H176.351C174.658 180.734 173.036 180.061 171.84 178.863C170.643 177.666 169.97 176.043 169.968 174.349V98.4436C169.97 96.7504 170.643 95.127 171.84 93.9297C173.036 92.7325 174.658 92.059 176.351 92.0571H259.439C261.132 92.059 262.754 92.7325 263.95 93.9297C265.147 95.127 265.82 96.7504 265.822 98.4436V174.349C265.82 176.043 265.147 177.666 263.95 178.863C262.754 180.061 261.132 180.734 259.439 180.736Z" fill="#302D62"/>
<path d="M200.831 134.37C206.551 134.37 211.188 129.73 211.188 124.006C211.188 118.283 206.551 113.643 200.831 113.643C195.111 113.643 190.474 118.283 190.474 124.006C190.474 129.73 195.111 134.37 200.831 134.37Z" fill="white"/>
<path d="M242.231 146.956H193.558C192.741 146.956 191.956 146.63 191.378 146.052C190.799 145.473 190.474 144.688 190.474 143.869C190.474 143.051 190.799 142.266 191.378 141.687C191.956 141.108 192.741 140.783 193.558 140.783H242.231C243.049 140.783 243.834 141.108 244.412 141.687C244.99 142.266 245.315 143.051 245.315 143.869C245.315 144.688 244.99 145.473 244.412 146.052C243.834 146.63 243.049 146.956 242.231 146.956Z" fill="white"/>
<path d="M217.046 159.15H193.559C192.741 159.15 191.956 158.825 191.378 158.247C190.799 157.668 190.474 156.883 190.474 156.064C190.474 155.246 190.799 154.461 191.378 153.882C191.956 153.303 192.741 152.978 193.559 152.978H217.046C217.864 152.978 218.648 153.303 219.227 153.882C219.805 154.461 220.13 155.246 220.13 156.064C220.13 156.883 219.805 157.668 219.227 158.247C218.648 158.825 217.864 159.15 217.046 159.15Z" fill="white"/>
<path d="M178.065 108.435C187.242 108.435 194.681 100.991 194.681 91.8077C194.681 82.6247 187.242 75.1804 178.065 75.1804C168.888 75.1804 161.448 82.6247 161.448 91.8077C161.448 100.991 168.888 108.435 178.065 108.435Z" fill="#F40638"/>
<path d="M223.662 440.058C223.662 440.182 223.638 440.305 223.591 440.419C223.544 440.533 223.474 440.637 223.387 440.725C223.299 440.813 223.195 440.882 223.081 440.929C222.966 440.976 222.844 441.001 222.72 441H0.941585C0.691862 441 0.452363 440.901 0.275782 440.724C0.0992009 440.548 0 440.308 0 440.058C0 439.808 0.0992009 439.568 0.275782 439.392C0.452363 439.215 0.691862 439.116 0.941585 439.116H222.72C222.844 439.115 222.966 439.14 223.081 439.187C223.195 439.234 223.299 439.303 223.387 439.391C223.474 439.478 223.544 439.582 223.591 439.697C223.638 439.811 223.662 439.934 223.662 440.058Z" fill="#CCCCCC"/>
<path d="M174.513 135.85C175.196 137.761 175.101 139.864 174.249 141.706C173.397 143.548 171.855 144.981 169.957 145.696C169.537 145.853 169.104 145.972 168.663 146.053L164.274 172.941L153.98 163.43L159.725 139.354C159.513 137.326 160.107 135.295 161.378 133.701C162.65 132.106 164.498 131.077 166.522 130.835C168.225 130.64 169.944 131.03 171.396 131.941C172.848 132.853 173.947 134.231 174.513 135.85L174.513 135.85Z" fill="#FFB6B6"/>
<path d="M98.542 196.776C98.542 196.776 106.532 186.212 135.524 186.502L151.98 180.519L155.741 146.021L168.904 149.157L167.024 191.809L138.817 208.117L101.835 215.644L98.542 196.776Z" fill="#3F3D56"/>
<path d="M94.297 174.769C103.8 174.769 111.505 167.06 111.505 157.55C111.505 148.04 103.8 140.331 94.297 140.331C84.7935 140.331 77.0894 148.04 77.0894 157.55C77.0894 167.06 84.7935 174.769 94.297 174.769Z" fill="#FFB6B6"/>
<path d="M65.1729 288.11C65.1424 288.11 65.112 288.106 65.0826 288.098C64.7649 288.009 64.5139 287.939 65.6604 278.019L66.8978 270.177L65.6898 263.254L63.6579 261.22L66.9236 257.953L69.664 250.163L64.9222 243.132L59.482 214.378C58.5467 209.416 59.2735 204.284 61.5496 199.778C63.8258 195.271 67.5241 191.642 72.0712 189.454L78.3677 187.613L80.6587 183.408C81.3021 182.228 82.2493 181.241 83.4022 180.55C84.5552 179.859 85.8718 179.49 87.2155 179.48L98.7461 179.393C99.9094 179.385 101.059 179.646 102.105 180.156C103.15 180.666 104.063 181.412 104.773 182.335L108.795 187.568L125.477 193.238L122.711 252.876C123.151 253.244 123.509 253.699 123.763 254.213C124.018 254.726 124.163 255.287 124.19 255.86C124.216 256.433 124.124 257.005 123.918 257.54C123.713 258.075 123.399 258.561 122.995 258.969C122.822 259.144 122.684 259.286 122.599 259.381C122.318 259.78 122.846 262.765 123.497 265.299L124.333 269.18C124.065 269.372 123.839 269.617 123.67 269.901C123.502 270.184 123.394 270.499 123.353 270.826C123.312 271.154 123.34 271.486 123.434 271.802C123.528 272.118 123.686 272.411 123.899 272.663L124.965 273.922C125.175 275.501 124.752 277.099 123.786 278.366C122.821 279.633 121.393 280.465 119.816 280.68C104.57 282.756 65.2526 288.11 65.1729 288.11Z" fill="#3F3D56"/>
<path d="M89.8952 173.926C89.8216 173.764 89.7482 173.601 89.675 173.438C89.7033 173.439 89.7312 173.443 89.7594 173.444L89.8952 173.926Z" fill="#2F2E41"/>
<path d="M76.6109 141.114C77.4279 140.342 78.4899 139.883 79.6111 139.816C80.7238 139.852 81.8522 140.857 81.6217 141.947C83.6655 138.326 86.9187 135.541 90.8102 134.081C94.7017 132.62 98.9828 132.579 102.902 133.962C105.668 134.939 108.38 136.892 109.015 139.757C109.077 140.509 109.301 141.239 109.672 141.896C109.994 142.247 110.411 142.497 110.872 142.614C111.334 142.731 111.819 142.71 112.269 142.554L112.296 142.546C112.45 142.494 112.617 142.488 112.774 142.531C112.931 142.574 113.071 142.663 113.177 142.787C113.283 142.911 113.349 143.063 113.367 143.225C113.385 143.387 113.355 143.551 113.279 143.695L112.496 145.155C113.483 145.375 114.508 145.353 115.484 145.091C115.646 145.049 115.817 145.058 115.974 145.116C116.131 145.175 116.266 145.281 116.361 145.42C116.455 145.558 116.505 145.723 116.502 145.89C116.5 146.058 116.445 146.221 116.346 146.356C115.046 148.137 113.348 149.589 111.388 150.597C109.428 151.605 107.26 152.142 105.056 152.164C101.93 152.144 98.7712 151.066 95.7283 151.786C94.5512 152.064 93.4512 152.603 92.5092 153.362C91.5671 154.121 90.8069 155.082 90.2843 156.173C89.7616 157.265 89.4898 158.459 89.4888 159.67C89.4878 160.88 89.7577 162.075 90.2785 163.168C89.3437 162.145 87.5367 162.387 86.5805 163.39C86.1402 163.927 85.8147 164.549 85.6242 165.217C85.4337 165.885 85.3823 166.585 85.4731 167.274C85.7282 169.383 86.354 171.43 87.3217 173.322C83.6245 173.208 80.0512 171.961 77.0846 169.75C74.1179 167.539 71.9009 164.47 70.733 160.958C69.565 157.446 69.5024 153.66 70.5535 150.111C71.6047 146.562 73.719 143.422 76.6109 141.114L76.6109 141.114Z" fill="#2F2E41"/>
<path d="M71.8765 312.806C70.2313 311.619 69.1183 309.832 68.7776 307.831C68.4368 305.83 68.8955 303.775 70.0548 302.11C70.3119 301.742 70.6011 301.398 70.9189 301.082L59.3071 276.439L73.1752 278.438L82.0758 301.533C83.3999 303.084 84.0609 305.094 83.9158 307.128C83.7707 309.163 82.8312 311.059 81.3005 312.406C80.008 313.533 78.3711 314.186 76.6585 314.259C74.946 314.331 73.2597 313.819 71.8765 312.806H71.8765Z" fill="#FFB6B6"/>
<path d="M68.3601 299.35L49.8828 257.795L49.6978 224.975L55.5222 207.246C56.3124 204.841 57.5764 202.619 59.2395 200.711C60.9026 198.803 62.9311 197.248 65.2051 196.138C67.4791 195.027 69.9523 194.385 72.4788 194.247C75.0052 194.11 77.5335 194.481 79.9143 195.338L80.0425 195.384L80.0963 195.51C80.3116 196.012 85.1966 208.104 70.7065 232.978L67.7903 249.999L78.0229 289.013L68.3601 299.35Z" fill="#3F3D56"/>
</g>
<defs>
<clipPath id="clip0_787_733">
<rect width="710" height="441" fill="white"/>
</clipPath>
</defs>
</svg>
