<svg width="686" height="342" fill="none" xmlns="http://www.w3.org/2000/svg"><g clip-path="url(#a)"><path d="M144.942 0a144.419 144.419 0 0 0-56.471 11.39 144.685 144.685 0 0 0-64.39 53.313A144.285 144.285 0 0 0 0 144.673v157.864a6.291 6.291 0 0 0 1.847 4.445 6.312 6.312 0 0 0 4.453 1.843l.125.011C127.852 330.847 245.899 342 357.385 342c1.672 0 3.342-.003 5.01-.008 109.588-.332 216.296-11.486 317.158-33.151l.147-.016a6.313 6.313 0 0 0 4.453-1.843 6.292 6.292 0 0 0 1.847-4.445V6.288a6.29 6.29 0 0 0-1.847-4.444A6.314 6.314 0 0 0 679.7 0H144.942z" fill="#6C63FF"/><path d="M522.06 125.9a4.155 4.155 0 0 0-4.095 4.155 4.155 4.155 0 0 0 4.095 4.154h104.36a4.163 4.163 0 0 0 3.891-2.5 4.147 4.147 0 0 0-2.166-5.467 4.178 4.178 0 0 0-1.589-.342H522.06z" fill="#F40638"/><path d="M650.086 124.744a.82.82 0 0 0 0 1.156l3.516 3.509h-8.67a.82.82 0 0 0-.819.818.82.82 0 0 0 .819.818h8.67l-3.516 3.509a.82.82 0 0 0 .579 1.396.817.817 0 0 0 .579-.24l4.914-4.905a.814.814 0 0 0 0-1.156l-4.914-4.905a.817.817 0 0 0-1.158 0zM498.349 124.744a.803.803 0 0 1 .24.578.82.82 0 0 1-.24.578l-3.516 3.509h8.671a.829.829 0 0 1 .58.239.797.797 0 0 1 .178.266.8.8 0 0 1 0 .626.82.82 0 0 1-.758.505h-8.671l3.516 3.509a.814.814 0 0 1 0 1.156.819.819 0 0 1-1.158 0l-4.914-4.905a.814.814 0 0 1 0-1.156l4.914-4.905a.82.82 0 0 1 1.158 0z" fill="#fff"/><g opacity=".4" fill="#fff"><path d="M526.274 39.672a4.47 4.47 0 0 0 4.473-4.465 4.47 4.47 0 0 0-4.473-4.464 4.47 4.47 0 0 0-4.473 4.464 4.47 4.47 0 0 0 4.473 4.465zM544.911 39.672a4.468 4.468 0 0 0 4.473-4.465 4.468 4.468 0 0 0-4.473-4.464 4.47 4.47 0 0 0-4.473 4.464 4.47 4.47 0 0 0 4.473 4.465zM563.548 39.672a4.468 4.468 0 0 0 4.473-4.465 4.468 4.468 0 0 0-4.473-4.464 4.47 4.47 0 0 0-4.473 4.464 4.47 4.47 0 0 0 4.473 4.465zM582.186 39.672a4.468 4.468 0 0 0 4.472-4.465 4.468 4.468 0 0 0-4.472-4.464 4.468 4.468 0 0 0-4.473 4.464 4.468 4.468 0 0 0 4.473 4.465zM600.823 39.672a4.47 4.47 0 0 0 4.473-4.465 4.47 4.47 0 0 0-4.473-4.464 4.468 4.468 0 0 0-4.473 4.464 4.468 4.468 0 0 0 4.473 4.465zM619.46 39.672a4.47 4.47 0 0 0 4.473-4.465 4.47 4.47 0 0 0-4.473-4.464 4.47 4.47 0 0 0-4.473 4.464 4.47 4.47 0 0 0 4.473 4.465zM638.097 39.672a4.468 4.468 0 0 0 4.473-4.465 4.468 4.468 0 0 0-4.473-4.464 4.47 4.47 0 0 0-4.473 4.464 4.47 4.47 0 0 0 4.473 4.465zM526.274 53.81a4.47 4.47 0 0 0 4.473-4.465 4.47 4.47 0 0 0-4.473-4.464 4.47 4.47 0 0 0-4.473 4.464 4.47 4.47 0 0 0 4.473 4.465zM544.911 53.81a4.468 4.468 0 0 0 4.473-4.465 4.468 4.468 0 0 0-4.473-4.464 4.47 4.47 0 0 0-4.473 4.464 4.47 4.47 0 0 0 4.473 4.465zM563.548 53.81a4.468 4.468 0 0 0 4.473-4.465 4.468 4.468 0 0 0-4.473-4.464 4.47 4.47 0 0 0-4.473 4.464 4.47 4.47 0 0 0 4.473 4.465zM582.186 53.81a4.468 4.468 0 0 0 4.472-4.465 4.468 4.468 0 0 0-4.472-4.464 4.468 4.468 0 0 0-4.473 4.464 4.468 4.468 0 0 0 4.473 4.465zM600.823 53.81a4.47 4.47 0 0 0 4.473-4.465 4.47 4.47 0 0 0-4.473-4.464 4.468 4.468 0 0 0-4.473 4.464 4.468 4.468 0 0 0 4.473 4.465zM619.46 53.81a4.47 4.47 0 0 0 4.473-4.465 4.47 4.47 0 0 0-4.473-4.464 4.47 4.47 0 0 0-4.473 4.464 4.47 4.47 0 0 0 4.473 4.465zM638.097 53.81a4.468 4.468 0 0 0 4.473-4.465 4.468 4.468 0 0 0-4.473-4.464 4.47 4.47 0 0 0-4.473 4.464 4.47 4.47 0 0 0 4.473 4.465zM526.274 67.948a4.47 4.47 0 0 0 4.473-4.465 4.469 4.469 0 0 0-4.473-4.464 4.469 4.469 0 0 0-4.473 4.464 4.47 4.47 0 0 0 4.473 4.465zM544.911 67.948a4.468 4.468 0 0 0 4.473-4.465 4.468 4.468 0 0 0-4.473-4.464 4.469 4.469 0 0 0-4.473 4.464 4.47 4.47 0 0 0 4.473 4.465zM563.548 67.948a4.468 4.468 0 0 0 4.473-4.465 4.468 4.468 0 0 0-4.473-4.464 4.469 4.469 0 0 0-4.473 4.464 4.47 4.47 0 0 0 4.473 4.465zM582.186 67.948a4.468 4.468 0 0 0 4.472-4.465 4.468 4.468 0 0 0-4.472-4.464 4.468 4.468 0 0 0-4.473 4.464 4.468 4.468 0 0 0 4.473 4.465zM600.823 67.948a4.47 4.47 0 0 0 4.473-4.465 4.469 4.469 0 0 0-4.473-4.464 4.468 4.468 0 0 0-4.473 4.464 4.468 4.468 0 0 0 4.473 4.465zM619.46 67.948a4.47 4.47 0 0 0 4.473-4.465 4.469 4.469 0 0 0-4.473-4.464 4.469 4.469 0 0 0-4.473 4.464 4.47 4.47 0 0 0 4.473 4.465zM638.097 67.948a4.468 4.468 0 0 0 4.473-4.465 4.468 4.468 0 0 0-4.473-4.464 4.469 4.469 0 0 0-4.473 4.464 4.47 4.47 0 0 0 4.473 4.465zM526.274 82.086a4.469 4.469 0 0 0 4.473-4.465 4.47 4.47 0 0 0-4.473-4.465 4.47 4.47 0 0 0-4.473 4.465 4.469 4.469 0 0 0 4.473 4.465zM544.911 82.086a4.468 4.468 0 0 0 4.473-4.465 4.468 4.468 0 0 0-4.473-4.465 4.47 4.47 0 0 0-4.473 4.465 4.469 4.469 0 0 0 4.473 4.465zM526.274 96.224a4.47 4.47 0 0 0 4.473-4.465 4.47 4.47 0 0 0-4.473-4.464 4.47 4.47 0 0 0-4.473 4.464 4.47 4.47 0 0 0 4.473 4.465zM544.911 96.224a4.468 4.468 0 0 0 4.473-4.465 4.468 4.468 0 0 0-4.473-4.464 4.47 4.47 0 0 0-4.473 4.464 4.47 4.47 0 0 0 4.473 4.465zM563.548 96.224a4.468 4.468 0 0 0 4.473-4.465 4.468 4.468 0 0 0-4.473-4.464 4.47 4.47 0 0 0-4.473 4.464 4.47 4.47 0 0 0 4.473 4.465zM563.548 82.086a4.468 4.468 0 0 0 4.473-4.465 4.468 4.468 0 0 0-4.473-4.465 4.47 4.47 0 0 0-4.473 4.465 4.469 4.469 0 0 0 4.473 4.465zM582.186 82.086a4.468 4.468 0 0 0 4.472-4.465 4.468 4.468 0 0 0-4.472-4.465 4.468 4.468 0 0 0-4.473 4.465 4.468 4.468 0 0 0 4.473 4.465zM600.823 82.086a4.469 4.469 0 0 0 4.473-4.465 4.47 4.47 0 0 0-4.473-4.465 4.468 4.468 0 0 0-4.473 4.465 4.468 4.468 0 0 0 4.473 4.465zM619.46 82.086a4.469 4.469 0 0 0 4.473-4.465 4.47 4.47 0 0 0-4.473-4.465 4.47 4.47 0 0 0-4.473 4.465 4.469 4.469 0 0 0 4.473 4.465zM638.097 82.086a4.468 4.468 0 0 0 4.473-4.465 4.468 4.468 0 0 0-4.473-4.465 4.47 4.47 0 0 0-4.473 4.465 4.469 4.469 0 0 0 4.473 4.465z"/></g><path d="M462.11 262.333a24.722 24.722 0 0 1-13.717-4.153 24.647 24.647 0 0 1-9.094-11.06 24.601 24.601 0 0 1-1.405-14.24 24.624 24.624 0 0 1 6.757-12.618 24.705 24.705 0 0 1 12.642-6.745 24.736 24.736 0 0 1 14.266 1.402 24.7 24.7 0 0 1 11.081 9.077 24.614 24.614 0 0 1 4.161 13.692 24.652 24.652 0 0 1-7.24 17.419 24.742 24.742 0 0 1-17.451 7.226zm0-47.892c-4.607 0-9.11 1.363-12.94 3.918a23.255 23.255 0 0 0-8.578 10.433 23.204 23.204 0 0 0-1.325 13.432 23.232 23.232 0 0 0 6.374 11.903 23.328 23.328 0 0 0 25.382 5.039 23.274 23.274 0 0 0 10.452-8.562 23.212 23.212 0 0 0 3.926-12.916 23.249 23.249 0 0 0-6.83-16.43 23.335 23.335 0 0 0-16.461-6.817z" fill="#3F3D56"/><path d="M471.576 235.326h-7.099v-7.086a2.366 2.366 0 0 0-4.734 0v7.086h-7.099a2.363 2.363 0 0 0-2.367 2.362 2.362 2.362 0 0 0 2.367 2.362h7.099v7.087a2.366 2.366 0 0 0 4.04 1.67 2.36 2.36 0 0 0 .694-1.67v-7.087h7.099a2.362 2.362 0 1 0 0-4.724z" fill="#fff"/><g opacity=".4" fill="#fff"><path d="M37.817 265.359a3.514 3.514 0 0 0 3.517-3.51 3.514 3.514 0 0 0-3.517-3.511 3.514 3.514 0 0 0-3.517 3.511 3.514 3.514 0 0 0 3.517 3.51zM37.817 250.733a3.514 3.514 0 0 0 3.517-3.51 3.513 3.513 0 0 0-3.517-3.51 3.513 3.513 0 0 0-3.517 3.51 3.514 3.514 0 0 0 3.517 3.51zM37.817 236.107a3.514 3.514 0 0 0 3.517-3.51 3.513 3.513 0 0 0-3.517-3.51 3.513 3.513 0 0 0-3.517 3.51 3.514 3.514 0 0 0 3.517 3.51zM37.817 221.481a3.513 3.513 0 0 0 3.517-3.51 3.513 3.513 0 0 0-3.517-3.51 3.513 3.513 0 0 0-3.517 3.51 3.513 3.513 0 0 0 3.517 3.51zM37.817 206.855a3.513 3.513 0 0 0 3.517-3.51 3.514 3.514 0 0 0-3.517-3.51 3.514 3.514 0 0 0-3.517 3.51 3.513 3.513 0 0 0 3.517 3.51zM37.817 192.229a3.513 3.513 0 0 0 3.517-3.51 3.514 3.514 0 0 0-3.517-3.51 3.514 3.514 0 0 0-3.517 3.51 3.513 3.513 0 0 0 3.517 3.51zM37.817 177.604a3.514 3.514 0 0 0 3.517-3.511 3.514 3.514 0 0 0-3.517-3.51 3.514 3.514 0 0 0-3.517 3.51 3.514 3.514 0 0 0 3.517 3.511zM48.953 265.359a3.514 3.514 0 0 0 3.517-3.51 3.514 3.514 0 0 0-3.517-3.511 3.514 3.514 0 0 0-3.517 3.511 3.514 3.514 0 0 0 3.517 3.51zM48.953 250.733a3.514 3.514 0 0 0 3.517-3.51 3.513 3.513 0 0 0-3.517-3.51 3.513 3.513 0 0 0-3.517 3.51 3.514 3.514 0 0 0 3.517 3.51zM48.953 236.107a3.514 3.514 0 0 0 3.517-3.51 3.513 3.513 0 0 0-3.517-3.51 3.513 3.513 0 0 0-3.517 3.51 3.514 3.514 0 0 0 3.517 3.51zM48.953 221.481a3.513 3.513 0 0 0 3.517-3.51 3.513 3.513 0 0 0-3.517-3.51 3.513 3.513 0 0 0-3.517 3.51 3.513 3.513 0 0 0 3.517 3.51zM48.953 206.855a3.513 3.513 0 0 0 3.517-3.51 3.514 3.514 0 0 0-3.517-3.51 3.514 3.514 0 0 0-3.517 3.51 3.513 3.513 0 0 0 3.517 3.51zM48.953 192.229a3.513 3.513 0 0 0 3.517-3.51 3.514 3.514 0 0 0-3.517-3.51 3.514 3.514 0 0 0-3.517 3.51 3.513 3.513 0 0 0 3.517 3.51zM48.953 177.604a3.514 3.514 0 0 0 3.517-3.511 3.514 3.514 0 0 0-3.517-3.51 3.514 3.514 0 0 0-3.517 3.51 3.514 3.514 0 0 0 3.517 3.511zM60.09 265.359a3.514 3.514 0 0 0 3.516-3.51 3.514 3.514 0 0 0-3.517-3.511 3.514 3.514 0 0 0-3.516 3.511 3.514 3.514 0 0 0 3.517 3.51zM60.09 250.733a3.514 3.514 0 0 0 3.516-3.51 3.513 3.513 0 0 0-3.517-3.51 3.513 3.513 0 0 0-3.516 3.51 3.514 3.514 0 0 0 3.517 3.51zM60.09 236.107a3.514 3.514 0 0 0 3.516-3.51 3.513 3.513 0 0 0-3.517-3.51 3.513 3.513 0 0 0-3.516 3.51 3.514 3.514 0 0 0 3.517 3.51zM60.09 221.481a3.513 3.513 0 0 0 3.516-3.51 3.513 3.513 0 0 0-3.517-3.51 3.513 3.513 0 0 0-3.516 3.51 3.513 3.513 0 0 0 3.517 3.51zM60.09 206.855a3.513 3.513 0 0 0 3.516-3.51 3.514 3.514 0 0 0-3.517-3.51 3.514 3.514 0 0 0-3.516 3.51 3.513 3.513 0 0 0 3.517 3.51zM60.09 192.229a3.513 3.513 0 0 0 3.516-3.51 3.514 3.514 0 0 0-3.517-3.51 3.514 3.514 0 0 0-3.516 3.51 3.513 3.513 0 0 0 3.517 3.51zM60.09 177.604a3.514 3.514 0 0 0 3.516-3.511 3.514 3.514 0 0 0-3.517-3.51 3.514 3.514 0 0 0-3.516 3.51 3.514 3.514 0 0 0 3.517 3.511zM71.226 265.359a3.514 3.514 0 0 0 3.517-3.51 3.514 3.514 0 0 0-3.517-3.511 3.514 3.514 0 0 0-3.517 3.511 3.514 3.514 0 0 0 3.517 3.51zM71.226 250.733a3.514 3.514 0 0 0 3.517-3.51 3.513 3.513 0 0 0-3.517-3.51 3.513 3.513 0 0 0-3.517 3.51 3.514 3.514 0 0 0 3.517 3.51zM82.362 265.359a3.514 3.514 0 0 0 3.517-3.51 3.514 3.514 0 0 0-3.517-3.511 3.514 3.514 0 0 0-3.516 3.511 3.514 3.514 0 0 0 3.516 3.51zM82.362 250.733a3.514 3.514 0 0 0 3.517-3.51 3.513 3.513 0 0 0-3.517-3.51 3.513 3.513 0 0 0-3.516 3.51 3.514 3.514 0 0 0 3.516 3.51zM82.362 236.107a3.514 3.514 0 0 0 3.517-3.51 3.513 3.513 0 0 0-3.517-3.51 3.513 3.513 0 0 0-3.516 3.51 3.514 3.514 0 0 0 3.516 3.51zM71.226 236.107a3.514 3.514 0 0 0 3.517-3.51 3.513 3.513 0 0 0-3.517-3.51 3.513 3.513 0 0 0-3.517 3.51 3.514 3.514 0 0 0 3.517 3.51zM71.226 221.481a3.513 3.513 0 0 0 3.517-3.51 3.513 3.513 0 0 0-3.517-3.51 3.513 3.513 0 0 0-3.517 3.51 3.513 3.513 0 0 0 3.517 3.51zM71.226 206.855a3.513 3.513 0 0 0 3.517-3.51 3.514 3.514 0 0 0-3.517-3.51 3.514 3.514 0 0 0-3.517 3.51 3.513 3.513 0 0 0 3.517 3.51zM71.226 192.229a3.513 3.513 0 0 0 3.517-3.51 3.514 3.514 0 0 0-3.517-3.51 3.514 3.514 0 0 0-3.517 3.51 3.513 3.513 0 0 0 3.517 3.51zM71.226 177.604a3.514 3.514 0 0 0 3.517-3.511 3.514 3.514 0 0 0-3.517-3.51 3.514 3.514 0 0 0-3.517 3.51 3.514 3.514 0 0 0 3.517 3.511z"/></g><path d="M348.186 23.059h-233.62a4.334 4.334 0 0 0-3.058 1.266 4.316 4.316 0 0 0-1.269 3.053v199.397a4.318 4.318 0 0 0 1.269 3.054 4.337 4.337 0 0 0 3.058 1.266h233.62a4.34 4.34 0 0 0 3.059-1.266 4.32 4.32 0 0 0 1.268-3.054V27.378a4.32 4.32 0 0 0-1.268-3.053 4.338 4.338 0 0 0-3.059-1.266zm2.593 203.716a2.603 2.603 0 0 1-2.593 2.597h-233.62a2.599 2.599 0 0 1-2.593-2.597V27.378a2.592 2.592 0 0 1 2.593-2.596h233.62a2.606 2.606 0 0 1 1.834.763c.486.487.759 1.146.759 1.833v199.397z" fill="#3F3D56"/><path d="M168.492 195.64A17.57 17.57 0 0 1 163 208.395a17.637 17.637 0 0 1-12.131 4.831 17.639 17.639 0 0 1-12.131-4.831 17.57 17.57 0 0 1-4.153-19.489 17.597 17.597 0 0 1 9.538-9.526 17.644 17.644 0 0 1 19.211 3.815 17.581 17.581 0 0 1 5.158 12.445z" fill="#fff"/><path d="M330.033 183.911H191.564a2.94 2.94 0 0 0-2.933 2.932 2.94 2.94 0 0 0 2.933 2.933h138.469a2.94 2.94 0 0 0 2.933-2.933 2.94 2.94 0 0 0-2.933-2.932z" fill="#F40638"/><path d="M251.146 201.505h-59.582c-.778 0-1.524.309-2.074.858a2.925 2.925 0 0 0 0 4.141c.55.549 1.296.858 2.074.858h59.582c.778 0 1.525-.309 2.075-.858a2.926 2.926 0 0 0-2.075-4.999zM403.689 163.203H170.071a5.998 5.998 0 0 1-4.23-1.752 5.974 5.974 0 0 1-1.755-4.222V54.896a5.975 5.975 0 0 1 1.755-4.221 5.998 5.998 0 0 1 4.23-1.752h233.618a5.997 5.997 0 0 1 4.229 1.752 5.975 5.975 0 0 1 1.755 4.222v102.332a5.975 5.975 0 0 1-1.755 4.222 5.997 5.997 0 0 1-4.229 1.752zM170.071 51.019a3.882 3.882 0 0 0-3.885 3.877V157.23a3.884 3.884 0 0 0 3.885 3.878h233.618a3.89 3.89 0 0 0 2.745-1.137 3.88 3.88 0 0 0 1.139-2.741V54.896a3.878 3.878 0 0 0-1.139-2.74 3.891 3.891 0 0 0-2.745-1.137H170.071z" fill="#fff"/><path d="M217.647 86.247a2.94 2.94 0 0 0-2.077.859 2.928 2.928 0 0 0 0 4.146 2.94 2.94 0 0 0 2.077.858h138.465a2.94 2.94 0 0 0 2.077-.858 2.928 2.928 0 0 0 0-4.146 2.94 2.94 0 0 0-2.077-.859H217.647zM217.647 103.234a2.94 2.94 0 0 0-2.077.859 2.93 2.93 0 0 0 0 4.146 2.94 2.94 0 0 0 2.077.859h138.465a2.94 2.94 0 0 0 2.933-2.932c0-.777-.309-1.522-.859-2.071a2.943 2.943 0 0 0-2.074-.861H217.647zM217.647 120.016a2.93 2.93 0 0 0-2.077 5.004 2.94 2.94 0 0 0 2.077.859h59.582a2.93 2.93 0 0 0 2.074-5.003 2.938 2.938 0 0 0-2.074-.86h-59.582zM442.207 206.559l-23.464-33.054 7.596 1.58a1.058 1.058 0 0 0 1.082-.436 1.041 1.041 0 0 0 .164-.786 1.06 1.06 0 0 0-.153-.38 1.067 1.067 0 0 0-.665-.452l-11.319-2.352-1.528 11.438a1.05 1.05 0 1 0 2.083.277l1.024-7.681 23.467 33.057a1.037 1.037 0 0 0 .68.428c.136.023.275.019.409-.012a1.041 1.041 0 0 0 .802-.845 1.062 1.062 0 0 0-.011-.409 1.064 1.064 0 0 0-.167-.373z" fill="#fff"/><path d="M314.766 302.761h-166.78a3.084 3.084 0 0 1-3.088-3.083v-41.294a3.084 3.084 0 0 1 3.088-3.083h166.78a3.095 3.095 0 0 1 2.183.904c.579.578.905 1.362.906 2.179v41.294a3.085 3.085 0 0 1-.906 2.179 3.095 3.095 0 0 1-2.183.904zm-166.78-46.227a1.852 1.852 0 0 0-1.853 1.85v41.294a1.854 1.854 0 0 0 1.853 1.85h166.78a1.85 1.85 0 0 0 1.853-1.85v-41.294a1.857 1.857 0 0 0-1.853-1.85h-166.78z" fill="#3F3D56"/><path d="M173.9 290.004c6.949 0 12.581-5.622 12.581-12.557 0-6.936-5.632-12.558-12.581-12.558-6.948 0-12.581 5.622-12.581 12.558 0 6.935 5.633 12.557 12.581 12.557zM202.956 269.075a2.09 2.09 0 0 0-1.485.612 2.079 2.079 0 0 0-.615 1.481 2.083 2.083 0 0 0 .615 1.481 2.089 2.089 0 0 0 1.485.612h98.851a2.1 2.1 0 0 0 2.097-2.093 2.095 2.095 0 0 0-2.097-2.093h-98.851zM202.956 281.633a2.09 2.09 0 0 0-1.485.611 2.083 2.083 0 0 0-.615 1.481 2.094 2.094 0 0 0 2.1 2.093h42.536c.556 0 1.089-.22 1.483-.613a2.09 2.09 0 0 0 0-2.959 2.099 2.099 0 0 0-1.483-.613h-42.536z" fill="#fff"/><path d="M534.817 155.639h74.125a3.084 3.084 0 0 1 3.088 3.083v77.055a3.082 3.082 0 0 1-.905 2.178 3.095 3.095 0 0 1-2.183.904h-74.125a3.095 3.095 0 0 1-2.183-.904 3.078 3.078 0 0 1-.905-2.178v-77.055c0-.817.326-1.601.905-2.179a3.095 3.095 0 0 1 2.183-.904zm74.125 81.987a1.851 1.851 0 0 0 1.853-1.849v-77.055a1.85 1.85 0 0 0-1.853-1.849h-74.125a1.855 1.855 0 0 0-1.853 1.849v77.055a1.85 1.85 0 0 0 1.853 1.849h74.125z" fill="#3F3D56"/><path d="M593.147 222.969a2.097 2.097 0 0 0 2.097-2.093 2.093 2.093 0 0 0-2.097-2.093h-42.535a2.093 2.093 0 1 0 0 4.186h42.535zM593.147 210.638a2.091 2.091 0 0 0 1.941-1.291 2.083 2.083 0 0 0 0-1.603 2.088 2.088 0 0 0-1.941-1.292h-42.535a2.111 2.111 0 0 0-1.485.612 2.076 2.076 0 0 0-.616 1.481 2.083 2.083 0 0 0 .616 1.482 2.098 2.098 0 0 0 1.485.611h42.535zM571.879 171.53c2.611 0 5.162.772 7.333 2.22a13.18 13.18 0 0 1 4.861 5.912 13.154 13.154 0 0 1-2.861 14.357 13.217 13.217 0 0 1-14.384 2.856 13.197 13.197 0 0 1-5.923-4.852 13.16 13.16 0 0 1-2.224-7.319 13.176 13.176 0 0 1 3.87-9.312 13.223 13.223 0 0 1 9.328-3.862z" fill="#fff"/></g><defs><clipPath id="a"><path fill="#fff" d="M0 0h686v342H0z"/></clipPath></defs></svg>