<svg width="686" height="342" viewBox="0 0 686 342" fill="none" xmlns="http://www.w3.org/2000/svg">
<g clip-path="url(#clip0_789_811)">
<path d="M144.942 -3.16875e-05C126.304 -0.0319954 107.837 3.54305 90.5627 10.5272C89.8672 10.8117 89.1689 11.0976 88.4709 11.39C62.2182 22.4476 39.8193 40.9934 24.0812 64.703C8.3431 88.4127 -0.0339654 116.231 -0.00014212 144.673V302.537C0.00174026 304.204 0.666092 305.803 1.84716 306.982C3.02823 308.16 4.62957 308.824 6.29986 308.825L6.42496 308.836C127.852 330.847 245.899 342 357.385 342C359.057 342 360.727 341.997 362.395 341.992C471.983 341.66 578.691 330.506 679.553 308.841L679.7 308.825C681.37 308.824 682.972 308.16 684.153 306.982C685.334 305.803 685.998 304.204 686 302.537V6.28831C685.998 4.62113 685.334 3.02275 684.153 1.84387C682.972 0.664996 681.37 0.001888 679.7 1.09577e-05L144.942 -3.16875e-05Z" fill="#6C63FF"/>
<path d="M522.06 125.9C520.968 125.918 519.926 126.364 519.16 127.141C518.395 127.918 517.965 128.965 517.965 130.055C517.965 131.145 518.395 132.192 519.16 132.969C519.926 133.746 520.968 134.192 522.06 134.209H626.42C626.967 134.219 627.51 134.121 628.019 133.921C628.528 133.72 628.992 133.422 629.386 133.043C629.779 132.663 630.094 132.21 630.311 131.709C630.529 131.208 630.646 130.669 630.655 130.123C630.664 129.577 630.565 129.035 630.364 128.527C630.162 128.019 629.863 127.556 629.482 127.164C629.102 126.772 628.647 126.458 628.145 126.242C627.643 126.025 627.103 125.909 626.556 125.9C626.511 125.9 626.465 125.9 626.42 125.9H522.06Z" fill="#F40638"/>
<path d="M650.086 124.744C650.01 124.82 649.95 124.91 649.908 125.009C649.867 125.108 649.846 125.215 649.846 125.322C649.846 125.429 649.867 125.536 649.908 125.635C649.95 125.734 650.01 125.824 650.086 125.9L653.602 129.409H644.932C644.715 129.409 644.506 129.496 644.353 129.649C644.199 129.802 644.113 130.01 644.113 130.227C644.113 130.444 644.199 130.652 644.353 130.805C644.506 130.958 644.715 131.045 644.932 131.045H653.602L650.086 134.554C650.01 134.63 649.95 134.72 649.908 134.819C649.867 134.918 649.846 135.025 649.846 135.132C649.846 135.239 649.867 135.346 649.908 135.445C649.95 135.544 650.01 135.634 650.086 135.71C650.162 135.786 650.252 135.846 650.352 135.887C650.451 135.928 650.557 135.95 650.665 135.95C650.773 135.95 650.879 135.928 650.978 135.887C651.078 135.846 651.168 135.786 651.244 135.71L656.158 130.805C656.312 130.652 656.398 130.444 656.398 130.227C656.398 130.01 656.312 129.802 656.158 129.649L651.244 124.744C651.168 124.668 651.078 124.608 650.978 124.567C650.879 124.526 650.773 124.504 650.665 124.504C650.557 124.504 650.451 124.526 650.352 124.567C650.252 124.608 650.162 124.668 650.086 124.744Z" fill="white"/>
<path d="M498.349 124.744C498.426 124.82 498.486 124.91 498.527 125.009C498.568 125.108 498.589 125.215 498.589 125.322C498.589 125.429 498.568 125.536 498.527 125.635C498.486 125.734 498.426 125.824 498.349 125.9L494.833 129.409H503.504C503.611 129.409 503.718 129.43 503.818 129.471C503.917 129.512 504.008 129.572 504.084 129.648C504.161 129.724 504.221 129.814 504.262 129.914C504.304 130.013 504.325 130.119 504.325 130.227C504.325 130.335 504.304 130.441 504.262 130.54C504.221 130.64 504.161 130.73 504.084 130.806C504.008 130.882 503.917 130.942 503.818 130.983C503.718 131.024 503.611 131.045 503.504 131.045H494.833L498.349 134.554C498.503 134.707 498.589 134.915 498.589 135.132C498.589 135.349 498.503 135.557 498.349 135.71C498.196 135.863 497.988 135.95 497.77 135.95C497.553 135.95 497.345 135.863 497.191 135.71L492.277 130.805C492.123 130.652 492.037 130.444 492.037 130.227C492.037 130.01 492.123 129.802 492.277 129.649L497.191 124.744C497.267 124.668 497.358 124.608 497.457 124.567C497.556 124.526 497.663 124.504 497.77 124.504C497.878 124.504 497.984 124.526 498.084 124.567C498.183 124.608 498.273 124.668 498.349 124.744Z" fill="white"/>
<g opacity="0.4">
<path d="M526.274 39.6719C528.744 39.6719 530.747 37.673 530.747 35.2073C530.747 32.7416 528.744 30.7427 526.274 30.7427C523.804 30.7427 521.801 32.7416 521.801 35.2073C521.801 37.673 523.804 39.6719 526.274 39.6719Z" fill="white"/>
<path d="M544.911 39.6719C547.382 39.6719 549.384 37.673 549.384 35.2073C549.384 32.7416 547.382 30.7427 544.911 30.7427C542.441 30.7427 540.438 32.7416 540.438 35.2073C540.438 37.673 542.441 39.6719 544.911 39.6719Z" fill="white"/>
<path d="M563.548 39.6719C566.019 39.6719 568.021 37.673 568.021 35.2073C568.021 32.7416 566.019 30.7427 563.548 30.7427C561.078 30.7427 559.075 32.7416 559.075 35.2073C559.075 37.673 561.078 39.6719 563.548 39.6719Z" fill="white"/>
<path d="M582.186 39.6719C584.656 39.6719 586.658 37.673 586.658 35.2073C586.658 32.7416 584.656 30.7427 582.186 30.7427C579.715 30.7427 577.713 32.7416 577.713 35.2073C577.713 37.673 579.715 39.6719 582.186 39.6719Z" fill="white"/>
<path d="M600.823 39.6719C603.293 39.6719 605.296 37.673 605.296 35.2073C605.296 32.7416 603.293 30.7427 600.823 30.7427C598.352 30.7427 596.35 32.7416 596.35 35.2073C596.35 37.673 598.352 39.6719 600.823 39.6719Z" fill="white"/>
<path d="M619.46 39.6719C621.93 39.6719 623.933 37.673 623.933 35.2073C623.933 32.7416 621.93 30.7427 619.46 30.7427C616.99 30.7427 614.987 32.7416 614.987 35.2073C614.987 37.673 616.99 39.6719 619.46 39.6719Z" fill="white"/>
<path d="M638.097 39.6719C640.568 39.6719 642.57 37.673 642.57 35.2073C642.57 32.7416 640.568 30.7427 638.097 30.7427C635.627 30.7427 633.624 32.7416 633.624 35.2073C633.624 37.673 635.627 39.6719 638.097 39.6719Z" fill="white"/>
<path d="M526.274 53.8099C528.744 53.8099 530.747 51.811 530.747 49.3452C530.747 46.8795 528.744 44.8806 526.274 44.8806C523.804 44.8806 521.801 46.8795 521.801 49.3452C521.801 51.811 523.804 53.8099 526.274 53.8099Z" fill="white"/>
<path d="M544.911 53.8099C547.382 53.8099 549.384 51.811 549.384 49.3452C549.384 46.8795 547.382 44.8806 544.911 44.8806C542.441 44.8806 540.438 46.8795 540.438 49.3452C540.438 51.811 542.441 53.8099 544.911 53.8099Z" fill="white"/>
<path d="M563.548 53.8099C566.019 53.8099 568.021 51.811 568.021 49.3452C568.021 46.8795 566.019 44.8806 563.548 44.8806C561.078 44.8806 559.075 46.8795 559.075 49.3452C559.075 51.811 561.078 53.8099 563.548 53.8099Z" fill="white"/>
<path d="M582.186 53.8099C584.656 53.8099 586.658 51.811 586.658 49.3452C586.658 46.8795 584.656 44.8806 582.186 44.8806C579.715 44.8806 577.713 46.8795 577.713 49.3452C577.713 51.811 579.715 53.8099 582.186 53.8099Z" fill="white"/>
<path d="M600.823 53.8099C603.293 53.8099 605.296 51.811 605.296 49.3452C605.296 46.8795 603.293 44.8806 600.823 44.8806C598.352 44.8806 596.35 46.8795 596.35 49.3452C596.35 51.811 598.352 53.8099 600.823 53.8099Z" fill="white"/>
<path d="M619.46 53.8099C621.93 53.8099 623.933 51.811 623.933 49.3452C623.933 46.8795 621.93 44.8806 619.46 44.8806C616.99 44.8806 614.987 46.8795 614.987 49.3452C614.987 51.811 616.99 53.8099 619.46 53.8099Z" fill="white"/>
<path d="M638.097 53.8099C640.568 53.8099 642.57 51.811 642.57 49.3452C642.57 46.8795 640.568 44.8806 638.097 44.8806C635.627 44.8806 633.624 46.8795 633.624 49.3452C633.624 51.811 635.627 53.8099 638.097 53.8099Z" fill="white"/>
<path d="M526.274 67.9478C528.744 67.9478 530.747 65.9489 530.747 63.4832C530.747 61.0174 528.744 59.0186 526.274 59.0186C523.804 59.0186 521.801 61.0174 521.801 63.4832C521.801 65.9489 523.804 67.9478 526.274 67.9478Z" fill="white"/>
<path d="M544.911 67.9478C547.382 67.9478 549.384 65.9489 549.384 63.4832C549.384 61.0174 547.382 59.0186 544.911 59.0186C542.441 59.0186 540.438 61.0174 540.438 63.4832C540.438 65.9489 542.441 67.9478 544.911 67.9478Z" fill="white"/>
<path d="M563.548 67.9478C566.019 67.9478 568.021 65.9489 568.021 63.4832C568.021 61.0174 566.019 59.0186 563.548 59.0186C561.078 59.0186 559.075 61.0174 559.075 63.4832C559.075 65.9489 561.078 67.9478 563.548 67.9478Z" fill="white"/>
<path d="M582.186 67.9478C584.656 67.9478 586.658 65.9489 586.658 63.4832C586.658 61.0174 584.656 59.0186 582.186 59.0186C579.715 59.0186 577.713 61.0174 577.713 63.4832C577.713 65.9489 579.715 67.9478 582.186 67.9478Z" fill="white"/>
<path d="M600.823 67.9478C603.293 67.9478 605.296 65.9489 605.296 63.4832C605.296 61.0174 603.293 59.0186 600.823 59.0186C598.352 59.0186 596.35 61.0174 596.35 63.4832C596.35 65.9489 598.352 67.9478 600.823 67.9478Z" fill="white"/>
<path d="M619.46 67.9478C621.93 67.9478 623.933 65.9489 623.933 63.4832C623.933 61.0174 621.93 59.0186 619.46 59.0186C616.99 59.0186 614.987 61.0174 614.987 63.4832C614.987 65.9489 616.99 67.9478 619.46 67.9478Z" fill="white"/>
<path d="M638.097 67.9478C640.568 67.9478 642.57 65.9489 642.57 63.4832C642.57 61.0174 640.568 59.0186 638.097 59.0186C635.627 59.0186 633.624 61.0174 633.624 63.4832C633.624 65.9489 635.627 67.9478 638.097 67.9478Z" fill="white"/>
<path d="M526.274 82.0857C528.744 82.0857 530.747 80.0869 530.747 77.6211C530.747 75.1554 528.744 73.1565 526.274 73.1565C523.804 73.1565 521.801 75.1554 521.801 77.6211C521.801 80.0869 523.804 82.0857 526.274 82.0857Z" fill="white"/>
<path d="M544.911 82.0857C547.382 82.0857 549.384 80.0869 549.384 77.6211C549.384 75.1554 547.382 73.1565 544.911 73.1565C542.441 73.1565 540.438 75.1554 540.438 77.6211C540.438 80.0869 542.441 82.0857 544.911 82.0857Z" fill="white"/>
<path d="M526.274 96.2239C528.744 96.2239 530.747 94.225 530.747 91.7593C530.747 89.2936 528.744 87.2947 526.274 87.2947C523.804 87.2947 521.801 89.2936 521.801 91.7593C521.801 94.225 523.804 96.2239 526.274 96.2239Z" fill="white"/>
<path d="M544.911 96.2239C547.382 96.2239 549.384 94.225 549.384 91.7593C549.384 89.2936 547.382 87.2947 544.911 87.2947C542.441 87.2947 540.438 89.2936 540.438 91.7593C540.438 94.225 542.441 96.2239 544.911 96.2239Z" fill="white"/>
<path d="M563.548 96.2239C566.019 96.2239 568.021 94.225 568.021 91.7593C568.021 89.2936 566.019 87.2947 563.548 87.2947C561.078 87.2947 559.075 89.2936 559.075 91.7593C559.075 94.225 561.078 96.2239 563.548 96.2239Z" fill="white"/>
<path d="M563.548 82.0857C566.019 82.0857 568.021 80.0869 568.021 77.6211C568.021 75.1554 566.019 73.1565 563.548 73.1565C561.078 73.1565 559.075 75.1554 559.075 77.6211C559.075 80.0869 561.078 82.0857 563.548 82.0857Z" fill="white"/>
<path d="M582.186 82.0857C584.656 82.0857 586.658 80.0869 586.658 77.6211C586.658 75.1554 584.656 73.1565 582.186 73.1565C579.715 73.1565 577.713 75.1554 577.713 77.6211C577.713 80.0869 579.715 82.0857 582.186 82.0857Z" fill="white"/>
<path d="M600.823 82.0857C603.293 82.0857 605.296 80.0869 605.296 77.6211C605.296 75.1554 603.293 73.1565 600.823 73.1565C598.352 73.1565 596.35 75.1554 596.35 77.6211C596.35 80.0869 598.352 82.0857 600.823 82.0857Z" fill="white"/>
<path d="M619.46 82.0857C621.93 82.0857 623.933 80.0869 623.933 77.6211C623.933 75.1554 621.93 73.1565 619.46 73.1565C616.99 73.1565 614.987 75.1554 614.987 77.6211C614.987 80.0869 616.99 82.0857 619.46 82.0857Z" fill="white"/>
<path d="M638.097 82.0857C640.568 82.0857 642.57 80.0869 642.57 77.6211C642.57 75.1554 640.568 73.1565 638.097 73.1565C635.627 73.1565 633.624 75.1554 633.624 77.6211C633.624 80.0869 635.627 82.0857 638.097 82.0857Z" fill="white"/>
</g>
<path d="M462.11 262.333C457.227 262.333 452.453 260.888 448.393 258.18C444.332 255.472 441.167 251.623 439.299 247.12C437.43 242.616 436.941 237.661 437.894 232.88C438.846 228.1 441.198 223.708 444.651 220.262C448.104 216.815 452.504 214.468 457.293 213.517C462.083 212.566 467.047 213.054 471.559 214.919C476.07 216.785 479.926 219.944 482.64 223.996C485.353 228.049 486.801 232.814 486.801 237.688C486.793 244.222 484.19 250.487 479.561 255.107C474.932 259.727 468.656 262.326 462.11 262.333ZM462.11 214.441C457.503 214.441 453 215.804 449.17 218.359C445.34 220.913 442.355 224.544 440.592 228.792C438.829 233.04 438.368 237.714 439.267 242.224C440.165 246.733 442.384 250.876 445.641 254.127C448.898 257.378 453.048 259.592 457.566 260.489C462.084 261.386 466.767 260.926 471.023 259.166C475.279 257.407 478.916 254.427 481.475 250.604C484.035 246.781 485.401 242.286 485.401 237.688C485.394 231.525 482.938 225.616 478.571 221.258C474.205 216.899 468.285 214.448 462.11 214.441Z" fill="#3F3D56"/>
<path d="M471.576 235.326H464.477V228.24C464.477 227.613 464.227 227.012 463.783 226.569C463.34 226.126 462.738 225.877 462.11 225.877C461.482 225.877 460.88 226.126 460.437 226.569C459.993 227.012 459.743 227.613 459.743 228.24V235.326H452.644C452.016 235.326 451.414 235.575 450.97 236.018C450.527 236.461 450.277 237.062 450.277 237.688C450.277 238.315 450.527 238.915 450.97 239.358C451.414 239.801 452.016 240.05 452.644 240.05H459.743V247.137C459.743 247.763 459.993 248.364 460.437 248.807C460.88 249.25 461.482 249.499 462.11 249.499C462.738 249.499 463.34 249.25 463.783 248.807C464.227 248.364 464.477 247.763 464.477 247.137V240.05H471.576C472.204 240.05 472.806 239.801 473.25 239.358C473.693 238.915 473.943 238.315 473.943 237.688C473.943 237.062 473.693 236.461 473.25 236.018C472.806 235.575 472.204 235.326 471.576 235.326Z" fill="white"/>
<g opacity="0.4">
<path d="M37.8168 265.359C39.759 265.359 41.3335 263.787 41.3335 261.849C41.3335 259.91 39.759 258.338 37.8168 258.338C35.8745 258.338 34.3 259.91 34.3 261.849C34.3 263.787 35.8745 265.359 37.8168 265.359Z" fill="white"/>
<path d="M37.8168 250.733C39.759 250.733 41.3335 249.161 41.3335 247.223C41.3335 245.284 39.759 243.713 37.8168 243.713C35.8745 243.713 34.3 245.284 34.3 247.223C34.3 249.161 35.8745 250.733 37.8168 250.733Z" fill="white"/>
<path d="M37.8168 236.107C39.759 236.107 41.3335 234.535 41.3335 232.597C41.3335 230.658 39.759 229.087 37.8168 229.087C35.8745 229.087 34.3 230.658 34.3 232.597C34.3 234.535 35.8745 236.107 37.8168 236.107Z" fill="white"/>
<path d="M37.8168 221.481C39.759 221.481 41.3335 219.91 41.3335 217.971C41.3335 216.032 39.759 214.461 37.8168 214.461C35.8745 214.461 34.3 216.032 34.3 217.971C34.3 219.91 35.8745 221.481 37.8168 221.481Z" fill="white"/>
<path d="M37.8168 206.855C39.759 206.855 41.3335 205.284 41.3335 203.345C41.3335 201.407 39.759 199.835 37.8168 199.835C35.8745 199.835 34.3 201.407 34.3 203.345C34.3 205.284 35.8745 206.855 37.8168 206.855Z" fill="white"/>
<path d="M37.8168 192.229C39.759 192.229 41.3335 190.658 41.3335 188.719C41.3335 186.781 39.759 185.209 37.8168 185.209C35.8745 185.209 34.3 186.781 34.3 188.719C34.3 190.658 35.8745 192.229 37.8168 192.229Z" fill="white"/>
<path d="M37.8168 177.604C39.759 177.604 41.3335 176.032 41.3335 174.093C41.3335 172.155 39.759 170.583 37.8168 170.583C35.8745 170.583 34.3 172.155 34.3 174.093C34.3 176.032 35.8745 177.604 37.8168 177.604Z" fill="white"/>
<path d="M48.953 265.359C50.8953 265.359 52.4698 263.787 52.4698 261.849C52.4698 259.91 50.8953 258.338 48.953 258.338C47.0108 258.338 45.4363 259.91 45.4363 261.849C45.4363 263.787 47.0108 265.359 48.953 265.359Z" fill="white"/>
<path d="M48.953 250.733C50.8953 250.733 52.4698 249.161 52.4698 247.223C52.4698 245.284 50.8953 243.713 48.953 243.713C47.0108 243.713 45.4363 245.284 45.4363 247.223C45.4363 249.161 47.0108 250.733 48.953 250.733Z" fill="white"/>
<path d="M48.953 236.107C50.8953 236.107 52.4698 234.535 52.4698 232.597C52.4698 230.658 50.8953 229.087 48.953 229.087C47.0108 229.087 45.4363 230.658 45.4363 232.597C45.4363 234.535 47.0108 236.107 48.953 236.107Z" fill="white"/>
<path d="M48.953 221.481C50.8953 221.481 52.4698 219.91 52.4698 217.971C52.4698 216.032 50.8953 214.461 48.953 214.461C47.0108 214.461 45.4363 216.032 45.4363 217.971C45.4363 219.91 47.0108 221.481 48.953 221.481Z" fill="white"/>
<path d="M48.953 206.855C50.8953 206.855 52.4698 205.284 52.4698 203.345C52.4698 201.407 50.8953 199.835 48.953 199.835C47.0108 199.835 45.4363 201.407 45.4363 203.345C45.4363 205.284 47.0108 206.855 48.953 206.855Z" fill="white"/>
<path d="M48.953 192.229C50.8953 192.229 52.4698 190.658 52.4698 188.719C52.4698 186.781 50.8953 185.209 48.953 185.209C47.0108 185.209 45.4363 186.781 45.4363 188.719C45.4363 190.658 47.0108 192.229 48.953 192.229Z" fill="white"/>
<path d="M48.953 177.604C50.8953 177.604 52.4698 176.032 52.4698 174.093C52.4698 172.155 50.8953 170.583 48.953 170.583C47.0108 170.583 45.4363 172.155 45.4363 174.093C45.4363 176.032 47.0108 177.604 48.953 177.604Z" fill="white"/>
<path d="M60.0895 265.359C62.0317 265.359 63.6062 263.787 63.6062 261.849C63.6062 259.91 62.0317 258.338 60.0895 258.338C58.1473 258.338 56.5728 259.91 56.5728 261.849C56.5728 263.787 58.1473 265.359 60.0895 265.359Z" fill="white"/>
<path d="M60.0895 250.733C62.0317 250.733 63.6062 249.161 63.6062 247.223C63.6062 245.284 62.0317 243.713 60.0895 243.713C58.1473 243.713 56.5728 245.284 56.5728 247.223C56.5728 249.161 58.1473 250.733 60.0895 250.733Z" fill="white"/>
<path d="M60.0895 236.107C62.0317 236.107 63.6062 234.535 63.6062 232.597C63.6062 230.658 62.0317 229.087 60.0895 229.087C58.1473 229.087 56.5728 230.658 56.5728 232.597C56.5728 234.535 58.1473 236.107 60.0895 236.107Z" fill="white"/>
<path d="M60.0895 221.481C62.0317 221.481 63.6062 219.91 63.6062 217.971C63.6062 216.032 62.0317 214.461 60.0895 214.461C58.1473 214.461 56.5728 216.032 56.5728 217.971C56.5728 219.91 58.1473 221.481 60.0895 221.481Z" fill="white"/>
<path d="M60.0895 206.855C62.0317 206.855 63.6062 205.284 63.6062 203.345C63.6062 201.407 62.0317 199.835 60.0895 199.835C58.1473 199.835 56.5728 201.407 56.5728 203.345C56.5728 205.284 58.1473 206.855 60.0895 206.855Z" fill="white"/>
<path d="M60.0895 192.229C62.0317 192.229 63.6062 190.658 63.6062 188.719C63.6062 186.781 62.0317 185.209 60.0895 185.209C58.1473 185.209 56.5728 186.781 56.5728 188.719C56.5728 190.658 58.1473 192.229 60.0895 192.229Z" fill="white"/>
<path d="M60.0895 177.604C62.0317 177.604 63.6062 176.032 63.6062 174.093C63.6062 172.155 62.0317 170.583 60.0895 170.583C58.1473 170.583 56.5728 172.155 56.5728 174.093C56.5728 176.032 58.1473 177.604 60.0895 177.604Z" fill="white"/>
<path d="M71.2257 265.359C73.168 265.359 74.7425 263.787 74.7425 261.849C74.7425 259.91 73.168 258.338 71.2257 258.338C69.2835 258.338 67.709 259.91 67.709 261.849C67.709 263.787 69.2835 265.359 71.2257 265.359Z" fill="white"/>
<path d="M71.2257 250.733C73.168 250.733 74.7425 249.161 74.7425 247.223C74.7425 245.284 73.168 243.713 71.2257 243.713C69.2835 243.713 67.709 245.284 67.709 247.223C67.709 249.161 69.2835 250.733 71.2257 250.733Z" fill="white"/>
<path d="M82.3622 265.359C84.3044 265.359 85.8789 263.787 85.8789 261.849C85.8789 259.91 84.3044 258.338 82.3622 258.338C80.42 258.338 78.8455 259.91 78.8455 261.849C78.8455 263.787 80.42 265.359 82.3622 265.359Z" fill="white"/>
<path d="M82.3622 250.733C84.3044 250.733 85.8789 249.161 85.8789 247.223C85.8789 245.284 84.3044 243.713 82.3622 243.713C80.42 243.713 78.8455 245.284 78.8455 247.223C78.8455 249.161 80.42 250.733 82.3622 250.733Z" fill="white"/>
<path d="M82.3622 236.107C84.3044 236.107 85.8789 234.535 85.8789 232.597C85.8789 230.658 84.3044 229.087 82.3622 229.087C80.42 229.087 78.8455 230.658 78.8455 232.597C78.8455 234.535 80.42 236.107 82.3622 236.107Z" fill="white"/>
<path d="M71.2257 236.107C73.168 236.107 74.7425 234.535 74.7425 232.597C74.7425 230.658 73.168 229.087 71.2257 229.087C69.2835 229.087 67.709 230.658 67.709 232.597C67.709 234.535 69.2835 236.107 71.2257 236.107Z" fill="white"/>
<path d="M71.2257 221.481C73.168 221.481 74.7425 219.91 74.7425 217.971C74.7425 216.032 73.168 214.461 71.2257 214.461C69.2835 214.461 67.709 216.032 67.709 217.971C67.709 219.91 69.2835 221.481 71.2257 221.481Z" fill="white"/>
<path d="M71.2257 206.855C73.168 206.855 74.7425 205.284 74.7425 203.345C74.7425 201.407 73.168 199.835 71.2257 199.835C69.2835 199.835 67.709 201.407 67.709 203.345C67.709 205.284 69.2835 206.855 71.2257 206.855Z" fill="white"/>
<path d="M71.2257 192.229C73.168 192.229 74.7425 190.658 74.7425 188.719C74.7425 186.781 73.168 185.209 71.2257 185.209C69.2835 185.209 67.709 186.781 67.709 188.719C67.709 190.658 69.2835 192.229 71.2257 192.229Z" fill="white"/>
<path d="M71.2257 177.604C73.168 177.604 74.7425 176.032 74.7425 174.093C74.7425 172.155 73.168 170.583 71.2257 170.583C69.2835 170.583 67.709 172.155 67.709 174.093C67.709 176.032 69.2835 177.604 71.2257 177.604Z" fill="white"/>
</g>
<path d="M348.186 23.0586H114.566C113.419 23.0598 112.319 23.5152 111.508 24.3251C110.696 25.1349 110.24 26.2329 110.239 27.3782V226.775C110.24 227.921 110.696 229.019 111.508 229.829C112.319 230.638 113.419 231.094 114.566 231.095H348.186C349.333 231.094 350.433 230.638 351.245 229.829C352.056 229.019 352.512 227.921 352.513 226.775V27.3782C352.512 26.2329 352.056 25.1349 351.245 24.3251C350.433 23.5152 349.333 23.0597 348.186 23.0586ZM350.779 226.775C350.779 227.463 350.506 228.122 350.02 228.608C349.534 229.095 348.874 229.37 348.186 229.372H114.566C113.878 229.371 113.217 229.097 112.731 228.61C112.245 228.123 111.972 227.463 111.973 226.775V27.3782C111.972 26.6906 112.245 26.0308 112.731 25.5438C113.217 25.0569 113.878 24.7827 114.566 24.7816H348.186C348.874 24.784 349.534 25.0587 350.02 25.5453C350.506 26.032 350.779 26.691 350.779 27.3782V226.775Z" fill="#3F3D56"/>
<path d="M168.492 195.64C168.492 195.948 168.484 196.255 168.467 196.555C168.232 201.055 166.275 205.293 163 208.395C159.726 211.497 155.384 213.226 150.869 213.226C146.355 213.226 142.012 211.497 138.738 208.395C135.463 205.293 133.506 201.055 133.271 196.555C133.255 196.255 133.247 195.948 133.247 195.64C133.245 193.33 133.7 191.041 134.585 188.906C135.47 186.77 136.768 184.83 138.404 183.195C140.041 181.561 141.984 180.264 144.123 179.38C146.262 178.495 148.554 178.04 150.869 178.04C153.184 178.04 155.477 178.495 157.616 179.38C159.754 180.264 161.698 181.561 163.334 183.195C164.971 184.83 166.268 186.77 167.153 188.906C168.038 191.041 168.493 193.33 168.492 195.64Z" fill="white"/>
<path d="M330.033 183.911H191.564C190.786 183.912 190.04 184.222 189.49 184.772C188.94 185.321 188.631 186.067 188.631 186.843C188.631 187.62 188.94 188.366 189.49 188.915C190.04 189.465 190.786 189.775 191.564 189.776H330.033C330.811 189.775 331.557 189.465 332.107 188.915C332.657 188.366 332.966 187.62 332.966 186.843C332.966 186.067 332.657 185.321 332.107 184.772C331.557 184.222 330.811 183.912 330.033 183.911Z" fill="#F40638"/>
<path d="M251.146 201.505H191.564C190.786 201.505 190.04 201.814 189.49 202.363C188.94 202.912 188.631 203.657 188.631 204.433C188.631 205.21 188.94 205.955 189.49 206.504C190.04 207.053 190.786 207.362 191.564 207.362H251.146C251.924 207.362 252.671 207.053 253.221 206.504C253.771 205.955 254.08 205.21 254.08 204.433C254.08 203.657 253.771 202.912 253.221 202.363C252.671 201.814 251.924 201.505 251.146 201.505Z" fill="white"/>
<path d="M403.689 163.203H170.071C168.484 163.201 166.963 162.571 165.841 161.451C164.719 160.332 164.088 158.813 164.086 157.229V54.8965C164.088 53.3129 164.719 51.7946 165.841 50.6747C166.963 49.5549 168.484 48.925 170.071 48.9231H403.689C405.275 48.925 406.796 49.5549 407.918 50.6747C409.04 51.7946 409.671 53.3129 409.673 54.8965V157.229C409.671 158.813 409.04 160.331 407.918 161.451C406.796 162.571 405.275 163.201 403.689 163.203ZM170.071 51.0192C169.041 51.0204 168.053 51.4293 167.325 52.1562C166.597 52.8831 166.188 53.8686 166.186 54.8965V157.229C166.188 158.257 166.597 159.243 167.325 159.97C168.053 160.697 169.041 161.106 170.071 161.107H403.689C404.719 161.106 405.706 160.697 406.434 159.97C407.162 159.243 407.572 158.257 407.573 157.229V54.8965C407.572 53.8686 407.162 52.8831 406.434 52.1562C405.706 51.4293 404.719 51.0204 403.689 51.0192H170.071Z" fill="white"/>
<path d="M217.647 86.2471C216.868 86.2471 216.121 86.5559 215.57 87.1057C215.019 87.6555 214.71 88.4012 214.71 89.1788C214.71 89.9563 215.019 90.702 215.57 91.2518C216.121 91.8016 216.868 92.1104 217.647 92.1104H356.112C356.891 92.1104 357.638 91.8016 358.189 91.2518C358.74 90.702 359.049 89.9563 359.049 89.1788C359.049 88.4012 358.74 87.6555 358.189 87.1057C357.638 86.5559 356.891 86.2471 356.112 86.2471H217.647Z" fill="white"/>
<path d="M217.647 103.234C216.868 103.234 216.121 103.543 215.57 104.093C215.019 104.643 214.71 105.389 214.71 106.166C214.71 106.944 215.019 107.689 215.57 108.239C216.121 108.789 216.868 109.098 217.647 109.098H356.112C356.89 109.097 357.636 108.787 358.186 108.237C358.736 107.688 359.045 106.943 359.045 106.166C359.045 105.389 358.736 104.644 358.186 104.095C357.636 103.545 356.89 103.236 356.112 103.234H217.647Z" fill="white"/>
<path d="M217.647 120.016C216.868 120.016 216.121 120.325 215.57 120.874C215.019 121.424 214.71 122.17 214.71 122.947C214.71 123.725 215.019 124.471 215.57 125.02C216.121 125.57 216.868 125.879 217.647 125.879H277.229C278.007 125.878 278.753 125.568 279.303 125.019C279.853 124.469 280.161 123.724 280.161 122.947C280.161 122.171 279.853 121.426 279.303 120.876C278.753 120.326 278.007 120.017 277.229 120.016H217.647Z" fill="white"/>
<path d="M442.207 206.559L418.743 173.505L426.339 175.085C426.474 175.113 426.613 175.114 426.749 175.089C426.884 175.063 427.013 175.011 427.129 174.935C427.244 174.86 427.344 174.762 427.421 174.649C427.499 174.535 427.553 174.407 427.581 174.272C427.61 174.137 427.611 173.998 427.585 173.863C427.559 173.727 427.507 173.598 427.432 173.483C427.356 173.368 427.258 173.269 427.144 173.191C427.03 173.114 426.902 173.059 426.767 173.031L415.448 170.679L413.92 182.117C413.901 182.254 413.91 182.393 413.945 182.527C413.98 182.66 414.042 182.785 414.125 182.895C414.209 183.005 414.314 183.097 414.433 183.166C414.553 183.235 414.685 183.28 414.822 183.299C414.959 183.317 415.099 183.308 415.232 183.272C415.366 183.237 415.491 183.175 415.601 183.091C415.71 183.007 415.802 182.902 415.871 182.783C415.94 182.663 415.985 182.531 416.003 182.394L417.027 174.713L440.494 207.77C440.573 207.883 440.674 207.978 440.791 208.052C440.908 208.125 441.038 208.174 441.174 208.198C441.31 208.221 441.449 208.217 441.583 208.186C441.718 208.156 441.845 208.099 441.957 208.02C442.07 207.94 442.165 207.839 442.239 207.723C442.312 207.606 442.362 207.476 442.385 207.341C442.408 207.205 442.404 207.066 442.374 206.932C442.343 206.798 442.286 206.671 442.207 206.559V206.559Z" fill="white"/>
<path d="M314.766 302.761H147.986C147.167 302.76 146.382 302.435 145.803 301.857C145.224 301.279 144.899 300.495 144.898 299.678V258.384C144.899 257.567 145.224 256.783 145.803 256.205C146.382 255.627 147.167 255.302 147.986 255.301H314.766C315.585 255.302 316.37 255.627 316.949 256.205C317.528 256.783 317.854 257.567 317.855 258.384V299.678C317.854 300.495 317.528 301.279 316.949 301.857C316.37 302.435 315.585 302.76 314.766 302.761ZM147.986 256.534C147.495 256.535 147.024 256.73 146.676 257.077C146.329 257.423 146.134 257.894 146.133 258.384V299.678C146.134 300.169 146.329 300.639 146.676 300.986C147.024 301.332 147.495 301.527 147.986 301.528H314.766C315.258 301.527 315.729 301.332 316.076 300.986C316.423 300.639 316.619 300.169 316.619 299.678V258.384C316.619 257.894 316.423 257.423 316.076 257.077C315.729 256.73 315.258 256.535 314.766 256.534H147.986Z" fill="#3F3D56"/>
<path d="M173.9 290.004C180.849 290.004 186.481 284.382 186.481 277.447C186.481 270.511 180.849 264.889 173.9 264.889C166.952 264.889 161.319 270.511 161.319 277.447C161.319 284.382 166.952 290.004 173.9 290.004Z" fill="white"/>
<path d="M202.956 269.075C202.681 269.074 202.408 269.128 202.153 269.233C201.898 269.338 201.666 269.492 201.471 269.687C201.276 269.881 201.121 270.112 201.016 270.366C200.91 270.62 200.856 270.893 200.856 271.168C200.856 271.443 200.91 271.716 201.016 271.97C201.121 272.224 201.276 272.455 201.471 272.649C201.666 272.844 201.898 272.998 202.153 273.103C202.408 273.208 202.681 273.261 202.956 273.261H301.807C302.363 273.261 302.896 273.04 303.289 272.648C303.683 272.255 303.904 271.723 303.904 271.168C303.904 270.613 303.683 270.08 303.289 269.688C302.896 269.295 302.363 269.075 301.807 269.075H202.956Z" fill="white"/>
<path d="M202.956 281.633C202.681 281.632 202.408 281.686 202.153 281.791C201.898 281.896 201.666 282.05 201.471 282.244C201.276 282.439 201.121 282.669 201.016 282.924C200.91 283.178 200.856 283.45 200.856 283.725C200.856 284.001 200.91 284.273 201.016 284.527C201.121 284.781 201.276 285.012 201.471 285.207C201.666 285.401 201.898 285.555 202.153 285.66C202.408 285.765 202.681 285.819 202.956 285.818H245.492C246.048 285.818 246.581 285.598 246.975 285.205C247.368 284.813 247.589 284.281 247.589 283.725C247.589 283.17 247.368 282.638 246.975 282.246C246.581 281.853 246.048 281.633 245.492 281.633H202.956Z" fill="white"/>
<path d="M534.817 155.639H608.942C609.761 155.64 610.546 155.965 611.125 156.543C611.704 157.121 612.029 157.905 612.03 158.722V235.777C612.029 236.594 611.704 237.377 611.125 237.955C610.546 238.533 609.761 238.858 608.942 238.859H534.817C533.998 238.858 533.213 238.533 532.634 237.955C532.055 237.377 531.729 236.594 531.729 235.777V158.722C531.729 157.905 532.055 157.121 532.634 156.543C533.213 155.965 533.998 155.64 534.817 155.639ZM608.942 237.626C609.433 237.626 609.904 237.431 610.251 237.084C610.599 236.737 610.794 236.267 610.795 235.777V158.722C610.794 158.232 610.599 157.762 610.251 157.415C609.904 157.068 609.433 156.873 608.942 156.873H534.817C534.326 156.873 533.855 157.068 533.507 157.415C533.16 157.762 532.964 158.232 532.964 158.722V235.777C532.964 236.267 533.16 236.737 533.507 237.084C533.855 237.431 534.326 237.626 534.817 237.626H608.942Z" fill="#3F3D56"/>
<path d="M593.147 222.969C593.703 222.969 594.237 222.749 594.63 222.356C595.023 221.964 595.244 221.431 595.244 220.876C595.244 220.321 595.023 219.789 594.63 219.396C594.237 219.004 593.703 218.783 593.147 218.783H550.612C550.055 218.783 549.522 219.004 549.129 219.396C548.736 219.789 548.515 220.321 548.515 220.876C548.515 221.431 548.736 221.964 549.129 222.356C549.522 222.749 550.055 222.969 550.612 222.969H593.147Z" fill="white"/>
<path d="M593.147 210.638C593.423 210.639 593.696 210.585 593.951 210.48C594.206 210.375 594.437 210.221 594.633 210.027C594.828 209.832 594.982 209.601 595.088 209.347C595.194 209.093 595.248 208.82 595.248 208.545C595.248 208.27 595.194 207.998 595.088 207.744C594.982 207.489 594.828 207.258 594.633 207.064C594.437 206.87 594.206 206.716 593.951 206.611C593.696 206.506 593.423 206.452 593.147 206.452H550.612C550.336 206.452 550.063 206.506 549.808 206.611C549.553 206.716 549.322 206.87 549.127 207.064C548.931 207.258 548.777 207.489 548.671 207.744C548.565 207.998 548.511 208.27 548.511 208.545C548.511 208.82 548.565 209.093 548.671 209.347C548.777 209.601 548.931 209.832 549.127 210.027C549.322 210.221 549.553 210.375 549.808 210.48C550.063 210.585 550.336 210.639 550.612 210.638H593.147Z" fill="white"/>
<path d="M571.879 171.53C574.49 171.53 577.041 172.302 579.212 173.75C581.382 175.197 583.074 177.255 584.073 179.662C585.072 182.069 585.333 184.718 584.824 187.274C584.315 189.829 583.058 192.177 581.212 194.019C579.366 195.861 577.014 197.116 574.454 197.625C571.894 198.133 569.24 197.872 566.828 196.875C564.417 195.878 562.355 194.189 560.905 192.023C559.455 189.856 558.681 187.309 558.681 184.704C558.685 181.211 560.076 177.862 562.551 175.392C565.025 172.923 568.38 171.533 571.879 171.53Z" fill="white"/>
</g>
<defs>
<clipPath id="clip0_789_811">
<rect width="686" height="342" fill="white"/>
</clipPath>
</defs>
</svg>
