<svg width="772" height="521" viewBox="0 0 772 521" fill="none" xmlns="http://www.w3.org/2000/svg">
<g clip-path="url(#clip0_789_780)">
<path d="M766.961 430.304H385.026C383.69 430.302 382.409 429.771 381.465 428.826C380.52 427.882 379.989 426.601 379.987 425.265V5.03869C379.989 3.70281 380.52 2.42209 381.465 1.47748C382.409 0.532879 383.69 0.00152829 385.026 0H766.961C768.297 0.00152829 769.578 0.532879 770.522 1.47748C771.467 2.42209 771.998 3.70281 772 5.03869V425.265C771.998 426.601 771.467 427.882 770.522 428.826C769.578 429.771 768.297 430.302 766.961 430.304ZM385.026 2.01547C384.224 2.01635 383.456 2.33515 382.889 2.90192C382.322 3.46869 382.004 4.23715 382.003 5.03869V425.265C382.004 426.067 382.322 426.835 382.889 427.402C383.456 427.969 384.224 428.287 385.026 428.288H766.961C767.763 428.287 768.531 427.969 769.098 427.402C769.665 426.835 769.984 426.067 769.984 425.265V5.03869C769.984 4.23715 769.665 3.46869 769.098 2.90192C768.531 2.33515 767.763 2.01635 766.961 2.01547H385.026Z" fill="#3F3D56"/>
<path d="M549.792 160.23H455.064C453.728 160.229 452.448 159.697 451.503 158.753C450.558 157.808 450.027 156.527 450.026 155.192V60.4642C450.027 59.1283 450.558 57.8476 451.503 56.903C452.448 55.9584 453.728 55.4271 455.064 55.4255H549.792C551.128 55.4271 552.409 55.9584 553.354 56.903C554.298 57.8476 554.829 59.1283 554.831 60.4642V155.192C554.829 156.527 554.298 157.808 553.354 158.753C552.409 159.697 551.128 160.229 549.792 160.23ZM455.064 57.441C454.263 57.4419 453.494 57.7607 452.927 58.3275C452.361 58.8942 452.042 59.6627 452.041 60.4642V155.192C452.042 155.993 452.361 156.761 452.927 157.328C453.494 157.895 454.263 158.214 455.064 158.215H549.792C550.594 158.214 551.362 157.895 551.929 157.328C552.496 156.761 552.815 155.993 552.815 155.192V60.4642C552.815 59.6627 552.496 58.8942 551.929 58.3275C551.362 57.7607 550.594 57.4419 549.792 57.441H455.064Z" fill="#F2F2F2"/>
<path d="M522.583 171.819H427.855C426.653 171.818 425.5 171.34 424.65 170.489C423.8 169.639 423.322 168.487 423.32 167.284V72.557C423.322 71.3547 423.8 70.2021 424.65 69.3519C425.5 68.5018 426.653 68.0236 427.855 68.0222H522.583C523.785 68.0236 524.938 68.5018 525.788 69.3519C526.638 70.2021 527.117 71.3547 527.118 72.557V167.284C527.117 168.487 526.638 169.639 525.788 170.489C524.938 171.34 523.785 171.818 522.583 171.819Z" fill="#F40638"/>
<path d="M724.132 218.175H427.855C426.652 218.175 425.499 217.697 424.649 216.847C423.798 215.996 423.32 214.843 423.32 213.64C423.32 212.438 423.798 211.284 424.649 210.434C425.499 209.583 426.652 209.105 427.855 209.105H724.132C725.335 209.105 726.488 209.583 727.339 210.434C728.189 211.284 728.667 212.438 728.667 213.64C728.667 214.843 728.189 215.996 727.339 216.847C726.488 217.697 725.335 218.175 724.132 218.175Z" fill="#CCCCCC"/>
<path d="M652.582 249.415H427.855C426.652 249.415 425.499 248.937 424.649 248.087C423.798 247.236 423.32 246.083 423.32 244.88C423.32 243.677 423.798 242.524 424.649 241.673C425.499 240.823 426.652 240.345 427.855 240.345H652.582C653.785 240.345 654.938 240.823 655.789 241.673C656.639 242.524 657.117 243.677 657.117 244.88C657.117 246.083 656.639 247.236 655.789 248.087C654.938 248.937 653.785 249.415 652.582 249.415Z" fill="#CCCCCC"/>
<path d="M723.124 103.293H592.117C590.915 103.293 589.761 102.815 588.911 101.965C588.06 101.114 587.583 99.9609 587.583 98.7582C587.583 97.5555 588.06 96.4021 588.911 95.5516C589.761 94.7012 590.915 94.2234 592.117 94.2234H723.124C724.327 94.2234 725.481 94.7012 726.331 95.5516C727.181 96.4021 727.659 97.5555 727.659 98.7582C727.659 99.9609 727.181 101.114 726.331 101.965C725.481 102.815 724.327 103.293 723.124 103.293Z" fill="#CCCCCC"/>
<path d="M690.429 134.533H592.117C590.915 134.533 589.761 134.055 588.911 133.205C588.06 132.354 587.583 131.201 587.583 129.998C587.583 128.795 588.06 127.642 588.911 126.791C589.761 125.941 590.915 125.463 592.117 125.463H690.429C691.632 125.463 692.786 125.941 693.636 126.791C694.487 127.642 694.964 128.795 694.964 129.998C694.964 131.201 694.487 132.354 693.636 133.205C692.786 134.055 691.632 134.533 690.429 134.533Z" fill="#CCCCCC"/>
<path d="M724.132 280.655H427.855C426.652 280.655 425.499 280.177 424.649 279.326C423.798 278.476 423.32 277.323 423.32 276.12C423.32 274.917 423.798 273.764 424.649 272.913C425.499 272.063 426.652 271.585 427.855 271.585H724.132C725.335 271.585 726.488 272.063 727.339 272.913C728.189 273.764 728.667 274.917 728.667 276.12C728.667 277.323 728.189 278.476 727.339 279.326C726.488 280.177 725.335 280.655 724.132 280.655Z" fill="#CCCCCC"/>
<path d="M652.582 311.895H427.855C426.652 311.895 425.499 311.417 424.649 310.566C423.798 309.716 423.32 308.562 423.32 307.36C423.32 306.157 423.798 305.004 424.649 304.153C425.499 303.303 426.652 302.825 427.855 302.825H652.582C653.785 302.825 654.938 303.303 655.789 304.153C656.639 305.004 657.117 306.157 657.117 307.36C657.117 308.562 656.639 309.716 655.789 310.566C654.938 311.417 653.785 311.895 652.582 311.895Z" fill="#CCCCCC"/>
<path d="M724.132 343.134H427.855C426.652 343.134 425.499 342.657 424.649 341.806C423.798 340.956 423.32 339.802 423.32 338.6C423.32 337.397 423.798 336.243 424.649 335.393C425.499 334.543 426.652 334.065 427.855 334.065H724.132C725.335 334.065 726.488 334.543 727.339 335.393C728.189 336.243 728.667 337.397 728.667 338.6C728.667 339.802 728.189 340.956 727.339 341.806C726.488 342.657 725.335 343.134 724.132 343.134Z" fill="#CCCCCC"/>
<path d="M724.132 374.374H427.855C426.652 374.374 425.499 373.897 424.649 373.046C423.798 372.196 423.32 371.042 423.32 369.84C423.32 368.637 423.798 367.483 424.649 366.633C425.499 365.782 426.652 365.305 427.855 365.305H724.132C725.335 365.305 726.488 365.782 727.339 366.633C728.189 367.483 728.667 368.637 728.667 369.84C728.667 371.042 728.189 372.196 727.339 373.046C726.488 373.897 725.335 374.374 724.132 374.374Z" fill="#CCCCCC"/>
<path d="M485.225 391.315H268.56C267.224 391.314 265.943 390.782 264.999 389.838C264.054 388.893 263.523 387.613 263.521 386.277V252.248C263.523 250.912 264.054 249.631 264.999 248.686C265.943 247.742 267.224 247.211 268.56 247.209H485.225C486.561 247.211 487.842 247.742 488.786 248.686C489.731 249.631 490.262 250.912 490.264 252.248V386.277C490.262 387.613 489.731 388.893 488.786 389.838C487.842 390.782 486.561 391.314 485.225 391.315Z" fill="white"/>
<path d="M485.225 391.315H268.56C267.224 391.314 265.943 390.782 264.999 389.838C264.054 388.893 263.523 387.613 263.521 386.277V252.248C263.523 250.912 264.054 249.631 264.999 248.686C265.943 247.742 267.224 247.211 268.56 247.209H485.225C486.561 247.211 487.842 247.742 488.786 248.686C489.731 249.631 490.262 250.912 490.264 252.248V386.277C490.262 387.613 489.731 388.893 488.786 389.838C487.842 390.782 486.561 391.314 485.225 391.315ZM268.56 249.224C267.758 249.225 266.99 249.544 266.423 250.111C265.856 250.678 265.538 251.446 265.537 252.248V386.277C265.538 387.078 265.856 387.847 266.423 388.413C266.99 388.98 267.758 389.299 268.56 389.3H485.225C486.027 389.299 486.795 388.98 487.362 388.413C487.929 387.847 488.247 387.078 488.248 386.277V252.248C488.247 251.446 487.929 250.678 487.362 250.111C486.795 249.544 486.027 249.225 485.225 249.224H268.56Z" fill="#3F3D56"/>
<path d="M442.396 308.177H311.389C310.186 308.177 309.033 307.699 308.183 306.849C307.332 305.998 306.854 304.845 306.854 303.642C306.854 302.44 307.332 301.286 308.183 300.436C309.033 299.585 310.186 299.107 311.389 299.107H442.396C443.599 299.107 444.752 299.585 445.603 300.436C446.453 301.286 446.931 302.44 446.931 303.642C446.931 304.845 446.453 305.998 445.603 306.849C444.752 307.699 443.599 308.177 442.396 308.177Z" fill="#CCCCCC"/>
<path d="M442.396 339.417H311.389C310.186 339.417 309.033 338.939 308.183 338.089C307.332 337.238 306.854 336.085 306.854 334.882C306.854 333.679 307.332 332.526 308.183 331.675C309.033 330.825 310.186 330.347 311.389 330.347H442.396C443.599 330.347 444.752 330.825 445.603 331.675C446.453 332.526 446.931 333.679 446.931 334.882C446.931 336.085 446.453 337.238 445.603 338.089C444.752 338.939 443.599 339.417 442.396 339.417Z" fill="#CCCCCC"/>
<path d="M232.119 508.797H244.474L250.351 461.143L232.117 461.144L232.119 508.797Z" fill="#FCB4BE"/>
<path d="M228.968 504.764L253.299 504.763H253.3C257.412 504.763 261.356 506.397 264.263 509.305C267.171 512.212 268.805 516.156 268.805 520.268V520.772L228.968 520.774L228.968 504.764Z" fill="#2F2E41"/>
<path d="M135.921 503.449L148.137 505.295L161.072 459.056L145.058 456.332L135.921 503.449Z" fill="#FCB4BE"/>
<path d="M133.407 498.99L157.465 502.626L157.466 502.626C161.532 503.241 165.187 505.446 167.628 508.756C170.068 512.066 171.094 516.209 170.479 520.275L170.404 520.774L131.015 514.82L133.407 498.99Z" fill="#2F2E41"/>
<path d="M174.013 272.636L187.731 276.231L186.819 298.471L186.706 338.963C188.057 339.898 189.093 341.221 189.676 342.757C190.259 344.293 190.363 345.971 189.972 347.567C189.581 349.163 188.715 350.603 187.488 351.696C186.261 352.789 184.732 353.484 183.101 353.689C181.471 353.894 179.817 353.599 178.357 352.843C176.898 352.088 175.703 350.907 174.929 349.457C174.156 348.007 173.841 346.356 174.026 344.724C174.211 343.091 174.887 341.553 175.966 340.313L171.75 299.672L174.013 272.636Z" fill="#FCB4BE"/>
<path d="M171.626 247.162C171.701 245.013 172.394 242.931 173.622 241.165C174.85 239.399 176.56 238.024 178.548 237.204C180.409 236.371 182.473 236.1 184.486 236.424C186.499 236.748 188.374 237.652 189.88 239.027C190.963 239.994 191.822 241.186 192.396 242.519C192.971 243.852 193.248 245.295 193.208 246.746C193.244 259.775 190.303 278.765 190.273 278.955L190.226 279.257L170.175 286.009L171.626 247.162Z" fill="#302D62"/>
<path d="M207.478 284.146L238.146 276.208L252.322 323.952L252.826 501.817L229.374 501.671L219.571 357.711L157.09 490.732L131.897 487.709L186.819 345.114C186.819 345.114 183.796 319.921 193.369 307.324L191.354 294.224L207.478 284.146Z" fill="#2F2E41"/>
<path d="M186.798 296.025C186.37 295.504 186.058 294.896 185.885 294.244C185.712 293.592 185.682 292.91 185.796 292.245L171.807 250.278C171.154 248.316 171.085 246.207 171.607 244.207C172.13 242.206 173.222 240.4 174.752 239.009L180.825 233.489L184.94 217.028L208.593 222.809L206.644 230.604L217.349 228.659L239.896 278.876L192.767 297.714L190.446 297.751C189.748 297.752 189.058 297.598 188.427 297.299C187.796 297.001 187.24 296.565 186.798 296.025Z" fill="#302D62"/>
<path d="M219.628 260.591L233.143 256.296L244.26 275.58L265.809 309.863C267.451 309.931 269.034 310.495 270.348 311.482C271.662 312.468 272.646 313.83 273.169 315.388C273.692 316.946 273.729 318.626 273.277 320.206C272.824 321.785 271.903 323.191 270.635 324.235C269.366 325.28 267.81 325.915 266.173 326.056C264.536 326.197 262.895 325.838 261.466 325.026C260.037 324.214 258.889 322.988 258.172 321.509C257.456 320.03 257.205 318.369 257.454 316.744L232.167 284.65L219.628 260.591Z" fill="#FCB4BE"/>
<path d="M203.993 240.337C202.909 238.481 202.381 236.351 202.475 234.202C202.568 232.054 203.279 229.977 204.521 228.222C205.649 226.524 207.249 225.192 209.123 224.389C210.997 223.587 213.065 223.349 215.073 223.705C216.505 223.944 217.867 224.492 219.066 225.312C220.264 226.131 221.269 227.202 222.011 228.45C229.006 239.442 236.671 257.064 236.748 257.241L236.869 257.521L223.533 273.945L203.993 240.337Z" fill="#302D62"/>
<path d="M202.44 213.965C212.82 213.965 221.234 205.551 221.234 195.171C221.234 184.792 212.82 176.378 202.44 176.378C192.061 176.378 183.647 184.792 183.647 195.171C183.647 205.551 192.061 213.965 202.44 213.965Z" fill="#FCB4BE"/>
<path d="M169.228 187.244C179.226 187.244 187.331 179.139 187.331 169.142C187.331 159.144 179.226 151.039 169.228 151.039C159.23 151.039 151.125 159.144 151.125 169.142C151.125 179.139 159.23 187.244 169.228 187.244Z" fill="#2F2E41"/>
<path d="M153.614 184.132C155.957 185.825 158.671 186.933 161.53 187.362C164.389 187.791 167.309 187.53 170.047 186.599C172.784 185.668 175.258 184.096 177.263 182.013C179.267 179.93 180.744 177.397 181.569 174.626C181.257 177.109 180.433 179.501 179.15 181.649C177.867 183.798 176.153 185.657 174.115 187.11C172.077 188.562 169.76 189.576 167.31 190.088C164.861 190.6 162.332 190.599 159.882 190.084C157.433 189.569 155.118 188.552 153.082 187.097C151.045 185.642 149.333 183.781 148.053 181.631C146.772 179.481 145.951 177.088 145.642 174.605C145.333 172.122 145.542 169.601 146.256 167.203C145.85 170.425 146.319 173.697 147.614 176.676C148.909 179.654 150.981 182.23 153.614 184.132Z" fill="#2F2E41"/>
<path d="M225.055 184.152C221.895 178.494 220.686 176.131 216.611 172.69C213.008 169.648 208.575 168.754 205 171.637C200.771 169.81 196.065 169.395 191.582 170.456C187.099 171.516 183.077 173.994 180.114 177.522C177.151 181.05 175.405 185.439 175.136 190.038C174.867 194.637 176.088 199.2 178.618 203.05C181.149 206.9 184.854 209.831 189.183 211.407C193.512 212.984 198.234 213.122 202.647 211.801C207.061 210.48 210.931 207.771 213.682 204.075C216.433 200.38 217.919 195.896 217.918 191.289C217.915 190.48 217.866 189.672 217.772 188.868C220.88 188.432 221.948 184.588 225.055 184.152Z" fill="#2F2E41"/>
<path d="M384.959 521H1.00774C0.740474 521 0.48415 520.894 0.295161 520.705C0.106172 520.516 0 520.26 0 519.992C0 519.725 0.106172 519.469 0.295161 519.28C0.48415 519.091 0.740474 518.985 1.00774 518.985H384.959C385.226 518.985 385.482 519.091 385.671 519.28C385.86 519.469 385.966 519.725 385.966 519.992C385.966 520.26 385.86 520.516 385.671 520.705C385.482 520.894 385.226 521 384.959 521Z" fill="#CCCCCC"/>
</g>
<defs>
<clipPath id="clip0_789_780">
<rect width="772" height="521" fill="white"/>
</clipPath>
</defs>
</svg>
