<svg width="518" height="549" fill="none" xmlns="http://www.w3.org/2000/svg"><g clip-path="url(#a)"><path d="M198.3 87.358c13.562 0 24.556-10.996 24.556-24.561S211.862 38.235 198.3 38.235c-13.563 0-24.557 10.997-24.557 24.562 0 13.565 10.994 24.561 24.557 24.561z" fill="#FD6584"/><path d="M253.258 51.166a12.171 12.171 0 0 0-10.273-8.545.988.988 0 0 0-.165 0 1.317 1.317 0 0 0-.202-.047c-8.222-1.066-17.364 1.528-23.517 7.176a22.037 22.037 0 0 0-5.362 7.395 11.871 11.871 0 0 0-9.96-4.857 12.127 12.127 0 0 0-10.852 8.748 1.405 1.405 0 0 0 .634 1.555 6.137 6.137 0 0 0 2.566 1.306c2.033.433 4.084.828 6.135 1.187 4.009.7 8.041 1.266 12.093 1.702 2.677.285 5.359.512 8.048.68 5.555.35 11.137.433 16.701.258 2.759-.092 5.408-.184 7.928-1.398a11.774 11.774 0 0 0 4.553-3.965 13.379 13.379 0 0 0 1.673-11.195zM202.74 86.95a12.608 12.608 0 0 0-.515-3.036 12.203 12.203 0 0 0-10.282-8.546.895.895 0 0 0-.157 0 1.743 1.743 0 0 0-.211-.046 30.52 30.52 0 0 0-13.51 1.39c-6.677 2.235-12.536 6.742-15.359 13.181a11.89 11.89 0 0 0-9.97-4.857 12.121 12.121 0 0 0-10.852 8.748 1.427 1.427 0 0 0 .634 1.555 6.193 6.193 0 0 0 2.566 1.306c2.042.432 4.084.828 6.144 1.187 4.01.699 8.038 1.266 12.085 1.701a179.472 179.472 0 0 0 24.758.939c2.75-.092 5.408-.184 7.928-1.398a11.75 11.75 0 0 0 4.543-3.965 13.124 13.124 0 0 0 2.198-8.16z" fill="#E6E6E6"/><path d="M384.551 396.909h-22.385V47.383a231.21 231.21 0 0 0-4.562-3.293l-.911-.635a265.131 265.131 0 0 0-57.03-30.3l-4.341 59.883v.004h-27.931V3.118c-1.821-.45-3.642-.873-5.481-1.269v71.193H156.44V0c-1.831.34-3.661.69-5.482 1.067v71.975h-28.85l-.001-.004-4.552-62.8a264.563 264.563 0 0 0-55.899 27.1c-.607.386-1.214.773-1.82 1.177a192.46 192.46 0 0 0-3.652 2.42V396.91H24.666a24.64 24.64 0 0 0-20.432 10.839 24.663 24.663 0 0 0-2.459 23.003c.45 1.132.989 2.226 1.61 3.275a24.954 24.954 0 0 0 2.777 3.845 24.615 24.615 0 0 0 18.504 8.38h359.885a24.664 24.664 0 0 0 24.666-24.671 24.664 24.664 0 0 0-24.666-24.671v-.001zm-95.244-240.73-17.409 240.73H145.532l-17.41-240.73h161.185zm5.62-77.655-4.295 59.383h-23.241V78.524h27.536zm-33.017 0v59.383h-41.968a10.035 10.035 0 0 0-8.942-5.481h-5.48a10.035 10.035 0 0 0-8.942 5.481H156.44V78.524h105.47zm-110.952 59.383h-24.16l-4.295-59.383h28.455v59.383z" fill="#F2F2F2"/><path d="M2.178 436.691a265.779 265.779 0 0 0 25.861 26.631l349.097.92a265.774 265.774 0 0 0 25.862-26.631l-400.82-.92z" fill="#3F3D56"/><path d="M178.474 347.638v94.342h66.079v-94.342a3.166 3.166 0 0 0-2.234-3.036 2.908 2.908 0 0 0-.948-.147h-59.706a3.189 3.189 0 0 0-2.948 1.963c-.16.386-.243.801-.243 1.22zm25.788 32.416a7.053 7.053 0 0 1 14.108 0v10.947a7.056 7.056 0 0 1-12.03 4.965 7.055 7.055 0 0 1-2.078-4.965v-10.947z" fill="#2F2E41"/><path d="M178.271 438.963v9.098a1.794 1.794 0 0 0 1.775 1.785h62.935a1.79 1.79 0 0 0 1.256-.526c.332-.335.519-.787.519-1.259v-9.098h-66.485zM74.52 205.498v172.256a8.28 8.28 0 0 0 8.277 8.279h255.216a8.282 8.282 0 0 0 8.277-8.279V205.498a8.288 8.288 0 0 0-8.277-8.27H82.798a8.288 8.288 0 0 0-8.277 8.27z" fill="#3F3D56"/><path d="M80.508 207.641V375.63a4.431 4.431 0 0 0 4.424 4.424h250.956a4.432 4.432 0 0 0 4.424-4.424V207.641a4.434 4.434 0 0 0-4.424-4.433H84.932a4.433 4.433 0 0 0-4.424 4.433z" fill="#6C63FF"/><path d="M131.68 451.989a2.715 2.715 0 0 0 2.133 1.021h149.303a2.753 2.753 0 0 0 2.13-1.017 2.738 2.738 0 0 0 .556-2.295l-2.318-11.011a2.75 2.75 0 0 0-1.711-1.996 2.661 2.661 0 0 0-.974-.184H136.122c-.334 0-.665.062-.975.184a2.755 2.755 0 0 0-1.711 1.996l-2.317 11.011a2.74 2.74 0 0 0 .561 2.291z" fill="#2F2E41"/><path d="M136.122 438.807a.459.459 0 0 0-.435.348l-2.319 11.017a.444.444 0 0 0 .094.364l.01.012a.416.416 0 0 0 .341.162h149.303a.427.427 0 0 0 .34-.161.428.428 0 0 0 .098-.366l-2.32-11.023a.454.454 0 0 0-.279-.321.403.403 0 0 0-.156-.032H136.122z" fill="#fff"/><path d="M93 226.348H327.82a.933.933 0 0 0 .647-1.587.938.938 0 0 0-.647-.281H93a.935.935 0 0 0 0 1.868zM311.835 219.712c3.022 0 5.472-2.505 5.472-5.596 0-3.09-2.45-5.595-5.472-5.595-3.023 0-5.473 2.505-5.473 5.595 0 3.091 2.45 5.596 5.473 5.596zM292.93 219.712c3.022 0 5.472-2.505 5.472-5.596 0-3.09-2.45-5.595-5.472-5.595-3.023 0-5.473 2.505-5.473 5.595 0 3.091 2.45 5.596 5.473 5.596zM274.024 219.712c3.023 0 5.473-2.505 5.473-5.596 0-3.09-2.45-5.595-5.473-5.595-3.022 0-5.472 2.505-5.472 5.595 0 3.091 2.45 5.596 5.472 5.596zM103.382 210.925a.998.998 0 0 0 .292.714 1 1 0 0 0 .71.298h13.428a1.014 1.014 0 0 0 .993-1.016 1.016 1.016 0 0 0-.993-1.017h-13.428a1.018 1.018 0 0 0-1.002 1.021zM103.382 214.743a1.005 1.005 0 0 0 1.002 1.012h13.428a1.017 1.017 0 0 0 0-2.033h-13.428a1.013 1.013 0 0 0-1.002 1.021zM103.382 218.551a1.012 1.012 0 0 0 1.002 1.021h13.428a1.014 1.014 0 0 0 .993-1.016 1.016 1.016 0 0 0-.993-1.017h-13.428a1.016 1.016 0 0 0-1.002 1.012zM292.831 254.859H127.988a8.178 8.178 0 0 0-8.168 8.17v80.247a8.18 8.18 0 0 0 8.168 8.171h164.843a8.176 8.176 0 0 0 8.168-8.171v-80.247a8.18 8.18 0 0 0-8.168-8.17zm6.329 8.17v23.413h-57.941v-29.743h51.612a6.338 6.338 0 0 1 6.329 6.33zm-117.721 54.996v-29.744h57.941v29.744h-57.941zm57.941 1.839v29.743h-57.941v-29.743h57.941zm-59.78-1.839h-57.941v-29.744H179.6v29.744zm1.839-31.583v-29.743h57.941v29.743h-57.941zm59.78 1.839h57.941v29.744h-57.941v-29.744zm-113.231-31.582H179.6v29.743h-57.941v-23.413a6.34 6.34 0 0 1 6.329-6.33zm-6.329 86.577v-23.412H179.6v29.743h-51.612a6.338 6.338 0 0 1-6.329-6.331zm171.172 6.331h-51.612v-29.743h57.941v23.412a6.338 6.338 0 0 1-6.329 6.331z" fill="#3F3D56"/><path d="M202.032 275.233c-1.463-2.42-3.197-5.004-5.911-5.794-3.144-.915-6.373.903-9.113 2.697a265.453 265.453 0 0 0-23.631 17.414l.008.094 17.634-1.216c4.247-.293 8.64-.626 12.393-2.636 1.424-.762 2.812-1.781 4.426-1.852 2.005-.088 3.753 1.313 5.127 2.776 8.127 8.656 10.479 21.892 19.596 29.497a289.515 289.515 0 0 0-20.529-40.98z" fill="#fff"/><path d="M251.986 348.65c-.898-1.136-1.266-1.401-2.152-2.547a389.21 389.21 0 0 1-42.03-67.708c-.371-.76-.731-1.525-1.09-2.291-.844-1.801-1.673-3.611-2.563-5.388a14.828 14.828 0 0 0-4.111-5.509 5.605 5.605 0 0 0-2.922-1.125 8.16 8.16 0 0 0-4.23 1.212 136.167 136.167 0 0 0-26.773 18.467 139.437 139.437 0 0 0-21.753 24.151c-.192.275-.647.012-.452-.264.764-1.081 1.543-2.15 2.337-3.208a140.178 140.178 0 0 1 35.783-33.383 138.013 138.013 0 0 1 7.092-4.301 103.49 103.49 0 0 1 3.672-2.002 8.941 8.941 0 0 1 3.894-1.207c4.725-.073 7.171 5.278 8.851 8.879a309.002 309.002 0 0 0 1.604 3.39 384.35 384.35 0 0 0 10.533 20.441 387.796 387.796 0 0 0 14.073 23.446c6.581 10.139 13.11 19.095 20.608 28.576.206.262-.162.636-.371.371zM165.647 281.119c-.274-.306-.547-.612-.823-.918-2.179-2.41-4.517-4.792-7.509-6.174a10.888 10.888 0 0 0-4.563-1.058 13.011 13.011 0 0 0-4.739 1.034c-.713.285-1.411.608-2.098.953-.785.395-1.556.816-2.324 1.241a101.893 101.893 0 0 0-12.381 8.072 102.056 102.056 0 0 0-7.544 6.343c-.248.229-.619-.142-.371-.371a103.358 103.358 0 0 1 8.654-7.179 102.759 102.759 0 0 1 8.351-5.576c1.438-.86 2.895-1.684 4.372-2.473.446-.237.897-.47 1.353-.69a21.522 21.522 0 0 1 3.217-1.31 11.45 11.45 0 0 1 4.86-.478c1.579.23 3.1.756 4.483 1.552 2.938 1.642 5.216 4.181 7.433 6.66.224.251-.145.624-.371.372z" fill="#fff"/><path d="m225.837 306.093 7.04-2.575 3.494-1.279a35.661 35.661 0 0 1 3.451-1.188 5.436 5.436 0 0 1 3.123.039 7.198 7.198 0 0 1 2.436 1.511 19.767 19.767 0 0 1 1.998 2.134c.761.914 1.51 1.839 2.264 2.76a1391 1391 0 0 1 27.441 34.686l1.098 1.437c.203.265.658.004.453-.265a1401.807 1401.807 0 0 0-18.358-23.523 1376.499 1376.499 0 0 0-11.737-14.506c-.664-.809-1.32-1.627-2.048-2.38a7.38 7.38 0 0 0-5.004-2.636 9.648 9.648 0 0 0-3.403.748c-1.177.426-2.351.86-3.527 1.29l-7.088 2.593-1.772.648c-.315.115-.179.622.139.506zM156.389 277.059a11.362 11.362 0 0 0-11.445.819 163.424 163.424 0 0 1 18.572 4.335c-2.533-1.485-4.515-3.811-7.127-5.154zM144.909 277.872l-.689.559c.233-.195.475-.379.724-.553l-.035-.006z" fill="#fff"/><path d="M245.116 306.118a5.86 5.86 0 0 0-2.479-2.069l-.967.038a109.762 109.762 0 0 0 29.234 33.428l-25.788-31.397zM240.589 291.865a5.573 5.573 0 1 0-.003-11.147 5.573 5.573 0 0 0 .003 11.147z" fill="#fff"/><path d="M321.453 348.227a4.145 4.145 0 0 0 4.138-4.139v-85.549a4.14 4.14 0 1 0-8.277 0v85.549a4.147 4.147 0 0 0 4.139 4.139z" fill="#3F3D56"/><path d="M321.453 348.227a4.145 4.145 0 0 0 4.138-4.14v-18.14a5.143 5.143 0 0 0-4.138-2.097 5.137 5.137 0 0 0-4.139 2.097v18.14a4.147 4.147 0 0 0 4.139 4.14z" fill="#2F2E41"/><path d="M321.453 330.749a4.46 4.46 0 0 0 4.451-4.452v-19.509a5.526 5.526 0 0 0-4.451-2.255 5.517 5.517 0 0 0-4.451 2.255v19.509a4.454 4.454 0 0 0 4.451 4.452z" fill="#6C63FF"/><path d="M321.453 327.202a3.25 3.25 0 0 0 3.246-3.247v-14.23a4.027 4.027 0 0 0-6.493 0v14.23a3.25 3.25 0 0 0 3.247 3.247z" fill="#3F3D56"/><path d="M193.778 444.334a3.68 3.68 0 0 1-.292-5.195l36.159-40.467a3.667 3.667 0 0 1 3.958-1.021 3.664 3.664 0 0 1 2.099 1.876 3.676 3.676 0 0 1-.571 4.049l-36.159 40.467a3.68 3.68 0 0 1-5.194.291z" fill="#F40638"/><path d="M493.736 510.962c0 6.706-1.581 11.839-1.388 15.942a264.172 264.172 0 0 1-33.385 11.976c-1.288.368-2.575.718-3.872 1.067-7.017-21.488-14.044-41.164-16.812-43.252-6.337-4.756-9.51 14.92-9.51 10.164 0-4.755 3.173-4.755-4.745-11.093-7.928-6.338-3.173-34.864-3.173-34.864l-11.092-28.525 12.407-45.497 16.113-59.103h15.846s.469.341 1.251.975c3.964 3.238 15.92 14.056 14.596 25.969-.396 3.55.487 13.871 2.023 27.614 4.672 41.496 15.405 86.607 15.405 98.51 0 15.85 6.336 20.606 6.336 30.117z" fill="#E6E6E6"/><path d="M480.449 382.18c-.018-.046-.028-.083-.046-.12a24.393 24.393 0 0 0-1.242-2.796c-2.676-5.032.157-12.759-2.86-21.295-4.874-13.835-10.815-21.995-19.525-29.308-.257-.22-.515-.432-.782-.653l-.009-.009c-5.812-4.774-12.82-9.236-21.521-14.792-1.812-1.159-3.706-2.364-5.674-3.633-2.539-1.628-2.401-7.056-2.253-12.796.165-6.374.34-12.979-2.787-17.1l-.202-.267-.322-.083a138.318 138.318 0 0 0-32.576-2.511h-.009c-4.636.172-9.24.848-13.731 2.015-.331.091-.662.183-.984.294-.248.064-.497.147-.745.23l-.202.073-.157.148c-3.025 3.026-3.724 8.453-4.056 14.111v.009c-.064 1.03-.119 2.06-.165 3.091-.258 5.5-.497 10.698-2.52 12.951a53.154 53.154 0 0 1-16.067 12.364c-9.501 4.691-17.014 4.544-17.125 4.544l-.874-.028-.082.865c-6.309 12.023-6.07 43.041-6.263 76.258-.01 1.849-.022 3.707-.037 5.574-.111 15.473-.405 31.212-1.564 45.553-.505 6.163-1.158 12.059-2.032 17.57-4.249 26.832-23.498 4.553-32.704 22.408a22.527 22.527 0 0 0 1.517 5.105c1.058.626 2.143 1.233 3.219 1.84a225.143 225.143 0 0 0 14.586 7.442c.276.128.552.257.828.377a217.759 217.759 0 0 0 33.633 12.317 214.78 214.78 0 0 0 51.144 7.663c.071-.008.141-.011.212-.01a265.356 265.356 0 0 0 60.552-8.729l.828-.221c1.297-.35 2.584-.699 3.872-1.067a264.177 264.177 0 0 0 33.385-11.977c.011.404.051.807.119 1.205.01.13.028.259.056.386.018-.147.036-.294.046-.441.055-.432.101-.874.147-1.316 5.628-54.898-6.061-101.508-15.028-125.241z" fill="#3F3D56"/><path d="M354.052 247.632a51.488 51.488 0 0 0 59.402 24.783 51.48 51.48 0 0 0 27.806-19.755 51.506 51.506 0 0 0-3.832-64.261 51.479 51.479 0 0 0-85.992 15.361 39.41 39.41 0 0 0-.66 1.791 51.436 51.436 0 0 0 3.276 42.081z" fill="#FFB6B6"/><path d="M346.651 205.551c2.216-6.2 1.249-2.97 3.488-9.147-1.461 5.47.849 8.534.637 9.147h61.305v-35.644c-17.961-7.12-35.52-13.179-46.126 0a35.634 35.634 0 0 0-25.199 10.44 35.655 35.655 0 0 0-10.439 25.204h16.334z" fill="#2F2E41"/><path d="M368.382 304.635c.048-.66.118-1.344.213-2.004.659-4.856 2.309-9.524 3.983-14.145a3879.19 3879.19 0 0 1 5.35-14.946 42.796 42.796 0 0 0 2.004 27.158c10.347-8.063 3.818-26.498 17.347-26.498 32.526 0 65.995-26.38 65.995-58.936 0-32.533-13.953-56.862-46.479-56.862-32.55 0-58.948 14.899-59.585 47.432 40.069 9.43 3.607 95.501 11.172 98.801z" fill="#2F2E41"/><path d="M459.21 210.278c20.827 0 37.711-16.888 37.711-37.719 0-20.832-16.884-37.72-37.711-37.72-20.828 0-37.712 16.888-37.712 37.72 0 20.831 16.884 37.719 37.712 37.719zM518 388.876a287.28 287.28 0 0 0-.34 6.2c-1.95 41.294-.267 96.882-13.409 127.045a219.503 219.503 0 0 1-8.921 4.618c-.12.055-.23.11-.332.165-.809.396-1.618.782-2.427 1.15a.267.267 0 0 1-.102.055 219.428 219.428 0 0 1-30.883 11.839l-.745.221a215.134 215.134 0 0 1-54.298 8.73c-.957.027-1.895.046-2.806.064-.321.009-.634.018-.947.018-1.03.01-2.051.019-3.081.019-2.078 0-4.147-.031-6.208-.092a214.78 214.78 0 0 1-51.144-7.663 217.611 217.611 0 0 1-33.633-12.317c-.276-.119-.552-.248-.828-.377-4.948-2.3-9.81-4.78-14.586-7.442-1.076-.607-2.161-1.214-3.219-1.84a22.547 22.547 0 0 1-1.517-5.105c-2.088-10.036-3.762-3.266-4.957-24.147-1.095-19.142-1.794-38.34-2.051-49.314a303.158 303.158 0 0 1-.12-6.872c.975-6.973 16.646-14.884 39.501-22.399a345.046 345.046 0 0 1 6.686-2.116c6.18-1.904 12.784-3.771 19.681-5.574 17.567-4.6 37.073-8.822 56.433-12.308a784.903 784.903 0 0 1 28.317-4.554c16.214-2.299 31.555-3.891 44.679-4.544 1.26-.064 2.492-.119 3.706-.156 1.306-.055 2.584-.092 3.835-.12 18.909-.414 31.821 1.555 33.716 6.816z" fill="#2F2E41"/><path opacity=".2" d="M518 388.877a286.82 286.82 0 0 0-.34 6.199c-14.329-15.435-168.69 53.519-234.043 94.941-1.095-19.142-1.794-38.34-2.051-49.315-.083-2.925-.111-5.27-.12-6.871.975-6.973 16.646-14.884 39.501-22.399a345.046 345.046 0 0 1 6.686-2.116c6.18-1.904 12.784-3.771 19.681-5.574 17.567-4.6 37.073-8.822 56.433-12.308a784.903 784.903 0 0 1 28.317-4.554c16.214-2.299 31.555-3.891 44.679-4.544 1.26-.064 2.492-.119 3.706-.156 1.306-.055 2.584-.092 3.835-.12 18.909-.414 31.822 1.555 33.716 6.817z" fill="#000"/><path d="M204.08 436.722a15.936 15.936 0 0 0 18.838 4.711 15.94 15.94 0 0 0 5.585-4.062l52.375 21.515-5.652-28.881-48.87-16.003a16.015 16.015 0 0 0-21.227 1.464 16.026 16.026 0 0 0-1.049 21.256z" fill="#FFB6B6"/><path d="m378.302 316.457-.287-.031-30.542 2.218a27.424 27.424 0 0 0-19.83 10.74 26.9 26.9 0 0 0-2.828 4.597l-.008.005a27.427 27.427 0 0 0-2.259 17.374l14.379 72.397-34.597-3.144-12.629 2.159-14.904-6.014-30.581.521-.708 2.344-6.416 21.271-.503 1.671 46.698 29.433 13.538-4.119 6.378 4.9.306.008 12.648.25 53.938 1.058 14.744-26.126 2.303-4.096c17.123-38.367 21.349-65.152 20.008-83.604-.702-9.749-2.956-17.16-5.684-22.745-8.436-17.26-22.57-20.922-23.164-21.067z" fill="#3F3D56"/><path d="M463.979 206.046a43.545 43.545 0 0 1-31.429-27.764c-2.212-6.419-3.047-13.468-6.761-19.18a102.566 102.566 0 0 0 13.477-25.335c1.271-3.497 4.247-9.847-.798-11.771-4.019-1.533-8.586 2.167-10.968 5.086a19.373 19.373 0 0 0-3.801 7.571l-2.466-10.887a1.412 1.412 0 0 0-1.697-.963c-6.733 1.148-11.617 7.384-12.465 13.953a14.217 14.217 0 0 0 2.167 9.679c2.163 3.291 5.331 5.651 8.345 8.104 3.206 2.608 5.923 5.387 7.646 9.201 1.791 3.965 2.598 8.304 3.786 12.467a46.174 46.174 0 0 0 34.231 32.5c1.73.379 2.47-2.281.733-2.661zm-38.026-65.969a16.021 16.021 0 0 1 2.609-9.811 15.545 15.545 0 0 1 3.544-3.839c1.317-1.007 3.26-2.34 5.003-1.97 2.261.48 1.351 3.003.871 4.525a97.823 97.823 0 0 1-7.23 17.097 100.02 100.02 0 0 1-3.216 5.514l-2.33-10.291a1.158 1.158 0 0 0 .749-1.225zm-16.113.549a13.632 13.632 0 0 1 9.029-14.82l6.569 29.014c-.452.666-.918 1.323-1.385 1.979-.123-.141-.235-.286-.362-.425-4.593-5-12.603-8.408-13.851-15.748z" fill="#F40638"/></g><defs><clipPath id="a"><path fill="#fff" d="M0 0h518v549H0z"/></clipPath></defs></svg>