<svg width="464" height="536" viewBox="0 0 464 536" fill="none" xmlns="http://www.w3.org/2000/svg">
<g clip-path="url(#clip0_796_1328)">
<path d="M339.599 514.2L330.112 514.396L324.824 477.048L338.824 476.758L339.599 514.2Z" fill="#FFB6B6"/>
<path d="M306.118 531.544C306.118 532.949 307.255 534.087 308.658 534.087H327.489C327.489 534.087 329.342 527.56 336.897 524.751L337.419 534.087H347.133V512.263C347.133 512.263 347.78 507.509 342.384 503.403C336.987 499.297 342.132 503.403 342.132 503.403L340.009 494.111L325.33 495.624L325.222 510.21L318.098 524.687L307.65 529.21C306.72 529.613 306.118 530.53 306.118 531.544Z" fill="#2F2E41"/>
<path d="M180.739 514.781L171.602 512.218L177.35 474.938L190.834 478.719L180.739 514.781Z" fill="#FFB6B6"/>
<path d="M143.675 521.672C143.268 523.016 144.027 524.436 145.37 524.843L163.393 530.303C163.393 530.303 167.056 524.593 175.1 524.095L172.897 533.183L182.195 536L188.511 515.111C188.511 515.111 190.507 510.749 186.53 505.254C182.552 499.76 186.289 505.181 186.289 505.181L186.946 495.672L172.459 492.863L168.134 506.792L157.126 518.584L145.816 519.882C144.81 519.998 143.968 520.701 143.675 521.672Z" fill="#2F2E41"/>
<path d="M295.736 141.304L293.374 141.158C293.542 140.58 293.711 140.009 293.864 139.43C295.173 134.577 292.292 128.398 292.08 123.735C290.968 128.662 292.87 134.723 290.902 139.401C290.683 139.921 290.464 140.441 290.23 140.953L226.262 136.912L222.605 101.774C222.605 81.5623 238.979 65.1719 259.171 65.1719C268.1 65.1719 276.284 68.3782 282.631 73.6929C288.979 79.0148 293.498 86.4524 295.1 94.9221C296.065 100.032 302.091 117.381 295.736 141.304V141.304Z" fill="#2F2E41"/>
<path d="M182.815 278.196L188.953 260.52L199.53 262.621L192.376 281.078C192.585 281.646 192.717 282.252 192.754 282.887C192.953 286.341 190.318 289.303 186.868 289.503C183.418 289.703 180.459 287.065 180.259 283.611C180.132 281.409 181.16 279.41 182.815 278.196V278.196Z" fill="#FFB6B6"/>
<path d="M320.822 287.72L315.066 269.915L324.768 265.204L330.184 284.245C330.693 284.572 331.164 284.976 331.575 285.46C333.816 288.094 333.499 292.048 330.867 294.291C328.236 296.533 324.287 296.216 322.046 293.582C320.617 291.902 320.233 289.687 320.822 287.72Z" fill="#FFB6B6"/>
<path d="M227.828 206.917V237.139L293.75 229.046L275.26 191.815L227.828 206.917Z" fill="#FFB6B6"/>
<path d="M269.409 123.735H245.31L237.231 138.376H215.459C215.459 138.376 205.785 210.116 218.217 211.581L221.874 212.313L226.025 213.622C224.494 215.221 224.737 217.131 226.025 219.224C224.701 220.378 226.147 222.105 227.891 223.892L291.348 218.169L289.886 210.116C289.886 210.116 298.661 210.116 295.005 199.868V143.691L271.603 137.644L269.409 123.735V123.735Z" fill="#F40638"/>
<path d="M286.961 147.892L295.165 143.69C295.165 143.69 303.049 144.232 306.706 151.553C310.362 158.873 310.362 211.58 310.362 211.58L327.183 272.34L312.556 280.392L292.673 224.025L286.961 147.892Z" fill="#F40638"/>
<path d="M224.799 142.768L216.595 138.566C216.595 138.566 208.71 139.108 205.054 146.429C201.397 153.749 201.397 206.456 201.397 206.456L184.577 267.216L199.203 275.268L219.087 218.901L224.799 142.768H224.799Z" fill="#F40638"/>
<path d="M289.886 218.169L226.262 229.882V260.52C225.017 262.888 225.011 265.484 226.262 268.311C223.876 271.683 224.739 276.638 226.262 281.914L195.899 369.386L173.608 485.365L190.428 489.025L235.769 385.075L273.797 304.55L324.989 491.221L340.346 489.757C340.346 489.757 361.554 272.34 289.886 218.169L289.886 218.169Z" fill="#2F2E41"/>
<path d="M255.103 119.952C266.56 119.952 275.847 110.655 275.847 99.1862C275.847 87.7179 266.56 78.4209 255.103 78.4209C243.646 78.4209 234.358 87.7179 234.358 99.1862C234.358 110.655 243.646 119.952 255.103 119.952Z" fill="#FFB6B6"/>
<path d="M283.304 94.0874V98.1136L259.902 91.5252L242.358 95.2C242.161 92.5281 241.371 89.9001 240.054 87.5722C240.427 90.2515 240.442 92.982 240.098 95.6759L228.456 98.1136V94.0874C228.456 78.9267 240.735 66.6357 255.88 66.6357C263.456 66.6357 270.309 69.7103 275.274 74.6736C280.233 79.6441 283.304 86.5034 283.304 94.0874Z" fill="#2F2E41"/>
<path d="M404.913 519.112C406.84 519.232 407.905 516.836 406.447 515.439L406.302 514.862C406.321 514.816 406.341 514.77 406.36 514.723C408.309 510.072 414.913 510.104 416.845 514.762C418.56 518.897 420.743 523.038 421.281 527.41C421.522 529.339 421.413 531.305 420.986 533.199C425.004 524.412 427.118 514.818 427.118 505.17C427.118 502.746 426.986 500.321 426.715 497.903C426.492 495.925 426.185 493.959 425.787 492.012C423.636 481.483 418.979 471.454 412.262 463.078C409.033 461.311 406.341 458.549 404.714 455.239C404.13 454.045 403.672 452.76 403.455 451.452C403.822 451.5 404.841 445.898 404.563 445.554C405.076 444.776 405.992 444.389 406.551 443.63C409.333 439.855 413.165 440.514 415.166 445.644C419.44 447.804 419.481 451.385 416.859 454.829C415.191 457.02 414.961 459.985 413.497 462.33C413.648 462.523 413.805 462.71 413.955 462.903C416.717 466.449 419.106 470.26 421.119 474.264C420.55 469.814 421.391 464.453 422.823 460.998C424.454 457.06 427.51 453.744 430.201 450.34C433.434 446.251 440.063 448.036 440.633 453.219C440.638 453.269 440.644 453.319 440.649 453.369C440.249 453.595 439.857 453.835 439.475 454.088C437.293 455.533 438.047 458.919 440.632 459.318L440.691 459.327C440.546 460.768 440.299 462.198 439.938 463.603C443.391 476.969 435.937 481.837 425.293 482.055C425.058 482.176 424.829 482.297 424.594 482.411C425.672 485.451 426.534 488.568 427.173 491.728C427.745 494.52 428.142 497.342 428.365 500.177C428.642 503.753 428.618 507.347 428.317 510.917L428.335 510.79C429.1 506.858 431.233 503.186 434.329 500.641C438.942 496.848 445.459 495.451 450.436 492.402C452.831 490.935 455.901 492.831 455.483 495.611L455.462 495.744C454.721 496.046 453.999 496.396 453.3 496.788C452.9 497.013 452.508 497.253 452.126 497.506C449.944 498.951 450.698 502.337 453.283 502.736L453.342 502.745C453.384 502.752 453.42 502.758 453.462 502.764C452.191 505.785 450.42 508.589 448.203 511.007C446.044 522.675 436.772 523.782 426.853 520.384H426.847C425.763 525.112 424.178 529.731 422.142 534.133H405.335C405.274 533.946 405.22 533.753 405.166 533.566C406.72 533.663 408.286 533.573 409.817 533.289C408.57 531.757 407.323 530.214 406.076 528.682C406.045 528.652 406.021 528.622 405.997 528.591C405.365 527.808 404.726 527.03 404.094 526.246L404.093 526.245C404.054 523.838 404.342 521.44 404.913 519.112L404.913 519.112Z" fill="#F2F2F2"/>
<path d="M85.6263 534.514C85.6263 535.131 86.1207 535.625 86.7363 535.625H462.89C463.506 535.625 464 535.131 464 534.514C464 533.898 463.506 533.403 462.89 533.403H86.7363C86.1207 533.403 85.6264 533.898 85.6264 534.514H85.6263Z" fill="#CCCCCC"/>
<path d="M21.627 0C9.68273 0 0 9.69246 0 21.6487V325.351H1.9063V150.444C1.9063 68.4096 68.3409 1.90821 150.293 1.90821L434.983 1.56124L434.637 0H21.627V0Z" fill="#E6E6E6"/>
<path d="M446.612 333.129H120.163C117.075 333.129 114.566 335.64 114.566 338.731C114.566 341.821 117.075 344.333 120.163 344.333H446.612C449.699 344.333 452.208 341.821 452.208 338.731C452.208 335.64 449.699 333.129 446.612 333.129Z" fill="#3F3D56"/>
<path d="M336.086 333.129V344.333H120.163C117.075 344.333 114.566 341.821 114.566 338.731C114.566 335.64 117.075 333.129 120.163 333.129H336.086Z" fill="#6C63FF"/>
<path d="M177.525 321.925C188.857 321.925 198.044 312.729 198.044 301.385C198.044 290.041 188.857 280.845 177.525 280.845C166.192 280.845 157.005 290.041 157.005 301.385C157.005 312.729 166.192 321.925 177.525 321.925Z" fill="#6C63FF"/>
<path d="M172.622 311.774C172.228 311.774 171.836 311.662 171.492 311.441C170.889 311.053 170.529 310.394 170.529 309.677V294.856C170.529 294.1 170.919 293.422 171.572 293.043C172.226 292.664 173.007 292.661 173.662 293.037L188.059 301.27C188.744 301.663 189.148 302.397 189.112 303.187C189.076 303.975 188.608 304.669 187.891 304.997L173.494 311.584C173.215 311.712 172.918 311.774 172.622 311.774Z" fill="white"/>
</g>
<defs>
<clipPath id="clip0_796_1328">
<rect width="464" height="536" fill="white"/>
</clipPath>
</defs>
</svg>
