<svg width="648" height="458" viewBox="0 0 648 458" fill="none" xmlns="http://www.w3.org/2000/svg">
<g clip-path="url(#clip0_785_581)">
<path d="M648 340.939H0V343.866H648V340.939Z" fill="black"/>
<path d="M648 226.805H0V229.732H648V226.805Z" fill="black"/>
<path d="M648 112.671H0V115.597H648V112.671Z" fill="black"/>
<path d="M519.886 0H516.913V456.537H519.886V0Z" fill="black"/>
<path d="M390.286 0H387.314V456.537H390.286V0Z" fill="black"/>
<path d="M260.686 0H257.714V456.537H260.686V0Z" fill="black"/>
<path d="M131.086 0H128.114V456.537H131.086V0Z" fill="black"/>
<path d="M389.395 114.134H129.303V228.268H389.395V114.134Z" fill="#302D62"/>
<path d="M129.303 219.489V342.402L264.55 223.879L129.303 219.489Z" fill="#302D62"/>
<path d="M389.395 223.879V228.268L387.7 229.746L384.282 232.731C317.803 234.707 264.105 281.59 261.682 339.725L258.635 342.388L258.606 342.403V219.489L389.395 223.879Z" fill="#302D62"/>
<path d="M388.651 229.732C388.339 229.732 388.012 229.732 387.7 229.746C316.985 230.185 259.512 280.404 258.635 342.388C258.606 342.885 258.606 343.368 258.606 343.866C258.606 406.801 316.94 458 388.651 458C460.363 458 518.697 406.801 518.697 343.866C518.697 280.931 460.362 229.732 388.651 229.732ZM388.651 455.074C318.59 455.074 261.578 405.191 261.578 343.866C261.578 342.476 261.608 341.1 261.682 339.725C264.105 281.59 317.803 234.707 384.282 232.731C385.724 232.673 387.18 232.658 388.651 232.658C458.713 232.658 515.725 282.541 515.725 343.866C515.725 405.191 458.713 455.074 388.651 455.074Z" fill="black"/>
<path d="M317.312 342.426L309.881 342.385C309.884 341.734 311.074 277.299 387.093 272.83L387.535 280.133C318.592 284.187 317.332 340.05 317.312 342.426Z" fill="#E6E6E6"/>
<path d="M463.677 340.939C463.39 332.599 461.403 324.401 457.834 316.832C454.264 309.263 449.185 302.478 442.899 296.881C428.12 283.612 408.8 276.323 388.8 276.468H388.651C347.825 276.468 314.503 305.25 313.626 340.939C313.596 341.422 313.596 341.92 313.596 342.403C313.596 361.074 322.469 377.945 336.707 389.944C351.245 401.969 369.664 408.492 388.651 408.337H388.8C430.117 408.264 463.706 378.721 463.706 342.403C463.706 341.92 463.706 341.422 463.677 340.939Z" fill="#E6E6E6"/>
<path d="M442.899 296.881L440.67 298.827L338.936 387.998L336.707 389.944C322.469 377.945 313.596 361.074 313.596 342.403C313.596 341.92 313.596 341.422 313.626 340.939C314.503 305.25 347.825 276.468 388.651 276.468H388.8C408.8 276.323 428.12 283.612 442.899 296.881Z" fill="#F40638"/>
</g>
<defs>
<clipPath id="clip0_785_581">
<rect width="648" height="458" fill="white"/>
</clipPath>
</defs>
</svg>
