<svg width="710" height="441" fill="none" xmlns="http://www.w3.org/2000/svg"><g clip-path="url(#a)"><path d="m171.969 397.509.789-17.763a57.307 57.307 0 0 1 26.741-6.774c-12.843 10.508-11.238 30.762-19.946 44.892a34.475 34.475 0 0 1-25.287 15.946l-10.748 6.585a57.843 57.843 0 0 1 12.18-46.857 55.794 55.794 0 0 1 10.258-9.537c2.574 6.791 6.013 13.508 6.013 13.508z" fill="#F2F2F2"/><path d="M630.561 28.941H130.238a.805.805 0 0 1 0-1.607h500.323a.804.804 0 0 1 0 1.607z" fill="#CACACA"/><path d="M147.926 17.686c4.774 0 8.645-3.959 8.645-8.843S152.7 0 147.926 0c-4.774 0-8.645 3.96-8.645 8.843 0 4.884 3.871 8.843 8.645 8.843zM177.789 17.686c4.775 0 8.645-3.959 8.645-8.843S182.564 0 177.789 0c-4.774 0-8.644 3.96-8.644 8.843 0 4.884 3.87 8.843 8.644 8.843zM207.653 17.686c4.774 0 8.644-3.959 8.644-8.843S212.427 0 207.653 0c-4.775 0-8.645 3.96-8.645 8.843 0 4.884 3.87 8.843 8.645 8.843zM612.666 2.192h-21.213a1.608 1.608 0 0 0 0 3.215h21.213a1.605 1.605 0 0 0 1.575-1.608 1.606 1.606 0 0 0-1.575-1.607zM612.666 8.225h-21.213a1.608 1.608 0 0 0 0 3.215h21.213a1.605 1.605 0 0 0 1.575-1.607 1.606 1.606 0 0 0-1.575-1.608zM612.666 14.25h-21.213a1.608 1.608 0 0 0 0 3.215h21.213a1.605 1.605 0 0 0 1.575-1.607 1.606 1.606 0 0 0-1.575-1.607zM519.622 91.958H176.213a6.383 6.383 0 0 0-4.512 1.869 6.392 6.392 0 0 0-1.873 4.513V260.55a6.4 6.4 0 0 0 1.872 4.516 6.39 6.39 0 0 0 4.513 1.874h343.409a6.391 6.391 0 0 0 6.378-6.39V98.34a6.384 6.384 0 0 0-6.378-6.382z" fill="#3F3D56"/><path d="M428.914 170.106a6.388 6.388 0 0 0-6.378 6.382v45.82a6.391 6.391 0 0 0 6.378 6.39H526v-58.592h-97.086z" fill="#6C63FF"/><path opacity=".5" d="M689.245 228.695H428.917a6.39 6.39 0 0 1-6.382-6.387V176.49a6.394 6.394 0 0 1 6.382-6.387h260.328a6.389 6.389 0 0 1 6.383 6.387v45.818a6.395 6.395 0 0 1-6.383 6.387z" fill="#6C63FF"/><path d="M464.123 212.692c5.72 0 10.356-4.64 10.356-10.364 0-5.724-4.636-10.364-10.356-10.364s-10.357 4.64-10.357 10.364c0 5.724 4.637 10.364 10.357 10.364zM681.179 199.317H494.038a3.084 3.084 0 0 1-3.084-3.086 3.088 3.088 0 0 1 3.084-3.087h187.141a3.086 3.086 0 0 1 0 6.173zM610.101 211.512H494.038a3.088 3.088 0 0 1-2.181-5.269 3.084 3.084 0 0 1 2.181-.904h116.063a3.082 3.082 0 0 1 3.084 3.086 3.086 3.086 0 0 1-3.084 3.087z" fill="#fff"/><path d="m119.799 431.944 8.964-.001 4.264-34.595h-13.229l.001 34.596z" fill="#FFB6B6"/><path d="M117.513 429.015h2.523l9.85-4.009 5.279 4.008h.001c2.983 0 5.844 1.186 7.954 3.297a11.262 11.262 0 0 1 3.295 7.959v.366l-28.901.001-.001-11.622z" fill="#2F2E41"/><path d="m38.812 420.282 8.022 4.001 19.238-29.059-11.84-5.905-15.42 30.963z" fill="#FFB6B6"/><path d="m38.07 416.641 2.259 1.126 10.602.809 2.938 5.944a11.254 11.254 0 0 1 5.65 6.501 11.266 11.266 0 0 1-.6 8.595l-.163.327-25.866-12.9 5.18-10.402zM123.771 274.823l-56.99 1.488.99 27.77s-.99 7.438.992 9.422c1.982 1.984 2.973 1.984 1.982 5.455-.991 3.471-3.553 36.638-3.553 36.638s-23.39 41.386-22.4 42.378c.991.992 1.983 0 .991 2.48-.99 2.479-1.982 1.487-.99 2.479a36.492 36.492 0 0 1 2.477 2.976h16.154s.903-4.959.903-5.455c0-.496.991-3.472.991-3.967 0-.496 28.223-30.419 28.223-30.419l5.947-49.59 14.372 48.599s0 42.647.991 43.639c.991.992.991.496.495 2.479-.495 1.984-2.478 1.488-.991 2.976 1.487 1.487 1.982-.992 1.487 1.487l-.496 2.48 19.04.213s1.982-4.18.991-5.668c-.991-1.488-.932-1.081.277-3.516s1.705-2.931 1.209-3.427c-.495-.495-.495-3.133-.495-3.133s-7.146-97.534-7.146-99.022a4.958 4.958 0 0 1 .412-2.231v-2.019l-1.899-7.156-3.964-17.356z" fill="#2F2E41"/><path d="M688.132 188.718a21.854 21.854 0 0 1-12.15-3.688 21.875 21.875 0 0 1-8.054-9.821 21.895 21.895 0 0 1 4.74-23.848 21.852 21.852 0 0 1 23.832-4.743 21.874 21.874 0 0 1 13.5 20.217c0 5.804-2.304 11.37-6.405 15.474a21.859 21.859 0 0 1-15.463 6.409z" fill="#302D62"/><path d="M696.76 164.676h-6.471v-6.475a2.156 2.156 0 1 0-4.315 0v6.475h-6.471a2.152 2.152 0 0 0-1.528.631 2.169 2.169 0 0 0-.634 1.528 2.153 2.153 0 0 0 .634 1.528c.2.2.439.359.701.468.262.108.543.163.827.163h6.471v6.476a2.156 2.156 0 1 0 4.315 0v-6.476h6.471a2.159 2.159 0 0 0 0-4.318z" fill="#fff"/><path d="M354.386 228.991h-83.089a6.398 6.398 0 0 0-6.385 6.39v31.56h95.852v-31.56a6.402 6.402 0 0 0-1.869-4.514 6.387 6.387 0 0 0-4.509-1.876z" fill="#6C63FF"/><path opacity=".5" d="M354.383 317.67h-83.089a6.386 6.386 0 0 1-4.511-1.873 6.398 6.398 0 0 1-1.871-4.514v-75.906a6.396 6.396 0 0 1 1.871-4.513 6.386 6.386 0 0 1 4.511-1.873h83.089a6.393 6.393 0 0 1 6.383 6.386v75.906a6.395 6.395 0 0 1-6.383 6.387z" fill="#6C63FF"/><path d="M295.775 264.97c5.72 0 10.357-4.64 10.357-10.364 0-5.724-4.637-10.364-10.357-10.364s-10.357 4.64-10.357 10.364c0 5.724 4.637 10.364 10.357 10.364zM337.175 280.722h-48.673a3.082 3.082 0 0 1-3.084-3.086 3.082 3.082 0 0 1 3.084-3.086h48.673a3.086 3.086 0 0 1 0 6.172zM311.989 292.917h-23.487a3.082 3.082 0 0 1-3.084-3.086 3.086 3.086 0 0 1 3.084-3.086h23.487a3.082 3.082 0 0 1 3.084 3.086 3.082 3.082 0 0 1-3.084 3.086z" fill="#fff"/><path d="M269.562 339.948a21.86 21.86 0 0 1-12.149-3.688 21.881 21.881 0 0 1-9.299-22.465 21.881 21.881 0 0 1 17.182-17.193 21.867 21.867 0 0 1 22.449 9.305 21.89 21.89 0 0 1-2.72 27.631 21.86 21.86 0 0 1-15.463 6.41z" fill="#302D62"/><path d="M278.191 315.906h-6.472v-6.476a2.159 2.159 0 0 0-3.682-1.527 2.159 2.159 0 0 0-.632 1.527v6.476h-6.472a2.15 2.15 0 0 0-1.528.631 2.16 2.16 0 0 0 1.528 3.686h6.472v6.476c0 .573.227 1.122.632 1.526a2.155 2.155 0 0 0 3.682-1.526v-6.476h6.472a2.154 2.154 0 0 0 2.157-2.159 2.158 2.158 0 0 0-2.157-2.158z" fill="#fff"/><path d="M259.439 180.736h-83.088a6.393 6.393 0 0 1-6.383-6.387V98.444a6.395 6.395 0 0 1 6.383-6.387h83.088a6.395 6.395 0 0 1 6.383 6.386v75.906a6.393 6.393 0 0 1-6.383 6.387z" fill="#6C63FF"/><path d="M200.831 134.37c5.72 0 10.357-4.64 10.357-10.364 0-5.723-4.637-10.363-10.357-10.363s-10.357 4.64-10.357 10.363c0 5.724 4.637 10.364 10.357 10.364zM242.231 146.956h-48.673a3.086 3.086 0 0 1 0-6.173h48.673a3.082 3.082 0 0 1 3.084 3.086 3.086 3.086 0 0 1-3.084 3.087zM217.046 159.15h-23.487a3.085 3.085 0 1 1 0-6.172h23.487a3.084 3.084 0 0 1 3.084 3.086 3.087 3.087 0 0 1-3.084 3.086z" fill="#6C63FF"/><path opacity=".5" d="M259.439 180.736h-83.088a6.393 6.393 0 0 1-6.383-6.387V98.444a6.395 6.395 0 0 1 6.383-6.387h83.088a6.395 6.395 0 0 1 6.383 6.386v75.906a6.393 6.393 0 0 1-6.383 6.387z" fill="#302D62"/><path d="M200.831 134.37c5.72 0 10.357-4.64 10.357-10.364 0-5.723-4.637-10.363-10.357-10.363s-10.357 4.64-10.357 10.363c0 5.724 4.637 10.364 10.357 10.364zM242.231 146.956h-48.673a3.086 3.086 0 0 1 0-6.173h48.673a3.082 3.082 0 0 1 3.084 3.086 3.086 3.086 0 0 1-3.084 3.087zM217.046 159.15h-23.487a3.085 3.085 0 1 1 0-6.172h23.487a3.084 3.084 0 0 1 3.084 3.086 3.087 3.087 0 0 1-3.084 3.086z" fill="#fff"/><path d="M178.065 108.435c9.177 0 16.616-7.444 16.616-16.627s-7.439-16.628-16.616-16.628-16.617 7.445-16.617 16.628 7.44 16.627 16.617 16.627z" fill="#F40638"/><path d="M223.662 440.058a.948.948 0 0 1-.275.667.938.938 0 0 1-.667.275H.942a.94.94 0 0 1-.942-.942.94.94 0 0 1 .942-.942H222.72a.933.933 0 0 1 .667.275.933.933 0 0 1 .275.667z" fill="#CCC"/><path d="M174.513 135.85a7.743 7.743 0 0 1-4.556 9.846c-.42.157-.853.276-1.294.357l-4.389 26.888-10.294-9.511 5.745-24.076a7.773 7.773 0 0 1 1.653-5.653 7.757 7.757 0 0 1 5.144-2.866 7.554 7.554 0 0 1 7.991 5.015z" fill="#FFB6B6"/><path d="M98.542 196.776s7.99-10.564 36.982-10.274l16.456-5.983 3.761-34.498 13.163 3.136-1.88 42.652-28.207 16.308-36.982 7.527-3.293-18.868z" fill="#3F3D56"/><path d="M94.297 174.769c9.503 0 17.208-7.709 17.208-17.219 0-9.51-7.705-17.219-17.208-17.219-9.504 0-17.208 7.709-17.208 17.219 0 9.51 7.704 17.219 17.208 17.219z" fill="#FFB6B6"/><path d="M65.173 288.11a.344.344 0 0 1-.09-.012c-.318-.089-.57-.159.577-10.079l1.238-7.842-1.208-6.923-2.032-2.034 3.266-3.267 2.74-7.79-4.742-7.031-5.44-28.754a22.953 22.953 0 0 1 2.068-14.6 22.924 22.924 0 0 1 10.521-10.324l6.297-1.841 2.29-4.205a7.526 7.526 0 0 1 6.557-3.928l11.531-.087a7.538 7.538 0 0 1 6.027 2.942l4.022 5.233 16.682 5.67-2.766 59.638a4.137 4.137 0 0 1 .284 6.093c-.173.175-.311.317-.396.412-.281.399.247 3.384.898 5.918l.836 3.881a2.392 2.392 0 0 0-.98 1.646 2.384 2.384 0 0 0 .546 1.837l1.066 1.259a6.02 6.02 0 0 1-5.149 6.758c-15.246 2.076-54.563 7.43-54.643 7.43z" fill="#3F3D56"/><path d="M89.895 173.926a123.14 123.14 0 0 1-.22-.488l.084.006.136.482zM76.61 141.114a4.783 4.783 0 0 1 3.001-1.298c1.113.036 2.241 1.041 2.01 2.131a17.685 17.685 0 0 1 9.19-7.866 17.671 17.671 0 0 1 12.091-.119c2.766.977 5.478 2.93 6.113 5.795.062.752.286 1.482.657 2.139a2.436 2.436 0 0 0 2.597.658l.027-.008a.812.812 0 0 1 .983 1.149l-.783 1.46c.987.22 2.012.198 2.988-.064a.817.817 0 0 1 1.018.799.805.805 0 0 1-.156.466 14.15 14.15 0 0 1-11.29 5.808c-3.126-.02-6.285-1.098-9.328-.378a8.099 8.099 0 0 0-5.444 4.387 8.112 8.112 0 0 0-.006 6.995c-.934-1.023-2.741-.781-3.698.222a5.078 5.078 0 0 0-1.107 3.884c.255 2.109.881 4.156 1.849 6.048a18.063 18.063 0 0 1-10.237-3.572 18.092 18.092 0 0 1-.474-28.636z" fill="#2F2E41"/><path d="M71.876 312.806a7.736 7.736 0 0 1-1.821-10.696c.257-.368.546-.712.864-1.028l-11.612-24.643 13.868 1.999 8.9 23.095a7.767 7.767 0 0 1-.775 10.873 7.552 7.552 0 0 1-9.424.4z" fill="#FFB6B6"/><path d="m68.36 299.35-18.477-41.555-.185-32.82 5.824-17.729a18.946 18.946 0 0 1 9.683-11.108 18.918 18.918 0 0 1 14.71-.8l.127.046.054.126c.216.502 5.1 12.594-9.39 37.468l-2.916 17.021 10.233 39.014-9.663 10.337z" fill="#3F3D56"/></g><defs><clipPath id="a"><path fill="#fff" d="M0 0h710v441H0z"/></clipPath></defs></svg>