<svg width="511" height="525" fill="none" xmlns="http://www.w3.org/2000/svg"><g clip-path="url(#a)"><path d="M159.84 27.054v331.718h207.004V19.03C333.732 5.223 298.184-1.2 262.517.184c-35.668 1.383-70.653 10.539-102.677 26.87z" fill="#fff"/><path d="M139.531 40.817v318.897h70.381l-1.257-18.05-6.92-197.624h139.36l-6.92 197.624-1.258 18.05h71.17V46.59a205.679 205.679 0 0 0-3.948-2.949c-.258-.187.882-5.475.617-5.662a226.622 226.622 0 0 0-49.308-27.142l-5.154 58.736h-24.148V6.947a154.542 154.542 0 0 0-4.742-1.14c0 16.911-6.484 33.13-18.025 45.09-11.541 11.958-27.195 18.676-43.516 18.676h-29.649V4.153c-1.583.3-3.165.618-4.736.955v64.465h-24.949l-3.935-56.253a225.523 225.523 0 0 0-48.327 24.273c-.524.35-1.053.692-1.577 1.054a179.22 179.22 0 0 0-3.159 2.17zm182.615 33.67h23.805l-3.712 53.186h-20.093V74.487zm-95.932 0h91.19v53.186h-35.329v-1.054c0-.506-.096-1.007-.283-1.475a3.841 3.841 0 0 0-.806-1.25 3.708 3.708 0 0 0-1.207-.836 3.614 3.614 0 0 0-1.423-.293h-14.671c-.489 0-.973.099-1.425.292a3.704 3.704 0 0 0-1.208.835 3.862 3.862 0 0 0-.808 1.251 3.979 3.979 0 0 0-.284 1.476v1.054h-33.746V74.487zm-25.629 53.186-3.713-53.186h24.606v53.186h-20.893z" fill="#F2F2F2"/><path d="m33.116 350.197.018.05c.042.131.084.249.132.38v.006a264.049 264.049 0 0 0 6.764 17.621l464.098-.524a269.309 269.309 0 0 0 6.86-18.001.106.106 0 0 0 .012-.043l-477.884.511z" fill="#CCC"/><path d="M207.387 259.217a11.41 11.41 0 0 1-2.061 4.375 10.922 10.922 0 0 1-3.655 3.061 10.522 10.522 0 0 1-4.56 1.172 10.52 10.52 0 0 1-4.611-.938l-26.158 29.316-4.791-20.144 25.574-24.751c1.229-2.455 3.284-4.357 5.776-5.347a10.544 10.544 0 0 1 7.745-.023c2.498.974 4.563 2.865 5.805 5.312a11.658 11.658 0 0 1 .936 7.967z" fill="#FFB6B6"/><path d="m177.625 285.202-35.54 41.333-.289-.056c-.12-.018-2.816-.517-7.088-1.328-15.453-2.93-51.498-9.92-60.44-13.156-5.157-1.801-9.784-4.937-13.444-9.11.927-5.231 1.92-9.147 2.9-11.055.717-1.39.584-3.205.614-5.275a15.747 15.747 0 0 1 7.926-2.905c17.781-1.333 35.619 1.631 52.106 8.66l9.375 4.016.385-.293 31.664-24.08.217-.162 10.892 12.576.722.835z" fill="#302D62"/><path d="M251.797 524.177c-.475-.037-.945-.081-1.42-.124a241.609 241.609 0 0 1-17.71-2.195l-6.414-15.476-3.075-7.42 11.608-5.169 7.546-3.354 3.586 12.77 1.486 5.306 3.515 12.52.878 3.142z" fill="#FFB6B6"/><path d="M121.76 452.164v21.735c3.52 2.694 7.11 5.292 10.771 7.794v-29.529H121.76z" fill="#CACACA"/><path d="M83.921 438.396c3.027 3.48 6.144 6.87 9.351 10.17a256.204 256.204 0 0 0 23.999 21.823h48.02a8.693 8.693 0 0 0 3.696-.827 8.981 8.981 0 0 0 3.037-2.334l.006-.019a9.292 9.292 0 0 0 2.022-4.115l.006-.012a9.906 9.906 0 0 0 .205-1.996v-13.387c-.002-2.465-.947-4.83-2.629-6.574-1.683-1.744-3.964-2.725-6.343-2.729h-81.37z" fill="#3F3D56"/><path d="m64.135 386.146 5.206 23.107a50.306 50.306 0 0 0-.506 10.126 260.97 260.97 0 0 0 15.086 19.018 250.488 250.488 0 0 0 9.352 10.169c8.352 2.719 18.197 3.828 28.487 3.903 3.55.031 7.154-.068 10.771-.268 14.665-.798 6.631-3.236 18.781-5.767a328.117 328.117 0 0 0 9.014-1.989 354.509 354.509 0 0 0 12.86-3.249c3.592-.973 16.558-7.684 16.558-7.684l10.23 23.07L209 478.405l11.887 27.568c1.528.144 3.059.264 4.591.362 1.625.118 3.252.214 4.88.287 1.288.068 2.57.118 3.864.156l.439.143.361-.119 5.801-1.914 1.956-.642 7.034-2.319s-1.57-5.126-4.32-13.674c-1.011-3.136-8.172-26.325-15.664-46.571a1099.872 1099.872 0 0 0-6.884-18.175 977.58 977.58 0 0 0-5.909-14.84c-3.473-8.486-20.25-13.063-40.005-15.463-1.005-.118-2.016-.237-3.033-.349-10.067-1.098-20.749-1.665-30.738-1.927-5-.131 13.04-.181 8.551-.187-1.45 0-2.86.004-4.23.013h-.006a622.37 622.37 0 0 0-10.104.137c-.583.012-1.149.031-1.703.043h-.006c-.373.007-.74.019-1.101.025-6.553.175-10.573.387-10.573.387l-1.558-12.67-.319-2.556-.301-2.432v-.006l-.036-.306-.247-.006-4.332-.087-36.419-.736-15.511-.681-1.23 14.28z" fill="#2F2E41"/><path d="M182.523 432.889c-4.387 7.769-7.805 22.496-12.3 29.791-8.623 14.004-13.678 21.643-19.653 30.26a243.022 243.022 0 0 1-18.035-11.249 236.493 236.493 0 0 1-9.225-6.628l3.581-8.461 2.034-4.146 9.134-18.637 10.242-20.894 3.563 1.721 30.659 8.243z" fill="#2F2E41"/><path d="M490.36 326.129a4.106 4.106 0 0 0-.335-3.267 3.935 3.935 0 0 0-1.102-1.235 3.764 3.764 0 0 0-1.496-.651 3.328 3.328 0 0 0-.604-.077l-24.522-.657a3.833 3.833 0 0 0-1.601.334 3.939 3.939 0 0 0-1.332.978 4.778 4.778 0 0 0-1.045-.113 5.642 5.642 0 0 0-2.237.399 5.797 5.797 0 0 0-1.919 1.256 6.014 6.014 0 0 0-1.308 1.922 6.214 6.214 0 0 0-.112 4.611 6.05 6.05 0 0 0 1.214 1.987 5.803 5.803 0 0 0 1.856 1.355c.698.32 1.45.495 2.214.514a5.7 5.7 0 0 0 2.55-.543l2.256 24.995a3.953 3.953 0 0 0 1.334 2.072 3.718 3.718 0 0 0 2.265.832l15.942.425a3.767 3.767 0 0 0 2.284-.723 3.99 3.99 0 0 0 1.437-1.977l4.261-32.437zm-32.278 5.632a4.09 4.09 0 0 1-2.904-1.337 4.392 4.392 0 0 1-1.144-3.071 4.375 4.375 0 0 1 1.282-3.012 4.08 4.08 0 0 1 2.961-1.195c.078 0 .146.039.224.039-.174.69-.17 1.416.012 2.104l1.606 5.956a3.804 3.804 0 0 1-2.037.516z" fill="#CCC"/><path d="M487.428 320.977c-.523 3.095-6.397 5.271-13.459 4.893-6.495-.311-11.805-2.674-12.778-5.474.36-.11.734-.162 1.11-.153l24.522.656c.203.008.405.034.605.078z" fill="#fff"/><path d="M333.903 288.269v63.948h43.236v-63.948a2.2 2.2 0 0 0-.404-1.278 2.074 2.074 0 0 0-1.058-.779c-.2-.069-.41-.102-.62-.1h-39.066a2.013 2.013 0 0 0-.798.163 2.078 2.078 0 0 0-.678.467 2.19 2.19 0 0 0-.612 1.527zm16.873 21.973a4.868 4.868 0 0 1 1.367-3.354 4.535 4.535 0 0 1 3.248-1.385c1.217 0 2.385.498 3.249 1.385a4.868 4.868 0 0 1 1.367 3.354v7.42a4.872 4.872 0 0 1-1.36 3.367 4.533 4.533 0 0 1-3.256 1.392c-1.22 0-2.39-.5-3.255-1.392a4.872 4.872 0 0 1-1.36-3.367v-7.42z" fill="#CCC"/><path d="M333.771 350.172v6.167c0 .319.123.625.34.851.218.227.513.355.821.358h41.178c.309-.001.604-.13.822-.356.217-.227.339-.534.339-.853v-6.167h-43.5z" fill="#3F3D56"/><path d="M265.886 191.923v116.76a5.727 5.727 0 0 0 1.588 3.967 5.325 5.325 0 0 0 3.828 1.645h166.987a5.329 5.329 0 0 0 3.829-1.645 5.722 5.722 0 0 0 1.587-3.967v-116.76a5.723 5.723 0 0 0-1.59-3.962 5.332 5.332 0 0 0-3.826-1.643H271.302a5.331 5.331 0 0 0-3.825 1.643 5.729 5.729 0 0 0-1.591 3.962z" fill="#CCC"/><path d="M269.804 193.376v113.867a3.06 3.06 0 0 0 .849 2.119 2.853 2.853 0 0 0 2.045.88h164.201a2.854 2.854 0 0 0 2.046-.88 3.065 3.065 0 0 0 .849-2.119V193.376c0-.796-.305-1.559-.848-2.123a2.848 2.848 0 0 0-2.047-.882H272.698a2.85 2.85 0 0 0-2.047.882 3.065 3.065 0 0 0-.847 2.123z" fill="#fff"/><path d="M303.789 357.13a1.742 1.742 0 0 0 1.396.693h97.689c.267-.001.531-.063.772-.182s.454-.293.622-.508a1.922 1.922 0 0 0 .363-1.555l-1.516-7.464a1.886 1.886 0 0 0-.394-.823 1.795 1.795 0 0 0-1.363-.654h-94.663a1.795 1.795 0 0 0-1.363.654 1.886 1.886 0 0 0-.394.823l-1.516 7.464c-.054.271-.049.551.014.819.064.269.184.519.353.733z" fill="#F2F2F2"/><path d="M431.571 206.056H277.928a.6.6 0 0 1-.423-.19.646.646 0 0 1 0-.886.605.605 0 0 1 .423-.19h153.643a.605.605 0 0 1 .423.19.646.646 0 0 1 0 .886.6.6 0 0 1-.423.19zM288.387 201.558c1.977 0 3.581-1.698 3.581-3.793s-1.604-3.793-3.581-3.793c-1.978 0-3.581 1.698-3.581 3.793s1.603 3.793 3.581 3.793zM300.757 201.558c1.977 0 3.58-1.698 3.58-3.793s-1.603-3.793-3.58-3.793c-1.978 0-3.581 1.698-3.581 3.793s1.603 3.793 3.581 3.793zM313.126 201.558c1.978 0 3.581-1.698 3.581-3.793s-1.603-3.793-3.581-3.793c-1.977 0-3.58 1.698-3.58 3.793s1.603 3.793 3.58 3.793zM424.122 194.91h-8.785a.657.657 0 0 0-.461.207.7.7 0 0 0-.189.482.7.7 0 0 0 .189.482.653.653 0 0 0 .461.207h8.785a.653.653 0 0 0 .465-.205.706.706 0 0 0 0-.968.657.657 0 0 0-.465-.205zM424.122 197.498h-8.786a.652.652 0 0 0-.46.207.7.7 0 0 0-.19.482.7.7 0 0 0 .19.481.652.652 0 0 0 .46.207h8.786a.651.651 0 0 0 .464-.205.7.7 0 0 0 .192-.483.7.7 0 0 0-.192-.484.651.651 0 0 0-.464-.205zM424.122 200.085h-8.785a.653.653 0 0 0-.461.207.7.7 0 0 0-.189.482.7.7 0 0 0 .189.482.657.657 0 0 0 .461.207h8.785a.653.653 0 0 0 .465-.205.706.706 0 0 0 0-.968.653.653 0 0 0-.465-.205z" fill="#3F3D56"/><path d="M372.778 240.474h-25.935c-1.266 0-2.292 1.064-2.292 2.376v2.011c0 1.312 1.026 2.376 2.292 2.376h25.935c1.267 0 2.293-1.064 2.293-2.376v-2.011c0-1.312-1.026-2.376-2.293-2.376zM388.279 253.999h-56.936c-1.266 0-2.293 1.064-2.293 2.376v2.011c0 1.312 1.027 2.375 2.293 2.375h56.936c1.266 0 2.292-1.063 2.292-2.375v-2.011c0-1.312-1.026-2.376-2.292-2.376zM388.279 267.524h-56.936c-1.266 0-2.293 1.064-2.293 2.376v2.011c0 1.312 1.027 2.376 2.293 2.376h56.936c1.266 0 2.292-1.064 2.292-2.376V269.9c0-1.312-1.026-2.376-2.292-2.376z" fill="#F40638"/><path d="M253.831 361.807c7.81 0 14.141-2.093 14.141-4.676s-6.331-4.676-14.141-4.676-14.141 2.093-14.141 4.676 6.331 4.676 14.141 4.676z" fill="#3F3D56"/><path d="M253.831 358.69c7.81 0 14.141-2.094 14.141-4.676 0-2.583-6.331-4.677-14.141-4.677s-14.141 2.094-14.141 4.677c0 2.582 6.331 4.676 14.141 4.676z" fill="#3F3D56"/><path d="m254.885 357.148-2.107-.033.581-40.771a39.13 39.13 0 0 0-4.644-19.023c-3.126-5.811-7.67-10.67-13.176-14.093l-40.22-24.91 1.082-1.875 40.219 24.911c5.823 3.62 10.628 8.759 13.935 14.905a41.368 41.368 0 0 1 4.911 20.117l-.581 40.772z" fill="#3F3D56"/><path d="M201.478 238.351c0-2.927-2.29-5.3-5.115-5.3-2.824 0-5.114 2.373-5.114 5.3v33.047c0 2.927 2.29 5.299 5.114 5.299 2.825 0 5.115-2.372 5.115-5.299v-33.047z" fill="#F40638"/><path d="M192.784 285.803c-4.041-.006-7.917-1.66-10.79-4.604-2.873-2.944-4.512-6.942-4.563-11.128l-.174-16.744 2.108-.023.173 16.744a14.07 14.07 0 0 0 2.073 7.219 13.387 13.387 0 0 0 5.442 4.993 12.82 12.82 0 0 0 7.166 1.259 12.982 12.982 0 0 0 6.726-2.856l14.34-11.705 1.304 1.716-14.34 11.705c-2.693 2.213-6.028 3.419-9.465 3.424z" fill="#3F3D56"/><path d="M180.417 267.033c3.49 0 6.318-7.119 6.318-15.9s-2.828-15.9-6.318-15.9c-3.49 0-6.318 7.119-6.318 15.9s2.828 15.9 6.318 15.9z" fill="#3F3D56"/><path d="M135.863 336.717c-.547-3.567-.915-7.476-1.155-11.566-.566-9.359-.512-19.678-.578-29.118-.028-4.291-.356-8.975-.782-13.325a25.72 25.72 0 0 0-3.722-11.127 24.627 24.627 0 0 0-8.211-8.144 24.738 24.738 0 0 1-6.036-5.096c-.938-1.085-1.053-3.592-1.173-6.241-.145-3.224-.295-6.566-1.962-8.287l-.072-.075-.096-.037c-6.999-2.413-18.823-.848-22.337-.006l-.15.037-.097.125c-1.45 1.989-1.372 5.169-1.294 8.243.066 2.762.132 5.374-1.047 6.16-.915.611-1.793 1.191-2.642 1.752-10.404 6.877-15.627 10.332-19.454 21.561a15.351 15.351 0 0 0-.717 4.982c-.03 2.07.103 3.885-.613 5.275-.981 1.908-1.974 5.824-2.9 11.055-4.857 27.491-7.74 91.414 4.127 92.91.927.119-.962 2.045-1.612 3.012-.933 1.39-1.734 2.587-1.27 3.504.313.624 1.131.917 2.563.917 5.404 0 60.952-8.449 62.529-11.492.102-.199.114.175 0 0 26.044-3.523 12.258-31.706 8.701-55.019z" fill="#302D62"/><path d="M198.553 364.25a10.96 10.96 0 0 0-3.968-2.726 10.629 10.629 0 0 0-4.709-.731c-1.602.116-3.16.595-4.565 1.402a11.126 11.126 0 0 0-3.563 3.272l-37.373-11.697 5.795 20.145 34.601 8.019a10.732 10.732 0 0 0 7.694 1.6c2.667-.461 5.079-1.92 6.778-4.099a11.725 11.725 0 0 0 2.439-7.729c-.127-2.798-1.241-5.452-3.129-7.456z" fill="#FFB6B6"/><path d="m153.438 375.785-51.318-9.759c-.208-.556-20.81-55.815-23.356-68.228-1.61-7.483-.703-15.312 2.572-22.188l.09-.165.169-.075a15.921 15.921 0 0 1 10.884-.736c3.603 1.044 6.755 3.329 8.937 6.478 10.455 15.263 17.344 32.834 20.122 51.328l1.569 10.522 24.455 7.365 5.876 25.458z" fill="#302D62"/><path d="M136.625 226.462c-3.17 6.006-8.22 10.715-14.318 13.35a28.126 28.126 0 0 1-19.229 1.149c-6.35-1.892-11.888-5.968-15.703-11.557-3.816-5.589-5.68-12.358-5.287-19.192.394-6.833 3.022-13.324 7.45-18.404 4.43-5.08 10.397-8.445 16.918-9.541 6.522-1.097 13.21.141 18.962 3.509 5.752 3.368 10.225 8.665 12.684 15.019.133.345.253.69.373 1.048a31.091 31.091 0 0 1 1.624 12.515 30.908 30.908 0 0 1-3.474 12.104z" fill="#FFB6B6"/><path d="M140.804 201.843c-1.251-3.627-.705-1.738-1.97-5.351.825 3.2-.479 4.993-.359 5.351h-34.621V180.99c10.142-4.166 20.059-7.71 26.049 0 5.337 0 10.456 2.197 14.23 6.108 3.775 3.911 5.895 9.215 5.895 14.745h-9.224z" fill="#2F2E41"/><path d="M112.886 259.188a17.852 17.852 0 0 0-.12-1.173 41.76 41.76 0 0 0-2.249-8.275c-.999-2.91-2.01-5.834-3.022-8.744a25.875 25.875 0 0 1-1.131 15.888c-5.844-4.717-3.035-11.817-9.797-15.502-18.148-9.89-24.427-25.872-19.351-50.418 1.805-8.729 12.32-17.459 30.689-17.459 18.383 0 26.577 9.471 26.936 28.504-22.628 5.516-17.682 55.248-21.955 57.179z" fill="#2F2E41"/><path d="M79.043 191.871c6.635 0 12.013-5.573 12.013-12.448 0-6.874-5.378-12.447-12.013-12.447-6.634 0-12.013 5.573-12.013 12.447 0 6.875 5.379 12.448 12.013 12.448z" fill="#2F2E41"/><path d="M73.424 175.806c-2.049 2.472-5.256 3.432-8.15 4.718-5.107 2.322-9.59 5.899-13.061 10.422-3.471 4.522-5.825 9.854-6.858 15.532-.8 4.625-.695 9.413-1.959 13.922-1.256 4.509-4.366 8.933-8.83 9.715-3.02.535-6.049-.674-8.89-1.867-1.563-.65-3.125-1.304-4.688-1.96 1.63-4.238 3.257-8.475 4.882-12.713a63.883 63.883 0 0 1-9.054 10.978c-5.6-2.34-11.206-4.68-16.816-7.019 13.803.054 11.447-13.829 14.535-27.759 1.698-7.655 16.15-12.838 18.984-20.12 1.532-3.95 4.123-7.363 7.468-9.835a21.03 21.03 0 0 1 11.405-4.112c4.103-.213 8.18.796 11.746 2.908 3.567 2.111 6.476 5.238 8.381 9.009 2.834 1.17 2.916 5.741.905 8.181z" fill="#2F2E41"/><path d="M127.215 173.976a4.567 4.567 0 0 1 2.609 2.346 4.832 4.832 0 0 1 .244 3.571l-10.625 32.991a4.719 4.719 0 0 1-.873 1.585 4.523 4.523 0 0 1-1.391 1.118 4.379 4.379 0 0 1-3.446.253 4.57 4.57 0 0 1-2.609-2.346 4.834 4.834 0 0 1-.243-3.57l10.625-32.992a4.63 4.63 0 0 1 2.264-2.703 4.373 4.373 0 0 1 3.445-.253z" fill="#fff"/><path d="M112.777 230.308c6.647 0 12.035-5.583 12.035-12.47 0-6.887-5.388-12.47-12.035-12.47s-12.035 5.583-12.035 12.47c0 6.887 5.388 12.47 12.035 12.47z" fill="#fff"/><path d="M112.777 220.956c1.662 0 3.009-1.396 3.009-3.118s-1.347-3.117-3.009-3.117-3.009 1.395-3.009 3.117 1.347 3.118 3.009 3.118z" fill="#6C63FF"/><path d="M286.64 519.563c.646 1.623 1.355 3.247 2.037 4.877l-.316.022c-.106 0-.204.014-.309.022-4.966.32-9.977.49-15.032.509-.232.007-.457.007-.688.007 0-.014.007-.022.007-.036a2.474 2.474 0 0 0 1.472-.406c.439-.288.783-.709.983-1.206a2.72 2.72 0 0 0 .14-1.573 2.655 2.655 0 0 0-.755-1.371c-.07-.27-.112-.459-.176-.721.021-.059.044-.118.071-.174a6.995 6.995 0 0 1 2.521-3.14 6.639 6.639 0 0 1 3.778-1.166 6.643 6.643 0 0 1 3.769 1.197 7.01 7.01 0 0 1 2.498 3.159z" fill="#6ADA4E"/><path d="m332.971 495.793-.021.167c-.89.373-1.756.806-2.592 1.296-.485.276-.955.575-1.412.888a3.545 3.545 0 0 0-1.282 1.637 3.687 3.687 0 0 0-.165 2.102 3.59 3.59 0 0 0 1.008 1.831 3.395 3.395 0 0 0 1.83.922l.07.014.141.022c-2.653 6.636-7.221 12.26-13.079 16.099a146.478 146.478 0 0 1-5.086.903c-4.931.83-9.911 1.499-14.94 2.009a85.627 85.627 0 0 0 1.517-16.027 82.29 82.29 0 0 0-.484-9.017 85.637 85.637 0 0 0-1.911-10.976 87.482 87.482 0 0 0-6.856-18.654 83.43 83.43 0 0 0-8.562-13.595c-3.907-2.207-7.065-5.604-9.047-9.731a17.45 17.45 0 0 1-1.51-4.702c.435.065.885.102 1.327.131l.422.022h.049c.484.023.965-.099 1.384-.353.418-.253.757-.627.976-1.075a2.682 2.682 0 0 0-.295-2.815c-.19-.241-.379-.488-.569-.728-.288-.371-.59-.743-.878-1.114a1.194 1.194 0 0 1-.091-.109c-.33-.429-.668-.851-.998-1.274a7.32 7.32 0 0 1 2.381-2.387c3.33-2.023 7.924-.626 10.333 2.497 2.409 3.122 2.866 7.503 2.03 11.397a30.76 30.76 0 0 1-4.032 9.316c.183.24.365.466.548.706a85.148 85.148 0 0 1 8.043 13.006c.189.364.372.728.547 1.099a36.636 36.636 0 0 1 2.044-16.47c1.953-4.884 5.62-9.003 8.844-13.225 3.877-5.072 11.829-2.86 12.51 3.574l.021.182c-.478.284-.948.582-1.405.895a3.545 3.545 0 0 0-1.283 1.636 3.684 3.684 0 0 0-.168 2.101c.15.701.5 1.34 1.006 1.832a3.393 3.393 0 0 0 1.829.923l.07.015a36.501 36.501 0 0 1-5.772 16.531c-3.223 4.926-7.585 8.938-12.687 11.672-.288.153-.562.305-.843.444a83.97 83.97 0 0 1 2.269 7.831 74.14 74.14 0 0 1 .821 3.734 87.625 87.625 0 0 1 1.433 10.488 86.043 86.043 0 0 1-.056 13.326l.021-.153c.926-4.931 3.464-9.38 7.186-12.598 5.535-4.709 13.346-6.442 19.316-10.226a3.85 3.85 0 0 1 2.124-.65 3.853 3.853 0 0 1 2.128.638 4.047 4.047 0 0 1 1.461 1.725c.318.707.435 1.494.335 2.268z" fill="#279D13"/></g><defs><clipPath id="a"><path fill="#fff" d="M0 0h511v525H0z"/></clipPath></defs></svg>