<svg width="857" height="516" viewBox="0 0 857 516" fill="none" xmlns="http://www.w3.org/2000/svg">
<g clip-path="url(#clip0_436_396)">
<path d="M857 402.666C857.018 406.122 855.663 409.443 853.232 411.9C850.801 414.356 847.494 415.746 844.038 415.765H273.735C272.024 415.756 270.332 415.41 268.754 414.747C267.177 414.084 265.745 413.116 264.542 411.9C263.338 410.684 262.386 409.242 261.739 407.658C261.092 406.074 260.764 404.378 260.773 402.666V13.0986C260.755 9.64269 262.111 6.32117 264.541 3.86471C266.972 1.40826 270.279 0.0180727 273.735 0H844.038C845.749 0.00890099 847.441 0.35476 849.019 1.01782C850.596 1.68089 852.028 2.64817 853.232 3.86445C854.435 5.08074 855.387 6.5222 856.034 8.10653C856.681 9.69086 857.009 11.387 857 13.0982V13.0986V402.666Z" fill="#E6E6E6"/>
<path d="M850.272 396.287C850.272 399.646 848.938 402.867 846.563 405.243C844.188 407.618 840.966 408.952 837.607 408.952H280.556C277.197 408.952 273.976 407.618 271.601 405.243C269.225 402.867 267.891 399.646 267.891 396.287V19.6565C267.891 16.2975 269.225 13.076 271.601 10.7008C273.976 8.32559 277.197 6.99121 280.556 6.99121H837.633C840.987 6.99796 844.202 8.33531 846.572 10.7098C848.941 13.0843 850.272 16.3019 850.272 19.6565V396.287Z" fill="white"/>
<path d="M297.663 23.3428H821.095C823.088 23.3428 825 24.1348 826.41 25.5446C827.82 26.9545 828.612 28.8666 828.612 30.8604V383.621C828.612 385.615 827.82 387.527 826.41 388.937C825 390.347 823.088 391.139 821.095 391.139H297.663C295.67 391.139 293.758 390.347 292.348 388.937C290.938 387.527 290.146 385.615 290.146 383.621V30.8604C290.146 28.8666 290.938 26.9545 292.348 25.5446C293.758 24.1348 295.67 23.3428 297.663 23.3428Z" fill="#E6E6E6"/>
<path d="M304.289 31.8037H813.9C815.894 31.8037 817.806 32.5957 819.216 34.0056C820.625 35.4154 821.417 37.3276 821.417 39.3214V373.258C821.417 375.252 820.625 377.164 819.216 378.574C817.806 379.984 815.894 380.776 813.9 380.776H304.289C302.295 380.776 300.383 379.984 298.973 378.574C297.563 377.164 296.771 375.252 296.771 373.258V39.3214C296.771 37.3276 297.563 35.4154 298.973 34.0056C300.383 32.5957 302.295 31.8037 304.289 31.8037Z" fill="white"/>
<path d="M664.109 263.783C662.103 263.781 660.12 263.359 658.288 262.542C657.862 262.353 657.455 262.122 657.074 261.853L620.038 235.782C618.16 234.459 616.627 232.705 615.569 230.666C614.51 228.628 613.958 226.364 613.957 224.067V188.512C613.958 186.215 614.51 183.951 615.568 181.913C616.627 179.874 618.16 178.119 620.038 176.797L657.074 150.726C657.455 150.457 657.862 150.226 658.288 150.037C660.469 149.067 662.859 148.657 665.239 148.845C667.619 149.034 669.914 149.814 671.916 151.115C673.918 152.416 675.564 154.196 676.703 156.294C677.842 158.393 678.438 160.743 678.438 163.13V249.449C678.438 253.249 676.929 256.894 674.241 259.581C671.554 262.269 667.909 263.778 664.109 263.778L664.109 263.783Z" fill="#3F3D56"/>
<path d="M581.222 270.773H477.925C456.851 270.756 439.772 257.133 439.75 240.323V172.257C439.772 155.446 456.851 141.823 477.925 141.806H581.491C602.415 141.826 619.372 155.351 619.396 172.042V240.323C619.375 257.133 602.296 270.756 581.222 270.773Z" fill="#3F3D56"/>
<path d="M765.227 359.302C782.194 359.302 795.949 345.547 795.949 328.58C795.949 311.612 782.194 297.857 765.227 297.857C748.26 297.857 734.506 311.612 734.506 328.58C734.506 345.547 748.26 359.302 765.227 359.302Z" fill="#E6E6E6"/>
<path d="M781.184 328.029L756.696 313.89C756.599 313.835 756.49 313.805 756.378 313.805C756.266 313.805 756.157 313.835 756.06 313.89C755.963 313.946 755.883 314.026 755.827 314.123C755.772 314.22 755.742 314.329 755.742 314.441V342.719C755.742 342.83 755.772 342.94 755.827 343.037C755.883 343.133 755.963 343.214 756.06 343.269C756.157 343.325 756.266 343.355 756.378 343.355C756.49 343.355 756.599 343.325 756.696 343.269L781.184 329.131C781.281 329.075 781.361 328.994 781.417 328.898C781.473 328.801 781.502 328.691 781.502 328.58C781.502 328.468 781.473 328.359 781.417 328.262C781.361 328.165 781.281 328.085 781.184 328.029L756.696 313.89C756.599 313.835 756.49 313.805 756.378 313.805C756.266 313.805 756.157 313.835 756.06 313.89C755.963 313.946 755.883 314.026 755.827 314.123C755.772 314.22 755.742 314.329 755.742 314.441V342.719C755.742 342.83 755.772 342.94 755.827 343.037C755.883 343.133 755.963 343.214 756.06 343.269C756.157 343.325 756.266 343.355 756.378 343.355C756.49 343.355 756.599 343.325 756.696 343.269L781.184 329.131C781.281 329.075 781.361 328.994 781.417 328.898C781.473 328.801 781.502 328.691 781.502 328.58C781.502 328.468 781.473 328.359 781.417 328.262C781.361 328.165 781.281 328.085 781.184 328.029Z" fill="white"/>
<path d="M725.339 449.386C725.357 452.842 724.002 456.163 721.571 458.62C719.14 461.076 715.833 462.466 712.378 462.484H142.075C140.364 462.475 138.671 462.13 137.093 461.466C135.516 460.803 134.085 459.836 132.881 458.62C131.677 457.404 130.725 455.962 130.078 454.378C129.432 452.793 129.104 451.097 129.112 449.386V59.8183C129.094 56.3624 130.45 53.0409 132.881 50.5844C135.312 48.128 138.619 46.7378 142.074 46.7197H712.377C714.088 46.7286 715.781 47.0745 717.358 47.7376C718.936 48.4006 720.367 49.3679 721.571 50.5842C722.774 51.8005 723.727 53.2419 724.373 54.8263C725.02 56.4106 725.348 58.1068 725.339 59.8179V59.8183V449.386Z" fill="#E6E6E6"/>
<path d="M718.612 443.007C718.612 446.366 717.277 449.587 714.902 451.962C712.527 454.338 709.306 455.672 705.947 455.672H148.895C145.536 455.672 142.315 454.338 139.94 451.962C137.565 449.587 136.23 446.366 136.23 443.007V66.3763C136.23 63.0172 137.565 59.7957 139.94 57.4205C142.315 55.0453 145.536 53.7109 148.895 53.7109H705.972C709.327 53.7177 712.542 55.055 714.911 57.4295C717.281 59.804 718.612 63.0216 718.612 66.3763V443.007Z" fill="white"/>
<path d="M166.003 70.063H689.434C691.428 70.063 693.34 70.855 694.75 72.2649C696.159 73.6747 696.951 75.5868 696.951 77.5806V430.341C696.951 432.335 696.159 434.247 694.75 435.657C693.34 437.067 691.428 437.859 689.434 437.859H166.003C164.009 437.859 162.097 437.067 160.687 435.657C159.277 434.247 158.485 432.335 158.485 430.341V77.5806C158.485 75.5868 159.277 73.6747 160.687 72.2649C162.097 70.855 164.009 70.063 166.003 70.063Z" fill="#E6E6E6"/>
<path d="M172.628 78.5234H682.239C684.233 78.5234 686.145 79.3155 687.555 80.7253C688.965 82.1351 689.757 84.0473 689.757 86.0411V419.978C689.757 421.972 688.965 423.884 687.555 425.294C686.145 426.704 684.233 427.496 682.239 427.496H172.628C170.634 427.496 168.722 426.704 167.313 425.294C165.903 423.884 165.111 421.972 165.111 419.978V86.0411C165.111 84.0473 165.903 82.1351 167.313 80.7253C168.722 79.3155 170.634 78.5234 172.628 78.5234Z" fill="white"/>
<path d="M532.449 310.503C530.443 310.502 528.46 310.079 526.628 309.263C526.201 309.073 525.795 308.842 525.414 308.573L488.378 282.502C486.5 281.18 484.967 279.425 483.908 277.387C482.85 275.348 482.297 273.085 482.297 270.787V235.232C482.297 232.935 482.85 230.672 483.908 228.633C484.967 226.594 486.5 224.84 488.378 223.517L525.414 197.446C525.795 197.177 526.201 196.946 526.628 196.757C528.809 195.787 531.199 195.377 533.579 195.566C535.959 195.754 538.254 196.534 540.256 197.835C542.258 199.136 543.904 200.916 545.042 203.015C546.181 205.113 546.778 207.463 546.778 209.851V296.169C546.778 299.969 545.268 303.614 542.581 306.301C539.894 308.989 536.249 310.499 532.449 310.499L532.449 310.503Z" fill="#3F3D56"/>
<path d="M449.561 317.493H346.265C325.19 317.476 308.111 303.853 308.09 287.042V218.976C308.112 202.166 325.19 188.543 346.265 188.526H449.83C470.755 188.546 487.711 202.071 487.736 218.761V287.042C487.714 303.853 470.635 317.476 449.561 317.493Z" fill="#3F3D56"/>
<path d="M633.567 406.022C650.534 406.022 664.288 392.267 664.288 375.3C664.288 358.332 650.534 344.577 633.567 344.577C616.6 344.577 602.846 358.332 602.846 375.3C602.846 392.267 616.6 406.022 633.567 406.022Z" fill="#E6E6E6"/>
<path d="M649.524 374.749L625.036 360.61C624.939 360.554 624.83 360.525 624.718 360.525C624.606 360.525 624.497 360.554 624.4 360.61C624.303 360.666 624.223 360.746 624.167 360.843C624.111 360.94 624.082 361.049 624.082 361.161V389.438C624.082 389.55 624.111 389.66 624.167 389.756C624.223 389.853 624.303 389.933 624.4 389.989C624.497 390.045 624.606 390.074 624.718 390.074C624.83 390.074 624.939 390.045 625.036 389.989L649.524 375.85C649.621 375.794 649.701 375.714 649.757 375.618C649.813 375.521 649.842 375.411 649.842 375.3C649.842 375.188 649.813 375.078 649.757 374.982C649.701 374.885 649.621 374.805 649.524 374.749L625.036 360.61C624.939 360.554 624.83 360.525 624.718 360.525C624.606 360.525 624.497 360.554 624.4 360.61C624.303 360.666 624.223 360.746 624.167 360.843C624.111 360.94 624.082 361.049 624.082 361.161V389.438C624.082 389.55 624.111 389.66 624.167 389.756C624.223 389.853 624.303 389.933 624.4 389.989C624.497 390.045 624.606 390.074 624.718 390.074C624.83 390.074 624.939 390.045 625.036 389.989L649.524 375.85C649.621 375.794 649.701 375.714 649.757 375.618C649.813 375.521 649.842 375.411 649.842 375.3C649.842 375.188 649.813 375.078 649.757 374.982C649.701 374.885 649.621 374.805 649.524 374.749Z" fill="white"/>
<path d="M596.227 502.901C596.245 506.357 594.89 509.679 592.459 512.135C590.028 514.592 586.721 515.982 583.265 516H12.9624C11.2512 515.991 9.55863 515.645 7.98117 514.982C6.40371 514.319 4.97228 513.352 3.76863 512.135C2.56498 510.919 1.61267 509.478 0.966077 507.893C0.319484 506.309 -0.00872622 504.613 0.000178374 502.902V113.334C-0.0178913 109.878 1.33757 106.557 3.76838 104.1C6.1992 101.644 9.50624 100.253 12.962 100.235H583.265C584.976 100.244 586.669 100.59 588.246 101.253C589.823 101.916 591.255 102.884 592.459 104.1C593.662 105.316 594.615 106.758 595.261 108.342C595.908 109.926 596.236 111.622 596.227 113.334V113.334V502.901Z" fill="#E6E6E6"/>
<path d="M589.499 496.522C589.499 499.881 588.165 503.103 585.79 505.478C583.415 507.853 580.193 509.188 576.835 509.188H19.7831C16.4241 509.188 13.2028 507.853 10.8276 505.478C8.4525 503.103 7.11816 499.881 7.11816 496.522V119.892C7.11816 116.533 8.4525 113.311 10.8276 110.936C13.2028 108.561 16.4241 107.227 19.7831 107.227H576.86C580.215 107.233 583.429 108.571 585.799 110.945C588.169 113.32 589.499 116.537 589.499 119.892V496.522Z" fill="white"/>
<path d="M36.8904 123.578H560.322C562.315 123.578 564.228 124.37 565.637 125.78C567.047 127.19 567.839 129.102 567.839 131.096V483.856C567.839 485.85 567.047 487.762 565.637 489.172C564.228 490.582 562.315 491.374 560.322 491.374H36.8904C34.8967 491.374 32.9846 490.582 31.5748 489.172C30.1651 487.762 29.373 485.85 29.373 483.856V131.096C29.373 129.102 30.1651 127.19 31.5748 125.78C32.9846 124.37 34.8967 123.578 36.8904 123.578Z" fill="#E6E6E6"/>
<path d="M43.5159 132.039H553.127C554.114 132.039 555.092 132.234 556.004 132.611C556.916 132.989 557.745 133.543 558.443 134.241C559.141 134.939 559.694 135.768 560.072 136.68C560.45 137.592 560.644 138.569 560.644 139.557V473.493C560.644 474.481 560.45 475.458 560.072 476.37C559.694 477.283 559.141 478.111 558.443 478.809C557.745 479.507 556.916 480.061 556.004 480.439C555.092 480.817 554.114 481.011 553.127 481.011H43.5159C41.5222 481.011 39.6101 480.219 38.2003 478.809C36.7905 477.399 35.9985 475.487 35.9985 473.493V139.557C35.9985 137.563 36.7905 135.651 38.2003 134.241C39.6101 132.831 41.5222 132.039 43.5159 132.039Z" fill="white"/>
<path d="M403.337 364.018C401.331 364.017 399.348 363.594 397.515 362.778C397.089 362.588 396.683 362.357 396.302 362.088L359.266 336.017C357.387 334.695 355.854 332.94 354.796 330.902C353.738 328.863 353.185 326.6 353.185 324.303V288.747C353.185 286.45 353.738 284.187 354.796 282.148C355.854 280.109 357.387 278.355 359.266 277.033L396.302 250.962C396.683 250.692 397.089 250.461 397.515 250.272C399.697 249.302 402.086 248.892 404.467 249.081C406.847 249.269 409.142 250.049 411.144 251.35C413.146 252.651 414.791 254.431 415.93 256.53C417.069 258.628 417.666 260.978 417.666 263.366V349.684C417.666 353.484 416.156 357.129 413.469 359.817C410.782 362.504 407.137 364.014 403.337 364.014L403.337 364.018Z" fill="#F40638"/>
<path d="M320.449 371.009H217.153C196.078 370.991 179 357.368 178.978 340.558V272.492C179 255.682 196.078 242.059 217.153 242.042H320.719C341.643 242.061 358.599 255.587 358.624 272.277V340.558C358.602 357.368 341.524 370.991 320.449 371.009Z" fill="#F40638"/>
<path d="M504.455 459.538C521.422 459.538 535.176 445.783 535.176 428.815C535.176 411.848 521.422 398.093 504.455 398.093C487.488 398.093 473.733 411.848 473.733 428.815C473.733 445.783 487.488 459.538 504.455 459.538Z" fill="#3F3D56"/>
<path d="M520.412 428.265L495.924 414.126C495.827 414.07 495.717 414.041 495.606 414.041C495.494 414.041 495.384 414.07 495.288 414.126C495.191 414.182 495.111 414.262 495.055 414.359C494.999 414.455 494.97 414.565 494.97 414.676V442.954C494.97 443.066 494.999 443.175 495.055 443.272C495.111 443.369 495.191 443.449 495.288 443.505C495.384 443.56 495.494 443.59 495.606 443.59C495.717 443.59 495.827 443.56 495.924 443.505L520.412 429.366C520.508 429.31 520.589 429.23 520.644 429.133C520.7 429.037 520.73 428.927 520.73 428.815C520.73 428.704 520.7 428.594 520.644 428.497C520.589 428.401 520.508 428.32 520.412 428.265L495.924 414.126C495.827 414.07 495.717 414.041 495.606 414.041C495.494 414.041 495.384 414.07 495.288 414.126C495.191 414.182 495.111 414.262 495.055 414.359C494.999 414.455 494.97 414.565 494.97 414.676V442.954C494.97 443.066 494.999 443.175 495.055 443.272C495.111 443.369 495.191 443.449 495.288 443.505C495.384 443.561 495.494 443.59 495.606 443.59C495.717 443.59 495.827 443.56 495.924 443.505L520.412 429.366C520.508 429.31 520.589 429.23 520.644 429.133C520.7 429.037 520.73 428.927 520.73 428.815C520.73 428.704 520.7 428.594 520.644 428.497C520.589 428.401 520.508 428.32 520.412 428.265Z" fill="white"/>
</g>
<defs>
<clipPath id="clip0_436_396">
<rect width="857" height="516" fill="white"/>
</clipPath>
</defs>
</svg>
