<svg width="648" height="513" fill="none" xmlns="http://www.w3.org/2000/svg"><g clip-path="url(#a)"><path d="M75.92 385.896a2.711 2.711 0 0 1-2.622-1.659 2.703 2.703 0 0 1 .66-3.031l.186-.737a7.266 7.266 0 0 0-2.765-3.408 7.277 7.277 0 0 0-8.055.03 7.261 7.261 0 0 0-2.667 3.251c-2.194 5.28-4.987 10.568-5.675 16.151a21.477 21.477 0 0 0 .378 7.392 86.121 86.121 0 0 1-7.846-35.793c-.001-3.1.171-6.198.516-9.279a86.37 86.37 0 0 1 1.187-7.523 87.143 87.143 0 0 1 17.302-36.948 23.208 23.208 0 0 0 9.657-10.011 17.693 17.693 0 0 0 1.61-4.836 22.644 22.644 0 0 1-1.865.154l-.055.002a2.686 2.686 0 0 1-2.516-1.471 2.68 2.68 0 0 1 .313-2.896l.61-.749c.308-.385.623-.762.932-1.147.035-.037.069-.075.1-.116.354-.439.709-.87 1.063-1.309a7.758 7.758 0 0 0-2.543-2.456c-3.553-2.079-8.454-.639-11.02 2.572-2.575 3.211-3.06 7.716-2.166 11.728a31.062 31.062 0 0 0 4.3 9.58c-.192.246-.393.485-.586.731a87.75 87.75 0 0 0-9.165 14.509 36.449 36.449 0 0 0-2.18-16.942c-2.085-5.028-5.995-9.263-9.438-13.61-4.136-5.221-12.616-2.942-13.345 3.676a41.67 41.67 0 0 0-.02.192c.51.289 1.011.595 1.501.918a3.673 3.673 0 0 1 1.546 3.846 3.665 3.665 0 0 1-3.027 2.833l-.075.012c.183 1.841.505 3.667.964 5.46a37.586 37.586 0 0 0 6.905 13.736 37.627 37.627 0 0 0 11.83 9.828c.3.154.594.308.894.454a89.489 89.489 0 0 0-4.824 22.686 84.87 84.87 0 0 0 .061 13.715l-.023-.162a22.442 22.442 0 0 0-7.668-12.96c-5.901-4.844-14.239-6.627-20.605-10.521a4.218 4.218 0 0 0-6.457 4.098l.026.17c.95.386 1.873.831 2.767 1.332.511.289 1.012.595 1.502.918a3.673 3.673 0 0 1 1.545 3.846 3.665 3.665 0 0 1-3.026 2.833l-.075.012c-.054.007-.1.015-.154.023a36.55 36.55 0 0 0 6.728 10.527 37.66 37.66 0 0 0 27.313 11.974h.008a89.51 89.51 0 0 0 6.019 17.558h21.502c.077-.239.146-.485.216-.724-1.99.125-3.989.006-5.95-.354 1.595-1.956 3.19-3.928 4.786-5.884a1.29 1.29 0 0 0 .1-.115c.81-1.001 1.626-1.995 2.436-2.996v-.001c.043-3.069-.31-6.13-1.049-9.109z" fill="#279D13"/><path d="M329.497 405.369a.894.894 0 0 1-.26.631.898.898 0 0 1-.632.26H.892a.893.893 0 0 1-.63-1.521.893.893 0 0 1 .63-.261h327.713a.898.898 0 0 1 .825.55.886.886 0 0 1 .067.341z" fill="#CCC"/><path d="M171.604 290.904a8.697 8.697 0 0 0-7.196 1.472 8.673 8.673 0 0 0-3.491 6.458l-18.734 6.515 1.185 12.341 26.328-9.571a8.731 8.731 0 0 0 5.779-2.247 8.716 8.716 0 0 0-3.871-14.968z" fill="#FFB6B6"/><path d="M141.071 326.775c-7.45 5.188-20.573 7.842-38.435 7.72a7.141 7.141 0 0 1-5.265-2.294c-4.78-4.973-4.593-16.324-4.563-17.421l-5.239-19.726c-.112-.301-3.011-8.395-.062-14.047a9.258 9.258 0 0 1 6.165-4.694c11.078-2.938 21.492 26.693 22.816 30.608l15.546-2.645 10.737-.442 10.923-6.024 6.15 14.707-15.22 11.113a19.232 19.232 0 0 1-3.553 3.145z" fill="#2F2E41"/><path d="m171.068 489.879 11.452.535 7.514-43.882-16.902-.789-2.064 44.136z" fill="#FFB6B6"/><path d="m168.493 484.101 18.153-.233-.363 7.75 16.656 12.681a4.848 4.848 0 0 1 1.618 5.512 4.854 4.854 0 0 1-4.784 3.184l-21.553-1.007-3.356-7.84-1.809 7.598-8.126-.38 3.564-27.265z" fill="#2F2E41"/><path d="m290.634 395.66 4.172-10.67-39.203-21.157-19.804 12.438 54.835 19.389z" fill="#FFB6B6"/><path d="m284.331 396.249 5.588-17.259 7.232 2.823 17.354-11.708a4.854 4.854 0 0 1 7.4 2.762 4.843 4.843 0 0 1-.168 3.018l-7.852 20.08-8.507.668 6.625 4.145-2.961 7.571-24.711-12.1zM65.421 363.904s4.756 30.339 27.239 32.586c22.482 2.246 43.207-7.875 43.207-7.875l62.951-19.372s66.958 19.01 78.199 22.005c0 0 7.754-17.586 7.494-18.721-2.391-10.451-5.505-3.381-5.505-3.381l-71.195-31.45s-11.242-2.996-30.726 5.241C157.6 351.174 105.4 371.03 105.4 371.03l-39.979-7.126z" fill="#2F2E41"/><path d="M65.68 362.044s-3.749 36.345 18.152 41.897c20.818 5.279 49.535-.136 49.535-.136l34.235-3.571s1.498 43.952 1.498 65.668a165.141 165.141 0 0 0 20.984 1.497c1.499 0 1.598-.784 1.598-.784l2.903-75.963a23.69 23.69 0 0 0-6.695-18.011 23.722 23.722 0 0 0-17.852-7.138 91.08 91.08 0 0 0-5.086.343c-21.06 2.018-47.206-2.272-47.206-2.272l-52.065-1.53z" fill="#2F2E41"/><path d="M126.427 309.318s8.891 53.724 2.883 58.012c-6.009 4.289-14.248 4.306-14.248 4.306l-1.916-29.663 13.281-32.655zM111.599 243.339l11.887 11.287a34.984 34.984 0 0 1 6.895 41.637l-5.683 10.828-13.099-63.752z" fill="#2F2E41"/><path d="m108.94 245.237 16.108 18.332a25.72 25.72 0 0 1 5.974 21.627l-6.071 32.974-4.563 47.618s-35.225 10.665-38.83-5.803c-3.606-16.468 27.382-114.748 27.382-114.748z" fill="#F40638"/><path d="M93.82 370.263c-23.155-3.856-28.828-4.621-29.18-4.756l-.355-.135 2.321-13.916 9.8-24.063c.637-7.872 4.765-18.537 2.404-27.103-6.865-24.904 4.288-60.095 9.39-62.791l14.14-9.263 4.964 4.547 8.607 12.039c7.081 31.519 11.972 60.896 11.734 62.692l-4.371 30.856-5.15 11.836c-15.624 7.533-5.118 23.252-24.304 20.057z" fill="#2F2E41"/><path d="m135.743 347.626 36.358-9.719 3.201-.759 2.282-.541 2.66-.629.022-.005c.386-.088.792-.02 1.129.188l13.5 16.173c.122.075.23.172.317.285a.484.484 0 0 1 .096.101 1.53 1.53 0 0 1 .207 1.433 1.546 1.546 0 0 1-1.075.971l-54.238 12.471a1.524 1.524 0 0 1-1.535-.542l-.551-.712-3.001-14.442-.214-1.875a1.492 1.492 0 0 1-.281-.59 1.523 1.523 0 0 1 1.123-1.808z" fill="#E6E6E6"/><path opacity=".17" d="m138.116 366.339.554.715a1.526 1.526 0 0 0 1.531.542l54.24-12.472a1.545 1.545 0 0 0 1.075-.97 1.546 1.546 0 0 0-.208-1.432.48.48 0 0 0-.095-.101l-57.097 13.718z" fill="#000"/><path d="m179.974 335.873-.981-69.09a1.574 1.574 0 0 1 .349-1.155l6.95-14.453.722-.876a1.602 1.602 0 0 1 1.068-.565l1.513-.14a1.58 1.58 0 0 1 1.726 1.415l1.362 73.103.001.005.675 7.039.8 8.358.003.01 1.248 13.005a1.552 1.552 0 0 1-.418 1.226 1.574 1.574 0 0 1-1.187.508l-.984-.02a1.6 1.6 0 0 1-1.022-.403l-.551-.494-.255-.232-10.497-16.215a1.563 1.563 0 0 1-.522-1.026z" fill="#E6E6E6"/><path opacity=".17" d="m186.295 251.175 4.697 101.941.257.229.548.493c.283.251.645.394 1.023.403l.985.02a1.577 1.577 0 0 0 1.191-.508 1.593 1.593 0 0 0 .414-1.225l-4.091-101.517a1.577 1.577 0 0 0-1.723-1.42l-1.516.145a1.553 1.553 0 0 0-1.063.564l-.722.875z" fill="#000"/><path d="m186.69 255.294-6.356 15.677.786 46.896 6.882 9.944-1.312-72.517z" fill="#6C63FF"/><path d="M139.933 347.213a1.363 1.363 0 0 0-.938 1.684l2.8 11.66 2.624-.747-2.8-11.66a1.369 1.369 0 0 0-1.686-.937zM145.18 345.719a1.367 1.367 0 0 0-.938 1.684l.598 2.098 2.624-.747-.598-2.097a1.369 1.369 0 0 0-1.686-.938zM150.428 344.227a1.363 1.363 0 0 0-.938 1.684l.597 2.097 2.624-.746-.598-2.098a1.364 1.364 0 0 0-1.685-.937zM155.675 342.734a1.363 1.363 0 0 0-.938 1.684l.598 2.097 2.623-.747-.597-2.097a1.369 1.369 0 0 0-1.686-.937zM160.922 341.241a1.366 1.366 0 0 0-.938 1.684l.598 2.097 2.623-.746-.597-2.098a1.365 1.365 0 0 0-1.686-.937zM166.17 339.748a1.363 1.363 0 0 0-.939 1.684l.598 2.097 2.624-.746-.598-2.098a1.364 1.364 0 0 0-1.685-.937zM171.417 338.255a1.363 1.363 0 0 0-.938 1.684l.597 2.097 2.624-.746-.598-2.097a1.363 1.363 0 0 0-1.685-.938zM176.664 336.762a1.366 1.366 0 0 0-.938 1.684l.598 2.097 2.623-.746-.597-2.098a1.365 1.365 0 0 0-1.686-.937zM146.282 350.501a1.363 1.363 0 0 0-.938 1.684l.597 2.097 2.624-.746-.598-2.097a1.363 1.363 0 0 0-1.685-.938zM151.529 349.008a1.363 1.363 0 0 0-.938 1.684l.597 2.097 2.624-.746-.598-2.097a1.363 1.363 0 0 0-1.685-.938zM156.776 347.515a1.366 1.366 0 0 0-.938 1.684l.598 2.097 2.623-.746-.597-2.098a1.365 1.365 0 0 0-1.686-.937zM162.024 346.022a1.362 1.362 0 0 0-.939 1.684l.598 2.097 2.624-.746-.598-2.097a1.364 1.364 0 0 0-1.685-.938zM167.271 344.529a1.363 1.363 0 0 0-.938 1.684l.597 2.097 2.624-.746-.598-2.097a1.363 1.363 0 0 0-1.685-.938zM172.518 343.036a1.362 1.362 0 0 0-.938 1.684l.598 2.098 2.623-.747-.597-2.097a1.369 1.369 0 0 0-1.686-.938zM177.766 341.543a1.363 1.363 0 0 0-.939 1.684l.598 2.097 2.624-.746-.598-2.097a1.363 1.363 0 0 0-1.685-.938zM147.383 355.282a1.362 1.362 0 0 0-.938 1.684l.597 2.098 2.624-.747-.598-2.097a1.369 1.369 0 0 0-1.685-.938zM152.63 353.789a1.363 1.363 0 0 0-.938 1.684l.598 2.098 2.623-.747-.597-2.097a1.368 1.368 0 0 0-1.686-.938zM157.878 352.297a1.365 1.365 0 0 0-.939 1.684l.598 2.097 2.624-.747-.598-2.097a1.365 1.365 0 0 0-1.685-.937zM163.125 350.803a1.362 1.362 0 0 0-.938 1.684l.597 2.098 2.624-.747-.598-2.097a1.369 1.369 0 0 0-1.685-.938zM168.372 349.311a1.363 1.363 0 0 0-.938 1.684l.598 2.097 2.623-.746-.597-2.098a1.369 1.369 0 0 0-1.686-.937zM173.619 347.818a1.366 1.366 0 0 0-.938 1.684l.598 2.097 2.623-.747-.597-2.097a1.365 1.365 0 0 0-1.686-.937zM178.867 346.325a1.363 1.363 0 0 0-.939 1.684l.598 2.097 2.624-.746-.598-2.098a1.364 1.364 0 0 0-1.685-.937z" fill="#2F2E41"/><path d="M163.45 337.276a8.681 8.681 0 0 0-13.231-1.45l-18.168-7.959-7.532 9.852 25.813 10.879a8.733 8.733 0 0 0 11.592.161 8.714 8.714 0 0 0 1.526-11.483z" fill="#FFB6B6"/><path d="M116.65 342.817c-8.992-1.261-20.419-8.235-33.428-20.465a7.129 7.129 0 0 1-2.298-5.261c-.118-6.893 7.747-15.087 8.515-15.87l9.589-18.019c.123-.298 3.508-8.201 9.518-10.339a9.277 9.277 0 0 1 7.714.749c10.12 5.377-2.418 34.174-4.114 37.943l13.197 8.628 8.17 6.974 12.108 3.008-5.504 14.961-18.722-2.199c-1.58.159-3.174.122-4.745-.11z" fill="#2F2E41"/><path d="M134.381 206.517c1.516-12.639-7.287-24.087-19.661-25.568-12.374-1.482-23.634 7.564-25.15 20.204-1.515 12.639 7.287 24.087 19.662 25.568 12.374 1.482 23.634-7.564 25.149-20.204z" fill="#FFB6B6"/><path d="M53.212 186.732c4.34-3.982 6.857-9.653 10.506-14.328 3.648-4.674 9.487-8.55 14.944-6.708 3.761 1.271 6.335 5.03 7.39 9.003 1.055 3.974.836 8.19.61 12.32.915-8.432 7.447-15.931 15.417-17.702 7.97-1.772 16.764 2.321 20.759 9.662a11.766 11.766 0 0 1 15.55 1.531c3.838 4.354 3.913 11.775.165 16.293-3.749 4.518-10.814 5.522-15.513 2.205l-1.972 1.42c.581 3.614-1.852 7.509-5.269 8.434-2.771.75-6.481.126-7.802 2.779-.923 1.853.12 4.075 1.316 5.727 1.196 1.653 2.643 3.385 2.561 5.463-.123 3.137-3.597 4.929-6.597 5.234-7.232.738-14.656-3.457-17.97-10.153a5.978 5.978 0 0 0-.213-.39 27.359 27.359 0 0 1-2.978-21.434c.4-1.408.298-2.503-.651-2.962-4.105-1.981-16.469-.334-20.433 2.019-3.964 2.352-7.313 5.693-11.165 8.241-3.852 2.548-8.582 4.304-12.925 2.964-3.478-1.073-6.193-4.014-7.855-7.369-1.661-3.354-2.397-7.121-3.014-10.85 7.318 5.479 18.306 4.868 25.139-1.399z" fill="#2F2E41"/><path d="M646.676 25.822H306.22a1.356 1.356 0 0 1-1.325-1.352 1.35 1.35 0 0 1 1.325-1.353h340.456a1.351 1.351 0 0 1 1.325 1.352 1.352 1.352 0 0 1-1.325 1.353z" fill="#CACACA"/><path d="M329.395 16.21c4.382 0 7.935-3.629 7.935-8.105 0-4.476-3.553-8.105-7.935-8.105s-7.934 3.629-7.934 8.105c0 4.476 3.552 8.105 7.934 8.105zM356.805 16.21c4.382 0 7.935-3.629 7.935-8.105 0-4.476-3.553-8.105-7.935-8.105s-7.934 3.629-7.934 8.105c0 4.476 3.552 8.105 7.934 8.105zM384.215 16.21c4.382 0 7.935-3.629 7.935-8.105 0-4.476-3.553-8.105-7.935-8.105s-7.934 3.629-7.934 8.105c0 4.476 3.552 8.105 7.934 8.105zM630.173 2.009h-19.471a1.477 1.477 0 0 0-1.445 1.473 1.473 1.473 0 0 0 1.445 1.473h19.471a1.473 1.473 0 0 0 0-2.946zM630.173 7.539h-19.471a1.477 1.477 0 0 0-1.445 1.473 1.473 1.473 0 0 0 1.445 1.473h19.471a1.473 1.473 0 0 0 0-2.946zM630.172 13.06h-19.47a1.475 1.475 0 0 0-1.024 2.505c.27.276.638.434 1.024.442h19.47a1.475 1.475 0 0 0 1.024-2.505 1.475 1.475 0 0 0-1.024-.442z" fill="#3F3D56"/><path d="m49.8 336.749.01-.016-.01.031v-.015z" fill="#2F2E41"/><path d="M517.491 78.54c5.418 0 9.81-4.389 9.81-9.802 0-5.413-4.392-9.801-9.81-9.801s-9.809 4.388-9.809 9.801 4.391 9.802 9.809 9.802zM600.169 90.442h-89.566a2.927 2.927 0 0 1-2.069-.853 2.912 2.912 0 0 1-.857-2.066 2.918 2.918 0 0 1 2.926-2.918h89.566a2.922 2.922 0 0 1 2.925 2.918 2.917 2.917 0 0 1-2.925 2.919zM532.848 101.975h-22.245a2.92 2.92 0 0 1-2.921-2.918 2.916 2.916 0 0 1 2.921-2.92h22.245a2.923 2.923 0 0 1 2.922 2.92 2.92 2.92 0 0 1-2.922 2.918zM517.491 231.527c5.418 0 9.81-4.388 9.81-9.802 0-5.413-4.392-9.801-9.81-9.801s-9.809 4.388-9.809 9.801c0 5.414 4.391 9.802 9.809 9.802zM600.169 243.429h-89.566a2.92 2.92 0 0 1-2.921-2.919 2.92 2.92 0 0 1 2.921-2.918h89.566a2.92 2.92 0 0 1 2.065 4.982 2.92 2.92 0 0 1-2.065.855zM532.848 254.963h-22.245a2.918 2.918 0 1 1 0-5.838h22.245a2.925 2.925 0 0 1 2.922 2.919 2.919 2.919 0 0 1-2.922 2.919zM359.615 208.311c5.418 0 9.81-4.389 9.81-9.802 0-5.413-4.392-9.801-9.81-9.801s-9.809 4.388-9.809 9.801 4.391 9.802 9.809 9.802zM442.293 220.213h-89.566a2.924 2.924 0 0 1-2.066-.854 2.922 2.922 0 0 1 0-4.128 2.92 2.92 0 0 1 2.066-.855h89.566a2.917 2.917 0 0 1 2.921 2.919 2.919 2.919 0 0 1-2.921 2.918zM374.972 231.747h-22.245a2.916 2.916 0 0 1-2.066-4.983 2.925 2.925 0 0 1 2.066-.855h22.245a2.925 2.925 0 0 1 2.922 2.919 2.917 2.917 0 0 1-2.922 2.919zM517.491 149.267c5.418 0 9.81-4.389 9.81-9.802 0-5.413-4.392-9.801-9.81-9.801s-9.809 4.388-9.809 9.801 4.391 9.802 9.809 9.802zM600.169 161.169h-89.566a2.916 2.916 0 0 1-2.066-4.983 2.924 2.924 0 0 1 2.066-.854h89.566a2.923 2.923 0 0 1 2.921 2.918 2.917 2.917 0 0 1-2.921 2.919zM564.423 172.702h-53.82a2.918 2.918 0 1 1 0-5.837h53.82a2.92 2.92 0 0 1 2.066 4.983 2.924 2.924 0 0 1-2.066.854zM549.428 184.236h-38.825a2.918 2.918 0 1 1 0-5.838h38.825a2.92 2.92 0 1 1 0 5.838z" fill="#E6E7E8"/><path d="M428.055 75.772V178.68a2.714 2.714 0 0 1-2.71 2.711h-54.266a66.536 66.536 0 0 1-14.529-19.533c-.237-.473-.463-.95-.677-1.435a65.844 65.844 0 0 1-5.864-22.558 36.27 36.27 0 0 1-.096-1.443 63.137 63.137 0 0 1-.107-3.757 66.173 66.173 0 0 1 4.675-24.519c.185-.485.381-.965.585-1.442a66.626 66.626 0 0 1 19.755-25.987l.112-.09a35.115 35.115 0 0 1 21.902-7.574h28.51a2.718 2.718 0 0 1 2.71 2.719z" fill="#6C63FF"/><path opacity=".2" d="M428.199 108.146v-1.442h-24.201v-33.65h-1.44v33.65h-27.737V80.717c-.485.38-.963.773-1.436 1.176v24.811h-18.319c-.204.477-.4.958-.585 1.442h18.904v28.277h-23.472c.022.484.055.961.096 1.442h23.376v22.558h-17.512c.214.485.44.962.677 1.436h16.835v18.963h1.436v-18.963h27.737v18.963h1.44v-18.963h24.201v-1.436h-24.201a22.536 22.536 0 0 1 6.611-15.952 22.568 22.568 0 0 1 15.965-6.606h1.625v-1.442h-24.201v-28.277h24.201zm-25.641 52.277h-27.737v-22.558h27.737v22.558zm0-24h-27.737v-.566a27.709 27.709 0 0 1 17.123-25.602 27.77 27.77 0 0 1 10.614-2.109v28.277z" fill="#000"/><path d="M425.469 160.787a2.83 2.83 0 0 1-2.052-4.906l.194-.771-.077-.185c-2.608-6.214-19.249 11.107-19.969 16.947a22.468 22.468 0 0 0 .395 7.733 90.09 90.09 0 0 1-8.207-37.443 86.968 86.968 0 0 1 .54-9.707 90.052 90.052 0 0 1 1.242-7.87 91.168 91.168 0 0 1 18.099-38.652c5.152.288 9.666-.497 10.102-10.472.078-1.775 1.395-3.311 1.685-5.06-.491.065-.991.106-1.483.138l-.468.024-.058.002a2.807 2.807 0 0 1-2.916-3.102 2.81 2.81 0 0 1 .611-1.466l.638-.783c.322-.403.653-.798.975-1.2.038-.039.073-.079.105-.121.371-.46.742-.91 1.113-1.37a8.114 8.114 0 0 0-2.661-2.57c-3.716-2.175-8.844-.668-11.529 2.691-2.692 3.36-3.2 8.072-2.265 12.269a32.486 32.486 0 0 0 4.499 10.021c-.202.258-.412.508-.613.766a91.733 91.733 0 0 0-9.588 15.177c.762-5.945-8.552-27.413-12.154-31.96-4.326-5.462-13.198-3.078-13.96 3.846l-.022.2c.535.302 1.059.622 1.571.96a3.835 3.835 0 0 1 1.617 4.023 3.834 3.834 0 0 1-3.166 2.965l-.078.012c-7.161 10.216 15.796 36.808 21.542 30.837a93.62 93.62 0 0 0-5.047 23.732 88.804 88.804 0 0 0 .065 14.348l-.025-.17c-1.276-10.395-23.18-25.851-29.576-24.563-3.685.741-7.314.573-6.755 4.286l.027.178c.993.404 1.96.87 2.895 1.394.535.302 1.058.622 1.571.96a3.844 3.844 0 0 1 1.617 4.023 3.844 3.844 0 0 1-3.166 2.964l-.079.012-.161.024c-3.26 11.207 20.914 29.294 35.611 23.539h.008a93.575 93.575 0 0 0 6.296 18.367h22.494c.081-.25.153-.507.226-.757a25.557 25.557 0 0 1-6.224-.371c1.668-2.046 3.337-4.108 5.006-6.154.037-.039.072-.079.105-.121.847-1.047 1.701-2.087 2.548-3.134v-.001a37.357 37.357 0 0 0-1.097-9.529h-.001zm-25.757-50.63.011-.016-.011.032v-.016zm-4.983 44.878-.193-.435c.008-.314.008-.628 0-.95 0-.089-.016-.177-.016-.266.072.556.137 1.112.217 1.668l-.008-.017z" fill="#2F2E41"/></g><defs><clipPath id="a"><path fill="#fff" d="M0 0h648v513H0z"/></clipPath></defs></svg>