<svg width="701" height="515" viewBox="0 0 701 515" fill="none" xmlns="http://www.w3.org/2000/svg">
<g clip-path="url(#clip0_789_899)">
<path d="M138.887 416.782C138.509 415.625 135.64 416.134 135.365 415.099C135.09 414.067 137.843 413.202 139.954 410.295C140.335 409.771 142.734 406.467 141.814 405.077C140.07 402.443 127.935 409.003 125.022 405.322C124.382 404.514 124.119 403.127 122.215 400.545C121.457 399.519 120.971 399.023 120.391 399.037C119.567 399.058 119.272 400.089 117.977 401.955C116.034 404.754 115.333 404.403 114.054 406.696C113.104 408.398 112.992 409.486 112.307 409.55C111.337 409.641 110.937 407.521 109.752 407.439C108.544 407.355 107.334 409.45 106.735 411.086C105.61 414.157 106.307 416.504 106.461 418.843C106.629 421.385 106.235 425.106 103.471 429.882L77.4065 471.389C83.0042 462.927 98.8938 439.854 105.296 431.39C107.144 428.947 109.13 426.494 112.187 426.032C115.13 425.588 118.711 427.043 123.709 426.958C124.293 426.948 125.917 426.9 126.312 426.04C126.639 425.328 125.828 424.71 126.123 424.041C126.519 423.144 128.299 423.529 130.726 422.933C132.437 422.513 133.6 421.819 134.6 421.222C134.901 421.042 139.391 418.323 138.887 416.782H138.887Z" fill="#F2F2F2"/>
<path d="M70.6185 426.473C69.9409 426.325 69.3635 427.879 68.7756 427.715C68.1897 427.552 68.5592 425.952 67.7407 424.078C67.5931 423.74 66.6628 421.61 65.7149 421.66C63.9182 421.756 63.6384 429.601 60.9901 429.968C60.4089 430.049 59.6519 429.777 57.8349 429.967C57.112 430.042 56.7283 430.138 56.568 430.427C56.3404 430.837 56.7613 431.279 57.3041 432.453C58.1182 434.213 57.7434 434.455 58.5004 435.745C59.0624 436.702 59.5641 437.071 59.3979 437.426C59.1628 437.927 58.0064 437.512 57.6243 438.069C57.2344 438.638 57.9139 439.836 58.5445 440.602C59.7278 442.04 61.0813 442.375 62.2745 442.974C63.5712 443.626 65.2848 444.893 66.8328 447.626L79.6943 472.388C77.1544 467.201 70.4086 452.749 68.0997 447.166C67.4332 445.555 66.8015 443.873 67.4569 442.24C68.0878 440.668 69.8356 439.331 71.2362 436.855C71.3997 436.566 71.8448 435.755 71.5362 435.313C71.2811 434.947 70.7433 435.167 70.5 434.829C70.1737 434.376 70.8765 433.613 71.2841 432.251C71.5715 431.29 71.5661 430.52 71.5615 429.857C71.5601 429.657 71.5206 426.67 70.6186 426.473V426.473L70.6185 426.473Z" fill="#F2F2F2"/>
<path d="M83.45 432.515L83.8542 428.784L84.1022 428.55C85.2494 427.466 85.967 426.318 86.2362 425.137C86.279 424.949 86.3122 424.759 86.3462 424.565C86.4804 423.798 86.6471 422.845 87.3849 421.854C87.7978 421.303 88.8901 420.055 90.0167 420.491C90.3208 420.605 90.526 420.802 90.6686 421.011C90.7043 420.975 90.741 420.938 90.7802 420.899C91.2668 420.427 91.6073 420.253 91.9352 420.087C92.1872 419.958 92.4474 419.826 92.8877 419.474C93.0808 419.32 93.2355 419.181 93.3659 419.064C93.7612 418.712 94.2668 418.299 94.9594 418.462C95.6935 418.663 95.9452 419.363 96.1122 419.826C96.4105 420.653 96.5023 421.221 96.5631 421.598C96.585 421.736 96.6104 421.891 96.6296 421.941C96.7903 422.346 98.8075 422.451 99.5665 422.494C101.273 422.587 102.749 422.667 103.104 423.835C103.359 424.67 102.828 425.581 101.48 426.615C101.061 426.936 100.641 427.158 100.276 427.324C100.5 427.536 100.68 427.825 100.69 428.219C100.715 429.15 99.7592 429.865 97.8492 430.347C97.3746 430.468 96.7362 430.628 95.9007 430.588C95.5073 430.569 95.1627 430.508 94.8688 430.452C94.825 430.619 94.7447 430.793 94.5999 430.958C94.1748 431.445 93.4882 431.568 92.5563 431.294C91.5276 431.008 90.7147 430.618 89.9975 430.276C89.3709 429.977 88.8307 429.722 88.3775 429.652C87.5344 429.535 86.7483 430.055 85.8075 430.747L83.45 432.515H83.45L83.45 432.515Z" fill="#F2F2F2"/>
<path d="M90.1781 411.266L86.4651 411.822L86.1754 411.642C84.8357 410.807 83.5427 410.405 82.3309 410.444C82.1382 410.45 81.9459 410.467 81.75 410.483C80.9736 410.548 80.0085 410.628 78.8629 410.166C78.2241 409.907 76.7401 409.167 76.8759 407.968C76.909 407.645 77.0476 407.396 77.2137 407.206C77.1694 407.18 77.1252 407.154 77.0773 407.126C76.4964 406.775 76.2425 406.49 75.998 406.215C75.8099 406.004 75.6161 405.786 75.1638 405.45C74.9654 405.302 74.7917 405.188 74.6457 405.091C74.204 404.799 73.676 404.415 73.6587 403.704C73.6666 402.943 74.2802 402.522 74.6863 402.243C75.4106 401.745 75.9373 401.512 76.2868 401.358C76.4145 401.302 76.5582 401.238 76.6021 401.206C76.9531 400.948 76.5427 398.972 76.3926 398.227C76.0494 396.554 75.7524 395.106 76.7923 394.467C77.5361 394.009 78.5525 394.291 79.8945 395.331C80.3121 395.655 80.6333 396.005 80.8864 396.316C81.035 396.045 81.2693 395.798 81.6474 395.688C82.5427 395.428 83.477 396.171 84.4279 397.895C84.6655 398.323 84.9825 398.9 85.1552 399.718C85.2362 400.103 85.2653 400.452 85.2854 400.75C85.4585 400.75 85.6472 400.783 85.8437 400.882C86.4222 401.169 86.7161 401.802 86.6871 402.772C86.6708 403.839 86.4998 404.724 86.3502 405.504C86.2204 406.186 86.1106 406.773 86.1581 407.229C86.2579 408.074 86.9608 408.702 87.8696 409.436L90.1782 411.266H90.1781L90.1781 411.266Z" fill="#F2F2F2"/>
<path d="M90.6785 400.122L91.0827 396.392L91.3307 396.157C92.4779 395.073 93.1955 393.925 93.4647 392.744C93.5076 392.556 93.5407 392.366 93.5747 392.173C93.7089 391.405 93.8756 390.452 94.6134 389.462C95.0263 388.91 96.1187 387.663 97.2452 388.098C97.5493 388.212 97.7545 388.409 97.8971 388.618C97.9329 388.582 97.9695 388.546 98.0087 388.506C98.4954 388.034 98.8358 387.861 99.1637 387.694C99.4157 387.566 99.6759 387.434 100.116 387.082C100.309 386.927 100.464 386.788 100.594 386.672C100.99 386.319 101.495 385.906 102.188 386.069C102.922 386.27 103.174 386.97 103.341 387.433C103.639 388.26 103.731 388.828 103.792 389.205C103.814 389.343 103.839 389.498 103.858 389.548C104.019 389.953 106.036 390.058 106.795 390.102C108.501 390.194 109.977 390.274 110.332 391.442C110.587 392.277 110.056 393.188 108.709 394.222C108.289 394.543 107.87 394.765 107.504 394.931C107.729 395.143 107.908 395.432 107.919 395.826C107.944 396.758 106.988 397.472 105.078 397.954C104.603 398.075 103.965 398.236 103.129 398.195C102.736 398.176 102.391 398.116 102.097 398.059C102.054 398.227 101.973 398.401 101.828 398.566C101.403 399.052 100.717 399.176 99.7849 398.901C98.7561 398.615 97.9432 398.225 97.226 397.883C96.5994 397.584 96.0593 397.329 95.606 397.26C94.7629 397.142 93.9768 397.662 93.036 398.354L90.6785 400.122H90.6785H90.6785Z" fill="#F2F2F2"/>
<path d="M78.6389 471.601L77.9824 470.953L77.9943 470.032L77.9824 470.953L77.07 470.857C77.0743 470.771 77.0683 470.57 77.0616 470.257C77.0265 468.541 76.9176 463.318 77.6453 455.293C78.1534 449.691 79.0024 444.004 80.1689 438.388C81.3373 432.764 82.5499 428.579 83.5239 425.215C84.2589 422.678 85.0008 420.272 85.725 417.928C87.6577 411.665 89.4826 405.75 90.6127 399.002C90.8658 397.496 91.391 394.361 90.3157 390.66C89.6918 388.514 88.6235 386.494 87.1395 384.657L88.5758 383.498C90.2134 385.527 91.3947 387.765 92.0876 390.148C93.2799 394.251 92.7076 397.667 92.4327 399.309C91.2825 406.175 89.4394 412.147 87.4876 418.47C86.7671 420.805 86.0276 423.201 85.2958 425.728C84.3306 429.06 83.1289 433.209 81.9757 438.761C80.8224 444.31 79.9842 449.927 79.4817 455.459C78.7637 463.383 78.8716 468.528 78.9069 470.218C78.9251 471.121 78.9291 471.31 78.6389 471.601L78.6389 471.601Z" fill="#F2F2F2"/>
<path d="M83.1993 386.781C83.1255 386.764 83.0511 386.746 82.9767 386.724C81.4619 386.299 80.2468 385.065 79.3641 383.057C78.951 382.112 78.8535 381.119 78.659 379.136C78.6285 378.831 78.4937 377.284 78.6594 375.234C78.7672 373.895 78.9113 373.357 79.276 372.935C79.6809 372.464 80.2265 372.195 80.803 372.059C80.8186 371.882 80.8767 371.709 80.9918 371.544C81.4661 370.862 82.26 371.143 82.6908 371.289C82.9078 371.366 83.1782 371.465 83.4825 371.517C83.9605 371.599 84.246 371.515 84.6781 371.39C85.0916 371.27 85.6057 371.121 86.3163 371.134C87.7185 371.153 88.7565 371.783 89.0988 371.99C90.9014 373.073 91.5238 374.8 92.244 376.8C92.3872 377.201 92.8621 378.65 92.9727 380.515C93.0526 381.861 92.8761 382.412 92.6737 382.806C92.2604 383.616 91.6275 383.992 90.0567 384.782C88.4157 385.61 87.5923 386.024 86.9172 386.237C85.3463 386.73 84.3598 387.039 83.1993 386.781V386.781Z" fill="#F2F2F2"/>
<path d="M291.613 273.428C296.512 269.292 295.211 259.703 288.708 252.009C285.861 248.641 282.49 246.195 279.187 244.856L275.392 240.478L226.378 179.097C226.378 179.097 199.236 118.035 191.223 111.439C183.211 104.842 173.784 108.277 173.784 108.277L166.428 117.372L212.263 202.628L259.171 249.811L265.504 256.41C266.273 259.888 268.122 263.619 270.969 266.987C277.472 274.681 286.715 277.565 291.613 273.428Z" fill="#FFB6B6"/>
<path d="M199.093 122.792L211.376 140.796L229.009 166.88L197.325 177.835L169.351 129.858L199.093 122.792Z" fill="#E6E6E6"/>
<path d="M701 469.942H0V472.078H701V469.942Z" fill="#3F3D56"/>
<path d="M496.271 321.465H440.382V302.497C440.382 271.985 465.167 247.213 495.695 247.213H496.271V321.465Z" fill="#2F2E41"/>
<path d="M452.837 311.532L462.1 281.229L485.864 280.04L496.271 321.465L452.837 311.532Z" fill="#A0616A"/>
<path opacity="0.4" d="M452.837 311.532L462.1 281.229L485.864 280.04L496.271 321.465L452.837 311.532Z" fill="#E5949F"/>
<path d="M474.46 298.985C489.893 298.985 502.405 286.481 502.405 271.055C502.405 255.63 489.893 243.125 474.46 243.125C459.027 243.125 446.516 255.63 446.516 271.055C446.516 286.481 459.027 298.985 474.46 298.985Z" fill="#E6949F"/>
<path d="M415.232 427.168L407.836 434.561C407.836 434.561 368.315 408.066 353.157 417.947C338 427.828 337.34 446.962 355.163 457.518C372.986 468.074 418.533 493.805 418.533 493.805C418.533 493.805 479.263 504.361 520.19 472.033C561.116 439.704 568.708 441.354 561.446 424.2C554.185 407.046 538.343 411.004 538.343 411.004L507.978 428.818L495.436 426.179L415.232 427.168Z" fill="#2F2E41"/>
<path d="M416.883 435.416L448.568 449.271L436.686 477.641L389.818 466.425" fill="#2F2E41"/>
<path d="M497.871 435.416L455.169 455.209L471.672 489.517L519.2 469.064" fill="#2F2E41"/>
<path d="M455.169 306.046L413.912 324.245L427.114 396.819L415.233 427.169L478.603 437.065L511.099 426.987L508.308 412.654L511.099 359.16L522.17 327.543L492.465 307.091L455.169 306.046Z" fill="#E6E6E6"/>
<path d="M444.607 451.91L465.071 457.848L455.169 482.096L428.105 471.703L444.607 451.91Z" fill="#E6949F"/>
<path d="M473.046 451.91L447.908 464.446V483.592L476.292 480.28L473.046 451.91Z" fill="#E6949F"/>
<path d="M436.686 488.197C436.686 488.197 480.253 517.227 496.756 505.351C513.259 493.475 522.5 478.301 519.2 476.321C515.899 474.342 505.997 471.043 505.997 471.043L450.548 482.259L436.686 488.197Z" fill="#2F2E41"/>
<path d="M381.237 466.425C381.237 466.425 358.793 500.733 379.917 506.011C401.04 511.289 454.272 489.517 454.272 489.517L450.548 461.146L440.647 471.043L381.237 466.425Z" fill="#2F2E41"/>
<path d="M521.116 228.954C514.941 223.25 512.881 215.441 516.514 211.514C520.147 207.588 528.096 209.029 534.272 214.737C536.771 216.983 538.694 219.794 539.883 222.936L565.739 247.437L553.977 259.319L529.736 233.904C526.508 232.966 523.552 231.269 521.116 228.954Z" fill="#A0616A"/>
<path d="M514.083 304.927L560.869 282.106L536.667 240.502L544.243 225.118C544.243 225.118 603.144 257.934 597.282 281.813C591.421 305.692 532.999 349.56 514.34 342.547C508.676 340.418 505.395 336.618 503.571 332.358C499.119 321.957 503.91 309.889 514.083 304.927Z" fill="#E6E6E6"/>
<path d="M420.962 293.651C422.383 289.331 425.189 285.549 426.445 281.179C428.112 275.375 431.66 288.25 432.007 282.222C432.665 270.765 450.16 241.293 460.148 235.632C470.135 229.971 475.872 231.678 486.047 236.995C486.047 236.995 490.986 237.308 497.136 240.343C503.285 243.377 508.82 248.237 511.212 254.661C513.107 259.752 512.898 265.344 513.531 270.74C515.296 285.773 523.727 300.07 521.917 315.097C521.352 319.785 519.57 324.634 515.734 327.391C511.899 330.149 505.702 329.849 503.178 325.857C502.316 324.495 501.952 322.879 501.214 321.447C500.475 320.014 499.141 318.679 497.53 318.723C495.107 318.79 493.874 322.039 494.829 324.265C495.785 326.491 498.03 327.835 500.137 329.031C495.118 331.288 488.891 330.585 484.501 327.266C480.111 323.946 477.741 318.149 478.549 312.707C479.687 305.038 490.864 306.625 492.181 298.985C493.14 293.424 496.506 284.117 495.589 278.549C494.672 272.98 490.269 279.723 494.907 276.505C489.804 278.964 478.887 262.142 473.544 260.257C468.202 258.373 463.672 254.293 461.242 249.177C455.575 257.388 450.59 255.158 448.561 264.924C446.531 274.691 449.901 304.815 458.258 310.268C454.913 312.548 450.754 307.873 449.185 311.603C448.296 313.716 447.72 316.028 446.244 317.784C443.426 321.136 438.223 321.34 434.076 319.93C428.933 318.182 424.536 314.344 422.112 309.486C419.687 304.628 419.265 298.808 420.962 293.651H420.962Z" fill="#2F2E41"/>
<path d="M349.481 287.105C347.97 278.838 342.478 272.915 337.214 273.877C331.95 274.838 328.909 282.319 330.421 290.589C330.979 293.901 332.323 297.031 334.34 299.717L341.182 334.666L357.523 331.107L349.043 297.032C349.98 293.805 350.13 290.401 349.481 287.105Z" fill="#A0616A"/>
<path d="M417.427 321.88L373.078 349.134L350.903 306.416L333.847 304.566C333.847 304.566 330.006 371.855 353.319 379.705C376.631 387.554 444.994 361.76 449.068 342.257C450.305 336.336 448.853 331.531 446.232 327.709C439.831 318.378 427.069 315.955 417.427 321.88Z" fill="#E6E6E6"/>
<path d="M659.379 372.762L500.52 422.946V229.616L659.379 179.432V372.762Z" fill="white"/>
<path d="M499.451 424.405V228.834L660.447 177.975V373.545L499.451 424.405ZM501.588 230.398V421.488L658.31 371.98V180.89L501.588 230.398Z" fill="#3F3D56"/>
<path d="M270.355 415.65L397.756 455.896V300.85L270.355 260.604V415.65Z" fill="white"/>
<path d="M398.825 457.353L397.434 456.913L269.287 416.432V259.146L270.678 259.586L398.825 300.067V457.353ZM271.424 414.867L396.688 454.437V301.632L271.424 262.062V414.867Z" fill="#3F3D56"/>
<path d="M539.13 241.564C537.315 251.023 540.627 261.308 547.622 267.932C554.617 274.556 565.071 277.308 574.423 274.987C583.302 272.783 591.606 263.4 587.849 255.062C585.171 249.118 577.003 246.869 571.141 249.727C565.279 252.586 562.019 259.457 562.357 265.967C562.696 272.477 566.162 278.53 570.786 283.127C582.848 295.119 602.168 298.229 612.799 311.504C622.083 323.097 621.798 341.292 612.154 352.588C602.511 363.884 584.579 367.03 571.663 359.691C566.34 356.666 561.76 351.813 560.437 345.837C559.115 339.862 561.779 332.853 567.374 330.364C577.924 325.67 588.547 338.278 600.094 338.462C606.708 338.568 613.131 333.996 615.194 327.715C617.256 321.433 614.793 313.946 609.403 310.114" fill="#302D62"/>
<path d="M315.569 376.834C317.611 382.826 313.379 390.132 307.163 391.345C300.948 392.558 294.277 387.38 293.914 381.061C293.551 374.742 299.585 368.835 305.898 369.329C316.07 370.124 322.076 384.039 332.258 383.389C339.225 382.944 343.625 375.822 346.197 369.335C349.158 361.866 351.324 354.083 352.645 346.158C353.748 339.548 354.254 332.703 352.663 326.193C351.073 319.683 347.133 313.501 341.158 310.46C332.083 305.84 319.66 310.347 315.327 319.559C310.993 328.771 315.168 340.942 324.065 345.896C335.192 352.092 350.517 347.63 360.626 355.374C368.727 361.581 370.12 373.027 370.86 383.203C371.331 389.693 371.797 396.284 370.467 402.654C369.138 409.024 365.752 415.259 360.137 418.552C355.883 421.046 350.205 421.54 346.112 418.792C342.019 416.043 340.482 409.683 343.665 405.919C346.271 402.837 351.014 402.346 354.827 403.669C358.64 404.993 361.744 407.766 364.738 410.473" fill="#302D62"/>
<path d="M211.564 61.5163L202.668 95.4144L168.752 88.7459C168.752 88.7459 182.096 64.2948 178.76 53.1807L211.564 61.5163H211.564Z" fill="#FFB6B6"/>
<path d="M175.762 502.765L196.185 502.763L205.901 424.025L175.758 424.027L175.762 502.765Z" fill="#FFB6B6"/>
<path d="M245.736 502.302C246.372 503.372 246.707 506.827 246.707 508.072C246.707 511.898 243.604 515 239.775 515H176.526C173.914 515 171.797 512.884 171.797 510.274V507.642C171.797 507.642 168.668 499.731 175.11 489.981C175.11 489.981 183.116 497.616 195.079 485.658L198.607 479.271L224.145 497.938L238.3 499.679C241.397 500.06 244.142 499.62 245.735 502.302H245.736Z" fill="#2F2E41"/>
<path d="M232.471 274.897L204.328 466.308H169.019L173.714 357.046L176.185 299.595L169.019 272.249C169.019 272.249 165.751 266.17 162.999 258.802C159.896 250.487 157.446 240.518 161.084 235.791C162.422 234.049 165.902 232.759 170.632 231.799C173.522 231.209 176.885 230.749 180.516 230.392C201.397 228.327 231.098 229.617 231.098 229.617L231.853 254.521L232.272 268.427L232.471 274.897H232.471Z" fill="#2F2E41"/>
<path d="M139.785 493.403L159.992 496.371L181.063 419.883L151.24 415.503L139.785 493.403Z" fill="#FFB6B6"/>
<path d="M209.082 503.118C209.555 504.27 209.385 507.737 209.203 508.968C208.647 512.754 205.125 515.372 201.337 514.815L138.76 505.62C136.176 505.24 134.389 502.839 134.769 500.256L135.152 497.652C135.152 497.652 133.208 489.371 141 480.661C141 480.661 147.81 489.378 161.387 479.287L165.807 473.48L188.356 495.662L202.107 499.443C205.116 500.27 207.896 500.234 209.082 503.118L209.082 503.118H209.082Z" fill="#2F2E41"/>
<path d="M232.914 242.975L229.054 276.201L208.003 346.217L173.35 461.487L138.42 456.356L169.769 292.459L166.665 264.355C166.665 264.355 165.654 261.562 164.495 257.472C162.195 249.381 159.31 236.205 162.484 229.484C162.913 228.57 163.451 227.777 164.116 227.135C165.365 225.925 167.902 225.191 171.301 224.801C185.508 223.196 214.768 227.786 227.788 230.04L232.914 242.975V242.975Z" fill="#2F2E41"/>
<path d="M206.004 85.4116L244.367 133.758L237.481 184.163L231.58 235.452L162.081 224.894C162.081 224.894 177.092 188.773 178.76 187.106C180.428 185.439 184.618 189.556 181.689 184.163C178.76 178.77 175.424 178.77 178.204 175.992C180.984 173.213 156.521 137.092 156.521 117.643C156.521 98.1928 168.197 82.6331 168.197 82.6331L206.004 85.4116L206.004 85.4116Z" fill="#E6E6E6"/>
<path d="M197.053 67.9178C211.326 67.9178 222.897 56.3532 222.897 42.0876C222.897 27.8219 211.326 16.2573 197.053 16.2573C182.78 16.2573 171.21 27.8219 171.21 42.0876C171.21 56.3532 182.78 67.9178 197.053 67.9178Z" fill="#FFB6B6"/>
<path d="M195.845 91.4743C195.845 91.4743 199.713 60.8909 200.397 51.9971C201.082 43.1033 213.642 29.2174 213.642 29.2174L222.541 36.4009C222.541 36.4009 230.07 36.4009 224.936 25.4546C219.803 14.5084 210.22 12.798 210.22 12.798C210.22 12.798 209.193 -1.56893 191.396 0.141433C173.599 1.85179 165.728 16.2188 165.728 16.2188C165.728 16.2188 164.701 -1.91098 153.407 11.4298C142.113 24.7705 135.61 30.2436 147.589 34.6906C159.567 39.1375 168.466 35.7168 168.466 35.7168C168.466 35.7168 156.829 38.1113 158.883 46.321C160.936 54.5307 131.845 91.8164 145.193 95.9212C158.541 100.026 188.316 109.946 191.738 103.447C195.161 96.9474 195.845 91.4743 195.845 91.4743V91.4743Z" fill="#2F2E41"/>
<path d="M302.378 275.99C307.311 271.895 306.091 262.295 299.652 254.547C296.834 251.155 293.483 248.681 290.192 247.314L286.433 242.904L237.936 181.115C237.936 181.115 211.307 119.829 203.35 113.165C195.393 106.501 185.937 109.857 185.937 109.857L178.506 118.89L223.624 204.527L270.135 252.102L276.412 258.753C277.152 262.238 278.97 265.984 281.788 269.376C288.227 277.124 297.445 280.085 302.378 275.99H302.378Z" fill="#FFB6B6"/>
<path d="M175.691 105.106C175.691 105.106 187.563 166.684 201.073 175.762L227.994 154.781C227.994 154.781 230.35 154.68 225.965 149.729C221.581 144.779 222.703 134.149 222.703 134.149C222.703 134.149 224.676 136.7 220.383 133.158C216.09 129.617 220.087 105.258 220.087 105.258L175.691 105.106L175.691 105.106Z" fill="#E6E6E6"/>
</g>
<defs>
<clipPath id="clip0_789_899">
<rect width="701" height="515" fill="white"/>
</clipPath>
</defs>
</svg>
