<svg width="511" height="525" viewBox="0 0 511 525" fill="none" xmlns="http://www.w3.org/2000/svg">
<g clip-path="url(#clip0_789_1055)">
<path d="M159.84 27.0544V358.772H366.844V19.0297C333.732 5.22279 298.184 -1.19866 262.517 0.184021C226.849 1.5667 191.864 10.7225 159.84 27.0544Z" fill="white"/>
<path d="M139.531 40.8166V359.714H209.912L208.655 341.664L201.735 144.04H341.095L334.175 341.664L332.917 359.714H404.087V46.5904C402.781 45.5927 401.469 44.6076 400.139 43.6411C399.881 43.4541 401.021 38.1661 400.756 37.979C385.449 26.8834 368.89 17.7685 351.448 10.8373L346.294 69.5732H322.146V6.94716C320.569 6.54186 318.993 6.16152 317.404 5.80611V5.80617C317.404 22.7182 310.92 38.9376 299.379 50.8963C287.838 62.8549 272.184 69.5732 255.863 69.5732H226.214V4.15381C224.631 4.45309 223.049 4.77109 221.478 5.10777V69.5732H196.529L192.594 13.3195C175.621 19.417 159.401 27.5642 144.267 37.593C143.743 37.9422 143.214 38.2851 142.69 38.6467C141.631 39.3576 140.578 40.0808 139.531 40.8166ZM322.146 74.4865H345.951L342.239 127.673H322.146V74.4865ZM226.214 74.4865H317.404V127.673H282.075V126.619C282.075 126.113 281.979 125.612 281.792 125.144C281.605 124.676 281.332 124.251 280.986 123.894C280.641 123.536 280.231 123.252 279.779 123.058C279.328 122.865 278.845 122.765 278.356 122.765H263.685C263.196 122.765 262.712 122.864 262.26 123.057C261.808 123.25 261.398 123.534 261.052 123.892C260.706 124.25 260.431 124.675 260.244 125.143C260.057 125.611 259.96 126.112 259.96 126.619V127.673H226.214V74.4865ZM200.585 127.673L196.872 74.4865H221.478V127.673H200.585Z" fill="#F2F2F2"/>
<path d="M33.116 350.197C33.122 350.216 33.128 350.228 33.134 350.247C33.1761 350.378 33.2183 350.496 33.2664 350.627V350.633C35.3184 356.607 37.573 362.48 40.0301 368.254L504.128 367.73C506.619 361.838 508.906 355.838 510.988 349.729C510.995 349.716 510.999 349.701 511 349.686L33.116 350.197Z" fill="#CCCCCC"/>
<path d="M207.387 259.217C207.017 260.814 206.313 262.307 205.326 263.592C204.338 264.877 203.091 265.922 201.671 266.653C200.252 267.385 198.695 267.785 197.111 267.825C195.526 267.865 193.952 267.545 192.5 266.887L166.342 296.203L161.551 276.059L187.125 251.308C188.354 248.853 190.409 246.951 192.901 245.961C195.393 244.971 198.149 244.963 200.646 245.938C203.144 246.912 205.209 248.803 206.451 251.25C207.694 253.697 208.027 256.532 207.387 259.217L207.387 259.217Z" fill="#FFB6B6"/>
<path d="M177.625 285.202L142.085 326.535L141.796 326.479C141.676 326.461 138.98 325.962 134.708 325.151C119.255 322.221 83.2095 315.231 74.2674 311.995C69.111 310.194 64.4837 307.058 60.8242 302.885C61.7509 297.654 62.7438 293.738 63.7247 291.83C64.4408 290.44 64.3084 288.625 64.3385 286.555C66.6851 284.877 69.4201 283.874 72.2636 283.65C90.0452 282.317 107.883 285.281 124.37 292.31L133.745 296.326L134.13 296.033L165.794 271.953L166.011 271.791L176.903 284.367L177.625 285.202Z" fill="#302D62"/>
<path d="M251.797 524.177C251.322 524.14 250.852 524.096 250.377 524.053C244.414 523.535 238.51 522.804 232.667 521.858L226.253 506.382L223.178 498.962L234.786 493.793L242.332 490.439L245.918 503.209L247.404 508.515L250.919 521.035L251.797 524.177Z" fill="#FFB6B6"/>
<path d="M121.76 452.164V473.899C125.28 476.593 128.87 479.191 132.531 481.693V452.164H121.76Z" fill="#CACACA"/>
<path d="M83.9213 438.396C86.9481 441.876 90.0652 445.266 93.2725 448.566C100.821 456.356 108.836 463.645 117.271 470.389H165.291C166.566 470.389 167.826 470.107 168.987 469.562C170.148 469.017 171.184 468.221 172.024 467.228L172.03 467.209C173.032 466.038 173.728 464.622 174.052 463.094L174.058 463.082C174.194 462.426 174.262 461.757 174.263 461.086V447.699C174.261 445.234 173.316 442.869 171.634 441.125C169.951 439.381 167.67 438.4 165.291 438.396H83.9213Z" fill="#3F3D56"/>
<path d="M64.1355 386.146L69.3407 409.253C68.8317 412.601 68.6623 415.995 68.8352 419.379C71.3024 422.809 73.8478 426.169 76.4715 429.461C78.8905 432.498 81.3738 435.476 83.9212 438.397C86.9481 441.876 90.0651 445.266 93.2725 448.566C101.625 451.285 111.47 452.394 121.76 452.469C125.31 452.5 128.914 452.401 132.531 452.201C147.196 451.403 139.162 448.965 151.312 446.434C154.525 445.773 157.546 445.099 160.326 444.445C165.591 443.216 169.996 442.069 173.186 441.196C176.778 440.223 189.744 433.512 189.744 433.512L199.974 456.582L209 478.405L220.887 505.973C222.415 506.117 223.946 506.237 225.478 506.335C227.103 506.453 228.73 506.549 230.358 506.622C231.646 506.69 232.928 506.74 234.222 506.778L234.661 506.921L235.022 506.802L240.823 504.888L242.779 504.246L249.813 501.927C249.813 501.927 248.243 496.801 245.493 488.253C244.482 485.117 237.321 461.928 229.829 441.682C227.608 435.672 225.31 429.574 222.945 423.507C221.007 418.525 219.033 413.562 217.036 408.667C213.563 400.181 196.786 395.604 177.031 393.204C176.026 393.086 175.015 392.967 173.998 392.855C163.931 391.757 153.249 391.19 143.26 390.928C138.26 390.797 156.3 390.747 151.811 390.741C150.361 390.741 148.951 390.745 147.581 390.754H147.575C143.874 390.772 140.468 390.828 137.471 390.891C136.888 390.903 136.322 390.922 135.768 390.934H135.762C135.389 390.941 135.022 390.953 134.661 390.959C128.108 391.134 124.088 391.346 124.088 391.346L122.53 378.676L122.211 376.12L121.91 373.688V373.682L121.874 373.376L121.627 373.37L117.295 373.283L80.8763 372.547L65.3645 371.866L64.1355 386.146Z" fill="#2F2E41"/>
<path d="M182.523 432.889C178.136 440.658 174.718 455.385 170.223 462.68C161.6 476.684 156.545 484.323 150.57 492.94C144.396 489.454 138.384 485.705 132.535 481.691C129.412 479.559 126.337 477.35 123.31 475.063L126.891 466.602L128.925 462.456L138.059 443.819L148.301 422.925L151.864 424.646L182.523 432.889Z" fill="#2F2E41"/>
<path d="M490.36 326.129C490.532 325.592 490.592 325.022 490.534 324.458C490.476 323.894 490.303 323.35 490.025 322.862C489.747 322.374 489.371 321.953 488.923 321.627C488.475 321.302 487.965 321.08 487.427 320.976C487.228 320.932 487.026 320.906 486.823 320.899L462.301 320.242C461.751 320.237 461.205 320.35 460.7 320.576C460.195 320.802 459.741 321.135 459.368 321.554C459.024 321.478 458.674 321.44 458.323 321.441C457.559 321.421 456.799 321.556 456.086 321.84C455.373 322.124 454.721 322.551 454.167 323.096C453.613 323.641 453.169 324.294 452.859 325.018C452.549 325.741 452.379 326.521 452.36 327.312C452.341 328.103 452.472 328.891 452.747 329.629C453.022 330.368 453.434 331.043 453.961 331.616C454.487 332.19 455.118 332.65 455.817 332.971C456.515 333.291 457.267 333.466 458.031 333.485C458.91 333.504 459.781 333.318 460.581 332.942L462.837 357.937C463.054 358.759 463.522 359.486 464.171 360.009C464.82 360.533 465.614 360.825 466.436 360.841L482.378 361.266C483.194 361.281 483.994 361.028 484.662 360.543C485.331 360.058 485.833 359.366 486.099 358.566L490.36 326.129ZM458.082 331.761C456.982 331.732 455.937 331.251 455.178 330.424C454.419 329.598 454.008 328.494 454.034 327.353C454.059 326.213 454.52 325.129 455.316 324.341C456.111 323.552 457.176 323.123 458.277 323.146C458.355 323.146 458.423 323.185 458.501 323.185C458.327 323.875 458.331 324.601 458.513 325.289L460.119 331.245C459.498 331.606 458.794 331.784 458.082 331.761Z" fill="#CCCCCC"/>
<path d="M487.428 320.977C486.905 324.072 481.031 326.248 473.969 325.87C467.474 325.559 462.164 323.196 461.191 320.396C461.551 320.286 461.925 320.234 462.301 320.243L486.823 320.899C487.026 320.907 487.228 320.933 487.428 320.977Z" fill="white"/>
<path d="M333.903 288.269V352.217H377.139V288.269C377.14 287.809 376.998 287.361 376.735 286.991C376.472 286.621 376.101 286.347 375.677 286.212C375.477 286.143 375.267 286.11 375.057 286.112H335.991C335.717 286.111 335.446 286.167 335.193 286.275C334.939 286.383 334.709 286.542 334.515 286.742C334.321 286.943 334.168 287.181 334.062 287.443C333.957 287.705 333.903 287.986 333.903 288.269ZM350.776 310.242C350.787 308.981 351.278 307.776 352.143 306.888C353.007 306.001 354.175 305.503 355.391 305.503C356.608 305.503 357.776 306.001 358.64 306.888C359.505 307.776 359.996 308.981 360.007 310.242V317.662C360.001 318.926 359.512 320.137 358.647 321.029C357.782 321.921 356.612 322.421 355.391 322.421C354.171 322.421 353.001 321.921 352.136 321.029C351.271 320.137 350.782 318.926 350.776 317.662V310.242Z" fill="#CCCCCC"/>
<path d="M333.771 350.172V356.339C333.771 356.658 333.894 356.964 334.111 357.19C334.329 357.417 334.624 357.545 334.932 357.548H376.11C376.419 357.547 376.714 357.418 376.932 357.192C377.149 356.965 377.271 356.658 377.271 356.339V350.172H333.771Z" fill="#3F3D56"/>
<path d="M265.886 191.923V308.683C265.888 310.171 266.459 311.598 267.474 312.65C268.489 313.702 269.866 314.294 271.302 314.295H438.289C439.725 314.294 441.102 313.702 442.118 312.65C443.133 311.598 443.704 310.171 443.705 308.683V191.923C443.702 190.437 443.13 189.012 442.115 187.961C441.1 186.911 439.724 186.32 438.289 186.318H271.302C269.868 186.32 268.492 186.911 267.477 187.961C266.462 189.012 265.89 190.437 265.886 191.923Z" fill="#CCCCCC"/>
<path d="M269.804 193.376V307.243C269.805 308.038 270.111 308.8 270.653 309.362C271.196 309.924 271.931 310.24 272.698 310.242H436.899C437.667 310.24 438.402 309.924 438.945 309.362C439.487 308.8 439.792 308.038 439.794 307.243V193.376C439.794 192.58 439.489 191.817 438.946 191.253C438.404 190.69 437.667 190.372 436.899 190.371H272.698C271.93 190.372 271.194 190.69 270.651 191.253C270.109 191.817 269.804 192.58 269.804 193.376Z" fill="white"/>
<path d="M303.789 357.13C303.956 357.348 304.168 357.523 304.41 357.643C304.652 357.762 304.917 357.824 305.185 357.823H402.874C403.141 357.822 403.405 357.76 403.646 357.641C403.887 357.522 404.1 357.348 404.268 357.133C404.436 356.918 404.556 356.667 404.619 356.398C404.682 356.129 404.686 355.849 404.631 355.578L403.115 348.114C403.052 347.81 402.917 347.527 402.721 347.291C402.526 347.054 402.276 346.872 401.995 346.761C401.792 346.679 401.576 346.636 401.358 346.637H306.695C306.477 346.636 306.261 346.679 306.058 346.761C305.777 346.872 305.527 347.054 305.332 347.291C305.136 347.527 305.001 347.81 304.938 348.114L303.422 355.578C303.368 355.849 303.373 356.129 303.436 356.397C303.5 356.666 303.62 356.916 303.789 357.13Z" fill="#F2F2F2"/>
<path d="M431.571 206.056H277.928C277.769 206.053 277.617 205.984 277.505 205.866C277.393 205.748 277.331 205.589 277.331 205.423C277.331 205.258 277.393 205.099 277.505 204.98C277.617 204.862 277.769 204.794 277.928 204.79H431.571C431.73 204.794 431.882 204.862 431.994 204.98C432.106 205.099 432.168 205.258 432.168 205.423C432.168 205.589 432.106 205.748 431.994 205.866C431.882 205.984 431.73 206.053 431.571 206.056Z" fill="#3F3D56"/>
<path d="M288.387 201.558C290.364 201.558 291.968 199.86 291.968 197.765C291.968 195.67 290.364 193.972 288.387 193.972C286.409 193.972 284.806 195.67 284.806 197.765C284.806 199.86 286.409 201.558 288.387 201.558Z" fill="#3F3D56"/>
<path d="M300.757 201.558C302.734 201.558 304.337 199.86 304.337 197.765C304.337 195.67 302.734 193.972 300.757 193.972C298.779 193.972 297.176 195.67 297.176 197.765C297.176 199.86 298.779 201.558 300.757 201.558Z" fill="#3F3D56"/>
<path d="M313.126 201.558C315.104 201.558 316.707 199.86 316.707 197.765C316.707 195.67 315.104 193.972 313.126 193.972C311.149 193.972 309.546 195.67 309.546 197.765C309.546 199.86 311.149 201.558 313.126 201.558Z" fill="#3F3D56"/>
<path d="M424.122 194.91H415.337C415.163 194.914 414.997 194.989 414.876 195.117C414.754 195.246 414.687 195.419 414.687 195.599C414.687 195.779 414.754 195.952 414.876 196.081C414.997 196.21 415.163 196.284 415.337 196.288H424.122C424.297 196.286 424.464 196.212 424.587 196.083C424.709 195.954 424.778 195.78 424.778 195.599C424.778 195.418 424.709 195.244 424.587 195.115C424.464 194.986 424.297 194.913 424.122 194.91Z" fill="#3F3D56"/>
<path d="M424.122 197.498H415.336C415.163 197.502 414.997 197.576 414.876 197.705C414.754 197.834 414.686 198.006 414.686 198.187C414.686 198.367 414.754 198.539 414.876 198.668C414.997 198.797 415.163 198.871 415.336 198.875H424.122C424.297 198.873 424.463 198.799 424.586 198.67C424.709 198.541 424.778 198.368 424.778 198.187C424.778 198.005 424.709 197.832 424.586 197.703C424.463 197.574 424.297 197.5 424.122 197.498Z" fill="#3F3D56"/>
<path d="M424.122 200.085H415.337C415.163 200.089 414.997 200.163 414.876 200.292C414.754 200.421 414.687 200.594 414.687 200.774C414.687 200.954 414.754 201.127 414.876 201.256C414.997 201.384 415.163 201.459 415.337 201.463H424.122C424.297 201.461 424.464 201.387 424.587 201.258C424.709 201.129 424.778 200.955 424.778 200.774C424.778 200.593 424.709 200.419 424.587 200.29C424.464 200.161 424.297 200.087 424.122 200.085Z" fill="#3F3D56"/>
<path d="M372.778 240.474H346.843C345.577 240.474 344.551 241.538 344.551 242.85V244.861C344.551 246.173 345.577 247.237 346.843 247.237H372.778C374.045 247.237 375.071 246.173 375.071 244.861V242.85C375.071 241.538 374.045 240.474 372.778 240.474Z" fill="#F40638"/>
<path d="M388.279 253.999H331.343C330.077 253.999 329.05 255.063 329.05 256.375V258.386C329.05 259.698 330.077 260.761 331.343 260.761H388.279C389.545 260.761 390.571 259.698 390.571 258.386V256.375C390.571 255.063 389.545 253.999 388.279 253.999Z" fill="#F40638"/>
<path d="M388.279 267.524H331.343C330.077 267.524 329.05 268.588 329.05 269.9V271.911C329.05 273.223 330.077 274.287 331.343 274.287H388.279C389.545 274.287 390.571 273.223 390.571 271.911V269.9C390.571 268.588 389.545 267.524 388.279 267.524Z" fill="#F40638"/>
<path d="M253.831 361.807C261.641 361.807 267.972 359.714 267.972 357.131C267.972 354.548 261.641 352.455 253.831 352.455C246.021 352.455 239.69 354.548 239.69 357.131C239.69 359.714 246.021 361.807 253.831 361.807Z" fill="#3F3D56"/>
<path d="M253.831 358.69C261.641 358.69 267.972 356.596 267.972 354.014C267.972 351.431 261.641 349.337 253.831 349.337C246.021 349.337 239.69 351.431 239.69 354.014C239.69 356.596 246.021 358.69 253.831 358.69Z" fill="#3F3D56"/>
<path d="M254.885 357.148L252.778 357.115L253.359 316.344C253.443 309.691 251.842 303.132 248.715 297.321C245.589 291.51 241.045 286.651 235.539 283.228L195.319 258.318L196.401 256.443L236.62 281.354C242.443 284.974 247.248 290.113 250.555 296.259C253.862 302.404 255.556 309.341 255.466 316.376L254.885 357.148Z" fill="#3F3D56"/>
<path d="M201.478 238.351C201.478 235.424 199.188 233.051 196.363 233.051C193.539 233.051 191.249 235.424 191.249 238.351V271.398C191.249 274.325 193.539 276.697 196.363 276.697C199.188 276.697 201.478 274.325 201.478 271.398V238.351Z" fill="#F40638"/>
<path d="M192.784 285.803C188.743 285.797 184.867 284.143 181.994 281.199C179.121 278.255 177.482 274.257 177.431 270.071L177.257 253.327L179.365 253.304L179.538 270.048C179.565 272.608 180.283 275.108 181.611 277.267C182.939 279.425 184.824 281.155 187.053 282.26C189.281 283.365 191.764 283.801 194.219 283.519C196.674 283.237 199.004 282.247 200.945 280.663L215.285 268.958L216.589 270.674L202.249 282.379C199.556 284.592 196.221 285.798 192.784 285.803Z" fill="#3F3D56"/>
<path d="M180.417 267.033C183.907 267.033 186.735 259.914 186.735 251.133C186.735 242.352 183.907 235.233 180.417 235.233C176.927 235.233 174.099 242.352 174.099 251.133C174.099 259.914 176.927 267.033 180.417 267.033Z" fill="#3F3D56"/>
<path d="M135.863 336.717C135.316 333.15 134.948 329.241 134.708 325.151C134.142 315.792 134.196 305.473 134.13 296.033C134.102 291.742 133.774 287.058 133.348 282.708C132.976 278.746 131.7 274.932 129.626 271.581C127.551 268.23 124.737 265.439 121.415 263.437C119.154 262.082 117.117 260.362 115.379 258.341C114.441 257.256 114.326 254.749 114.206 252.1C114.061 248.876 113.911 245.534 112.244 243.813L112.172 243.738L112.076 243.701C105.077 241.288 93.2528 242.853 89.7385 243.695L89.5881 243.732L89.4919 243.857C88.0416 245.846 88.1199 249.026 88.1981 252.1C88.2643 254.862 88.3304 257.474 87.151 258.26C86.2363 258.871 85.3578 259.451 84.5093 260.012C74.105 266.889 68.8818 270.344 65.0545 281.573C64.5439 283.179 64.3017 284.864 64.3384 286.555C64.3084 288.625 64.4408 290.44 63.7247 291.83C62.7438 293.738 61.7509 297.654 60.8242 302.885C55.968 330.376 53.0856 394.299 64.9522 395.795C65.8789 395.914 63.9895 397.84 63.3395 398.807C62.4068 400.197 61.6065 401.394 62.0698 402.311C62.3827 402.935 63.2012 403.228 64.6333 403.228C70.0371 403.228 125.585 394.779 127.162 391.736C127.264 391.537 127.276 391.911 127.162 391.736C153.206 388.213 139.42 360.03 135.863 336.717Z" fill="#302D62"/>
<path d="M198.553 364.25C197.438 363.051 196.084 362.121 194.585 361.524C193.086 360.926 191.478 360.677 189.876 360.793C188.274 360.909 186.716 361.388 185.311 362.195C183.907 363.003 182.691 364.119 181.748 365.467L144.375 353.77L150.17 373.915L184.771 381.934C187.06 383.425 189.798 383.994 192.465 383.534C195.132 383.073 197.544 381.614 199.243 379.435C200.941 377.255 201.809 374.505 201.682 371.706C201.555 368.908 200.441 366.254 198.553 364.25L198.553 364.25Z" fill="#FFB6B6"/>
<path d="M153.438 375.785L102.12 366.026C101.912 365.47 81.31 310.211 78.7644 297.798C77.1533 290.315 78.0608 282.486 81.3363 275.61L81.4267 275.445L81.595 275.37C85.0366 273.85 88.8755 273.59 92.4786 274.634C96.0818 275.678 99.2341 277.963 101.416 281.112C111.871 296.375 118.76 313.946 121.538 332.44L123.107 342.962L147.562 350.327L153.438 375.785Z" fill="#302D62"/>
<path d="M136.625 226.462C133.455 232.468 128.405 237.177 122.307 239.812C116.209 242.448 109.427 242.853 103.078 240.961C96.7283 239.069 91.1899 234.993 87.3747 229.404C83.5595 223.815 81.6951 217.046 82.0885 210.212C82.4818 203.379 85.1095 196.888 89.5388 191.808C93.9681 186.728 99.9349 183.363 106.456 182.267C112.978 181.17 119.666 182.408 125.418 185.776C131.17 189.144 135.643 194.441 138.102 200.795C138.235 201.14 138.355 201.485 138.475 201.843C139.865 205.849 140.418 210.114 140.099 214.358C139.78 218.602 138.596 222.727 136.625 226.462Z" fill="#FFB6B6"/>
<path d="M140.804 201.843C139.553 198.216 140.099 200.105 138.834 196.492C139.659 199.692 138.355 201.485 138.475 201.843H103.854V180.99C113.996 176.824 123.913 173.28 129.903 180.99C135.24 180.99 140.359 183.187 144.133 187.098C147.908 191.009 150.028 196.313 150.028 201.843L140.804 201.843Z" fill="#2F2E41"/>
<path d="M112.886 259.188C112.859 258.801 112.819 258.401 112.766 258.015C112.301 255.182 111.547 252.408 110.517 249.74C109.518 246.83 108.507 243.906 107.495 240.996C108.798 246.278 108.401 251.857 106.364 256.884C100.52 252.167 103.329 245.067 96.5671 241.382C78.4194 231.492 72.1395 215.51 77.2159 190.964C79.0212 182.235 89.5367 173.505 107.905 173.505C126.288 173.505 134.482 182.976 134.841 202.009C112.213 207.525 117.159 257.257 112.886 259.188Z" fill="#2F2E41"/>
<path d="M79.0434 191.871C85.678 191.871 91.0564 186.298 91.0564 179.423C91.0564 172.549 85.678 166.976 79.0434 166.976C72.4089 166.976 67.0305 172.549 67.0305 179.423C67.0305 186.298 72.4089 191.871 79.0434 191.871Z" fill="#2F2E41"/>
<path d="M73.4239 175.806C71.3752 178.278 68.1676 179.238 65.274 180.524C60.1672 182.846 55.6839 186.423 52.2129 190.946C48.742 195.468 46.3881 200.8 45.3553 206.478C44.5553 211.103 44.66 215.891 43.3964 220.4C42.1402 224.909 39.0298 229.333 34.5661 230.115C31.5454 230.65 28.5172 229.441 25.676 228.248C24.1133 227.598 22.5506 226.944 20.9879 226.288C22.6179 222.05 24.2453 217.813 25.8703 213.575C23.2587 217.574 20.2214 221.257 16.8157 224.553C11.2155 222.213 5.61023 219.873 0 217.534C13.8025 217.588 11.4473 203.705 14.5352 189.775C16.2325 182.12 30.6855 176.937 33.5193 169.655C35.0505 165.705 37.6419 162.292 40.9866 159.82C44.3313 157.349 48.2894 155.922 52.3924 155.708C56.4954 155.495 60.5715 156.504 64.1384 158.616C67.7053 160.727 70.6137 163.854 72.5192 167.625C75.353 168.795 75.4352 173.366 73.4239 175.806Z" fill="#2F2E41"/>
<path d="M127.215 173.976C128.351 174.369 129.289 175.213 129.824 176.322C130.359 177.432 130.447 178.716 130.068 179.893L119.443 212.884C119.255 213.467 118.959 214.005 118.57 214.469C118.182 214.933 117.709 215.313 117.179 215.587C116.649 215.862 116.072 216.025 115.48 216.069C114.889 216.112 114.295 216.034 113.733 215.84C112.598 215.447 111.659 214.603 111.124 213.494C110.59 212.384 110.502 211.1 110.881 209.924L121.506 176.932C121.885 175.756 122.699 174.783 123.77 174.229C124.841 173.675 126.08 173.584 127.215 173.976Z" fill="white"/>
<path d="M112.777 230.308C119.424 230.308 124.812 224.725 124.812 217.838C124.812 210.951 119.424 205.368 112.777 205.368C106.13 205.368 100.742 210.951 100.742 217.838C100.742 224.725 106.13 230.308 112.777 230.308Z" fill="white"/>
<path d="M112.777 220.956C114.439 220.956 115.786 219.56 115.786 217.838C115.786 216.116 114.439 214.721 112.777 214.721C111.115 214.721 109.768 216.116 109.768 217.838C109.768 219.56 111.115 220.956 112.777 220.956Z" fill="#6C63FF"/>
<path d="M286.64 519.563C287.286 521.186 287.995 522.81 288.677 524.44L288.361 524.462C288.255 524.462 288.157 524.476 288.052 524.484C283.086 524.804 278.075 524.974 273.02 524.993C272.788 525 272.563 525 272.332 525C272.332 524.986 272.339 524.978 272.339 524.964C272.858 524.988 273.372 524.846 273.811 524.558C274.25 524.27 274.594 523.849 274.794 523.352C274.995 522.855 275.044 522.306 274.934 521.779C274.824 521.253 274.56 520.774 274.179 520.408C274.109 520.138 274.067 519.949 274.003 519.687C274.024 519.628 274.047 519.569 274.074 519.513C274.597 518.231 275.474 517.139 276.595 516.373C277.716 515.607 279.03 515.201 280.373 515.207C281.716 515.212 283.027 515.629 284.142 516.404C285.257 517.179 286.126 518.278 286.64 519.563Z" fill="#6ADA4E"/>
<path d="M332.971 495.793C332.964 495.851 332.957 495.902 332.95 495.96C332.06 496.333 331.194 496.766 330.358 497.256C329.873 497.532 329.403 497.831 328.946 498.144C328.369 498.543 327.923 499.114 327.664 499.781C327.406 500.448 327.348 501.181 327.499 501.883C327.649 502.585 328 503.223 328.507 503.714C329.013 504.205 329.651 504.527 330.337 504.636L330.407 504.65C330.457 504.658 330.499 504.665 330.548 504.672C327.895 511.308 323.327 516.932 317.469 520.771C317.188 520.83 316.914 520.881 316.633 520.932C315.214 521.201 313.802 521.448 312.383 521.674C307.452 522.504 302.472 523.173 297.443 523.683C298.45 518.404 298.959 513.037 298.96 507.656C298.964 504.643 298.802 501.633 298.476 498.639C298.209 496.186 297.843 493.74 297.366 491.324C297.127 490.101 296.86 488.881 296.565 487.663C294.99 481.189 292.689 474.929 289.709 469.009C287.29 464.199 284.423 459.645 281.147 455.414C277.24 453.207 274.082 449.81 272.1 445.683C271.378 444.2 270.869 442.616 270.59 440.981C271.025 441.046 271.475 441.083 271.917 441.112C272.051 441.119 272.198 441.127 272.339 441.134H272.388C272.872 441.157 273.353 441.035 273.772 440.781C274.19 440.528 274.529 440.154 274.748 439.706C274.966 439.257 275.055 438.753 275.002 438.253C274.95 437.753 274.759 437.28 274.453 436.891C274.263 436.65 274.074 436.403 273.884 436.163C273.596 435.792 273.294 435.42 273.006 435.049C272.974 435.015 272.943 434.978 272.915 434.94C272.585 434.511 272.247 434.089 271.917 433.666C272.521 432.689 273.336 431.872 274.298 431.279C277.628 429.256 282.222 430.653 284.631 433.776C287.04 436.898 287.497 441.279 286.661 445.173C285.837 448.493 284.473 451.643 282.629 454.489C282.812 454.729 282.994 454.955 283.177 455.195C286.235 459.268 288.927 463.621 291.22 468.201C291.409 468.565 291.592 468.929 291.767 469.3C291.18 463.72 291.881 458.075 293.811 452.83C295.764 447.946 299.431 443.827 302.655 439.605C306.532 434.533 314.484 436.745 315.165 443.179C315.172 443.237 315.179 443.303 315.186 443.361C314.708 443.645 314.238 443.943 313.781 444.256C313.204 444.655 312.757 445.225 312.498 445.892C312.239 446.559 312.18 447.291 312.33 447.993C312.48 448.694 312.83 449.333 313.336 449.825C313.842 450.317 314.479 450.638 315.165 450.748L315.235 450.763C314.672 456.686 312.687 462.369 309.463 467.294C306.24 472.22 301.878 476.232 296.776 478.966C296.488 479.119 296.214 479.271 295.933 479.41C296.815 481.979 297.572 484.593 298.202 487.241C298.511 488.478 298.778 489.723 299.023 490.975C299.711 494.436 300.19 497.939 300.456 501.463C300.782 505.899 300.763 510.356 300.4 514.789L300.421 514.636C301.347 509.705 303.885 505.256 307.607 502.038C313.142 497.329 320.953 495.596 326.923 491.812C327.557 491.39 328.294 491.164 329.047 491.162C329.801 491.16 330.539 491.382 331.175 491.8C331.811 492.219 332.318 492.817 332.636 493.525C332.954 494.232 333.071 495.019 332.971 495.793Z" fill="#279D13"/>
</g>
<defs>
<clipPath id="clip0_789_1055">
<rect width="511" height="525" fill="white"/>
</clipPath>
</defs>
</svg>
