<svg width="701" height="515" fill="none" xmlns="http://www.w3.org/2000/svg"><g clip-path="url(#a)"><path d="M138.887 416.782c-.378-1.157-3.247-.648-3.522-1.683-.275-1.032 2.478-1.897 4.589-4.804.381-.524 2.78-3.828 1.86-5.218-1.744-2.634-13.879 3.926-16.792.245-.64-.808-.903-2.195-2.807-4.777-.758-1.026-1.244-1.522-1.824-1.508-.824.021-1.119 1.052-2.414 2.918-1.943 2.799-2.644 2.448-3.923 4.741-.95 1.702-1.062 2.79-1.747 2.854-.97.091-1.37-2.029-2.555-2.111-1.208-.084-2.418 2.011-3.017 3.647-1.125 3.071-.428 5.418-.274 7.757.168 2.542-.226 6.263-2.99 11.039l-26.065 41.507c5.598-8.462 21.488-31.535 27.89-39.999 1.848-2.443 3.834-4.896 6.891-5.358 2.943-.444 6.524 1.011 11.522.926.584-.01 2.208-.058 2.603-.918.327-.712-.484-1.33-.189-1.999.396-.897 2.176-.512 4.603-1.108 1.711-.42 2.874-1.114 3.874-1.711.301-.18 4.791-2.899 4.287-4.44z" fill="#F2F2F2"/><path d="M70.618 426.473c-.677-.148-1.254 1.406-1.842 1.242-.586-.163-.217-1.763-1.035-3.637-.148-.338-1.078-2.468-2.026-2.418-1.797.096-2.077 7.941-4.725 8.308-.581.081-1.338-.191-3.155-.001-.723.075-1.107.171-1.267.46-.228.41.193.852.736 2.026.814 1.76.44 2.002 1.196 3.292.562.957 1.064 1.326.898 1.681-.235.501-1.392.086-1.774.643-.39.569.29 1.767.92 2.533 1.184 1.438 2.537 1.773 3.73 2.372 1.297.652 3.01 1.919 4.559 4.652l12.861 24.762c-2.54-5.187-9.285-19.639-11.594-25.222-.667-1.611-1.298-3.293-.643-4.926.63-1.572 2.379-2.909 3.78-5.385.163-.289.608-1.1.3-1.542-.256-.366-.794-.146-1.037-.484-.326-.453.376-1.216.784-2.578.287-.961.282-1.731.277-2.394 0-.2-.04-3.187-.942-3.384zM83.45 432.515l.404-3.731.248-.234c1.147-1.084 1.865-2.232 2.134-3.413.043-.188.076-.378.11-.572.134-.767.301-1.72 1.039-2.711.413-.551 1.505-1.799 2.632-1.363.304.114.509.311.652.52l.111-.112a4.099 4.099 0 0 1 1.155-.812c.252-.129.512-.261.953-.613.193-.154.347-.293.478-.41.395-.352.9-.765 1.593-.602.734.201.986.901 1.153 1.364.299.827.39 1.395.451 1.772.022.138.047.293.067.343.16.405 2.178.51 2.937.553 1.706.093 3.182.173 3.537 1.341.255.835-.276 1.746-1.624 2.78a6.122 6.122 0 0 1-1.204.709c.224.212.404.501.414.895.025.931-.93 1.646-2.84 2.128-.475.121-1.114.281-1.95.241a7.244 7.244 0 0 1-1.031-.136 1.227 1.227 0 0 1-.27.506c-.424.487-1.11.61-2.043.336-1.028-.286-1.841-.676-2.558-1.018-.627-.299-1.167-.554-1.62-.624-.844-.117-1.63.403-2.57 1.095l-2.358 1.768zM90.178 411.266l-3.713.556-.29-.18c-1.34-.835-2.632-1.237-3.844-1.198-.193.006-.385.023-.581.039-.776.065-1.742.145-2.887-.317-.639-.259-2.123-.999-1.987-2.198.033-.323.172-.572.338-.762l-.137-.08a4.105 4.105 0 0 1-1.079-.911c-.188-.211-.382-.429-.834-.765-.199-.148-.372-.262-.518-.359-.442-.292-.97-.676-.987-1.387.008-.761.621-1.182 1.027-1.461a8.958 8.958 0 0 1 1.6-.885c.129-.056.272-.12.316-.152.351-.258-.06-2.234-.21-2.979-.343-1.673-.64-3.121.4-3.76.744-.458 1.76-.176 3.102.864.418.324.74.674.992.985.149-.271.383-.518.761-.628.896-.26 1.83.483 2.78 2.207.238.428.555 1.005.728 1.823.081.385.11.734.13 1.032.174 0 .362.033.559.132.578.287.872.92.843 1.89-.016 1.067-.187 1.952-.337 2.732-.13.682-.24 1.269-.192 1.725.1.845.803 1.473 1.712 2.207l2.308 1.83zM90.678 400.122l.405-3.73.248-.235c1.147-1.084 1.864-2.232 2.134-3.413.043-.188.076-.378.11-.571.134-.768.3-1.721 1.038-2.711.413-.552 1.506-1.799 2.632-1.364.304.114.51.311.652.52l.112-.112c.486-.472.827-.645 1.155-.812.252-.128.512-.26.952-.612.193-.155.348-.294.478-.41.396-.353.901-.766 1.594-.603.734.201.986.901 1.153 1.364.298.827.39 1.395.451 1.772.022.138.047.293.066.343.161.405 2.178.51 2.937.554 1.706.092 3.182.172 3.537 1.34.255.835-.276 1.746-1.623 2.78-.42.321-.839.543-1.205.709.225.212.404.501.415.895.025.932-.931 1.646-2.841 2.128-.475.121-1.113.282-1.949.241a7.114 7.114 0 0 1-1.032-.136 1.213 1.213 0 0 1-.269.507c-.425.486-1.111.61-2.043.335-1.029-.286-1.842-.676-2.559-1.018-.627-.299-1.167-.554-1.62-.623-.843-.118-1.63.402-2.57 1.094l-2.358 1.768z" fill="#F2F2F2"/><path d="m78.639 471.601-.657-.648.012-.921-.012.921-.912-.096c.004-.086-.002-.287-.008-.6-.035-1.716-.144-6.939.583-14.964a150.141 150.141 0 0 1 2.524-16.905c1.168-5.624 2.38-9.809 3.355-13.173a424.666 424.666 0 0 1 2.201-7.287c1.933-6.263 3.758-12.178 4.888-18.926.253-1.506.778-4.641-.297-8.342-.624-2.146-1.692-4.166-3.177-6.003l1.437-1.159c1.637 2.029 2.819 4.267 3.512 6.65 1.192 4.103.62 7.519.345 9.161-1.15 6.866-2.994 12.838-4.945 19.161-.72 2.335-1.46 4.731-2.192 7.258-.965 3.332-2.167 7.481-3.32 13.033a148.31 148.31 0 0 0-2.494 16.698c-.718 7.924-.61 13.069-.575 14.759.018.903.022 1.092-.268 1.383z" fill="#F2F2F2"/><path d="M83.2 386.781a3.75 3.75 0 0 1-.223-.057c-1.515-.425-2.73-1.659-3.613-3.667-.413-.945-.51-1.938-.705-3.921-.03-.305-.165-1.852 0-3.902.108-1.339.252-1.877.617-2.299.405-.471.95-.74 1.527-.876.016-.177.074-.35.189-.515.474-.682 1.268-.401 1.699-.255.217.077.487.176.791.228.478.082.764-.002 1.196-.127.414-.12.928-.269 1.638-.256 1.403.019 2.44.649 2.783.856 1.802 1.083 2.425 2.81 3.145 4.81.143.401.618 1.85.729 3.715.08 1.346-.097 1.897-.3 2.291-.413.81-1.046 1.186-2.616 1.976-1.641.828-2.465 1.242-3.14 1.455-1.57.493-2.557.802-3.718.544z" fill="#F2F2F2"/><path d="M291.613 273.428c4.899-4.136 3.598-13.725-2.905-21.419-2.847-3.368-6.218-5.814-9.521-7.153l-3.795-4.378-49.014-61.381s-27.142-61.062-35.155-67.658c-8.012-6.597-17.439-3.162-17.439-3.162l-7.356 9.095 45.835 85.256 46.908 47.183 6.333 6.599c.769 3.478 2.618 7.209 5.465 10.577 6.503 7.694 15.746 10.578 20.644 6.441z" fill="#FFB6B6"/><path d="m199.093 122.792 12.283 18.004 17.633 26.084-31.684 10.955-27.974-47.977 29.742-7.066z" fill="#E6E6E6"/><path d="M701 469.942H0v2.136h701v-2.136z" fill="#3F3D56"/><path d="M496.271 321.465h-55.889v-18.968c0-30.512 24.785-55.284 55.313-55.284h.576v74.252z" fill="#2F2E41"/><path d="m452.837 311.532 9.263-30.303 23.764-1.189 10.407 41.425-43.434-9.933z" fill="#A0616A"/><path opacity=".4" d="m452.837 311.532 9.263-30.303 23.764-1.189 10.407 41.425-43.434-9.933z" fill="#E5949F"/><path d="M474.46 298.985c15.433 0 27.945-12.504 27.945-27.93 0-15.425-12.512-27.93-27.945-27.93s-27.944 12.505-27.944 27.93c0 15.426 12.511 27.93 27.944 27.93z" fill="#E6949F"/><path d="m415.232 427.168-7.396 7.393s-39.521-26.495-54.679-16.614c-15.157 9.881-15.817 29.015 2.006 39.571 17.823 10.556 63.37 36.287 63.37 36.287s60.73 10.556 101.657-21.772c40.926-32.329 48.518-30.679 41.256-47.833-7.261-17.154-23.103-13.196-23.103-13.196l-30.365 17.814-12.542-2.639-80.204.989z" fill="#2F2E41"/><path d="m416.883 435.416 31.685 13.855-11.882 28.37-46.868-11.216M497.871 435.416l-42.702 19.793 16.503 34.308 47.528-20.453" fill="#2F2E41"/><path d="m455.169 306.046-41.257 18.199 13.202 72.574-11.881 30.35 63.37 9.896 32.496-10.078-2.791-14.333 2.791-53.494 11.071-31.617-29.705-20.452-37.296-1.045z" fill="#E6E6E6"/><path d="m444.607 451.91 20.464 5.938-9.902 24.248-27.064-10.393 16.502-19.793z" fill="#E6949F"/><path d="m473.046 451.91-25.138 12.536v19.146l28.384-3.312-3.246-28.37z" fill="#E6949F"/><path d="M436.686 488.197s43.567 29.03 60.07 17.154c16.503-11.876 25.744-27.05 22.444-29.03-3.301-1.979-13.203-5.278-13.203-5.278l-55.449 11.216-13.862 5.938z" fill="#2F2E41"/><path d="M381.237 466.425s-22.444 34.308-1.32 39.586c21.123 5.278 74.355-16.494 74.355-16.494l-3.724-28.371-9.901 9.897-59.41-4.618z" fill="#2F2E41"/><path d="M521.116 228.954c-6.175-5.704-8.235-13.513-4.602-17.44 3.633-3.926 11.582-2.485 17.758 3.223a21.029 21.029 0 0 1 5.611 8.199l25.856 24.501-11.762 11.882-24.241-25.415a21.031 21.031 0 0 1-8.62-4.95z" fill="#A0616A"/><path d="m514.083 304.927 46.786-22.821-24.202-41.604 7.576-15.384s58.901 32.816 53.039 56.695c-5.861 23.879-64.283 67.747-82.942 60.734-5.664-2.129-8.945-5.929-10.769-10.189-4.452-10.401.339-22.469 10.512-27.431z" fill="#E6E6E6"/><path d="M420.962 293.651c1.421-4.32 4.227-8.102 5.483-12.472 1.667-5.804 5.215 7.071 5.562 1.043.658-11.457 18.153-40.929 28.141-46.59 9.987-5.661 15.724-3.954 25.899 1.363 0 0 4.939.313 11.089 3.348 6.149 3.034 11.684 7.894 14.076 14.318 1.895 5.091 1.686 10.683 2.319 16.079 1.765 15.033 10.196 29.33 8.386 44.357-.565 4.688-2.347 9.537-6.183 12.294-3.835 2.758-10.032 2.458-12.556-1.534-.862-1.362-1.226-2.978-1.964-4.41-.739-1.433-2.073-2.768-3.684-2.724-2.423.067-3.656 3.316-2.701 5.542.956 2.226 3.201 3.57 5.308 4.766-5.019 2.257-11.246 1.554-15.636-1.765-4.39-3.32-6.76-9.117-5.952-14.559 1.138-7.669 12.315-6.082 13.632-13.722.959-5.561 4.325-14.868 3.408-20.436-.917-5.569-5.32 1.174-.682-2.044-5.103 2.459-16.02-14.363-21.363-16.248-5.342-1.884-9.872-5.964-12.302-11.08-5.667 8.211-10.652 5.981-12.681 15.747-2.03 9.767 1.34 39.891 9.697 45.344-3.345 2.28-7.504-2.395-9.073 1.335-.889 2.113-1.465 4.425-2.941 6.181-2.818 3.352-8.021 3.556-12.168 2.146-5.143-1.748-9.54-5.586-11.964-10.444-2.425-4.858-2.847-10.678-1.15-15.835z" fill="#2F2E41"/><path d="M349.481 287.105c-1.511-8.267-7.003-14.19-12.267-13.228-5.264.961-8.305 8.442-6.793 16.712a21.016 21.016 0 0 0 3.919 9.128l6.842 34.949 16.341-3.559-8.48-34.075a21.03 21.03 0 0 0 .438-9.927z" fill="#A0616A"/><path d="m417.427 321.88-44.349 27.254-22.175-42.718-17.056-1.85s-3.841 67.289 19.472 75.139c23.312 7.849 91.675-17.945 95.749-37.448 1.237-5.921-.215-10.726-2.836-14.548-6.401-9.331-19.163-11.754-28.805-5.829z" fill="#E6E6E6"/><path d="M659.379 372.762 500.52 422.946v-193.33l158.859-50.184v193.33z" fill="#fff"/><path d="M499.451 424.405V228.834l160.996-50.859v195.57l-160.996 50.86zm2.137-194.007v191.09L658.31 371.98V180.89l-156.722 49.508z" fill="#3F3D56"/><path d="m270.355 415.65 127.401 40.246V300.85l-127.401-40.246V415.65z" fill="#fff"/><path d="m398.825 457.353-1.391-.44-128.147-40.481V259.146l1.391.44 128.147 40.481v157.286zm-127.401-42.486 125.264 39.57V301.632l-125.264-39.57v152.805z" fill="#3F3D56"/><path d="M539.13 241.564c-1.815 9.459 1.497 19.744 8.492 26.368 6.995 6.624 17.449 9.376 26.801 7.055 8.879-2.204 17.183-11.587 13.426-19.925-2.678-5.944-10.846-8.193-16.708-5.335-5.862 2.859-9.122 9.73-8.784 16.24.339 6.51 3.805 12.563 8.429 17.16 12.062 11.992 31.382 15.102 42.013 28.377 9.284 11.593 8.999 29.788-.645 41.084-9.643 11.296-27.575 14.442-40.491 7.103-5.323-3.025-9.903-7.878-11.226-13.854-1.322-5.975 1.342-12.984 6.937-15.473 10.55-4.694 21.173 7.914 32.72 8.098 6.614.106 13.037-4.466 15.1-10.747 2.062-6.282-.401-13.769-5.791-17.601M315.569 376.834c2.042 5.992-2.19 13.298-8.406 14.511-6.215 1.213-12.886-3.965-13.249-10.284-.363-6.319 5.671-12.226 11.984-11.732 10.172.795 16.178 14.71 26.36 14.06 6.967-.445 11.367-7.567 13.939-14.054a113.652 113.652 0 0 0 6.448-23.177c1.103-6.61 1.609-13.455.018-19.965-1.59-6.51-5.53-12.692-11.505-15.733-9.075-4.62-21.498-.113-25.831 9.099-4.334 9.212-.159 21.383 8.738 26.337 11.127 6.196 26.452 1.734 36.561 9.478 8.101 6.207 9.494 17.653 10.234 27.829.471 6.49.937 13.081-.393 19.451-1.329 6.37-4.715 12.605-10.33 15.898-4.254 2.494-9.932 2.988-14.025.24-4.093-2.749-5.63-9.109-2.447-12.873 2.606-3.082 7.349-3.573 11.162-2.25 3.813 1.324 6.917 4.097 9.911 6.804" fill="#302D62"/><path d="m211.564 61.516-8.896 33.898-33.916-6.668s13.344-24.451 10.008-35.565l32.804 8.335zM175.762 502.765l20.423-.002 9.716-78.738-30.143.002.004 78.738z" fill="#FFB6B6"/><path d="M245.736 502.302c.636 1.07.971 4.525.971 5.77a6.93 6.93 0 0 1-6.932 6.928h-63.249a4.727 4.727 0 0 1-4.729-4.726v-2.632s-3.129-7.911 3.313-17.661c0 0 8.006 7.635 19.969-4.323l3.528-6.387 25.538 18.667 14.155 1.741c3.097.381 5.842-.059 7.435 2.623h.001zM232.471 274.897l-28.143 191.411h-35.309l4.695-109.262 2.471-57.451-7.166-27.346s-3.268-6.079-6.02-13.447c-3.103-8.315-5.553-18.284-1.915-23.011 1.338-1.742 4.818-3.032 9.548-3.992 2.89-.59 6.253-1.05 9.884-1.407 20.881-2.065 50.582-.775 50.582-.775l.755 24.904.419 13.906.199 6.47z" fill="#2F2E41"/><path d="m139.785 493.403 20.207 2.968 21.071-76.488-29.823-4.38-11.455 77.9z" fill="#FFB6B6"/><path d="M209.082 503.118c.473 1.152.303 4.619.121 5.85a6.93 6.93 0 0 1-7.866 5.847l-62.577-9.195a4.727 4.727 0 0 1-3.991-5.364l.383-2.604s-1.944-8.281 5.848-16.991c0 0 6.81 8.717 20.387-1.374l4.42-5.807 22.549 22.182 13.751 3.781c3.009.827 5.789.791 6.975 3.675zM232.914 242.975l-3.86 33.226-21.051 70.016-34.653 115.27-34.93-5.131 31.349-163.897-3.104-28.104s-1.011-2.793-2.17-6.883c-2.3-8.091-5.185-21.267-2.011-27.988.429-.914.967-1.707 1.632-2.349 1.249-1.21 3.786-1.944 7.185-2.334 14.207-1.605 43.467 2.985 56.487 5.239l5.126 12.935z" fill="#2F2E41"/><path d="m206.004 85.412 38.363 48.346-6.886 50.405-5.901 51.289-69.499-10.558s15.011-36.121 16.679-37.788c1.668-1.667 5.858 2.45 2.929-2.943-2.929-5.393-6.265-5.393-3.485-8.171 2.78-2.779-21.683-38.9-21.683-58.349 0-19.45 11.676-35.01 11.676-35.01l37.807 2.779z" fill="#E6E6E6"/><path d="M197.053 67.918c14.273 0 25.844-11.565 25.844-25.83 0-14.266-11.571-25.83-25.844-25.83-14.273 0-25.843 11.564-25.843 25.83 0 14.265 11.57 25.83 25.843 25.83z" fill="#FFB6B6"/><path d="M195.845 91.474s3.868-30.583 4.552-39.477c.685-8.894 13.245-22.78 13.245-22.78l8.899 7.184s7.529 0 2.395-10.946c-5.133-10.947-14.716-12.657-14.716-12.657S209.193-1.569 191.396.141c-17.797 1.71-25.668 16.078-25.668 16.078s-1.027-18.13-12.321-4.79c-11.294 13.341-17.797 18.815-5.818 23.262 11.978 4.447 20.877 1.026 20.877 1.026s-11.637 2.394-9.583 10.604c2.053 8.21-27.038 45.495-13.69 49.6 13.348 4.105 43.123 14.025 46.545 7.526 3.423-6.5 4.107-11.973 4.107-11.973z" fill="#2F2E41"/><path d="M302.378 275.99c4.933-4.095 3.713-13.695-2.726-21.443-2.818-3.392-6.169-5.866-9.46-7.233l-3.759-4.41-48.497-61.789s-26.629-61.286-34.586-67.95c-7.957-6.664-17.413-3.308-17.413-3.308l-7.431 9.033 45.118 85.637 46.511 47.575 6.277 6.651c.74 3.485 2.558 7.231 5.376 10.623 6.439 7.748 15.657 10.709 20.59 6.614z" fill="#FFB6B6"/><path d="M175.691 105.106s11.872 61.578 25.382 70.656l26.921-20.981s2.356-.101-2.029-5.052c-4.384-4.95-3.262-15.58-3.262-15.58s1.973 2.551-2.32-.991c-4.293-3.541-.296-27.9-.296-27.9l-44.396-.152z" fill="#E6E6E6"/></g><defs><clipPath id="a"><path fill="#fff" d="M0 0h701v515H0z"/></clipPath></defs></svg>