<svg width="427" height="471" fill="none" xmlns="http://www.w3.org/2000/svg"><g clip-path="url(#a)"><path d="M236.875 446.943c23.682-14.518 41.341-41.29 38.628-68.914a128.077 128.077 0 0 1-80.015 36.331c-11.622.844-24.636.573-33.091 8.584-5.261 4.984-7.641 12.414-7.95 19.65-.309 7.237 1.239 14.41 2.777 21.489l-.473 1.745c27.784-.271 56.443-4.368 80.124-18.885z" fill="#279D13"/><path d="M274.92 378.007a109.339 109.339 0 0 1-44.803 50.197 47.15 47.15 0 0 1-13.653 5.613c-4.729.961-9.63.64-14.192-.931-4.284-1.379-8.506-3.285-13.051-3.6a16.552 16.552 0 0 0-12.632 4.849c-4.205 4.01-6.717 9.29-8.994 14.539-2.528 5.828-5.062 11.921-10.003 16.154-.598.513.233 1.411.831.899 8.596-7.365 9.851-19.521 16.686-28.151 3.189-4.026 7.612-7.117 12.917-7.109 4.638.007 8.993 1.969 13.319 3.403a28.864 28.864 0 0 0 13.843 1.426 43.567 43.567 0 0 0 13.819-5.067 106.152 106.152 0 0 0 26.159-20.387 111.267 111.267 0 0 0 20.926-31.477c.317-.719-.857-1.071-1.172-.358z" fill="#fff"/><path d="M236.727 424.841a16.422 16.422 0 0 0 20.826 4.254c.689-.381.129-1.469-.562-1.087a15.209 15.209 0 0 1-19.364-3.997c-.483-.622-1.38.211-.9.83zM204.351 433.871a31.604 31.604 0 0 1 10.742-20.384c.597-.515-.234-1.413-.83-.899a32.864 32.864 0 0 0-11.135 21.234c-.086.784 1.138.829 1.223.049zM262.361 400.064a9.274 9.274 0 0 1-3.238-8.193c.096-.783-1.128-.827-1.223-.049a10.4 10.4 0 0 0 3.561 9.072.634.634 0 0 0 .865.034.613.613 0 0 0 .035-.864z" fill="#fff"/><path d="M197.5 325.494c-.074.487-.147.974-.23 1.466a122.051 122.051 0 0 1-4.646 19.28c-.152.489-.313.983-.479 1.466a128.858 128.858 0 0 1-23.321 41.338 125.19 125.19 0 0 1-13.324 13.582c-6.601 5.777-14.219 11.515-18.401 18.916a21.51 21.51 0 0 0-1.189 2.377l18.747 41.197c.089.072.17.149.26.222l.673 1.679c.261-.198.528-.41.79-.609.152-.114.3-.238.453-.352.1-.08.2-.159.295-.225.033-.026.066-.053.09-.075.095-.066.177-.137.262-.199a413.534 413.534 0 0 0 4.471-3.572c.009-.005.009-.005.014-.018 11.289-9.199 21.908-19.419 30.636-30.925.263-.347.535-.697.789-1.062a119.458 119.458 0 0 0 10.384-16.5 105.69 105.69 0 0 0 4.416-9.729 87.719 87.719 0 0 0 5.896-26.813c1.086-18.322-3.706-36.787-15.662-50.412a63.214 63.214 0 0 0-.924-1.032z" fill="#279D13"/><path d="M197.019 325.825a109.208 109.208 0 0 1-5.521 67.027 47.05 47.05 0 0 1-7.519 12.693 27.02 27.02 0 0 1-11.893 7.793c-4.251 1.476-8.771 2.493-12.589 4.975a16.557 16.557 0 0 0-4.81 4.97 16.539 16.539 0 0 0-2.354 6.5c-.941 5.731.236 11.458 1.581 17.018 1.494 6.174 3.143 12.563 1.749 18.915-.169.769 1.037.986 1.205.218 2.425-11.051-3.899-21.512-3.643-32.513.12-5.134 1.789-10.262 6.029-13.446 3.708-2.784 8.368-3.837 12.686-5.294a28.845 28.845 0 0 0 11.912-7.187 43.506 43.506 0 0 0 7.98-12.357 105.975 105.975 0 0 0 8.599-32.013c1.405-12.61.64-25.366-2.262-37.719-.18-.764-1.329-.34-1.15.42z" fill="#fff"/><path d="M194.749 386.191c3.763 1 7.759.63 11.275-1.042a16.41 16.41 0 0 0 7.918-8.087c.32-.719-.783-1.25-1.104-.53a15.21 15.21 0 0 1-17.871 8.455c-.76-.206-.974.999-.218 1.204zM174.341 412.873a31.58 31.58 0 0 1-3.708-22.736c.166-.77-1.039-.987-1.205-.218a32.847 32.847 0 0 0 3.906 23.651c.405.678 1.409-.023 1.007-.697zM200.284 350.99a9.292 9.292 0 0 1-7.523-4.595c-.395-.682-1.399.019-1.006.697a10.426 10.426 0 0 0 8.31 5.102.635.635 0 0 0 .712-.493.616.616 0 0 0-.493-.711z" fill="#fff"/><path d="M83.43 458.954H95.32l5.658-45.823-17.551.001.001 45.822z" fill="#FFB6B6"/><path d="M80.396 455.076h3.347l13.068-5.309 7.004 5.308h.001a14.93 14.93 0 0 1 10.553 4.367 14.902 14.902 0 0 1 4.372 10.543v.484l-38.344.001-.001-15.394z" fill="#2F2E41"/><path d="M138.677 458.954h11.892l5.657-45.823-17.551.001.002 45.822z" fill="#FFB6B6"/><path d="M135.644 455.076h3.347l13.068-5.309 7.004 5.308h.001c3.958 0 7.754 1.571 10.553 4.367a14.906 14.906 0 0 1 4.372 10.543v.484l-38.345.001v-15.394z" fill="#2F2E41"/><path d="m73.964 165.578 15.721 48.293 49.56-1.624-15.228-46.669H73.964z" fill="#E6E6E6"/><path d="m148.183 208.189-93.433 2.435 1.624 45.453S54.75 268.252 58 271.498c3.25 3.247 4.875 3.247 3.25 8.929-1.625 5.681 6.96 14.961 5.918 16.003-1.043 1.041-3.48 6.723-3.48 6.723l8.124 46.264s5.687 80.354 7.312 81.977c1.625 1.623 3.25 0 1.625 4.058-1.625 4.059-3.25 2.435-1.625 4.059a59.901 59.901 0 0 1 4.063 4.869h19.643s1.481-8.116 1.481-8.928c0-.811 1.625-5.681 1.625-6.493 0-.812-1.437-2.246-1.437-2.246a26.731 26.731 0 0 1-1.001-5.059c0-1.623-4.874-64.12-4.874-64.12l9.749-81.166 23.561 79.542s0 69.802 1.625 71.426c1.625 1.623 1.625.811.813 4.058-.813 3.247-4.063 2.435-1.625 4.87 2.437 2.435 3.25-1.623 2.437 2.435l-.812 4.058 24.374.348s3.249-6.841 1.625-9.276c-1.625-2.435-1.528-1.77.455-5.755 1.982-3.985 2.794-4.797 1.982-5.608-.813-.812-.813-5.129-.813-5.129l-4.062-77.66s-.812-81.977-.812-84.412a8.077 8.077 0 0 1 .675-3.651v-3.305l-3.113-11.712-6.499-28.408z" fill="#2F2E41"/><path d="m139.652 90.094-28.436-10.552-47.123 3.247-10.911 5.086a18.87 18.87 0 0 0-8.87 8.593A18.845 18.845 0 0 0 42.66 108.7l14.12 69.864-8.936 68.99s44.279 21.509 58.091-34.495l4.874-21.103s1.625 64.932 47.936 51.134c0 0-.813-12.986-1.625-17.856-.813-4.87-2.438-4.87-3.25-7.305-.813-2.435-2.437 0-.813-4.87 1.625-4.87-12.999-38.959-12.999-38.959l-.406-84.006z" fill="#2F2E41"/><path d="M101.872 144.069 71.523 82.277l7.6-13.692h24.627l9.755 11.807-11.633 63.677z" fill="#E6E6E6"/><path d="M86.729 211.315a9.07 9.07 0 0 1-9.53-10.124l-28.991-14.095 14.414-8.532 25.32 14.693a9.11 9.11 0 0 1 4.72 15.451 9.126 9.126 0 0 1-5.933 2.607z" fill="#FFB8B8"/><path d="M27.187 176.891c-1.383-1.687-2.991-13.443.04-16.202 2.557-2.326 1.999-3.408.373-5.844-1.411-2.115 9.424-41.169 15.653-59.316a10.084 10.084 0 0 1 4.8-5.623 10.1 10.1 0 0 1 13.299 3.552 10.074 10.074 0 0 1 1.352 7.266c2.198 23.233-.928 39.078-9.837 49.809l27.524 36.428-5.05 18.502s-46.894-27.035-48.154-28.572z" fill="#2F2E41"/><path d="M91.717 60.063c13.91 0 25.186-11.265 25.186-25.162 0-13.896-11.276-25.16-25.186-25.16S66.53 21.004 66.53 34.9c0 13.897 11.277 25.162 25.187 25.162z" fill="#FFB8B8"/><path d="M118.388 16.648c-.669-6.018-9.37-12.035-24.764-16.047C78.231-3.41 70.2 13.974 70.2 13.974c-10.709 5.349-4.35 33.765-1.004 31.09 3.347-2.674 6.358 1.672 6.358 1.672l2.477-22.265c3.525 2.699 7.498 4.984 11.763 4.305l-5.22-5.135 14.842 6.452-4.913-6.754.508-.02a23.544 23.544 0 0 0 7.511 4.196c3.246.93 7.136.427 9.36-2.112a6.892 6.892 0 0 0 1.33-2.392c4.039 2.764 4.843 8.681 4.843 8.681s1.003-9.026.334-15.044z" fill="#2F2E41"/><path d="M96.36 197.171c24.069 0 43.582-19.493 43.582-43.539 0-24.045-19.513-43.538-43.582-43.538-24.07 0-43.582 19.493-43.582 43.538 0 24.046 19.512 43.539 43.582 43.539z" fill="#F40638"/><path d="M104.244 183.102a9.073 9.073 0 0 1 10.444-3.626 9.092 9.092 0 0 1 3.374 2.016l28.609-14.85-1.736 16.647-26.901 11.55a9.127 9.127 0 0 1-12.114.251 9.109 9.109 0 0 1-1.676-11.988z" fill="#FFB8B8"/><path d="m121.905 194.1-5.051-18.502 25.087-24.253c-8.909-10.731-12.036-26.576-9.837-49.81a10.07 10.07 0 0 1 1.351-7.266 10.09 10.09 0 0 1 5.949-4.394 10.102 10.102 0 0 1 7.351.842c2.255 1.2 3.97 3.21 4.8 5.624 6.228 18.147 13.3 40.486 11.615 43.851-.224.448-.427.848-.61 1.207-1.509 2.963-1.509 2.963-.04 4.87.183.238.387.503.612.803.569.757 1.182 1.47 1.774 2.158 1.909 2.217 3.713 4.312 2.301 6.427-1.625 2.436-2.183 3.517.373 5.844 3.032 2.758 1.424 14.515.041 16.202-1.26 1.537-37.964 13.816-45.309 16.261l-.407.136z" fill="#2F2E41"/><path d="M240.806 471H.746a.747.747 0 1 1 0-1.492h240.06a.745.745 0 1 1 0 1.492z" fill="#CCC"/><path d="M420.094 72.096h-87.788a6.918 6.918 0 0 1-4.881-2.023 6.902 6.902 0 0 1-2.025-4.876v-43.65a6.902 6.902 0 0 1 2.025-4.877 6.917 6.917 0 0 1 4.881-2.023h87.788a6.917 6.917 0 0 1 4.881 2.023A6.902 6.902 0 0 1 427 21.547v43.65a6.902 6.902 0 0 1-2.025 4.876 6.918 6.918 0 0 1-4.881 2.023zM405.672 94.96h-59.138a6.565 6.565 0 0 1-4.635-1.921 6.55 6.55 0 0 1 0-9.265 6.565 6.565 0 0 1 4.635-1.922h59.138a6.566 6.566 0 0 1 6.068 4.044 6.552 6.552 0 0 1-6.068 9.065zM420.094 197.378h-87.788a6.915 6.915 0 0 1-4.881-2.023 6.901 6.901 0 0 1-2.025-4.876v-43.65a6.901 6.901 0 0 1 2.025-4.876 6.915 6.915 0 0 1 4.881-2.023h87.788a6.915 6.915 0 0 1 4.881 2.023 6.901 6.901 0 0 1 2.025 4.876v43.65a6.901 6.901 0 0 1-2.025 4.876 6.915 6.915 0 0 1-4.881 2.023zM405.672 218.738h-59.138c-1.74 0-3.409-.69-4.64-1.92a6.55 6.55 0 0 1 0-9.269 6.564 6.564 0 0 1 4.64-1.92h59.138a6.56 6.56 0 0 1 6.561 6.555 6.56 6.56 0 0 1-6.561 6.554zM420.094 321.851h-87.788a6.92 6.92 0 0 1-4.881-2.023 6.901 6.901 0 0 1-2.025-4.876v-43.651a6.903 6.903 0 0 1 2.025-4.876 6.92 6.92 0 0 1 4.881-2.023h87.788a6.92 6.92 0 0 1 4.881 2.023 6.903 6.903 0 0 1 2.025 4.876v43.651a6.901 6.901 0 0 1-2.025 4.876 6.92 6.92 0 0 1-4.881 2.023zM405.672 343.327h-59.138a6.565 6.565 0 0 1-4.635-1.922 6.55 6.55 0 0 1 0-9.265 6.565 6.565 0 0 1 4.635-1.922h59.138a6.567 6.567 0 0 1 6.068 4.044 6.555 6.555 0 0 1-6.068 9.065z" fill="#E6E6E6"/><path d="M91.228 174.001a3.653 3.653 0 0 1-1.764-.459 3.606 3.606 0 0 1-1.896-3.201v-30.172a3.655 3.655 0 0 1 5.617-3.083l28.65 15.086a3.654 3.654 0 0 1 1.243 4.842 3.654 3.654 0 0 1-1.243 1.324l-28.65 15.086a3.64 3.64 0 0 1-1.957.577zM366.973 58.382a2.956 2.956 0 0 1-1.424-.37 2.915 2.915 0 0 1-1.53-2.584V31.065a2.948 2.948 0 0 1 3.045-2.947 2.95 2.95 0 0 1 1.489.458l23.132 12.18a2.952 2.952 0 0 1 1.369 2.49 2.95 2.95 0 0 1-1.369 2.489l-23.132 12.18a2.94 2.94 0 0 1-1.58.466zM366.76 184.189a2.958 2.958 0 0 1-1.424-.371 2.903 2.903 0 0 1-1.53-2.585v-24.36a2.94 2.94 0 0 1 1.53-2.585 2.95 2.95 0 0 1 3.004.096l23.132 12.18a2.95 2.95 0 0 1 1.004 3.909 2.95 2.95 0 0 1-1.004 1.069l-23.132 12.181a2.95 2.95 0 0 1-1.58.466zM366.546 309.994a2.957 2.957 0 0 1-1.424-.37 2.916 2.916 0 0 1-1.53-2.585v-24.361a2.949 2.949 0 0 1 3.045-2.947 2.955 2.955 0 0 1 1.489.458l23.132 12.181a2.942 2.942 0 0 1 1.369 2.489 2.94 2.94 0 0 1-1.369 2.489l-23.132 12.18a2.93 2.93 0 0 1-1.58.466z" fill="#fff"/></g><defs><clipPath id="a"><path fill="#fff" d="M0 0h427v471H0z"/></clipPath></defs></svg>