<svg width="630" height="419" viewBox="0 0 630 419" fill="none" xmlns="http://www.w3.org/2000/svg">
<g clip-path="url(#clip0_796_1293)">
<path d="M128.04 379.508C127.932 391.884 127.026 404.24 125.327 416.499C125.268 416.929 125.203 417.36 125.144 417.79L9.29259 417.143C8.95244 416.715 8.61765 416.282 8.29326 415.845C7.21167 414.395 6.19793 412.905 5.26735 411.363C0.794493 403.936 -1.2532 395.24 0.798808 389.241L0.835558 389.147C1.27851 387.834 1.9765 386.62 2.88946 385.577C7.568 380.309 17.0275 381.187 25.6118 385.439C17.9123 377.008 11.7814 366.369 11.3156 356.872C10.8588 347.609 15.7005 340.991 20.9518 335.368C21.1241 335.182 21.2964 335.001 21.4686 334.82C21.5522 334.727 21.6409 334.64 21.7243 334.547C25.8214 330.261 30.598 326.036 37.5118 326.547C45.0945 327.109 53.5014 333.463 59.3959 340.867C65.2905 348.266 69.2076 356.671 73.178 364.874C77.1535 373.072 81.4547 381.48 87.8341 388.487C79.1936 377.553 72.2271 365.113 69.6537 353.014C67.0802 340.915 69.345 329.295 77.0457 323.597C79.3836 321.92 82.0888 320.828 84.9351 320.412C85.2673 320.357 85.6048 320.312 85.9475 320.272C93.0762 319.461 101.588 321.928 108.829 327.823C116.805 334.315 122.334 343.939 125.085 353.075C127.836 362.21 128.129 371.006 128.04 379.508Z" fill="#F2F2F2"/>
<path d="M52.2436 417.383L50.0283 417.371C49.3249 416.931 48.6182 416.496 47.9081 416.066C47.4686 415.789 47.0239 415.522 46.579 415.249C39.2309 410.759 31.8368 406.453 24.3968 402.33C16.9635 398.203 9.49286 394.266 1.98484 390.52C1.78582 390.433 1.62345 390.279 1.52595 390.085C1.42844 389.891 1.40197 389.669 1.45112 389.458C1.45917 389.43 1.47164 389.404 1.48804 389.38C1.59277 389.183 1.82682 389.101 2.16842 389.269C3.08933 389.731 4.01555 390.193 4.93636 390.666C12.4649 394.476 19.9611 398.477 27.425 402.668C34.8837 406.858 42.3 411.232 49.6738 415.791C49.8288 415.885 49.984 415.985 50.1391 416.079C50.8423 416.514 51.5405 416.948 52.2436 417.383Z" fill="white"/>
<path d="M80.8071 417.543L79.4372 417.535C79.1283 417.103 78.8246 416.67 78.5157 416.238C71.2566 406.054 63.999 395.87 56.743 385.687C44.8604 369.014 32.9814 352.342 21.1059 335.67C21.0355 335.58 20.9831 335.478 20.9518 335.368C20.8502 334.999 21.1212 334.782 21.4686 334.821C21.6151 334.842 21.7554 334.894 21.8802 334.973C22.005 335.053 22.1115 335.158 22.1924 335.282C28.8545 344.631 35.5148 353.978 42.1735 363.32C53.9942 379.909 65.8133 396.496 77.6306 413.082C78.3823 414.134 79.1339 415.192 79.8856 416.245C80.1945 416.678 80.5035 417.11 80.8071 417.543Z" fill="white"/>
<path d="M111.325 409.584C111.255 411.894 111.103 414.167 110.903 416.418C110.864 416.849 110.826 417.28 110.787 417.71L109.35 417.702C109.394 417.272 109.437 416.841 109.476 416.41C109.78 413.157 109.995 409.868 110.025 406.488C110.063 397.12 109.15 387.772 107.301 378.588C105.335 368.699 102.512 359 98.8647 349.601C95.0364 339.688 90.4208 330.098 85.0621 320.922C84.9611 320.772 84.9162 320.592 84.9352 320.412C84.9945 320.003 85.5399 319.881 85.9476 320.273C86.0281 320.35 86.0975 320.437 86.1536 320.533C86.8166 321.674 87.4676 322.818 88.1064 323.965C93.2675 333.192 97.685 342.816 101.317 352.745C104.777 362.175 107.408 371.888 109.182 381.775C110.843 390.947 111.561 400.266 111.325 409.584Z" fill="white"/>
<path d="M436.057 232.179H300.541C297.716 232.263 294.953 231.341 292.745 229.577C292.574 229.446 292.463 229.253 292.434 229.04C292.406 228.827 292.463 228.611 292.594 228.44C292.724 228.269 292.917 228.157 293.13 228.128C293.343 228.1 293.559 228.157 293.73 228.287C295.654 229.837 298.072 230.642 300.541 230.556H436.057C439.284 230.552 442.378 229.268 444.66 226.985C446.942 224.702 448.226 221.607 448.229 218.378V135.573C448.226 132.345 446.942 129.25 444.66 126.967C442.378 124.684 439.284 123.4 436.057 123.396H300.541C297.314 123.4 294.22 124.684 291.938 126.967C289.656 129.25 288.372 132.345 288.369 135.573V184.282C288.369 184.497 288.283 184.704 288.131 184.856C287.979 185.008 287.772 185.094 287.557 185.094C287.342 185.094 287.135 185.008 286.983 184.856C286.831 184.704 286.746 184.497 286.746 184.282V135.573C286.75 131.914 288.204 128.406 290.791 125.819C293.377 123.232 296.883 121.777 300.541 121.772H436.057C439.715 121.777 443.221 123.232 445.807 125.819C448.393 128.406 449.848 131.914 449.852 135.573V218.378C449.848 222.037 448.393 225.545 445.807 228.133C443.221 230.72 439.715 232.175 436.057 232.179Z" fill="#3F3D56"/>
<path d="M616.205 279.264H257.533C257.317 279.264 257.111 279.179 256.959 279.026C256.807 278.874 256.721 278.668 256.721 278.452C256.721 278.237 256.807 278.031 256.959 277.878C257.111 277.726 257.317 277.641 257.533 277.641H616.205C619.432 277.637 622.526 276.353 624.808 274.07C627.09 271.787 628.373 268.692 628.377 265.463V13.8008C628.373 10.5724 627.09 7.47716 624.808 5.19428C622.526 2.9114 619.432 1.62728 616.205 1.62363H234.811C231.584 1.62728 228.49 2.9114 226.208 5.19428C223.926 7.47716 222.643 10.5724 222.639 13.8008V177.787C222.639 178.003 222.554 178.209 222.401 178.361C222.249 178.514 222.043 178.599 221.828 178.599C221.612 178.599 221.406 178.514 221.254 178.361C221.102 178.209 221.016 178.003 221.016 177.787V13.8008C221.02 10.1419 222.475 6.63399 225.061 4.04672C227.647 1.45945 231.154 0.00411904 234.811 0H616.205C619.862 0.00411904 623.369 1.45945 625.955 4.04672C628.541 6.63399 629.996 10.1419 630 13.8008V265.463C629.996 269.122 628.541 272.63 625.955 275.217C623.369 277.805 619.862 279.26 616.205 279.264Z" fill="#3F3D56"/>
<path d="M629.735 26.4453H221.562V28.0689H629.735V26.4453Z" fill="#3F3D56"/>
<path d="M236.981 20.7301C239.67 20.7301 241.849 18.5493 241.849 15.8592C241.849 13.1691 239.67 10.9883 236.981 10.9883C234.292 10.9883 232.112 13.1691 232.112 15.8592C232.112 18.5493 234.292 20.7301 236.981 20.7301Z" fill="#3F3D56"/>
<path d="M250.978 20.7301C253.667 20.7301 255.847 18.5493 255.847 15.8592C255.847 13.1691 253.667 10.9883 250.978 10.9883C248.289 10.9883 246.11 13.1691 246.11 15.8592C246.11 18.5493 248.289 20.7301 250.978 20.7301Z" fill="#3F3D56"/>
<path d="M264.977 20.7301C267.666 20.7301 269.845 18.5493 269.845 15.8592C269.845 13.1691 267.666 10.9883 264.977 10.9883C262.288 10.9883 260.108 13.1691 260.108 15.8592C260.108 18.5493 262.288 20.7301 264.977 20.7301Z" fill="#3F3D56"/>
<path d="M550.07 81.9934H298.512C295.176 81.9934 291.977 80.6677 289.618 78.3079C287.26 75.9481 285.934 72.7475 285.934 69.4103C285.934 66.073 287.26 62.8724 289.618 60.5126C291.977 58.1529 295.176 56.8271 298.512 56.8271H550.07C553.406 56.8271 556.605 58.1529 558.964 60.5126C561.322 62.8724 562.648 66.073 562.648 69.4103C562.648 72.7475 561.322 75.9481 558.964 78.3079C556.605 80.6677 553.406 81.9934 550.07 81.9934ZM298.512 58.4508C295.607 58.4508 292.82 59.6054 290.766 61.6607C288.711 63.716 287.557 66.5036 287.557 69.4103C287.557 72.3169 288.711 75.1045 290.766 77.1598C292.82 79.2151 295.607 80.3698 298.512 80.3698H550.07C552.975 80.3698 555.762 79.2151 557.816 77.1598C559.87 75.1045 561.025 72.3169 561.025 69.4103C561.025 66.5036 559.87 63.716 557.816 61.6607C555.762 59.6054 552.975 58.4508 550.07 58.4508H298.512Z" fill="#3F3D56"/>
<path d="M548.447 146.126H499.758C496.422 146.126 493.223 144.8 490.864 142.441C488.505 140.081 487.18 136.88 487.18 133.543C487.18 130.206 488.505 127.005 490.864 124.645C493.223 122.286 496.422 120.96 499.758 120.96H548.447C551.782 120.96 554.982 122.286 557.34 124.645C559.699 127.005 561.024 130.206 561.024 133.543C561.024 136.88 559.699 140.081 557.34 142.441C554.982 144.8 551.782 146.126 548.447 146.126Z" fill="#6C63FF"/>
<path d="M548.447 188.341H499.758C496.422 188.341 493.223 187.015 490.864 184.656C488.505 182.296 487.18 179.095 487.18 175.758C487.18 172.421 488.505 169.22 490.864 166.86C493.223 164.501 496.422 163.175 499.758 163.175H548.447C551.783 163.175 554.982 164.501 557.341 166.86C559.699 169.22 561.025 172.421 561.025 175.758C561.025 179.095 559.699 182.296 557.341 184.656C554.982 187.015 551.783 188.341 548.447 188.341Z" fill="#6C63FF"/>
<path d="M548.447 230.555H499.758C496.422 230.555 493.223 229.229 490.864 226.869C488.505 224.51 487.18 221.309 487.18 217.972C487.18 214.635 488.505 211.434 490.864 209.074C493.223 206.714 496.422 205.389 499.758 205.389H548.447C551.782 205.389 554.982 206.714 557.34 209.074C559.699 211.434 561.024 214.635 561.024 217.972C561.024 221.309 559.699 224.51 557.34 226.869C554.982 229.229 551.782 230.555 548.447 230.555Z" fill="#6C63FF"/>
<path d="M202.352 238.333C201.739 238.204 201.113 238.138 200.486 238.138C199.308 238.138 198.142 238.369 197.054 238.82C196.687 238.972 196.331 239.152 195.991 239.356L159.685 223.055L158.663 213.199L143.009 212.785L143.115 229.184C143.134 231.083 143.765 232.926 144.914 234.438C146.063 235.95 147.669 237.051 149.493 237.578L191.949 249.666C192.047 249.974 192.136 250.242 192.241 250.494C192.724 251.654 193.446 252.7 194.361 253.562C195.275 254.424 196.362 255.082 197.549 255.495C198.495 255.829 199.491 255.999 200.494 255.998C201.119 255.999 201.742 255.931 202.352 255.795C202.702 255.721 203.047 255.624 203.383 255.503V238.617C203.045 238.503 202.701 238.408 202.352 238.333Z" fill="#A0616A"/>
<path d="M103.095 409.338H113.044L117.776 370.949H103.093L103.095 409.338Z" fill="#A0616A"/>
<path d="M132.23 418.579L100.964 418.581L100.963 406.495L120.15 406.494C123.353 406.494 126.426 407.767 128.692 410.034C130.957 412.3 132.23 415.374 132.23 418.579Z" fill="#2F2E41"/>
<path d="M51.3835 398.609L60.5289 402.528L79.9889 369.104L66.4924 363.32L51.3835 398.609Z" fill="#A0616A"/>
<path d="M74.5283 418.58L45.787 406.265L50.5433 395.155L68.18 402.713C71.1251 403.975 73.4485 406.355 74.6391 409.331C75.8296 412.307 75.7898 415.634 74.5283 418.58L74.5283 418.58Z" fill="#2F2E41"/>
<path d="M127.692 160.733C138.7 160.733 147.623 151.806 147.623 140.794C147.623 129.782 138.7 120.855 127.692 120.855C116.685 120.855 107.762 129.782 107.762 140.794C107.762 151.806 116.685 160.733 127.692 160.733Z" fill="#A0616A"/>
<path d="M113.293 399.953L102.341 397.865C101.441 397.699 100.637 397.198 100.09 396.464C99.5432 395.729 99.2938 394.815 99.392 393.905L106.654 323.067C106.724 322.391 106.549 321.712 106.161 321.155C105.773 320.597 105.199 320.196 104.541 320.026C103.884 319.856 103.187 319.927 102.577 320.226C101.968 320.525 101.486 321.033 101.218 321.658L69.5128 395.669C69.3222 396.113 69.0453 396.516 68.698 396.852C68.3507 397.189 67.94 397.453 67.4898 397.63C67.0395 397.807 66.5587 397.892 66.0752 397.881C65.5917 397.87 65.1152 397.764 64.6733 397.567L55.7659 393.607C54.9343 393.24 54.2698 392.576 53.9031 391.745C53.5365 390.913 53.4942 389.974 53.7845 389.113L75.4689 324.032C75.53 323.849 75.5722 323.66 75.5949 323.469L82.6337 264.006C82.7105 263.356 82.9599 262.74 83.356 262.22C83.7521 261.7 84.2803 261.296 84.8857 261.05L107.111 252.018C107.768 251.751 108.489 251.681 109.186 251.817C109.882 251.953 110.524 252.289 111.033 252.784L139.086 280.111C139.523 280.535 139.847 281.062 140.027 281.644C140.208 282.225 140.24 282.843 140.12 283.44L117.558 397.076C117.391 397.904 116.943 398.649 116.29 399.185C115.637 399.721 114.819 400.015 113.974 400.017C113.745 400.017 113.517 399.996 113.293 399.953Z" fill="#2F2E41"/>
<path d="M100.808 267.284C96.9252 262.786 94.0915 260.745 92.1536 261.067C90.2307 261.378 89.1215 264.065 87.9469 266.91C86.3437 270.794 84.5266 275.197 80.0476 275.541C79.3503 275.661 78.6334 275.582 77.9787 275.313C77.324 275.045 76.7581 274.598 76.3455 274.023C72.8224 268.781 81.2728 251.434 82.0448 249.876L81.6486 167.833C81.6431 167.172 81.818 166.521 82.1544 165.951C82.4908 165.381 82.976 164.913 83.558 164.598C106.78 152.07 138.135 173.858 144.185 178.354C144.669 178.712 145.057 179.185 145.313 179.731C145.57 180.276 145.687 180.876 145.654 181.478C144.924 195.219 141.283 264.543 141.283 280.007C141.283 284.288 139.807 287.008 136.896 288.091C135.913 288.44 134.876 288.61 133.833 288.594C124.951 288.594 110.403 278.399 100.808 267.284Z" fill="#CCCCCC"/>
<path d="M133.215 227.447C132.729 227.131 132.327 226.704 132.041 226.2C131.755 225.696 131.595 225.131 131.573 224.552L130 187.804C129.904 185.542 130.615 183.319 132.006 181.533C133.398 179.747 135.379 178.515 137.596 178.057C139.813 177.598 142.12 177.944 144.105 179.033C146.09 180.121 147.624 181.88 148.431 183.996L160.203 214.858C160.547 215.764 160.518 216.768 160.123 217.652C159.727 218.536 158.997 219.227 158.093 219.574L136.524 227.808C135.983 228.018 135.401 228.094 134.825 228.031C134.249 227.968 133.697 227.768 133.215 227.447Z" fill="#CCCCCC"/>
<path d="M78.4021 284.864C77.3446 284.153 76.456 283.218 75.7988 282.126C75.1416 281.033 74.7317 279.81 74.5982 278.542C74.4646 277.274 74.6106 275.992 75.0258 274.787C75.441 273.581 76.1153 272.482 77.0013 271.565L73.1953 186.402L92.023 188.62L89.8374 271.735C91.2778 273.326 92.0847 275.39 92.1053 277.537C92.1259 279.683 91.3587 281.762 89.9491 283.381C88.5396 284.999 86.5856 286.044 84.4574 286.318C82.3292 286.591 80.1746 286.074 78.4021 284.864H78.4021Z" fill="#A0616A"/>
<path d="M65.328 209.08C64.9868 208.612 64.763 208.069 64.6756 207.496C64.5882 206.923 64.6398 206.338 64.826 205.789L76.4525 170.895C77.1683 168.747 78.6248 166.923 80.5615 165.751C82.4982 164.579 84.7887 164.134 87.0231 164.497C89.2574 164.86 91.2899 166.006 92.7566 167.731C94.2234 169.456 95.0288 171.647 95.0287 173.911V206.944C95.0276 207.913 94.6426 208.841 93.958 209.526C93.2734 210.211 92.3452 210.596 91.3771 210.597H68.2904C67.7112 210.6 67.1398 210.464 66.6242 210.2C66.1087 209.936 65.6641 209.552 65.328 209.08Z" fill="#CCCCCC"/>
<path d="M114.821 154.205C114.075 154.79 113.143 155.086 112.197 155.039C111.25 154.992 110.352 154.604 109.668 153.948C105.396 149.954 101.791 145.177 99.9667 139.646C97.8761 133.307 98.4102 125.883 102.414 120.544C105.798 116.03 111.155 113.48 116.431 111.486C118.491 110.615 120.667 110.05 122.891 109.808C125.137 109.575 127.387 110.207 129.183 111.576C130.059 112.275 130.703 113.222 131.032 114.293C131.362 115.365 131.361 116.51 131.03 117.581C133.736 115.122 137.037 113.414 140.606 112.625C142.866 112.025 145.253 112.124 147.455 112.909C150.515 114.168 152.503 117.243 153.419 120.423C154.176 122.849 154.238 125.44 153.596 127.899C153.266 129.122 152.684 130.262 151.886 131.245C151.089 132.229 150.094 133.034 148.966 133.608C146.166 134.928 142.844 134.43 139.916 133.425C136.989 132.421 134.214 130.938 131.186 130.298C128.158 129.657 124.663 130.031 122.52 132.265C121.012 133.838 120.417 136.051 119.878 138.164L117.071 149.151C116.761 150.751 116.169 152.284 115.321 153.676C115.179 153.874 115.011 154.052 114.821 154.205Z" fill="#2F2E41"/>
<path d="M250.87 221.975V259.448L251.382 259.821V222.031C251.213 222.001 251.042 221.982 250.87 221.975ZM305.215 197.458L279.313 178.648C277.427 177.285 275.078 176.724 272.78 177.089C270.482 177.455 268.422 178.716 267.051 180.596L251.901 201.493L250.87 202.905V283.478C250.868 285.531 250.052 287.499 248.6 288.951C247.149 290.403 245.181 291.22 243.129 291.222H238.828L241.319 291.726C241.893 291.846 242.478 291.906 243.064 291.904C244.45 291.904 245.817 291.576 247.052 290.947C248.288 290.318 249.357 289.405 250.173 288.284L251.228 286.822L307.163 209.716C308.524 207.83 309.083 205.482 308.718 203.185C308.353 200.888 307.093 198.828 305.215 197.458ZM306.327 209.107L251.869 284.176L251.292 284.971L251.236 285.053C251.334 284.533 251.383 284.006 251.382 283.478V203.96L251.901 203.246L267.895 181.205C269.103 179.547 270.919 178.435 272.944 178.112C274.97 177.789 277.041 178.283 278.704 179.484L304.606 198.294C306.265 199.502 307.378 201.318 307.7 203.345C308.023 205.372 307.529 207.444 306.327 209.107V209.107Z" fill="#CCCCCC"/>
<path d="M278.784 228.833C277.333 228.833 275.919 228.372 274.747 227.516L260.191 216.949C258.713 215.873 257.721 214.253 257.434 212.447C257.147 210.64 257.588 208.793 258.66 207.311L269.223 192.749C270.297 191.268 271.916 190.274 273.723 189.987C275.529 189.7 277.376 190.142 278.857 191.217L293.412 201.784C294.891 202.86 295.883 204.479 296.17 206.286C296.457 208.093 296.016 209.94 294.944 211.422L284.381 225.983C283.851 226.719 283.18 227.341 282.408 227.816C281.635 228.29 280.777 228.606 279.881 228.746C279.518 228.804 279.151 228.833 278.784 228.833Z" fill="#CCCCCC"/>
<path opacity="0.5" d="M255.668 262.368C254.714 262.368 253.786 262.065 253.015 261.503L250.463 259.651V221.542L250.893 221.568C251.278 221.59 251.658 221.661 252.025 221.777C252.483 221.922 252.914 222.141 253.302 222.425L271.681 235.772C272.162 236.122 272.571 236.563 272.882 237.071C273.193 237.578 273.401 238.143 273.495 238.731C273.588 239.319 273.564 239.92 273.425 240.499C273.286 241.078 273.035 241.624 272.685 242.106L259.347 260.493C259 260.976 258.56 261.386 258.053 261.698C257.546 262.009 256.982 262.217 256.394 262.31C256.154 262.348 255.911 262.368 255.668 262.368Z" fill="#E6E6E6"/>
<path d="M243.129 177.625H211.124C208.799 177.628 206.569 178.553 204.925 180.198C203.28 181.844 202.355 184.074 202.352 186.401V283.478C202.355 285.804 203.28 288.035 204.925 289.68C206.569 291.325 208.799 292.25 211.124 292.253H243.129C244.864 292.251 246.56 291.734 248.002 290.767C249.443 289.8 250.566 288.427 251.227 286.822C251.438 286.325 251.601 285.808 251.714 285.28C251.79 284.916 251.842 284.547 251.869 284.176C251.892 283.944 251.902 283.711 251.901 283.478V186.401C251.898 184.074 250.973 181.844 249.329 180.198C247.684 178.553 245.455 177.628 243.129 177.625ZM250.87 283.478C250.868 285.531 250.052 287.499 248.6 288.951C247.149 290.403 245.181 291.22 243.129 291.222H211.124C209.072 291.22 207.104 290.403 205.653 288.951C204.202 287.499 203.385 285.531 203.383 283.478V186.401C203.385 184.347 204.202 182.379 205.653 180.927C207.104 179.475 209.072 178.658 211.124 178.656H243.129C245.181 178.658 247.149 179.475 248.6 180.927C250.052 182.379 250.868 184.347 250.87 186.401V283.478Z" fill="#3F3D56"/>
<path d="M236.119 219.854H218.135C216.306 219.852 214.553 219.124 213.26 217.83C211.966 216.537 211.239 214.783 211.237 212.953V194.961C211.239 193.131 211.966 191.378 213.26 190.084C214.553 188.79 216.306 188.063 218.135 188.061H236.119C237.948 188.063 239.701 188.79 240.994 190.084C242.287 191.378 243.015 193.132 243.017 194.961V212.953C243.015 214.783 242.287 216.537 240.994 217.83C239.701 219.124 237.948 219.852 236.119 219.854Z" fill="#F40638"/>
<path d="M236.119 260.129H218.135C216.306 260.127 214.553 259.399 213.26 258.106C211.966 256.812 211.239 255.058 211.237 253.229V235.236C211.239 233.407 211.966 231.653 213.26 230.359C214.553 229.066 216.306 228.338 218.135 228.336H236.119C237.948 228.338 239.701 229.066 240.994 230.359C242.287 231.653 243.015 233.407 243.017 235.236V253.229C243.015 255.058 242.287 256.812 240.994 258.106C239.701 259.399 237.948 260.127 236.119 260.129Z" fill="#3F3D56"/>
<path d="M227.127 269.02C225.8 269.019 224.502 269.413 223.398 270.151C222.295 270.888 221.434 271.937 220.926 273.164C220.418 274.39 220.286 275.74 220.544 277.043C220.803 278.345 221.442 279.541 222.381 280.48C223.319 281.419 224.515 282.059 225.817 282.318C227.119 282.577 228.468 282.444 229.695 281.936C230.921 281.428 231.969 280.567 232.706 279.463C233.444 278.359 233.837 277.061 233.837 275.733C233.835 273.953 233.128 272.247 231.87 270.988C230.612 269.73 228.906 269.022 227.127 269.02ZM227.127 281.408C226.004 281.407 224.907 281.073 223.974 280.449C223.041 279.824 222.314 278.936 221.885 277.899C221.456 276.861 221.345 275.719 221.564 274.617C221.784 273.516 222.326 272.505 223.12 271.711C223.914 270.917 224.926 270.377 226.027 270.159C227.129 269.941 228.27 270.054 229.307 270.484C230.344 270.915 231.23 271.643 231.853 272.578C232.476 273.512 232.808 274.61 232.807 275.733C232.804 277.239 232.204 278.681 231.139 279.745C230.074 280.809 228.632 281.407 227.127 281.408Z" fill="#3F3D56"/>
<path d="M209.673 419H7.3765C7.12073 418.999 6.87568 418.897 6.69509 418.716C6.51449 418.534 6.41309 418.289 6.41309 418.033C6.41309 417.777 6.51449 417.532 6.69509 417.351C6.87568 417.169 7.12073 417.067 7.3765 417.066H209.673C209.928 417.067 210.173 417.169 210.354 417.351C210.535 417.532 210.636 417.777 210.636 418.033C210.636 418.289 210.535 418.534 210.354 418.716C210.173 418.897 209.928 418.999 209.673 419Z" fill="#3F3D56"/>
</g>
<defs>
<clipPath id="clip0_796_1293">
<rect width="630" height="419" fill="white"/>
</clipPath>
</defs>
</svg>
