<svg width="648" height="513" viewBox="0 0 648 513" fill="none" xmlns="http://www.w3.org/2000/svg">
<g clip-path="url(#clip0_789_1102)">
<path d="M75.9208 385.896C75.3662 385.921 74.8171 385.776 74.348 385.479C73.8789 385.182 73.5125 384.749 73.2983 384.237C73.0841 383.725 73.0325 383.16 73.1506 382.618C73.2687 382.076 73.5507 381.583 73.9584 381.206C74.0266 380.935 74.0756 380.741 74.1439 380.469C74.1195 380.41 74.0949 380.351 74.0702 380.292C73.5114 378.974 72.5751 377.849 71.379 377.061C70.1828 376.272 68.78 375.854 67.3469 375.859C65.9137 375.865 64.5141 376.293 63.3238 377.091C62.1335 377.888 61.2056 379.019 60.6567 380.342C58.4629 385.622 55.6697 390.91 54.982 396.493C54.6791 398.96 54.8069 401.461 55.3596 403.885C50.2069 392.654 47.5312 380.447 47.514 368.092C47.5129 364.992 47.6853 361.894 48.0304 358.813C48.3156 356.287 48.7112 353.779 49.2173 351.29C51.979 337.78 57.9086 325.117 66.5191 314.342C70.6866 312.07 74.0569 308.576 76.1758 304.331C76.9434 302.805 77.486 301.176 77.7866 299.495C77.3164 299.556 76.8386 299.595 76.3685 299.626C76.2221 299.633 76.0679 299.641 75.9215 299.649L75.8663 299.651C75.3496 299.674 74.8372 299.548 74.3909 299.287C73.9445 299.026 73.5832 298.641 73.3503 298.18C73.1175 297.718 73.0232 297.2 73.0786 296.686C73.1341 296.172 73.337 295.685 73.6629 295.284C73.8659 295.034 74.069 294.785 74.2722 294.535C74.5805 294.15 74.8964 293.773 75.2047 293.388C75.2403 293.351 75.2737 293.313 75.3049 293.272C75.6595 292.833 76.0139 292.402 76.3685 291.963C75.7213 290.96 74.851 290.119 73.8252 289.507C70.2723 287.428 65.3708 288.868 62.8044 292.079C60.2303 295.29 59.7448 299.795 60.6387 303.807C61.5179 307.221 62.9721 310.46 64.9392 313.387C64.7465 313.633 64.5461 313.872 64.3534 314.118C60.8314 318.644 57.7616 323.503 55.1883 328.627C55.8141 322.887 55.0671 317.08 53.0089 311.685C50.923 306.657 47.0131 302.422 43.57 298.075C39.4343 292.854 30.9536 295.133 30.225 301.751C30.218 301.815 30.2111 301.879 30.2044 301.943C30.7158 302.232 31.2164 302.538 31.7062 302.861C32.3215 303.272 32.7983 303.859 33.0741 304.545C33.3499 305.231 33.4118 305.985 33.2517 306.707C33.0917 307.429 32.7171 308.086 32.177 308.591C31.637 309.097 30.9567 309.428 30.2253 309.54L30.1504 309.552C30.3326 311.393 30.6547 313.219 31.1138 315.012C32.4441 320.017 34.795 324.693 38.0189 328.748C41.2429 332.803 45.2705 336.149 49.8491 338.576C50.1497 338.73 50.4426 338.884 50.7432 339.03C48.1577 346.351 46.5359 353.977 45.9187 361.716C45.5692 366.282 45.5898 370.869 45.9803 375.431L45.9572 375.269C44.9706 370.196 42.262 365.618 38.2888 362.309C32.3876 357.465 24.0503 355.682 17.684 351.788C17.0074 351.354 16.2207 351.123 15.4166 351.121C14.6126 351.119 13.8248 351.347 13.1461 351.777C12.4674 352.208 11.9261 352.824 11.5861 353.552C11.2461 354.28 11.1216 355.09 11.2272 355.886C11.2357 355.943 11.2444 356 11.2532 356.056C12.2023 356.442 13.1263 356.887 14.02 357.388C14.5314 357.677 15.032 357.983 15.5218 358.306C16.1371 358.717 16.6139 359.304 16.8897 359.99C17.1655 360.676 17.2274 361.43 17.0673 362.152C16.9073 362.874 16.5327 363.531 15.9927 364.036C15.4526 364.542 14.7723 364.873 14.041 364.985L13.966 364.997C13.9121 365.004 13.8658 365.012 13.812 365.02C15.4335 368.889 17.7094 372.449 20.54 375.547C24.0367 379.296 28.263 382.292 32.9596 384.351C37.6563 386.41 42.7243 387.489 47.8531 387.521H47.8608C49.2531 393.566 51.2703 399.45 53.8799 405.079H75.382C75.4591 404.84 75.5284 404.594 75.5978 404.355C73.6075 404.48 71.6094 404.361 69.6481 404.001C71.2434 402.045 72.8387 400.073 74.434 398.117C74.4696 398.081 74.5031 398.042 74.5342 398.002C75.3434 397.001 76.1604 396.007 76.9696 395.006L76.97 395.005C77.0132 391.936 76.6607 388.875 75.9215 385.896L75.9208 385.896Z" fill="#279D13"/>
<path d="M329.497 405.369C329.497 405.486 329.475 405.602 329.43 405.711C329.385 405.819 329.319 405.917 329.237 406C329.154 406.083 329.055 406.148 328.947 406.193C328.839 406.238 328.722 406.261 328.605 406.26H0.89181C0.655288 406.26 0.428461 406.166 0.261215 405.999C0.0939684 405.832 0 405.605 0 405.369C0 405.133 0.0939684 404.906 0.261215 404.739C0.428461 404.572 0.655288 404.478 0.89181 404.478H328.605C328.722 404.478 328.839 404.501 328.947 404.545C329.055 404.59 329.154 404.655 329.237 404.738C329.319 404.821 329.385 404.919 329.43 405.028C329.475 405.136 329.497 405.252 329.497 405.369Z" fill="#CCCCCC"/>
<path d="M171.604 290.904C170.369 290.609 169.085 290.588 167.842 290.842C166.599 291.097 165.427 291.62 164.408 292.376C163.389 293.132 162.548 294.102 161.945 295.218C161.342 296.334 160.991 297.568 160.917 298.834L142.183 305.349L143.368 317.69L169.696 308.119C171.832 308.102 173.889 307.303 175.475 305.872C177.061 304.442 178.067 302.48 178.302 300.358C178.537 298.236 177.985 296.102 176.751 294.359C175.516 292.617 173.685 291.388 171.604 290.904V290.904Z" fill="#FFB6B6"/>
<path d="M141.071 326.775C133.621 331.963 120.498 334.617 102.636 334.495C101.648 334.498 100.669 334.295 99.7625 333.9C98.856 333.505 98.0415 332.927 97.3706 332.201C92.5914 327.228 92.778 315.877 92.8079 314.78L87.5694 295.054C87.4571 294.753 84.5576 286.659 87.5074 281.007C88.1351 279.826 89.011 278.795 90.0752 277.985C91.1393 277.175 92.3663 276.604 93.672 276.313C104.75 273.375 115.164 303.006 116.488 306.921L132.034 304.276L142.771 303.834L153.694 297.81L159.844 312.517L144.624 323.63C143.574 324.821 142.381 325.877 141.071 326.775Z" fill="#2F2E41"/>
<path d="M171.068 489.879L182.52 490.414L190.034 446.532L173.132 445.743L171.068 489.879Z" fill="#FFB6B6"/>
<path d="M168.493 484.101L186.646 483.868L186.283 491.618L202.939 504.299C203.761 504.925 204.362 505.798 204.653 506.789C204.944 507.781 204.911 508.839 204.557 509.811C204.204 510.782 203.549 511.614 202.688 512.187C201.827 512.76 200.806 513.043 199.773 512.995L178.22 511.988L174.864 504.148L173.055 511.746L164.929 511.366L168.493 484.101Z" fill="#2F2E41"/>
<path d="M290.634 395.66L294.806 384.99L255.603 363.833L235.799 376.271L290.634 395.66Z" fill="#FFB6B6"/>
<path d="M284.331 396.249L289.919 378.99L297.151 381.813L314.505 370.105C315.362 369.527 316.382 369.237 317.416 369.279C318.449 369.321 319.442 369.691 320.25 370.337C321.057 370.982 321.637 371.869 321.905 372.867C322.172 373.865 322.114 374.923 321.737 375.885L313.885 395.965L305.378 396.633L312.003 400.778L309.042 408.349L284.331 396.249Z" fill="#2F2E41"/>
<path d="M65.4211 363.904C65.4211 363.904 70.1773 394.243 92.6599 396.49C115.142 398.736 135.867 388.615 135.867 388.615L198.818 369.243C198.818 369.243 265.776 388.253 277.017 391.248C277.017 391.248 284.771 373.662 284.511 372.527C282.12 362.076 279.006 369.146 279.006 369.146L207.811 337.696C207.811 337.696 196.569 334.7 177.085 342.937C157.6 351.174 105.4 371.03 105.4 371.03L65.4211 363.904Z" fill="#2F2E41"/>
<path d="M65.6807 362.044C65.6807 362.044 61.9312 398.389 83.832 403.941C104.65 409.22 133.367 403.805 133.367 403.805L167.602 400.234C167.602 400.234 169.1 444.186 169.1 465.902C176.056 466.846 183.065 467.347 190.084 467.399C191.583 467.399 191.682 466.615 191.682 466.615L194.585 390.652C194.789 387.349 194.298 384.04 193.145 380.938C191.992 377.836 190.202 375.01 187.89 372.641C185.577 370.272 182.795 368.413 179.72 367.184C176.646 365.954 173.347 365.382 170.038 365.503C168.422 365.564 166.727 365.679 164.952 365.846C143.892 367.864 117.746 363.574 117.746 363.574L65.6807 362.044Z" fill="#2F2E41"/>
<path d="M126.427 309.318C126.427 309.318 135.318 363.042 129.31 367.33C123.301 371.619 115.062 371.636 115.062 371.636L113.146 341.973L126.427 309.318Z" fill="#2F2E41"/>
<path d="M111.599 243.339L123.486 254.626C129.012 259.872 132.674 266.776 133.919 274.29C135.163 281.804 133.921 289.518 130.381 296.263L124.698 307.091L111.599 243.339Z" fill="#2F2E41"/>
<path d="M108.94 245.237L125.048 263.569C128.583 267.593 130.774 272.618 131.315 277.945C131.561 280.364 131.462 282.805 131.022 285.196L124.951 318.17L120.388 365.788C120.388 365.788 85.1632 376.453 81.5577 359.985C77.9523 343.517 108.94 245.237 108.94 245.237Z" fill="#F40638"/>
<path d="M93.8204 370.263C70.6647 366.407 64.9924 365.642 64.6391 365.507L64.2852 365.372L66.6061 351.456L76.4068 327.393C77.0433 319.521 81.1713 308.856 78.8097 300.29C71.9445 275.386 83.0983 240.195 88.1991 237.499L102.34 228.236L107.304 232.783L115.911 244.822C122.992 276.341 127.883 305.718 127.645 307.514L123.274 338.37L118.124 350.206C102.5 357.739 113.006 373.458 93.8204 370.263Z" fill="#2F2E41"/>
<path d="M135.743 347.626L172.101 337.907L175.302 337.148L177.584 336.607L180.244 335.978L180.266 335.973C180.652 335.885 181.058 335.953 181.395 336.161L194.895 352.334C195.017 352.409 195.125 352.506 195.212 352.619C195.249 352.648 195.281 352.682 195.308 352.72C195.458 352.923 195.555 353.161 195.591 353.411C195.627 353.66 195.601 353.915 195.515 354.153C195.429 354.39 195.286 354.603 195.099 354.772C194.911 354.942 194.685 355.062 194.44 355.124L140.202 367.595C139.921 367.659 139.628 367.642 139.356 367.546C139.085 367.45 138.845 367.279 138.667 367.053L138.116 366.341L135.115 351.899L134.901 350.024C134.765 349.851 134.669 349.649 134.62 349.434C134.533 349.046 134.601 348.639 134.812 348.301C135.022 347.963 135.356 347.721 135.743 347.626Z" fill="#E6E6E6"/>
<path opacity="0.17" d="M138.116 366.339L138.67 367.054C138.848 367.279 139.086 367.45 139.357 367.546C139.628 367.641 139.921 367.659 140.201 367.596L194.441 355.124C194.686 355.063 194.912 354.942 195.1 354.773C195.287 354.604 195.43 354.391 195.516 354.154C195.601 353.917 195.627 353.662 195.591 353.412C195.555 353.162 195.457 352.925 195.308 352.722C195.281 352.684 195.249 352.649 195.213 352.621L138.116 366.339Z" fill="black"/>
<path d="M179.974 335.873L178.993 266.783C178.951 266.367 179.077 265.952 179.342 265.628L186.292 251.175L187.014 250.299C187.283 249.978 187.666 249.776 188.082 249.734L189.595 249.594C190.012 249.553 190.428 249.679 190.751 249.944C191.075 250.21 191.28 250.593 191.321 251.009L192.683 324.112L192.684 324.117L193.359 331.156L194.159 339.514L194.162 339.524L195.41 352.529C195.433 352.751 195.408 352.976 195.336 353.188C195.264 353.399 195.147 353.593 194.992 353.755C194.842 353.919 194.658 354.049 194.454 354.137C194.249 354.224 194.028 354.267 193.805 354.263L192.821 354.243C192.443 354.233 192.081 354.091 191.799 353.84L191.248 353.346L190.993 353.114L180.496 336.899C180.198 336.636 180.011 336.269 179.974 335.873Z" fill="#E6E6E6"/>
<path opacity="0.17" d="M186.295 251.175L190.992 353.116L191.249 353.345L191.797 353.838C192.08 354.089 192.442 354.232 192.82 354.241L193.805 354.261C194.028 354.265 194.25 354.222 194.455 354.134C194.66 354.047 194.844 353.917 194.996 353.753C195.147 353.59 195.262 353.396 195.334 353.185C195.405 352.974 195.431 352.75 195.41 352.528L191.319 251.011C191.279 250.595 191.075 250.211 190.752 249.945C190.429 249.678 190.013 249.551 189.596 249.591L188.08 249.736C187.874 249.755 187.674 249.814 187.492 249.911C187.309 250.008 187.148 250.141 187.017 250.3L186.295 251.175Z" fill="black"/>
<path d="M186.69 255.294L180.334 270.971L181.12 317.867L188.002 327.811L186.69 255.294Z" fill="#6C63FF"/>
<path d="M139.933 347.213C139.585 347.312 139.291 347.545 139.115 347.861C138.939 348.176 138.896 348.549 138.995 348.897L141.795 360.557L144.419 359.81L141.619 348.15C141.519 347.803 141.286 347.509 140.97 347.333C140.654 347.157 140.281 347.114 139.933 347.213Z" fill="#2F2E41"/>
<path d="M145.18 345.719C144.833 345.819 144.538 346.052 144.362 346.367C144.187 346.683 144.143 347.056 144.242 347.403L144.84 349.501L147.464 348.754L146.866 346.657C146.767 346.309 146.533 346.015 146.217 345.84C145.901 345.664 145.528 345.621 145.18 345.719Z" fill="#2F2E41"/>
<path d="M150.428 344.227C150.08 344.326 149.786 344.559 149.61 344.875C149.434 345.191 149.391 345.563 149.49 345.911L150.087 348.008L152.711 347.262L152.113 345.164C152.014 344.817 151.781 344.523 151.465 344.347C151.149 344.171 150.776 344.128 150.428 344.227Z" fill="#2F2E41"/>
<path d="M155.675 342.734C155.327 342.833 155.033 343.066 154.857 343.382C154.681 343.697 154.638 344.07 154.737 344.418L155.335 346.515L157.958 345.768L157.361 343.671C157.261 343.324 157.028 343.03 156.712 342.854C156.396 342.678 156.023 342.635 155.675 342.734Z" fill="#2F2E41"/>
<path d="M160.922 341.241C160.575 341.34 160.28 341.573 160.104 341.889C159.928 342.205 159.885 342.577 159.984 342.925L160.582 345.022L163.205 344.276L162.608 342.178C162.509 341.831 162.275 341.537 161.959 341.361C161.643 341.185 161.27 341.142 160.922 341.241Z" fill="#2F2E41"/>
<path d="M166.17 339.748C165.822 339.847 165.528 340.08 165.352 340.396C165.176 340.712 165.133 341.084 165.231 341.432L165.829 343.529L168.453 342.783L167.855 340.685C167.756 340.338 167.523 340.044 167.207 339.868C166.891 339.692 166.518 339.649 166.17 339.748Z" fill="#2F2E41"/>
<path d="M171.417 338.255C171.069 338.354 170.775 338.587 170.599 338.903C170.423 339.219 170.38 339.592 170.479 339.939L171.076 342.036L173.7 341.29L173.102 339.193C173.003 338.845 172.77 338.551 172.454 338.375C172.138 338.199 171.765 338.156 171.417 338.255Z" fill="#2F2E41"/>
<path d="M176.664 336.762C176.317 336.861 176.022 337.094 175.846 337.41C175.67 337.726 175.627 338.098 175.726 338.446L176.324 340.543L178.947 339.797L178.35 337.699C178.251 337.352 178.017 337.058 177.701 336.882C177.385 336.706 177.012 336.663 176.664 336.762Z" fill="#2F2E41"/>
<path d="M146.282 350.501C145.934 350.6 145.64 350.833 145.464 351.149C145.288 351.465 145.245 351.838 145.344 352.185L145.941 354.282L148.565 353.536L147.967 351.439C147.868 351.091 147.635 350.797 147.319 350.621C147.003 350.446 146.63 350.402 146.282 350.501Z" fill="#2F2E41"/>
<path d="M151.529 349.008C151.181 349.107 150.887 349.34 150.711 349.656C150.535 349.972 150.492 350.344 150.591 350.692L151.188 352.789L153.812 352.043L153.214 349.946C153.115 349.598 152.882 349.304 152.566 349.128C152.25 348.952 151.877 348.909 151.529 349.008Z" fill="#2F2E41"/>
<path d="M156.776 347.515C156.429 347.614 156.134 347.847 155.958 348.163C155.782 348.479 155.739 348.851 155.838 349.199L156.436 351.296L159.059 350.55L158.462 348.452C158.363 348.105 158.129 347.811 157.813 347.635C157.497 347.459 157.124 347.416 156.776 347.515Z" fill="#2F2E41"/>
<path d="M162.024 346.022C161.676 346.121 161.381 346.354 161.206 346.67C161.03 346.986 160.986 347.359 161.085 347.706L161.683 349.803L164.307 349.057L163.709 346.96C163.61 346.612 163.376 346.318 163.06 346.142C162.744 345.967 162.371 345.923 162.024 346.022Z" fill="#2F2E41"/>
<path d="M167.271 344.529C166.923 344.628 166.629 344.861 166.453 345.177C166.277 345.493 166.234 345.865 166.333 346.213L166.93 348.31L169.554 347.564L168.956 345.467C168.857 345.119 168.624 344.825 168.308 344.649C167.992 344.473 167.619 344.43 167.271 344.529Z" fill="#2F2E41"/>
<path d="M172.518 343.036C172.171 343.135 171.876 343.369 171.7 343.684C171.524 344 171.481 344.373 171.58 344.72L172.178 346.818L174.801 346.071L174.204 343.974C174.105 343.626 173.871 343.332 173.555 343.157C173.239 342.981 172.866 342.938 172.518 343.036Z" fill="#2F2E41"/>
<path d="M177.766 341.543C177.418 341.642 177.124 341.875 176.948 342.191C176.772 342.507 176.728 342.88 176.827 343.227L177.425 345.324L180.049 344.578L179.451 342.481C179.352 342.133 179.119 341.839 178.803 341.663C178.487 341.488 178.114 341.444 177.766 341.543Z" fill="#2F2E41"/>
<path d="M147.383 355.282C147.035 355.382 146.741 355.615 146.565 355.93C146.389 356.246 146.346 356.619 146.445 356.966L147.042 359.064L149.666 358.317L149.068 356.22C148.969 355.872 148.736 355.578 148.42 355.403C148.104 355.227 147.731 355.184 147.383 355.282Z" fill="#2F2E41"/>
<path d="M152.63 353.789C152.282 353.888 151.988 354.121 151.812 354.437C151.636 354.753 151.593 355.126 151.692 355.473L152.29 357.571L154.913 356.824L154.316 354.727C154.216 354.379 153.983 354.085 153.667 353.909C153.351 353.734 152.978 353.69 152.63 353.789Z" fill="#2F2E41"/>
<path d="M157.878 352.297C157.53 352.396 157.235 352.629 157.059 352.945C156.884 353.26 156.84 353.633 156.939 353.981L157.537 356.078L160.161 355.331L159.563 353.234C159.464 352.887 159.23 352.593 158.914 352.417C158.598 352.241 158.225 352.198 157.878 352.297Z" fill="#2F2E41"/>
<path d="M163.125 350.803C162.777 350.903 162.483 351.136 162.307 351.451C162.131 351.767 162.088 352.14 162.187 352.487L162.784 354.585L165.408 353.838L164.81 351.741C164.711 351.393 164.478 351.099 164.162 350.924C163.846 350.748 163.473 350.705 163.125 350.803Z" fill="#2F2E41"/>
<path d="M168.372 349.311C168.024 349.41 167.73 349.643 167.554 349.959C167.378 350.275 167.335 350.647 167.434 350.995L168.032 353.092L170.655 352.346L170.058 350.248C169.958 349.901 169.725 349.607 169.409 349.431C169.093 349.255 168.72 349.212 168.372 349.311Z" fill="#2F2E41"/>
<path d="M173.619 347.818C173.272 347.917 172.977 348.15 172.801 348.466C172.626 348.781 172.582 349.154 172.681 349.502L173.279 351.599L175.902 350.852L175.305 348.755C175.206 348.408 174.972 348.114 174.656 347.938C174.34 347.762 173.967 347.719 173.619 347.818Z" fill="#2F2E41"/>
<path d="M178.867 346.325C178.519 346.424 178.225 346.657 178.049 346.973C177.873 347.289 177.83 347.661 177.928 348.009L178.526 350.106L181.15 349.36L180.552 347.262C180.453 346.915 180.22 346.621 179.904 346.445C179.588 346.269 179.215 346.226 178.867 346.325Z" fill="#2F2E41"/>
<path d="M163.45 337.276C162.746 336.221 161.82 335.333 160.735 334.674C159.651 334.016 158.435 333.603 157.173 333.465C155.912 333.326 154.636 333.466 153.434 333.874C152.232 334.282 151.135 334.948 150.219 335.826L132.051 327.867L124.519 337.719L150.332 348.598C151.91 350.038 153.961 350.85 156.098 350.879C158.234 350.909 160.307 350.154 161.924 348.759C163.541 347.363 164.589 345.424 164.871 343.307C165.152 341.191 164.647 339.045 163.45 337.276Z" fill="#FFB6B6"/>
<path d="M116.65 342.817C107.658 341.556 96.2311 334.582 83.2217 322.352C82.4951 321.682 81.9156 320.869 81.5201 319.963C81.1246 319.057 80.9215 318.08 80.9239 317.091C80.8061 310.198 88.6707 302.004 89.439 301.221L99.028 283.202C99.1511 282.904 102.536 275.001 108.546 272.863C109.81 272.424 111.153 272.264 112.485 272.393C113.817 272.522 115.105 272.938 116.26 273.612C126.38 278.989 113.842 307.786 112.146 311.555L125.343 320.183L133.513 327.157L145.621 330.165L140.117 345.126L121.395 342.927C119.815 343.086 118.221 343.049 116.65 342.817Z" fill="#2F2E41"/>
<path d="M134.381 206.517C135.897 193.878 127.094 182.43 114.72 180.949C102.346 179.467 91.0861 188.513 89.5705 201.153C88.0548 213.792 96.8574 225.24 109.232 226.721C121.606 228.203 132.866 219.157 134.381 206.517Z" fill="#FFB6B6"/>
<path d="M53.2116 186.732C57.5522 182.75 60.0688 177.079 63.7177 172.404C67.3665 167.73 73.2055 163.854 78.662 165.696C82.4234 166.967 84.9973 170.726 86.0522 174.699C87.1067 178.673 86.888 182.889 86.6613 187.019C87.5775 178.587 94.1086 171.088 102.079 169.317C110.049 167.545 118.843 171.638 122.838 178.979C125.168 177.287 128.038 176.509 130.904 176.792C133.77 177.074 136.433 178.397 138.388 180.51C142.226 184.864 142.301 192.285 138.553 196.803C134.804 201.321 127.739 202.325 123.04 199.008L121.068 200.428C121.649 204.042 119.216 207.937 115.799 208.862C113.028 209.612 109.318 208.988 107.997 211.641C107.074 213.494 108.117 215.716 109.313 217.368C110.509 219.021 111.956 220.753 111.874 222.831C111.751 225.968 108.277 227.76 105.277 228.065C98.0449 228.803 90.6211 224.608 87.3066 217.912C87.2427 217.783 87.172 217.653 87.0945 217.522C85.1661 214.339 83.9073 210.797 83.3951 207.112C82.8829 203.426 83.1281 199.675 84.1157 196.088C84.5161 194.68 84.4141 193.585 83.4645 193.126C79.3598 191.145 66.9962 192.792 63.0323 195.145C59.0681 197.497 55.7191 200.838 51.867 203.386C48.0147 205.934 43.2847 207.69 38.9422 206.35C35.4642 205.277 32.7487 202.336 31.0872 198.981C29.426 195.627 28.6899 191.86 28.0732 188.131C35.3913 193.61 46.3795 192.999 53.2116 186.732Z" fill="#2F2E41"/>
<path d="M646.676 25.8223H306.22C305.866 25.8148 305.529 25.6689 305.281 25.4161C305.033 25.1632 304.895 24.8234 304.895 24.4695C304.895 24.1156 305.033 23.7758 305.281 23.523C305.529 23.2701 305.866 23.1242 306.22 23.1167H646.676C647.03 23.1242 647.367 23.2701 647.614 23.523C647.862 23.7758 648.001 24.1156 648.001 24.4695C648.001 24.8234 647.862 25.1632 647.614 25.4161C647.367 25.6689 647.03 25.8148 646.676 25.8223Z" fill="#CACACA"/>
<path d="M329.395 16.2096C333.777 16.2096 337.33 12.581 337.33 8.10481C337.33 3.62865 333.777 0 329.395 0C325.013 0 321.461 3.62865 321.461 8.10481C321.461 12.581 325.013 16.2096 329.395 16.2096Z" fill="#3F3D56"/>
<path d="M356.805 16.2096C361.187 16.2096 364.74 12.581 364.74 8.10481C364.74 3.62865 361.187 0 356.805 0C352.423 0 348.871 3.62865 348.871 8.10481C348.871 12.581 352.423 16.2096 356.805 16.2096Z" fill="#3F3D56"/>
<path d="M384.215 16.2096C388.597 16.2096 392.15 12.581 392.15 8.10481C392.15 3.62865 388.597 0 384.215 0C379.833 0 376.281 3.62865 376.281 8.10481C376.281 12.581 379.833 16.2096 384.215 16.2096Z" fill="#3F3D56"/>
<path d="M630.173 2.00879H610.702C610.316 2.01647 609.949 2.17505 609.678 2.45047C609.408 2.72589 609.257 3.0962 609.257 3.48189C609.257 3.86758 609.408 4.23789 609.678 4.51331C609.949 4.78873 610.316 4.94731 610.702 4.95499H630.173C630.559 4.94731 630.926 4.78873 631.196 4.51331C631.467 4.23789 631.618 3.86758 631.618 3.48189C631.618 3.0962 631.467 2.72589 631.196 2.45047C630.926 2.17505 630.559 2.01647 630.173 2.00879Z" fill="#3F3D56"/>
<path d="M630.173 7.53857H610.702C610.316 7.54625 609.949 7.70483 609.678 7.98025C609.408 8.25568 609.257 8.62599 609.257 9.01168C609.257 9.39736 609.408 9.76767 609.678 10.0431C609.949 10.3185 610.316 10.4771 610.702 10.4848H630.173C630.559 10.4771 630.926 10.3185 631.196 10.0431C631.467 9.76767 631.618 9.39736 631.618 9.01168C631.618 8.62599 631.467 8.25568 631.196 7.98025C630.926 7.70483 630.559 7.54625 630.173 7.53857Z" fill="#3F3D56"/>
<path d="M630.172 13.0605H610.702C610.316 13.0682 609.948 13.2267 609.678 13.5022C609.408 13.7776 609.256 14.1479 609.256 14.5336C609.256 14.9194 609.408 15.2897 609.678 15.5651C609.948 15.8406 610.316 15.9991 610.702 16.0067H630.172C630.558 15.9991 630.926 15.8406 631.196 15.5651C631.466 15.2897 631.618 14.9194 631.618 14.5336C631.618 14.1479 631.466 13.7776 631.196 13.5022C630.926 13.2267 630.558 13.0682 630.172 13.0605Z" fill="#3F3D56"/>
<path d="M49.7991 336.749L49.8105 336.733L49.7991 336.764V336.749Z" fill="#2F2E41"/>
<path d="M517.491 78.5397C522.909 78.5397 527.301 74.1514 527.301 68.7381C527.301 63.3248 522.909 58.9365 517.491 58.9365C512.073 58.9365 507.682 63.3248 507.682 68.7381C507.682 74.1514 512.073 78.5397 517.491 78.5397Z" fill="#E6E7E8"/>
<path d="M600.169 90.4419H510.603C510.219 90.4425 509.838 90.3675 509.483 90.2211C509.128 90.0747 508.806 89.8598 508.534 89.5887C508.262 89.3176 508.047 88.9956 507.9 88.6412C507.753 88.2868 507.677 87.9069 507.677 87.5232C507.677 87.1395 507.753 86.7596 507.9 86.4052C508.047 86.0508 508.262 85.7288 508.534 85.4577C508.806 85.1866 509.128 84.9717 509.483 84.8253C509.838 84.6789 510.219 84.6039 510.603 84.6045H600.169C600.553 84.6039 600.933 84.6789 601.288 84.8253C601.643 84.9717 601.966 85.1866 602.237 85.4577C602.509 85.7288 602.725 86.0508 602.872 86.4052C603.019 86.7596 603.094 87.1395 603.094 87.5232C603.094 87.9069 603.019 88.2868 602.872 88.6412C602.725 88.9956 602.509 89.3176 602.237 89.5887C601.966 89.8598 601.643 90.0747 601.288 90.2211C600.933 90.3675 600.553 90.4425 600.169 90.4419Z" fill="#E6E7E8"/>
<path d="M532.848 101.975H510.603C509.828 101.975 509.085 101.668 508.537 101.12C507.989 100.573 507.682 99.8307 507.682 99.0565C507.682 98.2824 507.989 97.54 508.537 96.9926C509.085 96.4452 509.828 96.1377 510.603 96.1377H532.848C533.623 96.1377 534.366 96.4452 534.914 96.9926C535.462 97.54 535.77 98.2824 535.77 99.0565C535.77 99.8307 535.462 100.573 534.914 101.12C534.366 101.668 533.623 101.975 532.848 101.975Z" fill="#E6E7E8"/>
<path d="M517.491 231.527C522.909 231.527 527.301 227.139 527.301 221.725C527.301 216.312 522.909 211.924 517.491 211.924C512.073 211.924 507.682 216.312 507.682 221.725C507.682 227.139 512.073 231.527 517.491 231.527Z" fill="#E6E7E8"/>
<path d="M600.169 243.429H510.603C509.828 243.429 509.085 243.122 508.537 242.574C507.989 242.027 507.682 241.285 507.682 240.51C507.682 239.736 507.989 238.994 508.537 238.447C509.085 237.899 509.828 237.592 510.603 237.592H600.169C600.943 237.592 601.686 237.899 602.234 238.447C602.782 238.994 603.09 239.736 603.09 240.51C603.09 241.285 602.782 242.027 602.234 242.574C601.686 243.122 600.943 243.429 600.169 243.429Z" fill="#E6E7E8"/>
<path d="M532.848 254.963H510.603C509.828 254.963 509.085 254.655 508.537 254.108C507.989 253.56 507.682 252.818 507.682 252.044C507.682 251.27 507.989 250.527 508.537 249.98C509.085 249.433 509.828 249.125 510.603 249.125H532.848C533.623 249.125 534.366 249.433 534.914 249.98C535.462 250.527 535.77 251.27 535.77 252.044C535.77 252.818 535.462 253.56 534.914 254.108C534.366 254.655 533.623 254.963 532.848 254.963Z" fill="#E6E7E8"/>
<path d="M359.615 208.311C365.033 208.311 369.425 203.922 369.425 198.509C369.425 193.096 365.033 188.708 359.615 188.708C354.197 188.708 349.806 193.096 349.806 198.509C349.806 203.922 354.197 208.311 359.615 208.311Z" fill="#E6E7E8"/>
<path d="M442.293 220.213H352.727C351.952 220.213 351.209 219.906 350.661 219.359C350.114 218.811 349.806 218.069 349.806 217.295C349.806 216.521 350.114 215.778 350.661 215.231C351.209 214.683 351.952 214.376 352.727 214.376H442.293C443.068 214.376 443.811 214.683 444.358 215.231C444.906 215.778 445.214 216.521 445.214 217.295C445.214 218.069 444.906 218.811 444.358 219.359C443.811 219.906 443.068 220.213 442.293 220.213Z" fill="#E6E7E8"/>
<path d="M374.972 231.747H352.727C351.952 231.747 351.209 231.439 350.661 230.892C350.113 230.345 349.806 229.602 349.806 228.828C349.806 228.054 350.113 227.311 350.661 226.764C351.209 226.217 351.952 225.909 352.727 225.909H374.972C375.747 225.909 376.49 226.217 377.038 226.764C377.586 227.311 377.894 228.054 377.894 228.828C377.894 229.602 377.586 230.345 377.038 230.892C376.49 231.439 375.747 231.747 374.972 231.747Z" fill="#E6E7E8"/>
<path d="M517.491 149.267C522.909 149.267 527.301 144.878 527.301 139.465C527.301 134.052 522.909 129.664 517.491 129.664C512.073 129.664 507.682 134.052 507.682 139.465C507.682 144.878 512.073 149.267 517.491 149.267Z" fill="#E6E7E8"/>
<path d="M600.169 161.169H510.603C509.828 161.169 509.085 160.861 508.537 160.314C507.989 159.767 507.682 159.024 507.682 158.25C507.682 157.476 507.989 156.734 508.537 156.186C509.085 155.639 509.828 155.332 510.603 155.332H600.169C600.943 155.332 601.686 155.639 602.234 156.186C602.782 156.734 603.09 157.476 603.09 158.25C603.09 159.024 602.782 159.767 602.234 160.314C601.686 160.861 600.943 161.169 600.169 161.169Z" fill="#E6E7E8"/>
<path d="M564.423 172.702H510.603C509.828 172.702 509.085 172.395 508.537 171.848C507.989 171.3 507.682 170.558 507.682 169.784C507.682 169.009 507.989 168.267 508.537 167.72C509.085 167.172 509.828 166.865 510.603 166.865H564.423C565.198 166.865 565.941 167.172 566.489 167.72C567.037 168.267 567.345 169.009 567.345 169.784C567.345 170.558 567.037 171.3 566.489 171.848C565.941 172.395 565.198 172.702 564.423 172.702Z" fill="#E6E7E8"/>
<path d="M549.428 184.236H510.603C509.828 184.236 509.085 183.928 508.537 183.381C507.989 182.833 507.682 182.091 507.682 181.317C507.682 180.543 507.989 179.8 508.537 179.253C509.085 178.705 509.828 178.398 510.603 178.398H549.428C550.202 178.398 550.945 178.705 551.493 179.253C552.041 179.8 552.349 180.543 552.349 181.317C552.349 182.091 552.041 182.833 551.493 183.381C550.945 183.928 550.202 184.236 549.428 184.236Z" fill="#E6E7E8"/>
<path d="M428.055 75.7715V178.68C428.054 179.398 427.768 180.087 427.26 180.595C426.752 181.103 426.064 181.389 425.345 181.391H371.079C365.075 175.828 360.15 169.206 356.55 161.858C356.313 161.385 356.087 160.908 355.873 160.423C352.592 153.312 350.607 145.673 350.009 137.865C349.968 137.384 349.935 136.907 349.913 136.422C349.839 135.183 349.806 133.926 349.806 132.665C349.795 124.27 351.381 115.949 354.481 108.146C354.666 107.661 354.862 107.181 355.066 106.704C359.147 97.1158 365.421 88.6181 373.385 81.8928C373.859 81.4896 374.338 81.0975 374.821 80.7166L374.933 80.6277C381.164 75.6977 388.886 73.0271 396.835 73.0529H425.345C426.065 73.0552 426.754 73.3426 427.262 73.8523C427.77 74.362 428.055 75.0522 428.055 75.7715Z" fill="#6C63FF"/>
<path opacity="0.2" d="M428.199 108.146V106.704H403.998V73.0532H402.558V106.704H374.821V80.7169C374.336 81.0979 373.858 81.4899 373.385 81.8931V106.704H355.066C354.862 107.181 354.666 107.662 354.481 108.146H373.385V136.423H349.913C349.935 136.907 349.968 137.384 350.009 137.865H373.385V160.423H355.873C356.087 160.908 356.313 161.385 356.55 161.859H373.385V180.822H374.821V161.859H402.558V180.822H403.998V161.859H428.199V160.423H403.998C403.997 157.461 404.581 154.527 405.715 151.79C406.849 149.053 408.512 146.566 410.609 144.471C412.705 142.376 415.194 140.715 417.934 139.581C420.673 138.448 423.609 137.865 426.574 137.865H428.199V136.423H403.998V108.146H428.199ZM402.558 160.423H374.821V137.865H402.558V160.423ZM402.558 136.423H374.821V135.857C374.822 132.218 375.539 128.614 376.933 125.252C378.327 121.89 380.37 118.835 382.946 116.262C385.521 113.689 388.579 111.648 391.944 110.255C395.309 108.863 398.916 108.146 402.558 108.146V136.423Z" fill="black"/>
<path d="M425.469 160.787C424.889 160.813 424.315 160.661 423.824 160.351C423.333 160.04 422.95 159.587 422.726 159.051C422.502 158.516 422.448 157.925 422.572 157.357C422.695 156.79 422.99 156.275 423.417 155.881C423.488 155.597 423.539 155.394 423.611 155.11C423.585 155.048 423.559 154.987 423.534 154.925C420.926 148.711 404.285 166.032 403.565 171.872C403.248 174.453 403.382 177.07 403.96 179.605C398.57 167.857 395.771 155.087 395.753 142.162C395.752 138.919 395.932 135.678 396.293 132.455C396.591 129.813 397.005 127.189 397.535 124.585C400.424 110.452 406.627 97.2056 415.634 85.9333C420.786 86.2206 425.3 85.4365 425.736 75.4609C425.814 73.6864 427.131 72.1499 427.421 70.4018C426.93 70.4663 426.43 70.5066 425.938 70.5388C425.785 70.5468 425.623 70.5549 425.47 70.5629L425.412 70.5655C424.872 70.5898 424.336 70.4574 423.869 70.1843C423.402 69.9113 423.024 69.5091 422.781 69.0264C422.537 68.5437 422.438 68.0009 422.496 67.4634C422.554 66.9259 422.767 66.4166 423.107 65.9969C423.32 65.7358 423.532 65.4748 423.745 65.2139C424.067 64.8111 424.398 64.4164 424.72 64.0136C424.758 63.9754 424.793 63.935 424.825 63.8927C425.196 63.4336 425.567 62.9825 425.938 62.5233C425.261 61.4734 424.35 60.594 423.277 59.9536C419.561 57.7785 414.433 59.2849 411.748 62.6441C409.056 66.0034 408.548 70.716 409.483 74.913C410.403 78.4843 411.924 81.8732 413.982 84.9343C413.78 85.1922 413.57 85.4419 413.369 85.6997C409.684 90.4336 406.473 95.517 403.781 100.877C404.543 94.9322 395.229 73.4641 391.627 68.9168C387.301 63.4549 378.429 65.8386 377.667 72.7625C377.66 72.8295 377.652 72.8965 377.645 72.9635C378.18 73.2651 378.704 73.5852 379.216 73.9238C379.86 74.3535 380.359 74.9675 380.647 75.6854C380.936 76.4032 381.001 77.1913 380.833 77.9465C380.666 78.7018 380.274 79.3888 379.709 79.9177C379.144 80.4466 378.432 80.7927 377.667 80.9105L377.589 80.9226C370.428 91.1392 393.385 117.731 399.131 111.76C396.426 119.419 394.73 127.396 394.084 135.492C393.719 140.269 393.74 145.067 394.149 149.84L394.124 149.67C392.848 139.275 370.944 123.819 364.548 125.107C360.863 125.848 357.234 125.68 357.793 129.393C357.802 129.453 357.811 129.512 357.82 129.571C358.813 129.975 359.78 130.441 360.715 130.965C361.25 131.267 361.773 131.587 362.286 131.925C362.929 132.355 363.428 132.969 363.717 133.687C364.005 134.405 364.07 135.193 363.903 135.948C363.735 136.703 363.343 137.39 362.778 137.919C362.213 138.448 361.502 138.794 360.737 138.912L360.658 138.924C360.602 138.932 360.553 138.94 360.497 138.948C357.237 150.155 381.411 168.242 396.108 162.487H396.116C397.572 168.811 399.682 174.966 402.412 180.854H424.906C424.987 180.604 425.059 180.347 425.132 180.097C423.05 180.228 420.959 180.103 418.908 179.726C420.576 177.68 422.245 175.618 423.914 173.572C423.951 173.533 423.986 173.493 424.019 173.451C424.866 172.404 425.72 171.364 426.567 170.317L426.567 170.316C426.612 167.106 426.244 163.903 425.47 160.787L425.469 160.787ZM399.712 110.157L399.723 110.141L399.712 110.173V110.157ZM394.729 155.035L394.536 154.6C394.544 154.286 394.544 153.972 394.536 153.65C394.536 153.561 394.52 153.473 394.52 153.384C394.592 153.94 394.657 154.496 394.737 155.052L394.729 155.035Z" fill="#2F2E41"/>
</g>
<defs>
<clipPath id="clip0_789_1102">
<rect width="648" height="513" fill="white"/>
</clipPath>
</defs>
</svg>
