<svg width="467" height="550" fill="none" xmlns="http://www.w3.org/2000/svg"><g clip-path="url(#a)"><path d="M460.039 460.044H148.826a6.967 6.967 0 0 1-4.92-2.043 6.984 6.984 0 0 1-2.041-4.927V6.97a6.983 6.983 0 0 1 2.041-4.926A6.965 6.965 0 0 1 148.826 0h311.213a6.965 6.965 0 0 1 4.92 2.044A6.983 6.983 0 0 1 467 6.97v446.104a6.984 6.984 0 0 1-2.041 4.927 6.967 6.967 0 0 1-4.92 2.043z" fill="#3F3D56"/><path d="M453.487 453.484H155.378a6.964 6.964 0 0 1-4.92-2.044 6.98 6.98 0 0 1-2.041-4.926V13.531a6.983 6.983 0 0 1 2.041-4.927 6.965 6.965 0 0 1 4.92-2.043h298.109a6.965 6.965 0 0 1 4.92 2.043 6.983 6.983 0 0 1 2.041 4.927v432.983a6.98 6.98 0 0 1-2.041 4.926 6.964 6.964 0 0 1-4.92 2.044z" fill="#fff"/><path d="M236.922 430.781c-26.519-35.052-16.002-75.058-31.539-102.967-59.545-106.966 13.777-97.111 96.674-76.31l.198 2.308c-52.761 8.153-87.46 35.342-95.2 74.596-6.015 30.507 5.023 66.276 31.08 100.719l-1.213 1.654z" fill="#F0F0F0"/><path d="m295.174 300.329-.554-2.2c29.601-13.438 27.058-53.463 53.541-62.602 201.742-69.625 2.601-77.477-42.192-114.305-40.057-32.934-83.712-71.224-139.192-90.945l.443-2.245c55.722 19.807 105.395 52.273 139.865 91.417 34.644 39.34 49.826 80.775 42.748 116.672-5.581 28.307-24.482 50.509-54.659 64.208z" fill="#F0F0F0"/><path d="M214.596 223.186c-13.527-1.07 2.435-10.034 3.504-23.579a24.613 24.613 0 0 1 8.538-16.781 24.561 24.561 0 0 1 17.89-5.817 24.578 24.578 0 0 1 21.437 16.937 24.633 24.633 0 0 1 1.121 9.536c-1.069 13.545-38.962 20.774-52.49 19.704zM344.479 138.861a24.565 24.565 0 0 1-16.753-8.554 24.613 24.613 0 0 1-5.805-17.909c1.068-13.544-25.794-22.605-12.267-21.535 13.527 1.07 62.321 11.865 61.253 25.41a24.616 24.616 0 0 1-8.542 16.774 24.545 24.545 0 0 1-17.886 5.814z" fill="#F40638"/><path d="M374.087 107.985c1.782 3.703.731 7.981-1.623 11.178-2.678 3.637-6.937 5.429-11.307 6.022-4.69.57-9.446.177-13.98-1.153-4.374-1.264-8.912-3.973-9.815-8.812-.601-3.226.774-6.668 4.119-7.562a8.04 8.04 0 0 1 7.626 2.071c2.777 2.895 2.566 7.541.801 10.904-2.077 3.954-6.231 6.136-10.503 6.856-5.078.857-10.181-.339-14.958-2.041-5.193-1.849-10.23-4.152-15.318-6.268-9.921-4.126-20.056-8.001-30.726-9.644-16.299-2.51-35.642 1.398-45.62 15.706-5.386 7.724-6.912 17.411-5.752 26.626 1.222 9.718 5.481 18.648 11.12 26.556a112.766 112.766 0 0 0 9.758 11.693 8.058 8.058 0 0 1 1.857 8.773c-3.091 7.605-15.45 5.182-16.37-2.657-.419-3.562 1.566-7.23 4.046-9.646a19.057 19.057 0 0 1 10.17-4.934c8.019-1.34 16.496 1.637 22.625 6.808 6.926 5.842 10.824 14.72 12.878 23.363 2.338 9.84 2.457 19.96 2.679 30.019.227 10.293.618 20.708 3.567 30.642a75.763 75.763 0 0 0 10.958 22.327 79 79 0 0 0 39.376 29.218 72.237 72.237 0 0 0 11.78 2.763c1.565.233 1.752-2.221.194-2.452-17.423-2.587-33.446-12.032-44.916-25.309a75.043 75.043 0 0 1-13.422-22.403c-3.74-9.872-4.689-20.357-4.994-30.834-.312-10.701-.142-21.498-2.281-32.039-1.892-9.318-5.602-18.754-12.473-25.544-6.058-5.986-14.725-9.69-23.291-9.293-7.97.37-16.493 4.765-18.861 12.908-1.112 3.821-.405 7.922 2.508 10.76a12.384 12.384 0 0 0 12.689 2.685 10.28 10.28 0 0 0 5.28-5.193 10.308 10.308 0 0 0 .427-7.398 12.53 12.53 0 0 0-3.081-4.719c-7.19-7.689-13.788-16.293-17.369-26.304-3.34-9.338-4.025-20.08-.173-29.372 7.291-17.59 28.453-22.876 45.69-20.417 11.281 1.609 21.962 5.885 32.411 10.26 5.336 2.233 10.638 4.716 16.172 6.426 4.955 1.531 10.272 2.299 15.376 1.044 4.456-1.096 8.551-3.69 10.709-7.839 1.96-3.77 2.299-8.552-.033-12.245-3.371-5.339-12.678-6.54-16.07-.543-2.25 3.979-1.145 9.073 1.811 12.373 3.314 3.7 8.276 5.211 13.025 5.974 8.973 1.441 20.024.308 24.824-8.567 1.978-3.656 2.512-8.015.672-11.837a1.233 1.233 0 0 0-1.623-.536 1.23 1.23 0 0 0-.589 1.606z" fill="#3F3D56"/><path d="M345.222 327.294c-14.345-1.134-52.7 18.519-63.083 10.064a63.285 63.285 0 0 1-3.765-3.3 67.707 67.707 0 0 1-10.442-12.491 59.97 59.97 0 0 1-1.475-2.337 69.112 69.112 0 0 1-4.383-8.696c-.22-.544-.439-1.096-.659-1.648a68.572 68.572 0 0 1-.835-47.143 68.456 68.456 0 0 1 29.799-36.508 68.314 68.314 0 0 1 46.305-8.567 68.367 68.367 0 0 1 40.859 23.437 68.252 68.252 0 0 1 13.294 24.767c-.001.009.007.009.007.017a68.833 68.833 0 0 1 .169 37.944l-.001.016c-.079.274-.158.547-.246.82-8.959 30.361-12.764 26.218-45.544 23.625z" fill="#F40638"/><path d="M262.384 310.566a1.296 1.296 0 0 1-.31-.032c-.22-.544-.439-1.096-.658-1.648a1.22 1.22 0 0 1 1.161-.772 16.773 16.773 0 0 0 3.689-.424c10.506-2.377 16.63-13.146 19.254-22.76 3.22-11.764 3.264-24.404 9.084-35.377a31.062 31.062 0 0 1 9.684-11.335 22.032 22.032 0 0 1 15.359-3.597c12.676 1.677 21.927 11.449 33.695 15.473 4.847 1.659 10.007 2.067 14.855.18 4.119-1.599 7.876-4.757 8.727-9.296a1.194 1.194 0 0 1 .619-.873 55.665 55.665 0 0 1 1.625 2.004c-.189.82-.464 1.617-.82 2.379-2.068 4.344-6.192 7.152-10.682 8.557-5.197 1.621-10.603 1.004-15.66-.811-11.792-4.231-21.491-14.689-34.51-15.34-11.284-.564-19.082 8.724-22.837 18.413-4.643 11.988-3.953 25.426-9.165 37.238-4.101 9.292-12.32 17.978-23.11 18.021z" fill="#3F3D56"/><path d="M267.932 321.567a59.225 59.225 0 0 1-1.475-2.337c.114-.091.247-.157.388-.193.142-.035.29-.04.433-.014a41.538 41.538 0 0 0 29.649-7.912 41.102 41.102 0 0 0 9.605-9.902c2.722-3.996 4.366-8.489 6.211-12.925 1.815-4.364 3.946-8.777 7.556-11.939 3.68-3.221 8.428-4.573 13.237-4.719 11.397-.341 21.335 6.146 32.427 7.484 4.948.597 9.859-.117 14.095-2.883 3.656-2.392 6.317-6.138 6.146-10.635-.063-1.486 2.098-1.389 2.414-.081.021.09.033.182.035.275.196 5.23-3.016 9.706-7.244 12.473-4.912 3.223-10.652 4.019-16.396 3.203-11.113-1.587-21.385-8.322-32.884-7.307a17.244 17.244 0 0 0-12.47 6.442c-3.026 3.89-4.625 8.642-6.492 13.15a45.611 45.611 0 0 1-7.339 12.425 44.967 44.967 0 0 1-10.923 9.221 43.504 43.504 0 0 1-26.973 6.174zM282.139 337.358a63.285 63.285 0 0 1-3.765-3.3 46.398 46.398 0 0 0 19.144.798 48.208 48.208 0 0 0 21.975-9.564 42.28 42.28 0 0 0 8.355-8.75c2.681-3.777 5.023-7.952 9.065-10.453 8.775-5.427 19.277-.466 28.038 2.201 4.572 1.398 9.484 2.346 14.141.798 3.611-1.204 7.116-3.871 7.83-7.813.278-1.549 2.736-1.363 2.449.194-.056.292-.12.583-.192.873-1.127 4.279-4.623 7.367-8.751 8.867-5.386 1.943-10.967 1.032-16.317-.6-8.801-2.687-20.302-8.211-28.264-.59-3.359 3.213-5.419 7.566-8.448 11.078a45.712 45.712 0 0 1-9.266 8.217 51.206 51.206 0 0 1-35.994 8.044z" fill="#3F3D56"/><path d="M453.896 512.118h-58.147a6.97 6.97 0 0 1-6.961-6.971v-20.501a6.98 6.98 0 0 1 2.041-4.926 6.962 6.962 0 0 1 4.92-2.044h58.147a6.965 6.965 0 0 1 4.921 2.044 6.98 6.98 0 0 1 2.041 4.926v20.501a6.973 6.973 0 0 1-6.962 6.971z" fill="#E6E6E6"/><path d="m116.69 274.193 1.535 14.254-.904 18.691 41.347-4.919 3.885-28.026-4.95.05-40.913-.05z" fill="#FFB6B6"/><path d="m166.025 230.022-12.783-4.734-5.463-7.943-19.649-1.967-12.12 7.775-10.161 5.18.174 27.052 11.682 48.441 41.768-1.64 5.498-34.543s12.772-17.177-.982-27.014l2.036-10.607z" fill="#CCC"/><path d="M95.244 532.978h9.04l4.301-34.913h-13.34v34.913z" fill="#FFB6B6"/><path d="m92.294 526.778 14.442-.863v6.196l13.73 9.495a3.868 3.868 0 0 1 1.494 4.336 3.866 3.866 0 0 1-3.69 2.718h-17.194l-2.963-6.128-1.157 6.128h-6.483l1.82-21.882z" fill="#2F2E41"/><path d="M146.021 532.978h9.04l4.301-34.913h-13.341v34.913z" fill="#FFB6B6"/><path d="m143.071 526.778 14.442-.863v6.196l13.73 9.495a3.868 3.868 0 0 1 1.494 4.336 3.872 3.872 0 0 1-3.69 2.718h-17.194l-2.964-6.128-1.157 6.128h-6.482l1.821-21.882zM91.344 502.87h.098l1.739-56.766a14.862 14.862 0 0 1 .194-14.027l.25-.451-.646-2.995a19.102 19.102 0 0 1 1.089-11.483l1.622-52.953c-5.795-37.6 21.819-62.121 21.819-62.121h41.365l8.881 30.552c5.871 57.272 4.805 113.082-4.511 167.153l.254.128c.915.316 1.307 1.585.876 2.834-.43 1.248-1.52 2.004-2.435 1.688l-21.846-.76c-.914-.316-1.306-1.585-.876-2.834.431-1.249 1.521-2.005 2.435-1.689l1.486.753-3.168-54.778.352-10.005-.725-11.351-3.348-51.056-12.675 62.785-12.946 68.008a2.388 2.388 0 0 1-.256 3.737 2.376 2.376 0 0 1-1.35.415H91.344a2.39 2.39 0 0 1-2.389-2.392 2.392 2.392 0 0 1 2.39-2.392z" fill="#2F2E41"/><path d="M87.043 342.047a7.508 7.508 0 0 1-2.276-5.931 7.519 7.519 0 0 1 3.08-5.556l11.022-67.736 12.925 4.554-13.097 65.251a7.56 7.56 0 0 1-1.65 9.892 7.531 7.531 0 0 1-10.005-.474h.001z" fill="#FFB6B6"/><path d="M107.587 228.274s-3.707-1.399-5.053 6.897c-1.077 6.642-11.594 46.733-10.599 56.022a5.896 5.896 0 0 0-3.922 6.073l19.392.1c2.969-3.243 3.354-7.156 1.92-8.117l2.683-11.853 12.635-38.241-14.358-9.918-2.698-.963z" fill="#CCC"/><path d="M176.322 344.931a7.518 7.518 0 0 0 .186-11.514l-3.931-68.133-14.497 3.122 7.442 66.137a7.559 7.559 0 0 0 .792 9.998 7.536 7.536 0 0 0 10.008.39z" fill="#FFB6B6"/><path d="M165.632 229.808s3.814-1.074 4.442 7.308c.502 6.71 7.534 47.558 5.745 56.727a5.896 5.896 0 0 1 2.785 2.614 5.912 5.912 0 0 1 .601 3.775l-19.329-1.572c-2.68-3.487-2.727-7.418-1.216-8.252l-1.654-12.04-9.302-39.188 15.158-8.644 2.77-.728z" fill="#CCC"/><path d="M129.334 213.981c10.799 0 19.553-8.766 19.553-19.58 0-10.813-8.754-19.579-19.553-19.579-10.8 0-19.554 8.766-19.554 19.579 0 10.814 8.754 19.58 19.554 19.58z" fill="#FFB8B8"/><path d="M90.472 235.549c-4.138-1.469-8.275-2.94-12.413-4.413a12.488 12.488 0 0 1 2.687-3.167c3.94-3.294 9.378-3.89 14.38-5.001 5.009-1.111 10.447-3.389 12.278-8.183 1.903-4.985-.856-10.366-2.457-15.446-2.243-7.088-2.196-15.001.809-21.796 3.004-6.794 9.108-12.303 16.353-13.922 7.245-1.611 15.434 1.016 19.889 6.953a12.245 12.245 0 0 1 8.675.619 12.27 12.27 0 0 1 6.085 6.223c1.038 2.604 1.07 5.739-.476 8.08-1.546 2.342-4.851 3.54-7.34 2.239l1.442-3.667c-4.462 1.516-7.364 9.596-6.761 14.279.594 4.675 3.321 8.771 6.088 12.588 2.766 3.818 5.715 7.676 6.904 12.24 1.712 6.564-.602 13.739-4.883 19.001-4.281 5.263-10.313 8.835-16.559 11.462a76.666 76.666 0 0 1-14.507 4.476c.888-1.73 1.768-3.46 2.656-5.19l-10.535 6.381a78.615 78.615 0 0 1-6.144.357c-5.977.103-12.072-.524-17.542-2.913-5.477-2.397-10.29-6.738-12.271-12.382a16.066 16.066 0 0 1-.888-5.683c4.844-1.048 9.687-2.093 14.53-3.135z" fill="#2F2E41"/><path d="M70.752 527.094a2.963 2.963 0 0 1-2.144-5.136l.202-.807-.08-.194a7.944 7.944 0 0 0-7.347-4.855 7.95 7.95 0 0 0-7.311 4.91c-2.398 5.781-5.45 11.573-6.202 17.686a23.57 23.57 0 0 0 .413 8.096 94.479 94.479 0 0 1-8.574-39.197 91.19 91.19 0 0 1 .564-10.162 94.813 94.813 0 0 1 1.297-8.239 95.53 95.53 0 0 1 18.908-40.463A25.39 25.39 0 0 0 71.03 437.77a19.4 19.4 0 0 0 1.76-5.296c-.514.068-1.036.11-1.55.144l-.488.025-.06.003a2.931 2.931 0 0 1-2.75-1.612 2.937 2.937 0 0 1 .342-3.171l.666-.82c.337-.421.682-.835 1.019-1.256.039-.04.075-.083.11-.127.387-.481.774-.953 1.162-1.434a8.49 8.49 0 0 0-2.78-2.69c-3.883-2.277-9.239-.7-12.044 2.817-2.813 3.517-3.343 8.45-2.366 12.844a34.05 34.05 0 0 0 4.7 10.491c-.211.269-.43.531-.64.801a96.073 96.073 0 0 0-10.017 15.888 39.99 39.99 0 0 0-2.381-18.553c-2.28-5.507-6.553-10.144-10.315-14.904-4.52-5.718-13.788-3.223-14.584 4.025l-.023.211a27.61 27.61 0 0 1 1.642 1.005 4.02 4.02 0 0 1-1.619 7.314l-.082.013c.2 2.017.552 4.015 1.053 5.979a41.19 41.19 0 0 0 7.546 15.043 41.12 41.12 0 0 0 12.929 10.762c.328.169.648.338.977.498a98.182 98.182 0 0 0-5.273 24.844c-.382 5-.359 10.023.068 15.019l-.026-.177a24.587 24.587 0 0 0-8.38-14.193c-6.449-5.304-15.56-7.257-22.517-11.521a4.596 4.596 0 0 0-4.96-.012 4.608 4.608 0 0 0-2.068 4.686 26.59 26.59 0 0 1 4.665 2.464 4.016 4.016 0 0 1 1.689 4.211 4.021 4.021 0 0 1-3.307 3.103l-.082.012-.169.026a40.03 40.03 0 0 0 7.353 11.528 41.138 41.138 0 0 0 29.848 13.113h.009a98.118 98.118 0 0 0 6.578 19.228h23.497c.085-.261.16-.531.236-.793a26.636 26.636 0 0 1-6.502-.388c1.744-2.142 3.487-4.301 5.23-6.443.04-.04.076-.082.11-.126.884-1.096 1.777-2.184 2.661-3.28v-.002a39.21 39.21 0 0 0-1.145-9.975z" fill="#279D13"/><path d="M228.581 549.748 2.747 550a.975.975 0 0 1-.69-1.667.975.975 0 0 1 .69-.286l225.834-.252a.975.975 0 0 1 .689 1.667.975.975 0 0 1-.689.286z" fill="#CACACA"/></g><defs><clipPath id="a"><path fill="#fff" d="M0 0h467v550H0z"/></clipPath></defs></svg>