<svg width="705" height="450" viewBox="0 0 705 450" fill="none" xmlns="http://www.w3.org/2000/svg">
<g clip-path="url(#clip0_789_953)">
<path d="M686.92 409.142C683.717 410.268 680.277 410.55 676.933 409.961C673.589 409.372 670.453 407.932 667.827 405.779C661.139 400.166 659.042 390.923 657.336 382.362L652.29 357.039L662.855 364.312C670.453 369.542 678.221 374.941 683.482 382.517C688.742 390.093 691.037 400.435 686.811 408.633" fill="#279D13"/>
<path d="M685.289 441.563C686.619 431.877 687.987 422.066 687.052 412.276C686.223 403.581 683.57 395.091 678.169 388.126C675.302 384.437 671.813 381.276 667.86 378.785C666.829 378.135 665.881 379.768 666.907 380.416C673.747 384.738 679.038 391.121 682.017 398.643C685.307 407.009 685.835 416.128 685.268 425.015C684.926 430.389 684.198 435.727 683.467 441.06C683.409 441.301 683.445 441.555 683.568 441.771C683.69 441.986 683.89 442.147 684.127 442.221C684.368 442.286 684.626 442.254 684.843 442.13C685.061 442.007 685.221 441.802 685.288 441.562L685.289 441.563Z" fill="#3CE92D"/>
<path d="M675.718 426.021C674.344 428.109 672.456 429.809 670.234 430.955C668.013 432.102 665.534 432.657 663.035 432.568C656.613 432.263 651.262 427.783 646.445 423.529L632.194 410.949L641.625 410.498C648.408 410.173 655.366 409.868 661.826 411.962C668.286 414.056 674.244 419.086 675.425 425.772" fill="#279D13"/>
<path d="M689.048 447.131C682.646 435.805 675.221 423.219 661.953 419.196C658.264 418.081 654.396 417.682 650.557 418.019C649.347 418.124 649.649 419.988 650.857 419.884C657.292 419.35 663.715 421.049 669.043 424.695C674.172 428.185 678.164 433.037 681.543 438.182C683.614 441.334 685.468 444.619 687.322 447.9C687.914 448.949 689.647 448.191 689.048 447.131Z" fill="#3CE92D"/>
<path d="M434.542 11.9062H0.185303V217.982H434.542V11.9062Z" fill="#E6E6E6"/>
<path d="M422.122 29.5776H12.6057V201.513H422.122V29.5776Z" fill="white"/>
<path d="M434.357 0H0V18.4497H434.357V0Z" fill="#F40638"/>
<path d="M13.7126 14.2684C15.6015 14.2684 17.1328 12.7374 17.1328 10.8488C17.1328 8.9602 15.6015 7.4292 13.7126 7.4292C11.8237 7.4292 10.2925 8.9602 10.2925 10.8488C10.2925 12.7374 11.8237 14.2684 13.7126 14.2684Z" fill="white"/>
<path d="M26.6946 14.2684C28.5835 14.2684 30.1147 12.7374 30.1147 10.8488C30.1147 8.9602 28.5835 7.4292 26.6946 7.4292C24.8057 7.4292 23.2744 8.9602 23.2744 10.8488C23.2744 12.7374 24.8057 14.2684 26.6946 14.2684Z" fill="white"/>
<path d="M39.677 14.2684C41.5659 14.2684 43.0971 12.7374 43.0971 10.8488C43.0971 8.9602 41.5659 7.4292 39.677 7.4292C37.7881 7.4292 36.2568 8.9602 36.2568 10.8488C36.2568 12.7374 37.7881 14.2684 39.677 14.2684Z" fill="white"/>
<path d="M402.02 166.691H198.971C198.802 166.691 198.641 166.624 198.522 166.505C198.402 166.386 198.335 166.224 198.335 166.055V68.7501C198.335 68.5816 198.402 68.42 198.522 68.3008C198.641 68.1817 198.802 68.1147 198.971 68.1147C199.139 68.1147 199.301 68.1817 199.42 68.3008C199.539 68.42 199.606 68.5816 199.606 68.7501V165.42H402.02C402.189 165.42 402.35 165.487 402.47 165.606C402.589 165.725 402.656 165.887 402.656 166.055C402.656 166.224 402.589 166.386 402.47 166.505C402.35 166.624 402.189 166.691 402.02 166.691V166.691Z" fill="#3F3D56"/>
<path d="M242.354 159.702H223.886C223.386 159.701 222.906 159.503 222.553 159.149C222.199 158.795 222 158.316 222 157.816V132.362C222 131.862 222.199 131.383 222.553 131.029C222.906 130.676 223.386 130.477 223.886 130.476H242.354C242.854 130.477 243.333 130.676 243.687 131.029C244.041 131.383 244.24 131.862 244.24 132.362V157.816C244.24 158.316 244.041 158.795 243.687 159.149C243.333 159.503 242.854 159.701 242.354 159.702Z" fill="#F40638"/>
<path d="M276.033 159.702H257.565C257.064 159.701 256.585 159.502 256.231 159.149C255.878 158.795 255.679 158.316 255.678 157.816V108.218C255.679 107.718 255.878 107.239 256.231 106.886C256.585 106.532 257.064 106.333 257.565 106.333H276.033C276.533 106.333 277.012 106.532 277.366 106.886C277.719 107.239 277.918 107.718 277.919 108.218V157.816C277.918 158.316 277.72 158.795 277.366 159.149C277.012 159.502 276.533 159.701 276.033 159.702Z" fill="#F40638"/>
<path d="M309.712 159.702H291.244C290.743 159.701 290.264 159.503 289.91 159.149C289.557 158.795 289.358 158.316 289.357 157.816V132.362C289.358 131.862 289.557 131.383 289.91 131.029C290.264 130.676 290.743 130.477 291.244 130.476H309.712C310.212 130.477 310.691 130.676 311.045 131.029C311.398 131.383 311.597 131.862 311.598 132.362V157.816C311.597 158.316 311.398 158.795 311.045 159.149C310.691 159.503 310.212 159.701 309.712 159.702Z" fill="#F40638"/>
<path d="M343.391 159.702H324.922C324.434 159.712 323.961 159.529 323.607 159.191C323.254 158.854 323.048 158.39 323.036 157.901V98.6031C323.048 98.1145 323.254 97.6507 323.607 97.3132C323.961 96.9758 324.434 96.7922 324.922 96.8027H343.391C343.879 96.7922 344.352 96.9758 344.706 97.3132C345.059 97.6507 345.265 98.1145 345.277 98.6031V157.901C345.265 158.39 345.059 158.854 344.706 159.191C344.352 159.529 343.879 159.712 343.391 159.702Z" fill="#F40638"/>
<path d="M377.07 159.702H358.601C358.101 159.701 357.622 159.503 357.268 159.149C356.915 158.795 356.716 158.316 356.715 157.816V81.5343C356.716 81.0343 356.915 80.555 357.268 80.2014C357.622 79.8479 358.101 79.649 358.601 79.6484H377.07C377.57 79.649 378.049 79.8479 378.403 80.2014C378.756 80.555 378.955 81.0343 378.956 81.5343V157.816C378.955 158.316 378.756 158.795 378.403 159.149C378.049 159.503 377.57 159.701 377.07 159.702Z" fill="#F40638"/>
<path d="M233.12 122.852C235.226 122.852 236.933 121.145 236.933 119.04C236.933 116.934 235.226 115.228 233.12 115.228C231.014 115.228 229.307 116.934 229.307 119.04C229.307 121.145 231.014 122.852 233.12 122.852Z" fill="#3F3D56"/>
<path d="M266.799 98.0734C268.904 98.0734 270.611 96.3666 270.611 94.2613C270.611 92.1559 268.904 90.4492 266.799 90.4492C264.693 90.4492 262.986 92.1559 262.986 94.2613C262.986 96.3666 264.693 98.0734 266.799 98.0734Z" fill="#3F3D56"/>
<path d="M300.478 122.852C302.583 122.852 304.29 121.145 304.29 119.04C304.29 116.934 302.583 115.228 300.478 115.228C298.372 115.228 296.665 116.934 296.665 119.04C296.665 121.145 298.372 122.852 300.478 122.852Z" fill="#3F3D56"/>
<path d="M334.156 86.0016C336.262 86.0016 337.969 84.2949 337.969 82.1895C337.969 80.0842 336.262 78.3774 334.156 78.3774C332.051 78.3774 330.344 80.0842 330.344 82.1895C330.344 84.2949 332.051 86.0016 334.156 86.0016Z" fill="#3F3D56"/>
<path d="M367.835 72.024C369.941 72.024 371.648 70.3173 371.648 68.212C371.648 66.1066 369.941 64.3999 367.835 64.3999C365.73 64.3999 364.023 66.1066 364.023 68.212C364.023 70.3173 365.73 72.024 367.835 72.024Z" fill="#3F3D56"/>
<path d="M300.558 119.894L266.799 94.612L233.5 119.549L232.739 118.531L266.799 93.024L300.397 118.186L333.785 81.655L333.919 81.6003L367.598 68.0327L368.073 69.2117L334.528 82.7246L300.558 119.894Z" fill="#3F3D56"/>
<path d="M116.573 50.5928H58.8975V54.9271H116.573V50.5928Z" fill="#E6E6E6"/>
<path d="M147.961 63.3169H58.8975V67.6512H147.961V63.3169Z" fill="#6C63FF"/>
<path d="M132.408 75.4346H59.8235V79.7689H132.408V75.4346Z" fill="#E6E6E6"/>
<path d="M101.271 88.731H58.8975V93.0652H101.271V88.731Z" fill="#E6E6E6"/>
<path d="M122.85 101.718H58.8975V106.053H122.85V101.718Z" fill="#6C63FF"/>
<path d="M39.6724 49.2295H32.6101V56.2906H39.6724V49.2295Z" fill="#E6E6E6"/>
<path d="M39.6724 61.9531H32.6101V69.0142H39.6724V61.9531Z" fill="#6C63FF"/>
<path d="M39.6724 74.0713H32.6101V81.1324H39.6724V74.0713Z" fill="#E6E6E6"/>
<path d="M39.6724 87.3677H32.6101V94.4288H39.6724V87.3677Z" fill="#E6E6E6"/>
<path d="M39.6724 100.355H32.6101V107.416H39.6724V100.355Z" fill="#6C63FF"/>
<path d="M116.573 114.787H58.8975V119.121H116.573V114.787Z" fill="#E6E6E6"/>
<path d="M147.961 127.511H58.8975V131.846H147.961V127.511Z" fill="#6C63FF"/>
<path d="M132.408 139.629H59.8235V143.963H132.408V139.629Z" fill="#E6E6E6"/>
<path d="M101.271 152.925H58.8975V157.26H101.271V152.925Z" fill="#E6E6E6"/>
<path d="M122.85 165.913H58.8975V170.247H122.85V165.913Z" fill="#E6E6E6"/>
<path d="M39.6724 113.424H32.6101V120.485H39.6724V113.424Z" fill="#E6E6E6"/>
<path d="M39.6724 126.148H32.6101V133.209H39.6724V126.148Z" fill="#6C63FF"/>
<path d="M39.6724 138.266H32.6101V145.327H39.6724V138.266Z" fill="#E6E6E6"/>
<path d="M39.6724 151.562H32.6101V158.623H39.6724V151.562Z" fill="#E6E6E6"/>
<path d="M39.6724 164.549H32.6101V171.61H39.6724V164.549Z" fill="#E6E6E6"/>
<path d="M527.166 132.919C529.595 125.178 535.12 118.078 542.76 115.461C550.401 112.844 563.729 115.29 567.333 122.554C572.525 133.023 570.193 145.844 567.439 157.211C566.003 157.135 564.554 157.075 563.101 157.02L561.045 150.17V156.953C549.702 156.602 537.893 156.822 526.078 157.049C525.019 149.001 524.737 140.66 527.166 132.919Z" fill="#2F2E41"/>
<path d="M631.394 427.889L621.851 431.887L601.886 396.993L615.969 391.091L631.394 427.889Z" fill="#FFB7B7"/>
<path d="M637.703 436.117L606.936 449.009L606.773 448.62C605.443 445.444 605.428 441.87 606.732 438.684C608.037 435.497 610.554 432.96 613.729 431.628L613.73 431.628L632.521 423.754L637.703 436.117Z" fill="#2F2E41"/>
<path d="M491.465 263.053C490.869 262.193 490.469 261.212 490.293 260.181C490.117 259.15 490.169 258.092 490.446 257.083C490.723 256.074 491.217 255.138 491.895 254.341C492.573 253.544 493.417 252.905 494.369 252.47L514.877 190.595L528.612 197.919L504.134 256.437C504.76 258.084 504.76 259.903 504.134 261.549C503.508 263.196 502.3 264.556 500.738 265.371C499.177 266.187 497.37 266.401 495.661 265.974C493.952 265.546 492.459 264.507 491.465 263.053V263.053Z" fill="#FFB7B7"/>
<path d="M516.751 438.982L506.405 438.981L501.483 399.083L516.752 399.083L516.751 438.982Z" fill="#FFB7B7"/>
<path d="M519.389 449.009L486.03 449.008V448.586C486.03 445.143 487.398 441.841 489.833 439.407C492.268 436.972 495.571 435.604 499.014 435.604H499.015L519.39 435.605L519.389 449.009Z" fill="#2F2E41"/>
<path d="M558.231 212.047L560.576 218.14L560.107 224.234L515.098 218.61L516.505 213.453L521.662 207.359L558.231 212.047Z" fill="#FFB7B7"/>
<path d="M543.726 157.207C552.775 157.207 560.112 149.872 560.112 140.824C560.112 131.776 552.775 124.44 543.726 124.44C534.676 124.44 527.339 131.776 527.339 140.824C527.339 149.872 534.676 157.207 543.726 157.207Z" fill="#FFB8B8"/>
<path d="M560.825 218.577L516.193 213.831L514.259 207.508C513.659 206.684 507.994 198.657 509.25 190.632C509.561 188.742 510.258 186.936 511.297 185.326C512.336 183.716 513.694 182.337 515.289 181.274L526.14 168.57L535.687 162.889L554.506 161.007L554.571 161.022L571.467 164.844L571.262 195.81L560.825 218.577Z" fill="#CCCCCC"/>
<path d="M517.318 221.859L504.813 220.374L504.846 219.982C504.961 218.601 507.695 186.088 510.496 178.62C513.357 170.992 525.75 168.616 526.276 168.519L526.428 168.491L529.182 170.143L521.582 193.889L517.318 221.859Z" fill="#CCCCCC"/>
<path d="M560.576 221.891V232.303C560.576 232.303 572.766 248.142 566.202 260.33C566.202 260.33 580.267 286.58 581.205 295.956L594.333 339.082C594.333 339.082 627.152 371.896 624.339 395.334L626.214 402.834L604.647 412.209L599.959 405.647L563.389 342.832L532.445 285.643L526.819 353.145C526.819 353.145 530.57 405.647 520.255 411.272L519.318 419.71H497.43V411.689C497.43 411.689 489.312 383.146 494 361.583L492.125 270.642C492.125 270.642 500.564 232.204 510.879 225.641L514.629 216.266L560.576 221.891Z" fill="#2F2E41"/>
<path d="M544.989 243.419C545.367 243.504 545.738 243.619 546.098 243.762L574.704 224.075L574.049 215.665L586.614 213.018L589.22 227.794C589.431 228.987 589.248 230.217 588.7 231.298C588.152 232.379 587.268 233.254 586.181 233.79L550.746 251.262C550.612 252.749 550.028 254.159 549.073 255.306C548.117 256.452 546.835 257.281 545.397 257.681C543.959 258.081 542.433 258.034 541.022 257.546C539.612 257.058 538.383 256.152 537.5 254.949C536.617 253.746 536.121 252.303 536.078 250.811C536.035 249.319 536.448 247.849 537.261 246.598C538.074 245.346 539.249 244.372 540.629 243.804C542.01 243.236 543.53 243.102 544.989 243.419L544.989 243.419Z" fill="#FFB7B7"/>
<path d="M574.434 225.162L568.611 186.325L563.832 166.263L570.973 164.771C571.167 164.699 576.982 162.734 581.676 165.898C585.055 168.175 586.927 172.498 587.239 178.744L589.13 223.183L574.434 225.162Z" fill="#CCCCCC"/>
<path d="M532.466 119.49C535.615 117.571 539.221 116.533 542.908 116.484C546.596 116.436 550.228 117.378 553.426 119.214C556.624 121.049 559.27 123.71 561.088 126.918C562.905 130.126 563.827 133.763 563.758 137.449C554.598 137.87 544.976 137.98 535.22 137.999L532.914 132.357L531.555 138.003C528.582 138.003 525.603 137.999 522.619 137.991C522.498 134.316 523.343 130.672 525.071 127.426C526.799 124.179 529.349 121.443 532.466 119.49Z" fill="#2F2E41"/>
<path d="M704.184 450H393.067C392.851 450 392.643 449.914 392.49 449.761C392.337 449.608 392.251 449.4 392.251 449.184C392.251 448.967 392.337 448.759 392.49 448.606C392.643 448.453 392.851 448.367 393.067 448.367H704.184C704.4 448.367 704.608 448.453 704.761 448.606C704.914 448.759 705 448.967 705 449.184C705 449.4 704.914 449.608 704.761 449.761C704.608 449.914 704.4 450 704.184 450Z" fill="#CBCBCB"/>
</g>
<defs>
<clipPath id="clip0_789_953">
<rect width="705" height="450" fill="white"/>
</clipPath>
</defs>
</svg>
