<svg width="518" height="549" viewBox="0 0 518 549" fill="none" xmlns="http://www.w3.org/2000/svg">
<g clip-path="url(#clip0_789_1011)">
<path d="M198.3 87.3583C211.862 87.3583 222.856 76.3617 222.856 62.7968C222.856 49.2319 211.862 38.2354 198.3 38.2354C184.737 38.2354 173.743 49.2319 173.743 62.7968C173.743 76.3617 184.737 87.3583 198.3 87.3583Z" fill="#FD6584"/>
<path d="M253.258 51.1662C252.566 48.8949 251.224 46.8758 249.399 45.3575C247.574 43.8391 245.344 42.8877 242.985 42.6205C242.93 42.6159 242.875 42.6159 242.82 42.6205C242.754 42.5998 242.686 42.5845 242.618 42.5745C234.396 41.5075 225.254 44.1015 219.101 49.7496C216.817 51.8132 214.99 54.3326 213.739 57.1454C212.599 55.5872 211.096 54.3305 209.36 53.4842C207.624 52.6379 205.709 52.2275 203.779 52.2884C201.29 52.453 198.913 53.3813 196.97 54.9469C195.028 56.5124 193.616 58.6389 192.927 61.0365C192.851 61.3294 192.872 61.639 192.986 61.9191C193.1 62.1992 193.302 62.4349 193.561 62.5911C194.301 63.2239 195.18 63.6716 196.127 63.8973C198.16 64.3297 200.211 64.7252 202.262 65.084C206.271 65.7831 210.303 66.3503 214.355 66.7857C217.032 67.0709 219.714 67.2978 222.403 67.4665C227.958 67.816 233.54 67.8988 239.104 67.724C241.863 67.632 244.512 67.54 247.032 66.3258C248.868 65.4225 250.438 64.056 251.585 62.3611C252.665 60.7308 253.374 58.8835 253.663 56.9494C253.952 55.0152 253.814 53.0412 253.258 51.1662Z" fill="#E6E6E6"/>
<path d="M202.74 86.9495C202.693 85.9203 202.52 84.9008 202.225 83.9139C201.529 81.6428 200.185 79.6244 198.359 78.1063C196.532 76.5883 194.302 75.6366 191.943 75.3682C191.891 75.3636 191.838 75.3636 191.786 75.3682C191.717 75.3485 191.646 75.3332 191.575 75.3222C187.024 74.7647 182.407 75.2394 178.065 76.7112C171.388 78.9466 165.529 83.4539 162.706 89.8931C161.564 88.3339 160.059 87.0766 158.322 86.2303C156.585 85.384 154.668 84.9741 152.736 85.0361C150.247 85.2007 147.87 86.129 145.928 87.6945C143.986 89.26 142.573 91.3866 141.884 93.7842C141.812 94.0771 141.835 94.3852 141.949 94.6644C142.063 94.9436 142.262 95.1796 142.518 95.3388C143.259 95.9698 144.138 96.4173 145.084 96.645C147.126 97.0773 149.168 97.4729 151.228 97.8316C155.238 98.5308 159.266 99.098 163.313 99.5334C171.534 100.416 179.806 100.73 188.071 100.472C190.821 100.38 193.479 100.288 195.999 99.0735C197.832 98.1699 199.398 96.8033 200.542 95.1088C202.154 92.7059 202.927 89.8373 202.74 86.9495Z" fill="#E6E6E6"/>
<path d="M384.551 396.909H362.166V47.383C360.657 46.2699 359.14 45.1661 357.604 44.0898C357.3 43.8783 356.997 43.6667 356.693 43.4551C338.989 31.0686 319.836 20.8929 299.663 13.1543L295.322 73.0384L295.322 73.0421H267.391V3.11839C265.57 2.66765 263.749 2.2445 261.91 1.84895V73.0421H156.44V0C154.609 0.340355 152.779 0.689913 150.958 1.06706V73.0421H122.108L122.107 73.0384L117.555 10.2383C97.9228 17.0448 79.1606 26.1407 61.6561 37.3379C61.0491 37.7242 60.4421 38.1106 59.8351 38.5153C58.6119 39.3064 57.3887 40.1159 56.184 40.9346V396.91H24.6661C20.6337 396.907 16.6622 397.894 13.0999 399.784C9.53759 401.674 6.4932 404.409 4.23364 407.749C1.97408 411.09 0.568332 414.934 0.139679 418.944C-0.288974 422.955 0.272541 427.009 1.77499 430.752C2.22578 431.884 2.76389 432.978 3.38445 434.027C4.18595 435.394 5.116 436.681 6.16194 437.872C8.47239 440.505 11.3183 442.615 14.5093 444.06C17.7004 445.505 21.1632 446.253 24.6661 446.252H384.551C391.093 446.252 397.367 443.653 401.993 439.026C406.618 434.399 409.217 428.124 409.217 421.581C409.217 415.037 406.618 408.762 401.993 404.136C397.367 399.509 391.093 396.91 384.551 396.91L384.551 396.909ZM289.307 156.179L271.898 396.909H145.532L128.122 156.179H289.307ZM294.927 78.5236L290.632 137.907H267.391V78.5236H294.927ZM261.91 78.5236V137.907H219.942C219.102 136.258 217.822 134.873 216.244 133.906C214.666 132.938 212.851 132.426 211 132.426H205.52C203.669 132.426 201.854 132.938 200.276 133.906C198.698 134.873 197.418 136.258 196.578 137.907H156.44V78.5236H261.91ZM150.958 137.907H126.798L122.503 78.5236H150.958V137.907Z" fill="#F2F2F2"/>
<path d="M2.17773 436.691C10.1673 446.16 18.809 455.059 28.0395 463.322L377.136 464.242C386.367 455.979 395.008 447.08 402.998 437.611L2.17773 436.691Z" fill="#3F3D56"/>
<path d="M178.474 347.638V441.98H244.553V347.638C244.555 346.959 244.338 346.298 243.936 345.752C243.534 345.205 242.967 344.802 242.319 344.602C242.013 344.501 241.693 344.451 241.371 344.455H181.665C181.246 344.454 180.832 344.536 180.445 344.695C180.058 344.855 179.706 345.089 179.41 345.385C179.113 345.68 178.878 346.031 178.717 346.418C178.557 346.804 178.474 347.219 178.474 347.638ZM204.262 380.054C204.279 378.194 205.03 376.417 206.351 375.108C207.672 373.799 209.456 373.065 211.316 373.065C213.175 373.065 214.959 373.799 216.28 375.108C217.601 376.417 218.352 378.194 218.37 380.054V391.001C218.36 392.866 217.613 394.651 216.291 395.966C214.969 397.282 213.18 398.02 211.316 398.02C209.451 398.02 207.662 397.282 206.34 395.966C205.019 394.651 204.271 392.866 204.262 391.001V380.054Z" fill="#2F2E41"/>
<path d="M178.271 438.963V448.061C178.273 448.532 178.46 448.984 178.792 449.318C179.125 449.652 179.575 449.842 180.046 449.846H242.981C243.452 449.843 243.904 449.654 244.237 449.32C244.569 448.985 244.756 448.533 244.756 448.061V438.963H178.271Z" fill="#3F3D56"/>
<path d="M74.5208 205.498V377.754C74.5225 379.95 75.3951 382.054 76.947 383.607C78.4989 385.159 80.6033 386.032 82.798 386.033H338.013C340.207 386.032 342.312 385.159 343.864 383.607C345.415 382.054 346.288 379.95 346.29 377.754V205.498C346.285 203.305 345.411 201.203 343.859 199.653C342.308 198.103 340.205 197.231 338.013 197.228H82.798C80.6052 197.231 78.5029 198.103 76.9514 199.653C75.4 201.203 74.526 203.305 74.5208 205.498Z" fill="#3F3D56"/>
<path d="M80.5079 207.641V375.63C80.51 376.803 80.9767 377.927 81.8059 378.756C82.635 379.585 83.759 380.052 84.9317 380.054H335.888C337.061 380.052 338.185 379.585 339.014 378.756C339.843 377.927 340.31 376.803 340.312 375.63V207.641C340.312 206.467 339.846 205.341 339.017 204.51C338.187 203.678 337.062 203.21 335.888 203.208H84.9317C83.7576 203.21 82.6325 203.678 81.8032 204.51C80.9739 205.341 80.5081 206.467 80.5079 207.641Z" fill="#6C63FF"/>
<path d="M131.68 451.989C131.935 452.309 132.26 452.567 132.629 452.744C132.999 452.921 133.404 453.012 133.813 453.01H283.116C283.524 453.009 283.928 452.918 284.296 452.742C284.665 452.566 284.989 452.31 285.246 451.993C285.504 451.676 285.687 451.305 285.783 450.908C285.879 450.511 285.885 450.098 285.802 449.698L283.484 438.687C283.388 438.238 283.181 437.821 282.882 437.472C282.584 437.123 282.202 436.855 281.773 436.691C281.463 436.569 281.132 436.507 280.799 436.507H136.122C135.788 436.507 135.457 436.569 135.147 436.691C134.718 436.855 134.337 437.123 134.038 437.472C133.739 437.82 133.532 438.238 133.436 438.687L131.119 449.698C131.036 450.098 131.044 450.511 131.141 450.907C131.238 451.303 131.422 451.673 131.68 451.989Z" fill="#2F2E41"/>
<path d="M136.122 438.807C136.076 438.807 136.031 438.814 135.989 438.831C135.916 438.855 135.85 438.898 135.797 438.955C135.745 439.011 135.707 439.08 135.687 439.155L133.368 450.172C133.356 450.236 133.358 450.301 133.374 450.364C133.39 450.427 133.42 450.486 133.462 450.536L133.472 450.548C133.512 450.6 133.564 450.642 133.623 450.67C133.683 450.698 133.748 450.712 133.813 450.71H283.116C283.181 450.711 283.246 450.697 283.305 450.669C283.364 450.641 283.416 450.6 283.456 450.549C283.5 450.5 283.532 450.441 283.548 450.378C283.565 450.314 283.567 450.248 283.554 450.183L281.234 439.16C281.217 439.088 281.183 439.021 281.134 438.965C281.085 438.91 281.024 438.866 280.955 438.839C280.905 438.818 280.852 438.807 280.799 438.807H136.122Z" fill="white"/>
<path d="M93.0004 226.348H327.819C328.063 226.343 328.296 226.242 328.466 226.068C328.637 225.893 328.733 225.659 328.733 225.414C328.733 225.17 328.637 224.936 328.466 224.761C328.296 224.587 328.063 224.486 327.819 224.48H93.0004C92.7563 224.486 92.524 224.587 92.3533 224.761C92.1826 224.936 92.087 225.17 92.087 225.414C92.087 225.659 92.1826 225.893 92.3533 226.068C92.524 226.242 92.7563 226.343 93.0004 226.348Z" fill="#3F3D56"/>
<path d="M311.835 219.712C314.857 219.712 317.307 217.207 317.307 214.116C317.307 211.026 314.857 208.521 311.835 208.521C308.812 208.521 306.362 211.026 306.362 214.116C306.362 217.207 308.812 219.712 311.835 219.712Z" fill="#3F3D56"/>
<path d="M292.93 219.712C295.952 219.712 298.402 217.207 298.402 214.116C298.402 211.026 295.952 208.521 292.93 208.521C289.907 208.521 287.457 211.026 287.457 214.116C287.457 217.207 289.907 219.712 292.93 219.712Z" fill="#3F3D56"/>
<path d="M274.024 219.712C277.047 219.712 279.497 217.207 279.497 214.116C279.497 211.026 277.047 208.521 274.024 208.521C271.002 208.521 268.552 211.026 268.552 214.116C268.552 217.207 271.002 219.712 274.024 219.712Z" fill="#3F3D56"/>
<path d="M103.382 210.925C103.381 211.058 103.407 211.189 103.457 211.311C103.507 211.434 103.581 211.545 103.674 211.639C103.767 211.733 103.877 211.808 103.999 211.859C104.121 211.91 104.252 211.937 104.384 211.937H117.812C118.077 211.931 118.33 211.821 118.515 211.631C118.701 211.441 118.805 211.186 118.805 210.921C118.805 210.655 118.701 210.4 118.515 210.21C118.33 210.02 118.077 209.91 117.812 209.904H104.384C104.116 209.908 103.861 210.017 103.673 210.208C103.485 210.399 103.38 210.657 103.382 210.925Z" fill="#3F3D56"/>
<path d="M103.382 214.743C103.381 214.875 103.407 215.006 103.457 215.129C103.507 215.251 103.581 215.362 103.674 215.456C103.767 215.55 103.877 215.625 103.999 215.676C104.121 215.727 104.252 215.754 104.384 215.755H117.812C118.078 215.749 118.33 215.639 118.516 215.449C118.702 215.259 118.806 215.004 118.806 214.738C118.806 214.472 118.702 214.217 118.516 214.027C118.33 213.837 118.078 213.728 117.812 213.722H104.384C104.116 213.725 103.861 213.834 103.673 214.025C103.485 214.217 103.38 214.475 103.382 214.743Z" fill="#3F3D56"/>
<path d="M103.382 218.551C103.38 218.819 103.485 219.077 103.673 219.268C103.861 219.46 104.116 219.569 104.384 219.572H117.812C118.077 219.566 118.33 219.456 118.515 219.266C118.701 219.076 118.805 218.821 118.805 218.556C118.805 218.29 118.701 218.035 118.515 217.845C118.33 217.655 118.077 217.545 117.812 217.539H104.384C104.252 217.54 104.121 217.566 103.999 217.617C103.877 217.669 103.767 217.743 103.674 217.837C103.581 217.931 103.507 218.043 103.457 218.165C103.407 218.288 103.381 218.419 103.382 218.551Z" fill="#3F3D56"/>
<path d="M292.831 254.859H127.988C125.823 254.862 123.746 255.723 122.215 257.255C120.684 258.787 119.822 260.863 119.82 263.029V343.276C119.822 345.443 120.684 347.519 122.215 349.051C123.746 350.583 125.822 351.444 127.988 351.447H292.831C294.997 351.444 297.073 350.583 298.604 349.051C300.136 347.519 300.997 345.443 300.999 343.276V263.029C300.997 260.863 300.135 258.787 298.604 257.255C297.073 255.723 294.997 254.862 292.831 254.859ZM299.16 263.029V286.442H241.219V256.699H292.831C294.509 256.701 296.118 257.369 297.304 258.555C298.491 259.742 299.158 261.351 299.16 263.029H299.16ZM181.439 318.025V288.281H239.38V318.025H181.439ZM239.38 319.864V349.607H181.439V319.864H239.38ZM179.6 318.025H121.659V288.281H179.6V318.025ZM181.439 286.442V256.699H239.38V286.442H181.439ZM241.219 288.281H299.16V318.025H241.219V288.281ZM127.988 256.699H179.6V286.442H121.659V263.029C121.661 261.351 122.329 259.742 123.515 258.555C124.702 257.369 126.31 256.701 127.988 256.699V256.699ZM121.659 343.276V319.864H179.6V349.607H127.988C126.31 349.605 124.701 348.937 123.515 347.751C122.328 346.564 121.661 344.955 121.659 343.276ZM292.831 349.607H241.219V319.864H299.16V343.276C299.158 344.955 298.491 346.564 297.304 347.751C296.118 348.937 294.509 349.605 292.831 349.607H292.831Z" fill="#3F3D56"/>
<path d="M202.032 275.233C200.569 272.813 198.835 270.229 196.121 269.439C192.977 268.524 189.748 270.342 187.008 272.136C178.816 277.5 170.927 283.314 163.377 289.55L163.385 289.644L181.019 288.428C185.266 288.135 189.659 287.802 193.412 285.792C194.836 285.03 196.224 284.011 197.838 283.94C199.843 283.852 201.591 285.253 202.965 286.716C211.092 295.372 213.444 308.608 222.561 316.213C216.812 302.032 209.947 288.329 202.032 275.233Z" fill="white"/>
<path d="M251.986 348.65C251.088 347.514 250.72 347.249 249.834 346.103C242.616 336.766 235.831 327.113 229.481 317.144C225.167 310.374 221.067 303.474 217.181 296.444C215.331 293.102 213.532 289.734 211.783 286.339C210.427 283.707 209.1 281.059 207.804 278.395C207.433 277.635 207.073 276.87 206.714 276.104C205.87 274.303 205.041 272.493 204.151 270.716C203.231 268.583 201.823 266.696 200.04 265.207C199.193 264.562 198.179 264.172 197.118 264.082C195.624 264.091 194.161 264.51 192.888 265.294C183.258 270.358 174.269 276.558 166.115 283.761C157.947 290.936 150.647 299.041 144.362 307.912C144.17 308.187 143.715 307.924 143.91 307.648C144.674 306.567 145.453 305.498 146.247 304.44C156.125 291.3 168.238 280 182.03 271.057C184.35 269.553 186.714 268.119 189.122 266.756C190.336 266.069 191.554 265.391 192.794 264.754C193.982 264.057 195.315 263.644 196.688 263.547C201.413 263.474 203.859 268.825 205.539 272.426C206.067 273.56 206.602 274.69 207.143 275.816C209.187 280.092 211.31 284.329 213.511 288.527C214.87 291.119 216.258 293.696 217.676 296.257C222.089 304.234 226.78 312.049 231.749 319.703C238.33 329.842 244.859 338.798 252.357 348.279C252.563 348.541 252.195 348.915 251.986 348.65Z" fill="white"/>
<path d="M165.647 281.119C165.373 280.813 165.1 280.507 164.824 280.201C162.645 277.791 160.307 275.409 157.315 274.027C155.889 273.348 154.332 272.986 152.752 272.969C151.121 273.014 149.514 273.364 148.013 274.003C147.3 274.288 146.602 274.611 145.915 274.956C145.13 275.351 144.359 275.772 143.591 276.197C142.15 276.995 140.728 277.828 139.325 278.695C136.532 280.421 133.827 282.279 131.21 284.269C129.853 285.301 128.524 286.366 127.223 287.466C126.013 288.487 124.827 289.536 123.666 290.612C123.418 290.841 123.047 290.47 123.295 290.241C123.601 289.956 123.911 289.673 124.22 289.393C125.095 288.603 125.983 287.827 126.885 287.067C128.531 285.678 130.219 284.343 131.949 283.062C134.64 281.068 137.424 279.21 140.3 277.486C141.738 276.626 143.195 275.802 144.672 275.013C145.118 274.776 145.569 274.543 146.025 274.323C147.061 273.8 148.137 273.362 149.242 273.013C150.809 272.506 152.466 272.343 154.102 272.535C155.681 272.765 157.202 273.291 158.585 274.087C161.523 275.729 163.801 278.268 166.018 280.747C166.242 280.998 165.873 281.371 165.647 281.119Z" fill="white"/>
<path d="M225.837 306.093L232.877 303.518L236.371 302.239C237.501 301.784 238.652 301.388 239.822 301.051C240.845 300.758 241.93 300.772 242.945 301.09C243.85 301.425 244.678 301.939 245.381 302.601C246.099 303.262 246.766 303.975 247.379 304.735C248.14 305.649 248.889 306.574 249.643 307.495C252.75 311.297 255.838 315.115 258.905 318.949C261.973 322.784 265.019 326.635 268.046 330.502C271.079 334.379 274.092 338.272 277.084 342.181C277.45 342.66 277.817 343.139 278.182 343.618C278.385 343.883 278.84 343.622 278.635 343.353C275.621 339.405 272.586 335.473 269.53 331.557C266.467 327.631 263.382 323.722 260.277 319.83C257.171 315.938 254.044 312.063 250.896 308.205C250.112 307.244 249.327 306.283 248.54 305.324C247.876 304.515 247.22 303.697 246.492 302.944C245.872 302.197 245.111 301.58 244.253 301.128C243.394 300.675 242.454 300.397 241.488 300.308C240.318 300.349 239.164 300.602 238.085 301.056C236.908 301.482 235.734 301.916 234.558 302.346L227.47 304.939L225.698 305.587C225.383 305.702 225.519 306.209 225.837 306.093V306.093Z" fill="white"/>
<path d="M156.389 277.059C154.581 276.168 152.567 275.774 150.556 275.918C148.544 276.062 146.608 276.738 144.944 277.878C151.214 278.96 157.415 280.408 163.516 282.213C160.983 280.728 159.001 278.402 156.389 277.059Z" fill="white"/>
<path d="M144.909 277.872L144.22 278.431C144.453 278.236 144.695 278.052 144.944 277.878L144.909 277.872Z" fill="white"/>
<path d="M245.116 306.118C244.5 305.21 243.641 304.493 242.637 304.049L241.67 304.087C249.035 317.105 258.984 328.481 270.904 337.515L245.116 306.118Z" fill="white"/>
<path d="M240.589 291.865C243.666 291.865 246.161 289.369 246.161 286.291C246.161 283.213 243.666 280.718 240.589 280.718C237.511 280.718 235.016 283.213 235.016 286.291C235.016 289.369 237.511 291.865 240.589 291.865Z" fill="white"/>
<path d="M321.453 348.227C322.55 348.225 323.601 347.789 324.377 347.013C325.153 346.237 325.59 345.185 325.591 344.088V258.539C325.591 257.441 325.155 256.388 324.379 255.612C323.603 254.836 322.55 254.399 321.453 254.399C320.355 254.399 319.302 254.836 318.526 255.612C317.75 256.388 317.314 257.441 317.314 258.539V344.088C317.316 345.185 317.752 346.237 318.528 347.013C319.304 347.789 320.355 348.225 321.453 348.227Z" fill="#3F3D56"/>
<path d="M321.453 348.227C322.55 348.225 323.601 347.789 324.377 347.013C325.153 346.237 325.59 345.185 325.591 344.087V325.947C325.114 325.297 324.491 324.769 323.772 324.404C323.053 324.04 322.259 323.85 321.453 323.85C320.647 323.85 319.852 324.04 319.133 324.404C318.414 324.769 317.791 325.297 317.314 325.947V344.087C317.316 345.185 317.752 346.237 318.528 347.013C319.304 347.789 320.355 348.225 321.453 348.227Z" fill="#2F2E41"/>
<path d="M321.453 330.749C322.633 330.748 323.764 330.278 324.598 329.443C325.432 328.609 325.902 327.478 325.904 326.297V306.788C325.391 306.089 324.721 305.521 323.948 305.129C323.174 304.737 322.32 304.533 321.453 304.533C320.586 304.533 319.731 304.737 318.958 305.129C318.185 305.521 317.514 306.089 317.002 306.788V326.297C317.003 327.478 317.473 328.609 318.307 329.443C319.142 330.278 320.273 330.748 321.453 330.749Z" fill="#6C63FF"/>
<path d="M321.453 327.202C322.313 327.201 323.138 326.858 323.747 326.249C324.355 325.641 324.698 324.816 324.699 323.955V309.725C324.325 309.215 323.836 308.801 323.272 308.515C322.708 308.229 322.085 308.08 321.453 308.08C320.82 308.08 320.197 308.229 319.633 308.515C319.069 308.801 318.58 309.215 318.206 309.725V323.955C318.207 324.816 318.55 325.641 319.158 326.249C319.767 326.858 320.592 327.201 321.453 327.202Z" fill="#3F3D56"/>
<path d="M193.778 444.334C193.051 443.684 192.613 442.771 192.558 441.797C192.503 440.823 192.837 439.867 193.486 439.139L229.645 398.672C229.967 398.312 230.356 398.018 230.792 397.809C231.227 397.599 231.699 397.477 232.182 397.45C232.664 397.423 233.147 397.491 233.603 397.651C234.059 397.81 234.479 398.058 234.839 398.38C235.199 398.702 235.493 399.092 235.702 399.527C235.912 399.963 236.034 400.435 236.061 400.918C236.088 401.4 236.02 401.883 235.86 402.339C235.7 402.795 235.453 403.216 235.131 403.576L198.972 444.043C198.322 444.77 197.409 445.208 196.435 445.263C195.462 445.318 194.506 444.984 193.778 444.334Z" fill="#F40638"/>
<path d="M493.736 510.962C493.736 517.668 492.155 522.801 492.348 526.904C481.5 531.639 470.347 535.641 458.963 538.88C457.675 539.248 456.388 539.598 455.091 539.947C448.074 518.459 441.047 498.783 438.279 496.695C431.942 491.939 428.769 511.615 428.769 506.859C428.769 502.104 431.942 502.104 424.024 495.766C416.096 489.428 420.851 460.902 420.851 460.902L409.759 432.377L422.166 386.88L438.279 327.777H454.125C454.125 327.777 454.594 328.118 455.376 328.752C459.34 331.99 471.296 342.808 469.972 354.721C469.576 358.271 470.459 368.592 471.995 382.335C476.667 423.831 487.4 468.942 487.4 480.845C487.4 496.695 493.736 501.451 493.736 510.962Z" fill="#E6E6E6"/>
<path d="M480.449 382.18C480.431 382.134 480.421 382.097 480.403 382.06C480.048 381.103 479.633 380.169 479.161 379.264C476.485 374.232 479.318 366.505 476.301 357.969C471.427 344.134 465.486 335.974 456.776 328.661C456.519 328.441 456.261 328.229 455.994 328.008L455.985 327.999C450.173 323.225 443.165 318.763 434.464 313.207C432.652 312.048 430.758 310.843 428.79 309.574C426.251 307.946 426.389 302.518 426.537 296.778C426.702 290.404 426.877 283.799 423.75 279.678L423.548 279.411L423.226 279.328C412.504 277.207 401.57 276.364 390.65 276.817H390.641C386.005 276.989 381.401 277.665 376.91 278.832C376.579 278.923 376.248 279.015 375.926 279.126C375.678 279.19 375.429 279.273 375.181 279.356L374.979 279.429L374.822 279.577C371.797 282.603 371.098 288.03 370.766 293.688V293.697C370.702 294.727 370.647 295.757 370.601 296.788C370.343 302.288 370.104 307.486 368.081 309.739C363.568 314.853 358.113 319.051 352.014 322.103C342.513 326.794 335 326.647 334.889 326.647L334.015 326.619L333.933 327.484C327.624 339.507 327.863 370.525 327.67 403.742C327.66 405.591 327.648 407.449 327.633 409.316C327.522 424.789 327.228 440.528 326.069 454.869C325.564 461.032 324.911 466.928 324.037 472.439C319.788 499.271 300.539 476.992 291.333 494.847C291.635 496.602 292.144 498.316 292.85 499.952C293.908 500.578 294.993 501.185 296.069 501.792C300.842 504.45 305.704 506.931 310.655 509.234C310.931 509.362 311.207 509.491 311.483 509.611C320.564 513.813 329.924 517.385 339.497 520.3C341.364 520.87 343.231 521.413 345.116 521.928C361.794 526.533 378.966 529.106 396.26 529.591C396.331 529.583 396.401 529.58 396.472 529.581C416.925 529.016 437.244 526.086 457.024 520.852C457.3 520.778 457.576 520.705 457.852 520.631C459.149 520.281 460.436 519.932 461.724 519.564C473.108 516.324 484.261 512.323 495.109 507.587C495.12 507.991 495.16 508.394 495.228 508.792C495.238 508.922 495.256 509.051 495.284 509.178C495.302 509.031 495.32 508.884 495.33 508.737C495.385 508.305 495.431 507.863 495.477 507.421C501.105 452.523 489.416 405.913 480.449 382.18Z" fill="#3F3D56"/>
<path d="M354.052 247.632C359.665 257.898 368.607 265.947 379.404 270.451C390.202 274.956 402.211 275.648 413.454 272.415C424.698 269.181 434.505 262.214 441.26 252.66C448.016 243.107 451.317 231.537 450.621 219.857C449.924 208.176 445.271 197.081 437.428 188.399C429.585 179.716 419.02 173.964 407.472 172.09C395.924 170.216 384.082 172.331 373.896 178.088C363.711 183.844 355.789 192.899 351.436 203.76C351.2 204.349 350.988 204.938 350.776 205.551C348.315 212.398 347.334 219.689 347.899 226.943C348.464 234.197 350.561 241.249 354.052 247.632Z" fill="#FFB6B6"/>
<path d="M346.651 205.551C348.867 199.351 347.9 202.581 350.139 196.404C348.678 201.874 350.988 204.938 350.776 205.551H412.081V169.907C394.12 162.787 376.561 156.728 365.955 169.907C356.503 169.907 347.439 173.663 340.756 180.347C334.073 187.032 330.318 196.098 330.317 205.551H346.651Z" fill="#2F2E41"/>
<path d="M368.382 304.635C368.43 303.975 368.5 303.291 368.595 302.631C369.254 297.775 370.904 293.107 372.578 288.486C374.346 283.512 376.137 278.514 377.928 273.54C375.621 282.569 376.325 292.105 379.932 300.698C390.279 292.635 383.75 274.2 397.279 274.2C429.805 274.2 463.274 247.82 463.274 215.264C463.274 182.731 449.321 158.402 416.795 158.402C384.245 158.402 357.847 173.301 357.21 205.834C397.279 215.264 360.817 301.335 368.382 304.635Z" fill="#2F2E41"/>
<path d="M459.21 210.278C480.037 210.278 496.921 193.39 496.921 172.559C496.921 151.727 480.037 134.839 459.21 134.839C438.382 134.839 421.498 151.727 421.498 172.559C421.498 193.39 438.382 210.278 459.21 210.278Z" fill="#2F2E41"/>
<path d="M518 388.876C517.871 390.817 517.758 392.884 517.66 395.076C515.71 436.37 517.393 491.958 504.251 522.121C501.308 523.731 498.334 525.27 495.33 526.739C495.21 526.794 495.1 526.849 494.998 526.904C494.189 527.3 493.38 527.686 492.571 528.054C492.541 528.08 492.507 528.098 492.469 528.109C483.582 532.31 474.423 535.908 465.053 538.881C463.904 539.249 462.745 539.599 461.586 539.948C461.338 540.022 461.089 540.095 460.841 540.169C443.189 545.39 424.941 548.324 406.543 548.899C405.586 548.926 404.648 548.945 403.737 548.963C403.416 548.972 403.103 548.981 402.79 548.981C401.76 548.991 400.739 549 399.709 549C397.631 549 395.562 548.969 393.501 548.908C376.207 548.423 359.035 545.85 342.357 541.245C340.472 540.73 338.605 540.187 336.738 539.617C327.165 536.702 317.805 533.131 308.724 528.928C308.448 528.809 308.172 528.68 307.896 528.551C302.948 526.251 298.086 523.771 293.31 521.109C292.234 520.502 291.149 519.895 290.091 519.269C289.386 517.634 288.876 515.92 288.574 514.164C286.486 504.128 284.812 510.898 283.617 490.017C282.522 470.875 281.823 451.677 281.566 440.703C281.483 437.777 281.455 435.432 281.446 433.831C282.421 426.858 298.092 418.947 320.947 411.432C323.108 410.724 325.343 410.015 327.633 409.316C333.813 407.412 340.417 405.545 347.314 403.742C364.881 399.142 384.387 394.92 403.747 391.434C413.302 389.723 422.821 388.187 432.064 386.88C448.278 384.581 463.619 382.989 476.743 382.336C478.003 382.272 479.235 382.217 480.449 382.18C481.755 382.125 483.033 382.088 484.284 382.06C503.193 381.646 516.105 383.615 518 388.876Z" fill="#2F2E41"/>
<path opacity="0.2" d="M518 388.877C517.871 390.817 517.758 392.884 517.66 395.076C503.331 379.641 348.97 448.595 283.617 490.017C282.522 470.875 281.823 451.677 281.566 440.702C281.483 437.777 281.455 435.432 281.446 433.831C282.421 426.858 298.092 418.947 320.947 411.432C323.108 410.724 325.343 410.015 327.633 409.316C333.813 407.412 340.417 405.545 347.314 403.742C364.881 399.142 384.387 394.92 403.747 391.434C413.302 389.723 422.821 388.187 432.064 386.88C448.278 384.581 463.619 382.989 476.743 382.336C478.003 382.272 479.235 382.217 480.449 382.18C481.755 382.125 483.033 382.088 484.284 382.06C503.193 381.646 516.106 383.615 518 388.877Z" fill="black"/>
<path d="M204.08 436.722C205.528 438.547 207.358 440.033 209.442 441.074C211.525 442.116 213.812 442.688 216.14 442.749C218.469 442.811 220.782 442.362 222.918 441.433C225.054 440.503 226.961 439.117 228.503 437.371L280.878 458.886L275.226 430.005L226.356 414.002C223.252 411.605 219.377 410.43 215.465 410.7C211.552 410.969 207.875 412.665 205.129 415.466C202.383 418.266 200.76 421.977 200.566 425.895C200.373 429.812 201.623 433.665 204.08 436.722Z" fill="#FFB6B6"/>
<path d="M378.302 316.457L378.015 316.426L347.473 318.644C343.595 318.926 339.822 320.029 336.403 321.88C332.984 323.732 329.998 326.29 327.643 329.384C326.549 330.817 325.601 332.358 324.815 333.981L324.807 333.986C322.175 339.374 321.381 345.478 322.548 351.36L336.927 423.757L302.33 420.613L289.701 422.772L274.797 416.758L244.216 417.279L243.508 419.623L237.092 440.894L236.589 442.565L283.287 471.998L296.825 467.879L303.203 472.779L303.509 472.787L316.157 473.037L370.095 474.095L384.839 447.969L387.142 443.873C404.265 405.506 408.491 378.721 407.15 360.269C406.448 350.52 404.194 343.109 401.466 337.524C393.03 320.264 378.896 316.602 378.302 316.457Z" fill="#3F3D56"/>
<path d="M463.979 206.046C456.827 204.438 450.197 201.05 444.703 196.197C439.209 191.343 435.029 185.181 432.55 178.282C430.338 171.863 429.503 164.814 425.789 159.102C431.446 151.331 435.983 142.802 439.266 133.767C440.537 130.27 443.513 123.92 438.468 121.996C434.449 120.463 429.882 124.163 427.5 127.082C425.69 129.294 424.392 131.88 423.699 134.653C422.877 131.024 422.055 127.395 421.233 123.766C421.129 123.418 420.894 123.124 420.578 122.944C420.262 122.765 419.889 122.714 419.536 122.803C412.803 123.951 407.919 130.187 407.071 136.756C406.608 140.138 407.377 143.573 409.238 146.435C411.401 149.726 414.569 152.086 417.583 154.539C420.789 157.147 423.506 159.926 425.229 163.74C427.02 167.705 427.827 172.044 429.015 176.207C431.271 184.203 435.641 191.442 441.665 197.162C447.69 202.882 455.145 206.87 463.246 208.707C464.976 209.086 465.716 206.426 463.979 206.046ZM425.953 140.077C425.736 136.61 426.652 133.167 428.562 130.266C429.518 128.796 430.716 127.498 432.106 126.427C433.423 125.42 435.366 124.087 437.109 124.457C439.37 124.937 438.46 127.46 437.98 128.982C437.347 130.99 436.65 132.976 435.891 134.942C434.412 138.758 432.695 142.478 430.75 146.079C429.74 147.953 428.661 149.788 427.534 151.593C426.758 148.163 425.981 144.732 425.204 141.302C425.449 141.212 425.656 141.042 425.792 140.82C425.928 140.597 425.984 140.335 425.953 140.077ZM409.84 140.626C409.389 137.491 410.043 134.297 411.691 131.592C413.338 128.888 415.876 126.842 418.869 125.806C421.058 135.477 423.248 145.148 425.438 154.82C424.986 155.486 424.52 156.143 424.053 156.799C423.93 156.658 423.818 156.513 423.691 156.374C419.098 151.374 411.088 147.966 409.84 140.626Z" fill="#F40638"/>
</g>
<defs>
<clipPath id="clip0_789_1011">
<rect width="518" height="549" fill="white"/>
</clipPath>
</defs>
</svg>
