<svg width="427" height="471" viewBox="0 0 427 471" fill="none" xmlns="http://www.w3.org/2000/svg">
<g clip-path="url(#clip0_796_1358)">
<path d="M236.875 446.943C260.557 432.425 278.216 405.653 275.503 378.029C253.959 399.193 225.616 412.062 195.488 414.36C183.866 415.204 170.852 414.933 162.397 422.944C157.136 427.928 154.756 435.358 154.447 442.594C154.138 449.831 155.686 457.004 157.224 464.083L156.751 465.828C184.535 465.557 213.194 461.46 236.875 446.943Z" fill="#279D13"/>
<path d="M274.92 378.007C265.637 399.028 249.961 416.592 230.117 428.204C225.89 430.78 221.282 432.674 216.464 433.817C211.735 434.778 206.834 434.457 202.272 432.886C197.988 431.507 193.766 429.601 189.221 429.286C186.892 429.159 184.563 429.526 182.386 430.362C180.209 431.197 178.233 432.483 176.589 434.135C172.384 438.145 169.872 443.425 167.595 448.674C165.067 454.502 162.533 460.595 157.592 464.828C156.994 465.341 157.825 466.239 158.423 465.727C167.019 458.362 168.274 446.206 175.109 437.576C178.298 433.55 182.721 430.459 188.026 430.467C192.664 430.474 197.019 432.436 201.345 433.87C205.774 435.467 210.526 435.957 215.188 435.296C220.049 434.403 224.722 432.689 229.007 430.229C238.742 424.845 247.57 417.965 255.166 409.842C263.887 400.618 270.964 389.972 276.092 378.365C276.409 377.646 275.235 377.294 274.92 378.007Z" fill="white"/>
<path d="M236.727 424.841C239.129 427.902 242.543 430.011 246.358 430.79C250.173 431.57 254.141 430.969 257.553 429.095C258.242 428.714 257.682 427.626 256.991 428.008C253.817 429.759 250.121 430.318 246.57 429.585C243.019 428.852 239.847 426.875 237.627 424.011C237.144 423.389 236.247 424.222 236.727 424.841Z" fill="white"/>
<path d="M204.351 433.871C205.238 425.968 209.074 418.69 215.093 413.487C215.69 412.972 214.859 412.074 214.263 412.588C208.008 418.014 204.032 425.597 203.128 433.822C203.042 434.606 204.266 434.651 204.351 433.871H204.351Z" fill="white"/>
<path d="M262.361 400.064C261.184 399.073 260.272 397.806 259.707 396.375C259.142 394.945 258.942 393.397 259.123 391.871C259.219 391.088 257.995 391.044 257.9 391.822C257.707 393.51 257.931 395.219 258.551 396.8C259.172 398.382 260.171 399.787 261.461 400.894C261.574 401.008 261.726 401.076 261.887 401.082C262.048 401.089 262.205 401.034 262.326 400.928C262.445 400.818 262.515 400.665 262.521 400.503C262.528 400.341 262.47 400.184 262.361 400.064H262.361Z" fill="white"/>
<path d="M197.5 325.494C197.426 325.981 197.353 326.468 197.27 326.96C196.247 333.502 194.693 339.95 192.624 346.24C192.472 346.729 192.311 347.223 192.145 347.706C186.999 362.808 179.092 376.825 168.824 389.044C164.734 393.902 160.28 398.443 155.5 402.626C148.899 408.403 141.281 414.141 137.099 421.542C136.654 422.309 136.257 423.103 135.91 423.919L154.657 465.116C154.746 465.188 154.827 465.265 154.917 465.338L155.59 467.017C155.851 466.819 156.118 466.607 156.38 466.408C156.532 466.294 156.68 466.17 156.833 466.056C156.933 465.976 157.033 465.897 157.128 465.831C157.161 465.805 157.194 465.778 157.218 465.756C157.313 465.69 157.395 465.619 157.48 465.557C158.976 464.379 160.466 463.188 161.951 461.985C161.96 461.98 161.96 461.98 161.965 461.967C173.254 452.768 183.873 442.548 192.601 431.042C192.864 430.695 193.136 430.345 193.39 429.98C197.295 424.772 200.768 419.254 203.774 413.48C205.409 410.314 206.883 407.066 208.19 403.751C211.551 395.177 213.54 386.129 214.086 376.938C215.172 358.616 210.38 340.151 198.424 326.526C198.118 326.178 197.816 325.838 197.5 325.494Z" fill="#279D13"/>
<path d="M197.019 325.825C202.275 348.192 200.344 371.644 191.498 392.852C189.675 397.451 187.138 401.735 183.979 405.545C180.783 409.157 176.676 411.848 172.086 413.338C167.835 414.814 163.315 415.831 159.497 418.313C157.561 419.613 155.922 421.307 154.687 423.283C153.453 425.26 152.651 427.475 152.333 429.783C151.392 435.514 152.569 441.241 153.914 446.801C155.408 452.975 157.057 459.364 155.663 465.716C155.494 466.485 156.7 466.702 156.868 465.934C159.293 454.883 152.969 444.422 153.225 433.421C153.345 428.287 155.014 423.159 159.254 419.975C162.962 417.191 167.622 416.138 171.94 414.681C176.438 413.293 180.528 410.825 183.852 407.494C187.195 403.857 189.893 399.678 191.832 395.137C196.36 384.982 199.262 374.179 200.431 363.124C201.836 350.514 201.071 337.758 198.169 325.405C197.989 324.641 196.84 325.065 197.019 325.825H197.019Z" fill="white"/>
<path d="M194.749 386.191C198.512 387.191 202.508 386.821 206.024 385.149C209.54 383.477 212.346 380.61 213.942 377.062C214.262 376.343 213.159 375.812 212.838 376.532C211.358 379.839 208.744 382.509 205.467 384.059C202.19 385.61 198.466 385.939 194.967 384.987C194.207 384.781 193.993 385.986 194.749 386.191Z" fill="white"/>
<path d="M174.341 412.873C170.286 406.03 168.962 397.912 170.633 390.137C170.799 389.367 169.594 389.15 169.428 389.919C167.704 398.013 169.099 406.459 173.334 413.57C173.739 414.248 174.743 413.547 174.341 412.873Z" fill="white"/>
<path d="M200.284 350.99C198.747 350.906 197.255 350.443 195.942 349.641C194.629 348.839 193.536 347.723 192.761 346.395C192.366 345.713 191.362 346.414 191.755 347.092C192.618 348.556 193.826 349.786 195.275 350.675C196.724 351.564 198.368 352.086 200.065 352.194C200.224 352.217 200.387 352.179 200.519 352.088C200.651 351.996 200.743 351.858 200.777 351.701C200.805 351.541 200.769 351.377 200.677 351.244C200.584 351.111 200.443 351.02 200.284 350.99Z" fill="white"/>
<path d="M83.4294 458.954L95.3214 458.954L100.979 413.131L83.4277 413.132L83.4294 458.954Z" fill="#FFB6B6"/>
<path d="M80.396 455.076L83.7432 455.076L96.8113 449.767L103.815 455.075H103.816C107.775 455.075 111.57 456.646 114.369 459.442C117.168 462.238 118.741 466.03 118.741 469.985V470.469L80.3967 470.47L80.396 455.076Z" fill="#2F2E41"/>
<path d="M138.677 458.954L150.569 458.954L156.226 413.131L138.675 413.132L138.677 458.954Z" fill="#FFB6B6"/>
<path d="M135.644 455.076L138.991 455.076L152.059 449.767L159.063 455.075H159.064C163.022 455.075 166.818 456.646 169.617 459.442C172.416 462.238 173.988 466.03 173.989 469.985V470.469L135.644 470.47L135.644 455.076Z" fill="#2F2E41"/>
<path d="M73.9641 165.578L89.6852 213.871L139.245 212.247L124.017 165.578H73.9641Z" fill="#E6E6E6"/>
<path d="M148.183 208.189L54.7495 210.624L56.3744 256.077C56.3744 256.077 54.7495 268.252 57.9994 271.498C61.2492 274.745 62.8741 274.745 61.2492 280.427C59.6243 286.108 68.2095 295.388 67.1667 296.43C66.124 297.471 63.6866 303.153 63.6866 303.153L71.8112 349.417C71.8112 349.417 77.4984 429.771 79.1234 431.394C80.7483 433.017 82.3732 431.394 80.7483 435.452C79.1234 439.511 77.4984 437.887 79.1234 439.511C80.5627 441.061 81.9187 442.687 83.1857 444.38H102.829C102.829 444.38 104.31 436.264 104.31 435.452C104.31 434.641 105.935 429.771 105.935 428.959C105.935 428.147 104.498 426.713 104.498 426.713C104.002 425.063 103.667 423.369 103.497 421.654C103.497 420.031 98.6225 357.534 98.6225 357.534L108.372 276.368L131.933 355.91C131.933 355.91 131.933 425.712 133.558 427.336C135.183 428.959 135.183 428.147 134.371 431.394C133.558 434.641 130.308 433.829 132.746 436.264C135.183 438.699 135.996 434.641 135.183 438.699L134.371 442.757L158.745 443.105C158.745 443.105 161.994 436.264 160.37 433.829C158.745 431.394 158.842 432.059 160.825 428.074C162.807 424.089 163.619 423.277 162.807 422.466C161.994 421.654 161.994 417.337 161.994 417.337L157.932 339.677C157.932 339.677 157.12 257.7 157.12 255.265C157.058 254.012 157.29 252.762 157.795 251.614V248.309L154.682 236.597L148.183 208.189Z" fill="#2F2E41"/>
<path d="M139.652 90.0935L111.216 79.542L64.0929 82.7886L53.1818 87.8754C49.3441 89.6645 46.22 92.6907 44.3116 96.4677C42.4032 100.245 41.8213 104.553 42.6595 108.7L56.7807 178.564L47.8436 247.554C47.8436 247.554 92.1228 269.063 105.935 213.059L110.809 191.956C110.809 191.956 112.434 256.888 158.745 243.09C158.745 243.09 157.932 230.104 157.12 225.234C156.307 220.364 154.682 220.364 153.87 217.929C153.057 215.494 151.433 217.929 153.057 213.059C154.682 208.189 140.058 174.1 140.058 174.1L139.652 90.0935Z" fill="#2F2E41"/>
<path d="M101.872 144.069L71.5234 82.2767L79.1232 68.585H103.75L113.505 80.3921L101.872 144.069Z" fill="#E6E6E6"/>
<path d="M86.729 211.315C85.4048 211.391 84.08 211.176 82.8479 210.686C81.6158 210.195 80.5063 209.441 79.5977 208.475C78.689 207.51 78.0032 206.358 77.5886 205.099C77.174 203.84 77.0407 202.506 77.1981 201.191L48.208 187.096L62.622 178.564L87.9417 193.257C90.1366 193.667 92.1045 194.868 93.4725 196.631C94.8404 198.395 95.5135 200.598 95.364 202.824C95.2145 205.05 94.2529 207.143 92.6614 208.708C91.0699 210.273 88.9591 211.201 86.729 211.315Z" fill="#FFB8B8"/>
<path d="M27.1867 176.891C25.8038 175.204 24.1959 163.448 27.2272 160.689C29.7836 158.363 29.2258 157.281 27.6005 154.845C26.189 152.73 37.0243 113.676 43.2527 95.5288C44.0829 93.1152 45.7986 91.106 48.0535 89.9065C50.3085 88.707 52.9349 88.4066 55.4029 89.0657C57.8709 89.7248 59.9968 91.2946 61.3518 93.4582C62.7068 95.6218 63.1899 98.2182 62.7038 100.724C64.9023 123.957 61.7759 139.802 52.8666 150.533L80.3911 186.961L75.3402 205.463C75.3402 205.463 28.4471 178.428 27.1867 176.891Z" fill="#2F2E41"/>
<path d="M91.7166 60.0627C105.627 60.0627 116.903 48.7976 116.903 34.9015C116.903 21.0053 105.627 9.74023 91.7166 9.74023C77.8066 9.74023 66.5303 21.0053 66.5303 34.9015C66.5303 48.7976 77.8066 60.0627 91.7166 60.0627Z" fill="#FFB8B8"/>
<path d="M118.388 16.6481C117.719 10.6305 109.018 4.61281 93.6243 0.601059C78.2306 -3.41074 70.199 13.9736 70.199 13.9736C59.4903 19.3226 65.8485 47.7393 69.1951 45.0647C72.5416 42.3903 75.5534 46.7363 75.5534 46.7363L78.0297 24.4713C81.5549 27.17 85.5284 29.455 89.7933 28.7758L84.5735 23.6414C89.5206 25.7919 94.4678 27.9423 99.4149 30.0927C97.7772 27.8414 96.1395 25.5901 94.5018 23.3389C94.6708 23.3334 94.8404 23.326 95.0098 23.3196C97.2341 25.1673 99.7802 26.5896 102.521 27.5152C105.767 28.4448 109.657 27.9419 111.881 25.4033C112.48 24.7027 112.932 23.8893 113.211 23.0112C117.25 25.7748 118.054 31.6923 118.054 31.6923C118.054 31.6923 119.057 22.6657 118.388 16.6481Z" fill="#2F2E41"/>
<path d="M96.3597 197.171C120.429 197.171 139.942 177.678 139.942 153.632C139.942 129.587 120.429 110.094 96.3597 110.094C72.2901 110.094 52.7778 129.587 52.7778 153.632C52.7778 177.678 72.2901 197.171 96.3597 197.171Z" fill="#F40638"/>
<path d="M104.244 183.102C104.972 181.995 105.934 181.06 107.063 180.364C108.191 179.668 109.459 179.228 110.776 179.075C112.094 178.921 113.429 179.058 114.688 179.476C115.946 179.894 117.098 180.582 118.062 181.492L146.671 166.642L144.935 183.289L118.034 194.839C116.395 196.355 114.257 197.218 112.025 197.264C109.792 197.31 107.62 196.536 105.92 195.09C104.22 193.643 103.111 191.624 102.802 189.414C102.493 187.205 103.006 184.959 104.244 183.102Z" fill="#FFB8B8"/>
<path d="M121.905 194.1L116.854 175.598L141.941 151.345C133.032 140.614 129.905 124.769 132.104 101.535C131.617 99.0297 132.1 96.4328 133.455 94.2687C134.81 92.1046 136.936 90.5345 139.404 89.8753C141.873 89.216 144.499 89.5167 146.755 90.7167C149.01 91.9166 150.725 93.9264 151.555 96.3406C157.783 114.488 164.855 136.827 163.17 140.192C162.946 140.64 162.743 141.04 162.56 141.399C161.051 144.362 161.051 144.362 162.52 146.269C162.703 146.507 162.907 146.772 163.132 147.072C163.701 147.829 164.314 148.542 164.906 149.23C166.815 151.447 168.619 153.542 167.207 155.657C165.582 158.093 165.024 159.174 167.58 161.501C170.612 164.259 169.004 176.016 167.621 177.703C166.361 179.24 129.657 191.519 122.312 193.964L121.905 194.1Z" fill="#2F2E41"/>
<path d="M240.806 471H0.74693C0.548832 471 0.358838 470.922 0.218761 470.782C0.0786837 470.642 0 470.452 0 470.254C0 470.056 0.0786837 469.866 0.218761 469.726C0.358838 469.586 0.548832 469.508 0.74693 469.508H240.806C240.904 469.507 241.002 469.527 241.093 469.564C241.184 469.601 241.266 469.656 241.336 469.725C241.405 469.795 241.461 469.877 241.498 469.968C241.536 470.059 241.555 470.156 241.555 470.254C241.555 470.352 241.536 470.449 241.498 470.54C241.461 470.631 241.405 470.713 241.336 470.783C241.266 470.852 241.184 470.907 241.093 470.944C241.002 470.981 240.904 471.001 240.806 471Z" fill="#CCCCCC"/>
<path d="M420.094 72.0961H332.306C330.475 72.094 328.72 71.3665 327.425 70.0731C326.13 68.7797 325.402 67.0261 325.4 65.197V21.5465C325.402 19.7174 326.13 17.9638 327.425 16.6704C328.72 15.377 330.475 14.6495 332.306 14.6475H420.094C421.925 14.6495 423.68 15.377 424.975 16.6704C426.27 17.9638 426.998 19.7174 427 21.5465V65.197C426.998 67.0261 426.27 68.7797 424.975 70.0731C423.68 71.3665 421.925 72.094 420.094 72.0961Z" fill="#E6E6E6"/>
<path d="M405.672 94.9609H346.534C344.795 94.9589 343.128 94.2675 341.899 93.0385C340.67 91.8094 339.98 90.1434 339.98 88.4062C339.98 86.6691 340.67 85.003 341.899 83.774C343.128 82.5449 344.795 81.8535 346.534 81.8516H405.672C406.534 81.8506 407.388 82.0194 408.185 82.3484C408.982 82.6774 409.706 83.16 410.316 83.7688C410.926 84.3775 411.41 85.1005 411.74 85.8962C412.07 86.6919 412.24 87.5448 412.24 88.4062C412.24 89.2676 412.07 90.1205 411.74 90.9163C411.41 91.712 410.926 92.4349 410.316 93.0436C409.706 93.6524 408.982 94.135 408.185 94.464C407.388 94.793 406.534 94.9618 405.672 94.9609Z" fill="#E6E6E6"/>
<path d="M420.094 197.378H332.306C330.475 197.376 328.72 196.649 327.425 195.355C326.13 194.062 325.402 192.308 325.4 190.479V146.829C325.402 145 326.13 143.246 327.425 141.953C328.72 140.659 330.475 139.932 332.306 139.93H420.094C421.925 139.932 423.68 140.659 424.975 141.953C426.27 143.246 426.998 145 427 146.829V190.479C426.998 192.308 426.27 194.062 424.975 195.355C423.68 196.649 421.925 197.376 420.094 197.378Z" fill="#E6E6E6"/>
<path d="M405.672 218.738H346.534C344.794 218.738 343.125 218.048 341.894 216.818C340.664 215.589 339.973 213.922 339.973 212.184C339.973 210.445 340.664 208.778 341.894 207.549C343.125 206.319 344.794 205.629 346.534 205.629H405.672C407.412 205.629 409.081 206.319 410.311 207.549C411.542 208.778 412.233 210.445 412.233 212.184C412.233 213.922 411.542 215.589 410.311 216.818C409.081 218.048 407.412 218.738 405.672 218.738Z" fill="#E6E6E6"/>
<path d="M420.094 321.851H332.306C330.475 321.849 328.72 321.121 327.425 319.828C326.13 318.535 325.402 316.781 325.4 314.952V271.301C325.402 269.472 326.13 267.719 327.425 266.425C328.72 265.132 330.475 264.404 332.306 264.402H420.094C421.925 264.404 423.68 265.132 424.975 266.425C426.27 267.719 426.998 269.472 427 271.301V314.952C426.998 316.781 426.27 318.535 424.975 319.828C423.68 321.121 421.925 321.849 420.094 321.851Z" fill="#E6E6E6"/>
<path d="M405.672 343.327H346.534C344.795 343.325 343.128 342.634 341.899 341.405C340.67 340.176 339.98 338.51 339.98 336.772C339.98 335.035 340.67 333.369 341.899 332.14C343.128 330.911 344.795 330.22 346.534 330.218H405.672C406.534 330.217 407.388 330.386 408.185 330.715C408.982 331.044 409.706 331.526 410.316 332.135C410.926 332.744 411.41 333.467 411.74 334.262C412.07 335.058 412.24 335.911 412.24 336.772C412.24 337.634 412.07 338.487 411.74 339.282C411.41 340.078 410.926 340.801 410.316 341.41C409.706 342.019 408.982 342.501 408.185 342.83C407.388 343.159 406.534 343.328 405.672 343.327Z" fill="#E6E6E6"/>
<path d="M91.2276 174.001C90.6103 173.999 90.0035 173.842 89.4638 173.542C88.8865 173.231 88.405 172.769 88.071 172.205C87.737 171.641 87.5632 170.996 87.5683 170.341V140.169C87.5683 139.515 87.7442 138.873 88.0776 138.309C88.4111 137.746 88.8897 137.283 89.4637 136.968C90.0376 136.653 90.6857 136.498 91.3403 136.518C91.9948 136.539 92.6318 136.735 93.1846 137.086L121.835 152.172C122.354 152.502 122.782 152.957 123.078 153.496C123.375 154.035 123.53 154.64 123.53 155.255C123.53 155.87 123.375 156.475 123.078 157.014C122.782 157.553 122.354 158.008 121.835 158.338L93.1846 173.424C92.6007 173.799 91.9217 173.999 91.2276 174.001Z" fill="white"/>
<path d="M366.973 58.3819C366.475 58.3805 365.985 58.253 365.549 58.0114C365.083 57.7602 364.694 57.3869 364.424 56.9315C364.155 56.4761 364.015 55.9559 364.019 55.4269V31.0661C364.019 30.5379 364.161 30.0193 364.43 29.5647C364.699 29.1101 365.086 28.736 365.549 28.4816C366.012 28.2273 366.536 28.1019 367.064 28.1187C367.593 28.1354 368.107 28.2937 368.553 28.5769L391.685 40.7573C392.104 41.0236 392.45 41.3913 392.689 41.8264C392.928 42.2615 393.054 42.75 393.054 43.2465C393.054 43.7429 392.928 44.2314 392.689 44.6665C392.45 45.1016 392.104 45.4694 391.685 45.7356L368.553 57.916C368.082 58.2187 367.533 58.3803 366.973 58.3819Z" fill="white"/>
<path d="M366.76 184.189C366.262 184.187 365.772 184.06 365.336 183.818C364.87 183.567 364.481 183.193 364.211 182.738C363.942 182.283 363.801 181.763 363.806 181.233V156.873C363.805 156.344 363.948 155.826 364.217 155.371C364.486 154.917 364.872 154.543 365.336 154.288C365.799 154.034 366.322 153.909 366.851 153.925C367.379 153.942 367.894 154.1 368.34 154.384L391.472 166.564C391.891 166.83 392.237 167.198 392.476 167.633C392.715 168.068 392.841 168.557 392.841 169.053C392.841 169.55 392.715 170.038 392.476 170.473C392.237 170.908 391.891 171.276 391.472 171.542L368.34 183.723C367.869 184.025 367.32 184.187 366.76 184.189Z" fill="white"/>
<path d="M366.546 309.994C366.048 309.993 365.558 309.865 365.122 309.624C364.656 309.372 364.267 308.999 363.998 308.544C363.728 308.088 363.588 307.568 363.592 307.039V282.678C363.592 282.15 363.734 281.632 364.003 281.177C364.272 280.722 364.659 280.348 365.122 280.094C365.586 279.84 366.109 279.714 366.637 279.731C367.166 279.748 367.68 279.906 368.126 280.189L391.258 292.37C391.678 292.636 392.023 293.004 392.262 293.439C392.502 293.874 392.627 294.362 392.627 294.859C392.627 295.355 392.502 295.844 392.262 296.279C392.023 296.714 391.678 297.082 391.258 297.348L368.126 309.528C367.655 309.831 367.107 309.993 366.546 309.994Z" fill="white"/>
</g>
<defs>
<clipPath id="clip0_796_1358">
<rect width="427" height="471" fill="white"/>
</clipPath>
</defs>
</svg>
