<svg width="772" height="521" fill="none" xmlns="http://www.w3.org/2000/svg"><g clip-path="url(#a)"><path d="M766.961 430.304H385.026a5.044 5.044 0 0 1-5.039-5.039V5.039A5.045 5.045 0 0 1 385.026 0h381.935A5.043 5.043 0 0 1 772 5.039v420.226a5.044 5.044 0 0 1-5.039 5.039zM385.026 2.015a3.027 3.027 0 0 0-3.023 3.024v420.226a3.026 3.026 0 0 0 3.023 3.023h381.935a3.026 3.026 0 0 0 3.023-3.023V5.039a3.027 3.027 0 0 0-3.023-3.023H385.026z" fill="#3F3D56"/><path d="M549.792 160.23h-94.728a5.044 5.044 0 0 1-5.038-5.038V60.464a5.04 5.04 0 0 1 5.038-5.038h94.728a5.047 5.047 0 0 1 5.039 5.038v94.728a5.047 5.047 0 0 1-5.039 5.038zM455.064 57.441a3.028 3.028 0 0 0-3.023 3.023v94.728a3.03 3.03 0 0 0 3.023 3.023h94.728a3.027 3.027 0 0 0 3.023-3.023V60.464a3.027 3.027 0 0 0-3.023-3.023h-94.728z" fill="#F2F2F2"/><path d="M522.583 171.819h-94.728a4.542 4.542 0 0 1-4.535-4.535V72.557a4.544 4.544 0 0 1 4.535-4.535h94.728a4.54 4.54 0 0 1 4.535 4.535v94.727a4.538 4.538 0 0 1-4.535 4.535z" fill="#F40638"/><path d="M724.132 218.175H427.855a4.534 4.534 0 1 1 0-9.07h296.277a4.535 4.535 0 0 1 0 9.07zM652.582 249.415H427.855a4.534 4.534 0 1 1 0-9.07h224.727a4.538 4.538 0 0 1 4.535 4.535 4.538 4.538 0 0 1-4.535 4.535zM723.124 103.293H592.117a4.536 4.536 0 0 1 0-9.07h131.007a4.535 4.535 0 1 1 0 9.07zM690.429 134.533h-98.312a4.536 4.536 0 0 1 0-9.07h98.312a4.536 4.536 0 1 1 0 9.07zM724.132 280.655H427.855a4.53 4.53 0 0 1-3.206-1.329 4.53 4.53 0 0 1 0-6.413 4.534 4.534 0 0 1 3.206-1.328h296.277a4.538 4.538 0 0 1 4.535 4.535 4.534 4.534 0 0 1-4.535 4.535zM652.582 311.895H427.855a4.53 4.53 0 0 1-3.206-1.329 4.532 4.532 0 0 1 3.206-7.741h224.727a4.538 4.538 0 0 1 4.535 4.535 4.536 4.536 0 0 1-4.535 4.535zM724.132 343.134H427.855a4.532 4.532 0 1 1 0-9.069h296.277a4.538 4.538 0 0 1 4.535 4.535 4.536 4.536 0 0 1-4.535 4.534zM724.132 374.374H427.855a4.532 4.532 0 1 1 0-9.069h296.277a4.534 4.534 0 1 1 0 9.069z" fill="#CCC"/><path d="M485.225 391.315H268.56a5.043 5.043 0 0 1-5.039-5.038V252.248a5.048 5.048 0 0 1 5.039-5.039h216.665a5.047 5.047 0 0 1 5.039 5.039v134.029a5.045 5.045 0 0 1-5.039 5.038z" fill="#fff"/><path d="M485.225 391.315H268.56a5.043 5.043 0 0 1-5.039-5.038V252.248a5.048 5.048 0 0 1 5.039-5.039h216.665a5.047 5.047 0 0 1 5.039 5.039v134.029a5.045 5.045 0 0 1-5.039 5.038zM268.56 249.224a3.027 3.027 0 0 0-3.023 3.024v134.029a3.023 3.023 0 0 0 3.023 3.023h216.665a3.027 3.027 0 0 0 3.023-3.023V252.248a3.026 3.026 0 0 0-3.023-3.024H268.56z" fill="#3F3D56"/><path d="M442.396 308.177H311.389a4.534 4.534 0 1 1 0-9.07h131.007a4.535 4.535 0 0 1 0 9.07zM442.396 339.417H311.389a4.534 4.534 0 1 1 0-9.07h131.007a4.538 4.538 0 0 1 4.535 4.535 4.538 4.538 0 0 1-4.535 4.535z" fill="#CCC"/><path d="M232.119 508.797h12.355l5.877-47.654-18.234.001.002 47.653z" fill="#FCB4BE"/><path d="m228.968 504.764 24.331-.001h.001c4.112 0 8.056 1.634 10.963 4.542a15.502 15.502 0 0 1 4.542 10.963v.504l-39.837.002v-16.01z" fill="#2F2E41"/><path d="m135.921 503.449 12.216 1.846 12.935-46.239-16.014-2.724-9.137 47.117z" fill="#FCB4BE"/><path d="m133.407 498.99 24.058 3.636h.001a15.508 15.508 0 0 1 13.013 17.649l-.075.499-39.389-5.954 2.392-15.83z" fill="#2F2E41"/><path d="m174.013 272.636 13.718 3.595-.912 22.24-.113 40.492a8.118 8.118 0 0 1 .782 12.733 8.116 8.116 0 0 1-11.522-11.383l-4.216-40.641 2.263-27.036z" fill="#FCB4BE"/><path d="M171.626 247.162a11.203 11.203 0 0 1 6.922-9.958 10.464 10.464 0 0 1 11.332 1.823 9.98 9.98 0 0 1 3.328 7.719c.036 13.029-2.905 32.019-2.935 32.209l-.047.302-20.051 6.752 1.451-38.847z" fill="#302D62"/><path d="m207.478 284.146 30.668-7.938 14.176 47.744.504 177.865-23.452-.146-9.803-143.96-62.481 133.021-25.193-3.023 54.922-142.595s-3.023-25.193 6.55-37.79l-2.015-13.1 16.124-10.078z" fill="#2F2E41"/><path d="M186.798 296.025a4.711 4.711 0 0 1-1.002-3.78l-13.989-41.967a10.682 10.682 0 0 1 2.945-11.269l6.073-5.52 4.115-16.461 23.653 5.781-1.949 7.795 10.705-1.945 22.547 50.217-47.129 18.838-2.321.037a4.7 4.7 0 0 1-3.648-1.726z" fill="#302D62"/><path d="m219.628 260.591 13.515-4.295 11.117 19.284 21.549 34.283a8.116 8.116 0 0 1 4.826 14.372 8.115 8.115 0 0 1-13.181-7.491l-25.287-32.094-12.539-24.059z" fill="#FCB4BE"/><path d="M203.993 240.337a11.196 11.196 0 0 1 .528-12.115 10.476 10.476 0 0 1 10.552-4.517 9.983 9.983 0 0 1 6.938 4.745c6.995 10.992 14.66 28.614 14.737 28.791l.121.28-13.336 16.424-19.54-33.608z" fill="#302D62"/><path d="M202.44 213.965c10.38 0 18.794-8.414 18.794-18.794 0-10.379-8.414-18.793-18.794-18.793-10.379 0-18.793 8.414-18.793 18.793 0 10.38 8.414 18.794 18.793 18.794z" fill="#FCB4BE"/><path d="M169.228 187.244c9.998 0 18.103-8.105 18.103-18.102 0-9.998-8.105-18.103-18.103-18.103-9.998 0-18.103 8.105-18.103 18.103 0 9.997 8.105 18.102 18.103 18.102z" fill="#2F2E41"/><path d="M153.614 184.132a18.103 18.103 0 0 0 27.955-9.506 18.098 18.098 0 0 1-7.454 12.484 18.113 18.113 0 0 1-14.233 2.974 18.101 18.101 0 0 1-14.24-15.479c-.309-2.483-.1-5.004.614-7.402a18.088 18.088 0 0 0 7.358 16.929z" fill="#2F2E41"/><path d="M225.055 184.152c-3.16-5.658-4.369-8.021-8.444-11.462-3.603-3.042-8.036-3.936-11.611-1.053a21.405 21.405 0 0 0-24.886 5.885 21.404 21.404 0 0 0-1.496 25.528 21.408 21.408 0 0 0 39.3-11.761 21.533 21.533 0 0 0-.146-2.421c3.108-.436 4.176-4.28 7.283-4.716z" fill="#2F2E41"/><path d="M384.959 521H1.008a1.008 1.008 0 1 1 0-2.015h383.951a1.007 1.007 0 1 1 0 2.015z" fill="#CCC"/></g><defs><clipPath id="a"><path fill="#fff" d="M0 0h772v521H0z"/></clipPath></defs></svg>