<svg width="36" height="20" fill="none" xmlns="http://www.w3.org/2000/svg"><path d="M19.674 19.782s.647-.07.978-.415c.303-.317.293-.915.293-.915s-.04-2.791 1.293-3.203c1.315-.406 3.003 2.699 4.794 3.893 1.353.902 2.38.705 2.38.705l4.786-.065s2.503-.15 1.317-2.062c-.099-.157-.693-1.415-3.558-4-3.003-2.707-2.6-2.27 1.014-6.951 2.202-2.851 3.082-4.592 2.807-5.336C35.516.721 33.897.91 33.897.91l-5.388.033s-.4-.053-.695.119c-.29.168-.477.562-.477.562s-.852 2.205-1.99 4.082c-2.399 3.958-3.358 4.168-3.75 3.922-.913-.574-.685-2.302-.685-3.53 0-3.837.599-5.436-1.166-5.85C19.161.11 18.73.02 17.231.004c-1.923-.018-3.549.007-4.47.445-.614.291-1.087.942-.798.979.356.046 1.162.211 1.59.777.551.73.532 2.369.532 2.369s.317 4.516-.741 5.077c-.726.384-1.721-.4-3.861-3.992C8.387 3.819 7.56 1.786 7.56 1.786s-.16-.38-.445-.584C6.77.955 6.288.878 6.288.878L1.168.91s-.77.02-1.051.346c-.251.288-.02.886-.02.886s4.009 9.113 8.548 13.706c4.162 4.21 8.888 3.934 8.888 3.934h2.141z" fill="#FAFBF5"/></svg>