<svg width="36" height="20" viewBox="0 0 36 20" fill="none" xmlns="http://www.w3.org/2000/svg">
<path d="M19.6743 19.7822C19.6743 19.7822 20.321 19.7124 20.6523 19.3667C20.9555 19.0499 20.9449 18.4521 20.9449 18.4521C20.9449 18.4521 20.9046 15.6607 22.2384 15.2486C23.5529 14.8433 25.2407 17.948 27.0318 19.1418C28.3849 20.0445 29.4119 19.8469 29.4119 19.8469L34.1984 19.7822C34.1984 19.7822 36.7011 19.6323 35.5146 17.7198C35.4165 17.5631 34.8223 16.3045 31.9568 13.7192C28.9545 11.013 29.3576 11.4507 32.9715 6.76892C35.1728 3.91795 36.0527 2.1774 35.7775 1.43315C35.5164 0.721261 33.8969 0.910303 33.8969 0.910303L28.5093 0.942662C28.5093 0.942662 28.1097 0.889866 27.8135 1.06188C27.5243 1.23048 27.3368 1.6239 27.3368 1.6239C27.3368 1.6239 26.485 3.82939 25.3476 5.70619C22.9482 9.66417 21.9895 9.87365 21.5969 9.6284C20.6838 9.05446 20.9116 7.32583 20.9116 6.0979C20.9116 2.26085 21.511 0.661653 19.7461 0.247803C19.1608 0.109853 18.7296 0.019589 17.2311 0.00426118C15.3085 -0.0144728 13.682 0.0110736 12.7601 0.448767C12.1467 0.739995 11.6735 1.39057 11.9627 1.42804C12.3185 1.47402 13.1247 1.63922 13.5523 2.20465C14.1044 2.93527 14.0851 4.57364 14.0851 4.57364C14.0851 4.57364 14.4024 9.09023 13.3438 9.65054C12.6182 10.0354 11.6227 9.25032 9.4827 5.65851C8.38731 3.81918 7.56006 1.78569 7.56006 1.78569C7.56006 1.78569 7.40057 1.4059 7.11489 1.20153C6.76962 0.954583 6.28765 0.877945 6.28765 0.877945L1.1682 0.910303C1.1682 0.910303 0.398792 0.93074 0.116618 1.25603C-0.134009 1.54385 0.0973385 2.14163 0.0973385 2.14163C0.0973385 2.14163 4.10562 11.2549 8.64494 15.8481C12.8075 20.0581 17.5326 19.7822 17.5326 19.7822H19.6743Z" fill="#FAFBF5"/>
</svg>
