<svg width="290" height="234" viewBox="0 0 290 234" fill="none" xmlns="http://www.w3.org/2000/svg">
<path d="M235.11 0H205.784C203.808 0 202.206 1.8329 202.206 4.09432V40.4212C202.206 42.6826 203.808 44.5155 205.784 44.5155H235.11C237.087 44.5155 238.689 42.6826 238.689 40.4212V4.09432C238.689 1.8329 237.087 0 235.11 0Z" fill="#F40638"/>
<path d="M206.65 33.4604H216.051" stroke="white" stroke-width="3" stroke-miterlimit="10" stroke-linecap="round"/>
<path opacity="0.4" d="M206.65 38.4805H226.078" stroke="white" stroke-width="3" stroke-miterlimit="10" stroke-linecap="round"/>
<path d="M206.858 12.6206H211.72C212.077 12.6206 212.428 12.7276 212.738 12.931C213.048 13.1344 213.306 13.4273 213.486 13.7801L218.193 22.9904C218.378 23.3521 218.644 23.6506 218.965 23.8546C219.285 24.0584 219.647 24.1601 220.014 24.1485C220.38 24.1374 220.737 24.0136 221.048 23.7905C221.358 23.5673 221.61 23.253 221.778 22.8801L224.688 16.4141C224.858 16.0353 225.115 15.7173 225.431 15.4935C225.747 15.2701 226.113 15.1493 226.484 15.1447L235.024 15.04" stroke="white" stroke-width="2" stroke-miterlimit="10" stroke-linecap="round"/>
<path opacity="0.4" d="M206.858 22.5275H209.249C209.789 22.5275 210.307 22.2833 210.691 21.8475L221.743 9.28813C222.127 8.85236 222.645 8.60815 223.185 8.60815H226.42C226.883 8.60815 227.332 8.7872 227.695 9.11633C228.057 9.44512 228.31 9.90491 228.414 10.42L230.114 18.7959C230.217 19.311 230.47 19.7704 230.833 20.0996C231.195 20.4287 231.644 20.6077 232.104 20.6077H235.024" stroke="white" stroke-width="2" stroke-miterlimit="10" stroke-linecap="round"/>
<path d="M276.904 221.628C276.904 221.628 275.831 234 257.199 234H235.355L264.333 208.221L276.904 221.628Z" fill="#F28EA6"/>
<path d="M233.557 78.2495L284.854 91.2542C285.311 91.3661 285.746 91.5725 286.137 91.8635C287.555 92.9348 290.089 96.067 289.603 104.632C288.953 116.048 276.903 221.628 276.903 221.628L227.651 172.841L233.557 78.2495Z" fill="#F28EA6"/>
<path d="M228.074 77.9138L279.745 91.0137C279.745 91.0137 284.166 92.8558 284.12 104.296C284.074 115.737 271.421 221.292 271.421 221.292L222.167 172.505L228.074 77.9138Z" fill="#9D0D30"/>
<path d="M228.915 83.9448C228.915 83.9448 229.824 99.0145 230.223 101.403C230.925 105.586 246.988 96.7978 245.808 93.0731C245.199 91.1405 242.417 72.7266 242.417 72.7266L228.915 83.9448Z" fill="#BC775C"/>
<path d="M230.318 100.823L228.943 85.3953H237.083L230.318 100.823Z" fill="#93523E" stroke="#93523E"/>
<path d="M249.332 69.4968C249.953 61.9094 242.431 63.5455 241.145 63.8878C239.86 64.2301 237.846 52.9865 237.846 52.9865C237.846 52.9865 223.006 49.9629 219.826 52.9796C219.826 52.9796 217.832 67.1508 217.51 76.2264C217.188 85.302 219.413 89.3664 222.321 89.6771C226.282 90.489 230.968 89.5744 233.963 87.5552C239.296 83.9575 241.574 77.4507 241.574 77.4507C241.669 77.4007 241.721 77.3747 241.721 77.3747C241.721 77.3747 248.748 76.6625 249.332 69.4968Z" fill="#BC775C"/>
<path d="M219.404 75.9394C220.683 75.0122 223.917 75.0932 225.23 75.3871C227.732 75.9479 228.5 76.3198 228.782 76.9847C229.064 77.6492 229.119 78.3844 228.075 77.9141C227.028 77.4438 224.841 76.5848 222.894 76.6453C221.989 76.7517 221.093 76.9386 220.214 77.2049C219.199 77.5531 218.251 76.7753 219.404 75.9394Z" fill="#493212"/>
<path d="M218.5 66.6788C218.5 66.6788 219.343 58.1887 219.45 55.8381C219.605 52.4567 221.765 53.5448 223.311 55.9165C225.537 59.4381 229.783 59.2153 233.353 58.1104C236.485 57.2366 236.531 57.4423 236.816 61.2275C237.104 65.0128 238.171 72.042 239.175 70.3598C240.423 68.1579 241.275 66.0963 243.47 64.7561C246.453 62.9351 249.513 66.2948 248.794 68.8893C248.075 71.4844 246.392 74.4715 242.635 76.9249L244.473 86.6702C253.785 71.8922 257.291 51.5967 244.663 46.8974C239.946 45.1415 235.047 33.7634 225.917 36.3519C219.45 38.1858 219.45 44.1176 218.991 49.2757C210.301 49.7059 218.5 66.6788 218.5 66.6788Z" fill="#493212"/>
<path d="M229.665 69.4742C229.843 68.3986 229.487 67.4185 228.871 67.2849C228.256 67.1516 227.611 67.9155 227.436 68.9914C227.257 70.067 227.611 71.0471 228.227 71.1804C228.842 71.3137 229.487 70.5498 229.665 69.4742Z" fill="#080B09"/>
<path d="M221.188 67.5742C221.366 66.4986 221.011 65.5185 220.395 65.3852C219.779 65.2519 219.135 66.0158 218.958 67.0914C218.78 68.1673 219.135 69.1474 219.751 69.2807C220.367 69.414 221.01 68.6501 221.188 67.5742Z" fill="#080B09"/>
<path d="M222.923 70.3599C222.923 70.3599 224.026 72.6315 222.515 72.7151C221.07 72.7384 220.253 73.7354 221.744 75.0933" stroke="#93523E" stroke-width="1.51544" stroke-linecap="round"/>
<path d="M222.042 76.9875C222.939 77.0323 224.734 77.1222 225.929 77.2044C226.001 77.2087 226.07 77.235 226.127 77.2811C226.188 77.3272 226.234 77.391 226.265 77.4658C226.294 77.5405 226.306 77.6234 226.297 77.705C226.291 77.7867 226.263 77.864 226.219 77.9288C225.183 79.3108 222.776 81.8254 221.686 77.5612C221.659 77.4964 221.648 77.4246 221.653 77.3532C221.658 77.2818 221.681 77.2133 221.717 77.1547C221.753 77.0962 221.802 77.0497 221.859 77.0204C221.917 76.9912 221.98 76.9796 222.042 76.9875Z" fill="white"/>
<path d="M232.513 65.8569L232.435 66.0531C232.34 66.3509 232.148 66.5942 231.9 66.7301C231.65 66.8657 231.362 66.8831 231.103 66.7785L226.662 64.8406C226.443 64.757 226.259 64.5826 226.15 64.3522C226.038 64.1215 226.006 63.8512 226.061 63.5955C226.087 63.4369 226.144 63.2868 226.225 63.1548C226.308 63.0228 226.412 62.9122 226.533 62.83C226.656 62.748 226.791 62.6963 226.93 62.6786C227.07 62.6608 227.214 62.6773 227.347 62.727L231.866 64.4683C231.989 64.5085 232.104 64.577 232.205 64.6691C232.306 64.7616 232.386 64.8758 232.447 65.0055C232.507 65.1352 232.545 65.277 232.556 65.4235C232.568 65.5696 232.553 65.717 232.513 65.8569Z" fill="#080B09"/>
<path d="M217.588 61.6573L222.335 61.1373C222.476 61.1238 222.617 61.1448 222.75 61.1985C222.883 61.2525 223.005 61.338 223.107 61.4496C223.209 61.5612 223.289 61.6961 223.342 61.8459C223.395 61.9956 223.42 62.1566 223.415 62.3178C223.417 62.5811 223.333 62.8359 223.178 63.0317C223.024 63.2272 222.811 63.3493 222.582 63.374L217.873 64.1057C217.598 64.1399 217.323 64.0484 217.107 63.8512C216.891 63.6541 216.751 63.3671 216.72 63.0528L216.682 62.8412C216.671 62.6947 216.686 62.5472 216.726 62.408C216.766 62.2685 216.831 62.1395 216.915 62.0292C216.999 61.9186 217.103 61.8288 217.218 61.7649C217.334 61.7011 217.459 61.6642 217.588 61.6573Z" fill="#080B09"/>
<path d="M12.7603 221.628C12.7603 221.628 13.8329 234 32.4659 234H54.3089L25.3316 208.221L12.7603 221.628Z" fill="#F28EA6"/>
<path d="M56.1084 78.2495L4.81068 91.2542C4.35417 91.3661 3.91924 91.5725 3.52775 91.8635C2.10875 92.9348 -0.42576 96.067 0.0612365 104.632C0.710182 116.048 12.7605 221.628 12.7605 221.628L62.0139 172.841L56.1084 78.2495Z" fill="#F28EA6"/>
<path d="M61.591 77.9138L9.91787 91.0137C9.91787 91.0137 5.49779 92.8558 5.54381 104.296C5.59013 115.737 18.2431 221.292 18.2431 221.292L67.4965 172.505L61.591 77.9138Z" fill="#9D0D30"/>
<path d="M83.9555 132.377L88.9693 140.406C89.6852 141.552 90.6054 142.512 91.6692 143.221C92.7329 143.93 93.916 144.374 95.1406 144.522L127.959 148.484L128.458 157.889L88.4112 160.67C86.1552 160.827 83.8997 160.348 81.8432 159.275C79.7865 158.202 77.9916 156.567 76.6157 154.515L65.8828 138.505L83.9555 132.377Z" fill="#FFCCB3"/>
<path d="M87.0907 137.399C87.0907 137.399 76.7735 140.516 73.7571 150.252L68.6162 141.558L85.9821 135.624L87.0907 137.399Z" fill="#FF967C"/>
<path d="M61.9134 102.093C61.9134 102.093 71.9525 105.441 74.7473 109.307C76.9223 112.315 80.6198 124.813 83.5173 130.833C84.2178 132.287 85.2113 132.419 84.4732 133.849C81.4198 139.763 78.803 148.384 73.7572 150.252C56.8694 147.333 61.9134 102.093 61.9134 102.093Z" fill="#5661AE"/>
<path d="M72.7628 119.219C72.7628 119.219 79.4628 133.121 80.48 140.592C80.48 140.592 78.0945 147.519 76.4105 148.928C73.7834 151.126 72.3408 149.891 72.3408 149.891L72.7628 119.219Z" fill="#465393"/>
<path d="M37.7461 74.0107C47.006 74.0107 54.5123 65.4218 54.5123 54.8273C54.5123 44.2324 47.006 35.6436 37.7461 35.6436C28.4863 35.6436 20.98 44.2324 20.98 54.8273C20.98 65.4218 28.4863 74.0107 37.7461 74.0107Z" fill="#080B09"/>
<path d="M51.9519 44.5998C51.9519 44.5998 30.3134 40.2284 27.7749 70.2502C27.7749 70.2502 29.9427 72.9174 33.0628 73.209C33.0628 73.209 35.5968 44.0788 53.219 46.3297L51.9519 44.5998Z" fill="#FEBB94"/>
<path d="M47.3641 45.7439C47.3641 45.7439 44.8756 44.2661 46.7508 42.5622C47.9351 41.4323 48.8783 40.0079 49.5083 38.3975C50.1014 38.7737 50.5473 39.3931 50.7564 40.131C50.9656 40.8689 50.9221 41.67 50.6347 42.3726C49.6737 45.0863 49.0725 45.2387 49.0725 45.2387L47.3641 45.7439Z" fill="#FEBB94"/>
<path d="M47.238 44.1106C47.238 44.1106 46.5528 47.2212 44.6727 45.5246C43.4393 44.4654 42.0111 43.7423 40.4966 43.4106C40.6801 42.6638 41.1047 42.025 41.6843 41.6224C42.2639 41.2202 42.9554 41.0847 43.6191 41.243C46.1481 41.6896 46.4159 42.3245 46.4159 42.3245L47.238 44.1106Z" fill="#FEBB94"/>
<path d="M52.0346 88.5467L54.6836 99.8236C54.6836 99.8236 74.9065 126.077 58.1219 135.624C55.1717 137.302 41.0721 124.405 38.4249 121.546C35.7773 118.687 36.875 101.797 36.875 101.797L42.954 77.6731L52.0346 88.5467Z" fill="#FFCCB3"/>
<path d="M46.0752 124.326C46.0752 124.326 55.9544 131.432 65.8827 124.839C65.8827 124.839 64.3527 134.627 58.3344 137.777C52.3158 140.927 46.0752 124.326 46.0752 124.326Z" fill="#1C85E8"/>
<path d="M52.5559 90.5391L47.2446 86.564L55.1091 101.697L52.5559 90.5391Z" fill="#FF967C"/>
<path d="M66 60.7966C66 60.7966 68.8095 77.7097 63.7888 87.5696C60.5144 93.9998 56.0164 94.1811 47.2444 86.5638C39.2013 79.5791 37.562 75.4039 37.562 75.4039L39.5281 57.821C39.5281 57.821 62.7803 45.5436 66 60.7966Z" fill="#FFCCB3"/>
<path d="M54.6835 99.8243C54.6835 99.8243 64.6274 102.634 66.2308 103.927C67.8341 105.221 69.892 116.543 72.7792 121.785C75.6664 127.028 79.6101 135.312 74.5436 144.892C69.4772 154.473 69.934 163.64 69.934 163.64L73.7684 187.69H31.0609C29.2757 187.876 28.3261 182.701 28.3793 180.651C28.5542 173.889 29.1143 171.873 28.7369 161.152C28.2257 146.622 23.4829 105.4 23.4829 105.4L37.5624 99.4185C37.1295 122.097 48.6448 117.147 58.3344 137.777C66.2658 120.346 54.6835 99.8243 54.6835 99.8243Z" fill="#5661AE"/>
<path d="M32.7517 117.147C32.7517 117.147 34.8415 122.131 33.1912 127.221C31.3356 132.945 29.2935 146.893 38.3382 147.772C49.4244 148.849 44.7704 151.149 39.7514 152.911C34.7322 154.673 36.8177 154.53 37.1381 160.568C37.3662 164.865 27.2693 173.59 28.1993 170.26C33.1892 152.391 16.2318 130.311 32.7517 117.147Z" fill="#465393"/>
<path d="M56.8037 82.7148L62.1247 83.7292C62.1049 83.7809 62.0804 83.8414 62.0508 83.9096C61.9547 84.1307 61.8069 84.4243 61.6003 84.7149C61.1878 85.2955 60.5507 85.8534 59.6239 85.8274C58.1727 85.6372 57.4739 84.8068 57.1311 84.0343C56.9576 83.6433 56.8733 83.2632 56.8331 82.9801C56.8181 82.8768 56.8092 82.7869 56.8037 82.7148Z" fill="#E56441" stroke="#E56441"/>
<path d="M64.9184 75.193C65.5144 75.1598 65.9628 74.3179 65.9197 73.3127C65.8765 72.3079 65.3585 71.52 64.7625 71.5535C64.1664 71.5868 63.7183 72.4287 63.7611 73.4338C63.8043 74.439 64.3223 75.2266 64.9184 75.193Z" fill="#080B09"/>
<path d="M56.1181 75.8304C56.7141 75.7972 57.1623 74.9553 57.1194 73.9501C57.0763 72.945 56.5582 72.1574 55.9622 72.191C55.3662 72.2242 54.9177 73.0661 54.9609 74.0713C55.0037 75.0761 55.5218 75.864 56.1181 75.8304Z" fill="#080B09"/>
<path d="M66.7898 69.0526L62.3142 69.3876C62.2377 69.386 62.1643 69.3528 62.1077 69.2938C62.051 69.2353 62.0148 69.155 62.0059 69.0681C62.0154 68.9111 62.0527 68.758 62.1155 68.6182C62.1784 68.4783 62.2653 68.3545 62.3709 68.2541C62.4767 68.1538 62.5993 68.0791 62.731 68.0343C62.8628 67.9895 63.0011 67.9757 63.1375 67.9938L66.8382 68.4602C67.1319 68.4437 67.1569 69.0319 66.7898 69.0526Z" fill="#080B09"/>
<path d="M51.6058 69.582L57.572 69.6689C57.5573 69.4615 57.505 69.2598 57.4181 69.0771C57.3315 68.8945 57.2121 68.7345 57.068 68.6075C56.9239 68.4807 56.7582 68.3899 56.5816 68.3409C56.4047 68.2918 56.2212 68.2856 56.0423 68.3228L51.5143 69.166C51.3676 69.1742 51.3857 69.5945 51.6058 69.582Z" fill="#080B09"/>
<path d="M61.1621 73.0703L63.0762 77.92L61.742 79.3158" stroke="#E56441" stroke-width="1.66686" stroke-linecap="round"/>
<path d="M60.5088 63.4213C57.3831 63.446 55.9193 62.6166 52.6406 64.3817C51.6059 64.9386 50.627 65.4958 50.0336 66.861C49.3979 69.6066 49.8055 73.4205 45.5761 73.3145C45.5761 73.3145 46.9442 68.1045 44.038 67.4386C39.1031 66.3081 39.8964 75.4443 42.9539 77.6731C45.0316 79.1878 41.4621 90.1141 38.8068 94.1304C29.7244 69.8455 32.8765 67.3995 35.2379 61.0605C39.2503 50.2883 42.766 47.0088 52.2646 45.2273C52.2646 45.2273 64.8494 45.616 68.1859 58.2843C71.038 69.1142 66.7574 73.2661 66.7574 73.2661C66.7574 73.2661 66.8903 65.2075 66.1936 64.3817C65.2772 63.2953 64.5339 63.3894 60.5088 63.4213Z" fill="#080B09"/>
<path d="M213.215 194.506L177.602 201.745L184.611 234H207.423C207.423 234 218.267 207.331 213.215 194.506Z" fill="#FFCCB3"/>
<path d="M190.478 197.332C190.478 197.332 195.966 199.265 198.232 209.508C200.497 219.75 198.025 234 198.025 234H201.554C201.554 234 214.138 217.091 204.88 195.542L190.478 197.332Z" fill="#FF967C"/>
<path d="M264.925 184.341C264.925 184.341 267.67 207.789 263.573 218.966C260.087 228.471 254.702 233.86 248.164 234H198.025C198.025 234 197.946 203.358 176.798 198.123C176.798 198.123 246.398 175.943 264.925 184.341Z" fill="#1F2D49"/>
<path d="M265.889 191.452L220.396 193.166L220.88 189.53L229.745 188.358H265.826L265.889 191.452Z" fill="#0D1B33"/>
<path d="M230.583 99.6049C230.192 101.503 230.091 94.7875 229.3 95.0676C225.679 96.3519 215.374 100.031 213.182 101.08C210.512 102.358 210.334 107.47 210.156 111.091C210.031 113.628 213.331 149.241 213.496 173.368C213.531 178.523 208.971 184.556 208.432 187.421C208.282 188.193 208.202 188.98 208.192 189.77C208.19 190.321 208.378 190.851 208.717 191.243C209.055 191.636 209.515 191.858 209.997 191.862L264.322 192.443C264.322 192.443 266.73 192.844 266.148 189.699C265.573 186.259 265.26 182.769 265.205 179.268C264.664 154.208 264.561 112.24 264.325 110.253C263.968 107.271 266.767 104.703 263.735 103.202L246.91 95.5113C246.91 95.5113 243.827 98.0854 243.381 98.346C234.929 103.291 230.583 99.6049 230.583 99.6049Z" fill="#FEBB94"/>
<path d="M234.083 102.163C234.083 102.163 232.162 110.236 233.051 118.033C233.936 125.831 230.436 136.499 229.711 145.061C228.986 153.623 232.536 164.839 231.98 172.026C231.428 179.212 233.442 192.46 233.442 192.46" stroke="#FF967C" stroke-width="3" stroke-miterlimit="10"/>
<path d="M81.8095 188.529L117.423 195.768L110.413 228.024H87.6008C87.6008 228.024 76.7572 201.355 81.8095 188.529Z" fill="#FFCCB3"/>
<path d="M104.547 191.355C104.547 191.355 99.0584 193.289 96.7929 203.531C94.5273 213.773 96.9994 228.024 96.9994 228.024H93.4702C93.4702 228.024 80.8863 211.114 90.1447 189.565L104.547 191.355Z" fill="#FF967C"/>
<path d="M29.0433 179.882C29.0433 179.882 22.7322 193.436 23.4829 211.308C24.1963 228.283 32.3127 234 45.1438 234L96.9996 228.024C96.9996 228.024 97.0787 197.381 118.226 192.147C118.226 192.147 94.6808 172.537 70.8646 177.464C59.1752 179.882 51.8312 182.824 29.0433 179.882Z" fill="#1F2D49"/>
<path d="M28.156 175.351C28.156 175.351 61.7409 179.366 74.1192 168.783L73.5658 177.618C73.5658 177.618 52.6358 190.923 28.6499 183.436C28.6499 183.436 25.0537 180.546 28.156 175.351Z" fill="#1C85E8"/>
<path d="M130.647 161.786C130.647 161.786 140.624 159.396 144.756 160.491C148.967 161.486 157.829 164.023 156.241 171.457C155.143 176.764 150.3 174.662 150.3 174.662C150.3 174.662 151.561 176.782 149.687 177.749C148.545 178.292 141.173 173.666 141.173 173.666C136.254 175.477 129.834 171.654 129.834 171.654L130.647 161.786Z" fill="#FFCCB3"/>
<path d="M144.842 171.832L150.218 174.666" stroke="#FF967C" stroke-width="2.89316" stroke-linecap="round" stroke-linejoin="round"/>
<path d="M146.044 166.995C147.391 167.298 153.453 170.57 153.453 170.57" stroke="#FF967C" stroke-width="2.89316" stroke-linecap="round" stroke-linejoin="round"/>
<path d="M146.799 163.329C149.498 164.101 152.081 165.333 154.46 166.984" stroke="#FF967C" stroke-width="2.89316" stroke-linecap="round" stroke-linejoin="round"/>
<path d="M86.2903 124.839H194.572L249.369 228.024H41.52L86.2903 124.839Z" fill="url(#paint0_linear_424_97)"/>
<path d="M174.44 168.834L178.07 193.982L198.232 209.507L231.984 205.334L223.693 193.982L174.44 168.834Z" fill="#9D0D30"/>
<path d="M155.04 143.87L170.153 175.753L192.657 200.182L174.439 168.835L155.04 143.87Z" fill="white"/>
<path d="M155.04 143.87L170.153 175.753L168.696 177.036L153.809 144.731L155.04 143.87Z" fill="#E51A4B"/>
<path d="M170.153 175.753L192.658 200.182V201.746L168.695 177.036L170.153 175.753Z" fill="#E51A4B"/>
<path d="M192.658 201.746L223.692 195.255V193.982L192.658 200.181V201.746Z" fill="#E51A4B"/>
<path d="M223.692 193.982L203.475 164.374L174.44 168.835L192.658 200.182L223.692 193.982Z" fill="#E7EFFF"/>
<path d="M38.6737 119.286L33.987 150.12C33.8687 150.891 33.4968 151.581 32.9479 152.048C32.3988 152.515 31.7145 152.723 31.0353 152.631C31.0353 152.631 17.828 151.637 13.4316 151.218C12.396 151.119 9.58161 148.199 10.442 143.388C11.2307 136.817 14.925 121.473 17.2611 112.952C18.349 108.713 29.9825 111.251 29.9825 111.251L38.6737 119.286Z" fill="#5661AE"/>
<path d="M27.7106 129.839C33.835 129.839 38.7996 124.158 38.7996 117.151C38.7996 110.144 33.835 104.463 27.7106 104.463C21.5865 104.463 16.6216 110.144 16.6216 117.151C16.6216 124.158 21.5865 129.839 27.7106 129.839Z" fill="#5661AE"/>
<path d="M13.7346 152.931L13.9159 150.473L30.3581 152.616L30.1035 154.707L28.7047 167.899L12.7178 165.926L13.7346 152.931Z" fill="#FFCCB3"/>
<path d="M13.9956 150.452L30.3578 152.616L30.1033 154.707C26.3854 154.238 18.0497 153.437 13.7344 152.931L13.9956 150.452Z" fill="#FF967C"/>
<path d="M20.6486 175.622C25.0943 175.622 28.6983 171.498 28.6983 166.411C28.6983 161.325 25.0943 157.201 20.6486 157.201C16.2026 157.201 12.5986 161.325 12.5986 166.411C12.5986 171.498 16.2026 175.622 20.6486 175.622Z" fill="#FFCCB3"/>
<path d="M24.6218 174.341L70.0517 149.939C70.0517 149.939 72.777 138.854 69.8136 140.694C66.7759 142.576 18.3774 157.545 18.3774 157.545L24.6218 174.341Z" fill="#FFCCB3"/>
<path d="M96.0388 151.163L76.7238 155.024C75.4797 155.273 74.6524 154.284 74.8765 152.815L80.8156 113.861C81.0397 112.393 82.2297 111 83.4741 110.752L102.789 106.891C104.033 106.642 104.86 107.63 104.636 109.099L98.697 148.054C98.4732 149.522 97.2832 150.914 96.0388 151.163Z" fill="#1C85E8"/>
<path d="M96.9054 150.99L77.5907 154.851C76.3463 155.1 75.5193 154.111 75.7431 152.643L81.6826 113.688C81.9064 112.22 83.0967 110.828 84.3408 110.579L103.656 106.718C104.9 106.469 105.727 107.457 105.503 108.926L99.5639 147.881C99.3398 149.349 98.1498 150.741 96.9054 150.99Z" fill="#B2CDFF"/>
<path d="M67.0725 141.779L69.315 150.144C69.315 150.144 78.6056 147.595 80.593 146.478C84.4686 144.198 88.6361 141.123 89.1242 139.954C90.6194 136.997 90.7955 133.339 90.6243 130.783C90.6028 130.404 90.4995 130.036 90.3243 129.712C90.1491 129.389 89.9069 129.12 89.6193 128.929C89.3319 128.738 89.0074 128.63 88.6752 128.617C88.3427 128.602 88.0124 128.682 87.7133 128.849L79.5811 133.493C79.5811 133.493 78.5222 131.446 79.5874 129.819C80.2737 128.746 79.2149 126.699 78.7443 126.072C78.5587 125.782 77.5686 125.773 77.3443 126.066C76.9657 126.62 77.4864 128.541 76.6875 129.761C75.3275 131.714 76.5348 132.562 73.0332 135.89C70.2631 138.501 67.0437 141.699 67.0725 141.779Z" fill="#FFCCB3"/>
<path d="M82.8003 134.907C85.1142 134.015 89.8331 130.871 89.8331 130.871" stroke="#FF967C" stroke-width="2.09903" stroke-linecap="round" stroke-linejoin="round"/>
<path d="M82.4966 138.437C84.3588 137.662 89.2763 134.613 89.2763 134.613" stroke="#FF967C" stroke-width="2.09903" stroke-linecap="round" stroke-linejoin="round"/>
<path d="M83.6182 141.584C84.8459 141.105 88.4967 139.118 88.4967 139.118" stroke="#FF967C" stroke-width="2.09903" stroke-linecap="round" stroke-linejoin="round"/>
<path d="M13.4605 149.469C13.0624 151.301 13.1003 153.22 13.5704 155.029C13.5704 155.029 21.4802 159.413 29.838 157.211C30.4012 156.66 30.8137 155.935 31.026 155.122C31.2383 154.31 31.2418 153.445 31.0355 152.631L13.4605 149.469Z" fill="#5661AE"/>
<path d="M249.087 116.683C249.087 116.683 246.651 131.939 248.164 146.858C249.11 156.194 254.314 165.778 254.248 170.234C254.141 177.448 246.933 180.504 246.913 184.681C246.898 187.153 252.735 185.615 255.315 184.654C261.111 182.494 264.92 185.429 264.92 185.429L263.375 122.134L249.087 116.683Z" fill="#FF967C"/>
<path d="M264.575 112.973C259.227 105.315 256.828 108.982 254.95 109.17C254.95 109.17 248.587 110.526 249.088 116.682C249.617 123.197 258.977 166.609 258.977 166.609L278.627 164.92L277.695 158.933L275.776 146.604L273.731 133.421L273.55 131.851L271.251 114.508C271.251 114.508 267.345 117.062 264.575 112.973Z" fill="#FEBB94"/>
<path d="M265.895 126.192C271.119 122.522 272.755 114.702 269.548 108.724C266.341 102.747 259.506 100.876 254.282 104.546C249.056 108.215 247.422 116.036 250.629 122.013C253.836 127.99 260.671 129.861 265.895 126.192Z" fill="#FEBB94"/>
<path d="M218.866 168.412L206.477 169.466L203.549 177.369L204.55 187.125C204.55 187.125 206.681 186.131 206.902 182.68C207.123 179.229 216.985 181.677 219.563 177.887" fill="#BC775C"/>
<path d="M266.122 155.628L218.057 165.995C217.768 166.071 217.514 166.266 217.344 166.544C217.174 166.822 217.099 167.161 217.135 167.498L218.298 177.963C218.359 178.463 218.58 178.92 218.918 179.244C219.257 179.569 219.688 179.737 220.129 179.718L269.64 177.502L266.122 155.628Z" fill="#FEBB94"/>
<path d="M268.964 177.586C274.395 177.586 278.799 172.548 278.799 166.333C278.799 160.118 274.395 155.08 268.964 155.08C263.533 155.08 259.129 160.118 259.129 166.333C259.129 172.548 263.533 177.586 268.964 177.586Z" fill="#FEBB94"/>
<path d="M219.229 115.166C220.834 106.101 217.06 106.335 215.804 104.893C215.804 104.893 211.092 100.448 207.502 104.592C203.701 108.976 181.917 143.028 181.917 143.028L195.547 157.372L198.109 153.873L204.746 144.817L211.845 135.137L212.727 134.035L222.303 121.625C222.303 121.625 218.322 119.939 219.229 115.166Z" fill="#FEBB94"/>
<path d="M224.93 116.71C226.768 110.434 223.81 103.641 218.324 101.539C212.838 99.4362 206.901 102.82 205.064 109.097C203.226 115.374 206.184 122.167 211.67 124.269C217.156 126.371 223.093 122.987 224.93 116.71Z" fill="#FEBB94"/>
<path d="M211.845 135.136C211.438 130.098 209.978 122.551 209.978 122.551C209.978 122.551 208.716 122.417 204.825 132.366C201.943 139.822 198.6 147.421 198.047 153.849L204.684 144.792L211.845 135.136Z" fill="#FF967C"/>
<path d="M185.228 98.8875C184.518 91.2215 186.342 90.85 186.367 86.6938C186.379 82.632 191.739 75.1128 189.183 75.2649C186.627 75.4166 184.831 78.2119 184.831 78.2119C184.452 74.5685 185.093 68.505 181.834 66.2172C178.575 63.9295 177.808 65.037 175.155 65.9467C168.071 68.4359 172.025 79.1614 172.097 82.5599C172.162 84.6993 175.45 92.701 175.599 94.1771L176.646 99.8677L185.228 98.8875Z" fill="#BC775C"/>
<path d="M181.19 76.9251L180.222 65.9211L181.19 76.9251Z" fill="#93523E"/>
<path d="M181.19 76.9251L180.222 65.9211" stroke="#93523E" stroke-width="1.51544" stroke-linecap="round"/>
<path d="M177.877 77.047L176.301 66.4768L177.877 77.047Z" fill="#93523E"/>
<path d="M177.877 77.047L176.301 66.4768" stroke="#93523E" stroke-width="1.51544" stroke-linecap="round"/>
<path d="M173.984 77.0717L173.187 70.7456L173.984 77.0717Z" fill="#93523E"/>
<path d="M173.984 77.0717L173.187 70.7456" stroke="#93523E" stroke-width="1.51544" stroke-linecap="round"/>
<path d="M179.354 85.3248C180.512 82.2291 183.515 79.2495 183.515 79.2495L179.354 85.3248Z" fill="#93523E"/>
<path d="M179.354 85.3248C180.512 82.2291 183.515 79.2495 183.515 79.2495" stroke="#93523E" stroke-width="1.51544" stroke-linecap="round"/>
<path d="M197.639 146.084L187.026 99.8654C186.946 99.5583 186.77 99.296 186.532 99.1285C186.294 98.9613 186.01 98.9007 185.735 98.9587L177.187 100.823C176.778 100.917 176.415 101.182 176.168 101.565C175.921 101.949 175.807 102.424 175.849 102.898L179.837 151.15L197.639 146.084Z" fill="#FEBB94"/>
<path d="M176.55 102.825C176.55 102.825 175.498 98.2109 176.55 97.7037C177.603 97.1968 184.198 95.7553 185.083 96.6979C185.968 97.6405 186.741 101.57 186.741 101.57L176.55 102.825Z" fill="#FEBB94"/>
<path d="M188.992 160.391C194.119 160.391 198.274 155.636 198.274 149.771C198.274 143.906 194.119 139.151 188.992 139.151C183.866 139.151 179.71 143.906 179.71 149.771C179.71 155.636 183.866 160.391 188.992 160.391Z" fill="#FEBB94"/>
<path d="M37.7461 98.3394C37.7461 98.3394 44.5111 113.331 51.4197 115.796C51.4197 115.796 55.3024 113.438 54.6834 99.8234" stroke="white" stroke-miterlimit="10"/>
<path d="M51.177 119.661C52.4783 119.661 53.5331 118.454 53.5331 116.965C53.5331 115.476 52.4783 114.27 51.177 114.27C49.8756 114.27 48.8208 115.476 48.8208 116.965C48.8208 118.454 49.8756 119.661 51.177 119.661Z" fill="#5661AE"/>
<path d="M48.0064 114.563C48.4563 114.563 48.8208 114.146 48.8208 113.631C48.8208 113.117 48.4563 112.699 48.0064 112.699C47.5568 112.699 47.1924 113.117 47.1924 113.631C47.1924 114.146 47.5568 114.563 48.0064 114.563Z" fill="#5661AE"/>
<path d="M53.5331 113.986C53.9827 113.986 54.3474 113.569 54.3474 113.055C54.3474 112.54 53.9827 112.123 53.5331 112.123C53.0832 112.123 52.7188 112.54 52.7188 113.055C52.7188 113.569 53.0832 113.986 53.5331 113.986Z" fill="#5661AE"/>
<path d="M118.966 160.204L92.4131 160.376V189.565L131.933 186.929L118.966 160.204Z" fill="white"/>
<path d="M116.452 163.048L120.843 173.369" stroke="#E51A4B" stroke-miterlimit="10" stroke-linecap="round"/>
<path opacity="0.4" d="M112.173 163.049L113.818 166.917" stroke="#E51A4B" stroke-miterlimit="10" stroke-linecap="round"/>
<path opacity="0.4" d="M94.2041 163.049L107.337 162.7L108.302 166.376L94.4667 166.917L94.2041 163.049Z" fill="#E51A4B"/>
<path opacity="0.4" d="M94.5723 169.029L102.283 168.792L103.248 172.467L94.8349 172.897L94.5723 169.029Z" fill="#E51A4B"/>
<path opacity="0.4" d="M94.5723 175.54L107.705 175.191L108.67 178.867L94.8349 179.408L94.5723 175.54Z" fill="#E51A4B"/>
<path opacity="0.4" d="M94.9409 181.521L102.651 181.283L103.616 184.958L95.2036 185.388L94.9409 181.521Z" fill="#E51A4B"/>
<path d="M72.3408 209.507L101.621 188.529L122.38 195.285L97.3606 220.446L72.3408 209.507Z" fill="#E51A4B"/>
<path d="M234.017 100.962C234.017 100.962 243.826 97.199 245.67 92.2256C245.67 92.2256 250.149 92.9625 251.906 94.8889C253.655 96.8156 257.924 97.3886 254.225 99.5305C250.525 101.672 236.1 103.487 235.222 103.207C234.345 102.927 234.017 100.962 234.017 100.962Z" fill="white"/>
<path d="M229.953 94.1133V96.6304C229.953 96.6304 230.83 100.246 234.017 100.962C234.017 100.962 234.515 102.957 232.76 103.194C231.009 103.431 225.911 100.483 225.161 100.195C224.408 99.9102 224.077 98.7207 225.537 97.7682C225.537 97.7682 226.061 94.5056 229.953 94.1133Z" fill="white"/>
<path d="M238.887 129.398C238.873 129.399 238.858 129.397 238.847 129.394C238.798 129.381 238.755 129.347 238.729 129.299C238.703 129.251 238.692 129.192 238.703 129.135C239.238 126.463 237.742 123.162 236.298 119.968C235.225 117.598 234.115 115.146 233.833 112.935C233.169 107.801 234.984 102.035 235.004 101.979C235.021 101.926 235.056 101.882 235.102 101.858C235.148 101.834 235.197 101.831 235.246 101.85C235.269 101.859 235.289 101.874 235.309 101.893C235.326 101.912 235.341 101.935 235.352 101.96C235.364 101.986 235.369 102.014 235.369 102.042C235.369 102.071 235.366 102.099 235.358 102.126C235.34 102.182 233.554 107.849 234.201 112.874C234.48 115.012 235.573 117.43 236.635 119.77C238.108 123.032 239.638 126.407 239.071 129.234C239.063 129.282 239.04 129.323 239.005 129.353C238.971 129.383 238.93 129.399 238.887 129.398Z" fill="white"/>
<path d="M231.923 126.95C231.88 126.951 231.84 126.935 231.805 126.905C231.774 126.875 231.751 126.833 231.742 126.786C230.563 121.128 231.825 111.426 232.24 108.586C232.585 106.439 232.706 104.253 232.602 102.074C232.596 102.018 232.614 101.961 232.645 101.918C232.677 101.874 232.72 101.847 232.772 101.841C232.821 101.836 232.87 101.852 232.907 101.888C232.947 101.923 232.97 101.974 232.976 102.031C233.085 104.248 232.962 106.471 232.611 108.655C232.196 111.478 230.942 121.106 232.107 126.687C232.113 126.719 232.116 126.752 232.107 126.784C232.102 126.817 232.09 126.846 232.073 126.872C232.056 126.897 232.032 126.917 232.007 126.93C231.978 126.943 231.952 126.95 231.923 126.95Z" fill="white"/>
<g opacity="0.6">
<path opacity="0.6" d="M238.688 130.944C239.344 130.944 239.876 130.337 239.876 129.588C239.876 128.839 239.344 128.231 238.688 128.231C238.03 128.231 237.498 128.839 237.498 129.588C237.498 130.337 238.03 130.944 238.688 130.944Z" fill="white"/>
</g>
<g opacity="0.6">
<path opacity="0.6" d="M232.136 128.095C232.794 128.095 233.327 127.488 233.327 126.739C233.327 125.99 232.794 125.382 232.136 125.382C231.48 125.382 230.948 125.99 230.948 126.739C230.948 127.488 231.48 128.095 232.136 128.095Z" fill="white"/>
</g>
<path d="M160.709 10.3806H162.435" stroke="#5CA4E6" stroke-miterlimit="10"/>
<path d="M192.301 0.0480957H92.8751C89.97 0.0480957 87.6147 2.74297 87.6147 6.06681V79.3775C87.6147 82.7017 89.97 85.3962 92.8751 85.3962H192.301C195.206 85.3962 197.562 82.7017 197.562 79.3775V6.06681C197.562 2.74297 195.206 0.0480957 192.301 0.0480957Z" fill="url(#paint1_linear_424_97)"/>
<path d="M188.822 63.783H133.588C132.674 63.783 131.933 64.6308 131.933 65.6767V74.2231C131.933 75.2691 132.674 76.1169 133.588 76.1169H188.822C189.736 76.1169 190.477 75.2691 190.477 74.2231V65.6767C190.477 64.6308 189.736 63.783 188.822 63.783Z" fill="white"/>
<path d="M171.715 69.1036V68.6122H172.688V72.8919H172.212V69.1036H171.715ZM173.486 69.6895C173.511 69.3264 173.633 69.0424 173.854 68.837C174.074 68.632 174.361 68.5293 174.712 68.5293C174.947 68.5293 175.149 68.5787 175.318 68.6774C175.49 68.7722 175.62 68.9022 175.706 69.0681C175.795 69.2336 175.84 69.4212 175.84 69.6302C175.84 69.8751 175.778 70.0861 175.654 70.2638C175.533 70.4412 175.375 70.5557 175.178 70.6071V70.6367C175.402 70.6999 175.58 70.824 175.711 71.0096C175.842 71.1949 175.908 71.4378 175.908 71.7376C175.908 71.9624 175.863 72.1658 175.773 72.3472C175.683 72.5249 175.549 72.6651 175.369 72.7674C175.19 72.8701 174.974 72.9215 174.723 72.9215C174.357 72.9215 174.057 72.8129 173.823 72.596C173.588 72.3748 173.457 72.0631 173.429 71.6606H173.885C173.909 71.8976 173.993 72.0908 174.138 72.2408C174.283 72.3906 174.476 72.4656 174.718 72.4656C174.959 72.4656 175.142 72.3945 175.266 72.2527C175.394 72.1066 175.457 71.919 175.457 71.6902C175.457 71.3943 175.371 71.1811 175.199 71.0511C175.026 70.9207 174.766 70.8556 174.418 70.8556H174.298V70.4056H174.423C174.74 70.4017 174.98 70.3428 175.142 70.2282C175.304 70.1098 175.385 69.9284 175.385 69.6835C175.385 69.4745 175.325 69.3067 175.204 69.1806C175.087 69.0543 174.918 68.9911 174.697 68.9911C174.483 68.9911 174.311 69.0543 174.18 69.1806C174.048 69.3067 173.971 69.4765 173.947 69.6895H173.486ZM176.486 72.4597C176.924 72.0572 177.267 71.7277 177.516 71.4713C177.764 71.2107 177.973 70.9405 178.142 70.6604C178.314 70.376 178.4 70.0979 178.4 69.8257C178.4 69.5693 178.345 69.3679 178.235 69.2218C178.128 69.072 177.954 68.997 177.712 68.997C177.478 68.997 177.295 69.0819 177.164 69.2514C177.036 69.4173 176.967 69.6401 176.957 69.9205H176.502C176.515 69.4785 176.633 69.1372 176.853 68.8963C177.074 68.6557 177.359 68.5352 177.707 68.5352C178.062 68.5352 178.343 68.6478 178.55 68.8726C178.761 69.0977 178.866 69.4074 178.866 69.802C178.866 70.1295 178.78 70.4491 178.607 70.7608C178.438 71.0688 178.245 71.341 178.028 71.5777C177.811 71.8107 177.533 72.0829 177.195 72.3945H178.975V72.8445H176.486V72.4597Z" fill="#1C85E8"/>
<path d="M124.194 9.08813H95.2484C94.1631 9.08813 93.2832 10.0949 93.2832 11.3371V73.8682C93.2832 75.11 94.1631 76.1168 95.2484 76.1168H124.194C125.279 76.1168 126.159 75.11 126.159 73.8682V11.3371C126.159 10.0949 125.279 9.08813 124.194 9.08813Z" fill="#FFD8DC"/>
<path opacity="0.4" d="M109.721 53.6029C114.3 53.6029 118.012 49.3558 118.012 44.1171C118.012 38.8781 114.3 34.6311 109.721 34.6311C105.143 34.6311 101.431 38.8781 101.431 44.1171C101.431 49.3558 105.143 53.6029 109.721 53.6029Z" fill="white"/>
<path d="M107.157 41.5055V47.5259C107.157 47.6928 107.195 47.857 107.267 48.0021C107.339 48.1469 107.443 48.2681 107.568 48.353C107.694 48.4382 107.836 48.4846 107.982 48.4876C108.128 48.4902 108.272 48.4497 108.4 48.3698L113.21 45.3593C113.343 45.2766 113.453 45.1545 113.53 45.0061C113.607 44.8577 113.647 44.6882 113.647 44.5157C113.647 44.3432 113.607 44.1737 113.53 44.0253C113.453 43.8769 113.343 43.7548 113.21 43.6722L108.4 40.6616C108.272 40.5817 108.128 40.5412 107.982 40.5438C107.836 40.5468 107.694 40.5932 107.568 40.6781C107.443 40.7633 107.339 40.8845 107.267 41.0293C107.195 41.1744 107.157 41.3383 107.157 41.5055Z" fill="white"/>
<path d="M133.418 17.1389H154.096" stroke="white" stroke-width="7" stroke-miterlimit="10" stroke-linecap="round"/>
<path opacity="0.4" d="M133.418 28.1804H176.151" stroke="white" stroke-width="7" stroke-miterlimit="10" stroke-linecap="round"/>
<path d="M133.673 42.8157H154.351" stroke="white" stroke-width="7" stroke-miterlimit="10" stroke-linecap="round"/>
<path opacity="0.4" d="M133.673 53.8567H176.406" stroke="white" stroke-width="7" stroke-miterlimit="10" stroke-linecap="round"/>
<path d="M141.168 67.84C140.845 67.4981 140.42 67.3079 139.98 67.3079C139.539 67.3079 139.115 67.4981 138.791 67.84L138.343 68.313L137.895 67.84C137.572 67.4981 137.147 67.3079 136.707 67.3079C136.266 67.3079 135.842 67.4981 135.518 67.84C135.348 68.0171 135.211 68.233 135.117 68.474C135.024 68.7149 134.976 68.9759 134.976 69.2395C134.976 69.5031 135.024 69.7638 135.117 70.0047C135.211 70.246 135.348 70.4619 135.518 70.6386L138.343 73.6343L141.168 70.6781C141.347 70.5023 141.489 70.2845 141.588 70.0396C141.686 69.7947 141.737 69.5285 141.737 69.2592C141.737 68.9897 141.686 68.7234 141.588 68.4786C141.489 68.2337 141.347 68.0158 141.168 67.84Z" fill="#F4608A"/>
<path d="M144.322 69.6895C144.346 69.3264 144.469 69.0424 144.69 68.837C144.911 68.632 145.197 68.5293 145.549 68.5293C145.783 68.5293 145.985 68.5787 146.154 68.6774C146.326 68.7722 146.456 68.9022 146.542 69.0681C146.632 69.2336 146.676 69.4212 146.676 69.6302C146.676 69.8751 146.614 70.0861 146.49 70.2638C146.369 70.4412 146.211 70.5557 146.014 70.6071V70.6367C146.238 70.6999 146.416 70.824 146.547 71.0096C146.678 71.1949 146.743 71.4378 146.743 71.7376C146.743 71.9624 146.699 72.1658 146.609 72.3471C146.519 72.5249 146.385 72.6651 146.206 72.7674C146.026 72.8701 145.811 72.9215 145.559 72.9215C145.193 72.9215 144.893 72.8129 144.659 72.596C144.424 72.3748 144.293 72.0631 144.266 71.6606H144.721C144.745 71.8976 144.829 72.0908 144.974 72.2408C145.119 72.3906 145.312 72.4656 145.554 72.4656C145.795 72.4656 145.978 72.3945 146.102 72.2527C146.23 72.1066 146.294 71.919 146.294 71.6902C146.294 71.3943 146.207 71.1811 146.035 71.051C145.862 70.9207 145.602 70.8555 145.254 70.8555H145.135V70.4056H145.259C145.576 70.4017 145.816 70.3428 145.978 70.2282C146.14 70.1097 146.221 69.9284 146.221 69.6835C146.221 69.4745 146.161 69.3067 146.04 69.1806C145.923 69.0543 145.754 68.9911 145.533 68.9911C145.319 68.9911 145.147 69.0543 145.016 69.1806C144.885 69.3067 144.807 69.4765 144.783 69.6895H144.322ZM147.943 72.146L147.364 73.7384H147.048L147.426 72.146H147.943ZM150.79 69.0799H148.974V70.4293C149.053 70.3033 149.17 70.2006 149.326 70.1216C149.481 70.0387 149.648 69.9972 149.827 69.9972C150.114 69.9972 150.347 70.0663 150.526 70.2045C150.705 70.3388 150.833 70.5143 150.909 70.7315C150.988 70.9444 151.028 71.1712 151.028 71.4121C151.028 71.6961 150.981 71.9506 150.888 72.1757C150.795 72.4005 150.652 72.5782 150.459 72.7082C150.269 72.8385 150.033 72.9037 149.75 72.9037C149.388 72.9037 149.094 72.7971 148.87 72.5841C148.646 72.3708 148.51 72.0868 148.462 71.7317H148.922C148.967 71.9565 149.062 72.1322 149.207 72.2586C149.352 72.3847 149.534 72.4479 149.755 72.4479C150.028 72.4479 150.233 72.355 150.371 72.1697C150.509 71.9802 150.578 71.7317 150.578 71.4239C150.578 71.1162 150.509 70.8792 150.371 70.7137C150.233 70.5439 150.029 70.459 149.76 70.459C149.577 70.459 149.417 70.5103 149.279 70.613C149.145 70.7117 149.046 70.8476 148.984 71.0214H148.539V68.6063H150.79V69.0799ZM151.596 72.4597C152.034 72.0572 152.377 71.7277 152.626 71.4713C152.874 71.2107 153.083 70.9405 153.252 70.6604C153.424 70.376 153.511 70.0979 153.511 69.8257C153.511 69.5693 153.455 69.3679 153.345 69.2218C153.238 69.072 153.064 68.997 152.822 68.997C152.588 68.997 152.405 69.0819 152.274 69.2514C152.146 69.4173 152.077 69.6401 152.067 69.9205H151.612C151.626 69.4785 151.743 69.1372 151.964 68.8963C152.184 68.6557 152.469 68.5352 152.817 68.5352C153.173 68.5352 153.454 68.6478 153.661 68.8726C153.871 69.0977 153.976 69.4074 153.976 69.802C153.976 70.1295 153.89 70.4491 153.717 70.7608C153.548 71.0688 153.355 71.341 153.138 71.5776C152.921 71.8107 152.643 72.0829 152.305 72.3945H154.085V72.8444H151.596V72.4597ZM156.931 69.0325L155.493 72.8918H155.017L156.476 69.0859H154.479V68.6241H156.931V69.0325Z" fill="#1C85E8"/>
<path d="M169.605 69.9561C169.605 68.1403 167.724 66.6685 165.405 66.6685C163.085 66.6685 161.205 68.1403 161.205 69.9561C161.205 71.7719 163.085 73.2437 165.405 73.2437C165.571 73.2437 165.733 73.2338 165.894 73.2184C165.919 73.2157 165.944 73.22 165.967 73.2302C165.99 73.2404 166.011 73.2562 166.028 73.277C166.326 73.6341 166.98 74.1867 168.219 74.2742C168.25 74.2765 168.281 74.2693 168.308 74.2528C168.336 74.236 168.359 74.2113 168.375 74.1807C168.391 74.1501 168.399 74.1152 168.399 74.0797C168.398 74.0441 168.389 74.0093 168.373 73.9793C168.156 73.6094 167.987 73.2059 167.871 72.7813C167.861 72.7388 167.865 72.6941 167.881 72.6546C167.896 72.6148 167.924 72.5825 167.958 72.5631C168.958 71.9624 169.605 71.0192 169.605 69.9561Z" fill="#1C85E8"/>
<path d="M78.5844 0H42.1143C39.3338 0 37.0801 2.5787 37.0801 5.76002V63.3082C37.0801 66.4892 39.3338 69.0682 42.1143 69.0682H78.5844C81.3646 69.0682 83.6186 66.4892 83.6186 63.3082V5.76002C83.6186 2.5787 81.3646 0 78.5844 0Z" fill="#F40638"/>
<path d="M58.4339 42.1592L57.0686 46.0397H56.6168L58.0016 42.2127H56.106V41.7484H58.4339V42.1592ZM59.5776 43.8019C59.3943 43.7147 59.2535 43.5876 59.1552 43.421C59.0569 43.2543 59.008 43.052 59.008 42.8139C59.008 42.5996 59.0522 42.4071 59.1406 42.2367C59.229 42.062 59.3599 41.925 59.5334 41.8258C59.7102 41.7227 59.923 41.6711 60.1719 41.6711C60.4206 41.6711 60.6319 41.7227 60.8054 41.8258C60.9822 41.925 61.1148 42.062 61.2032 42.2367C61.2949 42.4071 61.3407 42.5996 61.3407 42.8139C61.3407 43.0441 61.2899 43.2463 61.1884 43.421C61.087 43.5916 60.9479 43.7187 60.7711 43.8019C60.974 43.8774 61.1345 44.0101 61.2523 44.2007C61.3734 44.3871 61.434 44.6133 61.434 44.8791C61.434 45.1372 61.3816 45.3634 61.2768 45.5577C61.1721 45.7483 61.0231 45.897 60.8299 46.0041C60.6402 46.1072 60.4206 46.1588 60.1719 46.1588C59.923 46.1588 59.7036 46.1072 59.5137 46.0041C59.3273 45.897 59.1815 45.7483 59.0767 45.5577C58.9718 45.3634 58.9196 45.1372 58.9196 44.8791C58.9196 44.6133 58.9784 44.3851 59.0964 44.1947C59.2142 44.0042 59.3745 43.8734 59.5776 43.8019ZM60.9086 42.8794C60.9086 42.6372 60.843 42.4509 60.7121 42.3199C60.5812 42.1888 60.4011 42.1235 60.1719 42.1235C59.946 42.1235 59.7676 42.1888 59.6366 42.3199C59.5057 42.4509 59.4401 42.6392 59.4401 42.8854C59.4401 43.1076 59.5073 43.286 59.6416 43.421C59.7791 43.5557 59.9559 43.6233 60.1719 43.6233C60.3912 43.6233 60.568 43.5557 60.7022 43.421C60.8398 43.282 60.9086 43.1016 60.9086 42.8794ZM60.1719 44.04C59.9295 44.04 59.7316 44.1093 59.5776 44.2483C59.4237 44.3831 59.3468 44.5876 59.3468 44.8614C59.3468 45.1152 59.4204 45.3195 59.5678 45.4745C59.7184 45.6292 59.9197 45.7064 60.1719 45.7064C60.4239 45.7064 60.6237 45.6292 60.7711 45.4745C60.9183 45.3195 60.9921 45.1152 60.9921 44.8614C60.9921 44.5956 60.9166 44.393 60.7662 44.2543C60.6155 44.1113 60.4173 44.04 60.1719 44.04ZM61.9294 42.7067C61.9294 42.4369 61.9964 42.2227 62.1307 42.064C62.2649 41.9013 62.4367 41.8199 62.6464 41.8199C62.8559 41.8199 63.0277 41.9013 63.1619 42.064C63.2962 42.2227 63.3634 42.4369 63.3634 42.7067C63.3634 42.9805 63.2962 43.1988 63.1619 43.3614C63.0277 43.5201 62.8559 43.5996 62.6464 43.5996C62.4367 43.5996 62.2649 43.5201 62.1307 43.3614C61.9964 43.1988 61.9294 42.9805 61.9294 42.7067ZM64.7974 41.8854L62.8084 46.0397H62.3664L64.3554 41.8854H64.7974ZM62.6464 42.1532C62.535 42.1532 62.4466 42.2008 62.3812 42.2959C62.3189 42.3874 62.2879 42.5241 62.2879 42.7067C62.2879 42.8893 62.3189 43.0281 62.3812 43.1233C62.4466 43.2187 62.535 43.2663 62.6464 43.2663C62.7576 43.2663 62.846 43.2187 62.9116 43.1233C62.9771 43.0241 63.0098 42.8854 63.0098 42.7067C63.0098 42.5241 62.9771 42.3874 62.9116 42.2959C62.846 42.2008 62.7576 42.1532 62.6464 42.1532ZM63.8103 45.2184C63.8103 44.9446 63.8775 44.7284 64.0117 44.5697C64.146 44.407 64.3178 44.3255 64.5273 44.3255C64.7369 44.3255 64.9071 44.407 65.0381 44.5697C65.1723 44.7284 65.2395 44.9446 65.2395 45.2184C65.2395 45.4882 65.1723 45.7044 65.0381 45.8671C64.9071 46.0298 64.7369 46.1112 64.5273 46.1112C64.3178 46.1112 64.146 46.0318 64.0117 45.8731C63.8775 45.7104 63.8103 45.4922 63.8103 45.2184ZM64.5223 44.6648C64.4111 44.6648 64.3227 44.7124 64.2572 44.8078C64.1918 44.899 64.1589 45.036 64.1589 45.2184C64.1589 45.397 64.1918 45.5338 64.2572 45.6292C64.3227 45.7204 64.4111 45.766 64.5223 45.766C64.6337 45.766 64.7221 45.7204 64.7877 45.6292C64.8531 45.5338 64.8858 45.397 64.8858 45.2184C64.8858 45.036 64.8531 44.899 64.7877 44.8078C64.7221 44.7124 64.6337 44.6648 64.5223 44.6648Z" fill="white"/>
<path d="M60.3493 59.7691C68.1611 59.7691 74.4935 52.5237 74.4935 43.586C74.4935 34.6479 68.1611 27.4026 60.3493 27.4026C52.5378 27.4026 46.2051 34.6479 46.2051 43.586C46.2051 52.5237 52.5378 59.7691 60.3493 59.7691Z" stroke="white" stroke-width="13" stroke-miterlimit="10" stroke-linecap="round"/>
<path d="M74.4935 43.5854C74.4889 47.8743 72.9965 51.9851 70.3444 55.0156C67.6925 58.0462 64.0974 59.7485 60.3493 59.7485C56.6012 59.7485 53.0063 58.0462 50.3542 55.0156C47.7023 51.9851 46.21 47.8743 46.2051 43.5854" stroke="#EF7693" stroke-width="13" stroke-linecap="round" stroke-linejoin="round"/>
<path d="M60.3491 27.4026C62.2068 27.4026 64.046 27.8209 65.7619 28.6342C67.478 29.4478 69.0374 30.6395 70.3505 32.1423C71.664 33.6451 72.7059 35.4293 73.4166 37.3929C74.1274 39.3561 74.4933 41.4605 74.4933 43.586" stroke="#FEBB94" stroke-width="13" stroke-linecap="round" stroke-linejoin="round"/>
<path d="M43.8174 10.676H53.2185" stroke="white" stroke-width="4" stroke-miterlimit="10" stroke-linecap="round"/>
<path opacity="0.4" d="M43.8174 15.696H63.2458" stroke="white" stroke-width="4" stroke-miterlimit="10" stroke-linecap="round"/>
<path d="M249.369 228.023H41.52V234H249.369V228.023Z" fill="#9D0D30"/>
<path d="M43.1481 77.015C43.6247 77.015 44.0111 76.573 44.0111 76.0277C44.0111 75.4823 43.6247 75.0403 43.1481 75.0403C42.6715 75.0403 42.2852 75.4823 42.2852 76.0277C42.2852 76.573 42.6715 77.015 43.1481 77.015Z" fill="#5661AE"/>
<defs>
<linearGradient id="paint0_linear_424_97" x1="120.382" y1="-3.78486" x2="148.378" y2="345.868" gradientUnits="userSpaceOnUse">
<stop stop-color="white"/>
<stop offset="1" stop-color="#E51A4B"/>
</linearGradient>
<linearGradient id="paint1_linear_424_97" x1="129.86" y1="-27.1076" x2="152.111" y2="181.883" gradientUnits="userSpaceOnUse">
<stop stop-color="white"/>
<stop offset="1" stop-color="#E51A4B"/>
</linearGradient>
</defs>
</svg>
