<svg width="265" height="256" viewBox="0 0 265 256" fill="none" xmlns="http://www.w3.org/2000/svg">
<path d="M137.2 228.254C199.429 228.254 249.874 179.163 249.874 118.606C249.874 58.0496 199.429 8.95874 137.2 8.95874C74.9715 8.95874 24.5249 58.0496 24.5249 118.606C24.5249 179.163 74.9715 228.254 137.2 228.254Z" stroke="#E51A4B" stroke-width="1.91649" stroke-miterlimit="10"/>
<path d="M45.5363 58.0865C47.7282 58.0865 49.505 56.3573 49.505 54.2243C49.505 52.0914 47.7282 50.3625 45.5363 50.3625C43.3447 50.3625 41.5679 52.0914 41.5679 54.2243C41.5679 56.3573 43.3447 58.0865 45.5363 58.0865Z" fill="#F40638"/>
<path d="M249.874 126.644C252.067 126.644 253.845 124.915 253.845 122.783C253.845 120.65 252.067 118.92 249.874 118.92C247.684 118.92 245.906 120.65 245.906 122.783C245.906 124.915 247.684 126.644 249.874 126.644Z" fill="#5661AE"/>
<path d="M141.821 232.116C144.013 232.116 145.79 230.387 145.79 228.254C145.79 226.121 144.013 224.392 141.821 224.392C139.629 224.392 137.853 226.121 137.853 228.254C137.853 230.387 139.629 232.116 141.821 232.116Z" fill="#F40638"/>
<path d="M139.81 201.123C186.231 201.123 223.863 164.503 223.863 119.329C223.863 74.1549 186.231 37.5344 139.81 37.5344C93.3889 37.5344 55.7573 74.1549 55.7573 119.329C55.7573 164.503 93.3889 201.123 139.81 201.123Z" stroke="#E51A4B" stroke-width="1.42966" stroke-miterlimit="10"/>
<path d="M222.423 138.686C224.057 138.686 225.383 137.396 225.383 135.805C225.383 134.214 224.057 132.924 222.423 132.924C220.787 132.924 219.462 134.214 219.462 135.805C219.462 137.396 220.787 138.686 222.423 138.686Z" fill="#F40638"/>
<path d="M61.8524 152.948C63.4876 152.948 64.813 151.659 64.813 150.067C64.813 148.476 63.4876 147.187 61.8524 147.187C60.2175 147.187 58.8921 148.476 58.8921 150.067C58.8921 151.659 60.2175 152.948 61.8524 152.948Z" fill="#5661AE"/>
<path d="M102.161 49.0028C103.796 49.0028 105.121 47.713 105.121 46.1217C105.121 44.5308 103.796 43.241 102.161 43.241C100.526 43.241 99.2002 44.5308 99.2002 46.1217C99.2002 47.713 100.526 49.0028 102.161 49.0028Z" fill="#1C85E8"/>
<path d="M183.556 209.905H86.4887C82.2774 209.905 79.1918 206.583 79.5967 202.485L96.1669 34.7404C96.5716 30.6423 100.313 27.3201 104.525 27.3201H201.593C205.804 27.3201 208.889 30.6423 208.484 34.7404L191.914 202.485C191.51 206.583 187.767 209.905 183.556 209.905Z" fill="#FFD8DC"/>
<path d="M176.716 209.905H79.6478C75.4369 209.905 72.3512 206.583 72.7559 202.485L89.3261 34.7404C89.731 30.6423 93.4729 27.3201 97.6842 27.3201H194.752C198.963 27.3201 202.049 30.6423 201.644 34.7404L185.074 202.485C184.669 206.583 180.927 209.905 176.716 209.905Z" fill="url(#paint0_linear_424_11)"/>
<path d="M173.037 204.329H84.4283C80.5255 204.329 77.6658 201.25 78.0409 197.452L93.6168 39.773C93.9922 35.975 97.4598 32.8965 101.363 32.8965H189.971C193.874 32.8965 196.734 35.975 196.359 39.773L180.783 197.452C180.408 201.25 176.94 204.329 173.037 204.329Z" fill="white"/>
<path d="M180.143 104.627L85.0886 104.545C84.7003 104.555 84.3142 104.485 83.9561 104.338C83.5983 104.192 83.2763 103.973 83.0124 103.695C82.7482 103.418 82.5481 103.09 82.4249 102.731C82.3018 102.373 82.2587 101.993 82.2986 101.617L87.4231 46.2426C87.5158 45.4434 87.906 44.7051 88.5198 44.1668C89.1334 43.6281 89.9282 43.327 90.7545 43.3193L185.809 43.4016C186.197 43.3915 186.584 43.4618 186.942 43.6082C187.299 43.755 187.621 43.9739 187.885 44.2512C188.15 44.5284 188.35 44.8571 188.473 45.2157C188.596 45.574 188.639 45.954 188.599 46.33L183.475 101.704C183.382 102.503 182.992 103.241 182.378 103.78C181.764 104.318 180.97 104.62 180.143 104.627Z" fill="url(#paint1_linear_424_11)"/>
<path d="M177.15 164.294H136.974C136.678 164.299 136.384 164.243 136.111 164.129C135.839 164.014 135.596 163.844 135.397 163.63C135.199 163.416 135.049 163.163 134.96 162.888C134.87 162.613 134.842 162.323 134.878 162.037L139.756 112.653C139.826 112.04 140.123 111.474 140.591 111.059C141.058 110.644 141.665 110.408 142.298 110.396H182.474C182.771 110.39 183.065 110.446 183.337 110.561C183.609 110.675 183.852 110.845 184.051 111.059C184.25 111.273 184.399 111.526 184.489 111.801C184.578 112.076 184.606 112.367 184.57 112.653L179.692 162.037C179.622 162.649 179.325 163.215 178.857 163.63C178.39 164.046 177.783 164.281 177.15 164.294Z" fill="url(#paint2_linear_424_11)"/>
<path d="M167.572 137.051C172.103 132.849 172.596 126.195 168.674 122.19C164.751 118.185 157.898 118.345 153.367 122.547C148.837 126.749 148.343 133.403 152.266 137.408C156.189 141.413 163.042 141.253 167.572 137.051Z" stroke="#EF6A77" stroke-width="11.6898" stroke-miterlimit="10"/>
<path d="M155.376 139.513C151.618 137.934 149.236 134.179 149.668 129.799C150.242 123.993 155.542 119.288 161.508 119.288" stroke="white" stroke-width="11.6898" stroke-miterlimit="10" stroke-linecap="round"/>
<path d="M154.485 148.549H162.75" stroke="white" stroke-width="5.98374" stroke-miterlimit="10" stroke-linecap="round"/>
<path d="M153.584 157.658H161.85" stroke="white" stroke-width="5.98374" stroke-miterlimit="10" stroke-linecap="round"/>
<path opacity="0.4" d="M149.631 153.052H166.713" stroke="white" stroke-width="5.98374" stroke-miterlimit="10" stroke-linecap="round"/>
<path d="M128.017 164.294H87.8413C87.5451 164.299 87.2507 164.243 86.9787 164.129C86.7069 164.014 86.4631 163.844 86.2643 163.63C86.0657 163.416 85.9165 163.163 85.827 162.888C85.7371 162.613 85.7095 162.323 85.745 162.037L90.6232 112.653C90.6936 112.04 90.9901 111.474 91.4579 111.059C91.9257 110.644 92.5323 110.408 93.1653 110.396H133.342C133.638 110.39 133.932 110.446 134.204 110.561C134.476 110.675 134.719 110.845 134.918 111.059C135.117 111.273 135.266 111.526 135.356 111.801C135.445 112.076 135.473 112.367 135.438 112.653L130.559 162.037C130.489 162.649 130.192 163.215 129.725 163.63C129.257 164.046 128.65 164.281 128.017 164.294Z" fill="#F40638"/>
<path d="M118.439 137.051C122.97 132.849 123.463 126.195 119.54 122.19C115.618 118.185 108.765 118.345 104.234 122.547C99.7033 126.749 99.2104 133.403 103.133 137.408C107.055 141.413 113.909 141.253 118.439 137.051Z" stroke="#EF6A77" stroke-width="8" stroke-miterlimit="10"/>
<path d="M122.138 129.799C121.565 135.604 116.264 140.31 110.298 140.31C104.333 140.31 99.9618 135.604 100.535 129.799C101.109 123.993 106.41 119.288 112.375 119.288" stroke="white" stroke-width="8" stroke-miterlimit="10" stroke-linecap="round"/>
<path d="M105.352 148.549H113.617" stroke="white" stroke-width="3" stroke-miterlimit="10" stroke-linecap="round"/>
<path d="M104.452 157.658H112.717" stroke="white" stroke-width="3" stroke-miterlimit="10" stroke-linecap="round"/>
<path opacity="0.4" d="M100.499 153.052H117.581" stroke="white" stroke-width="3" stroke-miterlimit="10" stroke-linecap="round"/>
<path d="M173.782 199.615H84.2309C83.95 199.62 83.6713 199.567 83.4137 199.459C83.1558 199.35 82.9249 199.189 82.7364 198.986C82.5482 198.784 82.4069 198.544 82.3217 198.283C82.2369 198.023 82.2105 197.748 82.2441 197.476L84.9167 170.425C84.9833 169.844 85.2644 169.307 85.7077 168.914C86.151 168.52 86.7259 168.297 87.3259 168.286H176.877C177.158 168.28 177.437 168.334 177.695 168.442C177.952 168.551 178.183 168.711 178.372 168.914C178.56 169.117 178.701 169.357 178.786 169.617C178.871 169.878 178.898 170.153 178.864 170.425L176.192 197.476C176.125 198.056 175.844 198.593 175.401 198.987C174.957 199.381 174.382 199.604 173.782 199.615Z" fill="url(#paint3_linear_424_11)"/>
<path d="M90.4668 193.343L91.73 180.554" stroke="white" stroke-width="11.6898" stroke-miterlimit="10" stroke-linecap="round"/>
<path d="M99.7361 184.384L98.8511 193.343" stroke="white" stroke-width="11.6898" stroke-miterlimit="10" stroke-linecap="round"/>
<path d="M107.818 187.444L107.235 193.343" stroke="white" stroke-width="11.6898" stroke-miterlimit="10" stroke-linecap="round"/>
<path d="M117.211 177.231L115.62 193.343" stroke="white" stroke-width="11.6898" stroke-miterlimit="10" stroke-linecap="round"/>
<path d="M124.587 187.444L124.004 193.343" stroke="white" stroke-width="11.6898" stroke-miterlimit="10" stroke-linecap="round"/>
<path d="M133.91 177.942L132.388 193.343" stroke="white" stroke-width="11.6898" stroke-miterlimit="10" stroke-linecap="round"/>
<path d="M141.404 186.948L140.772 193.343" stroke="white" stroke-width="11.6898" stroke-miterlimit="10" stroke-linecap="round"/>
<path d="M149.493 189.937L149.157 193.343" stroke="white" stroke-width="11.6898" stroke-miterlimit="10" stroke-linecap="round"/>
<path d="M158.804 180.554L157.541 193.343" stroke="white" stroke-width="11.6898" stroke-miterlimit="10" stroke-linecap="round"/>
<path d="M167.669 175.685L165.925 193.343" stroke="white" stroke-width="11.6898" stroke-miterlimit="10" stroke-linecap="round"/>
<path d="M92.7876 96.1357L97.8204 103.808C98.0476 104.154 98.1249 104.573 98.0356 104.975C97.9461 105.377 97.6976 105.727 97.3435 105.951L96.5302 106.466C95.1686 107.326 93.5322 107.677 91.925 107.452C90.3178 107.227 88.8491 106.442 87.7919 105.243L81.1133 97.6637L92.7876 96.1357Z" fill="#FFCCB3"/>
<path d="M88.9473 99.0884C88.9473 99.0884 90.8108 105.315 94.5546 107.313C95.5266 106.946 96.4606 106.491 97.3434 105.952L93.1454 99.0884" fill="#FCBA9F"/>
<path d="M2.84717 127.091L22.6155 117.872C24.4781 117.003 26.053 115.643 27.1613 113.947L46.2583 84.7135C47.447 82.8935 49.1714 81.4637 51.2069 80.6105L78.7122 69.0789L72.8237 112.414L72.72 114.014C72.72 114.014 65.4451 132.35 47.6142 139.011L19.106 155.979L2.84717 127.091Z" fill="#FFCCB3"/>
<path d="M24.3605 116.854C24.3605 116.854 33.7117 139.568 47.6144 139.011L38.7379 144.295C38.7379 144.295 8.60933 138.856 19.8872 119.099L24.3605 116.854Z" fill="#FCBA9F"/>
<path d="M74.4551 77.0989C74.4551 77.0989 64.73 82.8335 65.2459 96.1361L76.9247 91.8891L74.4551 77.0989Z" fill="#FCBA9F"/>
<path d="M98.8855 96.1357L103.918 103.808C104.145 104.154 104.223 104.573 104.133 104.975C104.044 105.377 103.795 105.727 103.441 105.951L102.628 106.466C101.266 107.326 99.63 107.677 98.0228 107.452C96.4156 107.227 94.9469 106.442 93.8898 105.243L87.2114 97.6637L98.8855 96.1357Z" fill="#FFCCB3"/>
<path d="M173.287 99.1613L78.2327 99.079C77.8444 99.0891 77.4583 99.0188 77.1005 98.8721C76.7423 98.7256 76.4206 98.5064 76.1564 98.2294C75.8922 97.9522 75.6921 97.6235 75.5689 97.2649C75.4458 96.9063 75.4028 96.5266 75.4427 96.1506L80.5672 40.7763C80.6602 39.9771 81.05 39.2388 81.6639 38.7005C82.2774 38.1621 83.0723 37.8607 83.8988 37.853L178.953 37.9356C179.341 37.9252 179.728 37.9958 180.086 38.1422C180.444 38.2887 180.766 38.5079 181.029 38.7849C181.294 39.0621 181.494 39.3911 181.617 39.7494C181.74 40.108 181.783 40.488 181.743 40.8637L176.619 96.238C176.526 97.0371 176.136 97.7755 175.522 98.3138C174.908 98.8522 174.114 99.1536 173.287 99.1613Z" fill="#F40638"/>
<path d="M84.5264 70.7045C84.5264 70.7045 93.0589 69.0252 95.3554 72.9215C97.6515 76.8176 99.6317 84.1346 105.741 83.1914C111.851 82.248 116.528 63.1181 122.534 63.2927C128.541 63.4673 126.423 75.9961 132.961 76.171C139.499 76.3458 138.336 69.1725 142.693 69.3725C147.979 69.6149 146.009 84.4788 152.901 84.654C159.793 84.8291 160.917 65.0203 171.336 65.3679" stroke="white" stroke-width="5" stroke-miterlimit="10" stroke-linecap="round"/>
<path d="M89.3794 47.1274L106.103 47.1418" stroke="white" stroke-width="5" stroke-miterlimit="10" stroke-linecap="round"/>
<path opacity="0.4" d="M88.689 54.5872L123.249 54.6171" stroke="white" stroke-width="5" stroke-miterlimit="10" stroke-linecap="round"/>
<path d="M56.3306 98.8868L68.5242 93.66L80.9941 85.3766C84.2735 83.1984 91.1221 82.217 93.5876 85.2455C96.0956 88.3258 93.2785 94.4194 90.2369 97.0042L78.7126 106.797L72.7201 114.015L56.3306 98.8868Z" fill="#FFCCB3"/>
<path d="M81.1133 88.5221C81.1133 88.5221 82.7595 94.6994 87.0276 95.7682L91.5546 92.0464C92.0136 91.7138 92.3981 91.2937 92.6849 90.8119C92.9718 90.3298 93.1546 89.796 93.2225 89.2433C93.2903 88.6902 93.2419 88.1295 93.0798 87.5955C92.9177 87.0614 92.6457 86.5649 92.28 86.1366C91.6413 85.3882 90.7504 84.885 89.7658 84.7168C88.7812 84.549 87.7671 84.7269 86.9051 85.2191L81.1133 88.5221Z" stroke="#FF967C" stroke-width="3" stroke-linecap="round"/>
<path d="M23.367 117.108C23.367 117.108 21.0039 133.554 41.5679 142.971C41.5679 142.971 26.7957 156.158 21.1003 158.375C15.4053 160.592 -5.99287 137.934 1.61789 125.073C3.75227 121.466 23.367 117.108 23.367 117.108Z" fill="#F40638"/>
<path d="M101.284 99.7932C101.284 99.7932 93.2691 99.9521 90.4791 101.373L88.4653 99.0879L100.822 99.0882L101.284 99.7932Z" fill="#FCBA9F"/>
<path d="M248.862 99.1613H191.873C187.58 99.1613 184.408 95.7746 184.788 91.597L192.434 7.56402C192.814 3.38672 196.602 0 200.895 0H257.885C262.179 0 265.349 3.38672 264.969 7.56402L257.322 91.597C256.942 95.7746 253.154 99.1613 248.862 99.1613Z" fill="#F40638"/>
<path d="M240.704 47.4499C249.729 39.0486 250.637 25.7221 242.736 17.6845C234.834 9.64695 221.113 9.94166 212.089 18.343C203.065 26.7444 202.155 40.0709 210.057 48.1084C217.959 56.1463 231.681 55.8513 240.704 47.4499Z" fill="white"/>
<path d="M227.604 33.5505L241.91 46.2475C241.91 46.2475 245.165 42.8434 246.136 40.4105L227.604 33.5505Z" fill="url(#paint4_linear_424_11)"/>
<path d="M228.557 9.16016L226.524 31.5009C226.478 31.9079 226.557 32.3187 226.749 32.6831C226.941 33.0473 227.238 33.3487 227.604 33.5505L247.015 44.0665C247.015 44.0665 258.541 12.7737 228.557 9.16016Z" fill="#EF7693"/>
<path d="M198.174 69.4187H221.174" stroke="white" stroke-width="5" stroke-miterlimit="10" stroke-linecap="round"/>
<path d="M196.446 88.4133H220.056" stroke="white" stroke-width="5" stroke-miterlimit="10" stroke-linecap="round"/>
<path opacity="0.4" d="M197.32 78.8086H246.11" stroke="white" stroke-width="5" stroke-miterlimit="10" stroke-linecap="round"/>
<path d="M178.776 161.068C178.776 161.068 186.386 159.093 190.437 163.337C190.437 163.337 197.717 162.051 200.677 165.992C200.677 165.992 207.131 166.356 209 168.918C210.555 169.127 212.025 169.732 213.26 170.673C214.496 171.614 215.453 172.857 216.035 174.276C217.8 178.324 216.303 201.727 214.549 210.113C214.11 212.21 214.26 214.384 214.984 216.405L219.446 228.884L188.572 241.444L181.242 222.839C181.242 222.839 172.319 208.886 171.045 206.405C169.77 203.925 171.93 183.34 167.579 170.481L178.776 161.068Z" fill="#FFCCB3"/>
<path d="M185.224 232.946L184.333 230.686C184.333 230.686 200.353 229.689 214.983 216.405L216.383 220.318C216.383 220.318 214.576 228.401 206.348 232.211C198.121 236.02 185.224 232.946 185.224 232.946Z" fill="#FCBA9F"/>
<path d="M185.224 232.947C185.224 232.947 204.616 234.665 216.383 220.318C216.383 220.318 220.727 222.535 227.398 238.762C229.447 243.747 195.233 261.493 189.701 254.116C189.701 254.116 184.925 244.285 185.224 232.947Z" fill="#5661AE"/>
<path d="M169.477 178.243C169.477 178.243 168.808 181.696 165.645 181.697C163.582 181.697 154.638 179.067 148.668 177.239C147.044 176.742 145.302 176.742 143.678 177.239C142.054 177.736 140.625 178.707 139.587 180.02L139.224 180.479C139.044 180.706 138.913 180.966 138.839 181.245C138.765 181.522 138.751 181.812 138.795 182.096C138.84 182.379 138.943 182.651 139.099 182.895C139.255 183.139 139.46 183.349 139.702 183.514C144.756 186.947 158.403 196.266 160.148 197.964C162.297 200.055 174.258 211.773 174.258 211.773L169.477 178.243Z" fill="#FFCCB3"/>
<path d="M168.75 174.783C168.75 174.783 175.214 183.298 174.258 185.162C173.301 187.026 163.277 181.327 163.277 181.327C163.277 181.327 171.365 183.352 168.75 174.783Z" fill="#FCBA9F"/>
<path d="M167.579 170.48L156.701 138.335C156.328 137.232 156.186 136.068 156.284 134.911C156.383 133.754 156.718 132.628 157.272 131.599C157.825 130.571 158.586 129.661 159.507 128.924C160.429 128.187 161.493 127.637 162.637 127.308C163.574 127.039 164.579 127.111 165.464 127.513C166.348 127.915 167.052 128.617 167.441 129.489L182.701 163.625L167.579 170.48Z" fill="#FFCCB3"/>
<path d="M162.862 156.54C163.17 157.033 163.58 157.459 164.065 157.79C164.55 158.122 165.1 158.352 165.681 158.467" stroke="#FF967C" stroke-width="3" stroke-linecap="round"/>
<path d="M166.776 140.084C168.099 139.513 169.559 138.716 170.187 137.785L166.137 128.426C166.05 128.224 165.92 128.043 165.756 127.894C165.592 127.745 165.397 127.631 165.184 127.561C164.972 127.49 164.746 127.465 164.522 127.486C164.299 127.507 164.082 127.574 163.887 127.683C162.446 128.492 160.544 129.953 160.47 132.05L163.209 138.684C163.344 139.008 163.544 139.302 163.798 139.549C164.051 139.796 164.354 139.991 164.687 140.122C165.02 140.253 165.376 140.316 165.735 140.31C166.094 140.304 166.448 140.227 166.776 140.084Z" stroke="#FF967C" stroke-width="3" stroke-linecap="round"/>
<path d="M181.474 160.879L185.224 168.917" stroke="#FF967C" stroke-width="3" stroke-linecap="round"/>
<path d="M190.586 163.501C192.492 166.16 193.513 169.324 193.512 172.566" stroke="#FF967C" stroke-width="3" stroke-linecap="round"/>
<path d="M200.855 166.142C200.855 166.142 202.743 170.355 202.899 173.687" stroke="#FF967C" stroke-width="3" stroke-linecap="round"/>
<path d="M209.265 169.168C210.008 170.945 210.297 172.873 210.105 174.783" stroke="#FF967C" stroke-width="3" stroke-linecap="round"/>
<path d="M147.689 187.444C147.689 187.444 149.923 184.683 149.156 183.299C148.39 181.914 144.982 179.956 143.012 180.169C142.072 180.307 141.165 180.607 140.335 181.057C140.183 181.134 140.056 181.248 139.964 181.388C139.872 181.527 139.82 181.688 139.811 181.854C139.803 182.019 139.839 182.184 139.916 182.332C139.994 182.48 140.11 182.606 140.252 182.696L147.689 187.444Z" stroke="#FF967C" stroke-width="3" stroke-linecap="round"/>
<path d="M109.277 221.104H41.2257C40.9448 221.109 40.6662 221.056 40.4082 220.948C40.1503 220.839 39.9194 220.678 39.7312 220.475C39.5427 220.273 39.4014 220.033 39.3165 219.772C39.2314 219.512 39.205 219.236 39.239 218.965L41.9112 191.913C41.9778 191.333 42.2589 190.796 42.7022 190.403C43.1455 190.009 43.7204 189.786 44.3204 189.774H112.372C112.653 189.769 112.931 189.822 113.189 189.931C113.447 190.039 113.678 190.2 113.866 190.403C114.054 190.606 114.196 190.846 114.281 191.106C114.366 191.367 114.392 191.642 114.359 191.913L111.686 218.965C111.619 219.545 111.338 220.082 110.895 220.475C110.452 220.869 109.877 221.092 109.277 221.104Z" fill="#F40638"/>
<path d="M47.6143 196.829H89.6116" stroke="#EF6A77" stroke-width="5" stroke-miterlimit="10" stroke-linecap="round"/>
<path d="M47.6143 196.829H76.7985" stroke="white" stroke-width="5" stroke-miterlimit="10" stroke-linecap="round"/>
<path d="M46.9863 205.439H88.9837" stroke="#EF6A77" stroke-width="5" stroke-miterlimit="10" stroke-linecap="round"/>
<path d="M46.9863 205.439H64.4346" stroke="white" stroke-width="5" stroke-miterlimit="10" stroke-linecap="round"/>
<path d="M45.6128 214.049H87.6102" stroke="#EF6A77" stroke-width="5" stroke-miterlimit="10" stroke-linecap="round"/>
<path d="M45.6128 214.049H56.2831" stroke="white" stroke-width="5" stroke-miterlimit="10" stroke-linecap="round"/>
<path d="M104.478 199.271C105.864 199.271 106.988 198.178 106.988 196.829C106.988 195.48 105.864 194.387 104.478 194.387C103.093 194.387 101.969 195.48 101.969 196.829C101.969 198.178 103.093 199.271 104.478 199.271Z" fill="white"/>
<path d="M103.665 207.504C105.051 207.504 106.174 206.411 106.174 205.062C106.174 203.714 105.051 202.62 103.665 202.62C102.279 202.62 101.155 203.714 101.155 205.062C101.155 206.411 102.279 207.504 103.665 207.504Z" fill="white"/>
<path d="M102.757 216.492C104.142 216.492 105.266 215.398 105.266 214.049C105.266 212.701 104.142 211.607 102.757 211.607C101.37 211.607 100.247 212.701 100.247 214.049C100.247 215.398 101.37 216.492 102.757 216.492Z" fill="white"/>
<defs>
<linearGradient id="paint0_linear_424_11" x1="122.271" y1="-30.7743" x2="206.884" y2="404.955" gradientUnits="userSpaceOnUse">
<stop stop-color="white"/>
<stop offset="1" stop-color="#94B9FF"/>
</linearGradient>
<linearGradient id="paint1_linear_424_11" x1="132.802" y1="43.1735" x2="140.991" y2="174.176" gradientUnits="userSpaceOnUse">
<stop stop-color="white"/>
<stop offset="1" stop-color="#94B9FF"/>
</linearGradient>
<linearGradient id="paint2_linear_424_11" x1="158.486" y1="110.267" x2="171.889" y2="224.312" gradientUnits="userSpaceOnUse">
<stop stop-color="white"/>
<stop offset="1" stop-color="#94B9FF"/>
</linearGradient>
<linearGradient id="paint3_linear_424_11" x1="128.148" y1="168.211" x2="130.507" y2="235.336" gradientUnits="userSpaceOnUse">
<stop stop-color="white"/>
<stop offset="1" stop-color="#94B9FF"/>
</linearGradient>
<linearGradient id="paint4_linear_424_11" x1="236.408" y1="33.5203" x2="238.421" y2="60.6077" gradientUnits="userSpaceOnUse">
<stop stop-color="white"/>
<stop offset="1" stop-color="#94B9FF"/>
</linearGradient>
</defs>
</svg>
