<svg width="313" height="257" fill="none" xmlns="http://www.w3.org/2000/svg"><path d="M156.499 256.037c86.434 0 156.501-1.837 156.501-4.103s-70.067-4.103-156.501-4.103C70.067 247.831 0 249.668 0 251.934s70.067 4.103 156.499 4.103z" fill="#F5F8FF"/><path d="M197.228 0H53.653C51.52 0 49.79 1.775 49.79 3.963v96.994c0 2.189 1.73 3.963 3.862 3.963h143.575c2.132 0 3.861-1.774 3.861-3.963V3.963c0-2.188-1.729-3.963-3.861-3.963z" fill="url(#a)"/><path d="M194.007 68.336h-26.751c-.993 0-1.797.826-1.797 1.844v29.795c0 1.019.804 1.844 1.797 1.844h26.751c.993 0 1.797-.825 1.797-1.844V70.18c0-1.019-.804-1.844-1.797-1.844z" fill="#F40638"/><path d="M94.736 68.022H56.043c-.84 0-1.521.7-1.521 1.562v30.674c0 .862.68 1.561 1.52 1.561h38.694c.84 0 1.522-.699 1.522-1.561V69.584c0-.862-.682-1.562-1.522-1.562zM160.67 68.022h-59.434c-1.034 0-1.872.86-1.872 1.922v29.954c0 1.061.838 1.921 1.872 1.921h59.434c1.033 0 1.872-.86 1.872-1.92V69.943c0-1.061-.839-1.922-1.872-1.922z" fill="#fff"/><path d="M193.402 13.703h-53.817c-1.326 0-2.401 1.104-2.401 2.465v46.374c0 1.361 1.075 2.465 2.401 2.465h53.817c1.327 0 2.402-1.104 2.402-2.465V16.168c0-1.361-1.075-2.465-2.402-2.465z" fill="#EF7693"/><path d="M126.581 118.082c3.289-3.73 2.357-4.728 3.899-6.93 1.515-2.148 1.181-8.47 2.627-7.265 1.446 1.204 1.454 3.468 1.454 3.468 1.588-1.754 3.483-5.233 6.256-5.006 2.773.228 2.809 1.149 4.028 2.797 3.231 4.429-3.112 8.344-4.428 10.104-.839 1.1-5.77 3.872-6.411 4.585l-2.748 2.54-4.677-4.293z" fill="#FFCCB3"/><path d="m137.184 108.278 4.692-5.375M139.086 109.8l4.887-4.88M141.365 111.526l2.839-2.985" stroke="#EF6A77" stroke-width="1.078" stroke-linecap="round"/><path d="m77.311 148.259-27.52 101.39h5.606l31.81-101.39H77.31z" fill="#F40638"/><path d="m77.311 148.259-2.02 7.444 10.544-3.073 1.372-4.371H77.31z" fill="#5CA4E6"/><path d="m272.862 228.989-14.909 20.341c-.35.479-.874.795-1.45.879a2.153 2.153 0 0 1-1.632-.432l-1.386-1.068 17.556-23.954 1.385 1.069c.468.36.774.896.856 1.49a2.29 2.29 0 0 1-.42 1.675z" fill="#5661AE"/><path d="m258.8 217.078 5.374 4.484-5.459 8.647-6.062-4.747 6.147-8.384z" fill="#BC775C"/><path d="m261.187 219.263-6.694 7.495-1.63-1.319 6.271-7.907 2.053 1.731z" fill="#93523E" stroke="#93523E"/><path d="M263.454 221.006s-1.509 5.448-6.482 8.238l-4.492 18.021c.145 1.035 1.271 1.699 2.018 1.945a.815.815 0 0 0 .915-.304l15.938-21.743a1.78 1.78 0 0 0 .326-1.268 1.744 1.744 0 0 0-.635-1.14c-1.391-1.12-3.529-2.809-4.453-3.389-1.432-.896-2.45-1.103-3.135-.36z" fill="#F40638"/><path d="m255.933 232.981 2.556-.562a.561.561 0 0 1 .526.154.603.603 0 0 1 .168.534.581.581 0 0 1-.456.482l-3.138.65.344-1.258zM255.33 235.837l2.541-.569a.565.565 0 0 1 .527.154.572.572 0 0 1 .15.245.658.658 0 0 1 .021.289.609.609 0 0 1-.159.314.57.57 0 0 1-.3.168l-3.094.659.314-1.26zM254.554 238.945l2.515-.576a.578.578 0 0 1 .526.154.6.6 0 0 1 .168.535.605.605 0 0 1-.156.313.578.578 0 0 1-.3.168l-3.059.634.306-1.228z" fill="#fff"/><path d="m207.707 193.374 42.549 35.182 9.706-11.609-37.202-35.821-15.053 12.248z" fill="#1F2D49"/><path d="M230.53 188.607v23.638l19.727 16.311 2.832-18.228-22.559-21.721z" fill="#0D1B33"/><path d="m211.483 128.694-6.994 57.239h19.555l16.986-56.952-29.547-.287z" fill="#1F2D49"/><path d="m228.273 171.753 3.285-28.396h8.075l-11.36 28.396z" fill="#0D1B33"/><path d="M245.828 250.631h-24.801a2.171 2.171 0 0 1-1.557-.662 2.288 2.288 0 0 1-.646-1.599v-1.777h29.206v1.777c0 .6-.232 1.175-.644 1.599a2.175 2.175 0 0 1-1.558.662z" fill="#5661AE"/><path d="m246.647 231.936-.259 7.104-10.017.72.054-7.824h10.222z" fill="#BC775C"/><path d="m246.383 235.208-9.862-.986.048-2.129 9.926.39-.112 2.725z" fill="#93523E" stroke="#93523E"/><path d="M246.389 238.115s-5.15 2.037-10.312-.364l-16.733 7.149c-.72.739-.56 2.062-.302 2.824a.847.847 0 0 0 .305.413c.141.102.31.156.482.155h26.51a1.67 1.67 0 0 0 1.186-.495 1.76 1.76 0 0 0 .505-1.204c.036-1.817.065-4.584-.038-5.692-.162-1.712-.615-2.672-1.603-2.786z" fill="#F40638"/><path d="m232.541 239.145 1.974 1.758a.598.598 0 0 1 .197.524.613.613 0 0 1-.102.271.578.578 0 0 1-.551.249.57.57 0 0 1-.312-.146l-2.393-2.183 1.187-.473zM229.955 240.366l1.972 1.744a.609.609 0 0 1-.118.984.575.575 0 0 1-.651-.086l-2.373-2.142 1.17-.5zM227.068 241.6l1.96 1.715a.591.591 0 0 1 .162.237.605.605 0 0 1-.28.747.57.57 0 0 1-.65-.086l-2.331-2.126 1.139-.487z" fill="#fff"/><path d="M252.894 128.981a78.685 78.685 0 0 0 0 8.715c.65 9.382-1.429 36.782-1.411 40.388.014 3.605-2.297 54.387-2.297 54.387h-14.06s-3.594-43.642-3.677-48.637c-.083-4.994-.92-54.648-.92-54.648l22.365-.205z" fill="#1F2D49"/><path d="m211.06 132.16 41.834 5.536v-8.715l-41.618 1.404-.216 1.775z" fill="#0D1B33"/><path d="M214.267 195.967c5.399 0 9.777-4.492 9.777-10.034 0-5.542-4.378-10.035-9.777-10.035-5.4 0-9.778 4.493-9.778 10.035s4.378 10.034 9.778 10.034z" fill="#1F2D49"/><path d="M287.129 143.357H30.437v4.902H287.13v-4.902z" fill="url(#b)"/><path fill-rule="evenodd" clip-rule="evenodd" d="M153.614 244.489c-3.793-1.376-7.703-2.793-11.306-2.531a.555.555 0 0 0-.414.233.577.577 0 0 0-.096.474l1.509 6.543a.574.574 0 0 0 .218.334.55.55 0 0 0 .379.105l24.503-2.429c1.807-.179 2.679-1.277 2.808-2.79a.266.266 0 0 0-.284-.289.256.256 0 0 0-.139.055 12.694 12.694 0 0 1-9.445 2.542c-2.419-.32-5.047-1.273-7.733-2.247z" fill="#5661AE"/><path fill-rule="evenodd" clip-rule="evenodd" d="M140.358 225.609s2.528 10.282 2.599 11.386c.006.613-.032 1.226-.113 1.833-.113 1.092-.239 2.309-.05 3.107 3.468-.11 7.197 1.242 10.82 2.555 2.686.974 5.313 1.926 7.733 2.246 3.189.429 6.42-.375 9.062-2.258-.11-1.877-1.845-3.46-5.046-3.428-5.737.057-8.913-.049-12.078-4.014-2.249-2.817-3.334-14.703-3.334-14.703l-9.593 3.276z" fill="#FFCCB3"/><path fill-rule="evenodd" clip-rule="evenodd" d="M152.553 235.394c-1.057.254-5.263 1.245-9.367 1.931-.797.133-1.05 1.823-.447 2.663.415.621.781 1.276 1.094 1.957a20.28 20.28 0 0 1 4.228.711c-.728-1.603.051-2.652 1.554-3.031 1.187-.3 4.051-.351 5.533-.356a.42.42 0 0 0 .386-.256.451.451 0 0 0-.064-.467l-2.495-3.009a.426.426 0 0 0-.422-.143zM167.56 246.008c-2.623 1.043-4.459.826-4.459.826l-.559-5.947 4.515-.233.503 5.354z" fill="#fff"/><path d="M137.971 184.121c4.352-1.339 6.822-6.047 5.517-10.513-1.306-4.467-5.892-7.002-10.244-5.662-4.353 1.339-6.823 6.047-5.517 10.513 1.305 4.467 5.892 7.002 10.244 5.662z" fill="#FFCCB3"/><path d="m138.043 167.967-13.639-4.791-6.348 17.552 17.644 3.152 2.343-15.913z" fill="#FFCCB3"/><path d="m143.763 174.912 6.924 53.101-8.982 3.19-13.577-50.419 15.635-5.872z" fill="#FFCCB3"/><path fill-rule="evenodd" clip-rule="evenodd" d="M115.323 248.171c-3.584-1.877-7.277-3.812-10.883-4.039a.556.556 0 0 0-.567.385.604.604 0 0 0-.029.246l.655 6.691a.577.577 0 0 0 .174.36.55.55 0 0 0 .362.155l24.601.909c1.814.068 2.819-.903 3.142-2.385a.276.276 0 0 0-.104-.274.257.257 0 0 0-.286-.016 12.642 12.642 0 0 1-9.688 1.242c-2.357-.644-4.84-1.945-7.377-3.274z" fill="#5661AE"/><path fill-rule="evenodd" clip-rule="evenodd" d="M104.61 227.661s1.185 10.535 1.113 11.639a12.824 12.824 0 0 1-.348 1.802c-.252 1.067-.533 2.256-.448 3.072 3.451.36 6.974 2.205 10.396 3.998 2.538 1.329 5.02 2.629 7.377 3.273 3.107.857 6.412.497 9.274-1.011.132-1.876-1.384-3.68-4.562-4.082-5.694-.72-8.828-1.255-11.456-5.613-1.868-3.098-1.416-15.026-1.416-15.026l-9.93 1.948z" fill="#FCBA9F"/><path fill-rule="evenodd" clip-rule="evenodd" d="M115.441 239.012c-1.081.109-5.377.522-9.533.646-.807.024-1.275 1.665-.785 2.579.331.672.61 1.37.833 2.088 1.405.28 2.78.708 4.099 1.277-.516-1.687.392-2.622 1.93-2.794 1.215-.137 4.061.201 5.531.396a.417.417 0 0 0 .236-.038.442.442 0 0 0 .176-.635l-2.087-3.32a.414.414 0 0 0-.4-.199zM128.953 251.564c-2.735.679-4.526.216-4.526.216l.209-5.972 4.506.381-.189 5.375z" fill="#fff"/><path d="M107.576 186.213c4.487-.739 7.54-5.071 6.82-9.675-.72-4.605-4.941-7.738-9.427-6.999-4.487.739-7.54 5.07-6.82 9.675.72 4.604 4.941 7.738 9.427 6.999z" stroke="#5CA4E6" stroke-width="1.097" stroke-miterlimit="10"/><path d="m114.5 177.868.039 53.575-9.312 1.946-6.98-51.816 16.253-3.705z" fill="#FCBA9F"/><path d="M90.122 158.307s-2.504 12.576.777 17.831c4.154 6.651 9.234 7.67 12.988 7.742l20.282-1.796s-.134-11.968 7.378-16.44c0 0-30.787-11.661-41.425-7.337z" fill="#5661AE"/><path d="m82.314 94.15-1.611 8.445-9.325-.65 1.786-8.976 9.15 1.181z" fill="#FFCCB3"/><path d="m82.22 94.641-.783 4.103s-2.143-1.875-2.557-4.8l3.34.697z" fill="#FCBA9F"/><path d="M68.503 104.347s2.124-5.688 3.391-4.997c3.012 1.641 7.412 1.337 9.36.35 1.168-.59 1.212 4.647 1.212 4.647H68.503zM68.503 104.347l-8.948 1.23a.947.947 0 0 0-.622.364.995.995 0 0 0-.198.706l6.247 60.828 32.059-3.229-3.968-57.883-10.607-2.016H68.503z" fill="#EF7693"/><path d="m91.317 121.679-2.5-4.668.615 4.668h1.885z" fill="#FF967C"/><path d="M92.517 106.257c3.38.532 6.214 2.844 7.16 4.864l8.364 19.552 20.535-16.855 5.838 6.311-18.459 23.406c-3.713 5.017-10.134 7.082-14.508.539L94.46 132.81l-1.943-26.553z" fill="#EF7693"/><path d="m108.04 130.674 2.336 4.713 1.779-8.091-4.115 3.378z" fill="#FF967C"/><path d="M59.623 105.568s-2.415-.044-4.445 3.602c-2.03 3.646-10.252 25.73-10.252 25.73s-3.755 8.334 3.858 8.647h15.935l-5.096-37.979z" fill="#EF7693"/><path d="m61.421 121.679-.667-3.058-1.679 3.058h2.346z" fill="#FF967C"/><path d="M103.579 183.859H68.777a4.486 4.486 0 0 1-2.984-1.143 4.708 4.708 0 0 1-1.524-2.87l-7.355-52.833a4.793 4.793 0 0 1 .14-1.98 4.71 4.71 0 0 1 .928-1.743 4.562 4.562 0 0 1 1.55-1.189 4.455 4.455 0 0 1 1.89-.422h34.803c1.095 0 2.155.406 2.983 1.143a4.71 4.71 0 0 1 1.524 2.869l7.355 52.833a4.785 4.785 0 0 1-.14 1.981 4.702 4.702 0 0 1-.928 1.742 4.554 4.554 0 0 1-1.549 1.19 4.453 4.453 0 0 1-1.891.422z" fill="#9D0D30"/><path d="M101.233 183.859h26.653c.229 0 .454-.063.652-.181a1.31 1.31 0 0 0 .475-.491 1.352 1.352 0 0 0-.366-1.74 1.29 1.29 0 0 0-.485-.222l-21.576-4.814-5.353 7.448z" fill="#9D0D30"/><path d="M101.232 183.859H66.43a4.486 4.486 0 0 1-2.984-1.143 4.708 4.708 0 0 1-1.524-2.87l-7.355-52.833a4.79 4.79 0 0 1 .14-1.98 4.71 4.71 0 0 1 .928-1.743 4.562 4.562 0 0 1 1.55-1.189 4.456 4.456 0 0 1 1.89-.422h34.803c1.096 0 2.155.406 2.983 1.143a4.71 4.71 0 0 1 1.524 2.869l7.355 52.833a4.784 4.784 0 0 1-.139 1.981 4.716 4.716 0 0 1-.928 1.742 4.568 4.568 0 0 1-1.55 1.19 4.453 4.453 0 0 1-1.891.422z" fill="url(#c)"/><path d="M243.369 135.303s-1.88 3.644-2.338 4.063c-.456.418-8.01 1.374-9.472 1.911-1.463.538-2.162 1.351-2.162 2.08h17.754s.459-.44.791-1.841c.33-1.4.909-1.994.909-1.994l-5.482-4.219z" fill="#BC775C"/><path d="M217.85 77.892c1.167-5.915-1.579-5.763-2.492-6.703 0 0-3.429-2.902-6.041-.197-2.765 2.86-18.614 25.083-18.614 25.083l9.917 9.361 1.864-2.283 4.829-5.91 5.164-6.318.642-.719 6.967-8.099s-2.897-1.1-2.236-4.215z" fill="#5661AE"/><path d="M221.997 78.9c1.337-4.096-.815-8.529-4.806-9.9-3.992-1.373-8.311.836-9.648 4.932-1.337 4.096.815 8.529 4.807 9.9 3.991 1.373 8.31-.835 9.647-4.932z" fill="#5661AE"/><path d="M213.027 90.175c.199-1.237.6-3.71 1.03-5.963l2.288-10.909s-6.145 9.321-8.976 15.814c-2.097 4.866-4.529 9.825-4.931 14.02l4.828-5.91 5.164-6.318.597-.734z" fill="#465393"/><path d="M180.797 71.056c-2.357-4.411-1.225-5.16-2.227-7.67-.988-2.449.766-8.52-.913-7.692-1.678.828-2.198 3.028-2.198 3.028-1.148-2.085-2.205-5.92-4.954-6.359-2.748-.438-2.992.45-4.55 1.761-4.144 3.54 1.141 8.858 2.023 10.883.568 1.27 4.737 5.14 5.199 5.986l2.099 3.125 5.521-3.062z" fill="#BC775C"/><path d="m172.7 58.995-3.349-6.346M170.506 60.023l-3.651-5.91M167.898 61.159l-2.086-3.58M173.528 64.582c.018-2.197 1.303-4.856 1.303-4.856" stroke="#93523E" stroke-width="1.078" stroke-linecap="round"/><path d="m200.703 95.898-20.165-27.562a.806.806 0 0 0-1.089-.174l-5.281 3.584c-.251.175-.43.439-.501.74-.072.303-.032.622.112.895l16.217 30.694 10.707-8.177z" fill="#5661AE"/><path d="M195.804 107.539c3.73 0 6.753-3.103 6.753-6.931s-3.023-6.93-6.753-6.93-6.753 3.103-6.753 6.93c0 3.828 3.023 6.931 6.753 6.931z" fill="#5661AE"/><path d="M224.02 64.958s-9.846 3.214-11.789 4.048c-1.942.834-2.072 4.17-2.201 6.533-.091 1.656 1.73 28.842 1.85 44.587.025 3.364-.586 5.499-.979 7.368-.392 1.87 0 2.887 0 2.887l42.188.387s-1.265-54.706-1.524-56.652c-.259-1.946 1.777-3.622-.429-4.601l-16.11-4.557H224.02z" fill="#F40638"/><path d="M218.726 66.713s1.607 7.546 2.661 13.586c1.053 6.04 1.373 56.037 1.373 56.037s-12.327-2.46-13.997-5.367c-1.67-2.906 1.546-15.966 1.797-27.832.25-11.866-2.184-30.28.372-33.476 0 0 .655-.666 7.794-2.948zM239.445 66.228s-5.849 12.508-5.491 16.32c.358 3.812.378 36.321 0 43.109a67.536 67.536 0 0 1-1.831 12.237s15.957 1.16 22.122-.821c0 0 2.929-18.913 1.006-25.669-1.921-6.756-3.388-41.87-3.388-41.87l-12.418-3.306z" fill="#5661AE"/><path d="M243.763 83.036s.597 22.667.474 30.223c-.077 4.708-5.324 6.702-5.339 9.428-.008 1.613 4.142-.275 5.262 1.392 1.118 1.667-.794 6.89-.794 6.89l9.723-.2 3.898-19.4-8.209-29.5-5.015 1.167z" fill="#465393"/><path d="m224.222 59.906-.913 10.564s-.243 1.64 2.533 2.16c2.205.412 6.787-2.247 7.822-3.123 2.299-1.947 2.511-3.125 2.268-4.027-.348-1.293-1.485-10.403-1.485-10.403l-10.225 4.829z" fill="#BC775C"/><path d="m223.623 68.551.563-6.51 4.901-2.485-5.464 8.995z" fill="#93523E" stroke="#93523E"/><path d="M218.774 39.912s-1.877 8.63-2.127 14.509c-.252 5.93 1.812 7.06 4.372 7.502 2.02.35 5.16.375 7.136-.637 3.601-1.846 9.513-6.326 10.287-7.195 1.2-1.346 1.118-7.347-3.459-8.831-3.329-1.08-11.816-10.246-16.209-5.348z" fill="#BC775C"/><path d="M218.793 40.832c2.73 1.099 7.869.377 10.691 1.317 2.819.943.254 1.938.377 4.733.079 1.81.213 5.27 1.296 5.223 1.082-.045 1.72-3.974 4.002-3.824 2.282.153 3.359 1.153 3.308 2.651-.049 1.495-1.689 2.798-2.983 3.49-1.619.861-2.288.5-2.288.5s1.823 6.889 2.098 6.616c0 0 1.966-1.14 2.321-3.133 0 0 2.609-.58 2.033-3.258 0 0 1.623-.536.853-2.086 0 0 4.2-2.899 2.011-6.445 0 0 1.992-2.04-.388-2.902 0 0 3.153-4.728-1.332-5.736 0 0 .3-2.225-1.753-2.14 0 0-.896-3.827-5.376-2.318a3.869 3.869 0 0 0-.707-2.128 3.72 3.72 0 0 0-1.756-1.346c-2.537-1.05-4.188.394-4.188.394s-2.662-2.229-4.064 1.039c0 0-2.014-1.056-3.524.066-1.512 1.12-.777 3.465-.777 3.465s-1.728-.416-2.358 1.053c-.891 2.067.36 2.82.36 2.82s-2.814 3.413 1.142 6.646l1.002-4.697z" fill="#493212"/><path d="M225.663 49.353c.149-.698-.092-1.345-.538-1.445-.445-.1-.927.385-1.075 1.083-.149.698.092 1.345.538 1.445.445.1.927-.385 1.075-1.083zM219.532 47.935c.149-.697-.092-1.344-.537-1.444-.446-.1-.928.385-1.076 1.083-.149.698.092 1.345.538 1.445.445.1.927-.385 1.075-1.084z" fill="#080B09"/><path d="M220.745 49.79s.761 1.504-.339 1.527c-1.051-.015-1.664.618-.603 1.535" stroke="#93523E" stroke-width="1.078" stroke-linecap="round"/><path d="M219.966 54.244H219.975c.652.049 1.954.145 2.82.224h.001a.14.14 0 0 1 .071.026.146.146 0 0 1 .056.136.141.141 0 0 1-.029.068c-.19.215-.441.47-.719.692-.282.223-.582.402-.871.473-.283.07-.55.036-.788-.16-.246-.203-.482-.594-.657-1.28l-.003-.012-.005-.011a.105.105 0 0 1-.008-.058.108.108 0 0 1 .021-.055.108.108 0 0 1 .102-.043z" fill="#93523E" stroke="#93523E"/><path d="m227.8 47.053-.061.126a.775.775 0 0 1-.401.43.745.745 0 0 1-.581.016l-3.195-1.358a.676.676 0 0 1-.364-.33.702.702 0 0 1-.05-.494.739.739 0 0 1 .648-.58.701.701 0 0 1 .302.04l3.256 1.23a.692.692 0 0 1 .414.363.746.746 0 0 1 .032.557zM217.02 44l3.462-.24a.702.702 0 0 1 .556.22.752.752 0 0 1 .208.573.693.693 0 0 1-.185.46.66.66 0 0 1-.439.212l-3.438.378a.748.748 0 0 1-.553-.182.788.788 0 0 1-.267-.529l-.024-.139a.728.728 0 0 1 .184-.525.696.696 0 0 1 .496-.228z" fill="#080B09"/><path d="M252.18 74.969c-4.347-4.068-5.629-1.572-6.885-1.25 0 0-4.186 1.528-3.268 5.217.971 3.904 11.403 29.277 11.403 29.277l13.164-3.199-1.194-3.538-2.458-7.288-2.627-7.793-.273-.934-3.192-10.296s-2.405 1.985-4.67-.196z" fill="#5661AE"/><path d="M254.322 82.864c3.197-2.81 3.57-7.748.832-11.029-2.738-3.282-7.55-3.664-10.747-.855-3.197 2.81-3.571 7.747-.832 11.028 2.738 3.282 7.547 3.665 10.747.856zM253.33 104.647l-11.644 32.33a.876.876 0 0 0 .032.605.82.82 0 0 0 .418.428l5.794 2.613c.279.122.594.133.879.031.285-.101.527-.309.671-.582l16.35-30.62-12.5-4.805z" fill="#5661AE"/><path d="M259.842 113.252c3.729 0 6.753-3.103 6.753-6.931s-3.024-6.93-6.753-6.93c-3.73 0-6.753 3.102-6.753 6.93s3.023 6.931 6.753 6.931z" fill="#5661AE"/><path d="M77.5 183.859h25.372c0 2.873-1.112 5.628-3.091 7.659a10.42 10.42 0 0 1-7.463 3.173h-4.264a10.42 10.42 0 0 1-7.463-3.173 10.976 10.976 0 0 1-3.091-7.659z" fill="#EF7693"/><path d="M90.75 194.69h-1.127v52.067h1.126V194.69zM89.622 246.757l-15.465 5.144h31.817l-15.225-5.144h-1.127zM39.384 148.259l-27.52 101.39h5.605l31.81-101.39h-9.895z" fill="#F40638"/><path d="m39.384 148.259-2.02 7.444 10.544-3.073 1.37-4.371h-9.894z" fill="#9D0D30"/><path d="m273.989 148.259 27.52 101.39h-5.606l-31.811-101.39h9.897z" fill="#F40638"/><path d="m273.989 148.259 1.544 5.691-10.015-1.148-1.426-4.543h9.897z" fill="#9D0D30"/><path d="M82.737 76.248s3.7 6.853 4.984 9.681c1.284 2.828 1.722 5.88-.415 7.283-2.908 1.911-6.127 1.487-9.595 1.09-3.002-.345-6.764-9.015-6.303-11.144.46-2.129 5.682-10.667 11.329-6.91z" fill="#FFCCB3"/><path d="M85.496 84.102c.27-.223.228-.735-.094-1.142-.32-.408-.8-.557-1.07-.334-.268.224-.227.736.094 1.143.321.408.8.557 1.07.333zM81.51 83.06 84.332 81a.758.758 0 0 0-.554-.27.74.74 0 0 0-.566.241l-1.871 1.947c-.067.055.068.225.167.142z" fill="#080B09"/><path d="M87.186 88.356a2.345 2.345 0 0 1-2.526 0" stroke="#EF6A77" stroke-miterlimit="10" stroke-linecap="round"/><path d="m80.083 80.358 6.046-3.138s-2.193-7.32-10.225-8.084c-5.892-.561-11.37 2.773-13.492 7.982-2.122 5.209-.307 13.79 5.076 15.851 4.553 1.743 4.406 6.381 4.406 6.381l6.667-8.973s-4.612-2.303-3.506-5.114c1.5-3.811 5.268.594 5.268.594l-2.55-7.615 2.31 2.116z" fill="#1F2D49"/><path d="M86.472 83.365s1.009 1.348 1.619 1.608c.61.26.064 1.218-.343 1.351-.406.133-1.508-2.323-1.276-2.96z" fill="#FFCCB3"/><path d="M61.547 90.717c3.957 0 7.164-3.292 7.164-7.353 0-4.06-3.207-7.352-7.164-7.352s-7.164 3.292-7.164 7.352c0 4.061 3.207 7.353 7.164 7.353z" fill="#0D1B33"/><path d="M60.754 91.04c3.957 0 7.164-3.292 7.164-7.353 0-4.06-3.207-7.352-7.164-7.352-3.956 0-7.164 3.292-7.164 7.352 0 4.061 3.207 7.353 7.164 7.353z" fill="#1F2D49"/><path d="M131.022 13.703H56.908c-1.318 0-2.386 1.097-2.386 2.45v46.356c0 1.352 1.068 2.449 2.386 2.449h74.114c1.318 0 2.386-1.097 2.386-2.45V16.153c0-1.352-1.068-2.449-2.386-2.449z" fill="#F40638"/><path d="M105.787 75.305h3.963" stroke="#D4DCF4" stroke-width="7" stroke-miterlimit="10" stroke-linecap="round"/><path d="M118.471 75.305h36.898" stroke="#E51A4B" stroke-width="7" stroke-miterlimit="10" stroke-linecap="round"/><path d="M105.787 84.212h3.963" stroke="#D4DCF4" stroke-width="7" stroke-miterlimit="10" stroke-linecap="round"/><path d="M118.471 84.212h17.18" stroke="#E51A4B" stroke-width="7" stroke-miterlimit="10" stroke-linecap="round"/><path d="M105.787 93.276h3.963" stroke="#D4DCF4" stroke-width="7" stroke-miterlimit="10" stroke-linecap="round"/><path d="M118.471 93.276h29.544" stroke="#E51A4B" stroke-width="7" stroke-miterlimit="10" stroke-linecap="round"/><path d="M59.767 41.202s6.53-1.412 8.602 1.848 4.143 9.383 8.839 8.59c4.695-.795 6.961-16.811 11.656-16.67 4.695.142 3.949 10.631 9.058 10.773 5.11.142 3.686-5.862 7.097-5.698 4.139.199 3.675 12.643 9.061 12.784 5.386.142 4.833-16.44 12.981-16.157M61.85 21.462h13.039" stroke="#fff" stroke-width="3" stroke-miterlimit="10" stroke-linecap="round"/><path opacity=".4" d="M61.85 27.708h26.946" stroke="#fff" stroke-width="3" stroke-miterlimit="10" stroke-linecap="round"/><path opacity=".4" d="M166.494 48.055c4.681 0 8.476-3.895 8.476-8.7 0-4.804-3.795-8.7-8.476-8.7-4.682 0-8.477 3.896-8.477 8.7 0 4.805 3.795 8.7 8.477 8.7z" fill="#fff"/><path d="M163.871 36.96v5.522a.898.898 0 0 0 .421.758.844.844 0 0 0 .851.015l4.918-2.76a.875.875 0 0 0 .327-.324.907.907 0 0 0 0-.9.876.876 0 0 0-.327-.324l-4.918-2.76a.842.842 0 0 0-.851.014.898.898 0 0 0-.421.759z" fill="#fff"/><path d="M53.772 0h143.336c1.056 0 2.069.43 2.815 1.197a4.139 4.139 0 0 1 1.166 2.889v6.155H49.791V4.086a4.14 4.14 0 0 1 1.166-2.89A3.929 3.929 0 0 1 53.772 0z" fill="#F40638"/><path d="M287.13 143.357h-42.259v4.902h42.259v-4.902z" fill="#E51A4B"/><path d="m236.06 148.259 27.52 101.39h-5.606l-31.809-101.39h9.895z" fill="#F40638"/><path d="m236.06 148.259 2.021 7.444-10.545-3.073-1.371-4.371h9.895z" fill="#9D0D30"/><defs><linearGradient id="a" x1="121.674" y1="-.249" x2="138.5" y2="223.554" gradientUnits="userSpaceOnUse"><stop stop-color="#fff"/><stop offset="1" stop-color="#94B9FF"/></linearGradient><linearGradient id="b" x1="152.393" y1="143.345" x2="152.414" y2="153.862" gradientUnits="userSpaceOnUse"><stop stop-color="#fff"/><stop offset="1" stop-color="#9D0D30"/></linearGradient><linearGradient id="c" x1="78.878" y1="121.531" x2="96.12" y2="252.648" gradientUnits="userSpaceOnUse"><stop stop-color="#fff"/><stop offset="1" stop-color="#E51A4B"/></linearGradient></defs></svg>