<svg width="265" height="256" fill="none" xmlns="http://www.w3.org/2000/svg"><path d="M137.2 228.254c62.229 0 112.674-49.091 112.674-109.648 0-60.556-50.445-109.647-112.674-109.647-62.228 0-112.675 49.09-112.675 109.647S74.972 228.254 137.2 228.254z" stroke="#E51A4B" stroke-width="1.916" stroke-miterlimit="10"/><path d="M45.536 58.087c2.192 0 3.969-1.73 3.969-3.863s-1.777-3.861-3.969-3.861c-2.191 0-3.968 1.728-3.968 3.861s1.777 3.863 3.968 3.863z" fill="#F40638"/><path d="M249.874 126.644c2.193 0 3.971-1.729 3.971-3.861 0-2.133-1.778-3.863-3.971-3.863-2.19 0-3.968 1.73-3.968 3.863 0 2.132 1.778 3.861 3.968 3.861z" fill="#5661AE"/><path d="M141.821 232.116c2.192 0 3.969-1.729 3.969-3.862s-1.777-3.862-3.969-3.862-3.968 1.729-3.968 3.862 1.776 3.862 3.968 3.862z" fill="#F40638"/><path d="M139.81 201.123c46.421 0 84.053-36.62 84.053-81.794s-37.632-81.795-84.053-81.795-84.053 36.62-84.053 81.795c0 45.174 37.632 81.794 84.053 81.794z" stroke="#E51A4B" stroke-width="1.43" stroke-miterlimit="10"/><path d="M222.423 138.686c1.634 0 2.96-1.29 2.96-2.881 0-1.591-1.326-2.881-2.96-2.881-1.636 0-2.961 1.29-2.961 2.881 0 1.591 1.325 2.881 2.961 2.881z" fill="#F40638"/><path d="M61.852 152.948c1.636 0 2.961-1.289 2.961-2.881 0-1.591-1.325-2.88-2.96-2.88-1.636 0-2.96 1.289-2.96 2.88 0 1.592 1.325 2.881 2.96 2.881z" fill="#5661AE"/><path d="M102.161 49.003c1.635 0 2.96-1.29 2.96-2.881 0-1.591-1.325-2.881-2.96-2.881s-2.96 1.29-2.96 2.88c0 1.592 1.325 2.882 2.96 2.882z" fill="#1C85E8"/><path d="M183.556 209.905H86.489c-4.212 0-7.297-3.322-6.892-7.42L96.167 34.74c.405-4.098 4.146-7.42 8.358-7.42h97.068c4.211 0 7.296 3.322 6.891 7.42l-16.57 167.745c-.404 4.098-4.147 7.42-8.358 7.42z" fill="#FFD8DC"/><path d="M176.716 209.905H79.648c-4.211 0-7.297-3.322-6.892-7.42L89.326 34.74c.405-4.098 4.147-7.42 8.358-7.42h97.068c4.211 0 7.297 3.322 6.892 7.42l-16.57 167.745c-.405 4.098-4.147 7.42-8.358 7.42z" fill="url(#a)"/><path d="M173.037 204.329H84.428c-3.903 0-6.762-3.079-6.387-6.877L93.617 39.773c.375-3.798 3.843-6.877 7.746-6.877h88.608c3.903 0 6.763 3.079 6.388 6.877l-15.576 157.679c-.375 3.798-3.843 6.877-7.746 6.877z" fill="#fff"/><path d="m180.143 104.627-95.054-.082c-.389.01-.775-.06-1.133-.207a2.714 2.714 0 0 1-.944-.643 2.636 2.636 0 0 1-.587-.964 2.586 2.586 0 0 1-.126-1.114l5.124-55.374c.093-.8.483-1.538 1.097-2.076a3.436 3.436 0 0 1 2.234-.848l95.055.083c.388-.01.775.06 1.133.206.357.147.679.366.943.643.265.277.465.606.588.965.123.358.166.738.126 1.114l-5.124 55.374a3.266 3.266 0 0 1-1.097 2.076 3.436 3.436 0 0 1-2.235.847z" fill="url(#b)"/><path d="M177.15 164.294h-40.176a2.08 2.08 0 0 1-1.577-.664 2.003 2.003 0 0 1-.437-.742 1.95 1.95 0 0 1-.082-.851l4.878-49.384c.07-.613.367-1.179.835-1.594a2.647 2.647 0 0 1 1.707-.663h40.176a2.106 2.106 0 0 1 1.577.663 1.97 1.97 0 0 1 .519 1.594l-4.878 49.384a2.512 2.512 0 0 1-.835 1.593 2.648 2.648 0 0 1-1.707.664z" fill="url(#c)"/><path d="M167.572 137.051c4.531-4.202 5.024-10.856 1.102-14.861-3.923-4.005-10.776-3.845-15.307.357-4.53 4.202-5.024 10.856-1.101 14.861 3.923 4.005 10.776 3.845 15.306-.357z" stroke="#EF6A77" stroke-width="11.69" stroke-miterlimit="10"/><path d="M155.376 139.513c-3.758-1.579-6.14-5.334-5.708-9.714.574-5.806 5.874-10.511 11.84-10.511" stroke="#fff" stroke-width="11.69" stroke-miterlimit="10" stroke-linecap="round"/><path d="M154.485 148.549h8.265M153.584 157.658h8.266" stroke="#fff" stroke-width="5.984" stroke-miterlimit="10" stroke-linecap="round"/><path opacity=".4" d="M149.631 153.052h17.082" stroke="#fff" stroke-width="5.984" stroke-miterlimit="10" stroke-linecap="round"/><path d="M128.017 164.294H87.841a2.082 2.082 0 0 1-1.577-.664 2.002 2.002 0 0 1-.437-.742 1.96 1.96 0 0 1-.082-.851l4.878-49.384c.07-.613.367-1.179.835-1.594a2.65 2.65 0 0 1 1.707-.663h40.177a2.105 2.105 0 0 1 1.576.663 1.985 1.985 0 0 1 .52 1.594l-4.879 49.384a2.515 2.515 0 0 1-.834 1.593 2.653 2.653 0 0 1-1.708.664z" fill="#F40638"/><path d="M118.439 137.051c4.531-4.202 5.024-10.856 1.101-14.861-3.922-4.005-10.775-3.845-15.306.357-4.53 4.202-5.024 10.856-1.101 14.861 3.922 4.005 10.776 3.845 15.306-.357z" stroke="#EF6A77" stroke-width="8" stroke-miterlimit="10"/><path d="M122.138 129.799c-.573 5.805-5.874 10.511-11.84 10.511-5.965 0-10.336-4.706-9.763-10.511.574-5.806 5.875-10.511 11.84-10.511" stroke="#fff" stroke-width="8" stroke-miterlimit="10" stroke-linecap="round"/><path d="M105.352 148.549h8.265M104.452 157.658h8.265" stroke="#fff" stroke-width="3" stroke-miterlimit="10" stroke-linecap="round"/><path opacity=".4" d="M100.499 153.052h17.082" stroke="#fff" stroke-width="3" stroke-miterlimit="10" stroke-linecap="round"/><path d="M173.782 199.615H84.231c-.281.005-.56-.048-.817-.156a1.97 1.97 0 0 1-.678-.473 1.863 1.863 0 0 1-.492-1.51l2.673-27.051a2.382 2.382 0 0 1 .79-1.511 2.505 2.505 0 0 1 1.619-.628h89.551a1.979 1.979 0 0 1 1.495.628c.188.203.329.443.414.703.085.261.112.536.078.808l-2.672 27.051a2.39 2.39 0 0 1-.791 1.511 2.508 2.508 0 0 1-1.619.628z" fill="url(#d)"/><path d="m90.467 193.343 1.263-12.789M99.736 184.384l-.885 8.959M107.818 187.444l-.583 5.899M117.211 177.231l-1.591 16.112M124.587 187.444l-.583 5.899M133.91 177.942l-1.522 15.401M141.404 186.948l-.632 6.395M149.493 189.937l-.336 3.406M158.804 180.554l-1.263 12.789M167.669 175.685l-1.744 17.658" stroke="#fff" stroke-width="11.69" stroke-miterlimit="10" stroke-linecap="round"/><path d="m92.788 96.136 5.032 7.672c.228.346.305.765.216 1.167-.09.402-.338.752-.692.976l-.814.515a6.855 6.855 0 0 1-4.605.986 6.756 6.756 0 0 1-4.133-2.209l-6.679-7.58 11.675-1.527z" fill="#FFCCB3"/><path d="M88.947 99.088s1.864 6.227 5.608 8.225a16.608 16.608 0 0 0 2.788-1.361l-4.198-6.864" fill="#FCBA9F"/><path d="m2.847 127.091 19.768-9.219a10.955 10.955 0 0 0 4.546-3.925l19.097-29.234a10.962 10.962 0 0 1 4.949-4.102l27.505-11.532-5.888 43.335-.104 1.6s-7.275 18.336-25.106 24.997l-28.508 16.968-16.259-28.888z" fill="#FFCCB3"/><path d="M24.36 116.854s9.352 22.714 23.254 22.157l-8.876 5.284s-30.129-5.439-18.85-25.196l4.472-2.245zM74.455 77.099s-9.725 5.734-9.21 19.037l11.68-4.247-2.47-14.79z" fill="#FCBA9F"/><path d="m98.885 96.136 5.033 7.672c.227.346.305.765.215 1.167a1.555 1.555 0 0 1-.692.976l-.813.515a6.855 6.855 0 0 1-4.605.986 6.756 6.756 0 0 1-4.133-2.209l-6.679-7.58 11.674-1.527z" fill="#FFCCB3"/><path d="m173.287 99.161-95.054-.082c-.389.01-.775-.06-1.133-.207a2.735 2.735 0 0 1-.944-.643 2.642 2.642 0 0 1-.587-.964 2.588 2.588 0 0 1-.126-1.114l5.124-55.375c.093-.799.483-1.537 1.097-2.076a3.438 3.438 0 0 1 2.235-.847l95.054.083a2.8 2.8 0 0 1 1.133.206c.358.147.68.366.943.643.265.277.465.606.588.964.123.359.166.739.126 1.115l-5.124 55.374a3.264 3.264 0 0 1-1.097 2.076 3.438 3.438 0 0 1-2.235.847z" fill="#F40638"/><path d="M84.526 70.704s8.533-1.679 10.83 2.218c2.296 3.896 4.276 11.213 10.385 10.27 6.11-.944 10.787-20.074 16.793-19.9 6.007.175 3.889 12.704 10.427 12.879 6.538.175 5.375-6.999 9.732-6.799 5.286.243 3.316 15.107 10.208 15.282 6.892.175 8.016-19.634 18.435-19.286M89.38 47.127l16.723.015" stroke="#fff" stroke-width="5" stroke-miterlimit="10" stroke-linecap="round"/><path opacity=".4" d="m88.689 54.587 34.56.03" stroke="#fff" stroke-width="5" stroke-miterlimit="10" stroke-linecap="round"/><path d="m56.33 98.887 12.194-5.227 12.47-8.283c3.28-2.179 10.128-3.16 12.594-.131 2.508 3.08-.31 9.173-3.351 11.758l-11.524 9.793-5.993 7.218-16.39-15.128z" fill="#FFCCB3"/><path d="M81.113 88.522s1.647 6.177 5.915 7.246l4.527-3.722a4.143 4.143 0 0 0 1.13-1.234 3.996 3.996 0 0 0 .395-3.216 4.065 4.065 0 0 0-.8-1.46 4.242 4.242 0 0 0-2.514-1.42 4.315 4.315 0 0 0-2.86.503l-5.793 3.303z" stroke="#FF967C" stroke-width="3" stroke-linecap="round"/><path d="M23.367 117.108s-2.363 16.446 18.2 25.863c0 0-14.771 13.187-20.467 15.404-5.695 2.217-27.093-20.441-19.482-33.302 2.134-3.607 21.749-7.965 21.749-7.965z" fill="#F40638"/><path d="M101.284 99.793s-8.015.16-10.805 1.58l-2.014-2.285h12.357l.462.705z" fill="#FCBA9F"/><path d="M248.862 99.161h-56.989c-4.293 0-7.465-3.386-7.085-7.564l7.646-84.033c.38-4.177 4.168-7.564 8.461-7.564h56.99c4.294 0 7.464 3.387 7.084 7.564l-7.647 84.033c-.38 4.178-4.168 7.564-8.46 7.564z" fill="#F40638"/><path d="M240.704 47.45c9.025-8.401 9.933-21.728 2.032-29.766-7.902-8.037-21.623-7.742-30.647.659-9.024 8.401-9.934 21.728-2.032 29.765 7.902 8.038 21.624 7.743 30.647-.658z" fill="#fff"/><path d="m227.604 33.55 14.306 12.698s3.255-3.405 4.226-5.837l-18.532-6.86z" fill="url(#e)"/><path d="m228.557 9.16-2.033 22.34c-.046.408.033.819.225 1.183.192.364.489.666.855.867l19.411 10.517s11.526-31.293-18.458-34.907z" fill="#EF7693"/><path d="M198.174 69.419h23M196.446 88.413h23.61" stroke="#fff" stroke-width="5" stroke-miterlimit="10" stroke-linecap="round"/><path opacity=".4" d="M197.32 78.809h48.79" stroke="#fff" stroke-width="5" stroke-miterlimit="10" stroke-linecap="round"/><path d="M178.776 161.068s7.61-1.975 11.661 2.269c0 0 7.28-1.286 10.24 2.655 0 0 6.454.364 8.323 2.926a9.009 9.009 0 0 1 4.26 1.755 8.665 8.665 0 0 1 2.775 3.603c1.765 4.048.268 27.451-1.486 35.837a11.595 11.595 0 0 0 .435 6.292l4.462 12.479-30.874 12.56-7.33-18.605s-8.923-13.953-10.197-16.434c-1.275-2.48.885-23.065-3.466-35.924l11.197-9.413z" fill="#FFCCB3"/><path d="m185.224 232.946-.891-2.26s16.02-.997 30.65-14.281l1.4 3.913s-1.807 8.083-10.035 11.893c-8.227 3.809-21.124.735-21.124.735z" fill="#FCBA9F"/><path d="M185.224 232.947s19.392 1.718 31.159-12.629c0 0 4.344 2.217 11.015 18.444 2.049 4.985-32.165 22.731-37.697 15.354 0 0-4.776-9.831-4.477-21.169z" fill="#5661AE"/><path d="M169.477 178.243s-.669 3.453-3.832 3.454c-2.063 0-11.007-2.63-16.977-4.458a8.537 8.537 0 0 0-4.99 0 8.31 8.31 0 0 0-4.091 2.781l-.363.459a2.07 2.07 0 0 0-.125 2.416c.156.244.361.454.603.619 5.054 3.433 18.701 12.752 20.446 14.45 2.149 2.091 14.11 13.809 14.11 13.809l-4.781-33.53z" fill="#FFCCB3"/><path d="M168.75 174.783s6.464 8.515 5.508 10.379c-.957 1.864-10.981-3.835-10.981-3.835s8.088 2.025 5.473-6.544z" fill="#FCBA9F"/><path d="m167.579 170.48-10.878-32.145a8.454 8.454 0 0 1 .571-6.736 8.724 8.724 0 0 1 2.235-2.675 8.994 8.994 0 0 1 3.13-1.616 4.105 4.105 0 0 1 2.827.205 3.945 3.945 0 0 1 1.977 1.976l15.26 34.136-15.122 6.855z" fill="#FFCCB3"/><path d="M162.862 156.54c.308.493.718.919 1.203 1.25a4.358 4.358 0 0 0 1.616.677M166.776 140.084c1.323-.571 2.783-1.368 3.411-2.299l-4.05-9.359a1.545 1.545 0 0 0-.381-.532 1.612 1.612 0 0 0-1.869-.211c-1.441.809-3.343 2.27-3.417 4.367l2.739 6.634c.135.324.335.618.589.865.253.247.556.442.889.573a2.736 2.736 0 0 0 2.089-.038zM181.474 160.879l3.75 8.038M190.586 163.501a15.543 15.543 0 0 1 2.926 9.065M200.855 166.142s1.888 4.213 2.044 7.545M209.265 169.168a11.554 11.554 0 0 1 .84 5.615M147.689 187.444s2.234-2.761 1.467-4.145c-.766-1.385-4.174-3.343-6.144-3.13a8.079 8.079 0 0 0-2.677.888.964.964 0 0 0-.371.331.935.935 0 0 0 .288 1.308l7.437 4.748z" stroke="#FF967C" stroke-width="3" stroke-linecap="round"/><path d="M109.277 221.104H41.226c-.281.005-.56-.048-.818-.156a1.966 1.966 0 0 1-.677-.473 1.885 1.885 0 0 1-.492-1.51l2.672-27.052c.067-.58.348-1.117.791-1.51a2.511 2.511 0 0 1 1.618-.629h68.052a2.006 2.006 0 0 1 1.494.629 1.873 1.873 0 0 1 .493 1.51l-2.673 27.052a2.386 2.386 0 0 1-.791 1.51 2.51 2.51 0 0 1-1.618.629z" fill="#F40638"/><path d="M47.614 196.829h41.998" stroke="#EF6A77" stroke-width="5" stroke-miterlimit="10" stroke-linecap="round"/><path d="M47.614 196.829H76.8" stroke="#fff" stroke-width="5" stroke-miterlimit="10" stroke-linecap="round"/><path d="M46.986 205.439h41.998" stroke="#EF6A77" stroke-width="5" stroke-miterlimit="10" stroke-linecap="round"/><path d="M46.986 205.439h17.449" stroke="#fff" stroke-width="5" stroke-miterlimit="10" stroke-linecap="round"/><path d="M45.613 214.049H87.61" stroke="#EF6A77" stroke-width="5" stroke-miterlimit="10" stroke-linecap="round"/><path d="M45.613 214.049h10.67" stroke="#fff" stroke-width="5" stroke-miterlimit="10" stroke-linecap="round"/><path d="M104.478 199.271c1.386 0 2.51-1.093 2.51-2.442 0-1.349-1.124-2.442-2.51-2.442-1.385 0-2.509 1.093-2.509 2.442 0 1.349 1.124 2.442 2.509 2.442zM103.665 207.504c1.386 0 2.509-1.093 2.509-2.442 0-1.348-1.123-2.442-2.509-2.442s-2.51 1.094-2.51 2.442c0 1.349 1.124 2.442 2.51 2.442zM102.757 216.492c1.385 0 2.509-1.094 2.509-2.443 0-1.348-1.124-2.442-2.509-2.442-1.387 0-2.51 1.094-2.51 2.442 0 1.349 1.123 2.443 2.51 2.443z" fill="#fff"/><defs><linearGradient id="a" x1="122.271" y1="-30.774" x2="206.884" y2="404.955" gradientUnits="userSpaceOnUse"><stop stop-color="#fff"/><stop offset="1" stop-color="#94B9FF"/></linearGradient><linearGradient id="b" x1="132.802" y1="43.173" x2="140.991" y2="174.176" gradientUnits="userSpaceOnUse"><stop stop-color="#fff"/><stop offset="1" stop-color="#94B9FF"/></linearGradient><linearGradient id="c" x1="158.486" y1="110.267" x2="171.889" y2="224.312" gradientUnits="userSpaceOnUse"><stop stop-color="#fff"/><stop offset="1" stop-color="#94B9FF"/></linearGradient><linearGradient id="d" x1="128.148" y1="168.211" x2="130.507" y2="235.336" gradientUnits="userSpaceOnUse"><stop stop-color="#fff"/><stop offset="1" stop-color="#94B9FF"/></linearGradient><linearGradient id="e" x1="236.408" y1="33.52" x2="238.421" y2="60.608" gradientUnits="userSpaceOnUse"><stop stop-color="#fff"/><stop offset="1" stop-color="#94B9FF"/></linearGradient></defs></svg>