<svg width="313" height="257" viewBox="0 0 313 257" fill="none" xmlns="http://www.w3.org/2000/svg">
<path d="M156.499 256.037C242.933 256.037 313 254.2 313 251.934C313 249.668 242.933 247.831 156.499 247.831C70.0673 247.831 0 249.668 0 251.934C0 254.2 70.0673 256.037 156.499 256.037Z" fill="#F5F8FF"/>
<path d="M197.228 0H53.6527C51.5201 0 49.791 1.77458 49.791 3.9633V100.957C49.791 103.146 51.5201 104.92 53.6527 104.92H197.228C199.36 104.92 201.089 103.146 201.089 100.957V3.9633C201.089 1.77458 199.36 0 197.228 0Z" fill="url(#paint0_linear_424_245)"/>
<path d="M194.007 68.3359H167.256C166.263 68.3359 165.459 69.1615 165.459 70.1799V99.9753C165.459 100.994 166.263 101.819 167.256 101.819H194.007C195 101.819 195.804 100.994 195.804 99.9753V70.1799C195.804 69.1615 195 68.3359 194.007 68.3359Z" fill="#F40638"/>
<path d="M94.7361 68.0225H56.0429C55.2027 68.0225 54.5215 68.7215 54.5215 69.5839V100.258C54.5215 101.12 55.2027 101.819 56.0429 101.819H94.7361C95.5764 101.819 96.2576 101.12 96.2576 100.258V69.5839C96.2576 68.7215 95.5764 68.0225 94.7361 68.0225Z" fill="white"/>
<path d="M160.67 68.0225H101.236C100.202 68.0225 99.3643 68.8827 99.3643 69.9437V99.8982C99.3643 100.959 100.202 101.819 101.236 101.819H160.67C161.703 101.819 162.542 100.959 162.542 99.8982V69.9437C162.542 68.8827 161.703 68.0225 160.67 68.0225Z" fill="white"/>
<path d="M193.402 13.7031H139.585C138.259 13.7031 137.184 14.8067 137.184 16.168V62.5423C137.184 63.9033 138.259 65.0069 139.585 65.0069H193.402C194.729 65.0069 195.804 63.9033 195.804 62.5423V16.168C195.804 14.8067 194.729 13.7031 193.402 13.7031Z" fill="#EF7693"/>
<path d="M126.581 118.082C129.87 114.352 128.938 113.354 130.48 111.152C131.995 109.004 131.661 102.682 133.107 103.887C134.553 105.091 134.561 107.355 134.561 107.355C136.149 105.601 138.044 102.122 140.817 102.349C143.59 102.577 143.626 103.498 144.845 105.146C148.076 109.575 141.733 113.49 140.417 115.25C139.578 116.35 134.647 119.122 134.006 119.835L131.258 122.375L126.581 118.082Z" fill="#FFCCB3"/>
<path d="M137.184 108.278L141.876 102.903" stroke="#EF6A77" stroke-width="1.07832" stroke-linecap="round"/>
<path d="M139.086 109.8L143.973 104.92" stroke="#EF6A77" stroke-width="1.07832" stroke-linecap="round"/>
<path d="M141.365 111.526L144.204 108.541" stroke="#EF6A77" stroke-width="1.07832" stroke-linecap="round"/>
<path d="M77.3113 148.259L49.791 249.649H55.3971L87.2066 148.259H77.3113Z" fill="#F40638"/>
<path d="M77.3113 148.259L75.291 155.703L85.8353 152.63L87.2065 148.259H77.3113Z" fill="#5CA4E6"/>
<path d="M272.862 228.989L257.953 249.33C257.603 249.809 257.079 250.125 256.503 250.209C255.924 250.293 255.335 250.138 254.871 249.777L253.485 248.709L271.041 224.755L272.426 225.824C272.894 226.184 273.2 226.72 273.282 227.314C273.365 227.908 273.215 228.51 272.862 228.989Z" fill="#5661AE"/>
<path d="M258.8 217.078L264.174 221.562L258.715 230.209L252.653 225.462L258.8 217.078Z" fill="#BC775C"/>
<path d="M261.187 219.263L254.493 226.758L252.863 225.439L259.134 217.532L261.187 219.263Z" fill="#93523E" stroke="#93523E"/>
<path d="M263.454 221.006C263.454 221.006 261.945 226.454 256.972 229.244L252.48 247.265C252.625 248.3 253.751 248.964 254.498 249.21C254.663 249.264 254.839 249.263 255.004 249.208C255.169 249.154 255.31 249.049 255.413 248.906L271.351 227.163C271.616 226.8 271.733 226.345 271.677 225.895C271.619 225.445 271.392 225.035 271.042 224.755C269.651 223.635 267.513 221.946 266.589 221.366C265.157 220.47 264.139 220.263 263.454 221.006Z" fill="#F40638"/>
<path d="M255.933 232.981L258.489 232.419C258.583 232.398 258.68 232.401 258.771 232.428C258.862 232.455 258.945 232.505 259.015 232.573C259.083 232.641 259.136 232.725 259.165 232.818C259.195 232.911 259.201 233.011 259.183 233.107C259.162 233.225 259.109 233.335 259.027 233.421C258.945 233.506 258.842 233.565 258.727 233.589L255.589 234.239L255.933 232.981Z" fill="white"/>
<path d="M255.33 235.837L257.871 235.268C257.966 235.247 258.063 235.25 258.154 235.277C258.245 235.304 258.33 235.354 258.398 235.422C258.469 235.49 258.519 235.574 258.548 235.667C258.577 235.761 258.583 235.86 258.569 235.956C258.548 236.075 258.492 236.184 258.41 236.27C258.33 236.356 258.224 236.414 258.11 236.438L255.016 237.097L255.33 235.837Z" fill="white"/>
<path d="M254.554 238.945L257.069 238.369C257.163 238.348 257.26 238.352 257.351 238.379C257.442 238.406 257.527 238.455 257.595 238.523C257.663 238.591 257.716 238.675 257.745 238.769C257.774 238.862 257.78 238.961 257.763 239.058C257.742 239.176 257.689 239.285 257.607 239.371C257.524 239.457 257.422 239.515 257.307 239.539L254.248 240.173L254.554 238.945Z" fill="white"/>
<path d="M207.707 193.374L250.256 228.556L259.962 216.947L222.76 181.126L207.707 193.374Z" fill="#1F2D49"/>
<path d="M230.53 188.607V212.245L250.257 228.556L253.089 210.328L230.53 188.607Z" fill="#0D1B33"/>
<path d="M211.483 128.694L204.489 185.933H224.044L241.03 128.981L211.483 128.694Z" fill="#1F2D49"/>
<path d="M228.273 171.753L231.558 143.357H239.633L228.273 171.753Z" fill="#0D1B33"/>
<path d="M245.828 250.631H221.027C220.443 250.631 219.882 250.393 219.47 249.969C219.056 249.545 218.824 248.97 218.824 248.37V246.593H248.03V248.37C248.03 248.97 247.798 249.545 247.386 249.969C246.972 250.393 246.413 250.631 245.828 250.631Z" fill="#5661AE"/>
<path d="M246.647 231.936L246.388 239.04L236.371 239.76L236.425 231.936H246.647Z" fill="#BC775C"/>
<path d="M246.383 235.208L236.521 234.222L236.569 232.093L246.495 232.483L246.383 235.208Z" fill="#93523E" stroke="#93523E"/>
<path d="M246.389 238.115C246.389 238.115 241.239 240.152 236.077 237.751L219.344 244.9C218.624 245.639 218.784 246.962 219.042 247.724C219.099 247.891 219.206 248.035 219.347 248.137C219.488 248.239 219.657 248.293 219.829 248.292H246.339C246.783 248.293 247.207 248.115 247.525 247.797C247.839 247.479 248.022 247.047 248.03 246.593C248.066 244.776 248.095 242.009 247.992 240.901C247.83 239.189 247.377 238.229 246.389 238.115Z" fill="#F40638"/>
<path d="M232.541 239.145L234.515 240.903C234.587 240.967 234.643 241.049 234.677 241.14C234.712 241.231 234.723 241.33 234.712 241.427C234.7 241.525 234.665 241.617 234.61 241.698C234.556 241.778 234.482 241.843 234.397 241.887C234.293 241.942 234.175 241.963 234.059 241.947C233.943 241.932 233.834 241.881 233.747 241.801L231.354 239.618L232.541 239.145Z" fill="white"/>
<path d="M229.955 240.366L231.927 242.11C231.999 242.174 232.055 242.255 232.089 242.347C232.123 242.438 232.135 242.537 232.123 242.634C232.112 242.732 232.077 242.824 232.022 242.904C231.967 242.985 231.894 243.05 231.809 243.094C231.705 243.149 231.587 243.17 231.471 243.154C231.355 243.139 231.246 243.088 231.158 243.008L228.785 240.866L229.955 240.366Z" fill="white"/>
<path d="M227.068 241.6L229.028 243.315C229.1 243.379 229.156 243.46 229.19 243.552C229.224 243.643 229.236 243.742 229.225 243.839C229.213 243.937 229.178 244.029 229.123 244.109C229.068 244.19 228.995 244.255 228.91 244.299C228.806 244.354 228.688 244.375 228.572 244.359C228.456 244.344 228.347 244.293 228.26 244.213L225.929 242.087L227.068 241.6Z" fill="white"/>
<path d="M252.894 128.981C252.733 131.883 252.733 134.793 252.894 137.696C253.544 147.078 251.465 174.478 251.483 178.084C251.497 181.689 249.186 232.471 249.186 232.471H235.126C235.126 232.471 231.532 188.829 231.449 183.834C231.366 178.84 230.529 129.186 230.529 129.186L252.894 128.981Z" fill="#1F2D49"/>
<path d="M211.06 132.16L252.894 137.696V128.981L211.276 130.385L211.06 132.16Z" fill="#0D1B33"/>
<path d="M214.267 195.967C219.666 195.967 224.044 191.475 224.044 185.933C224.044 180.391 219.666 175.898 214.267 175.898C208.867 175.898 204.489 180.391 204.489 185.933C204.489 191.475 208.867 195.967 214.267 195.967Z" fill="#1F2D49"/>
<path d="M287.129 143.357H30.4375V148.259H287.129V143.357Z" fill="url(#paint1_linear_424_245)"/>
<path fill-rule="evenodd" clip-rule="evenodd" d="M153.614 244.489C149.821 243.113 145.911 241.696 142.308 241.958C142.226 241.964 142.147 241.988 142.076 242.028C142.004 242.068 141.942 242.123 141.894 242.191C141.845 242.258 141.811 242.335 141.795 242.417C141.778 242.498 141.779 242.583 141.798 242.665L143.307 249.208C143.338 249.343 143.416 249.462 143.525 249.542C143.635 249.623 143.77 249.66 143.904 249.647L168.407 247.218C170.214 247.039 171.086 245.941 171.215 244.428C171.218 244.376 171.207 244.324 171.183 244.278C171.158 244.233 171.122 244.195 171.077 244.171C171.032 244.146 170.982 244.135 170.931 244.139C170.881 244.143 170.832 244.162 170.792 244.194C168.088 246.275 164.698 247.187 161.347 246.736C158.928 246.416 156.3 245.463 153.614 244.489Z" fill="#5661AE"/>
<path fill-rule="evenodd" clip-rule="evenodd" d="M140.358 225.609C140.358 225.609 142.886 235.891 142.957 236.995C142.963 237.608 142.925 238.221 142.844 238.828C142.731 239.92 142.605 241.137 142.794 241.935C146.262 241.825 149.991 243.177 153.614 244.49C156.3 245.464 158.927 246.416 161.347 246.736C164.536 247.165 167.767 246.361 170.409 244.478C170.299 242.601 168.564 241.018 165.363 241.05C159.626 241.107 156.45 241.001 153.285 237.036C151.036 234.219 149.951 222.333 149.951 222.333L140.358 225.609Z" fill="#FFCCB3"/>
<path fill-rule="evenodd" clip-rule="evenodd" d="M152.553 235.394C151.496 235.648 147.29 236.639 143.186 237.325C142.389 237.458 142.136 239.148 142.739 239.988C143.154 240.609 143.52 241.264 143.833 241.945C145.263 242.032 146.68 242.27 148.061 242.656C147.333 241.053 148.112 240.004 149.615 239.625C150.802 239.325 153.666 239.274 155.148 239.269C155.23 239.269 155.309 239.244 155.378 239.199C155.446 239.153 155.501 239.089 155.534 239.013C155.568 238.937 155.58 238.852 155.569 238.77C155.558 238.687 155.523 238.609 155.47 238.546L152.975 235.537C152.924 235.476 152.858 235.43 152.783 235.405C152.709 235.38 152.629 235.376 152.553 235.394Z" fill="white"/>
<path fill-rule="evenodd" clip-rule="evenodd" d="M167.56 246.008C164.937 247.051 163.101 246.834 163.101 246.834L162.542 240.887L167.057 240.654L167.56 246.008Z" fill="white"/>
<path d="M137.971 184.121C142.323 182.782 144.793 178.074 143.488 173.608C142.182 169.141 137.596 166.606 133.244 167.946C128.891 169.285 126.421 173.993 127.727 178.459C129.032 182.926 133.619 185.461 137.971 184.121Z" fill="#FFCCB3"/>
<path d="M138.043 167.967L124.404 163.176L118.056 180.728L135.7 183.88L138.043 167.967Z" fill="#FFCCB3"/>
<path d="M143.763 174.912L150.687 228.013L141.705 231.203L128.128 180.784L143.763 174.912Z" fill="#FFCCB3"/>
<path fill-rule="evenodd" clip-rule="evenodd" d="M115.323 248.171C111.739 246.294 108.046 244.359 104.44 244.132C104.359 244.127 104.277 244.139 104.201 244.17C104.126 244.199 104.057 244.246 104 244.306C103.944 244.366 103.9 244.438 103.873 244.517C103.846 244.596 103.837 244.68 103.844 244.763L104.499 251.454C104.513 251.591 104.574 251.72 104.673 251.814C104.771 251.909 104.9 251.964 105.035 251.969L129.636 252.878C131.45 252.946 132.455 251.975 132.778 250.493C132.788 250.442 132.784 250.389 132.765 250.34C132.747 250.292 132.715 250.25 132.674 250.219C132.633 250.188 132.584 250.171 132.534 250.168C132.483 250.165 132.432 250.178 132.388 250.203C129.441 251.9 125.963 252.346 122.7 251.445C120.343 250.801 117.86 249.5 115.323 248.171Z" fill="#5661AE"/>
<path fill-rule="evenodd" clip-rule="evenodd" d="M104.61 227.661C104.61 227.661 105.795 238.196 105.723 239.3C105.65 239.908 105.534 240.511 105.375 241.102C105.123 242.169 104.842 243.358 104.927 244.174C108.378 244.534 111.901 246.379 115.323 248.172C117.861 249.501 120.343 250.801 122.7 251.445C125.807 252.302 129.112 251.942 131.974 250.434C132.106 248.558 130.59 246.754 127.412 246.352C121.718 245.632 118.584 245.097 115.956 240.739C114.088 237.641 114.54 225.713 114.54 225.713L104.61 227.661Z" fill="#FCBA9F"/>
<path fill-rule="evenodd" clip-rule="evenodd" d="M115.441 239.012C114.36 239.121 110.064 239.534 105.908 239.658C105.101 239.682 104.633 241.323 105.123 242.237C105.454 242.909 105.733 243.607 105.956 244.325C107.361 244.605 108.736 245.033 110.055 245.602C109.539 243.915 110.447 242.98 111.985 242.808C113.2 242.671 116.046 243.009 117.516 243.204C117.597 243.215 117.679 243.201 117.752 243.166C117.826 243.13 117.888 243.073 117.932 243.003C117.975 242.932 117.998 242.85 117.997 242.766C117.997 242.683 117.972 242.601 117.928 242.531L115.841 239.211C115.799 239.143 115.739 239.089 115.668 239.053C115.598 239.018 115.519 239.004 115.441 239.012Z" fill="white"/>
<path fill-rule="evenodd" clip-rule="evenodd" d="M128.953 251.564C126.218 252.243 124.427 251.78 124.427 251.78L124.636 245.808L129.142 246.189L128.953 251.564Z" fill="white"/>
<path d="M107.576 186.213C112.063 185.474 115.116 181.142 114.396 176.538C113.676 171.933 109.455 168.8 104.969 169.539C100.482 170.278 97.4291 174.609 98.1491 179.214C98.8691 183.818 103.09 186.952 107.576 186.213Z" stroke="#5CA4E6" stroke-width="1.0969" stroke-miterlimit="10"/>
<path d="M114.5 177.868L114.539 231.443L105.227 233.389L98.2471 181.573L114.5 177.868Z" fill="#FCBA9F"/>
<path d="M90.1219 158.307C90.1219 158.307 87.6181 170.883 90.8992 176.138C95.0527 182.789 100.133 183.808 103.887 183.88L124.169 182.084C124.169 182.084 124.035 170.116 131.547 165.644C131.547 165.644 100.76 153.983 90.1219 158.307Z" fill="#5661AE"/>
<path d="M82.3137 94.1501L80.7026 102.595L71.3779 101.945L73.1644 92.969L82.3137 94.1501Z" fill="#FFCCB3"/>
<path d="M82.2193 94.6414L81.4366 98.7439C81.4366 98.7439 79.2937 96.8694 78.8799 93.9438L82.2193 94.6414Z" fill="#FCBA9F"/>
<path d="M68.5029 104.347C68.5029 104.347 70.6267 98.6595 71.8941 99.3502C74.9064 100.991 79.3064 100.687 81.2543 99.7006C82.4216 99.1096 82.466 104.347 82.466 104.347H68.5029Z" fill="#EF7693"/>
<path d="M68.5031 104.347L59.555 105.577C59.3094 105.611 59.0865 105.741 58.9332 105.941C58.78 106.141 58.7088 106.394 58.7347 106.647L64.9823 167.475L97.0408 164.246L93.0732 106.363L82.4662 104.347H68.5031Z" fill="#EF7693"/>
<path d="M91.317 121.679L88.8164 117.011L89.4317 121.679H91.317Z" fill="#FF967C"/>
<path d="M92.5166 106.257C95.8972 106.789 98.731 109.101 99.6777 111.121L108.041 130.673L128.576 113.818L134.414 120.129L115.955 143.535C112.242 148.552 105.821 150.617 101.447 144.074L94.4598 132.81L92.5166 106.257Z" fill="#EF7693"/>
<path d="M108.04 130.674L110.376 135.387L112.155 127.296L108.04 130.674Z" fill="#FF967C"/>
<path d="M59.6229 105.568C59.6229 105.568 57.2082 105.524 55.1783 109.17C53.148 112.816 44.9263 134.9 44.9263 134.9C44.9263 134.9 41.1707 143.234 48.7836 143.547H64.7193L59.6229 105.568Z" fill="#EF7693"/>
<path d="M61.4211 121.679L60.754 118.621L59.0752 121.679H61.4211Z" fill="#FF967C"/>
<path d="M103.579 183.859H68.7766C67.6804 183.859 66.621 183.453 65.7931 182.716C64.9649 181.979 64.4237 180.96 64.2687 179.846L56.9138 127.013C56.8217 126.35 56.8694 125.675 57.0535 125.033C57.2376 124.39 57.5544 123.796 57.9817 123.29C58.4091 122.784 58.9376 122.379 59.5311 122.101C60.1246 121.823 60.7693 121.679 61.4217 121.679H96.2246C97.3204 121.679 98.3799 122.085 99.2081 122.822C100.036 123.559 100.577 124.578 100.732 125.691L108.087 178.524C108.179 179.187 108.132 179.863 107.947 180.505C107.763 181.147 107.447 181.741 107.019 182.247C106.592 182.753 106.064 183.159 105.47 183.437C104.877 183.715 104.232 183.859 103.579 183.859Z" fill="#9D0D30"/>
<path d="M101.233 183.859H127.886C128.115 183.859 128.34 183.796 128.538 183.678C128.736 183.56 128.9 183.391 129.013 183.187C129.127 182.983 129.186 182.752 129.184 182.517C129.183 182.282 129.12 182.052 129.004 181.85C128.913 181.692 128.791 181.555 128.647 181.447C128.502 181.34 128.337 181.264 128.162 181.225L106.586 176.411L101.233 183.859Z" fill="#9D0D30"/>
<path d="M101.232 183.859H66.4298C65.3337 183.859 64.2743 183.453 63.4463 182.716C62.6181 181.979 62.0769 180.96 61.9219 179.846L54.5673 127.013C54.475 126.35 54.5226 125.675 54.7067 125.033C54.8908 124.39 55.2076 123.796 55.6349 123.29C56.0623 122.784 56.5908 122.379 57.1843 122.101C57.7779 121.823 58.4226 121.679 59.0749 121.679H93.8778C94.9737 121.679 96.0331 122.085 96.8613 122.822C97.6892 123.559 98.2304 124.578 98.3854 125.691L105.74 178.524C105.833 179.187 105.785 179.863 105.601 180.505C105.417 181.147 105.1 181.741 104.673 182.247C104.245 182.753 103.717 183.159 103.123 183.437C102.53 183.715 101.885 183.859 101.232 183.859Z" fill="url(#paint2_linear_424_245)"/>
<path d="M243.369 135.303C243.369 135.303 241.489 138.947 241.031 139.366C240.575 139.784 233.021 140.74 231.559 141.277C230.096 141.815 229.397 142.628 229.397 143.357H247.151C247.151 143.357 247.61 142.917 247.942 141.516C248.272 140.116 248.851 139.522 248.851 139.522L243.369 135.303Z" fill="#BC775C"/>
<path d="M217.85 77.8925C219.017 71.9769 216.271 72.1293 215.358 71.1887C215.358 71.1887 211.929 68.2873 209.317 70.9919C206.552 73.8526 190.703 96.0748 190.703 96.0748L200.62 105.436L202.484 103.153L207.313 97.2424L212.477 90.9252L213.119 90.2062L220.086 82.1073C220.086 82.1073 217.189 81.007 217.85 77.8925Z" fill="#5661AE"/>
<path d="M221.997 78.9004C223.334 74.8042 221.182 70.3713 217.191 68.9994C213.199 67.6274 208.88 69.8358 207.543 73.9319C206.206 78.0283 208.358 82.461 212.35 83.8329C216.341 85.2051 220.66 82.9965 221.997 78.9004Z" fill="#5661AE"/>
<path d="M213.027 90.1746C213.226 88.9379 213.627 86.4651 214.057 84.2115L216.345 73.3032C216.345 73.3032 210.2 82.6244 207.369 89.1172C205.272 93.9827 202.84 98.9415 202.438 103.137L207.266 97.2261L212.43 90.9093L213.027 90.1746Z" fill="#465393"/>
<path d="M180.797 71.0561C178.44 66.6448 179.572 65.8963 178.57 63.3864C177.582 60.9374 179.336 54.8663 177.657 55.694C175.979 56.522 175.459 58.7219 175.459 58.7219C174.311 56.6373 173.254 52.8023 170.505 52.3634C167.757 51.9245 167.513 52.8122 165.955 54.1241C161.811 57.6633 167.096 62.9819 167.978 65.0073C168.546 66.2769 172.715 70.1475 173.177 70.9933L175.276 74.1181L180.797 71.0561Z" fill="#BC775C"/>
<path d="M172.7 58.9951L169.351 52.6487" stroke="#93523E" stroke-width="1.07832" stroke-linecap="round"/>
<path d="M170.506 60.0225L166.855 54.1123" stroke="#93523E" stroke-width="1.07832" stroke-linecap="round"/>
<path d="M167.898 61.1589L165.812 57.5796" stroke="#93523E" stroke-width="1.07832" stroke-linecap="round"/>
<path d="M173.528 64.5821C173.546 62.3846 174.831 59.7256 174.831 59.7256" stroke="#93523E" stroke-width="1.07832" stroke-linecap="round"/>
<path d="M200.703 95.8977L180.538 68.336C180.409 68.1742 180.227 68.0668 180.026 68.0348C179.825 68.0025 179.619 68.0481 179.449 68.1622L174.168 71.7463C173.917 71.9208 173.738 72.1846 173.667 72.4868C173.595 72.7889 173.635 73.108 173.779 73.3815L189.996 104.075L200.703 95.8977Z" fill="#5661AE"/>
<path d="M195.804 107.539C199.534 107.539 202.557 104.436 202.557 100.608C202.557 96.7805 199.534 93.6775 195.804 93.6775C192.074 93.6775 189.051 96.7805 189.051 100.608C189.051 104.436 192.074 107.539 195.804 107.539Z" fill="#5661AE"/>
<path d="M224.02 64.958C224.02 64.958 214.174 68.1724 212.231 69.0061C210.289 69.8401 210.159 73.1762 210.03 75.5391C209.939 77.1947 211.76 104.381 211.88 120.126C211.905 123.49 211.294 125.625 210.901 127.494C210.509 129.364 210.901 130.381 210.901 130.381L253.089 130.768C253.089 130.768 251.824 76.0619 251.565 74.1162C251.306 72.1701 253.342 70.4942 251.136 69.5147L235.026 64.958H224.02Z" fill="#F40638"/>
<path d="M218.726 66.7131C218.726 66.7131 220.333 74.2594 221.387 80.2988C222.44 86.3383 222.76 136.336 222.76 136.336C222.76 136.336 210.433 133.876 208.763 130.969C207.093 128.063 210.309 115.003 210.56 103.137C210.81 91.2708 208.376 72.8561 210.932 69.6613C210.932 69.6616 211.587 68.9948 218.726 66.7131Z" fill="#5661AE"/>
<path d="M239.445 66.228C239.445 66.228 233.596 78.7355 233.954 82.5476C234.312 86.3597 234.332 118.869 233.954 125.657C233.719 129.786 233.106 133.883 232.123 137.894C232.123 137.894 248.08 139.054 254.245 137.073C254.245 137.073 257.174 118.16 255.251 111.404C253.33 104.648 251.863 69.5333 251.863 69.5333L239.445 66.228Z" fill="#5661AE"/>
<path d="M243.763 83.0358C243.763 83.0358 244.36 105.703 244.237 113.259C244.16 117.967 238.913 119.961 238.898 122.687C238.89 124.3 243.04 122.412 244.16 124.079C245.278 125.746 243.366 130.969 243.366 130.969L253.089 130.769L256.987 111.369L248.778 81.8691L243.763 83.0358Z" fill="#465393"/>
<path d="M224.222 59.9059L223.309 70.4698C223.309 70.4698 223.066 72.1106 225.842 72.6298C228.047 73.0419 232.629 70.3829 233.664 69.5069C235.963 67.5599 236.175 66.3818 235.932 65.4796C235.584 64.1868 234.447 55.0769 234.447 55.0769L224.222 59.9059Z" fill="#BC775C"/>
<path d="M223.623 68.5514L224.186 62.0402L229.087 59.5557L223.623 68.5514Z" fill="#93523E" stroke="#93523E"/>
<path d="M218.774 39.9119C218.774 39.9119 216.897 48.5427 216.647 54.4207C216.395 60.3512 218.459 61.4804 221.019 61.9232C223.039 62.2724 226.179 62.2978 228.155 61.2857C231.756 59.4399 237.668 54.9601 238.442 54.0911C239.642 52.7454 239.56 46.7437 234.983 45.2595C231.654 44.1798 223.167 35.0141 218.774 39.9119Z" fill="#BC775C"/>
<path d="M218.793 40.8322C221.523 41.9306 226.662 41.2089 229.484 42.1491C232.303 43.0918 229.738 44.087 229.861 46.8819C229.94 48.6921 230.074 52.1513 231.157 52.1054C232.239 52.0598 232.877 48.1312 235.159 48.2809C237.441 48.4337 238.518 49.434 238.467 50.9321C238.418 52.4275 236.778 53.7305 235.484 54.4224C233.865 55.2833 233.196 54.9222 233.196 54.9222C233.196 54.9222 235.019 61.8105 235.294 61.5376C235.294 61.5376 237.26 60.3987 237.615 58.405C237.615 58.405 240.224 57.8249 239.648 55.1465C239.648 55.1465 241.271 54.6113 240.501 53.0607C240.501 53.0607 244.701 50.1624 242.512 46.6156C242.512 46.6156 244.504 44.5763 242.124 43.7139C242.124 43.7139 245.277 38.9863 240.792 37.9785C240.792 37.9785 241.092 35.7532 239.039 35.838C239.039 35.838 238.143 32.0106 233.663 33.5201C233.642 32.7537 233.395 32.0118 232.956 31.3918C232.516 30.7718 231.904 30.3024 231.2 30.0455C228.663 28.9969 227.012 30.44 227.012 30.44C227.012 30.44 224.35 28.2112 222.948 31.479C222.948 31.479 220.934 30.4225 219.424 31.5451C217.912 32.6641 218.647 35.0098 218.647 35.0098C218.647 35.0098 216.919 34.5941 216.289 36.0629C215.398 38.1297 216.649 38.8828 216.649 38.8828C216.649 38.8828 213.835 42.2961 217.791 45.5293L218.793 40.8322Z" fill="#493212"/>
<path d="M225.663 49.353C225.812 48.6548 225.571 48.008 225.125 47.9081C224.68 47.8081 224.198 48.2932 224.05 48.9911C223.901 49.689 224.142 50.3359 224.588 50.4358C225.033 50.5357 225.515 50.0509 225.663 49.353Z" fill="#080B09"/>
<path d="M219.532 47.9355C219.681 47.2376 219.44 46.5907 218.995 46.4908C218.549 46.3909 218.067 46.8757 217.919 47.5739C217.77 48.2718 218.011 48.9186 218.457 49.0185C218.902 49.1184 219.384 48.6337 219.532 47.9355Z" fill="#080B09"/>
<path d="M220.745 49.7891C220.745 49.7891 221.506 51.2941 220.406 51.317C219.355 51.3019 218.742 51.9349 219.803 52.8522" stroke="#93523E" stroke-width="1.07832" stroke-linecap="round"/>
<path d="M219.966 54.2437L219.971 54.2443L219.975 54.2447C220.627 54.2926 221.929 54.3889 222.795 54.4677H222.796C222.822 54.4698 222.846 54.4789 222.867 54.494C222.887 54.5094 222.903 54.5299 222.913 54.554C222.923 54.5779 222.926 54.6042 222.923 54.6298C222.919 54.6546 222.91 54.6781 222.894 54.6977C222.704 54.913 222.453 55.1689 222.175 55.3896C221.893 55.6126 221.593 55.7919 221.304 55.8632C221.021 55.9332 220.754 55.8991 220.516 55.7026C220.27 55.4997 220.034 55.1095 219.859 54.4227L219.856 54.411L219.851 54.3998C219.843 54.3817 219.84 54.3615 219.843 54.3418C219.845 54.3219 219.852 54.3032 219.864 54.2872C219.876 54.2712 219.891 54.2588 219.909 54.2513C219.927 54.2434 219.946 54.241 219.966 54.2437Z" fill="#93523E" stroke="#93523E"/>
<path d="M227.8 47.0529L227.739 47.1794C227.666 47.3717 227.521 47.5262 227.338 47.6098C227.153 47.6931 226.945 47.6986 226.757 47.6246L223.562 46.2675C223.405 46.2083 223.275 46.0906 223.198 45.9379C223.122 45.7851 223.103 45.6083 223.148 45.4425C223.17 45.3396 223.213 45.2427 223.275 45.1585C223.337 45.074 223.415 45.0042 223.505 44.9532C223.595 44.9022 223.694 44.8711 223.796 44.8627C223.899 44.8539 224.002 44.8675 224.098 44.9028L227.354 46.1338C227.443 46.1625 227.526 46.2095 227.597 46.2717C227.668 46.3342 227.726 46.4106 227.768 46.4963C227.809 46.582 227.833 46.6756 227.839 46.7713C227.845 46.867 227.831 46.9627 227.8 47.0529Z" fill="#080B09"/>
<path d="M217.02 43.9999L220.482 43.7605C220.585 43.7545 220.687 43.771 220.783 43.8091C220.879 43.8471 220.965 43.9054 221.038 43.9802C221.11 44.0551 221.166 44.145 221.202 44.2437C221.238 44.3425 221.253 44.4478 221.246 44.5532C221.243 44.7249 221.177 44.8894 221.061 45.0138C220.946 45.1381 220.789 45.2133 220.622 45.2248L217.184 45.603C216.983 45.6196 216.785 45.5544 216.631 45.421C216.478 45.2879 216.381 45.0977 216.364 44.8921L216.34 44.7533C216.335 44.6576 216.348 44.5616 216.38 44.4716C216.412 44.3814 216.461 44.2987 216.524 44.2284C216.588 44.158 216.664 44.1016 216.75 44.0623C216.835 44.0231 216.927 44.002 217.02 43.9999Z" fill="#080B09"/>
<path d="M252.18 74.9689C247.833 70.9014 246.551 73.3974 245.295 73.7189C245.295 73.7189 241.109 75.2466 242.027 78.9361C242.998 82.8402 253.43 108.213 253.43 108.213L266.594 105.014L265.4 101.476L262.942 94.188L260.315 86.3951L260.042 85.4606L256.85 75.1651C256.85 75.1651 254.445 77.1503 252.18 74.9689Z" fill="#5661AE"/>
<path d="M254.322 82.8635C257.519 80.0542 257.892 75.1165 255.154 71.8351C252.416 68.5534 247.604 68.1706 244.407 70.98C241.21 73.7893 240.836 78.727 243.575 82.0084C246.313 85.2901 251.122 85.6729 254.322 82.8635Z" fill="#5661AE"/>
<path d="M253.33 104.647L241.686 136.977C241.624 137.175 241.636 137.391 241.718 137.582C241.8 137.773 241.947 137.925 242.136 138.01L247.93 140.623C248.209 140.745 248.524 140.756 248.809 140.654C249.094 140.553 249.336 140.345 249.48 140.072L265.83 109.452L253.33 104.647Z" fill="#5661AE"/>
<path d="M259.842 113.252C263.571 113.252 266.595 110.149 266.595 106.321C266.595 102.493 263.571 99.3904 259.842 99.3904C256.112 99.3904 253.089 102.493 253.089 106.321C253.089 110.149 256.112 113.252 259.842 113.252Z" fill="#5661AE"/>
<path d="M77.5 183.859H102.872C102.872 186.732 101.76 189.487 99.7807 191.518C97.8013 193.549 95.1169 194.691 92.3178 194.691H88.0543C85.2552 194.691 82.5705 193.549 80.5914 191.518C78.612 189.487 77.5 186.732 77.5 183.859Z" fill="#EF7693"/>
<path d="M90.7495 194.69H89.623V246.757H90.7495V194.69Z" fill="#F40638"/>
<path d="M89.6224 246.757L74.1572 251.901H105.974L90.7488 246.757H89.6224Z" fill="#F40638"/>
<path d="M39.3836 148.259L11.8633 249.649H17.4694L49.2785 148.259H39.3836Z" fill="#F40638"/>
<path d="M39.3838 148.259L37.3633 155.703L47.9076 152.63L49.2788 148.259H39.3838Z" fill="#9D0D30"/>
<path d="M273.989 148.259L301.509 249.649H295.903L264.092 148.259H273.989Z" fill="#F40638"/>
<path d="M273.989 148.259L275.533 153.95L265.518 152.802L264.092 148.259H273.989Z" fill="#9D0D30"/>
<path d="M82.737 76.2477C82.737 76.2477 86.4376 83.1006 87.7211 85.929C89.0046 88.757 89.4434 91.8081 87.3058 93.2123C84.3976 95.1233 81.1794 94.6986 77.7112 94.3011C74.7089 93.9567 70.9468 85.2866 71.4077 83.158C71.8686 81.0293 77.0897 72.4909 82.737 76.2477Z" fill="#FFCCB3"/>
<path d="M85.4955 84.1024C85.7652 83.8787 85.7235 83.3671 85.4023 82.9596C85.0811 82.5521 84.6026 82.4027 84.3329 82.6264C84.0635 82.85 84.1052 83.3617 84.4264 83.7692C84.7473 84.177 85.2261 84.3261 85.4955 84.1024Z" fill="#080B09"/>
<path d="M81.5094 83.0605L84.3328 80.9997C84.264 80.9176 84.179 80.8512 84.0834 80.8047C83.9881 80.7585 83.8843 80.7332 83.7787 80.7305C83.6732 80.7277 83.5684 80.748 83.4708 80.7893C83.3732 80.831 83.2852 80.8929 83.2126 80.9713L81.342 82.9177C81.2755 82.9729 81.4096 83.1432 81.5094 83.0605Z" fill="#080B09"/>
<path d="M87.1863 88.356C86.8072 88.598 86.3699 88.726 85.9234 88.726C85.4769 88.726 85.0393 88.598 84.6602 88.356" stroke="#EF6A77" stroke-miterlimit="10" stroke-linecap="round"/>
<path d="M80.0828 80.3581L86.129 77.2197C86.129 77.2197 83.9363 69.9005 75.9044 69.1359C70.0118 68.5747 64.5348 71.909 62.4124 77.1177C60.2898 82.3267 62.1048 90.9087 67.4877 92.9691C72.0409 94.7117 71.8944 99.3502 71.8944 99.3502L78.5614 90.3771C78.5614 90.3771 73.9488 88.074 75.055 85.2628C76.5544 81.4517 80.3226 85.8575 80.3226 85.8575L77.7729 78.2415L80.0828 80.3581Z" fill="#1F2D49"/>
<path d="M86.4721 83.3647C86.4721 83.3647 87.4807 84.7131 88.0909 84.9733C88.7009 85.2335 88.1548 86.1913 87.7483 86.3244C87.3418 86.4575 86.2404 84.0013 86.4721 83.3647Z" fill="#FFCCB3"/>
<path d="M61.5469 90.7169C65.5036 90.7169 68.7109 87.4252 68.7109 83.3644C68.7109 79.3039 65.5036 76.012 61.5469 76.012C57.5904 76.012 54.3828 79.3039 54.3828 83.3644C54.3828 87.4252 57.5904 90.7169 61.5469 90.7169Z" fill="#0D1B33"/>
<path d="M60.7539 91.0399C64.7106 91.0399 67.9179 87.7482 67.9179 83.6874C67.9179 79.6269 64.7106 76.335 60.7539 76.335C56.7975 76.335 53.5898 79.6269 53.5898 83.6874C53.5898 87.7482 56.7975 91.0399 60.7539 91.0399Z" fill="#1F2D49"/>
<path d="M131.022 13.7031H56.9079C55.59 13.7031 54.5215 14.7997 54.5215 16.1523V62.5088C54.5215 63.8614 55.59 64.958 56.9079 64.958H131.022C132.34 64.958 133.408 63.8614 133.408 62.5088V16.1523C133.408 14.7997 132.34 13.7031 131.022 13.7031Z" fill="#F40638"/>
<path d="M105.787 75.3049H109.75" stroke="#D4DCF4" stroke-width="7" stroke-miterlimit="10" stroke-linecap="round"/>
<path d="M118.471 75.3049H155.369" stroke="#E51A4B" stroke-width="7" stroke-miterlimit="10" stroke-linecap="round"/>
<path d="M105.787 84.2122H109.75" stroke="#D4DCF4" stroke-width="7" stroke-miterlimit="10" stroke-linecap="round"/>
<path d="M118.471 84.2122H135.651" stroke="#E51A4B" stroke-width="7" stroke-miterlimit="10" stroke-linecap="round"/>
<path d="M105.787 93.2756H109.75" stroke="#D4DCF4" stroke-width="7" stroke-miterlimit="10" stroke-linecap="round"/>
<path d="M118.471 93.2756H148.015" stroke="#E51A4B" stroke-width="7" stroke-miterlimit="10" stroke-linecap="round"/>
<path d="M59.7666 41.2021C59.7666 41.2021 66.2977 39.7904 68.3692 43.0501C70.4406 46.3097 72.5121 52.4334 77.2076 51.6392C81.9029 50.8454 84.169 34.8288 88.8643 34.9704C93.5595 35.1123 92.8128 45.6013 97.9224 45.7429C103.032 45.8847 101.608 39.8809 105.019 40.0451C109.158 40.244 108.694 52.6879 114.08 52.8294C119.466 52.9713 118.913 36.3888 127.061 36.6723" stroke="white" stroke-width="3" stroke-miterlimit="10" stroke-linecap="round"/>
<path d="M61.8496 21.4622H74.8889" stroke="white" stroke-width="3" stroke-miterlimit="10" stroke-linecap="round"/>
<path opacity="0.4" d="M61.8496 27.7078H88.7961" stroke="white" stroke-width="3" stroke-miterlimit="10" stroke-linecap="round"/>
<path opacity="0.4" d="M166.494 48.0553C171.175 48.0553 174.97 44.1603 174.97 39.3554C174.97 34.5508 171.175 30.6558 166.494 30.6558C161.812 30.6558 158.017 34.5508 158.017 39.3554C158.017 44.1603 161.812 48.0553 166.494 48.0553Z" fill="white"/>
<path d="M163.871 36.96V42.4817C163.871 42.6348 163.91 42.7854 163.984 42.9182C164.058 43.0513 164.164 43.1624 164.292 43.2403C164.421 43.3185 164.566 43.3607 164.716 43.3634C164.865 43.3661 165.012 43.329 165.143 43.2554L170.061 40.4946C170.196 40.4186 170.309 40.3069 170.388 40.1708C170.466 40.0346 170.508 39.8792 170.508 39.721C170.508 39.5625 170.466 39.4074 170.388 39.2712C170.309 39.1351 170.196 39.0231 170.061 38.9471L165.143 36.1863C165.012 36.113 164.865 36.0755 164.716 36.0783C164.566 36.081 164.421 36.1235 164.292 36.2014C164.164 36.2796 164.058 36.3904 163.984 36.5235C163.91 36.6566 163.871 36.8069 163.871 36.96Z" fill="white"/>
<path d="M53.7722 0H197.108C198.164 0 199.177 0.430438 199.923 1.19684C200.67 1.96293 201.089 3.00221 201.089 4.08585V10.2409H49.791V4.08585C49.791 3.00221 50.2104 1.96293 50.9572 1.19684C51.7036 0.430438 52.7163 0 53.7722 0Z" fill="#F40638"/>
<path d="M287.13 143.357H244.871V148.259H287.13V143.357Z" fill="#E51A4B"/>
<path d="M236.06 148.259L263.58 249.649H257.974L226.165 148.259H236.06Z" fill="#F40638"/>
<path d="M236.06 148.259L238.081 155.703L227.536 152.63L226.165 148.259H236.06Z" fill="#9D0D30"/>
<defs>
<linearGradient id="paint0_linear_424_245" x1="121.674" y1="-0.249329" x2="138.5" y2="223.554" gradientUnits="userSpaceOnUse">
<stop stop-color="white"/>
<stop offset="1" stop-color="#94B9FF"/>
</linearGradient>
<linearGradient id="paint1_linear_424_245" x1="152.393" y1="143.345" x2="152.414" y2="153.862" gradientUnits="userSpaceOnUse">
<stop stop-color="white"/>
<stop offset="1" stop-color="#9D0D30"/>
</linearGradient>
<linearGradient id="paint2_linear_424_245" x1="78.8777" y1="121.531" x2="96.1197" y2="252.648" gradientUnits="userSpaceOnUse">
<stop stop-color="white"/>
<stop offset="1" stop-color="#E51A4B"/>
</linearGradient>
</defs>
</svg>
