<svg width="290" height="234" fill="none" xmlns="http://www.w3.org/2000/svg"><path d="M235.11 0h-29.326c-1.976 0-3.578 1.833-3.578 4.094v36.327c0 2.262 1.602 4.095 3.578 4.095h29.326c1.977 0 3.579-1.833 3.579-4.095V4.094c0-2.261-1.602-4.094-3.579-4.094z" fill="#F40638"/><path d="M206.65 33.46h9.401" stroke="#fff" stroke-width="3" stroke-miterlimit="10" stroke-linecap="round"/><path opacity=".4" d="M206.65 38.48h19.428" stroke="#fff" stroke-width="3" stroke-miterlimit="10" stroke-linecap="round"/><path d="M206.858 12.62h4.862c.357 0 .708.108 1.018.311.31.203.568.496.748.85l4.707 9.21c.185.361.451.66.772.864.32.203.682.305 1.049.293a1.869 1.869 0 0 0 1.034-.357c.31-.224.562-.538.73-.91l2.91-6.467a2.25 2.25 0 0 1 .743-.92 1.865 1.865 0 0 1 1.053-.35l8.54-.104" stroke="#fff" stroke-width="2" stroke-miterlimit="10" stroke-linecap="round"/><path opacity=".4" d="M206.858 22.527h2.391c.54 0 1.058-.244 1.442-.68l11.052-12.559c.384-.436.902-.68 1.442-.68h3.235c.463 0 .912.18 1.275.508.362.33.615.789.719 1.304l1.7 8.376c.103.515.356.974.719 1.304.362.329.811.508 1.271.508h2.92" stroke="#fff" stroke-width="2" stroke-miterlimit="10" stroke-linecap="round"/><path d="M276.904 221.628S275.831 234 257.199 234h-21.844l28.978-25.779 12.571 13.407z" fill="#F28EA6"/><path d="m233.557 78.25 51.297 13.004c.457.112.892.319 1.283.61 1.418 1.07 3.952 4.203 3.466 12.768-.65 11.416-12.7 116.996-12.7 116.996l-49.252-48.787 5.906-94.592z" fill="#F28EA6"/><path d="m228.074 77.914 51.671 13.1s4.421 1.842 4.375 13.282c-.046 11.441-12.699 116.996-12.699 116.996l-49.254-48.787 5.907-94.591z" fill="#9D0D30"/><path d="M228.915 83.945s.909 15.07 1.308 17.458c.702 4.183 16.765-4.605 15.585-8.33-.609-1.932-3.391-20.346-3.391-20.346l-13.502 11.218z" fill="#BC775C"/><path d="m230.318 100.823-1.375-15.428h8.14l-6.765 15.428z" fill="#93523E" stroke="#93523E"/><path d="M249.332 69.497c.621-7.588-6.901-5.952-8.187-5.61-1.285.343-3.299-10.9-3.299-10.9s-14.84-3.024-18.02-.007c0 0-1.994 14.17-2.316 23.246-.322 9.076 1.903 13.14 4.811 13.451 3.961.812 8.647-.103 11.642-2.122 5.333-3.598 7.611-10.104 7.611-10.104l.147-.076s7.027-.713 7.611-7.878z" fill="#BC775C"/><path d="M219.404 75.94c1.279-.928 4.513-.847 5.826-.553 2.502.56 3.27.933 3.552 1.598.282.664.337 1.4-.707.93-1.047-.471-3.234-1.33-5.181-1.27-.905.107-1.801.294-2.68.56-1.015.348-1.963-.43-.81-1.266zM218.5 66.679s.843-8.49.95-10.84c.155-3.382 2.315-2.294 3.861.078 2.226 3.521 6.472 3.298 10.042 2.193 3.132-.873 3.178-.668 3.463 3.117.288 3.786 1.355 10.815 2.359 9.133 1.248-2.202 2.1-4.264 4.295-5.604 2.983-1.82 6.043 1.539 5.324 4.133-.719 2.595-2.402 5.583-6.159 8.036l1.838 9.745c9.312-14.778 12.818-35.073.19-39.773-4.717-1.755-9.616-13.134-18.746-10.545-6.467 1.834-6.467 7.766-6.926 12.924-8.69.43-.491 17.403-.491 17.403z" fill="#493212"/><path d="M229.665 69.474c.178-1.075-.178-2.056-.794-2.19-.615-.132-1.26.631-1.435 1.707-.179 1.076.175 2.056.791 2.19.615.133 1.26-.631 1.438-1.707zM221.188 67.574c.178-1.075-.177-2.055-.793-2.189-.616-.133-1.26.63-1.437 1.706-.178 1.076.177 2.056.793 2.19.616.133 1.259-.63 1.437-1.707z" fill="#080B09"/><path d="M222.923 70.36s1.103 2.272-.408 2.355c-1.445.023-2.262 1.02-.771 2.378" stroke="#93523E" stroke-width="1.515" stroke-linecap="round"/><path d="M222.042 76.987c.897.045 2.692.135 3.887.217.072.005.141.031.198.077.061.046.107.11.138.185a.51.51 0 0 1-.046.463c-1.036 1.382-3.443 3.896-4.533-.368a.46.46 0 0 1 .031-.406.364.364 0 0 1 .142-.135.317.317 0 0 1 .183-.032z" fill="#fff"/><path d="m232.513 65.857-.078.196a1.166 1.166 0 0 1-.535.677.93.93 0 0 1-.797.048l-4.441-1.937a.95.95 0 0 1-.512-.489 1.178 1.178 0 0 1-.089-.757c.026-.158.083-.308.164-.44.083-.132.187-.243.308-.325a.878.878 0 0 1 .814-.103l4.519 1.741c.123.04.238.109.339.201.101.093.181.207.242.337a1.214 1.214 0 0 1 .066.85zM217.588 61.657l4.747-.52a.88.88 0 0 1 .415.062.99.99 0 0 1 .357.25c.102.112.182.247.235.397.053.15.078.31.073.472a1.14 1.14 0 0 1-.237.714.883.883 0 0 1-.596.342l-4.709.732a.956.956 0 0 1-.766-.255 1.246 1.246 0 0 1-.387-.798l-.038-.212a1.237 1.237 0 0 1 .044-.433c.04-.14.105-.269.189-.379a.98.98 0 0 1 .303-.264.86.86 0 0 1 .37-.108z" fill="#080B09"/><path d="M12.76 221.628S13.833 234 32.466 234h21.843l-28.977-25.779-12.572 13.407z" fill="#F28EA6"/><path d="M56.108 78.25 4.811 91.254a3.58 3.58 0 0 0-1.283.61c-1.42 1.07-3.954 4.203-3.467 12.768.65 11.416 12.7 116.996 12.7 116.996l49.253-48.787-5.906-94.592z" fill="#F28EA6"/><path d="m61.591 77.914-51.673 13.1s-4.42 1.842-4.374 13.282c.046 11.441 12.7 116.996 12.7 116.996l49.252-48.787-5.905-94.591z" fill="#9D0D30"/><path d="m83.956 132.377 5.013 8.029a9.263 9.263 0 0 0 2.7 2.815 7.983 7.983 0 0 0 3.472 1.301l32.818 3.962.499 9.405-40.047 2.781c-2.256.157-4.511-.322-6.568-1.395-2.056-1.073-3.851-2.708-5.227-4.76l-10.733-16.01 18.073-6.128z" fill="#FFCCB3"/><path d="M87.09 137.399s-10.317 3.117-13.333 12.853l-5.14-8.694 17.365-5.934 1.109 1.775z" fill="#FF967C"/><path d="M61.913 102.093s10.04 3.348 12.834 7.214c2.175 3.008 5.873 15.506 8.77 21.526.7 1.454 1.694 1.586.956 3.016-3.053 5.914-5.67 14.535-10.716 16.403-16.888-2.919-11.844-48.159-11.844-48.159z" fill="#5661AE"/><path d="M72.763 119.219s6.7 13.902 7.717 21.373c0 0-2.386 6.927-4.07 8.336-2.627 2.198-4.07.963-4.07.963l.423-30.672z" fill="#465393"/><path d="M37.746 74.01c9.26 0 16.766-8.588 16.766-19.183s-7.506-19.183-16.766-19.183c-9.26 0-16.766 8.588-16.766 19.183s7.506 19.184 16.766 19.184z" fill="#080B09"/><path d="M51.952 44.6s-21.639-4.372-24.177 25.65c0 0 2.168 2.667 5.288 2.959 0 0 2.534-29.13 20.156-26.88l-1.267-1.73z" fill="#FEBB94"/><path d="M47.364 45.744s-2.488-1.478-.613-3.182c1.184-1.13 2.127-2.554 2.757-4.164.593.376 1.04.995 1.248 1.733.21.738.166 1.539-.121 2.242-.961 2.713-1.563 2.866-1.563 2.866l-1.708.505z" fill="#FEBB94"/><path d="M47.238 44.11s-.685 3.111-2.565 1.415c-1.234-1.06-2.662-1.783-4.176-2.114.183-.747.608-1.386 1.187-1.789a2.395 2.395 0 0 1 1.935-.379c2.53.447 2.797 1.081 2.797 1.081l.822 1.787z" fill="#FEBB94"/><path d="m52.035 88.547 2.649 11.277s20.222 26.253 3.438 35.8c-2.95 1.678-17.05-11.219-19.697-14.078-2.648-2.859-1.55-19.749-1.55-19.749l6.079-24.124 9.08 10.874z" fill="#FFCCB3"/><path d="M46.075 124.326s9.88 7.106 19.808.513c0 0-1.53 9.788-7.549 12.938-6.018 3.15-12.259-13.451-12.259-13.451z" fill="#1C85E8"/><path d="m52.556 90.54-5.311-3.976 7.864 15.133-2.553-11.158z" fill="#FF967C"/><path d="M66 60.797s2.81 16.913-2.211 26.773c-3.275 6.43-7.773 6.611-16.545-1.006-8.043-6.985-9.682-11.16-9.682-11.16l1.966-17.583S62.78 45.544 66 60.797z" fill="#FFCCB3"/><path d="M54.684 99.824s9.943 2.81 11.547 4.103c1.603 1.294 3.661 12.616 6.548 17.858 2.887 5.243 6.831 13.527 1.765 23.107-5.067 9.581-4.61 18.748-4.61 18.748l3.834 24.05H31.061c-1.785.186-2.735-4.989-2.682-7.039.175-6.762.735-8.778.358-19.499-.511-14.53-5.254-55.752-5.254-55.752l14.08-5.982c-.434 22.679 11.082 17.729 20.771 38.359 7.932-17.431-3.65-37.953-3.65-37.953z" fill="#5661AE"/><path d="M32.752 117.147s2.09 4.984.44 10.074c-1.856 5.724-3.898 19.672 5.146 20.551 11.086 1.077 6.432 3.377 1.413 5.139-5.019 1.762-2.933 1.619-2.613 7.657.228 4.297-9.869 13.022-8.939 9.692 4.99-17.869-11.967-39.949 4.553-53.113z" fill="#465393"/><path d="m56.804 82.715 5.32 1.014a4.513 4.513 0 0 1-.524.986c-.412.58-1.05 1.138-1.976 1.112-1.451-.19-2.15-1.02-2.493-1.793a4.026 4.026 0 0 1-.327-1.32z" fill="#E56441" stroke="#E56441"/><path d="M64.918 75.193c.596-.033 1.045-.875 1.002-1.88-.044-1.005-.561-1.793-1.157-1.76-.597.034-1.045.876-1.002 1.88.043 1.006.561 1.794 1.157 1.76zM56.118 75.83c.596-.033 1.044-.875 1.001-1.88-.043-1.005-.56-1.793-1.157-1.759-.596.033-1.044.875-1.001 1.88.043 1.005.56 1.793 1.157 1.76zM66.79 69.053l-4.476.335a.295.295 0 0 1-.206-.094.38.38 0 0 1-.102-.226c.01-.157.047-.31.11-.45.062-.14.15-.263.255-.364a.986.986 0 0 1 .36-.22.894.894 0 0 1 .407-.04l3.7.466c.294-.016.319.572-.048.593zM51.606 69.582l5.966.087a1.652 1.652 0 0 0-.154-.592 1.456 1.456 0 0 0-.35-.47 1.239 1.239 0 0 0-.486-.266 1.14 1.14 0 0 0-.54-.018l-4.528.843c-.146.008-.128.428.092.416z" fill="#080B09"/><path d="m61.162 73.07 1.914 4.85-1.334 1.396" stroke="#E56441" stroke-width="1.667" stroke-linecap="round"/><path d="M60.509 63.421c-3.126.025-4.59-.804-7.868.96-1.035.558-2.014 1.115-2.607 2.48-.636 2.746-.228 6.56-4.458 6.453 0 0 1.368-5.21-1.538-5.875-4.935-1.13-4.142 8.005-1.084 10.234 2.078 1.515-1.492 12.441-4.147 16.457-9.083-24.284-5.93-26.73-3.57-33.07 4.013-10.772 7.529-14.051 17.028-15.833 0 0 12.584.389 15.92 13.057 2.853 10.83-1.428 14.982-1.428 14.982s.133-8.059-.563-8.884c-.917-1.087-1.66-.993-5.685-.96z" fill="#080B09"/><path d="m213.215 194.506-35.613 7.239L184.611 234h22.812s10.844-26.669 5.792-39.494z" fill="#FFCCB3"/><path d="M190.478 197.332s5.488 1.933 7.754 12.176c2.265 10.242-.207 24.492-.207 24.492h3.529s12.584-16.909 3.326-38.458l-14.402 1.79z" fill="#FF967C"/><path d="M264.925 184.341s2.745 23.448-1.352 34.625c-3.486 9.505-8.871 14.894-15.409 15.034h-50.139s-.079-30.642-21.227-35.877c0 0 69.6-22.18 88.127-13.782z" fill="#1F2D49"/><path d="m265.889 191.452-45.493 1.714.484-3.636 8.865-1.172h36.081l.063 3.094z" fill="#0D1B33"/><path d="M230.583 99.605c-.391 1.898-.492-4.818-1.283-4.537-3.621 1.284-13.926 4.963-16.118 6.012-2.67 1.278-2.848 6.39-3.026 10.011-.125 2.537 3.175 38.15 3.34 62.277.035 5.155-4.525 11.188-5.064 14.053-.15.772-.23 1.559-.24 2.349a2.246 2.246 0 0 0 .525 1.473c.338.393.798.615 1.28.619l54.325.581s2.408.401 1.826-2.744a69.961 69.961 0 0 1-.943-10.431c-.541-25.06-.644-67.028-.88-69.015-.357-2.982 2.442-5.55-.59-7.051l-16.825-7.69s-3.083 2.573-3.529 2.834c-8.452 4.945-12.798 1.259-12.798 1.259z" fill="#FEBB94"/><path d="M234.083 102.163s-1.921 8.073-1.032 15.87c.885 7.798-2.615 18.466-3.34 27.028-.725 8.562 2.825 19.778 2.269 26.965-.552 7.186 1.462 20.434 1.462 20.434" stroke="#FF967C" stroke-width="3" stroke-miterlimit="10"/><path d="m81.81 188.529 35.613 7.239-7.01 32.256H87.601s-10.844-26.669-5.791-39.495z" fill="#FFCCB3"/><path d="M104.547 191.355s-5.489 1.934-7.754 12.176c-2.266 10.242.206 24.493.206 24.493H93.47s-12.584-16.91-3.325-38.459l14.402 1.79z" fill="#FF967C"/><path d="M29.043 179.882s-6.31 13.554-5.56 31.426c.713 16.975 8.83 22.692 21.66 22.692L97 228.024s.079-30.643 21.226-35.877c0 0-23.545-19.61-47.361-14.683-11.69 2.418-19.034 5.36-41.822 2.418z" fill="#1F2D49"/><path d="M28.156 175.351s33.585 4.015 45.963-6.568l-.553 8.835s-20.93 13.305-44.916 5.818c0 0-3.596-2.89-.494-8.085z" fill="#1C85E8"/><path d="M130.647 161.786s9.977-2.39 14.109-1.295c4.211.995 13.073 3.532 11.485 10.966-1.098 5.307-5.941 3.205-5.941 3.205s1.261 2.12-.613 3.087c-1.142.543-8.514-4.083-8.514-4.083-4.919 1.811-11.339-2.012-11.339-2.012l.813-9.868z" fill="#FFCCB3"/><path d="m144.842 171.832 5.376 2.834M146.044 166.995c1.347.303 7.409 3.575 7.409 3.575M146.799 163.329a25.966 25.966 0 0 1 7.661 3.655" stroke="#FF967C" stroke-width="2.893" stroke-linecap="round" stroke-linejoin="round"/><path d="M86.29 124.839h108.282l54.797 103.185H41.52l44.77-103.185z" fill="url(#a)"/><path d="m174.44 168.834 3.63 25.148 20.162 15.525 33.752-4.173-8.291-11.352-49.253-25.148z" fill="#9D0D30"/><path d="m155.04 143.87 15.113 31.883 22.504 24.429-18.218-31.347-19.399-24.965z" fill="#fff"/><path d="m155.04 143.87 15.113 31.883-1.457 1.283-14.887-32.305 1.231-.861z" fill="#E51A4B"/><path d="m170.153 175.753 22.505 24.429v1.564l-23.963-24.71 1.458-1.283zM192.658 201.746l31.034-6.491v-1.273l-31.034 6.199v1.565z" fill="#E51A4B"/><path d="m223.692 193.982-20.217-29.608-29.035 4.461 18.218 31.347 31.034-6.2z" fill="#E7EFFF"/><path d="m38.674 119.286-4.687 30.834c-.118.771-.49 1.461-1.04 1.928-.548.467-1.233.675-1.912.583 0 0-13.207-.994-17.603-1.413-1.036-.099-3.85-3.019-2.99-7.83.789-6.571 4.483-21.915 6.82-30.436 1.087-4.239 12.72-1.701 12.72-1.701l8.692 8.035z" fill="#5661AE"/><path d="M27.71 129.839c6.125 0 11.09-5.681 11.09-12.688 0-7.007-4.965-12.688-11.09-12.688-6.123 0-11.088 5.681-11.088 12.688 0 7.007 4.965 12.688 11.089 12.688z" fill="#5661AE"/><path d="m13.735 152.931.18-2.458 16.443 2.143-.255 2.091-1.398 13.192-15.987-1.973 1.017-12.995z" fill="#FFCCB3"/><path d="m13.996 150.452 16.362 2.164-.255 2.091c-3.718-.469-12.053-1.27-16.369-1.776l.262-2.479z" fill="#FF967C"/><path d="M20.649 175.622c4.445 0 8.05-4.124 8.05-9.211 0-5.086-3.605-9.21-8.05-9.21-4.446 0-8.05 4.124-8.05 9.21 0 5.087 3.604 9.211 8.05 9.211z" fill="#FFCCB3"/><path d="m24.622 174.341 45.43-24.402s2.725-11.085-.238-9.245c-3.038 1.882-51.437 16.851-51.437 16.851l6.245 16.796z" fill="#FFCCB3"/><path d="m96.039 151.163-19.315 3.861c-1.244.249-2.072-.74-1.848-2.209l5.94-38.954c.224-1.468 1.414-2.861 2.658-3.109l19.315-3.861c1.244-.249 2.071.739 1.847 2.208l-5.939 38.955c-.224 1.468-1.414 2.86-2.658 3.109z" fill="#1C85E8"/><path d="m96.905 150.99-19.314 3.861c-1.245.249-2.072-.74-1.848-2.208l5.94-38.955c.223-1.468 1.414-2.86 2.658-3.109l19.315-3.861c1.244-.249 2.071.739 1.847 2.208l-5.94 38.955c-.223 1.468-1.413 2.86-2.658 3.109z" fill="#B2CDFF"/><path d="m67.073 141.779 2.242 8.365s9.29-2.549 11.278-3.666c3.876-2.28 8.043-5.355 8.531-6.524 1.495-2.957 1.672-6.615 1.5-9.171a2.563 2.563 0 0 0-.3-1.071 2.185 2.185 0 0 0-.705-.783 1.801 1.801 0 0 0-1.906-.08l-8.132 4.644s-1.059-2.047.006-3.674c.687-1.073-.372-3.12-.843-3.747-.185-.29-1.175-.299-1.4-.006-.378.554.142 2.475-.656 3.695-1.36 1.953-.153 2.801-3.655 6.129-2.77 2.611-5.99 5.809-5.96 5.889z" fill="#FFCCB3"/><path d="M82.8 134.907c2.314-.892 7.033-4.036 7.033-4.036M82.497 138.437c1.862-.775 6.78-3.824 6.78-3.824M83.618 141.584c1.228-.479 4.879-2.466 4.879-2.466" stroke="#FF967C" stroke-width="2.099" stroke-linecap="round" stroke-linejoin="round"/><path d="M13.46 149.469a12.032 12.032 0 0 0 .11 5.56s7.91 4.384 16.268 2.182a4.51 4.51 0 0 0 1.188-2.089 5.02 5.02 0 0 0 .01-2.491l-17.576-3.162z" fill="#5661AE"/><path d="M249.087 116.683s-2.436 15.256-.923 30.175c.946 9.336 6.15 18.92 6.084 23.376-.107 7.214-7.315 10.27-7.335 14.447-.015 2.472 5.822.934 8.402-.027 5.796-2.16 9.605.775 9.605.775l-1.545-63.295-14.288-5.451z" fill="#FF967C"/><path d="M264.575 112.973c-5.348-7.658-7.747-3.991-9.625-3.803 0 0-6.363 1.356-5.862 7.512.529 6.515 9.889 49.927 9.889 49.927l19.65-1.689-.932-5.987-1.919-12.329-2.045-13.183-.181-1.57-2.299-17.343s-3.906 2.554-6.676-1.535z" fill="#FEBB94"/><path d="M265.895 126.192c5.224-3.67 6.86-11.49 3.653-17.468-3.207-5.977-10.042-7.848-15.266-4.178-5.226 3.669-6.86 11.49-3.653 17.467 3.207 5.977 10.042 7.848 15.266 4.179z" fill="#FEBB94"/><path d="m218.866 168.412-12.389 1.054-2.928 7.903 1.001 9.756s2.131-.994 2.352-4.445c.221-3.451 10.083-1.003 12.661-4.793" fill="#BC775C"/><path d="m266.122 155.628-48.065 10.367a1.203 1.203 0 0 0-.713.549c-.17.278-.245.617-.209.954l1.163 10.465c.061.5.282.957.62 1.281.339.325.77.493 1.211.474l49.511-2.216-3.518-21.874z" fill="#FEBB94"/><path d="M268.964 177.586c5.431 0 9.835-5.038 9.835-11.253s-4.404-11.253-9.835-11.253c-5.431 0-9.835 5.038-9.835 11.253s4.404 11.253 9.835 11.253zM219.229 115.166c1.605-9.065-2.169-8.831-3.425-10.273 0 0-4.712-4.445-8.302-.301-3.801 4.384-25.585 38.436-25.585 38.436l13.63 14.344 2.562-3.499 6.637-9.056 7.099-9.68.882-1.102 9.576-12.41s-3.981-1.686-3.074-6.459z" fill="#FEBB94"/><path d="M224.93 116.71c1.838-6.276-1.12-13.069-6.606-15.171-5.486-2.103-11.423 1.281-13.26 7.558-1.838 6.277 1.12 13.07 6.606 15.172 5.486 2.102 11.423-1.282 13.26-7.559z" fill="#FEBB94"/><path d="M211.845 135.136c-.407-5.038-1.867-12.585-1.867-12.585s-1.262-.134-5.153 9.815c-2.882 7.456-6.225 15.055-6.778 21.483l6.637-9.057 7.161-9.656z" fill="#FF967C"/><path d="M185.228 98.888c-.71-7.666 1.114-8.038 1.139-12.194.012-4.062 5.372-11.581 2.816-11.43-2.556.153-4.352 2.948-4.352 2.948-.379-3.644.262-9.707-2.997-11.995-3.259-2.288-4.026-1.18-6.679-.27-7.084 2.489-3.13 13.214-3.058 16.613.065 2.14 3.353 10.141 3.502 11.617l1.047 5.69 8.582-.98z" fill="#BC775C"/><path d="m181.19 76.925-.968-11.004.968 11.004z" fill="#93523E"/><path d="m181.19 76.925-.968-11.004" stroke="#93523E" stroke-width="1.515" stroke-linecap="round"/><path d="m177.877 77.047-1.576-10.57 1.576 10.57z" fill="#93523E"/><path d="m177.877 77.047-1.576-10.57" stroke="#93523E" stroke-width="1.515" stroke-linecap="round"/><path d="m173.984 77.072-.797-6.326.797 6.326z" fill="#93523E"/><path d="m173.984 77.072-.797-6.326" stroke="#93523E" stroke-width="1.515" stroke-linecap="round"/><path d="M179.354 85.325c1.158-3.096 4.161-6.076 4.161-6.076l-4.161 6.076z" fill="#93523E"/><path d="M179.354 85.325c1.158-3.096 4.161-6.076 4.161-6.076" stroke="#93523E" stroke-width="1.515" stroke-linecap="round"/><path d="m197.639 146.084-10.613-46.219a1.294 1.294 0 0 0-.494-.736 1.014 1.014 0 0 0-.797-.17l-8.548 1.864a1.67 1.67 0 0 0-1.019.742 2.13 2.13 0 0 0-.319 1.333l3.988 48.252 17.802-5.066z" fill="#FEBB94"/><path d="M176.55 102.825s-1.052-4.614 0-5.121c1.053-.507 7.648-1.949 8.533-1.006.885.943 1.658 4.872 1.658 4.872l-10.191 1.255zM188.992 160.391c5.127 0 9.282-4.755 9.282-10.62 0-5.865-4.155-10.62-9.282-10.62-5.126 0-9.282 4.755-9.282 10.62 0 5.865 4.156 10.62 9.282 10.62z" fill="#FEBB94"/><path d="M37.746 98.34s6.765 14.991 13.674 17.456c0 0 3.882-2.358 3.263-15.973" stroke="#fff" stroke-miterlimit="10"/><path d="M51.177 119.661c1.301 0 2.356-1.207 2.356-2.696s-1.055-2.695-2.356-2.695-2.356 1.206-2.356 2.695c0 1.489 1.055 2.696 2.356 2.696zM48.006 114.563c.45 0 .815-.417.815-.932 0-.514-.365-.932-.815-.932-.45 0-.814.418-.814.932 0 .515.365.932.814.932zM53.533 113.986c.45 0 .814-.417.814-.931 0-.515-.364-.932-.814-.932-.45 0-.814.417-.814.932 0 .514.364.931.814.931z" fill="#5661AE"/><path d="m118.966 160.204-26.553.172v29.189l39.52-2.636-12.967-26.725z" fill="#fff"/><path d="m116.452 163.048 4.391 10.321" stroke="#E51A4B" stroke-miterlimit="10" stroke-linecap="round"/><path opacity=".4" d="m112.173 163.049 1.645 3.868" stroke="#E51A4B" stroke-miterlimit="10" stroke-linecap="round"/><path opacity=".4" d="m94.204 163.049 13.133-.349.965 3.676-13.835.541-.263-3.868zM94.572 169.029l7.711-.237.965 3.675-8.413.43-.263-3.868zM94.572 175.54l13.133-.349.965 3.676-13.835.541-.263-3.868zM94.94 181.521l7.711-.238.965 3.675-8.412.43-.263-3.867z" fill="#E51A4B"/><path d="m72.34 209.507 29.281-20.978 20.759 6.756-25.02 25.161-25.02-10.939z" fill="#E51A4B"/><path d="M234.017 100.962s9.809-3.763 11.653-8.736c0 0 4.479.737 6.236 2.663 1.749 1.927 6.018 2.5 2.319 4.642-3.7 2.141-18.125 3.956-19.003 3.676-.877-.28-1.205-2.245-1.205-2.245z" fill="#fff"/><path d="M229.953 94.113v2.517s.877 3.616 4.064 4.332c0 0 .498 1.995-1.257 2.232-1.751.237-6.849-2.711-7.599-2.999-.753-.285-1.084-1.474.376-2.427 0 0 .524-3.262 4.416-3.655zM238.887 129.398a.126.126 0 0 1-.04-.004.191.191 0 0 1-.118-.095.25.25 0 0 1-.026-.164c.535-2.672-.961-5.973-2.405-9.167-1.073-2.37-2.183-4.822-2.465-7.033-.664-5.134 1.151-10.9 1.171-10.956a.206.206 0 0 1 .098-.121.169.169 0 0 1 .144-.008.197.197 0 0 1 .063.043.256.256 0 0 1 .043.067.195.195 0 0 1 .017.082.294.294 0 0 1-.011.084c-.018.056-1.804 5.723-1.157 10.748.279 2.138 1.372 4.556 2.434 6.896 1.473 3.262 3.003 6.637 2.436 9.464a.197.197 0 0 1-.066.119.171.171 0 0 1-.118.045z" fill="#fff"/><path d="M231.923 126.95a.173.173 0 0 1-.118-.045.226.226 0 0 1-.063-.119c-1.179-5.658.083-15.36.498-18.2.345-2.147.466-4.333.362-6.512a.23.23 0 0 1 .043-.156.18.18 0 0 1 .127-.077.168.168 0 0 1 .135.047c.04.035.063.086.069.143a31.9 31.9 0 0 1-.365 6.624c-.415 2.823-1.669 12.451-.504 18.032a.212.212 0 0 1 0 .097.219.219 0 0 1-.034.088.183.183 0 0 1-.15.078z" fill="#fff"/><path opacity=".6" d="M238.688 130.944c.656 0 1.188-.607 1.188-1.356 0-.749-.532-1.357-1.188-1.357-.658 0-1.19.608-1.19 1.357s.532 1.356 1.19 1.356zM232.136 128.095c.658 0 1.191-.607 1.191-1.356 0-.749-.533-1.357-1.191-1.357-.656 0-1.188.608-1.188 1.357s.532 1.356 1.188 1.356z" fill="#fff"/><path d="M160.709 10.38h1.726" stroke="#5CA4E6" stroke-miterlimit="10"/><path d="M192.301.048H92.875c-2.905 0-5.26 2.695-5.26 6.019v73.31c0 3.325 2.355 6.02 5.26 6.02h99.426c2.905 0 5.261-2.695 5.261-6.02V6.067c0-3.324-2.356-6.019-5.261-6.019z" fill="url(#b)"/><path d="M188.822 63.783h-55.234c-.914 0-1.655.848-1.655 1.894v8.546c0 1.046.741 1.894 1.655 1.894h55.234c.914 0 1.655-.848 1.655-1.894v-8.546c0-1.046-.741-1.894-1.655-1.894z" fill="#fff"/><path d="M171.715 69.104v-.492h.973v4.28h-.476v-3.788h-.497zm1.771.585c.025-.363.147-.647.368-.852.22-.205.507-.308.858-.308.235 0 .437.05.606.148a.93.93 0 0 1 .388.391c.089.166.134.353.134.562 0 .245-.062.456-.186.634a.81.81 0 0 1-.476.343v.03a.947.947 0 0 1 .533.373c.131.185.197.428.197.728 0 .224-.045.428-.135.61a.989.989 0 0 1-.404.42 1.28 1.28 0 0 1-.646.153c-.366 0-.666-.108-.9-.325-.235-.221-.366-.533-.394-.935h.456c.024.237.108.43.253.58.145.15.338.225.58.225.241 0 .424-.072.548-.213a.822.822 0 0 0 .191-.563c0-.296-.086-.509-.258-.639-.173-.13-.433-.195-.781-.195h-.12v-.45h.125c.317-.004.557-.063.719-.178.162-.118.243-.3.243-.544a.696.696 0 0 0-.181-.503c-.117-.127-.286-.19-.507-.19a.713.713 0 0 0-.517.19.8.8 0 0 0-.233.508h-.461zm3 2.77c.438-.402.781-.731 1.03-.988.248-.26.457-.53.626-.81.172-.285.258-.563.258-.835 0-.257-.055-.458-.165-.604-.107-.15-.281-.225-.523-.225a.654.654 0 0 0-.548.254c-.128.166-.197.39-.207.67h-.455c.013-.443.131-.784.351-1.025.221-.24.506-.36.854-.36.355 0 .636.112.843.337.211.225.316.534.316.929 0 .327-.086.647-.259.959a4.17 4.17 0 0 1-.579.817 15.74 15.74 0 0 1-.833.816h1.78v.45h-2.489v-.384z" fill="#1C85E8"/><path d="M124.194 9.088H95.248c-1.085 0-1.965 1.007-1.965 2.25v62.53c0 1.242.88 2.249 1.965 2.249h28.946c1.085 0 1.965-1.007 1.965-2.249v-62.53c0-1.243-.88-2.25-1.965-2.25z" fill="#FFD8DC"/><path opacity=".4" d="M109.721 53.603c4.579 0 8.291-4.247 8.291-9.486 0-5.239-3.712-9.486-8.291-9.486-4.578 0-8.29 4.247-8.29 9.486 0 5.239 3.712 9.486 8.29 9.486z" fill="#fff"/><path d="M107.157 41.505v6.02c0 .168.038.332.11.477a.914.914 0 0 0 .301.351.765.765 0 0 0 .414.135.762.762 0 0 0 .418-.118l4.81-3.01a.9.9 0 0 0 .32-.354c.077-.148.117-.318.117-.49 0-.173-.04-.342-.117-.49a.9.9 0 0 0-.32-.354l-4.81-3.01a.762.762 0 0 0-.418-.118.767.767 0 0 0-.414.134.917.917 0 0 0-.301.351c-.072.145-.11.31-.11.476z" fill="#fff"/><path d="M133.418 17.139h20.678" stroke="#fff" stroke-width="7" stroke-miterlimit="10" stroke-linecap="round"/><path opacity=".4" d="M133.418 28.18h42.733" stroke="#fff" stroke-width="7" stroke-miterlimit="10" stroke-linecap="round"/><path d="M133.673 42.816h20.678" stroke="#fff" stroke-width="7" stroke-miterlimit="10" stroke-linecap="round"/><path opacity=".4" d="M133.673 53.857h42.733" stroke="#fff" stroke-width="7" stroke-miterlimit="10" stroke-linecap="round"/><path d="M141.168 67.84a1.637 1.637 0 0 0-1.188-.532c-.441 0-.865.19-1.189.532l-.448.473-.448-.473a1.637 1.637 0 0 0-1.188-.532c-.441 0-.865.19-1.189.532-.17.177-.307.393-.401.634a2.131 2.131 0 0 0 0 1.53c.094.242.231.458.401.635l2.825 2.995 2.825-2.956c.179-.176.321-.394.42-.638a2.105 2.105 0 0 0 0-1.561 1.877 1.877 0 0 0-.42-.639z" fill="#F4608A"/><path d="M144.322 69.69c.024-.364.147-.648.368-.853.221-.205.507-.308.859-.308.234 0 .436.05.605.148a.93.93 0 0 1 .388.391c.09.166.134.353.134.562 0 .245-.062.456-.186.634a.81.81 0 0 1-.476.343v.03a.947.947 0 0 1 .533.373c.131.185.196.428.196.728 0 .224-.044.428-.134.61a.992.992 0 0 1-.403.42c-.18.102-.395.153-.647.153-.366 0-.666-.108-.9-.325-.235-.221-.366-.533-.393-.935h.455c.024.237.108.43.253.58.145.15.338.225.58.225.241 0 .424-.072.548-.213a.823.823 0 0 0 .192-.563c0-.296-.087-.509-.259-.639-.173-.13-.433-.195-.781-.195h-.119v-.45h.124c.317-.004.557-.063.719-.178.162-.118.243-.3.243-.544a.696.696 0 0 0-.181-.503c-.117-.127-.286-.19-.507-.19a.713.713 0 0 0-.517.19.806.806 0 0 0-.233.508h-.461zm3.621 2.456-.579 1.592h-.316l.378-1.592h.517zm2.847-3.066h-1.816v1.35a.861.861 0 0 1 .352-.308c.155-.083.322-.125.501-.125.287 0 .52.07.699.207.179.135.307.31.383.528.079.212.119.44.119.68 0 .284-.047.539-.14.764a1.16 1.16 0 0 1-.429.532c-.19.13-.426.196-.709.196-.362 0-.656-.107-.88-.32-.224-.213-.36-.497-.408-.852h.46c.045.225.14.4.285.527.145.126.327.189.548.189.273 0 .478-.093.616-.278.138-.19.207-.438.207-.746s-.069-.545-.207-.71c-.138-.17-.342-.255-.611-.255a.783.783 0 0 0-.481.154.845.845 0 0 0-.295.408h-.445v-2.415h2.251v.474zm.806 3.38c.438-.403.781-.732 1.03-.989.248-.26.457-.53.626-.81.172-.285.259-.563.259-.835 0-.257-.056-.458-.166-.604-.107-.15-.281-.225-.523-.225a.654.654 0 0 0-.548.254c-.128.166-.197.39-.207.67h-.455c.014-.443.131-.784.352-1.025.22-.24.505-.36.853-.36.356 0 .637.112.844.337.21.225.315.534.315.929 0 .327-.086.647-.259.959-.169.308-.362.58-.579.817-.217.233-.495.505-.833.816h1.78v.45h-2.489v-.384zm5.335-3.427-1.438 3.859h-.476l1.459-3.806h-1.997v-.462h2.452v.409zM169.605 69.956c0-1.816-1.881-3.288-4.2-3.288-2.32 0-4.2 1.472-4.2 3.288 0 1.816 1.88 3.288 4.2 3.288.166 0 .328-.01.489-.026a.142.142 0 0 1 .073.012c.023.01.044.026.061.047.298.357.952.91 2.191.997a.149.149 0 0 0 .089-.021.18.18 0 0 0 .067-.072.218.218 0 0 0-.002-.202 4.942 4.942 0 0 1-.502-1.198.21.21 0 0 1 .01-.126.177.177 0 0 1 .077-.092c1-.6 1.647-1.544 1.647-2.607z" fill="#1C85E8"/><path d="M78.584 0h-36.47c-2.78 0-5.034 2.579-5.034 5.76v57.548c0 3.181 2.254 5.76 5.034 5.76h36.47c2.78 0 5.035-2.579 5.035-5.76V5.76c0-3.181-2.254-5.76-5.035-5.76z" fill="#F40638"/><path d="m58.434 42.16-1.365 3.88h-.452l1.385-3.827h-1.896v-.465h2.328v.411zm1.144 1.642a.952.952 0 0 1-.423-.381 1.175 1.175 0 0 1-.147-.607c0-.214.044-.407.133-.577a.969.969 0 0 1 .392-.411c.177-.103.39-.155.639-.155s.46.052.633.155c.177.099.31.236.398.41.092.171.138.364.138.578 0 .23-.051.432-.153.607a.944.944 0 0 1-.417.38.938.938 0 0 1 .481.4c.121.186.182.412.182.678 0 .258-.052.484-.157.679-.105.19-.254.339-.447.446-.19.103-.41.155-.658.155-.249 0-.468-.052-.658-.155a1.136 1.136 0 0 1-.437-.446 1.407 1.407 0 0 1-.157-.679c0-.266.058-.494.176-.684a.907.907 0 0 1 .482-.393zm1.33-.923c0-.242-.065-.428-.196-.56-.13-.13-.31-.196-.54-.196-.226 0-.404.066-.535.197-.131.13-.197.32-.197.565 0 .223.067.401.202.536a.726.726 0 0 0 .53.202c.22 0 .396-.067.53-.202a.737.737 0 0 0 .207-.542zm-.736 1.161c-.242 0-.44.07-.594.208-.154.135-.231.34-.231.613 0 .254.073.459.22.614.151.154.353.231.605.231s.452-.077.6-.232c.146-.154.22-.359.22-.613 0-.265-.075-.468-.226-.607-.15-.143-.349-.214-.594-.214zm1.757-1.333c0-.27.067-.484.202-.643a.639.639 0 0 1 .515-.244c.21 0 .382.081.516.244.134.159.201.373.201.643 0 .273-.067.492-.201.654a.645.645 0 0 1-.516.239.645.645 0 0 1-.515-.239c-.135-.162-.202-.38-.202-.654zm2.868-.822-1.989 4.155h-.442l1.99-4.155h.441zm-2.15.268c-.112 0-.2.048-.266.143-.062.091-.093.228-.093.41 0 .183.03.322.093.417a.306.306 0 0 0 .265.143c.112 0 .2-.047.266-.143.065-.099.098-.238.098-.416 0-.183-.033-.32-.098-.411a.307.307 0 0 0-.266-.143zm1.163 3.065c0-.273.067-.49.202-.648a.639.639 0 0 1 .515-.245c.21 0 .38.082.511.245.134.158.202.375.202.648 0 .27-.068.486-.202.65a.625.625 0 0 1-.51.243.645.645 0 0 1-.516-.238c-.135-.163-.202-.38-.202-.655zm.712-.553c-.11 0-.2.047-.265.143-.065.091-.098.228-.098.41 0 .179.033.316.098.411a.31.31 0 0 0 .265.137.31.31 0 0 0 .266-.137c.065-.095.098-.232.098-.41 0-.183-.033-.32-.098-.411a.306.306 0 0 0-.266-.143z" fill="#fff"/><path d="M60.35 59.77c7.811 0 14.143-7.246 14.143-16.184S68.162 27.403 60.35 27.403c-7.811 0-14.144 7.245-14.144 16.183 0 8.938 6.333 16.183 14.144 16.183z" stroke="#fff" stroke-width="13" stroke-miterlimit="10" stroke-linecap="round"/><path d="M74.493 43.585c-.004 4.29-1.496 8.4-4.149 11.43-2.651 3.031-6.247 4.733-9.995 4.733-3.748 0-7.343-1.702-9.995-4.732-2.652-3.03-4.144-7.142-4.149-11.43" stroke="#EF7693" stroke-width="13" stroke-linecap="round" stroke-linejoin="round"/><path d="M60.35 27.403c1.857 0 3.696.418 5.412 1.231 1.716.814 3.275 2.006 4.588 3.508a16.506 16.506 0 0 1 3.067 5.25 18.226 18.226 0 0 1 1.076 6.194" stroke="#FEBB94" stroke-width="13" stroke-linecap="round" stroke-linejoin="round"/><path d="M43.817 10.676h9.401" stroke="#fff" stroke-width="4" stroke-miterlimit="10" stroke-linecap="round"/><path opacity=".4" d="M43.817 15.696h19.429" stroke="#fff" stroke-width="4" stroke-miterlimit="10" stroke-linecap="round"/><path d="M249.369 228.023H41.52V234h207.849v-5.977z" fill="#9D0D30"/><path d="M43.148 77.015c.477 0 .863-.442.863-.987 0-.546-.386-.988-.863-.988s-.863.442-.863.988c0 .545.387.987.863.987z" fill="#5661AE"/><defs><linearGradient id="a" x1="120.382" y1="-3.785" x2="148.378" y2="345.868" gradientUnits="userSpaceOnUse"><stop stop-color="#fff"/><stop offset="1" stop-color="#E51A4B"/></linearGradient><linearGradient id="b" x1="129.86" y1="-27.108" x2="152.111" y2="181.883" gradientUnits="userSpaceOnUse"><stop stop-color="#fff"/><stop offset="1" stop-color="#E51A4B"/></linearGradient></defs></svg>