<?xml version="1.0" encoding="UTF-8"?> <svg xmlns="http://www.w3.org/2000/svg" viewBox="0 0 19 21.33"> <defs> <style>.cls-1,.cls-4{fill:#fff;}.cls-1,.cls-5{stroke:#767278;stroke-width:0.5px;}.cls-1,.cls-5,.cls-6,.cls-7{stroke-miterlimit:10;}.cls-1,.cls-2,.cls-3,.cls-4,.cls-5,.cls-6{fill-rule:evenodd;}.cls-2{fill:#ed1c24;}.cls-3{fill:#00aeef;}.cls-5{fill:none;}.cls-6{fill:#41b54a;stroke:#00a651;stroke-width:0.22px;}.cls-7{fill:#00a651;stroke:#41b54a;stroke-width:1px;}.cls-8{fill:#231f20;}</style> </defs> <title>Asset 6</title> <g id="Layer_2" data-name="Layer 2"> <g id="objects"> <polygon class="cls-1" points="18.44 4.62 9.35 6.49 9.35 20.92 18.44 18.13 18.44 4.62"></polygon> <polygon class="cls-1" points="17.52 3.87 9.35 6.49 9.35 20.92 17.52 17.38 17.52 3.87"></polygon> <polygon class="cls-2" points="9.35 16.11 16.46 12.29 16.46 17.1 9.35 20.92 9.35 16.11"></polygon> <polygon class="cls-3" points="9.35 11.3 16.46 7.48 16.46 12.29 9.35 16.11 9.35 11.3"></polygon> <polygon class="cls-4" points="9.35 6.49 16.46 2.96 16.46 7.48 9.35 11.3 9.35 6.49"></polygon> <polygon class="cls-1" points="0.25 4.62 9.35 6.49 9.35 20.92 0.25 18.13 0.25 4.62"></polygon> <polygon class="cls-1" points="1.17 3.87 9.35 6.49 9.35 20.92 1.17 17.38 1.17 3.87"></polygon> <polygon class="cls-1" points="2.23 2.96 9.35 6.49 9.35 20.92 2.23 17.09 2.23 2.96"></polygon> <polygon class="cls-5" points="16.46 2.96 9.35 6.49 9.35 20.92 16.46 17.09 16.46 2.96"></polygon> <path class="cls-6" d="M9.35,9.09C7,6.34,7.2,3.06,9.35.18,11.49,3.06,11.7,6.34,9.35,9.09Z"></path> <path class="cls-6" d="M9.35,12.69c2.8-.28,4.49-3.24,4.89-6.8C11.05,7.2,9.32,9.52,9.35,12.69Z"></path> <path class="cls-6" d="M9.35,18.83c2.8-.27,4.49-3.24,4.89-6.79C11.05,13.34,9.32,15.66,9.35,18.83Z"></path> <path class="cls-6" d="M9.35,12.69c-2.81-.28-4.5-3.24-4.9-6.8C7.64,7.2,9.37,9.52,9.35,12.69Z"></path> <path class="cls-6" d="M9.35,18.83c-2.81-.27-4.5-3.24-4.9-6.79C7.64,13.34,9.37,15.66,9.35,18.83Z"></path> <line class="cls-7" x1="9.35" y1="20.92" x2="9.35" y2="7.58"></line> <path class="cls-8" d="M25,4a1.4,1.4,0,0,1,1,.44,1.46,1.46,0,0,1,.44,1.07,1.5,1.5,0,0,1-.43,1.07A1.43,1.43,0,0,1,25,7,1.45,1.45,0,0,1,24,6.55a1.53,1.53,0,0,1-.43-1.07,1.5,1.5,0,0,1,.2-.75,1.53,1.53,0,0,1,.55-.55A1.41,1.41,0,0,1,25,4Zm0,.53a.88.88,0,0,0-.67.28.93.93,0,0,0-.28.7.94.94,0,0,0,1,1,.87.87,0,0,0,.66-.28,1,1,0,0,0,0-1.38A.92.92,0,0,0,25,4.51Z"></path> <path class="cls-8" d="M29,3.93v.5l-.44,0a5.81,5.81,0,0,0-.59,0,.68.68,0,0,0-.35.14.74.74,0,0,0-.22.25,1.32,1.32,0,0,0-.07.41.81.81,0,0,1,.79-.55,1,1,0,0,1,.72.3,1.06,1.06,0,0,1,.3.78,1.11,1.11,0,0,1-.33.82A1.06,1.06,0,0,1,28,7,1.11,1.11,0,0,1,27,6.17a2.63,2.63,0,0,1-.09-.7A2.13,2.13,0,0,1,27,4.69a1,1,0,0,1,.32-.45,1,1,0,0,1,.45-.2A4.13,4.13,0,0,1,28.51,4Zm-.4,1.93a.6.6,0,0,0-.16-.44.58.58,0,0,0-.84,0,.61.61,0,0,0-.16.44.64.64,0,0,0,.16.45.57.57,0,0,0,.42.17.57.57,0,0,0,.41-.17A.64.64,0,0,0,28.61,5.86Z"></path> <path class="cls-8" d="M32.65,6.41h.54v.88h-.51V6.92h-3.1V4.8h.54V6.41h.73V4.8h.53V6.41h.74V4.8h.53Z"></path> <path class="cls-8" d="M35.61,6H33.9a.59.59,0,0,0,.2.36.62.62,0,0,0,.41.14A.69.69,0,0,0,35,6.3l.45.21a1,1,0,0,1-.4.35,1.22,1.22,0,0,1-.56.12,1.1,1.1,0,0,1-.81-.32,1.07,1.07,0,0,1-.32-.79,1.13,1.13,0,0,1,.32-.81,1.06,1.06,0,0,1,.78-.32,1.11,1.11,0,0,1,.82.32,1.18,1.18,0,0,1,.32.85Zm-.53-.42a.55.55,0,0,0-.21-.29.61.61,0,0,0-.36-.11.59.59,0,0,0-.39.13.68.68,0,0,0-.2.27Z"></path> <path class="cls-8" d="M36.57,4.8V5a1,1,0,0,1,.32-.22,1,1,0,0,1,.36-.07.92.92,0,0,1,.7.32,1.1,1.1,0,0,1,.29.8,1.14,1.14,0,0,1-.3.8.92.92,0,0,1-1,.25,1,1,0,0,1-.32-.21v1H36V4.8Zm.56.43a.54.54,0,0,0-.41.18.6.6,0,0,0-.17.44.64.64,0,0,0,.17.46.54.54,0,0,0,.41.18.56.56,0,0,0,.42-.18.64.64,0,0,0,.16-.45.61.61,0,0,0-.16-.45A.54.54,0,0,0,37.13,5.23Z"></path> <path class="cls-8" d="M39.68,4.74a1.16,1.16,0,0,1,.57.15,1.08,1.08,0,0,1,.41.41,1.09,1.09,0,0,1,.15.56,1.12,1.12,0,0,1-.15.56,1.08,1.08,0,0,1-.41.41,1.09,1.09,0,0,1-.56.15,1,1,0,0,1-.78-.33,1.07,1.07,0,0,1-.33-.79A1.06,1.06,0,0,1,39,5,1.07,1.07,0,0,1,39.68,4.74Zm0,.5a.54.54,0,0,0-.41.18.6.6,0,0,0-.17.44.64.64,0,0,0,.17.45.55.55,0,0,0,.41.17.57.57,0,0,0,.42-.17.71.71,0,0,0,0-.9A.57.57,0,0,0,39.69,5.24Z"></path> <path class="cls-8" d="M43.33,5.23l-.45.24a.59.59,0,0,0-.25-.18.61.61,0,0,0-.28,0,.69.69,0,0,0-.49.18.65.65,0,0,0,0,.9.73.73,0,0,0,1-.08l.42.29a1.14,1.14,0,0,1-1,.45,1.12,1.12,0,0,1-.88-.34,1.09,1.09,0,0,1-.32-.77,1,1,0,0,1,.16-.57,1.06,1.06,0,0,1,.43-.41,1.26,1.26,0,0,1,.62-.15,1.13,1.13,0,0,1,.56.13A1,1,0,0,1,43.33,5.23Z"></path> <path class="cls-8" d="M45.89,5.23l-.45.24a.63.63,0,0,0-.24-.18.68.68,0,0,0-.29,0,.69.69,0,0,0-.49.18.65.65,0,0,0,0,.9.73.73,0,0,0,1-.08l.42.29A1.28,1.28,0,0,1,44,6.64a1.09,1.09,0,0,1-.32-.77,1,1,0,0,1,.16-.57,1.06,1.06,0,0,1,.43-.41,1.26,1.26,0,0,1,.62-.15,1.13,1.13,0,0,1,.56.13A1,1,0,0,1,45.89,5.23Z"></path> <path class="cls-8" d="M46.65,6.92h-.28V4.8h.51V6L48,4.8h.26V6.92h-.52V5.7Z"></path> <path class="cls-8" d="M49.05,6.92h-.28V4.8h.51V6L50.37,4.8h.26V6.92h-.52V5.7Zm-.13-3.06h.43a.33.33,0,0,0,.14.12.48.48,0,0,0,.22,0A.6.6,0,0,0,50,4a.25.25,0,0,0,.12-.11h.44a.64.64,0,0,1-.24.4.91.91,0,0,1-.56.15,1,1,0,0,1-.41-.07A.63.63,0,0,1,49,4.15.53.53,0,0,1,48.92,3.86Z"></path> <path class="cls-8" d="M53.25,5.23l-.45.24a.63.63,0,0,0-.24-.18.68.68,0,0,0-.29,0,.65.65,0,0,0-.48.18.58.58,0,0,0-.19.45.61.61,0,0,0,.18.45.66.66,0,0,0,.47.17.64.64,0,0,0,.55-.25l.42.29a1.12,1.12,0,0,1-1,.45,1.14,1.14,0,0,1-.88-.34,1.09,1.09,0,0,1-.32-.77,1.11,1.11,0,0,1,.16-.57,1.13,1.13,0,0,1,.43-.41,1.26,1.26,0,0,1,.62-.15,1.2,1.2,0,0,1,.57.13A1.08,1.08,0,0,1,53.25,5.23Z"></path> <path class="cls-8" d="M53.73,4.8h.53v.79L55,4.8h.65l-.95,1,1,1.09H55l-.63-.75-.06.07v.68h-.53Z"></path> <path class="cls-8" d="M56.16,6.92h-.29V4.8h.52V6L57.48,4.8h.26V6.92h-.52V5.7Z"></path> <path class="cls-8" d="M58.56,6.92h-.28V4.8h.51V6L59.88,4.8h.26V6.92h-.52V5.7Zm-.13-3.06h.43A.33.33,0,0,0,59,4a.48.48,0,0,0,.22,0,.6.6,0,0,0,.24,0,.25.25,0,0,0,.12-.11H60a.64.64,0,0,1-.24.4.93.93,0,0,1-.56.15,1,1,0,0,1-.41-.07.63.63,0,0,1-.26-.19A.53.53,0,0,1,58.43,3.86Z"></path> <path class="cls-8" d="M24.15,11.72h-.53V9.6h1.86v2.12H25V10.11h-.8Z"></path> <path class="cls-8" d="M26.55,9.6v.23a.93.93,0,0,1,.31-.22,1,1,0,0,1,.36-.07.94.94,0,0,1,.71.32,1.23,1.23,0,0,1,0,1.6,1,1,0,0,1-.72.32,1,1,0,0,1-.34-.07,1.13,1.13,0,0,1-.31-.21v1H26V9.6Zm.56.43a.54.54,0,0,0-.42.18.6.6,0,0,0-.17.44.64.64,0,0,0,.17.46.54.54,0,0,0,.42.18.54.54,0,0,0,.41-.18.64.64,0,0,0,.17-.45.61.61,0,0,0-.17-.45A.54.54,0,0,0,27.11,10Z"></path> <path class="cls-8" d="M29.66,9.54a1.09,1.09,0,0,1,.56.15,1,1,0,0,1,.41.41,1.09,1.09,0,0,1,.15.56,1.11,1.11,0,0,1-1.12,1.12,1,1,0,0,1-.78-.33,1.07,1.07,0,0,1-.33-.79,1.09,1.09,0,0,1,.37-.83A1.08,1.08,0,0,1,29.66,9.54Zm0,.5a.54.54,0,0,0-.41.18.6.6,0,0,0-.16.44.64.64,0,0,0,.16.45.57.57,0,0,0,.41.17.57.57,0,0,0,.42-.17.68.68,0,0,0,0-.9A.57.57,0,0,0,29.66,10Z"></path> <path class="cls-8" d="M32.7,11.54a.92.92,0,0,1-.61.24.87.87,0,0,1-.69-.32,1.09,1.09,0,0,1-.3-.79,1.16,1.16,0,0,1,.29-.81.89.89,0,0,1,.69-.31.88.88,0,0,1,.62.24v-1h.53v1a.9.9,0,0,1,.62-.25.92.92,0,0,1,.48.14.94.94,0,0,1,.36.38,1.27,1.27,0,0,1,.14.6,1.1,1.1,0,0,1-.3.8.9.9,0,0,1-1.3.08v1H32.7Zm0-.86a.78.78,0,0,0-.07-.34.59.59,0,0,0-.19-.22.5.5,0,0,0-.27-.08.51.51,0,0,0-.41.18.72.72,0,0,0-.14.44.64.64,0,0,0,.16.45.48.48,0,0,0,.39.18.47.47,0,0,0,.37-.16A.61.61,0,0,0,32.72,10.68Zm1.57,0a.68.68,0,0,0-.15-.45.53.53,0,0,0-.4-.17.5.5,0,0,0-.37.16.71.71,0,0,0-.15.48.64.64,0,0,0,.15.45.47.47,0,0,0,.37.16.52.52,0,0,0,.4-.18A.68.68,0,0,0,34.29,10.66Z"></path> <path class="cls-8" d="M37.33,10l-.44.24a.74.74,0,0,0-.25-.18.77.77,0,0,0-.77.13.58.58,0,0,0-.19.45.61.61,0,0,0,.18.45.74.74,0,0,0,1-.08l.42.29a1.29,1.29,0,0,1-1.85.11,1.08,1.08,0,0,1-.31-.77,1.1,1.1,0,0,1,.15-.57,1.13,1.13,0,0,1,.43-.41,1.29,1.29,0,0,1,.62-.15,1.2,1.2,0,0,1,.57.13A1,1,0,0,1,37.33,10Z"></path> <path class="cls-8" d="M38.81,9.54a1.12,1.12,0,0,1,1.13,1.12,1.12,1.12,0,0,1-.15.56,1.15,1.15,0,0,1-.41.41,1.1,1.1,0,0,1-.57.15,1.11,1.11,0,0,1-1.1-1.12,1.08,1.08,0,0,1,.36-.83A1.1,1.1,0,0,1,38.81,9.54Zm0,.5a.54.54,0,0,0-.42.18.6.6,0,0,0-.16.44.64.64,0,0,0,.16.45.57.57,0,0,0,.42.17.57.57,0,0,0,.41-.17.68.68,0,0,0,0-.9A.53.53,0,0,0,38.82,10Z"></path> <path class="cls-8" d="M40.9,11.72h-.53V9.6h.53v.84h.29a1.09,1.09,0,0,1,.41-.66,1.06,1.06,0,0,1,.67-.24,1.12,1.12,0,0,1,.8,1.91,1.06,1.06,0,0,1-.8.33,1.08,1.08,0,0,1-.69-.25,1,1,0,0,1-.39-.6H40.9Zm2-1.06a.64.64,0,0,0-.17-.45.56.56,0,0,0-.42-.17.54.54,0,0,0-.41.18.61.61,0,0,0-.16.44.64.64,0,0,0,.16.45.57.57,0,0,0,.41.17.57.57,0,0,0,.42-.17A.64.64,0,0,0,42.86,10.66Z"></path> <path class="cls-8" d="M44.19,10.82v-.38h.1a.38.38,0,0,0,.19,0,.2.2,0,0,0,.08-.17.26.26,0,0,0-.07-.16.28.28,0,0,0-.18-.06.64.64,0,0,0-.33.13l-.21-.37a1,1,0,0,1,.62-.22.8.8,0,0,1,.51.16.52.52,0,0,1-.09.89.52.52,0,0,1,.39.53.59.59,0,0,1-.22.47,1,1,0,0,1-.61.19,1.09,1.09,0,0,1-.72-.25l.3-.37a.57.57,0,0,0,.36.14.38.38,0,0,0,.22-.06.23.23,0,0,0,.08-.17.25.25,0,0,0-.08-.18.28.28,0,0,0-.21-.07Z"></path> <path class="cls-8" d="M24.62,14.34a1.12,1.12,0,0,1,.56.15,1.08,1.08,0,0,1,.41.41,1.09,1.09,0,0,1,.15.56,1.14,1.14,0,0,1-.55,1,1.16,1.16,0,0,1-.57.15,1,1,0,0,1-.78-.33,1.07,1.07,0,0,1-.33-.79,1.09,1.09,0,0,1,.37-.83A1.08,1.08,0,0,1,24.62,14.34Zm0,.5a.54.54,0,0,0-.41.18.6.6,0,0,0-.17.44.64.64,0,0,0,.17.45.55.55,0,0,0,.41.17.57.57,0,0,0,.42-.17.71.71,0,0,0,0-.9A.57.57,0,0,0,24.62,14.84Z"></path> <path class="cls-8" d="M28.21,13.53V14l-.44,0a4,4,0,0,0-.59,0,.72.72,0,0,0-.35.14.56.56,0,0,0-.21.25,1.06,1.06,0,0,0-.08.41.81.81,0,0,1,.79-.55,1,1,0,0,1,.72.3,1.06,1.06,0,0,1,.3.78,1.11,1.11,0,0,1-.33.82,1.06,1.06,0,0,1-.8.33,1,1,0,0,1-.68-.24,1,1,0,0,1-.38-.57,2.63,2.63,0,0,1-.09-.7,2.13,2.13,0,0,1,.12-.78,1,1,0,0,1,.32-.45,1,1,0,0,1,.45-.2,4.13,4.13,0,0,1,.75-.07Zm-.4,1.93a.6.6,0,0,0-.16-.44.53.53,0,0,0-.42-.18.54.54,0,0,0-.42.18.61.61,0,0,0-.16.44.64.64,0,0,0,.16.45.57.57,0,0,0,.42.17.57.57,0,0,0,.41-.17A.6.6,0,0,0,27.81,15.46Z"></path> <path class="cls-8" d="M29.31,14.4v.23a1,1,0,0,1,.32-.22,1,1,0,0,1,.36-.07.92.92,0,0,1,.7.32,1.1,1.1,0,0,1,.29.8,1.14,1.14,0,0,1-.3.8.92.92,0,0,1-1.05.25,1.17,1.17,0,0,1-.32-.21v1h-.53V14.4Zm.56.43a.54.54,0,0,0-.41.18.6.6,0,0,0-.17.44.64.64,0,0,0,.17.46.54.54,0,0,0,.41.18.56.56,0,0,0,.42-.18.64.64,0,0,0,.16-.45.61.61,0,0,0-.16-.45A.54.54,0,0,0,29.87,14.83Z"></path> <path class="cls-8" d="M33,14.4h.54v2.12H33V16.3a1,1,0,0,1-.31.21.94.94,0,0,1-.34.07,1,1,0,0,1-.71-.32,1.14,1.14,0,0,1-.3-.8,1.1,1.1,0,0,1,.29-.8.93.93,0,0,1,.71-.32,1,1,0,0,1,.35.07.84.84,0,0,1,.31.22Zm-.56.43A.54.54,0,0,0,32,15a.7.7,0,0,0,0,.9.52.52,0,0,0,.41.18.54.54,0,0,0,.41-.18.64.64,0,0,0,.17-.46.6.6,0,0,0-.17-.44A.54.54,0,0,0,32.43,14.83Z"></path> <path class="cls-8" d="M34.42,15.62v-.38h.11a.35.35,0,0,0,.18-.05.18.18,0,0,0,.08-.17.21.21,0,0,0-.07-.16.24.24,0,0,0-.17-.06.61.61,0,0,0-.33.13L34,14.56a.94.94,0,0,1,.61-.22.81.81,0,0,1,.52.16.54.54,0,0,1,.2.44.52.52,0,0,1-.3.45.52.52,0,0,1,.4.53.59.59,0,0,1-.22.47,1,1,0,0,1-.62.19,1.08,1.08,0,0,1-.71-.25l.29-.37a.59.59,0,0,0,.36.14.34.34,0,0,0,.22-.06.23.23,0,0,0,.08-.17.24.24,0,0,0-.07-.18.28.28,0,0,0-.21-.07Z"></path> <path class="cls-8" d="M36.87,14.34a1.12,1.12,0,0,1,.56.15,1.08,1.08,0,0,1,.41.41,1.09,1.09,0,0,1,.15.56,1.14,1.14,0,0,1-.55,1,1.16,1.16,0,0,1-.57.15,1,1,0,0,1-.78-.33,1.07,1.07,0,0,1-.33-.79,1.09,1.09,0,0,1,.37-.83A1.08,1.08,0,0,1,36.87,14.34Zm0,.5a.54.54,0,0,0-.41.18.6.6,0,0,0-.17.44.64.64,0,0,0,.17.45.55.55,0,0,0,.41.17.57.57,0,0,0,.42-.17.71.71,0,0,0,0-.9A.57.57,0,0,0,36.87,14.84Z"></path> <path class="cls-8" d="M38.43,16.52V14.4h.85a.76.76,0,0,1,.57.16.55.55,0,0,1,.15.37.46.46,0,0,1-.31.45.58.58,0,0,1,.31.91.49.49,0,0,1-.28.18,1.52,1.52,0,0,1-.48.05ZM39,15.23h.21a.32.32,0,0,0,.2-.06.21.21,0,0,0,.07-.15.21.21,0,0,0-.07-.18.2.2,0,0,0-.16-.07H39Zm0,.88h.27a.28.28,0,0,0,.22-.07.24.24,0,0,0,.06-.15.28.28,0,0,0-.07-.19.35.35,0,0,0-.26-.08H39Z"></path> <path class="cls-8" d="M42.14,14.4h.53v2.12h-.53V16.3a1.17,1.17,0,0,1-.32.21.89.89,0,0,1-.34.07,1,1,0,0,1-.71-.32,1.23,1.23,0,0,1,0-1.6.93.93,0,0,1,.71-.32,1.1,1.1,0,0,1,.36.07,1,1,0,0,1,.31.22Zm-.56.43a.51.51,0,0,0-.41.18.61.61,0,0,0-.17.45.64.64,0,0,0,.17.45.54.54,0,0,0,.41.18.52.52,0,0,0,.41-.18.64.64,0,0,0,.17-.46A.6.6,0,0,0,42,15,.54.54,0,0,0,41.58,14.83Z"></path> <path class="cls-8" d="M43.74,15.16h.8V14.4h.53v2.12h-.53v-.88h-.8v.88h-.53V14.4h.53Z"></path> <path class="cls-8" d="M45.89,16.52h-.28V14.4h.52v1.24l1.08-1.24h.26v2.12H47V15.3Z"></path> <path class="cls-8" d="M48.37,15.65a.54.54,0,0,1-.28-.22.61.61,0,0,1-.11-.35.65.65,0,0,1,.13-.41.59.59,0,0,1,.32-.23,2.88,2.88,0,0,1,.59,0h.54v2.12H49v-.77h-.1l-.51.77h-.63Zm.65-.3v-.51h-.18c-.21,0-.31.09-.31.25s.12.26.34.26Z"></path> </g> </g> </svg> 