<svg xmlns="http://www.w3.org/2000/svg" width="176" height="44" viewBox="0 0 176 44" fill="none"><path fill-rule="evenodd" clip-rule="evenodd" d="M45.8073 18.3817C45.8073 19.5397 47.1661 19.8409 49.3281 20.0417C54.1074 20.4946 56.8251 21.9539 56.8461 25.3743C56.8461 28.7457 54.2802 30.9568 48.9989 30.9568C44.773 30.9568 42.1067 29.1496 41 26.5814L44.4695 24.5688C45.3754 25.9277 46.5334 27.0343 49.4005 27.0343C51.3127 27.0343 52.319 26.4296 52.319 25.5751C52.319 24.5665 51.6139 24.2163 48.3942 23.866C43.7037 23.3617 41.3899 22.0029 41.3899 18.5824C41.3899 15.9675 43.3511 13 48.9359 13C52.9611 13 55.6274 14.8095 56.4305 17.1746L53.1105 19.1358C53.0877 19.1012 53.0646 19.0657 53.041 19.0295C52.4828 18.1733 51.6672 16.9224 48.6744 16.9224C46.914 16.9224 45.8073 17.4758 45.8073 18.3817ZM67.4834 13.3526H59.5918V30.707H64.0279V26.0794H67.4484C72.1179 26.0794 75.0948 24.319 75.0948 19.6401C75.0854 15.3138 72.6199 13.3526 67.4834 13.3526ZM67.4834 22.206H64.0186V17.226H67.4834C69.8975 17.226 70.654 18.0291 70.654 19.6891C70.6587 21.6527 69.6524 22.206 67.4834 22.206ZM88.6994 24.7206C88.6994 26.2289 87.4924 27.0857 85.3794 27.0857C83.3178 27.0857 82.1597 26.2289 82.1597 24.7206V13.3526H77.7236V25.0264C77.7236 28.6477 80.7425 30.9615 85.4704 30.9615C89.9999 30.9615 93.1168 28.8601 93.1168 25.0264V13.3526H88.6808L88.6994 24.7206ZM136.583 13.3526H132.159V30.7023H136.583V13.3526ZM156.097 13.3526L149.215 21.9235L156.45 30.707H151.066L144.276 22.4559V30.707H139.85V13.3526H144.276V21.8021L151.066 13.3526H156.097ZM95.6874 17.226H101.221V30.707H105.648V17.226H111.181V13.3526H95.6874V17.226ZM113.49 18.7342C113.49 15.2134 116.458 13 121.085 13C125.715 13 128.888 15.0616 128.902 18.7342V30.707H124.466V18.935C124.466 17.6789 123.259 16.8734 121.146 16.8734C119.094 16.8734 117.926 17.6789 117.926 18.935V30.707H113.49V18.7342Z" fill="#000000"></path><path d="M41 7L14.8979 36.5862L8 18.431L41 7Z" fill="#F8961D"></path></svg>