<svg xmlns="http://www.w3.org/2000/svg" width="180" height="60" viewBox="30 30 420 90"><g data-name="лого"><clipPath id="a"><path transform="matrix(1 0 0 -1 0 140.444)" d="M0 140.444h469.159V0H0z"/></clipPath><g clip-path="url(#a)"><path d="M74.036 71.972a17.35 17.35 0 0 1-1.069-.528l.556-.353.905.617zm-1.983 1.343-1.118-.763c.392-.184.763-.378 1.118-.57.357.192.73.386 1.126.57zm2.313 2.922-2.313 1.598-2.305-1.598 2.305-1.564zm-4.68-4.529.901-.617c.174.112.358.23.555.353-.353.19-.707.367-1.064.528zm2.367-1.626.65.443c-.203.132-.425.264-.65.401-.222-.137-.439-.269-.647-.4zm8.568-2.342c-.02-.024-.49-.51-1.315-.51-.429 0-.877.138-1.325.397a.213.213 0 0 0-.113.221c.005.024.325 2.23.08 3.176-.183.713-.787 1.547-1.886 1.547-.235 0-.475-.038-.729-.109 0 0-.01 0-.01-.005l.83-.56a.22.22 0 0 0 .1-.184.221.221 0 0 0-.1-.184l-1.645-1.13c.518-.392.848-.67.89-.708a.216.216 0 0 0 .08-.16.219.219 0 0 0-.07-.165l-.293-.297a.23.23 0 0 0-.154-.066c-.048 0-.1.02-.138.047-.018.01-.453.344-1.112.801l-.659-.457 2.583-1.776.202.513c.033.08.103.136.198.141h.01a.22.22 0 0 0 .192-.117l1.231-2.263a.224.224 0 0 0-.199-.33h-.033l-2.545.382a.214.214 0 0 0-.183.156.248.248 0 0 0 .066.23l.414.364-2.935 2.016-2.928-2.016.411-.364c.061-.06.09-.15.061-.23a.2.2 0 0 0-.179-.156l-2.545-.382h-.033a.213.213 0 0 0-.184.095.233.233 0 0 0-.015.235l1.226 2.263c.043.07.118.117.198.117h.015a.228.228 0 0 0 .193-.14l.202-.514 2.582 1.776-.659.457a24.432 24.432 0 0 1-1.108-.8.25.25 0 0 0-.136-.048.23.23 0 0 0-.16.066l-.298.297a.234.234 0 0 0-.065.164.256.256 0 0 0 .075.161c.047.038.372.316.895.707l-1.649 1.131a.23.23 0 0 0-.095.184.234.234 0 0 0 .1.183l.83.561c0 .005-.006.005-.01.005a2.705 2.705 0 0 1-.726.11c-1.098 0-1.705-.835-1.89-1.548-.245-.947.081-3.152.081-3.176a.212.212 0 0 0-.109-.22c-.452-.26-.9-.398-1.325-.398-.824 0-1.3.486-1.319.51a.18.18 0 0 0-.06.132c-.015.136-.266 3.323 1.21 4.934.546.594 1.258.896 2.121.896.151 0 .315-.005.476-.028.84-.1 1.658-.322 2.45-.604l1.368.924-3.032 2.05a.236.236 0 0 0-.098.188c0 .072.032.142.098.184l3.04 2.102-2.59 1.795-.199-.503a.231.231 0 0 0-.193-.137c-.005-.005-.005-.005-.015-.005a.236.236 0 0 0-.198.118l-1.226 2.267a.226.226 0 0 0 .015.231.212.212 0 0 0 .184.094h.033l2.545-.377a.212.212 0 0 0 .18-.155.232.232 0 0 0-.062-.236l-.42-.372 2.937-2.032 2.94 2.032-.419.372c-.066.061-.09.151-.066.236.023.08.094.141.183.155l2.545.377h.033a.222.222 0 0 0 .184-.094.228.228 0 0 0 .015-.23l-1.23-2.268a.22.22 0 0 0-.194-.118c-.005 0-.009 0-.009.005a.224.224 0 0 0-.198.137l-.202.503-2.588-1.795 3.04-2.102a.224.224 0 0 0 .098-.184.234.234 0 0 0-.099-.188l-3.029-2.05 1.371-.924c.787.282 1.611.504 2.446.604.165.023.325.028.476.028.863 0 1.58-.302 2.121-.896 1.48-1.61 1.224-4.798 1.211-4.934a.235.235 0 0 0-.06-.132" fill="#fff"/><path d="M79.027 84.113c-2.395 4.65-6.782 8.44-6.833 8.384-.053.056-4.44-3.733-6.835-8.384-2.394-4.647-3.93-11.948-4.015-15.435-.085-3.488.6-4.982.6-4.982s2.991-.164 5.386-1c2.031-.701 4.241-2.482 4.864-3.001.616.519 2.832 2.3 4.868 3.002 2.39.835 5.382.999 5.382.999s.684 1.494.594 4.982c-.085 3.487-1.62 10.788-4.01 15.435m.226 15.817c.31.598.49 1.767-.462 1.856-.534-1.395-1.173-2.21-1.966-3.336-.736-.867-1.545-1.763-2.125-2.744 1.301 1.527 3.912 3.05 4.553 4.224m-4.553 7.093c.18-1.368-.175-4.421-.73-6.495-.382-1.395-1.65-5.057-1.085-6.367.221 1.725.911 4.42 1.905 6.63.706 1.589 1.743 5.28-.09 6.232m-4.289-6.495c-.528 2.074-.905 5.127-.726 6.495-1.838-.952-.797-4.643-.09-6.231.991-2.211 1.678-4.906 1.9-6.631.57 1.31-.698 4.972-1.084 6.367m-2.828-2.078c-.82 1.126-1.46 1.94-1.989 3.336-.952-.09-.772-1.258-.462-1.856.641-1.174 3.248-2.697 4.553-4.224-.58.98-1.39 1.862-2.102 2.744m-9.793-15.143c.048.306.09.485.221.688-1.702.264-2.427.928-3.045 2.008-.867 1.456.04 3.336-.207 4.114-.173.486-.744.952-1.65.528.44 1.947 2.871 1.725 3.512.64.217.906 0 1.948-.444 2.343.755.043 1.396-.264 1.791-.862.09.179.09.424.133.64.42-.216.688-.461.862-.683.066.218.151.726.047 1.14-.325.223-.693.425-1.263.717-.909.443-2.559 1.084-3.51 1.216-.778.132-2.126-.311-2.48-1.395-.31-1.037-1.169-1.367-1.857-.73-.174-.132-.659-.222-.862.094 0 0-.217-.49-.486-.731.18-.532.042-1.173-.443-1.39-.042-1.041-.683-1.041-.905-1.395-.13-.221-.13-.49.18-.532-.132-.198-.4-.241-.444-.241.086-.443-.047-.994-.64-1.174l-5.242-10.806c.335-.354.161-.862-.22-1.042v-.085c.032-.085.037-.151.046-.216.142-.024.312-.057.462-.095 1.037-.244 2.654-1.767 4.05-2.72-.492.51-2.523 1.99-3.428 2.852-.843.839-.49 1.678-.353 2.433l.198.419c.768.047 1.918.509 2.78-.2.27-.262 4.05-4.952 4.553-5.413-.193.419-2.582 3.425-3.662 5.15-.8 1.302.373 2.164.51 2.913.857-.263 2.03.246 2.648-.791.6-.995 2.432-4.553 3.115-5.552-.264.777-2.21 4.82-2.342 5.174-.462 1.372.707 1.636 1.173 2.546.707-.51 1.985-.113 2.474-1.42.307-.881 1.084-3.953 1.484-4.773-.045.91-.31 2.125-.489 3.469-.179 1.347 1.083 1.305 1.744 2.083.641-.533 1.814-.401 1.99-1.617.177-1.083.22-3.714.22-3.714.18.156.27.198.467.378.438-.51 1.348-.51 1.654-1.127.136.042.18.132.311.22.994 1.656 1.08 4.86-.31 5.992.4 0 .91-.048 1.215-.18-.617 1.259-1.989 1.702-3.558 1.127m-15.907-11.58c-.23.094-.5.212-.712.302v-.062c.217-.08.486-.16.712-.24m22.67-27.19c2.48-.531 4.995-1.922 6.126-3.09.94.056 2.15.065 3.07.014 1.116 1.178 3.6 2.545 6.078 3.077-1.438 0-3.953-.132-4.265-.485.09.905 2.013 1.927 3.271 2.21-1.042.132-2.008 0-2.832-.372.447.64.951 1.126 1.79 1.414-.88 1.084-2.69 1.786-4.487 1.61.444.534 1.264.864 1.976.774-1.612 2.574-2.81 5.213-3.092 8.272l-.01-.005-.005.01c-.268-3.064-1.456-5.703-3.063-8.277.726.09 1.527-.24 1.942-.773-1.81.175-3.558-.527-4.464-1.611.844-.288 1.348-.773 1.792-1.414-.797.372-1.792.504-2.829.372 1.26-.283 3.205-1.305 3.29-2.21-.33.353-2.846.485-4.288.485m16.534 58.507c.554.952-.218 1.635-1.302 1.635 0-.372 0-.505-.09-.952.505-.047 1.095-.236 1.392-.683M64.6 104.68c-1.083 0-1.856-.683-1.304-1.635.287.429.857.63 1.347.683-.043.447-.043.58-.043.952M39.533 72.387h-.175c-.01-.014-.019-.028-.033-.043.081-.018.166-.018.241-.042-.005.029-.019.057-.033.085m-1.3 2.762-.439-.26c.173-.202.348-.202.523-.09 0 .133 0 .265-.085.35m-.863-1.852c-.042 0-.042.042-.084.085-.269-.043-.269-.354-.222-.618a.392.392 0 0 0 .306-.132l.043.047-.127.085c.042.179.042.354.084.533m73.16-11.585c-.948-.57-2.518-.773-4.109-.617 2.497-.863 4.198-2.72 4.287-4.38-1.3-.371-2.653-.172-3.822.09 1.211-.904 3.201-2.563 2.96-4.995-1.169-.287-3.318.532-4.223.934 2.875-1.617 3.912-5.44 2.39-7.607-.905.532-5.019 4.727-5.684 5.217 2.126-2.432 3.12-4.18 3.695-5.816.684-1.786.726-4.901-1.48-5.943-1.04 2.39-4.689 8.507-6.72 11.052-.223-.198-.4-.467-.689-.51-.485 1.552-1.922 3.607-3.228 4.597-.066-.132-.197-.487-.42-.864-1.39 2.079-4.995 4.93-6.164 6.679-.909 1.3-.909 2.475.353 3.69.51.509 1.48 1.414.641 2.673-1.14 1.668-3.435 1.86-4.685.88 0-.296-.009-.58-.023-.843 1.471-.57 1.815-2.573.731-3.817a1.975 1.975 0 0 1-1.103.956c-.127-.518-.24-.772-.25-.796l-.057-.123-.128-.004c-.013-.005-.494-.03-1.214-.113.815-.27 1.337-1.023 1.224-2.041-1.258 1.084-2.52.047-2.808-.24-.792-.93-1.013-1.97-.703-3.563.264-1.391 1.702-3.601 2.65-4.308.136.13.353.396.814.354.27-.085.712-.312 1.042-.444a3.071 3.071 0 0 1 2.48.312c1.078.659.99 1.389.951 1.922 1.65-.928 1.08-2.474-1.084-3.05 1.48 0 2.696 1.348 3.002 1.523.82.599 1.99.467 2.673.137 1.31-.623 1.574-2.168 1.22-2.48-.132.557-.55 1.043-1.31 1.132-1.122.132-2.21-.36-3.068-.735-.726-.307-1.905-.528-2.696-.481 1.48-.82 3.78-.73 4.595.528.49-.396.797-.754.934-1.57.42-2.206-1.306-3.337-3.144-3.337.047-.532-.33-.796-.815-.617 0-.226-.06-.4-.185-.49.043-.004.1-.023.138-.023 1.856-.128 3.604-.703 4.551-1.697 1.661-1.772-.989-4.025-.042-5.77.91.397 1.575.906 2.83 1.08.13.27.244.797.286 1.085.4 1.97-1.54 2.299-1.037 4.396.221.953.933 1.283 1.173 2.414 0 0 .09.79-.598 1.48 1.594.042 2.432-1.306 1.942-2.564-.217-.51-.773-1-.773-1.593.82 1.084 1.551 1.04 2.808.64.576-.174.623.623.265 1.264.862-.515 1.09-1.353 1.09-1.725 0-.886-.69-1.305-1.355-1.127-.372.043-1.126.552-1.168-.178-.156-1.26 1.833-1.216 1.433-3.247-.217-1.02-1.348-1.575-3.115-1.792-.175-.178-.618-.598-.859-.952-.97-1.611-1.969-2.031-2.568-1.701-.707.353-1.079.665-1.654.97-.467.245-.952.378-1.263.73-.773.953-.043 2.433.353 3.343.27.527.91 1.744.623 2.649-.312 1.083-2.103 1.767-3.182 1.989-.07 0-.113.024-.184.024v-.421c.311-.556.58-1.216.802-1.814.73-1.947-.358-2.738-1.966-3.115a.747.747 0 0 0-.687-.09h-.048l-.042.33-.222-.066.047-.396h-.095a.692.692 0 0 0 .27-.574.955.955 0 0 0-.175-.552h.217l-.09-.09c-.037-.09-.127-.174-.264-.311a.333.333 0 0 1-.085-.174c.043.043.085.089.175.132.09.089.222.179.264.264l.132.089V35.7l-.132.108c-.042.044-.175.133-.264.222-.09.09-.132.09-.175.133 0-.043.043-.091.085-.18a.848.848 0 0 0 .264-.283l.09-.136h-1.81l.09.136c.084.062.197.199.287.283a.544.544 0 0 0 .132.18c-.047-.043-.132-.043-.18-.133-.155-.09-.239-.178-.329-.222l-.089-.108v1.81l.09-.09c.09-.084.173-.174.328-.263.048-.043.133-.09.18-.132-.047.043-.089.132-.132.174-.09.137-.203.222-.287.31l-.09.09h.287c-.155.133-.197.312-.197.553 0 .22.084.442.24.574h-.043l.042.396-.239.066-.048-.33h-.042a.693.693 0 0 0-.665.09c-1.635.377-2.718 1.168-1.988 3.115.222.598.49 1.258.82 1.814v.288c-1.64-.533-4.582-2.324-5.373-3.408a2.707 2.707 0 0 1-.198-.263l-.009.004.033-1.173c.57-.952 1.08-2.126 1.48-3.205 1.037-2.81-.49-3.978-2.918-4.468a1.006 1.006 0 0 0-.952-.132l-.085.443-.508-.042.042-.575c-.09.042-.175.042-.264.042.348-.174.594-.6.594-1.037 0-.31-.156-.688-.42-.862h.42c-.246-.222-.64-.69-.726-.995.306.085.773.505.99.73v-2.3c-.217.176-.684.618-.99.66.085-.26.48-.706.726-.928h-2.3c.18.222.621.669.664.929-.268-.043-.707-.485-.952-.66v2.3c.245-.226.684-.646.952-.731-.043.306-.485.773-.664.995h.396c-.264.174-.396.552-.396.862 0 .438.221.863.575 1.037-.089 0-.179 0-.31-.042l.046.575-.509.042-.048-.443c-.395-.132-.7-.042-.97.132-2.404.49-3.935 1.659-2.894 4.468.354 1.079.863 2.253 1.48 3.205v1.216c-.042.042-.089.132-.174.216-.773 1.084-3.738 2.875-5.373 3.408v-.288c.33-.556.598-1.216.82-1.814.73-1.947-.354-2.738-1.989-3.115a.691.691 0 0 0-.664-.09h-.042l-.048.33-.22-.066.041-.396h-.042a.845.845 0 0 0 .221-.574c0-.241-.042-.42-.179-.552h.27l-.09-.09c-.09-.09-.18-.174-.265-.311-.042-.042-.108-.131-.155-.174.047.043.155.089.198.132.131.089.221.179.311.264l.09.089V35.7l-.09.108c-.09.044-.18.133-.31.222-.044.09-.152.09-.199.133.047-.043.113-.091.155-.18.085-.084.174-.221.264-.283l.09-.136h-1.81l.085.136c.042.062.155.199.245.283.085.089.127.137.127.18-.042-.043-.085-.043-.17-.133-.113-.09-.249-.178-.288-.222l-.136-.108v1.81l.136-.09c.04-.084.175-.174.288-.263.085-.043.128-.09.17-.132 0 .043-.042.132-.127.174-.09.137-.203.222-.245.31l-.086.09h.241a.824.824 0 0 0-.202.553c0 .22.09.442.292.574h-.09l.047.396-.249.066-.039-.33h-.047c-.268-.09-.484-.042-.664.09-1.636.377-2.719 1.168-1.989 3.115.222.598.49 1.258.82 1.814v.42c-.07 0-.132-.023-.179-.023-1.084-.222-2.894-.906-3.205-1.99-.288-.904.36-2.121.62-2.648.418-.91 1.128-2.39.38-3.342-.335-.353-.82-.486-1.288-.73-.57-.306-.927-.618-1.653-.971-.58-.33-1.57.09-2.568 1.7-.217.355-.684.775-.864.953-1.743.217-2.87.773-3.11 1.792-.405 2.03 1.59 1.988 1.456 3.247-.047.73-.815.22-1.174.178-.687-.178-1.37.24-1.37 1.127 0 .372.244 1.21 1.088 1.725-.354-.641-.312-1.438.282-1.263 1.26.4 1.966.443 2.786-.641 0 .594-.528 1.084-.768 1.593-.49 1.258.325 2.606 1.942 2.564-.73-.69-.58-1.48-.58-1.48.227-1.131.934-1.461 1.174-2.414.49-2.097-1.456-2.426-1.037-4.396.042-.288.132-.815.263-1.084 1.264-.175 1.947-.684 2.83-1.08.908 1.744-1.703 3.997-.044 5.769.952.994 2.72 1.569 4.552 1.697.038 0 .1.023.147.028-.127.085-.193.259-.193.485-.48-.18-.858.085-.792.617-1.9 0-3.578 1.13-3.163 3.338.132.815.443 1.173.953 1.569.796-1.258 3.096-1.348 4.595-.528-.816-.047-1.989.174-2.716.48-.843.377-1.92.868-3.048.736-.779-.09-1.174-.575-1.329-1.131-.354.31-.089 1.856 1.235 2.479.664.33 1.838.462 2.653-.137.311-.175 1.527-1.522 3.012-1.522-2.15.575-2.748 2.12-1.066 3.049-.066-.533-.15-1.263.93-1.922a3.083 3.083 0 0 1 2.478-.312c.33.132.768.359 1.037.444.462.042.682-.223.814-.354.953.707 2.343 2.917 2.655 4.308.33 1.593.088 2.634-.707 3.563-.265.287-1.546 1.324-2.804.24-.118 1.013.404 1.768 1.221 2.04-.732.08-1.22.109-1.236.114l-.128.004-.05.123c-.015.024-.124.278-.255.792a2.015 2.015 0 0 1-1.08-.952c-1.084 1.239-.749 3.228.708 3.808-.015.273-.024.566-.024.867-1.249.96-3.52.764-4.643-.895-.862-1.26.132-2.164.623-2.673 1.257-1.215 1.257-2.39.348-3.69-1.169-1.748-4.773-4.6-6.16-6.68a5.03 5.03 0 0 0-.405.865c-1.3-.99-2.762-3.045-3.242-4.596-.269.042-.467.31-.688.509-2.013-2.545-5.68-8.662-6.717-11.052-2.19 1.042-2.149 4.157-1.479 5.943.59 1.636 1.588 3.384 3.685 5.816-.66-.49-4.769-4.685-5.679-5.217-1.522 2.168-.486 5.99 2.384 7.607-.88-.402-3.048-1.221-4.217-.934-.22 2.432 1.744 4.09 2.96 4.996-1.169-.263-2.517-.462-3.823-.09.09 1.66 1.81 3.516 4.242 4.379-1.546-.156-3.115.047-4.068.617.18 1.725 2.126 3.21 4.464 3.564-1.569.173-2.96.862-3.686 1.809.858 1.127 2.117 1.989 4.043 1.946a4.037 4.037 0 0 0-1.389.882.362.362 0 0 0-.222-.085c-.094.042-.132.174-.094.264v.066c-.184.132-.288.282-.306.443-.18.255-.363.556-.463.815.048.024.086.066.133.09a.695.695 0 0 0 .127.485c-.085.09-.127.222-.174.353l-1.127-.442c-.06 1.023.165 1.866.683 2.389.406.462.863.396.731.552l1.221.749c.216.466.66.466.965.334v.09c0 .485.335.88.774 1.037-.085.4.09.664.645.843l4.595 11.137c-.179.528 0 .995.4 1.168a.825.825 0 0 0-.178.534c.178-.132.443-.18.575.198.085.263-.397 1.126.335 1.7-.095.51.174 1.038.702 1.264 0 .264.245 1.126.287 1.432-.329.467-1.084 1.174-.989 1.947.09.556.306.73.75.862-.18.995.372 1.438 1.215 1.485 0 .726.683.99 1.126 1.032.42.31.598.443 1.085.688-.444.528-.133 1.216.682 1.438.09.306.312.575.774.683.268.443.75.443 1.037.31.18-.088.49-.597.221-1.04.18-.222.09-.642-.042-.906.263-.485.042-1.083-.33-1.257.046-.27-.09-.688-.179-.948.64-.401 1.436-.91 1.724-1.084 1.57-1.126 3.337-2.125 5.35-2.258.51-.046 1.456-.088 1.993-.046.816.089 1.942.334 2.602-.175.202-.132.335-.354.292-.575-.09-.51-.64-.952-.82-1.414a5.63 5.63 0 0 0-.217-.527c.575.103 1.103.018 1.432-.138.355-.131 1.217-.772 1.174-1.72-.687.33-2.347.773-2.52-.91-.18-1.48 1.126-2.737 3.161-2.185 1.391.353 3.422 3.313 1.565 4.599-.905.618-2.295 1.21-2.116 2.828.594-.731 1.386-1.084 2.423-.995-1.523 1.127-2.692 1.258-4.284 2.12-1.39.817-2.427 2.169-3.516 2.212-.839.042-1.302-.952-.486-1.725-.816-.175-1.899.466-2.21 1.324-.396 1.173-.09 2.012.641 2.479-.99.528-1.72 1.569-1.372 3.049.335 1.216 1.551 1.216 1.09 2.762.683-.18 1.121-.641 1.323-1.306.09-.461.175-.947.401-1.17-.094.93.438 2.296 1.702 2.919.856.419 2.21.593 3.247-.486.42 1.216 1.851 2.253 3.336 2.21.683 0 1.348-.292 1.857-.593.354.9 1.258 1.81 2.163 2.248.928-.438 1.838-1.348 2.211-2.248.49.3 1.173.593 1.838.593 1.433.043 2.936-.994 3.336-2.21 1.037 1.079 2.386.905 3.247.486 1.264-.623 1.792-1.99 1.706-2.918.241.222.325.708.42 1.169.175.665.612 1.126 1.301 1.306-.462-1.546.778-1.546 1.084-2.762.353-1.48-.377-2.521-1.348-3.05.707-.466 1.042-1.305.617-2.478-.306-.858-1.389-1.5-2.21-1.324.821.773.377 1.767-.486 1.725-1.084-.043-2.12-1.395-3.515-2.211-1.588-.863-2.76-.994-4.285-2.121 1.037-.09 1.858.264 2.428.995.18-1.617-1.21-2.21-2.12-2.828-1.834-1.286.178-4.246 1.592-4.6 2.008-.551 3.337.707 3.138 2.187-.22 1.682-1.833 1.239-2.563.909 0 .948.857 1.589 1.216 1.72.415.199 1.178.302 1.866.01-.023.165-.052.344-.052.392-.135 1.437-.909 1.569-.645 2.162.377.444 2.851.354 3.515.49 1.174.156 2.17.595 3.295.816 1.26.264 2.606.264 3.738.73.725.312 1.545.905 2.252 1.259 1.08.179.905.618 1.593.618.617 0 .858-.528 1.655-.75.551-.131 1.168.089 1.72-.09.401-.09.58-.504.956-.725.444-.27 1.061-.27 1.481-.646.221-.194.263-.571.23-.834l.01.06a5.064 5.064 0 0 0 1.838-2.454.487.487 0 0 0 .395-.462v-.085a.934.934 0 0 0 .354-.707c0-.335-.132-.598-.354-.82v-.09c0-.174-.089-.306-.174-.42a5.05 5.05 0 0 0-3.695-3.954v-.09h-.042c0-.088-.043-.135-.109-.135-.269-.264-.58-.68-.617-.948.306.09.815.575 1.08.773v-2.54c-.265.198-.774.684-1.08.773.037-.312.523-.863.768-1.084h-2.583c.242.22.726.772.77 1.084-.308-.09-.817-.575-1.08-.773v2.54c.263-.198.772-.683 1.08-.773-.044.31-.528.862-.77 1.084l.09.043c-1.923.442-3.473 2.036-3.827 4-.132.114-.222.246-.222.42v.09a1.119 1.119 0 0 0-.353.82c0 .259.132.527.353.707v.085c0 .287.18.419.397.462.09.245.197.49.31.71 0-.022 0-.022.03-.046-.16.73-1.043 1.173-1.242 1.173-1.573.222-3.317-.442-4.91-1.036-.702-.27-1.654-.575-2.12-1.263-.288-.5-.41-.816-.264-1.26.174.223.466.468.862.684.043-.216.043-.461.128-.64.404.598 1.041.905 1.813.862-.46-.395-.682-1.437-.46-2.342.64 1.084 3.072 1.306 3.515-.641-.91.424-1.485-.042-1.659-.528-.269-.778.617-2.658-.179-4.114-.642-1.08-1.366-1.744-3.068-2.008.131-.203.174-.382.216-.688-1.564.575-2.918.132-3.558-1.127.311.132.773.18 1.216.18-1.39-1.131-1.305-4.336-.306-5.991.132-.09.174-.18.306-.221.306.617 1.216.617 1.677 1.127.18-.18.27-.222.45-.378 0 0 .037 2.63.215 3.714.174 1.216 1.353 1.084 1.947 1.617.707-.778 1.99-.736 1.791-2.083-.179-1.344-.443-2.56-.486-3.47.396.82 1.17 3.893 1.481 4.775.504 1.306 1.766.91 2.474 1.419.466-.91 1.635-1.174 1.168-2.546-.13-.353-2.05-4.397-2.337-5.174.683.999 2.54 4.557 3.115 5.552.641 1.037 1.81.528 2.65.79.16-.748 1.285-1.61.466-2.911-1.037-1.726-3.47-4.732-3.602-5.151.486.46 4.261 5.15 4.553 5.414.882.774 2.163.175 2.917.175 0-.858.684-1.833-.305-2.828-.91-.862-2.989-2.342-3.427-2.851 1.385.952 3.025 2.475 3.997 2.719 1.724.443 2.342-.244 2.987-.51-.532-1.568.175-2.294-3.473-3.821 3.158 1.127 4.552.57 5.68-.311-.444-1.126-1.57-2.074-2.48-2.385 1.927.043 3.21-.82 4.05-1.946-.709-.947-2.123-1.636-3.734-1.81 2.384-.353 4.284-1.838 4.506-3.563M192.741 42.813l.594-6.047h-.216l-2.32 5.237-10.532 16.739h-1.619l-11.07-16.793-2.214-5.13h-.269l.864 5.94v24.407h-5.076V29.368h4.05l12.797 19.277 1.997 4.104h.11l1.888-4.212 12.15-19.17h4.266v37.799h-5.4zM224.653 50.966l.756-5.616h-.594l-2.645 5.292-13.284 16.523h-3.834V38.817h4.968v16.74l-.378 4.967h.594l2.483-4.806 13.014-16.9h3.888v28.347h-4.968zM255.702 54.8h-14.255v12.365h-4.968V38.817h4.968v11.555h14.255V38.817h4.968v28.348h-4.968zM295.714 74.293h-3.348l-.918-7.127h-23.921V38.817h4.968v24.137h13.66V38.817h4.969v24.137h4.59zM318.5 50.966l.756-5.616h-.594l-2.645 5.292-13.284 16.523h-3.834V38.817h4.968v16.74l-.378 4.967h.594l2.483-4.806 13.014-16.9h3.888v28.347H318.5zM352.572 42.273c-.576 0-1.062.02-1.458.054-.396.036-.9.144-1.512.324v21.06a9.833 9.833 0 0 0 1.593.188c.522.02 1.088.027 1.7.027 2.664 0 4.662-.99 5.994-2.97 1.331-1.979 1.998-4.824 1.998-8.532 0-1.547-.144-2.95-.432-4.212-.288-1.259-.756-2.33-1.404-3.212-.648-.882-1.503-1.557-2.565-2.025-1.06-.468-2.367-.702-3.914-.702M341.61 63.926c.468 0 .945-.018 1.431-.054a15.284 15.284 0 0 0 1.81-.27v-20.95a18.051 18.051 0 0 0-1.62-.298 12.34 12.34 0 0 0-1.513-.08c-2.59 0-4.599.872-6.02 2.618-1.423 1.746-2.134 4.454-2.134 8.126 0 1.548.154 2.99.46 4.32.305 1.332.791 2.484 1.457 3.456a7.293 7.293 0 0 0 2.511 2.295c1.008.56 2.214.837 3.618.837m3.132 3.402c-.864.287-1.683.46-2.457.512-.775.055-1.467.081-2.079.081-3.744 0-6.633-1.232-8.666-3.698-2.034-2.466-3.05-6.2-3.05-11.205 0-4.715 1.114-8.35 3.347-10.907 2.231-2.556 5.471-3.834 9.72-3.834.503 0 1.016.018 1.538.054a9.595 9.595 0 0 1 1.647.27v-9.234h4.968v9.288c.935-.18 1.71-.288 2.322-.324a27.908 27.908 0 0 1 1.62-.054c4.067 0 7.136 1.116 9.206 3.348 2.07 2.232 3.105 5.832 3.105 10.8 0 2.304-.28 4.41-.837 6.317-.559 1.908-1.368 3.537-2.43 4.887a11.075 11.075 0 0 1-3.94 3.16c-1.568.755-3.34 1.132-5.32 1.132-.397 0-.972-.045-1.728-.134a11.226 11.226 0 0 1-1.998-.406v10.584h-4.968zM383.513 42.219c-2.145 0-3.825.54-5.041 1.62-1.216 1.08-2.092 2.736-2.627 4.968v13.067a10.417 10.417 0 0 0 2.68 1.35c.967.324 2.2.486 3.702.486 2.895 0 5.165-.953 6.81-2.862 1.645-1.907 2.467-4.752 2.467-8.531 0-3.06-.608-5.508-1.823-7.344-1.216-1.836-3.272-2.754-6.168-2.754m-12.636-3.402h3.348l.972 3.618h.486a9.917 9.917 0 0 1 3.779-3.267c1.548-.774 3.294-1.161 5.238-1.161 4.104 0 7.164 1.144 9.18 3.429 2.016 2.286 3.024 5.93 3.024 10.934 0 2.376-.333 4.528-1 6.453-.665 1.926-1.62 3.564-2.861 4.914-1.242 1.35-2.754 2.385-4.536 3.105-1.782.719-3.771 1.08-5.967 1.08-.72 0-1.377-.027-1.97-.081a10.828 10.828 0 0 1-1.647-.27 24.329 24.329 0 0 1-1.513-.432 24.191 24.191 0 0 1-1.565-.567v11.393h-4.968zM429.409 38.817h4.968v28.349h-4.968zm-22.192 24.137c1.497.216 3.031.324 4.6.324 2.568 0 4.369-.45 5.404-1.35 1.034-.9 1.551-2.178 1.551-3.834 0-1.439-.508-2.646-1.525-3.618-1.017-.971-2.772-1.458-5.269-1.458-.678 0-1.435.028-2.274.081-.839.054-1.667.172-2.487.351zm0-13.283a32.532 32.532 0 0 1 3.213-.352 50.562 50.562 0 0 1 2.673-.081c2.086 0 3.841.217 5.264.648 1.422.432 2.565 1.026 3.429 1.783.864.755 1.475 1.647 1.836 2.672a9.988 9.988 0 0 1 .54 3.321c0 3.421-1.045 5.913-3.132 7.479-2.088 1.566-5.49 2.349-10.206 2.349-1.512 0-2.97-.019-4.373-.054a82.413 82.413 0 0 1-4.212-.216V38.817h4.968zM171.25 76.778c-.972 0-1.916.018-2.834.053-.918.035-1.63.125-2.134.267v14.317c.18.071.478.116.892.134.413.018.845.043 1.296.079.449.035.882.053 1.296.053h.944c1.297 0 2.574-.097 3.834-.293 1.26-.194 2.403-.576 3.429-1.144a6.655 6.655 0 0 0 2.484-2.395c.629-1.029.945-2.36.945-3.992 0-1.419-.306-2.59-.918-3.513a6.652 6.652 0 0 0-2.376-2.182c-.972-.532-2.061-.896-3.267-1.092a22.582 22.582 0 0 0-3.591-.292m-10.367-3.888a35.623 35.623 0 0 1 4.94-.675 75.255 75.255 0 0 1 5.266-.189c1.836 0 3.698.162 5.588.486 1.89.324 3.609.918 5.157 1.782 1.547.864 2.816 2.061 3.807 3.591.99 1.53 1.485 3.501 1.485 5.913 0 2.268-.451 4.203-1.351 5.804a11.364 11.364 0 0 1-3.59 3.915c-1.495 1.008-3.205 1.746-5.13 2.214a25.173 25.173 0 0 1-5.966.702c-.217 0-.55-.009-.999-.027l-1.404-.054a32.838 32.838 0 0 1-1.405-.081c-.45-.035-.782-.072-.999-.108v14.147h-5.399zM193.768 96.163c0 1.333.15 2.638.453 3.915.302 1.278.79 2.42 1.466 3.429a7.718 7.718 0 0 0 2.612 2.429c1.067.613 2.38.918 3.946.918 5.543 0 8.316-3.563 8.316-10.691 0-1.404-.15-2.754-.453-4.05-.302-1.296-.782-2.438-1.44-3.43a7.59 7.59 0 0 0-2.587-2.401c-1.065-.612-2.344-.918-3.836-.918-2.773 0-4.879.89-6.319 2.673-1.438 1.78-2.158 4.49-2.158 8.126m-5.4 0c0-2.34.305-4.436.919-6.291.61-1.853 1.51-3.428 2.698-4.724 1.189-1.296 2.637-2.286 4.346-2.97 1.71-.683 3.665-1.026 5.86-1.026 2.304 0 4.32.378 6.049 1.134 1.727.756 3.167 1.809 4.319 3.159 1.15 1.35 2.007 2.934 2.564 4.75.559 1.82.837 3.808.837 5.968 0 2.304-.315 4.374-.945 6.21-.63 1.836-1.53 3.402-2.7 4.698-1.17 1.296-2.61 2.286-4.318 2.969-1.712.684-3.647 1.026-5.805 1.026-2.376 0-4.428-.378-6.156-1.133-1.728-.756-3.16-1.8-4.293-3.132-1.134-1.332-1.98-2.907-2.537-4.725-.56-1.817-.837-3.788-.837-5.913M243.175 108.366c-1.261.9-2.736 1.575-4.428 2.025-1.692.45-3.474.675-5.345.675-2.376 0-4.402-.36-6.076-1.08-1.673-.72-3.033-1.728-4.076-3.024-1.045-1.296-1.801-2.862-2.268-4.698-.468-1.835-.702-3.869-.702-6.102 0-4.787 1.16-8.485 3.483-11.096 2.322-2.61 5.66-3.915 10.016-3.915 1.908 0 3.564.172 4.968.513 1.405.343 2.663.765 3.78 1.27l-1.288 4.05a14.554 14.554 0 0 0-3.14-1.189c-1.126-.288-2.351-.432-3.673-.432-5.831 0-8.746 3.6-8.746 10.8 0 1.368.16 2.691.482 3.968.323 1.278.84 2.413 1.557 3.402.716.991 1.654 1.791 2.817 2.403 1.162.613 2.585.918 4.267.918 1.503 0 2.817-.207 3.944-.62 1.127-.414 2.067-.91 2.819-1.486zM268.338 108.366c-1.261.9-2.736 1.575-4.428 2.025-1.692.45-3.474.675-5.345.675-2.376 0-4.402-.36-6.076-1.08-1.673-.72-3.033-1.728-4.076-3.024-1.045-1.296-1.801-2.862-2.268-4.698-.468-1.835-.702-3.869-.702-6.102 0-4.787 1.16-8.485 3.483-11.096 2.322-2.61 5.66-3.915 10.016-3.915 1.908 0 3.564.172 4.968.513 1.405.343 2.663.765 3.78 1.27l-1.288 4.05a14.554 14.554 0 0 0-3.14-1.189c-1.126-.288-2.351-.432-3.673-.432-5.831 0-8.746 3.6-8.746 10.8 0 1.368.16 2.691.482 3.968.323 1.278.84 2.413 1.557 3.402.716.991 1.654 1.791 2.817 2.403 1.162.613 2.585.918 4.267.918 1.503 0 2.817-.207 3.944-.62 1.127-.414 2.067-.91 2.819-1.486zM292.96 94.111l.756-5.616h-.594l-2.645 5.292-13.284 16.523h-3.834V81.962h4.968v16.739l-.378 4.968h.594l2.483-4.806 13.014-16.901h3.888v28.348h-4.968zM324.872 94.111l.756-5.616h-.594l-2.645 5.292-13.284 16.523h-3.834V81.962h4.968v16.739l-.378 4.968h.594l2.483-4.806 13.014-16.901h3.888v28.348h-4.968z" fill="#fff"/><path d="M138.081 49.6h-5.24V29.378h5.24z" fill="#4ac6ee"/><path d="M138.081 69.822h-5.24V49.6h5.24z" fill="#2589c3"/><path d="M138.081 90.043h-5.24V69.822h5.24z" fill="#0a638b"/><path d="M138.081 110.264h-5.24V90.043h5.24z" fill="#dae4eb"/></g></g></svg>