<svg width="162" height="37" viewBox="0 0 162 37" fill="none" xmlns="http://www.w3.org/2000/svg">
  <path d="M146.91 2.85676C145.648 1.17656 143.833 0.210938 141.921 0.210938C140.009 0.210938 138.187 1.17656 136.932 2.85676L126.001 17.4313V0.359H121.012V9.17196H100.895V0.359H73.2905C69.1641 0.359 65.8037 3.71938 65.8037 7.84583V14.161H90.91V9.17196H70.7928V7.84583C70.7928 6.4682 71.9129 5.34807 73.2905 5.34807H95.8991V22.9675H100.888V14.161H121.005V22.9675H125.994C127.024 22.974 128.421 22.504 129.87 20.5792L140.917 5.8502C141.232 5.43176 141.586 5.20001 141.914 5.20001C142.243 5.20001 142.597 5.43176 142.912 5.8502L152.008 17.9785H138.052L134.312 22.9675H161.987L146.903 2.85032L146.91 2.85676Z" fill="#263A89"/>
  <path d="M60.8152 5.25195C60.8152 1.89801 59.1929 0.855128 58.2273 0.533253C57.2617 0.211377 55.3433 0.069752 53.3284 2.76063L42.3588 17.3867C42.0434 17.8051 41.6893 18.0369 41.361 18.0369C41.0327 18.0369 40.6786 17.8051 40.3632 17.3867L29.4001 2.75419C27.9517 0.822941 26.5483 0.353002 25.5183 0.35944H7.48683C3.35394 0.35944 0 3.71338 0 7.84627V15.4812C0 19.6205 3.35394 22.9744 7.48683 22.9744H32.0846L28.3444 17.9854H7.48683C6.1092 17.9854 4.98907 16.8652 4.98907 15.4876V7.84627C4.98907 6.46864 6.1092 5.34851 7.48683 5.34851H25.1063L36.0758 19.9745L36.3719 20.3737C36.5844 20.6634 36.8226 20.9209 37.0736 21.1655C38.2646 22.35 39.7838 23.0195 41.361 23.0195C43.273 23.0195 45.0948 22.0539 46.3501 20.3737L55.8197 7.74327V17.9789C55.8197 20.7342 58.0535 22.968 60.8087 22.968H90.9041V17.9789H60.8087V5.25195H60.8152Z" fill="#263A89"/>
  <path d="M137.048 30.7891C136.887 30.7891 136.739 30.8212 136.604 30.8792C136.468 30.9371 136.346 31.0208 136.243 31.1174C136.14 31.2204 136.056 31.3298 135.999 31.465C135.941 31.5938 135.902 31.7289 135.896 31.8706H138.142C138.129 31.5616 138.026 31.3041 137.846 31.0981C137.666 30.8921 137.395 30.7891 137.054 30.7891H137.048Z" fill="#263A89"/>
  <path d="M92.7324 30.7891C92.5715 30.7891 92.4234 30.8212 92.2882 30.8792C92.153 30.9371 92.0307 31.0208 91.9277 31.1174C91.8247 31.2204 91.741 31.3298 91.6831 31.465C91.6251 31.5938 91.5865 31.7289 91.5801 31.8706H93.8268C93.8139 31.5616 93.7109 31.3041 93.5306 31.0981C93.3504 30.8921 93.08 30.7891 92.7388 30.7891H92.7324Z" fill="#263A89"/>
  <path d="M17.5937 30.7891C17.4328 30.7891 17.2847 30.8212 17.1495 30.8792C17.0143 30.9371 16.892 31.0208 16.789 31.1174C16.686 31.2204 16.6023 31.3298 16.5444 31.465C16.4865 31.5938 16.4478 31.7289 16.4414 31.8706H18.6881C18.6752 31.5616 18.5722 31.3041 18.392 31.0981C18.2117 30.8921 17.9413 30.7891 17.6002 30.7891H17.5937Z" fill="#263A89"/>
  <path d="M6.92662 32.3764C6.75925 32.3056 6.53393 32.2734 6.25712 32.2734H5.3623V33.3871H5.97387C6.14768 33.3871 6.30862 33.3871 6.45024 33.3743C6.59831 33.3678 6.72062 33.3485 6.83006 33.3099C6.9395 33.2777 7.02318 33.2198 7.08112 33.1425C7.13906 33.0653 7.17125 32.9623 7.17125 32.8206C7.17125 32.5953 7.08756 32.4473 6.92018 32.3764H6.92662Z" fill="#263A89"/>
  <path d="M31.0224 31.1792C30.9129 31.0569 30.7842 30.9668 30.6297 30.896C30.4752 30.8252 30.3014 30.793 30.1083 30.793C29.9151 30.793 29.7413 30.8252 29.5933 30.896C29.4388 30.9668 29.31 31.0633 29.2006 31.1792C29.0911 31.3015 29.0074 31.4367 28.9495 31.6041C28.8916 31.765 28.8594 31.9388 28.8594 32.1191C28.8594 32.2993 28.8851 32.4732 28.9495 32.6341C29.0074 32.795 29.0911 32.9367 29.2006 33.059C29.31 33.1813 29.4388 33.2714 29.5933 33.3422C29.7478 33.413 29.9151 33.4452 30.1083 33.4452C30.3014 33.4452 30.4752 33.413 30.6297 33.3422C30.7842 33.2714 30.9129 33.1813 31.0224 33.059C31.1318 32.9367 31.2155 32.8015 31.2734 32.6341C31.3314 32.4732 31.3636 32.2993 31.3636 32.1191C31.3636 31.9388 31.3378 31.765 31.2734 31.6041C31.2155 31.4432 31.1318 31.3015 31.0224 31.1792Z" fill="#263A89"/>
  <path d="M0 28.2246V29.1001C0 32.9755 3.14151 36.117 7.01689 36.117H162V28.2246H0ZM120.51 28.8169C120.575 29.01 120.665 29.158 120.781 29.2675C120.89 29.3769 121.051 29.4349 121.244 29.4349C121.437 29.4349 121.605 29.3769 121.714 29.261C121.823 29.1452 121.907 28.9971 121.972 28.8169L122.319 28.9714C122.287 29.0679 122.242 29.158 122.19 29.261C122.139 29.3576 122.068 29.4477 121.978 29.5314C121.888 29.6151 121.785 29.6795 121.663 29.7374C121.54 29.7889 121.399 29.8211 121.238 29.8211C121.077 29.8211 120.948 29.7954 120.832 29.7503C120.716 29.7052 120.613 29.6409 120.523 29.5636C120.439 29.4864 120.362 29.3962 120.304 29.2932C120.246 29.1902 120.195 29.0872 120.163 28.9778L120.51 28.8233V28.8169ZM76.3875 28.8169C76.4519 29.01 76.542 29.158 76.6579 29.2675C76.7673 29.3769 76.9283 29.4349 77.1214 29.4349C77.3145 29.4349 77.4819 29.3769 77.5913 29.261C77.7008 29.1452 77.7845 28.9971 77.8488 28.8169L78.1965 28.9714C78.1643 29.0679 78.1192 29.158 78.0677 29.261C78.0162 29.3576 77.9454 29.4477 77.8553 29.5314C77.7652 29.6151 77.6622 29.6795 77.5398 29.7374C77.4175 29.7889 77.2759 29.8211 77.115 29.8211C76.954 29.8211 76.8253 29.7954 76.7094 29.7503C76.5935 29.7052 76.4905 29.6409 76.4004 29.5636C76.3167 29.4864 76.2395 29.3962 76.1815 29.2932C76.1236 29.1902 76.0721 29.0872 76.0399 28.9778L76.3875 28.8233V28.8169ZM52.7747 28.8169C52.8391 29.01 52.9292 29.158 53.0451 29.2675C53.1545 29.3769 53.3155 29.4349 53.5086 29.4349C53.7017 29.4349 53.8691 29.3769 53.9785 29.261C54.088 29.1452 54.1717 28.9971 54.236 28.8169L54.5837 28.9714C54.5515 29.0679 54.5064 29.158 54.4549 29.261C54.4034 29.3576 54.3326 29.4477 54.2425 29.5314C54.1524 29.6151 54.0494 29.6795 53.927 29.7374C53.8047 29.7889 53.6631 29.8211 53.5022 29.8211C53.3412 29.8211 53.2125 29.7954 53.0966 29.7503C52.9807 29.7052 52.8777 29.6409 52.7876 29.5636C52.7039 29.4864 52.6267 29.3962 52.5687 29.2932C52.5108 29.1902 52.4593 29.0872 52.4271 28.9778L52.7747 28.8233V28.8169ZM7.37095 33.5227C7.15208 33.6836 6.82376 33.7609 6.39245 33.7609H4.88607V30.4713H6.30876C6.7272 30.4713 7.0362 30.555 7.23576 30.7159C7.43533 30.8769 7.53833 31.0893 7.53833 31.3597C7.53833 31.482 7.51901 31.585 7.48039 31.6687C7.44176 31.7524 7.39026 31.8167 7.31945 31.8747C7.24864 31.9262 7.17139 31.9712 7.08126 32.0034C6.99114 32.0356 6.90101 32.0678 6.79801 32.0936C6.92033 32.1 7.0362 32.1257 7.14564 32.1579C7.25508 32.1901 7.35164 32.2416 7.42889 32.2996C7.51258 32.3639 7.57695 32.4412 7.62202 32.5377C7.66708 32.6343 7.69283 32.7502 7.69283 32.8854C7.69283 33.1557 7.58339 33.3682 7.36451 33.5227H7.37095ZM12.9458 33.6901C12.7398 33.7931 12.4952 33.8446 12.212 33.8446C11.9416 33.8446 11.7034 33.7995 11.491 33.7158C11.2785 33.6321 11.0918 33.5098 10.9373 33.3553C10.7828 33.2008 10.667 33.0206 10.5833 32.8081C10.4996 32.5957 10.4545 32.3704 10.4545 32.1193C10.4545 31.8682 10.4996 31.6429 10.5833 31.4305C10.667 31.2181 10.7828 31.0378 10.9373 30.8833C11.0918 30.7288 11.2721 30.6065 11.491 30.5228C11.7034 30.4391 11.948 30.3941 12.212 30.3941C12.4308 30.3941 12.6561 30.4456 12.8815 30.5357C13.1068 30.6322 13.2935 30.7739 13.4351 30.9606L13.0617 31.2309C12.9845 31.1022 12.8686 30.9992 12.7141 30.9155C12.5596 30.8318 12.3986 30.7932 12.2184 30.7932C12.0253 30.7932 11.8515 30.8254 11.697 30.8962C11.5425 30.967 11.4073 31.0571 11.2978 31.1794C11.1884 31.3017 11.1047 31.4369 11.0468 31.6043C10.9888 31.7652 10.9566 31.9391 10.9566 32.1257C10.9566 32.3124 10.9824 32.4862 11.0468 32.6472C11.1047 32.8081 11.1884 32.9433 11.2978 33.0656C11.4073 33.1879 11.536 33.2781 11.6905 33.3489C11.845 33.4197 12.0188 33.4519 12.212 33.4519C12.4244 33.4519 12.5982 33.4132 12.7463 33.3296C12.8943 33.2523 13.0102 33.1493 13.1068 33.0206L13.4673 33.2909C13.3257 33.4647 13.1518 33.5999 12.9523 33.7029L12.9458 33.6901ZM19.1709 32.1193C19.1709 32.1579 19.1709 32.1966 19.1645 32.2416H16.435C16.435 32.409 16.4736 32.5635 16.5315 32.7051C16.5895 32.8467 16.6796 32.9755 16.7826 33.0849C16.8856 33.1944 17.0143 33.2781 17.1624 33.3424C17.3105 33.4068 17.465 33.439 17.6323 33.439C17.8834 33.439 18.0958 33.3811 18.2761 33.2652C18.4563 33.1493 18.5915 33.0206 18.6881 32.8661L19.0486 33.1493C18.849 33.4004 18.6366 33.5742 18.3984 33.6836C18.1602 33.7931 17.9092 33.8446 17.6323 33.8446C17.3877 33.8446 17.1624 33.7995 16.9564 33.7158C16.7504 33.6321 16.5702 33.5098 16.4157 33.3553C16.2676 33.2008 16.1453 33.0206 16.0616 32.8081C15.9779 32.5957 15.9328 32.3704 15.9328 32.1193C15.9328 31.8682 15.9779 31.6429 16.0616 31.4305C16.1453 31.2181 16.2612 31.0378 16.4157 30.8833C16.5637 30.7288 16.744 30.6065 16.9435 30.5228C17.1431 30.4391 17.362 30.3941 17.6002 30.3941C17.8577 30.3941 18.083 30.4391 18.2825 30.5228C18.4821 30.6129 18.643 30.7288 18.7718 30.8769C18.9005 31.0249 19.0035 31.1987 19.0679 31.3919C19.1387 31.5914 19.1709 31.7974 19.1709 32.0227V32.1257V32.1193ZM25.4797 32.7952C25.396 33.0077 25.2801 33.1879 25.132 33.3424C24.984 33.4969 24.8037 33.6192 24.5977 33.7094C24.3917 33.7995 24.1535 33.8446 23.896 33.8446C23.6643 33.8446 23.4325 33.7866 23.2008 33.6772C22.9755 33.5677 22.7888 33.4068 22.6536 33.2008H22.6343V35.4475H22.1579V30.4713H22.6343V31.0378H22.6536C22.7888 30.8254 22.969 30.658 23.2008 30.5486C23.4261 30.4391 23.6579 30.3812 23.896 30.3812C24.1535 30.3812 24.3853 30.4262 24.5977 30.5164C24.8037 30.6065 24.984 30.7288 25.132 30.8833C25.2801 31.0378 25.396 31.2181 25.4797 31.4305C25.5634 31.6429 25.602 31.8682 25.602 32.1129C25.602 32.3575 25.5634 32.5828 25.4797 32.7952V32.7952ZM31.7305 32.8017C31.6468 33.0141 31.5245 33.1944 31.37 33.3489C31.2155 33.5034 31.0288 33.6257 30.8164 33.7094C30.6039 33.7931 30.3657 33.8381 30.1082 33.8381C29.8507 33.8381 29.619 33.7931 29.4066 33.7094C29.1941 33.6257 29.0074 33.5034 28.8529 33.3489C28.6984 33.1944 28.5761 33.0141 28.4924 32.8017C28.4087 32.5892 28.3637 32.3639 28.3637 32.1129C28.3637 31.8618 28.4087 31.6365 28.4924 31.4241C28.5761 31.2116 28.6984 31.0314 28.8529 30.8769C29.0074 30.7224 29.1941 30.6001 29.4066 30.5164C29.619 30.4327 29.8572 30.3876 30.1082 30.3876C30.3593 30.3876 30.6039 30.4327 30.8164 30.5164C31.0288 30.6065 31.2155 30.7224 31.37 30.8769C31.5245 31.0314 31.6468 31.2116 31.7305 31.4241C31.8142 31.6365 31.8593 31.8618 31.8593 32.1129C31.8593 32.3639 31.8142 32.5892 31.7305 32.8017ZM37.1058 33.6901C36.8998 33.7931 36.6552 33.8446 36.3719 33.8446C36.1016 33.8446 35.8634 33.7995 35.6509 33.7158C35.4385 33.6321 35.2518 33.5098 35.0973 33.3553C34.9428 33.2008 34.8269 33.0206 34.7433 32.8081C34.6596 32.5957 34.6145 32.3704 34.6145 32.1193C34.6145 31.8682 34.6596 31.6429 34.7433 31.4305C34.8269 31.2181 34.9428 31.0378 35.0973 30.8833C35.2518 30.7288 35.4321 30.6065 35.6509 30.5228C35.8634 30.4391 36.108 30.3941 36.3719 30.3941C36.5908 30.3941 36.8161 30.4456 37.0414 30.5357C37.2668 30.6322 37.4534 30.7739 37.5951 30.9606L37.2217 31.2309C37.1444 31.1022 37.0286 30.9992 36.8741 30.9155C36.7196 30.8318 36.5586 30.7932 36.3784 30.7932C36.1853 30.7932 36.0114 30.8254 35.8569 30.8962C35.7024 30.967 35.5673 31.0571 35.4578 31.1794C35.3484 31.3017 35.2647 31.4369 35.2068 31.6043C35.1488 31.7652 35.1166 31.9391 35.1166 32.1257C35.1166 32.3124 35.1424 32.4862 35.2068 32.6472C35.2647 32.8081 35.3484 32.9433 35.4578 33.0656C35.5673 33.1879 35.696 33.2781 35.8505 33.3489C36.005 33.4197 36.1788 33.4519 36.3719 33.4519C36.5844 33.4519 36.7582 33.4132 36.9063 33.3296C37.0543 33.2523 37.1702 33.1493 37.2668 33.0206L37.6273 33.2909C37.4856 33.4647 37.3118 33.5999 37.1123 33.7029L37.1058 33.6901ZM42.5906 33.6901C42.3846 33.7931 42.14 33.8446 41.8567 33.8446C41.5863 33.8446 41.3481 33.7995 41.1357 33.7158C40.9233 33.6321 40.7366 33.5098 40.5821 33.3553C40.4276 33.2008 40.3117 33.0206 40.228 32.8081C40.1443 32.5957 40.0993 32.3704 40.0993 32.1193C40.0993 31.8682 40.1443 31.6429 40.228 31.4305C40.3117 31.2181 40.4276 31.0378 40.5821 30.8833C40.7366 30.7288 40.9168 30.6065 41.1357 30.5228C41.3481 30.4391 41.5928 30.3941 41.8567 30.3941C42.0756 30.3941 42.3009 30.4456 42.5262 30.5357C42.7515 30.6322 42.9382 30.7739 43.0798 30.9606L42.7065 31.2309C42.6292 31.1022 42.5133 30.9992 42.3588 30.9155C42.2043 30.8318 42.0434 30.7932 41.8631 30.7932C41.67 30.7932 41.4962 30.8254 41.3417 30.8962C41.1872 30.967 41.052 31.0571 40.9426 31.1794C40.8331 31.3017 40.7495 31.4369 40.6915 31.6043C40.6336 31.7652 40.6014 31.9391 40.6014 32.1257C40.6014 32.3124 40.6271 32.4862 40.6915 32.6472C40.7495 32.8081 40.8331 32.9433 40.9426 33.0656C41.052 33.1879 41.1808 33.2781 41.3353 33.3489C41.4898 33.4197 41.6636 33.4519 41.8567 33.4519C42.0691 33.4519 42.243 33.4132 42.391 33.3296C42.5391 33.2523 42.655 33.1493 42.7515 33.0206L43.112 33.2909C42.9704 33.4647 42.7966 33.5999 42.597 33.7029L42.5906 33.6901ZM48.7899 33.7609H48.3007V31.0829L46.2793 33.7609H45.79V30.4713H46.2793V33.0527L48.3007 30.4713H48.7899V33.7609V33.7609ZM54.9699 33.7609H54.4807V31.0829L52.4593 33.7609H51.97V30.4713H52.4593V33.0527L54.4807 30.4713H54.9699V33.7609V33.7609ZM60.4225 33.6901C60.2165 33.7931 59.9719 33.8446 59.6886 33.8446C59.4182 33.8446 59.1801 33.7995 58.9676 33.7158C58.7552 33.6321 58.5685 33.5098 58.414 33.3553C58.2595 33.2008 58.1436 33.0206 58.0599 32.8081C57.9762 32.5957 57.9312 32.3704 57.9312 32.1193C57.9312 31.8682 57.9762 31.6429 58.0599 31.4305C58.1436 31.2181 58.2595 31.0378 58.414 30.8833C58.5685 30.7288 58.7487 30.6065 58.9676 30.5228C59.1801 30.4391 59.4247 30.3941 59.6886 30.3941C59.9075 30.3941 60.1328 30.4456 60.3581 30.5357C60.5834 30.6322 60.7701 30.7739 60.9117 30.9606L60.5384 31.2309C60.4611 31.1022 60.3452 30.9992 60.1907 30.9155C60.0362 30.8318 59.8753 30.7932 59.6951 30.7932C59.5019 30.7932 59.3281 30.8254 59.1736 30.8962C59.0191 30.967 58.8839 31.0571 58.7745 31.1794C58.6651 31.3017 58.5814 31.4369 58.5234 31.6043C58.4655 31.7652 58.4333 31.9391 58.4333 32.1257C58.4333 32.3124 58.4591 32.4862 58.5234 32.6472C58.5814 32.8081 58.6651 32.9433 58.7745 33.0656C58.8839 33.1879 59.0127 33.2781 59.1672 33.3489C59.3217 33.4197 59.4955 33.4519 59.6886 33.4519C59.9011 33.4519 60.0749 33.4132 60.2229 33.3296C60.371 33.2523 60.4869 33.1493 60.5834 33.0206L60.9439 33.2909C60.8023 33.4647 60.6285 33.5999 60.4289 33.7029L60.4225 33.6901ZM65.9523 33.7609C65.8879 33.4712 65.8043 33.2266 65.7013 33.0334C65.5983 32.8403 65.4759 32.6794 65.3214 32.5635C65.1669 32.4412 64.9931 32.3575 64.7871 32.3124C64.5876 32.2609 64.3558 32.2352 64.0983 32.2287V33.7609H63.6219V30.4713H64.0983V31.8232C64.285 31.8232 64.4588 31.8361 64.6262 31.8682L65.8043 30.4777H66.3386L65.0575 31.9712C65.4438 32.0936 65.7463 32.2996 65.9652 32.5957C66.1776 32.8918 66.3514 33.2845 66.4802 33.7737H65.9459L65.9523 33.7609ZM72.4091 33.7609H71.9199V31.0829L69.8985 33.7609H69.4093V30.4713H69.8985V33.0527L71.9199 30.4713H72.4091V33.7609V33.7609ZM78.5827 33.7609H78.0935V31.0829L76.0721 33.7609H75.5828V30.4713H76.0721V33.0527L78.0935 30.4713H78.5827V33.7609V33.7609ZM88.7025 34.7394H88.239V33.7609H85.3485V34.7394H84.8786V33.3489H85.4065L86.6167 30.4713H87.0416L88.1617 33.3489H88.7089V34.7394H88.7025ZM94.3031 32.1257C94.3031 32.1644 94.3031 32.203 94.2967 32.2481H91.5672C91.5672 32.4154 91.6058 32.5699 91.6637 32.7116C91.7217 32.8532 91.8118 32.9819 91.9148 33.0914C92.0178 33.2008 92.1466 33.2845 92.2946 33.3489C92.4427 33.4132 92.5972 33.4454 92.7646 33.4454C93.0156 33.4454 93.2281 33.3875 93.4083 33.2716C93.5886 33.1557 93.7238 33.027 93.8203 32.8725L94.1808 33.1557C93.9812 33.4068 93.7688 33.5806 93.5306 33.6901C93.2924 33.7995 93.0414 33.851 92.7646 33.851C92.5199 33.851 92.2946 33.8059 92.0886 33.7222C91.8826 33.6386 91.7024 33.5162 91.5479 33.3617C91.3998 33.2072 91.2775 33.027 91.1938 32.8146C91.1101 32.6021 91.0651 32.3768 91.0651 32.1257C91.0651 31.8747 91.1101 31.6494 91.1938 31.4369C91.2775 31.2245 91.3934 31.0442 91.5479 30.8897C91.6959 30.7352 91.8762 30.6129 92.0757 30.5292C92.2753 30.4455 92.4942 30.4005 92.7324 30.4005C92.9899 30.4005 93.2152 30.4455 93.4147 30.5292C93.6143 30.6194 93.7752 30.7352 93.904 30.8833C94.0327 31.0314 94.1357 31.2052 94.2001 31.3983C94.2709 31.5979 94.3031 31.8039 94.3031 32.0292V32.1322V32.1257ZM99.6269 30.8769H98.3845V33.7673H97.9081V30.8769H96.7429V30.4777H99.6334V30.8769H99.6269ZM104.552 33.6965C104.346 33.7995 104.101 33.851 103.818 33.851C103.547 33.851 103.309 33.8059 103.097 33.7222C102.884 33.6386 102.698 33.5162 102.543 33.3617C102.389 33.2072 102.273 33.027 102.189 32.8146C102.105 32.6021 102.06 32.3768 102.06 32.1257C102.06 31.8747 102.105 31.6494 102.189 31.4369C102.273 31.2245 102.389 31.0442 102.543 30.8897C102.698 30.7352 102.878 30.6129 103.097 30.5292C103.309 30.4455 103.554 30.4005 103.818 30.4005C104.037 30.4005 104.262 30.452 104.487 30.5421C104.713 30.6387 104.899 30.7803 105.041 30.967L104.668 31.2374C104.59 31.1086 104.474 31.0056 104.32 30.9219C104.165 30.8382 104.004 30.7996 103.824 30.7996C103.631 30.7996 103.457 30.8318 103.303 30.9026C103.148 30.9734 103.013 31.0636 102.904 31.1859C102.794 31.3082 102.711 31.4434 102.653 31.6107C102.595 31.7717 102.562 31.9455 102.562 32.1322C102.562 32.3189 102.588 32.4927 102.653 32.6536C102.711 32.8146 102.794 32.9497 102.904 33.0721C103.013 33.1944 103.142 33.2845 103.296 33.3553C103.451 33.4261 103.625 33.4583 103.818 33.4583C104.03 33.4583 104.204 33.4197 104.352 33.336C104.5 33.2587 104.616 33.1557 104.713 33.027L105.073 33.2974C104.931 33.4712 104.758 33.6064 104.558 33.7094L104.552 33.6965ZM110.075 33.7673C110.011 33.4776 109.927 33.233 109.824 33.0399C109.721 32.8467 109.599 32.6858 109.444 32.5699C109.29 32.4476 109.116 32.3639 108.91 32.3189C108.71 32.2674 108.479 32.2416 108.221 32.2352V33.7673H107.745V30.4777H108.221V31.8296C108.408 31.8296 108.582 31.8425 108.749 31.8747L109.927 30.4842H110.461L109.18 31.9777C109.566 32.1 109.869 32.306 110.088 32.6021C110.3 32.8982 110.474 33.2909 110.603 33.7802H110.069L110.075 33.7673ZM116.532 33.7673H116.043V31.0893L114.021 33.7673H113.532V30.4777H114.021V33.0592L116.043 30.4777H116.532V33.7673V33.7673ZM122.705 33.7673H122.216V31.0893L120.195 33.7673H119.706V30.4777H120.195V33.0592L122.216 30.4777H122.705V33.7673V33.7673ZM132.883 34.7458H132.407V33.7673H129.613V30.4777H130.089V33.3424H131.853V30.4777H132.33V33.3424H132.877V34.7522L132.883 34.7458ZM138.613 32.1322C138.613 32.1708 138.613 32.2094 138.606 32.2545H135.877C135.877 32.4219 135.915 32.5764 135.973 32.718C136.031 32.8596 136.121 32.9884 136.224 33.0978C136.327 33.2072 136.456 33.2909 136.604 33.3553C136.752 33.4197 136.907 33.4519 137.074 33.4519C137.325 33.4519 137.537 33.3939 137.718 33.2781C137.898 33.1622 138.033 33.0334 138.13 32.8789L138.49 33.1622C138.291 33.4132 138.078 33.5871 137.84 33.6965C137.602 33.8059 137.351 33.8574 137.074 33.8574C136.829 33.8574 136.604 33.8124 136.398 33.7287C136.192 33.645 136.012 33.5227 135.857 33.3682C135.709 33.2137 135.587 33.0334 135.503 32.821C135.42 32.6086 135.374 32.3832 135.374 32.1322C135.374 31.8811 135.42 31.6558 135.503 31.4434C135.587 31.2309 135.703 31.0507 135.857 30.8962C136.005 30.7417 136.186 30.6194 136.385 30.5357C136.585 30.452 136.804 30.4069 137.042 30.4069C137.299 30.4069 137.525 30.452 137.724 30.5357C137.924 30.6258 138.085 30.7417 138.213 30.8897C138.342 31.0378 138.445 31.2116 138.51 31.4047C138.58 31.6043 138.613 31.8103 138.613 32.0356V32.1386V32.1322ZM144.413 33.7737H143.936V32.2094H142.057V33.7737H141.58V30.4842H142.057V31.8103H143.936V30.4842H144.413V33.7737ZM149.949 30.8833H148.707V33.7737H148.23V30.8833H147.065V30.4842H149.955V30.8833H149.949ZM155.929 32.8081C155.846 33.0206 155.73 33.2008 155.582 33.3553C155.434 33.5098 155.253 33.6321 155.047 33.7222C154.841 33.8124 154.603 33.8574 154.346 33.8574C154.114 33.8574 153.882 33.7995 153.651 33.6901C153.425 33.5806 153.239 33.4197 153.103 33.2137H153.084V35.4604H152.608V30.4842H153.084V31.0507H153.103C153.239 30.8382 153.419 30.6709 153.651 30.5614C153.876 30.452 154.108 30.3941 154.346 30.3941C154.603 30.3941 154.835 30.4391 155.047 30.5292C155.253 30.6194 155.434 30.7417 155.582 30.8962C155.73 31.0507 155.846 31.2309 155.929 31.4434C156.013 31.6558 156.052 31.8811 156.052 32.1257C156.052 32.3704 156.013 32.5957 155.929 32.8081V32.8081Z" fill="#263A89"/>
  <path d="M155.234 31.1792C155.131 31.0569 154.995 30.9668 154.841 30.896C154.686 30.8252 154.513 30.793 154.313 30.793C154.133 30.793 153.959 30.8252 153.805 30.896C153.65 30.9668 153.515 31.0569 153.405 31.1792C153.296 31.3015 153.206 31.4367 153.141 31.6041C153.077 31.765 153.045 31.9388 153.045 32.1255C153.045 32.3122 153.077 32.486 153.141 32.647C153.206 32.8079 153.296 32.9495 153.405 33.0654C153.515 33.1813 153.65 33.2779 153.805 33.3422C153.959 33.413 154.126 33.4452 154.313 33.4452C154.513 33.4452 154.686 33.413 154.841 33.3422C154.995 33.2714 155.124 33.1813 155.234 33.059C155.337 32.9367 155.42 32.8015 155.478 32.6341C155.536 32.4732 155.562 32.2993 155.562 32.1191C155.562 31.9388 155.536 31.765 155.478 31.6041C155.42 31.4432 155.343 31.3015 155.234 31.1792V31.1792Z" fill="#263A89"/>
  <path d="M24.7718 31.1792C24.6688 31.0569 24.5336 30.9668 24.3791 30.896C24.2246 30.8252 24.0508 30.793 23.8512 30.793C23.6709 30.793 23.4971 30.8252 23.3426 30.896C23.1881 30.9668 23.0529 31.0569 22.9435 31.1792C22.8341 31.3015 22.7439 31.4367 22.6796 31.6041C22.6152 31.765 22.583 31.9388 22.583 32.1255C22.583 32.3122 22.6152 32.486 22.6796 32.647C22.7439 32.8079 22.8341 32.9495 22.9435 33.0654C23.0529 33.1813 23.1881 33.2779 23.3426 33.3422C23.4971 33.413 23.6645 33.4452 23.8512 33.4452C24.0508 33.4452 24.2246 33.413 24.3791 33.3422C24.5336 33.2714 24.6623 33.1813 24.7718 33.059C24.8748 32.9367 24.9584 32.8015 25.0164 32.6341C25.0743 32.4732 25.1001 32.2993 25.1001 32.1191C25.1001 31.9388 25.0743 31.765 25.0164 31.6041C24.9584 31.4432 24.8812 31.3015 24.7718 31.1792V31.1792Z" fill="#263A89"/>
  <path d="M85.8955 33.3496H87.6851L86.8161 31.0449L85.8955 33.3496Z" fill="#263A89"/>
  <path d="M6.83006 31.8172C6.96525 31.7464 7.02962 31.5983 7.02962 31.3794C7.02962 31.2571 7.00387 31.1606 6.95237 31.0898C6.90087 31.0189 6.83006 30.9674 6.7335 30.9288C6.63693 30.8966 6.52749 30.8709 6.39874 30.8644C6.26999 30.858 6.12193 30.8516 5.96099 30.8516H5.3623V31.9266H6.27643C6.50818 31.9266 6.69487 31.888 6.83006 31.8172V31.8172Z" fill="#263A89"/>
</svg>

