<svg width="119" height="69" viewBox="0 0 119 69" fill="none" xmlns="http://www.w3.org/2000/svg">
<g clip-path="url(#clip0)">
<path d="M85.7701 11.5704C85.6359 11.369 85.5351 11.2011 85.4344 11.1339C85.4008 11.1004 85.3337 11.0332 85.233 11.0332C85.4344 11.0332 85.6023 10.9325 85.703 10.8318C85.8037 10.7311 85.8709 10.5632 85.8709 10.3953C85.8709 10.261 85.8373 10.1603 85.7701 10.0596C85.703 9.95889 85.6023 9.89174 85.468 9.85817C85.3673 9.82459 85.233 9.79102 85.0315 9.79102C84.9979 9.79102 84.9308 9.79102 84.8972 9.79102H84.125V12.074H84.4943V11.1004H84.6958C84.8301 11.1004 84.9308 11.1339 84.9979 11.1675L85.0315 11.2011C85.1322 11.3018 85.233 11.4361 85.3673 11.6711L85.5687 12.0405H86.0052L85.7701 11.5704ZM84.9644 10.7311H84.5279V10.0596H84.9308C84.9979 10.0596 85.0315 10.0596 85.0651 10.0596C85.1658 10.0596 85.233 10.0596 85.3001 10.0931C85.3673 10.1267 85.4008 10.1603 85.468 10.2274C85.5016 10.2946 85.5351 10.3282 85.5351 10.3953C85.5351 10.496 85.5016 10.5968 85.4344 10.6639C85.3673 10.7311 85.2665 10.7646 85.0987 10.7646C85.0315 10.7311 84.9979 10.7311 84.9644 10.7311Z" fill="black"/>
<path d="M40.3434 52.4299L38.3961 54.8137C37.0196 53.9408 35.7102 52.9671 34.5015 51.9263C34.4344 51.8592 34.3336 51.792 34.2665 51.7249C29.6668 47.6959 26.343 42.5255 25 36.6836H28.156C29.2639 40.8132 31.4798 44.5735 34.5015 47.7295C35.0723 48.3339 35.6766 48.871 36.281 49.4082C37.5232 50.5498 38.8662 51.5234 40.3434 52.4299Z" fill="black"/>
<path d="M83.9892 49.9123L83.7542 49.8788C83.8214 49.8116 83.8885 49.7445 83.9557 49.6773L83.9892 49.7109L84.2243 49.9795L83.9892 49.9123ZM70.8617 20.0648C70.4924 19.259 70.1566 18.3525 69.7537 17.2782L69.418 16.3716L69.1158 17.2782C68.6122 18.7218 68.1422 19.8634 67.6386 20.8706C67.5714 20.9713 67.5043 21.1056 67.4707 21.2063H68.2429C68.6794 20.367 69.0487 19.4605 69.4516 18.3861C69.8545 19.4605 70.2574 20.4006 70.6602 21.2063H71.4325C71.231 20.837 71.0296 20.4341 70.8617 20.0648ZM78.9195 36.6841L81.9076 40.0079L82.5791 40.7466L81.6055 40.5787L75.73 39.4707L82.4112 46.8907C82.982 46.2527 83.5192 45.5813 84.0228 44.8762C84.3921 44.3726 84.7614 43.8354 85.0972 43.2982C85.3658 42.8617 85.6344 42.3917 85.903 41.9217L88.3539 43.7683C87.4138 45.4134 86.3394 46.9914 85.0972 48.4351C84.8957 48.6701 84.6607 48.9051 84.4593 49.1401L85.0972 49.8452L85.4329 50.2481L86.1044 50.9867L85.1308 50.7853H85.0972L84.0228 50.5838L83.217 50.416C82.7806 50.8524 82.3105 51.2889 81.8405 51.6918C80.5647 52.7997 79.1881 53.807 77.7444 54.747L75.7971 52.3633C77.1065 51.5575 78.3152 50.6846 79.4567 49.7109L73.279 48.5358L73.0776 48.5022L72.5404 48.4015L72.0704 47.8307L71.8689 47.5621L72.0704 47.5957L73.044 47.7972L73.2455 47.8307L80.061 49.1066C80.699 48.5358 81.3033 47.9315 81.8741 47.3271L74.4877 39.1014L73.8162 38.3628L74.7899 38.5642L80.6654 39.6722L77.9459 36.6505H78.9195V36.6841Z" fill="black"/>
<path d="M75.697 5.39286L74.119 8.01166C73.8504 7.87736 73.5482 7.70949 73.2796 7.57519L73.0782 7.47447C72.7425 7.3066 72.4403 7.1723 72.1045 7.00443C71.7017 6.83656 71.2988 6.63511 70.8623 6.46724C69.8215 6.03077 68.7471 5.69503 67.6392 5.35929C67.4377 5.29214 67.2363 5.25857 67.0348 5.19142C66.3633 5.02355 65.6583 4.85567 64.9868 4.72138C64.5839 4.62065 64.181 4.55351 63.7446 4.48636C62.5695 4.28491 61.3608 4.15061 60.1521 4.08347C59.9171 4.08347 59.7156 4.04989 59.4806 4.04989C59.0106 4.01632 58.5405 4.01632 58.0705 4.01632C57.5669 4.01632 57.0633 4.01632 56.5597 4.04989C55.1831 4.11704 53.8737 4.25134 52.5307 4.45278C51.087 4.6878 49.6769 4.98997 48.3004 5.39286C47.9311 5.49359 47.5953 5.59431 47.226 5.72861C46.4874 5.96363 45.7823 6.23222 45.0772 6.50081C44.0364 6.93728 43.0628 7.37375 42.0891 7.91093C41.6527 8.14595 41.2162 8.38097 40.8133 8.61599C39.2017 9.58965 37.6909 10.664 36.2808 11.8727C35.6765 12.4099 35.0721 12.9806 34.5014 13.5514C32.319 15.868 30.5732 18.4197 29.3645 21.2063H26.0742C27.7529 16.8081 30.6067 12.8463 34.2663 9.62322C34.3335 9.55607 34.4006 9.48893 34.5014 9.42178C36.3815 7.81021 38.4967 6.36652 40.7797 5.15784C41.2162 4.92282 41.6191 4.72138 42.0556 4.51993C43.0292 4.04989 44.0364 3.647 45.0437 3.27768C45.7487 3.00909 46.4874 2.77407 47.1924 2.57262C47.5617 2.4719 47.8975 2.37118 48.2668 2.27046C49.6434 1.90114 51.0535 1.59897 52.4972 1.39752C53.8066 1.19608 55.1495 1.09536 56.5261 1.02821C57.0297 0.994629 57.5333 0.994629 58.0369 0.994629C58.507 0.994629 58.977 0.994629 59.447 1.02821C59.6821 1.02821 59.8835 1.02821 60.1185 1.06178C61.3272 1.12893 62.5359 1.26323 63.711 1.4311C64.1139 1.49825 64.5503 1.5654 64.9532 1.63254C65.6583 1.76684 66.3298 1.90114 67.0013 2.06901C67.2027 2.10258 67.4041 2.16973 67.6056 2.23688C68.7135 2.53905 69.7879 2.87479 70.8287 3.24411C71.2316 3.37841 71.6681 3.54628 72.071 3.71415C72.4067 3.84845 72.7425 3.98274 73.0446 4.11704L73.2461 4.21776C74.119 4.55351 74.9248 4.9564 75.697 5.39286Z" fill="black"/>
<path d="M86.8778 9.79081C86.6763 9.45506 86.4077 9.18647 86.072 9.0186C85.7363 8.85073 85.4005 8.75 85.0312 8.75C84.6955 8.75 84.3261 8.85073 83.9904 9.0186H83.9568C83.6211 9.18647 83.3861 9.45506 83.1846 9.79081C82.9832 10.1265 82.916 10.4958 82.916 10.8316C82.916 11.2009 83.0168 11.5366 83.1846 11.8724C83.3525 12.2081 83.6211 12.4767 83.9568 12.6446C84.2926 12.8125 84.6283 12.9132 84.9976 12.9132C85.3669 12.9132 85.7027 12.8125 86.0384 12.6446C86.3742 12.4767 86.6428 12.2081 86.8106 11.8724C86.9785 11.5366 87.0792 11.2009 87.0792 10.8316C87.18 10.4958 87.0792 10.1265 86.8778 9.79081ZM86.5756 11.7045C86.4077 11.9731 86.2063 12.2081 85.9377 12.3424C85.6691 12.5103 85.3669 12.5775 85.0648 12.5775C84.7626 12.5775 84.4604 12.5103 84.1919 12.3424C84.1247 12.3089 84.0576 12.2753 83.9904 12.2081C83.789 12.0738 83.6547 11.906 83.5204 11.6709C83.3525 11.4024 83.2853 11.1002 83.2853 10.798C83.2853 10.4958 83.3525 10.1937 83.5204 9.9251C83.6547 9.72366 83.789 9.55579 83.9904 9.38792C84.0576 9.35434 84.1247 9.28719 84.1919 9.25362C84.4604 9.08575 84.7626 9.0186 85.0648 9.0186C85.3669 9.0186 85.6355 9.08575 85.9377 9.25362C86.2063 9.42149 86.4413 9.62293 86.5756 9.89153C86.7435 10.1601 86.8106 10.4623 86.8106 10.7644C86.8106 11.1338 86.7435 11.4359 86.5756 11.7045Z" fill="black"/>
<path d="M51.3235 36.6836L49.7791 38.7316L48.369 40.6118H48.2683L47.1939 40.8468L45.0451 41.2833V41.1825L46.321 39.3695L47.1939 38.1273L47.8989 37.12L47.1939 37.7915L45.6159 39.3695L45.0451 39.9403L43.3328 41.6526H43.3664L42.057 41.9212L41.3184 42.0555L42.057 41.149L45.0451 37.4894L45.7166 36.6836H51.3235Z" fill="black"/>
<path d="M58.0369 57.2985C57.5333 57.2985 57.0297 57.2985 56.526 57.2649C55.1495 57.1978 53.8401 57.0635 52.4971 56.862C51.1542 56.6606 49.8448 56.3584 48.5354 55.9891L48.4011 56.0227L48.3003 56.2241H47.461L47.1924 56.2913L45.0436 56.7277L42.8613 57.1642C43.5664 57.4664 44.305 57.7685 45.0436 58.0371C45.7487 58.3057 46.4538 58.5407 47.1924 58.7422C47.5617 58.8429 47.8975 58.9436 48.2668 59.0443C49.6433 59.4137 51.0534 59.7158 52.4971 59.9173C53.8065 60.1187 55.1495 60.2194 56.526 60.2866C57.0297 60.3202 57.5333 60.3202 58.0369 60.3202C58.5069 60.3202 58.977 60.3202 59.447 60.2866C59.682 60.2866 59.8835 60.253 60.1185 60.253C61.3272 60.1859 62.5358 60.0516 63.7109 59.8837C64.1138 59.8165 64.5503 59.7494 64.9532 59.6823C65.6582 59.548 66.3297 59.4137 67.0012 59.2458C67.2027 59.2122 67.4041 59.1451 67.6056 59.0779C68.7135 58.7757 69.7879 58.4736 70.8287 58.0707C71.2316 57.9364 71.668 57.7685 72.0709 57.6006C72.4067 57.4664 72.7424 57.3321 73.0446 57.1978L73.1789 57.1306L73.0446 57.097L72.0709 56.8956L70.8287 56.627L68.6464 56.157H67.6391L67.6056 56.0898L67.5384 55.9219H67.5048C67.337 55.9555 67.1691 56.0227 67.0012 56.0562C66.3297 56.2241 65.6247 56.392 64.9532 56.5263C64.5503 56.5934 64.1474 56.6941 63.7109 56.7613C62.5358 56.9627 61.3272 57.097 60.1185 57.1642C59.8835 57.1642 59.682 57.1978 59.447 57.1978C58.977 57.2985 58.5069 57.2985 58.0369 57.2985Z" fill="black"/>
<path d="M79.7939 58.0709L73.2805 50.0802L73.0791 49.8116L72.1054 48.603L70.8632 47.0921L67.64 43.1639L67.0357 42.3917L65.4913 40.5116L65.0548 40.0079L65.6927 40.1422L66.1628 40.243L65.4577 38.6985L64.9205 37.4563L64.5512 36.6505H60.153L61.4959 40.5116H60.0858L60.0522 39.9072L59.9515 36.6505H55.9226L55.8555 38.2621L55.7883 40.5451H54.3782L55.1504 38.2621L55.6876 36.6505H51.3901L50.4836 38.665L49.7785 40.243L50.4164 40.1087L51.0879 39.9744L50.6515 40.478L48.3013 43.3654L47.2269 44.6748L45.0781 47.2936L42.09 50.9532L40.8142 52.4976L36.3488 58.0709L40.8142 57.1308L41.62 56.9629H41.3849L42.09 56.2579L43.9702 54.3777L45.0781 53.2698L46.5554 51.7925L45.0781 53.9413L44.776 54.3777L43.2315 56.6272L45.0781 56.2243L47.059 55.8214L47.2269 55.5864L48.3013 54.1763L48.7041 53.6391L50.6515 51.0539L49.5099 53.6391L48.7041 55.4857L52.5652 54.6799L54.5125 54.277L54.9154 53.1355L55.7883 50.5503L55.6876 53.1355L55.654 54.0084H55.7212L55.8219 53.9748L55.9226 54.042L56.5605 54.5456L58.1385 55.7878L59.4815 54.7135L60.153 54.2099L60.3208 54.0756L60.4216 54.0084L60.388 53.1355L60.2873 50.5503L61.1938 53.1355L61.5631 54.2434L63.779 54.7135L65.0212 54.9821L67.0693 55.4185L67.3714 55.4857L67.0693 54.8142L66.5657 53.6727L65.4241 51.0874L67.0693 53.2698L67.3714 53.6727L67.7072 54.1091L69.0166 55.8214L70.9303 56.2243L72.1726 56.4929L72.844 56.6272L72.1726 55.6536L71.3332 54.4449L70.9639 53.9077L69.5538 51.8932L70.9639 53.3034L72.139 54.4785L72.2061 54.5456L73.1798 55.5193L73.3812 55.7207L74.7242 57.0637H74.6235L79.7939 58.0709ZM73.2805 40.1758L73.0791 39.9072L72.1054 38.6985L70.8632 37.1877L70.4267 36.6505H64.6855L64.9541 37.0198L66.1963 38.665L67.0021 39.7393L67.6065 40.5116H67.64L70.8632 41.183L70.9975 41.2166L70.8632 41.0152L69.6881 39.3029L68.1101 37.0198L70.3931 39.3029L70.8632 39.7729L72.1054 40.9816L72.6426 41.5188L73.0791 41.6195L73.2805 41.6531L74.8249 41.9888L73.2805 40.1758ZM85.0651 16.4724L83.9907 16.0023L73.2805 11.1676L73.0791 11.0669L72.1054 10.6304L70.8632 10.0597L68.8151 9.11963L68.6473 9.05248L68.4794 9.15321L67.64 9.72397L67.0357 10.1268L64.9877 11.5034L63.7454 12.3427L60.8916 14.2565L60.8245 14.1557C60.5894 13.7193 60.3544 13.2492 60.1194 12.7792C59.8844 12.3092 59.6829 11.8055 59.4479 11.2684C58.9779 10.1268 58.5414 8.88461 58.0378 7.44092C57.5006 9.01891 57.0306 10.3954 56.4934 11.6041C56.2248 12.4099 55.889 13.0814 55.5533 13.7529L52.6995 11.2348L52.5316 11.0669H52.498L52.263 11.2348L48.2677 14.3236L47.1933 15.163L45.0445 16.8417L44.2052 17.4796L42.0229 16.1702L40.9821 15.5323L40.8478 15.4316L40.7806 15.4651L40.6463 15.5659L34.5022 19.7291L33.5957 20.3334L33.965 20.9042L34.5022 20.5349L40.7806 16.2709L40.8478 16.2373L42.0564 16.976L44.0709 18.1847L44.2723 18.319L44.4402 18.1847L45.0445 17.7146L47.1933 16.0359L48.2677 15.1965L52.4645 11.9398L52.5316 11.9734L55.2176 14.3572C54.4789 15.7002 53.606 17.0096 52.5316 18.4533C52.1287 18.9569 51.7258 19.4941 51.2894 20.0312L52.5316 19.7626L52.9345 19.6619H52.8002L53.7067 18.4533L54.6132 17.2446L54.076 18.4533L53.606 19.5276L53.9753 19.4605L54.3782 19.3933L54.2103 19.7962V19.8298L54.1767 19.8634L53.1024 21.1728H63.0739L61.9996 19.8634L61.966 19.8298V19.7962L61.8317 19.3933L62.2346 19.4605L62.436 19.4941L61.966 18.4533L61.4288 17.2446L62.3353 18.4533L63.2418 19.6619L63.7454 19.7626L64.8869 19.9977C64.4841 19.4941 64.1147 19.024 63.7454 18.554C62.7382 17.2446 61.9324 16.0695 61.2273 14.8272L63.7454 13.1149L64.9877 12.2756L67.0357 10.899L67.64 10.4961L68.6808 9.79112L70.8632 10.7647L72.1054 11.3355L73.0791 11.772L73.2805 11.8727L83.9907 16.7074L85.0651 17.1774L89.7319 19.2926L90.0005 18.6883L85.0651 16.4724ZM56.8963 18.2854L56.8627 19.4605H56.1241L56.5269 18.2854V18.2518L56.9298 17.0431L56.8963 18.2854ZM59.1457 19.4605L59.045 17.0767L59.4479 18.2854L59.8508 19.4941H59.1457V19.4605Z" fill="black"/>
<path fill-rule="evenodd" clip-rule="evenodd" d="M45.043 61.5291L45.0765 61.4956C45.1101 61.4284 45.0765 61.3949 45.043 61.3613V61.5291Z" fill="black"/>
<path fill-rule="evenodd" clip-rule="evenodd" d="M45.0437 41.1826L44.9766 41.3169L45.0437 41.2834V41.1826Z" fill="black"/>
<path fill-rule="evenodd" clip-rule="evenodd" d="M45.0433 61.6963C45.0433 61.7299 45.0098 61.7299 45.0098 61.7635C45.0098 61.797 45.0098 61.8642 45.0098 61.8978V61.6963H45.0433Z" fill="black"/>
<path d="M0.7 32.2C0.4 32.2 0.3 32.2 0.1 32.1C0.1 32.1 0 32 0 31.8C0 31.7 0.1 31.6 0.3 31.5C0.4 31.4 0.5 31.4 0.6 31.3C0.6 31.3 0.7 31.2 0.7 31.1L1.4 29.9C1.5 29.5 1.7 29.2 1.9 29C2.1 28.8 2.2 28.4 2.4 28.1C2.6 27.8 2.8 27.4 3.1 27C3.4 26.5 3.6 26.2 3.7 26.1C4.1 25.5 4.5 25 4.9 24.4C5 24.2 5.1 24.1 5.3 24.1C5.4 24 5.5 24 5.8 24C6 24 6.1 24 6.2 24.1C6.3 24.1 6.4 24.2 6.4 24.3C6.5 24.4 6.5 24.5 6.5 24.7L7.7 30L7.8 31.1C7.8 31.2 7.8 31.3 7.9 31.3C7.9 31.3 8 31.4 8.1 31.5C8.2 31.6 8.2 31.7 8.2 31.8C8.2 32 8 32.2 7.6 32.2H5.8C5.6 32.2 5.5 32.2 5.4 32.1C5.3 32.1 5.2 32 5.2 31.8C5.2 31.7 5.3 31.6 5.4 31.6C5.5 31.6 5.6 31.5 5.7 31.4C5.8 31.3 5.8 31.3 5.9 31.2C5.9 30.9 5.9 30.4 5.8 29.7V29.5H2.6C2.4 29.9 2.2 30.2 2.1 30.4C2 30.7 1.9 30.9 1.8 31C1.8 31.1 1.8 31.2 1.9 31.2C1.9 31.3 2 31.4 2 31.4C2.1 31.5 2.1 31.5 2.2 31.6C2.2 31.7 2.3 31.7 2.3 31.8C2.3 31.9 2.2 32 2 32.1C1.9 32.1 1.6 32.2 1.3 32.2H0.7ZM5.5 28.7V28.5L4.9 25.7L3.1 28.7H5.5Z" fill="black"/>
<path d="M12.1 25.3C12.1 25.2 12.1 25.2 12.1 25.1C12.1 25.1 12 25 12 24.9C11.9 24.8 11.9 24.8 11.9 24.7C11.9 24.6 11.9 24.5 11.9 24.4C12 24.2 12.2 24 12.6 24H17.3C17.6 24 17.7 24.1 17.7 24.4C17.7 24.5 17.7 24.6 17.6 24.6C17.6 24.6 17.5 24.7 17.4 24.8L17.3 24.9C16.9 25 16.9 25 16.8 25.1C16.8 25.2 16.7 25.3 16.7 25.5L15.6 30.8C15.6 30.9 15.6 30.9 15.6 30.9V31V31.1C15.6 31.2 15.6 31.3 15.7 31.3L15.8 31.4C15.9 31.5 16 31.7 16 31.8C16 32.1 15.7 32.2 15.4 32.2H13.3C13 32.2 12.8 32.1 12.8 31.8C12.8 31.7 12.9 31.6 12.9 31.6C13 31.6 13 31.5 13.1 31.5L13.2 31.4C13.3 31.3 13.4 31.3 13.4 31.2C13.4 31.1 13.5 31 13.5 30.8L14.6 25.6C14.6 25.4 14.6 25.4 14.6 25.3C14.6 25.2 14.6 25.1 14.5 25C14.4 24.9 14.2 24.9 14 24.9H13.8C13.6 24.9 13.3 25 13.1 25.3C12.9 25.5 12.6 25.9 12.3 26.3C11.9 26.8 11.6 27.4 11.2 28C10.8 28.6 10.5 29.2 10.3 29.7C10.1 30.2 10 30.6 9.9 30.9C9.9 31 9.9 31.1 10 31.2C10.1 31.3 10.1 31.4 10.2 31.4C10.3 31.5 10.4 31.5 10.4 31.6C10.4 31.7 10.5 31.7 10.5 31.8C10.4 32 10.2 32.1 9.8 32.1H8.5C8.2 32.2 8 32 8 31.8C8 31.7 8.1 31.5 8.3 31.4C8.5 31.3 8.6 31.2 8.6 31.1C8.7 31 8.7 30.9 8.8 30.7C9.1 30.4 9.2 30 9.5 29.6C9.7 29.2 9.9 28.8 10.2 28.4C10.4 28 10.7 27.6 10.9 27.3C11.1 27 11.4 26.6 11.6 26.2C11.9 25.7 12 25.4 12.1 25.3Z" fill="black"/>
<path d="M20.2988 25.5002C20.2988 25.3002 20.3988 25.2002 20.3988 25.1002C20.3988 25.0002 20.2988 24.9002 19.9988 24.9002C19.5988 24.9002 19.3988 25.0002 19.1988 25.1002C18.9988 25.2002 18.7988 25.4002 18.5988 25.6002C18.3988 25.8002 18.1988 25.9002 18.0988 25.9002C17.8988 25.9002 17.7988 25.8002 17.7988 25.5002C17.7988 25.5002 17.8988 25.3002 17.8988 25.2002C18.0988 24.7002 18.2988 24.4002 18.3988 24.3002C18.4988 24.3002 18.6988 24.2002 18.8988 24.2002H24.4988C24.7988 24.2002 24.8988 24.2002 24.9988 24.3002C24.9988 24.2002 24.9988 24.4002 24.9988 24.7002C24.9988 24.8002 24.9988 24.8002 24.9988 24.9002C24.9988 25.0002 24.9988 25.0002 24.9988 25.1002C24.9988 25.3002 24.9988 25.4002 24.9988 25.4002C24.8988 25.7002 24.7988 25.8002 24.4988 25.8002C24.3988 25.8002 24.1988 25.7002 24.0988 25.5002C23.9988 25.3002 23.7988 25.2002 23.6988 25.0002C23.5988 24.8002 23.2988 24.8002 22.8988 24.8002C22.6988 24.8002 22.4988 24.8002 22.4988 24.9002C22.3988 25.0002 22.3988 25.1002 22.2988 25.4002L21.1988 30.6002C21.1988 30.6002 21.1988 30.7002 21.1988 30.8002C21.1988 30.9002 21.1988 30.9002 21.1988 31.0002C21.1988 31.1002 21.1988 31.2002 21.2988 31.2002L21.3988 31.3002C21.4988 31.4002 21.5988 31.5002 21.5988 31.6002C21.4988 31.9002 21.2988 32.0002 20.9988 32.0002H18.8988C18.5988 32.0002 18.3988 31.9002 18.3988 31.6002C18.3988 31.5002 18.4988 31.4002 18.4988 31.4002C18.4988 31.4002 18.5988 31.3002 18.6988 31.2002L18.7988 31.1002C18.8988 31.0002 18.9988 31.0002 18.9988 30.9002C18.9988 30.8002 19.0988 30.7002 19.0988 30.5002L20.2988 25.5002Z" fill="black"/>
<path d="M24.5012 32.2C24.2012 32.2 24.1012 32.2 23.9012 32.1C23.8012 32.1 23.7012 32 23.7012 31.8C23.7012 31.7 23.8012 31.6 24.0012 31.5C24.1012 31.4 24.2012 31.4 24.3012 31.3C24.3012 31.3 24.4012 31.2 24.4012 31.1L25.1012 29.9C25.3012 29.6 25.5012 29.3 25.6012 29C25.7012 28.7 25.9012 28.4 26.1012 28.1C26.3012 27.8 26.5012 27.4 26.8012 27C27.1012 26.5 27.3012 26.2 27.4012 26.1C27.8012 25.5 28.2012 25 28.6012 24.4C28.7012 24.2 28.8012 24.1 29.0012 24.1C29.1012 24 29.3012 24 29.5012 24C29.7012 24 29.9012 24 30.0012 24.1C30.1012 24.1 30.2012 24.2 30.2012 24.3C30.3012 24.4 30.3012 24.5 30.3012 24.7L31.5012 30L31.6012 31.1C31.6012 31.2 31.6012 31.3 31.7012 31.3C31.7012 31.3 31.8012 31.4 31.9012 31.5C32.0012 31.5 32.0012 31.6 32.0012 31.8C31.9012 32.1 31.7012 32.2 31.4012 32.2H29.5012C29.3012 32.2 29.2012 32.2 29.1012 32.1C29.0012 32.1 29.0012 32 29.0012 31.8C29.0012 31.7 29.1012 31.6 29.2012 31.6C29.3012 31.6 29.4012 31.5 29.5012 31.4C29.6012 31.3 29.6012 31.3 29.7012 31.2C29.7012 30.9 29.7012 30.4 29.6012 29.7V29.5H26.5012C26.3012 29.8 26.2012 30.1 26.0012 30.4C25.9012 30.7 25.8012 30.9 25.7012 31C25.7012 31.1 25.7012 31.2 25.8012 31.2C25.8012 31.3 25.9012 31.3 26.0012 31.4C26.1012 31.5 26.1012 31.5 26.2012 31.6C26.0012 31.7 26.0012 31.7 26.0012 31.8C26.0012 31.9 25.9012 32 25.7012 32.1C25.6012 32.1 25.3012 32.2 25.0012 32.2H24.5012ZM29.3012 28.7V28.5L28.7012 25.8L26.9012 28.7H29.3012Z" fill="black"/>
<path d="M35.0012 30.8C35.0012 30.8 35.0012 30.9 35.0012 31C35.0012 31.1 35.0012 31.1 35.0012 31.2C35.0012 31.3 35.0012 31.4 35.1012 31.4L35.2012 31.5C35.3012 31.6 35.4012 31.7 35.4012 31.8C35.3012 32.1 35.1012 32.2 34.8012 32.2H32.7012C32.4012 32.2 32.2012 32.1 32.2012 31.8C32.2012 31.7 32.3012 31.6 32.3012 31.6C32.3012 31.6 32.4012 31.5 32.5012 31.4L32.6012 31.3C32.7012 31.2 32.8012 31.2 32.8012 31.1C32.9012 31.1 33.0012 31 33.0012 30.8L34.1012 25.5V25.4V25.2C34.1012 25.1 34.1012 25 34.0012 24.9L33.9012 24.8C33.8012 24.7 33.8012 24.7 33.7012 24.7C33.6012 24.7 33.7012 24.6 33.7012 24.5C33.8012 24.3 34.0012 24.1 34.3012 24.1H36.4012C36.7012 24.1 36.9012 24.2 36.9012 24.5C36.9012 24.6 36.9012 24.6 36.8012 24.7C36.8012 24.7 36.7012 24.8 36.6012 24.9L36.5012 25C36.3012 25 36.2012 25 36.2012 25.1C36.2012 25.2 36.1012 25.3 36.1012 25.5L35.3012 29.1L39.3012 25.8L39.4012 25.5V25.4V25.2C39.4012 25.1 39.4012 25 39.3012 24.9L39.2012 24.8C39.1012 24.7 39.1012 24.7 39.0012 24.7C38.9012 24.7 39.0012 24.6 39.0012 24.5C39.1012 24.3 39.3012 24.1 39.6012 24.1H41.7012C42.0012 24.1 42.2012 24.2 42.2012 24.5C42.2012 24.6 42.2012 24.6 42.1012 24.7C42.1012 24.7 42.0012 24.8 41.9012 24.9L41.8012 25C41.6012 25 41.5012 25 41.5012 25.1C41.5012 25.2 41.4012 25.3 41.4012 25.5L40.3012 30.8C40.3012 30.8 40.3012 30.9 40.3012 31C40.3012 31.1 40.3012 31.1 40.3012 31.2C40.3012 31.3 40.3012 31.4 40.4012 31.4L40.5012 31.5C40.6012 31.6 40.7012 31.7 40.7012 31.8C40.6012 32.1 40.4012 32.2 40.1012 32.2H38.0012C37.7012 32.2 37.5012 32.1 37.5012 31.8C37.5012 31.7 37.6012 31.6 37.6012 31.6C37.6012 31.6 37.7012 31.5 37.8012 31.4L37.9012 31.3C38.0012 31.2 38.1012 31.2 38.1012 31.1C38.1012 31 38.2012 30.9 38.2012 30.7L39.1012 27L35.1012 30.3L35.0012 30.8ZM40.5012 22.3C40.4012 22.6 40.2012 22.9 39.9012 23.2C39.4012 23.6 38.9012 23.9 38.2012 23.9C37.7012 23.9 37.3012 23.7 36.9012 23.4C36.6012 23.1 36.5012 22.8 36.5012 22.5C36.5012 22.5 36.5012 22.4 36.5012 22.3C36.5012 22.1 36.6012 22 36.8012 22C36.9012 22 36.9012 22.1 37.0012 22.2C37.1012 22.3 37.1012 22.4 37.2012 22.6C37.3012 22.8 37.4012 22.9 37.6012 23C37.8012 23 38.0012 23.1 38.3012 23.1C38.6012 23.1 38.8012 23 39.1012 22.9C39.4012 22.8 39.6012 22.6 39.8012 22.4C39.9012 22.3 40.0012 22.3 40.0012 22.2C40.0012 22.1 40.1012 22.1 40.1012 22.1C40.1012 22.1 40.2012 22.1 40.3012 22.1C40.4012 22.1 40.5012 22.2 40.5012 22.3Z" fill="black"/>
<path d="M44.9012 25.3C44.9012 25.2 44.9012 25.2 44.9012 25.1C44.9012 25.1 44.8012 25 44.8012 24.9C44.7012 24.8 44.7012 24.8 44.7012 24.7C44.7012 24.6 44.7012 24.5 44.7012 24.4C44.8012 24.2 45.0012 24 45.4012 24H50.1012C50.4012 24 50.5012 24.1 50.5012 24.4C50.5012 24.5 50.5012 24.6 50.4012 24.6C50.4012 24.6 50.3012 24.7 50.2012 24.8L50.1012 24.9C49.7012 25 49.7012 25 49.6012 25.1C49.6012 25.2 49.5012 25.3 49.5012 25.5L48.4012 30.8C48.4012 30.9 48.4012 30.9 48.4012 30.9V31V31.1C48.4012 31.2 48.4012 31.3 48.5012 31.3L48.6012 31.4C48.7012 31.5 48.8012 31.6 48.8012 31.7C48.8012 32 48.5012 32.1 48.2012 32.1H46.1012C45.8012 32.1 45.6012 32 45.6012 31.7C45.6012 31.6 45.7012 31.5 45.7012 31.5C45.8012 31.5 45.8012 31.4 45.9012 31.4L46.0012 31.3C46.1012 31.2 46.2012 31.2 46.2012 31.1C46.2012 31 46.3012 30.9 46.3012 30.7L47.4012 25.5C47.4012 25.3 47.4012 25.3 47.4012 25.2C47.4012 25.1 47.4012 25 47.3012 24.9C47.2012 24.8 47.0012 24.8 46.8012 24.8H46.6012C46.4012 24.8 46.1012 24.9 45.9012 25.2C45.7012 25.4 45.4012 25.8 45.1012 26.2C44.7012 26.7 44.4012 27.3 44.0012 27.9C43.6012 28.5 43.3012 29.1 43.1012 29.6C42.8012 30.1 42.7012 30.5 42.6012 30.8C42.6012 30.9 42.6012 31 42.7012 31.1C42.8012 31.2 42.8012 31.3 42.9012 31.3C43.0012 31.4 43.1012 31.4 43.1012 31.5C43.1012 31.6 43.2012 31.6 43.2012 31.7C43.1012 31.9 42.9012 32 42.5012 32H41.2012C40.8012 32 40.7012 31.9 40.7012 31.6C40.7012 31.5 40.8012 31.3 41.0012 31.2C41.2012 31.1 41.3012 31 41.3012 30.9C41.4012 30.8 41.4012 30.7 41.5012 30.5C41.8012 30.4 42.0012 30 42.2012 29.6C42.4012 29.2 42.6012 28.8 42.9012 28.4C43.1012 28 43.4012 27.6 43.6012 27.3C43.8012 27 44.1012 26.6 44.3012 26.2C44.7012 25.7 44.8012 25.4 44.9012 25.3Z" fill="black"/>
<path d="M52.2 30.2C52.1 30.5 52.1 30.8 52.1 30.9C52.1 31.1 52.1 31.2 52.2 31.3C52.3 31.4 52.4 31.4 52.6 31.5C52.8 31.5 53.1 31.5 53.5 31.5C53.8 31.5 54 31.5 54.1 31.5C54.2 31.5 54.4 31.4 54.6 31.3C54.8 31.2 54.9 31.1 55.1 30.9C55.3 30.7 55.5 30.6 55.6 30.5C55.7 30.4 55.8 30.4 55.9 30.4C56 30.4 56.1 30.4 56.1 30.5C56.2 30.6 56.2 30.7 56.2 30.8C56.1 31 56 31.4 55.7 31.8C55.6 32 55.5 32.2 55.4 32.2C55.3 32.3 55.1 32.3 54.9 32.3H49.5C49.2 32.3 49 32.2 49 31.9C49 31.8 49.1 31.7 49.1 31.7C49.2 31.7 49.2 31.6 49.3 31.5L49.4 31.4C49.9 31.3 50 31.3 50 31.2C50 31.1 50.1 31 50.1 30.8L51.2 25.5C51.2 25.5 51.2 25.4 51.2 25.3C51.2 25.2 51.2 25.1 51.2 25.1C51.2 25 51.2 24.9 51.1 24.8L51 24.7C50.9 24.6 50.9 24.6 50.8 24.6C50.7 24.6 50.8 24.5 50.8 24.4C50.9 24.2 51.1 24 51.4 24H56.5C56.8 24 57 24 57.1 24.1C57.1 24.2 57.1 24.2 57.1 24.4C57.1 24.7 57.1 24.9 57 25.2C56.9 25.5 56.8 25.7 56.5 25.7C56.4 25.7 56.3 25.7 56.3 25.6C56.3 25.5 56.2 25.5 56.1 25.3C56.1 25.2 55.9 25 55.6 25C55.4 24.9 55 24.9 54.5 24.9C54 24.9 53.7 24.9 53.6 25C53.4 25.1 53.3 25.2 53.2 25.3L52.8 27.3H54.5C54.7 27.3 54.9 27.3 55 27.2C55.1 27.1 55.2 27.1 55.3 27C55.4 27 55.5 27 55.6 27C55.8 27 55.9 27.1 55.9 27.3C55.9 27.4 55.9 27.5 55.8 27.7C55.7 28 55.7 28.2 55.6 28.4C55.5 28.6 55.4 28.6 55.2 28.6C55.1 28.6 55 28.6 54.9 28.5C54.8 28.4 54.7 28.4 54.7 28.3C54.6 28.3 54.5 28.2 54.3 28.2H52.6L52.2 30.2Z" fill="black"/>
<path d="M64 25.2C63.7 24.9 63.3 24.8 62.9 24.8C62.1 24.8 61.4 25.1 60.8 25.8C60.3 26.4 59.9 27.2 59.7 28.1C59.6 28.4 59.6 28.7 59.6 29.1C59.6 29.6 59.7 30 59.8 30.3C59.9 30.5 60 30.7 60.2 30.9C60.4 31.1 60.6 31.2 60.8 31.3C61 31.4 61.3 31.4 61.6 31.4C61.9 31.4 62.3 31.3 62.7 31.2C63.1 31 63.4 30.8 63.7 30.6C63.8 30.5 63.8 30.5 63.9 30.4C64 30.3 64 30.3 64.1 30.3C64.2 30.3 64.2 30.2 64.3 30.2C64.4 30.2 64.4 30.2 64.5 30.2C64.7 30.2 64.8 30.3 64.8 30.6C64.7 30.8 64.6 31.1 64.3 31.3C64 31.5 63.7 31.8 63.4 31.9C63 32.1 62.7 32.2 62.3 32.3C61.9 32.4 61.5 32.4 61.1 32.4C60.4 32.4 59.8 32.3 59.3 32C58.8 31.7 58.3 31.4 58 30.9C57.7 30.4 57.5 29.9 57.5 29.2C57.5 28.9 57.5 28.6 57.6 28.3C57.7 27.7 58 27.1 58.3 26.6C58.7 26.1 59.1 25.6 59.6 25.2C60.1 24.8 60.7 24.5 61.3 24.3C61.9 24.1 62.5 24 63.1 24C63.6 24 64 24.1 64.4 24.2C64.8 24.3 65.2 24.5 65.5 24.7C65.7 24.8 65.8 24.9 65.8 25.1C65.8 25.2 65.8 25.4 65.7 25.7C65.7 26 65.6 26.2 65.6 26.3C65.6 26.4 65.5 26.5 65.4 26.6C65.3 26.7 65.2 26.7 65 26.7C64.9 26.7 64.8 26.7 64.7 26.6C64.7 26.5 64.6 26.4 64.5 26.2C64.4 26 64.4 25.8 64.3 25.7C64.2 25.4 64.1 25.3 64 25.2Z" fill="black"/>
<path d="M68.7012 25.5002C68.7012 25.3002 68.8012 25.2002 68.8012 25.1002C68.8012 25.0002 68.7012 24.9002 68.4012 24.9002C68.0012 24.9002 67.8012 25.0002 67.6012 25.1002C67.4012 25.2002 67.2012 25.4002 67.0012 25.6002C66.8012 25.8002 66.6012 25.9002 66.5012 25.9002C66.3012 25.9002 66.2012 25.8002 66.2012 25.5002C66.2012 25.5002 66.3012 25.3002 66.3012 25.2002C66.5012 24.7002 66.7012 24.4002 66.8012 24.3002C66.9012 24.3002 67.1012 24.2002 67.3012 24.2002H72.9012C73.2012 24.2002 73.3012 24.2002 73.4012 24.3002C73.5012 24.4002 73.5012 24.5002 73.5012 24.8002C73.5012 24.9002 73.5012 24.9002 73.5012 25.0002C73.5012 25.1002 73.5012 25.1002 73.5012 25.2002C73.5012 25.4002 73.5012 25.5002 73.5012 25.5002C73.4012 25.8002 73.3012 25.9002 73.0012 25.9002C72.9012 25.9002 72.7012 25.8002 72.6012 25.6002C72.5012 25.4002 72.3012 25.3002 72.2012 25.1002C72.1012 24.9002 71.8012 24.9002 71.4012 24.9002C71.2012 24.9002 71.0012 24.9002 71.0012 25.0002C70.9012 25.1002 70.9012 25.2002 70.8012 25.5002L69.7012 30.7002C69.7012 30.7002 69.7012 30.8002 69.7012 30.9002C69.7012 31.0002 69.7012 31.0002 69.7012 31.1002C69.7012 31.2002 69.7012 31.3002 69.8012 31.3002L69.9012 31.4002C69.9012 31.5002 70.0012 31.7002 70.0012 31.8002C69.9012 32.1002 69.7012 32.2002 69.4012 32.2002H67.3012C67.0012 32.2002 66.8012 32.1002 66.8012 31.8002C66.8012 31.7002 66.9012 31.6002 66.9012 31.6002C66.9012 31.6002 67.0012 31.5002 67.1012 31.4002L67.2012 31.3002C67.3012 31.2002 67.4012 31.2002 67.4012 31.1002C67.4012 31.0002 67.5012 30.9002 67.5012 30.7002L68.7012 25.5002Z" fill="black"/>
<path d="M75.2988 30.1996C75.1988 30.4996 75.1988 30.7996 75.1988 30.8996C75.1988 31.0996 75.1988 31.1996 75.2988 31.2996C75.3988 31.3996 75.4988 31.3996 75.6988 31.4996C75.8988 31.4996 76.1988 31.4996 76.5988 31.4996C76.8988 31.4996 77.0988 31.4996 77.1988 31.4996C77.2988 31.4996 77.4988 31.3996 77.6988 31.2996C77.9988 31.0996 78.1988 30.9996 78.3988 30.7996C78.5988 30.5996 78.7988 30.4996 78.8988 30.3996C78.9988 30.2996 79.0988 30.2996 79.1988 30.2996C79.2988 30.2996 79.3988 30.2996 79.3988 30.3996C79.4988 30.4996 79.4988 30.5996 79.4988 30.6996C79.3988 30.8996 79.2988 31.2996 78.9988 31.6996C78.8988 31.8996 78.7988 32.0996 78.6988 32.0996C78.5988 32.1996 78.3988 32.1996 78.1988 32.1996H72.7988C72.4988 32.1996 72.2988 32.0996 72.2988 31.7996C72.2988 31.6996 72.3988 31.5996 72.3988 31.5996C72.4988 31.5996 72.4988 31.4996 72.5988 31.3996L72.6988 31.2996C72.7988 31.1996 72.8988 31.1996 72.8988 31.0996C72.8988 30.9996 72.9988 30.8996 72.9988 30.6996L74.0988 25.3996C74.0988 25.3996 74.0988 25.2996 74.0988 25.1996C74.0988 25.0996 74.0988 24.9996 74.0988 24.9996C74.0988 24.8996 74.0988 24.7996 73.9988 24.6996L73.8988 24.5996C74.0988 24.7996 73.9988 24.6996 73.9988 24.6996C73.9988 24.6996 73.9988 24.5996 73.9988 24.4996C74.0988 24.2996 74.2988 24.0996 74.5988 24.0996H79.6988C79.9988 24.0996 80.1988 24.0996 80.2988 24.1996C80.2988 24.2996 80.2988 24.2996 80.2988 24.4996C80.2988 24.7996 80.2988 24.9996 80.1988 25.2996C80.0988 25.5996 79.9988 25.7996 79.6988 25.7996C79.5988 25.7996 79.4988 25.7996 79.4988 25.6996C79.4988 25.5996 79.3988 25.5996 79.2988 25.3996C79.1988 25.1996 78.9988 24.9996 78.6988 24.9996C78.4988 24.8996 78.0988 24.8996 77.5988 24.8996C77.0988 24.8996 76.7988 24.8996 76.6988 24.9996C76.4988 25.0996 76.3988 25.1996 76.2988 25.2996L75.8988 27.2996H77.5988C77.7988 27.2996 77.9988 27.2996 78.0988 27.1996C78.1988 27.0996 78.2988 27.0996 78.3988 26.9996C78.4988 26.9996 78.5988 26.9996 78.6988 26.9996C78.8988 26.9996 78.9988 27.0996 78.9988 27.2996C78.9988 27.3996 78.9988 27.4996 78.8988 27.6996C78.7988 27.9996 78.7988 28.1996 78.6988 28.3996C78.5988 28.5996 78.4988 28.5996 78.2988 28.5996C78.1988 28.5996 78.0988 28.5996 77.9988 28.4996C77.8988 28.3996 77.7988 28.3996 77.7988 28.2996C77.6988 28.2996 77.5988 28.1996 77.3988 28.1996H75.6988L75.2988 30.1996Z" fill="black"/>
<path d="M79.9004 32.2004C79.7004 32.2004 79.6004 32.2004 79.5004 32.1004C79.4004 32.1004 79.4004 32.0004 79.4004 31.8004C79.4004 31.7004 79.5004 31.6004 79.5004 31.6004C79.6004 31.5004 79.7004 31.5004 79.8004 31.4004C80.0004 31.3004 80.1004 31.2004 80.2004 31.1004C80.3004 31.0004 80.4004 30.9004 80.6004 30.6004L83.0004 28.1004C82.7004 27.7004 82.5004 27.3004 82.2004 26.8004C82.0004 26.3004 81.7004 25.8004 81.5004 25.2004C81.5004 25.1004 81.4004 25.0004 81.4004 24.9004C81.4004 24.8004 81.3004 24.8004 81.2004 24.7004C81.1004 24.6004 81.0004 24.6004 81.0004 24.5004C81.0004 24.4004 80.9004 24.4004 80.9004 24.2004C80.9004 24.0004 81.1004 23.9004 81.3004 23.9004H83.7004C83.9004 23.9004 84.0004 23.9004 84.0004 24.0004C84.1004 24.0004 84.1004 24.1004 84.1004 24.3004C84.1004 24.4004 84.0004 24.5004 84.0004 24.5004C84.1004 24.7004 84.0004 24.8004 84.0004 24.8004C83.9004 24.9004 83.9004 24.9004 83.9004 25.0004C83.9004 25.1004 84.0004 25.3004 84.1004 25.6004C84.2004 25.9004 84.4004 26.2004 84.5004 26.4004C84.7004 26.7004 84.8004 26.9004 84.9004 27.1004C85.3004 26.7004 85.7004 26.3004 86.1004 25.9004C86.5004 25.5004 86.7004 25.2004 86.7004 25.1004C86.7004 25.0004 86.7004 25.0004 86.6004 24.9004C86.5004 24.8004 86.5004 24.8004 86.5004 24.7004C86.4004 24.6004 86.4004 24.6004 86.3004 24.5004C86.2004 24.4004 86.3004 24.4004 86.3004 24.3004C86.3004 24.1004 86.5004 24.0004 86.9004 24.0004H88.2004C88.4004 24.0004 88.5004 24.0004 88.7004 24.1004C88.8004 24.1004 88.9004 24.2004 88.9004 24.4004C88.9004 24.5004 88.8004 24.6004 88.8004 24.6004C88.7004 24.7004 88.6004 24.7004 88.5004 24.8004C88.1004 24.9004 88.1004 25.0004 88.0004 25.0004C87.9004 25.0004 87.9004 25.1004 87.8004 25.2004L87.2004 25.8004L85.3004 27.8004L86.8004 30.4004L87.0004 30.9004C87.1004 31.1004 87.1004 31.2004 87.2004 31.2004C87.3004 31.2004 87.3004 31.3004 87.5004 31.4004C87.6004 31.5004 87.7004 31.6004 87.7004 31.8004C87.7004 32.0004 87.6004 32.0004 87.5004 32.1004C87.4004 32.1004 87.2004 32.2004 87.0004 32.2004H84.5004C84.3004 32.1004 84.3004 32.0004 84.3004 31.8004C84.3004 31.7004 84.4004 31.6004 84.4004 31.6004C84.4004 31.6004 84.5004 31.5004 84.6004 31.5004C84.7004 31.4004 84.8004 31.4004 84.8004 31.4004C84.8004 31.3004 84.7004 31.0004 84.6004 30.7004C84.4004 30.3004 84.2004 30.0004 84.0004 29.6004C83.8004 29.2004 83.6004 29.0004 83.5004 28.9004C83.3004 29.1004 83.1004 29.3004 82.8004 29.6004C82.5004 29.9004 82.3004 30.2004 82.0004 30.5004C81.8004 30.8004 81.6004 31.0004 81.6004 31.2004C81.6004 31.3004 81.6004 31.3004 81.6004 31.4004C81.6004 31.5004 81.7004 31.5004 81.7004 31.6004C81.8004 31.7004 81.8004 31.7004 81.8004 31.8004C81.8004 31.9004 81.8004 31.9004 81.8004 32.0004C81.8004 32.2004 81.6004 32.3004 81.4004 32.3004H79.9004V32.2004Z" fill="black"/>
<path d="M95.8996 24.6996C95.9996 24.4996 96.0996 24.3996 96.0996 24.2996C96.1996 24.1996 96.1996 24.1996 96.2996 24.0996C96.3996 24.0996 96.4996 24.0996 96.6996 24.0996H98.6996C98.8996 24.0996 98.9996 24.1996 98.9996 24.4996C98.9996 24.5996 98.8996 24.6996 98.7996 24.7996C98.6996 24.8996 98.5996 24.8996 98.3996 24.9996C98.2996 24.9996 98.1996 25.0996 98.0996 25.1996C97.9996 25.2996 97.9996 25.3996 97.9996 25.5996L96.9996 30.7996C96.9996 30.7996 96.9996 30.8996 96.9996 30.9996C96.9996 31.0996 96.9996 31.0996 96.9996 31.1996C96.9996 31.2996 96.9996 31.3996 97.0996 31.3996L97.1996 31.4996C97.2996 31.5996 97.3996 31.6996 97.3996 31.7996C97.2996 32.0996 97.0996 32.1996 96.7996 32.1996H94.6996C94.3996 32.1996 94.1996 32.0996 94.1996 31.7996C94.1996 31.6996 94.2996 31.5996 94.2996 31.5996C94.3996 31.5996 94.3996 31.4996 94.4996 31.4996L94.5996 31.3996C94.6996 31.2996 94.7996 31.2996 94.7996 31.1996C94.7996 31.0996 94.8996 30.9996 94.8996 30.7996L95.9996 25.9996L93.2996 30.3996C93.0996 30.5996 92.9996 30.7996 92.9996 30.8996C92.9996 30.9996 92.7996 30.9996 92.6996 30.9996C92.5996 30.9996 92.4996 31.0996 92.2996 31.0996C92.0996 31.0996 91.9996 31.0996 91.8996 31.0996C91.7996 31.0996 91.6996 30.9996 91.6996 30.9996C91.6996 30.8996 91.5996 30.7996 91.5996 30.6996L90.5996 26.1996L89.5996 30.8996C89.5996 30.9996 89.5996 31.0996 89.5996 31.2996C89.5996 31.3996 89.5996 31.3996 89.6996 31.4996C89.6996 31.4996 89.7996 31.5996 89.9996 31.5996C90.0996 31.5996 90.0996 31.6996 90.1996 31.6996C90.1996 31.6996 90.1996 31.7996 90.1996 31.8996C90.1996 31.9996 90.0996 32.0996 89.8996 32.1996C89.7996 32.1996 89.5996 32.2996 89.2996 32.2996H88.2996C88.0996 32.2996 87.8996 32.2996 87.7996 32.1996C87.6996 32.1996 87.5996 32.0996 87.5996 31.8996C87.5996 31.7996 87.6996 31.6996 87.6996 31.6996C87.6996 31.6996 87.7996 31.5996 87.8996 31.5996C88.0996 31.4996 88.1996 31.4996 88.1996 31.4996C88.1996 31.4996 88.2996 31.3996 88.3996 31.2996C88.4996 31.1996 88.4996 31.0996 88.4996 30.8996L89.5996 25.5996C89.5996 25.5996 89.5996 25.5996 89.5996 25.4996C89.5996 25.3996 89.5996 25.3996 89.5996 25.3996C89.5996 25.1996 89.4996 25.0996 89.2996 24.9996C89.1996 24.9996 89.0996 24.8996 88.9996 24.8996C88.8996 24.8996 88.8996 24.7996 88.8996 24.5996C88.8996 24.3996 88.9996 24.2996 89.0996 24.2996C89.1996 24.2996 89.3996 24.1996 89.5996 24.1996H91.9996C92.1996 24.1996 92.2996 24.1996 92.3996 24.2996C92.4996 24.3996 92.4996 24.3996 92.4996 24.4996C92.4996 24.5996 92.4996 24.6996 92.5996 24.9996L93.2996 28.8996L95.8996 24.6996Z" fill="black"/>
<path d="M98.3996 32.2C98.0996 32.2 97.9996 32.2 97.7996 32.1C97.6996 32.1 97.5996 32 97.5996 31.8C97.5996 31.7 97.6996 31.6 97.8996 31.5C97.9996 31.4 98.0996 31.4 98.1996 31.3C98.1996 31.3 98.2996 31.2 98.2996 31.1L98.9996 29.9C99.1996 29.6 99.3996 29.3 99.4996 29C99.5996 28.7 99.7996 28.4 99.9995 28.1C100.2 27.8 100.4 27.4 100.7 27C101 26.5 101.2 26.2 101.3 26.1C101.7 25.5 102.1 25 102.5 24.4C102.6 24.2 102.7 24.1 102.9 24.1C103 24.1 103.2 24 103.4 24C103.6 24 103.8 24 103.9 24.1C104 24.1 104.1 24.2 104.1 24.3C104.2 24.4 104.2 24.5 104.2 24.7L105.3 30L105.4 31.1C105.4 31.2 105.4 31.3 105.5 31.3C105.5 31.3 105.6 31.4 105.7 31.5C105.8 31.6 105.8 31.7 105.8 31.8C105.7 32.1 105.5 32.2 105.2 32.2H103.3C103.1 32.2 103 32.2 102.9 32.1C102.8 32.1 102.7 32 102.7 31.8C102.7 31.7 102.8 31.6 102.9 31.6C103 31.6 103.1 31.5 103.2 31.4C103.3 31.3 103.3 31.3 103.4 31.2C103.4 30.9 103.4 30.4 103.3 29.7V29.5H100.2C99.9995 29.8 99.8996 30.1 99.6996 30.4C99.5996 30.7 99.4996 30.9 99.3996 31C99.3996 31.1 99.3996 31.2 99.4996 31.2C99.4996 31.3 99.5996 31.3 99.6996 31.4C99.7996 31.5 99.7996 31.5 99.8996 31.6C99.8996 31.7 99.9995 31.7 99.9995 31.8C99.9995 31.9 99.8996 32 99.6996 32.1C99.5996 32.1 99.2996 32.2 98.9996 32.2H98.3996ZM103.2 28.7V28.5L102.6 25.8L100.8 28.7H103.2Z" fill="black"/>
<path d="M113.699 31.2996C114.299 31.2996 114.699 31.1996 114.799 31.0996C114.899 30.9996 114.999 30.7996 115.099 30.3996L116.199 25.4996C116.199 25.3996 116.299 25.2996 116.299 25.1996C116.299 25.0996 116.299 24.9996 116.199 24.8996L115.999 24.7996C115.899 24.6996 115.899 24.6996 115.799 24.6996C115.799 24.6996 115.799 24.5996 115.799 24.4996C115.899 24.2996 116.099 24.0996 116.399 24.0996H118.499C118.799 24.0996 118.999 24.1996 118.999 24.4996C118.999 24.5996 118.999 24.5996 118.899 24.6996C118.799 24.7996 118.799 24.7996 118.699 24.8996L118.599 24.9996C118.499 25.0996 118.399 25.0996 118.399 25.1996C118.399 25.2996 118.299 25.3996 118.299 25.5996L117.199 30.8996C117.199 30.8996 117.199 30.9996 117.199 31.0996C117.199 31.1996 117.199 31.1996 117.199 31.2996C117.199 31.3996 117.199 31.4996 117.299 31.4996L117.399 31.5996C117.499 31.6996 117.599 31.7996 117.599 31.9996C117.499 32.2996 117.299 32.3996 116.999 32.3996H106.699C106.399 32.3996 106.199 32.2996 106.199 31.9996C106.199 31.8996 106.299 31.7996 106.299 31.7996C106.399 31.7996 106.399 31.6996 106.499 31.5996L106.599 31.4996C106.699 31.3996 106.799 31.3996 106.799 31.2996C106.799 31.1996 106.899 31.0996 106.899 30.8996L107.999 25.5996V25.4996C107.999 25.3996 107.999 25.2996 107.999 25.2996C107.999 25.1996 107.999 25.0996 107.899 24.9996L107.799 24.8996C107.699 24.7996 107.699 24.7996 107.599 24.7996C107.499 24.7996 107.599 24.6996 107.599 24.5996C107.699 24.3996 107.899 24.1996 108.199 24.1996H110.299C110.599 24.1996 110.799 24.2996 110.799 24.5996C110.799 24.6996 110.799 24.6996 110.699 24.7996C110.699 24.7996 110.599 24.8996 110.499 24.9996L110.399 25.0996C110.299 25.0996 110.299 25.1996 110.199 25.1996C110.099 25.1996 110.099 25.2996 110.099 25.3996C110.099 25.4996 110.099 25.4996 109.999 25.5996C109.999 25.6996 109.999 25.6996 109.999 25.6996L108.999 30.3996C108.999 30.4996 108.999 30.4996 108.999 30.5996V30.6996V30.7996C108.999 30.8996 108.999 30.9996 109.099 31.0996C109.199 31.1996 109.499 31.2996 110.099 31.2996C110.399 31.2996 110.699 31.2996 110.799 31.1996C110.899 31.0996 111.099 30.9996 111.099 30.6996L112.199 25.5996C112.199 25.5996 112.199 25.4996 112.199 25.3996C112.199 25.2996 112.199 25.1996 112.199 25.1996C112.199 25.0996 112.199 24.9996 112.099 24.8996L111.999 24.7996C111.899 24.6996 111.899 24.6996 111.799 24.6996C111.799 24.6996 111.799 24.5996 111.799 24.4996C111.899 24.2996 112.099 24.0996 112.399 24.0996H114.499C114.799 24.0996 114.999 24.1996 114.999 24.4996C114.999 24.5996 114.999 24.6996 114.899 24.6996C114.899 24.6996 114.799 24.7996 114.699 24.8996L114.599 24.9996C114.499 24.9996 114.499 25.0996 114.399 25.0996L114.299 25.1996C114.299 25.2996 114.299 25.2996 114.299 25.3996C114.299 25.4996 114.299 25.4996 114.299 25.5996L112.999 30.6996C112.999 30.7996 112.999 30.7996 112.999 30.8996C112.999 31.0996 113.099 31.1996 113.199 31.1996C113.299 31.1996 113.499 31.2996 113.699 31.2996Z" fill="black"/>
<path d="M46.3981 64.8191C46.7605 64.8661 47.0777 65.007 47.3042 65.1949C47.5307 65.3829 47.6214 65.6177 47.5761 65.9466C47.5761 66.0406 47.5307 66.1345 47.5307 66.2285C47.4401 66.5104 47.2589 66.7922 47.0324 67.0271C46.8058 67.262 46.4887 67.45 46.0809 67.5909C45.7184 67.6849 45.2654 67.7318 44.8123 67.7318C44.3139 67.6849 43.9061 67.5439 43.5437 67.356C43.4078 67.262 43.2265 67.1211 43.1359 66.9332C43.0453 66.7453 43 66.5573 43 66.4164C43 66.3694 43 66.3224 43.0453 66.2755C43.0453 66.2285 43.0906 66.1345 43.1359 66.0875C43.1812 66.0406 43.2265 65.9936 43.3172 65.9466C43.3625 65.8996 43.4531 65.8996 43.4984 65.8996C43.6343 65.8996 43.7702 65.9936 43.8155 66.1815C43.8608 66.4164 43.9061 66.5104 43.9515 66.6043C43.9968 66.6983 44.0421 66.7453 44.1327 66.8392C44.3592 67.0271 44.6311 67.1211 44.9482 67.1681C45.2201 67.1681 45.4919 67.1211 45.7184 66.9332C45.9903 66.7922 46.1715 66.5573 46.2168 66.2755C46.2621 66.2285 46.3074 66.1345 46.3074 65.9936C46.3074 65.7587 46.2621 65.5238 46.0809 65.3828C45.945 65.2419 45.7184 65.1949 45.4013 65.148L44.767 65.101C44.6764 65.101 44.6311 65.054 44.5858 65.007C44.5405 64.96 44.5405 64.9131 44.5405 64.8191C44.5405 64.7251 44.5858 64.6782 44.6764 64.5842C44.7217 64.5372 44.8123 64.4902 44.9482 64.5372L45.5825 64.5842C45.7638 64.5842 45.945 64.5842 46.0809 64.4902C46.2168 64.3963 46.3981 64.3023 46.4887 64.2084C46.6246 64.0674 46.6699 63.9265 46.7605 63.7386C46.7605 63.6916 46.7605 63.6446 46.8058 63.5976C46.8058 63.4567 46.8058 63.3627 46.7152 63.2218C46.6246 63.1278 46.5793 63.0339 46.4434 62.9399C46.3528 62.8929 46.2168 62.8459 46.1262 62.8459C45.8544 62.8459 45.6278 62.8459 45.4466 62.9399C45.2654 62.9869 45.1294 63.0808 44.9935 63.2218C44.8576 63.3627 44.7217 63.4567 44.6311 63.5506C44.5405 63.6446 44.4498 63.6916 44.4045 63.6916C44.3139 63.6916 44.2686 63.6446 44.2686 63.5976C44.2233 63.5506 44.2233 63.5037 44.2233 63.3627C44.3139 63.0339 44.4045 62.799 44.4498 62.752C44.4951 62.658 44.5858 62.611 44.6764 62.5641C44.9482 62.4701 45.2201 62.3761 45.5372 62.3292C45.8544 62.2822 46.1262 62.2822 46.3981 62.2822C46.7605 62.3292 47.0777 62.3761 47.3042 62.4701C47.5307 62.5641 47.7573 62.705 47.8932 62.8929C48.0291 63.0808 48.0744 63.2688 48.0744 63.5037C48.0744 63.5976 48.0291 63.6916 48.0291 63.7855C47.9838 63.9735 47.8932 64.1144 47.712 64.2553C47.5307 64.4433 47.3495 64.5842 47.123 64.6782C46.8964 64.7721 46.6246 64.8191 46.3981 64.8191Z" fill="black"/>
<path d="M48.4824 68.3895C48.3011 68.3895 48.2105 68.3425 48.1199 68.3425C48.0746 68.2955 48.0293 68.2485 48.0293 68.1546C48.0293 68.1076 48.1199 68.0136 48.2558 67.9666C48.3464 67.9197 48.3918 67.8727 48.4371 67.8727C48.4824 67.8257 48.4824 67.8257 48.5277 67.7317L48.9808 66.9331C49.1167 66.7452 49.2073 66.5103 49.3432 66.3223C49.4791 66.1344 49.5698 65.9465 49.7057 65.7586C49.8416 65.5707 49.9775 65.3358 50.2041 65.0539C50.4306 64.772 50.5665 64.5841 50.6118 64.4901C50.8837 64.1143 51.1102 63.7854 51.4274 63.4566C51.518 63.3626 51.6086 63.2687 51.6539 63.2687C51.7445 63.2217 51.8351 63.2217 51.971 63.2217C52.107 63.2217 52.1976 63.2687 52.2882 63.2687C52.3335 63.3156 52.3788 63.3626 52.4241 63.4096C52.4694 63.4566 52.4694 63.5505 52.5147 63.6915L53.0584 67.215L53.1037 67.9666C53.1037 68.0136 53.1037 68.0606 53.149 68.1076C53.149 68.1076 53.1943 68.1546 53.2397 68.2015C53.285 68.2485 53.3303 68.2955 53.3303 68.4364C53.285 68.5774 53.149 68.6713 52.9225 68.6713L51.6992 68.5774C51.6086 68.5774 51.518 68.5304 51.4274 68.5304C51.382 68.4834 51.3367 68.4364 51.3367 68.3425C51.3367 68.2955 51.382 68.2485 51.4274 68.2015C51.4727 68.1546 51.5633 68.1546 51.6086 68.1076C51.6539 68.0606 51.6992 68.0606 51.6992 68.0136C51.6992 67.8257 51.6992 67.4968 51.6539 67.027V66.9331L49.7057 66.8391C49.6151 67.027 49.4791 67.215 49.3885 67.4029C49.2979 67.5908 49.2073 67.6848 49.2073 67.7787C49.2073 67.8257 49.2073 67.8727 49.2526 67.9197C49.2526 67.9666 49.2979 68.0136 49.3432 68.0606C49.3885 68.1076 49.4338 68.1546 49.4338 68.1546C49.4338 68.2015 49.4791 68.2485 49.4791 68.2955C49.4338 68.3895 49.3885 68.4364 49.2979 68.4834C49.2073 68.5304 49.0714 68.5304 48.8901 68.4834L48.4824 68.3895ZM51.6539 66.2284V66.1344L51.382 64.3022L50.1134 66.1344L51.6539 66.2284Z" fill="black"/>
<path d="M54.1459 68.9064C53.9646 68.9064 53.8287 68.8125 53.874 68.6715C53.874 68.6246 53.9193 68.5776 53.9646 68.5306C54.0099 68.4836 54.0552 68.4836 54.1006 68.4366L54.1912 68.3897C54.2818 68.3427 54.3271 68.2957 54.3271 68.2487C54.3271 68.2017 54.3724 68.1078 54.3724 67.9668L55.1426 64.5373C55.1426 64.5373 55.1426 64.4903 55.1879 64.4434C55.1879 64.3964 55.1879 64.3494 55.1879 64.3024C55.1879 64.2085 55.1426 64.1615 55.0973 64.1145L55.052 64.0675C55.0067 64.0205 54.9614 64.0205 54.9614 63.9736C54.9614 63.9266 54.9161 63.8796 54.9161 63.8326C54.9614 63.6917 55.0973 63.5977 55.3239 63.5977L57.8611 63.6447C58.0876 63.6447 58.2688 63.6447 58.4501 63.6917C58.6313 63.7387 58.7672 63.7856 58.9031 63.8796C59.175 64.0675 59.2656 64.3024 59.2656 64.6313C59.2656 64.6782 59.2656 64.7722 59.2203 64.8662C59.175 65.148 58.9938 65.3829 58.7672 65.5709C58.5407 65.7588 58.2688 65.9467 57.9517 66.0407C58.2688 66.0876 58.4954 66.2286 58.7219 66.4635C58.9031 66.6514 58.9938 66.9333 58.9938 67.2152C58.9938 67.3091 58.9938 67.4031 58.9484 67.497C58.9031 67.7319 58.8125 67.9199 58.6766 68.1078C58.5407 68.2957 58.3595 68.4836 58.1782 68.5776C57.8158 68.8125 57.3627 68.9534 56.819 68.9534L54.1459 68.9064ZM55.641 67.8729C55.5957 68.0138 55.5957 68.1078 55.5957 68.1078C55.5957 68.1548 55.5957 68.2487 55.641 68.2957C55.6863 68.3897 55.8675 68.3897 56.0941 68.3897C56.4565 68.3897 56.7737 68.2957 57.0455 68.1548C57.3174 67.9668 57.4986 67.7319 57.5892 67.4031C57.5892 67.3561 57.5892 67.2621 57.5892 67.2152C57.5892 67.0272 57.5439 66.8393 57.408 66.6984C57.2721 66.5574 57.1362 66.4635 56.9549 66.3695L55.8675 66.6044L55.641 67.8729ZM56.0488 66.0407C56.3206 65.9937 56.5472 65.8997 56.819 65.8058C57.0455 65.7118 57.2721 65.5709 57.4986 65.3829C57.6798 65.195 57.8158 65.0071 57.8611 64.7722C57.8611 64.7252 57.8611 64.6782 57.8611 64.6313C57.8611 64.3024 57.5892 64.1145 57.0455 64.1145C56.7737 64.1145 56.5925 64.1615 56.5018 64.2554C56.4112 64.3024 56.3659 64.4434 56.3659 64.6313L56.0488 66.0407Z" fill="black"/>
<path d="M60.987 68.484C60.6246 68.2021 60.398 67.7793 60.2621 67.2625C60.2168 67.0746 60.2168 66.8397 60.2168 66.6518C60.2168 66.276 60.2621 65.8531 60.398 65.4773C60.5339 65.1015 60.7152 64.7726 60.987 64.4438C61.2136 64.1149 61.5307 63.88 61.8479 63.6921C62.165 63.5042 62.5275 63.3162 62.8899 63.2693C63.2071 63.1753 63.5242 63.1753 63.8414 63.2223C64.1585 63.2693 64.3851 63.3632 64.6569 63.5042C64.8835 63.6451 65.11 63.833 65.2459 64.0679C65.4272 64.3028 65.5178 64.5847 65.6084 64.8666C65.6537 65.0545 65.6537 65.2424 65.6537 65.4773C65.6537 65.9001 65.5631 66.276 65.4272 66.6518C65.2912 67.0276 65.0647 67.3565 64.8382 67.6854C64.6116 68.0142 64.2945 68.2491 63.9773 68.484C63.6602 68.7189 63.2977 68.8599 62.9352 68.9068C62.5728 69.0008 62.2556 69.0008 61.9385 68.9068C61.5307 68.8129 61.2136 68.6719 60.987 68.484ZM64.2945 65.7592C64.2945 65.4773 64.2492 65.1954 64.2039 64.9605C64.1132 64.5377 63.9773 64.2558 63.7508 64.0209C63.5242 63.786 63.2524 63.7391 62.8899 63.833C62.6634 63.88 62.4369 64.0209 62.2556 64.2089C62.0744 64.3968 61.9385 64.6317 61.8026 64.9136C61.6213 65.2894 61.5307 65.7592 61.5307 66.3229C61.5307 66.6048 61.576 66.8867 61.6213 67.1216C61.6666 67.3565 61.7572 67.5914 61.8479 67.7793C61.9385 67.9672 62.0744 68.1082 62.2556 68.2021C62.4369 68.2961 62.6181 68.2961 62.8899 68.2491C63.1618 68.2021 63.3883 68.0612 63.5695 67.9203C63.7508 67.7323 63.8867 67.5444 64.0226 67.3095C64.1132 67.0746 64.2039 66.7927 64.2492 66.5578C64.2492 66.276 64.2945 65.9941 64.2945 65.7592Z" fill="black"/>
<path d="M66.1519 67.8728C66.1972 67.8258 66.2425 67.7319 66.2879 67.685C66.3332 67.638 66.3332 67.544 66.3785 67.4031C66.4238 67.1212 66.5144 66.8862 66.605 66.6043C66.6956 66.3225 66.7862 66.0407 66.8769 65.7588C66.9675 65.4769 67.0581 65.195 67.1487 64.9601C67.2393 64.7252 67.3299 64.4434 67.4658 64.1615C67.6018 63.7856 67.6924 63.5507 67.6924 63.5038C67.6924 63.4568 67.6471 63.4098 67.6471 63.4098C67.6471 63.4098 67.6018 63.3628 67.5565 63.3158C67.5112 63.2689 67.4658 63.2219 67.4658 63.2219C67.4205 63.1749 67.4205 63.1279 67.4205 63.0809C67.4205 62.893 67.5565 62.7991 67.783 62.7521L70.5467 62.0004C70.728 61.9534 70.8639 62.0004 70.8639 62.1883C70.8639 62.2353 70.8639 62.2823 70.8186 62.3293C70.7733 62.3762 70.7733 62.4232 70.728 62.4702L70.6374 62.5172C70.5921 62.5642 70.5467 62.6111 70.5467 62.6581C70.5467 62.7051 70.5467 62.7991 70.5467 62.94V66.4634C70.5467 66.5573 70.5467 66.6044 70.5467 66.6514C70.5467 66.6984 70.5921 66.7454 70.6374 66.7923C70.6827 66.8393 70.728 66.8392 70.8186 66.8392C70.8639 66.8392 70.9092 66.8863 70.9545 66.9333C70.9998 66.9803 70.9998 67.0741 70.9998 67.1211C71.0451 67.309 71.0451 67.497 71.0451 67.638C71.0451 67.7319 71.0451 67.7788 70.9998 67.8728C70.9545 67.9198 70.9092 67.9667 70.8186 68.0137C70.7733 68.0137 70.6827 68.0138 70.6374 67.9668C70.5921 67.9199 70.5014 67.8729 70.4561 67.7789C70.3655 67.7319 70.2749 67.685 70.1843 67.638C70.0937 67.591 69.9124 67.591 69.7312 67.638L67.3299 68.1548C67.1034 68.2017 66.9222 68.2956 66.8315 68.3896C66.7409 68.4835 66.605 68.6245 66.5144 68.7655C66.4238 68.9064 66.2879 69.0004 66.2425 69.0004C66.1066 69.0474 66.016 68.9534 65.9707 68.7655C65.9707 68.7185 65.9707 68.7185 65.9707 68.6246C65.9707 68.5776 65.9707 68.5306 65.9707 68.4836C65.9707 68.3897 65.9707 68.2957 66.016 68.1548C66.0613 68.0138 66.1066 67.9198 66.1519 67.8728C66.1519 67.8728 66.1972 67.8729 66.1972 67.8259C66.1066 67.8729 66.1519 67.8728 66.1519 67.8728ZM69.0063 67.2151C69.1875 67.1681 69.2781 67.0272 69.2781 66.7454V63.2689C69.2781 63.2219 69.2781 63.1279 69.2781 63.0809C69.2781 62.987 69.2328 62.94 69.1422 62.893C69.0969 62.893 68.961 62.893 68.8251 62.893L68.6891 62.94C68.5532 62.987 68.4173 63.0809 68.2814 63.2219C68.1908 63.4098 68.0548 63.6447 67.9189 63.9736C67.8283 64.2554 67.6924 64.5373 67.6018 64.8662C67.4658 65.195 67.3752 65.5238 67.2846 65.8057C67.194 66.0876 67.1487 66.3695 67.1034 66.6514C67.0581 66.8863 67.0128 67.1212 67.0128 67.2621C67.0581 67.3561 67.0581 67.45 67.1034 67.4969C67.1487 67.5439 67.2393 67.5439 67.3299 67.4969L69.0063 67.2151Z" fill="black"/>
</g>
<defs>
<clipPath id="clip0">
<rect width="119" height="69" fill="black"/>
</clipPath>
</defs>
</svg>
