<svg xmlns="http://www.w3.org/2000/svg" xmlns:xlink="http://www.w3.org/1999/xlink" id="Слой_1" x="0px" y="0px" viewBox="0 0 448.4 114.5" style="enable-background:new 0 0 448.4 114.5;" xml:space="preserve"> <style type="text/css"> .st0{fill:#0983d6;} </style> <g id="Слой_1__x28_копия_x29_"> <path class="st0" d="M183,88.8h-12.7V37c0-0.5-0.2-0.9-0.5-1.3c-0.3-0.4-0.8-0.6-1.3-0.6h-5.2c-0.5,0-0.9,0.2-1.3,0.6 c-0.3,0.4-0.5,0.8-0.5,1.3v51.8h-12.7V38.2c0-8.3,3.9-12.5,11.8-12.5h10.7c7.8,0,11.8,4.2,11.8,12.5v50.6H183z"></path> <path class="st0" d="M195.1,88.8V46.7h12.7v42.2L195.1,88.8L195.1,88.8z"></path> <path class="st0" d="M195.1,42.6v-7.4h12.7v7.4H195.1z"></path> <path class="st0" d="M236.8,81.8h3.8v8h-8.9c-7.8,0-11.8-4.2-11.8-12.5V35.1h12.7v7.4h8v9.2h-8v25.5c0,1.8,0.3,3,1,3.6 C234.4,81.5,235.4,81.8,236.8,81.8z"></path> <path class="st0" d="M269.1,41.6h2.5v12.3h-6.3c-2.2,0-3.2,1.1-3.2,3.3v31.6h-12.7V42.6H261V45C262.8,41.3,265.5,41.6,269.1,41.6z"></path> <path class="st0" d="M313.3,54.1v23.1c0,8.3-3.9,12.5-11.8,12.5h-10.7c-7.8,0-11.8-4.2-11.8-12.5V54.1c0-8.3,3.9-12.5,11.8-12.5 h10.7C309.4,41.6,313.3,45.8,313.3,54.1z M300.6,79.9V51.4c0-0.5-0.2-0.9-0.5-1.3c-0.3-0.4-0.8-0.6-1.3-0.6h-5.2 c-0.5,0-0.9,0.2-1.3,0.6c-0.3,0.4-0.5,0.8-0.5,1.3v28.5c0,0.5,0.2,0.9,0.5,1.3s0.8,0.6,1.3,0.6h5.2c0.5,0,0.9-0.2,1.3-0.6 C300.4,80.9,300.6,80.4,300.6,79.9z"></path> <path class="st0" d="M358.3,42.6v52.9c0,8.3-3.9,12.5-11.8,12.5h-10.7c-7.8,0-11.8-4.2-11.8-12.5V94h12.7v3c0,0.5,0.2,0.9,0.5,1.3 s0.8,0.6,1.3,0.6h5.2c0.5,0,0.9-0.2,1.3-0.6c0.3-0.4,0.5-0.8,0.5-1.3v-9.5c-2,1.5-4.6,2.3-7.8,2.3h-2c-7.8,0-11.8-4.2-11.8-12.5 V54.1c0-8.3,3.9-12.5,11.8-12.5h2c4.6,0,7.8,0.4,9.8,3.3v-2.4h10.8V42.6z M345.6,79.9V51.4c0-0.5-0.2-0.9-0.5-1.3 c-0.3-0.4-0.8-0.6-1.3-0.6h-5.2c-0.5,0-0.9,0.2-1.3,0.6c-0.3,0.4-0.5,0.8-0.5,1.3v28.5c0,0.5,0.2,0.9,0.5,1.3s0.8,0.6,1.3,0.6h5.2 c0.5,0,0.9-0.2,1.3-0.6C345.5,80.9,345.6,80.4,345.6,79.9z"></path> <path class="st0" d="M391.6,41.6c7.8,0,11.8,4.2,11.8,12.5v15h-21.5v10.8c0,0.5,0.2,0.9,0.5,1.3s0.8,0.6,1.3,0.6h5.2 c0.5,0,0.9-0.2,1.3-0.6c0.3-0.4,0.5-0.8,0.5-1.3v-6.7h12.7v4c0,8.3-3.9,12.5-11.8,12.5h-10.7c-7.8,0-11.8-4.2-11.8-12.5V54.1 c0-8.3,3.9-12.5,11.8-12.5H391.6z M381.9,60.8h8.8v-9.4c0-0.5-0.2-0.9-0.5-1.3c-0.3-0.4-0.8-0.6-1.3-0.6h-5.2 c-0.5,0-0.9,0.2-1.3,0.6c-0.3,0.4-0.5,0.8-0.5,1.3V60.8z"></path> <path class="st0" d="M426.9,88.8h-12.7V42.6h11.6V45c2-2.2,4.9-3.3,8.9-3.3h2c7.8,0,11.8,4.2,11.8,12.5v34.7h-12.7V51.4 c0-0.5-0.2-0.9-0.5-1.3c-0.3-0.4-0.8-0.6-1.3-0.6h-5.2c-0.5,0-0.9,0.2-1.3,0.6c-0.3,0.4-0.5,0.8-0.5,1.3L426.9,88.8L426.9,88.8z"></path> </g> <g id="Слой_5__x28_копия_x29_"> <path class="st0" d="M106.5,28.1c-0.9-1.5-2.4-2.4-4.1-2.4h-12h-9.8h-4.2c-3.5,0-6.4,2.8-6.4,6.4v4.2v33.1L47.8,29 c-1.1-2-3.3-3.3-5.6-3.3h-2.1c-3.5,0-6.4,2.8-6.4,6.4v46.1H16.5c-3.2-6.3-5.1-13.4-5.1-20.9C11.5,32,32,11.5,57.2,11.5l0,0 c4.9,0,9.6,0.8,14,2.2c2.8,0.9,5.8-0.4,7-3.1c1.4-3.1-0.2-6.8-3.4-7.8C69.3,1,63.4,0,57.2,0l0,0c-0.4,0-0.8,0-1.2,0 C25.2,0.7,0.2,26.2,0,57c-0.1,10.7,2.9,20.8,8,29.4c0.9,1.5,2.4,2.4,4.1,2.4h12h9.8h4.2c3.5,0,6.4-2.8,6.4-6.4v-4.2V45l22.2,40.4 c1.1,2,3.3,3.3,5.6,3.3h2.1c3.5,0,6.4-2.8,6.4-6.4v-46H98c3.2,6.3,5.1,13.4,5.1,20.9c0,25.3-20.5,45.8-45.8,45.8l0,0 c-4.9,0-9.6-0.8-14-2.2c-2.8-0.9-5.8,0.4-7,3.1c-1.4,3.1,0.2,6.8,3.4,7.8c5.5,1.8,11.4,2.8,17.6,2.8l0,0c0.4,0,0.8,0,1.2,0 c30.8-0.6,55.9-26.2,56-56.9C114.5,46.8,111.6,36.7,106.5,28.1z"></path> </g> </svg> 