<svg xmlns="http://www.w3.org/2000/svg" class="logo" viewBox="0 0 291.2 87.3"><g class="icon"><path fill="#B13231" d="m4.3 35.7 7.1 8.2 11.3-2.7-9.1-13zM2.1 61.5l7.2 8.2 11.3-2.6L11.5 54z"/><path fill="#ED3237" d="m5.3 22.9-1 12.8 50.3-12.2c4.8-1.2 9-5.9 9.4-10.6L65.1 0 14.7 12.2c-4.8 1.2-9 6-9.4 10.7zM3.2 48.7 2.1 61.5l50.3-12.3c4.8-1.2 9-5.9 9.4-10.6L63 25.8 12.6 38.1c-4.8 1.1-9 5.9-9.4 10.6zM1.1 74.5 0 87.3l23.9-5.7c4.8-1.1 9-5.9 9.4-10.6l1.1-12.8-23.9 5.7c-4.8 1.2-9.1 5.9-9.4 10.6z"/></g><g class="text"><path fill="#ED3237" d="m249.6 21.9-1.4 4.4 8.8-.1c1.8 0 3.6-1.4 4.1-3l1.4-4.4-8.8.1c-1.7.1-3.6 1.4-4.1 3z"/><path fill="#373435" d="M78.7 50.7V21.4h19.6v5.5h-13V33h11.6v5.5H85.3v12.1l-6.6.1zM115.9 34c-.6-.1-1.2-.3-2-.4-.8-.2-1.6-.2-2.5-.2-.4 0-.9 0-1.4.1-.5.1-1 .1-1.2.2v17h-6.3V29.6c1.1-.4 2.5-.8 4-1.1 1.5-.4 3.2-.5 5.1-.5.3 0 .7 0 1.2.1.5 0 1 .1 1.4.2.5.1 1 .2 1.4.3.5.1.9.2 1.2.4l-.9 5zm3.4 5.7c0-2 .3-3.7.9-5.2.6-1.5 1.4-2.7 2.4-3.7s2.1-1.7 3.4-2.2c1.3-.5 2.6-.8 4-.8 3.2 0 5.7 1 7.5 2.9 1.8 1.9 2.7 4.8 2.7 8.5v1.2c0 .4-.1.8-.1 1.2h-14.3c.1 1.3.7 2.3 1.8 3.1 1.1.8 2.5 1.1 4.3 1.1 1.2 0 2.3-.1 3.4-.3 1.1-.2 2-.5 2.7-.8l.8 5.1c-.3.2-.8.3-1.4.5-.6.2-1.2.3-1.9.4-.7.1-1.4.2-2.2.3-.8.1-1.6.1-2.4.1-2 0-3.7-.3-5.2-.9-1.5-.6-2.7-1.4-3.7-2.4s-1.7-2.2-2.2-3.7c-.3-1.2-.5-2.7-.5-4.4zm14.8-2.4c0-.5-.1-1.1-.3-1.6-.2-.5-.4-1-.7-1.4-.3-.4-.7-.7-1.2-1-.5-.3-1.1-.4-1.8-.4s-1.3.1-1.8.4c-.5.2-.9.6-1.3 1-.3.4-.6.9-.8 1.4-.2.5-.3 1-.4 1.6h8.3zm9.9 2.4c0-2 .3-3.7.9-5.2.6-1.5 1.4-2.7 2.4-3.7s2.1-1.7 3.4-2.2c1.3-.5 2.6-.8 4-.8 3.2 0 5.7 1 7.5 2.9 1.8 1.9 2.7 4.8 2.7 8.5v1.2c0 .4-.1.8-.1 1.2h-14.3c.1 1.3.7 2.3 1.8 3.1 1.1.8 2.5 1.1 4.3 1.1 1.2 0 2.3-.1 3.4-.3 1.1-.2 2-.5 2.7-.8l.8 5.1c-.3.2-.8.3-1.4.5-.6.2-1.2.3-1.9.4-.7.1-1.4.2-2.2.3-.8.1-1.6.1-2.4.1-2 0-3.7-.3-5.2-.9s-2.7-1.4-3.7-2.4-1.7-2.2-2.2-3.7c-.3-1.2-.5-2.7-.5-4.4zm14.8-2.4c0-.5-.1-1.1-.3-1.6-.2-.5-.4-1-.7-1.4-.3-.4-.7-.7-1.2-1-.5-.3-1.1-.4-1.8-.4s-1.3.1-1.8.4c-.5.2-.9.6-1.3 1-.3.4-.6.9-.8 1.4-.2.5-.3 1-.4 1.6h8.3zm23.1 1.6c0-2-.3-3.5-.8-4.3-.5-.8-1.4-1.3-2.7-1.3-.4 0-.8 0-1.2.1-.4 0-.8.1-1.2.1v17.2h-6.3V29.2c.5-.1 1.2-.3 1.9-.4.7-.2 1.5-.3 2.3-.4.8-.1 1.6-.2 2.5-.3.8-.1 1.7-.1 2.5-.1 1.6 0 2.9.2 3.9.6 1 .4 1.8.9 2.5 1.5.9-.6 1.9-1.2 3.1-1.5 1.2-.4 2.2-.5 3.2-.5 1.8 0 3.2.2 4.4.7 1.1.5 2.1 1.2 2.7 2.1.7.9 1.1 2 1.4 3.2.3 1.2.4 2.6.4 4.1v12.6h-6.3V38.9c0-2-.3-3.5-.8-4.3s-1.4-1.3-2.7-1.3c-.3 0-.8.1-1.4.3-.6.2-1.1.4-1.5.6.2.6.3 1.3.4 2 .1.7.1 1.5.1 2.3v12.1H182V38.9h-.1zm32.7 7.4h1.8c.6 0 1-.1 1.4-.1v-4.8c-.3-.1-.6-.1-1.1-.2-.5-.1-1-.1-1.4-.1-.6 0-1.1 0-1.7.1-.5.1-1 .2-1.4.4-.4.2-.7.5-.9.8s-.3.8-.3 1.3c0 1 .3 1.7 1 2 .6.4 1.5.6 2.6.6zm-.5-18.5c1.9 0 3.4.2 4.7.6 1.2.4 2.2 1 3 1.8.7.8 1.3 1.7 1.6 2.9.3 1.1.5 2.4.5 3.8V50c-.9.2-2.2.4-3.8.7-1.6.3-3.6.4-5.8.4-1.4 0-2.7-.1-3.9-.4-1.2-.3-2.2-.7-3-1.2-.8-.6-1.5-1.3-1.9-2.3-.5-.9-.7-2.1-.7-3.4 0-1.3.3-2.4.8-3.3.5-.9 1.2-1.6 2.1-2.2.9-.5 1.9-.9 3-1.2 1.1-.2 2.3-.4 3.5-.4.8 0 1.5 0 2.2.1.6.1 1.1.2 1.5.3v-.6c0-1.1-.3-1.9-1-2.6-.6-.6-1.8-1-3.4-1-1.1 0-2.1.1-3.2.2-1 .2-1.9.4-2.7.7l-.8-5.1c.4-.1.8-.2 1.4-.4.5-.1 1.1-.2 1.8-.3.6-.1 1.3-.2 2-.3s1.4.1 2.1.1zm15.2-4.9 6.3-1v6.6h7.6v5.2h-7.6v7.8c0 1.3.2 2.4.7 3.2.5.8 1.4 1.2 2.8 1.2.7 0 1.4-.1 2.1-.2.7-.1 1.4-.3 2-.5l.9 4.9c-.8.3-1.6.6-2.5.8-.9.2-2.1.3-3.4.3-1.7 0-3.1-.2-4.3-.7-1.1-.5-2-1.1-2.7-1.9-.7-.8-1.1-1.8-1.4-3-.3-1.2-.4-2.5-.4-3.9V22.9h-.1zm25.3 27.8h-6.3V28.4h6.3v22.3zm11.3-11c0 4 1.5 6 4.5 6 .6 0 1.3-.1 1.9-.3.6-.2 1.1-.4 1.5-.6V33.5c-.3-.1-.7-.1-1.2-.1s-1-.1-1.6-.1c-1.7 0-3 .6-3.9 1.8-.8 1.1-1.2 2.7-1.2 4.6zm-6.4-.2c0-1.7.3-3.3.8-4.7.5-1.4 1.3-2.6 2.3-3.7 1-1 2.2-1.8 3.6-2.4 1.4-.6 3.1-.8 4.9-.8.8 0 1.6 0 2.4.1.8.1 1.6.2 2.5.3.8.1 1.6.2 2.3.4.7.2 1.4.3 1.9.5v29.3h-6.3v-8.4c-.7.3-1.4.5-2.2.7-.8.2-1.6.3-2.5.3-3.2 0-5.6-1-7.2-3.1-1.7-2.1-2.5-4.9-2.5-8.5zm23.3-17c0-.7.2-1.3.5-1.8.3-.6.8-1 1.3-1.3.6-.3 1.2-.5 1.9-.5s1.3.2 1.9.5c.6.3 1 .8 1.3 1.4.3.6.5 1.2.5 1.8 0 .7-.2 1.3-.5 1.9-.3.6-.8 1-1.3 1.3-.6.3-1.2.5-1.8.5-.7 0-1.3-.2-1.9-.5-.6-.3-1-.8-1.3-1.3-.4-.7-.6-1.3-.6-2zm.7 0c0 .5.1 1.1.4 1.5.3.5.6.8 1.1 1.1.5.3 1 .4 1.5.4s1.1-.1 1.5-.4c.5-.3.8-.6 1.1-1.1.3-.5.4-1 .4-1.5s-.1-1-.4-1.5-.6-.8-1.1-1.1c-.5-.3-1-.4-1.5-.4s-1 .1-1.5.4c-.5.3-.8.6-1.1 1.1-.2.5-.4 1-.4 1.5zm3.4-1.9c.4 0 .7.1.9.3.2.2.3.5.3.8 0 .3-.1.6-.3.8-.2.2-.5.3-.8.3.1 0 .3.1.4.2.1.1.3.3.5.7l.5.8h-.9l-.2-.3c-.2-.3-.3-.6-.4-.8-.1-.2-.3-.3-.4-.4-.1-.1-.2-.1-.4-.1h-.3v1.6h-.8v-3.9h1.9zm-.3 1.7c.2 0 .4 0 .5-.1.1-.1.2-.2.2-.4s-.1-.3-.2-.4c-.1-.1-.3-.1-.5-.1h-.9v1.1h.9zM78.2 61.5h1.2V74h-1.2V61.5zm12.9 0v1.1h-4V74h-1.2V62.5h-4v-1.1h9.2zm8.9 11.6c.7 0 1.2-.1 1.7-.3.4-.2.7-.6.7-1.1 0-.3 0-.5-.1-.6-.1-.2-.2-.3-.4-.5-.2-.1-.4-.3-.7-.4s-.7-.3-1.1-.5c-.3-.1-.7-.3-1-.4-.3-.1-.6-.3-.8-.5-.2-.2-.4-.4-.6-.7-.1-.3-.2-.6-.2-1 0-.8.3-1.4.9-1.8.6-.5 1.4-.7 2.3-.7.6 0 1.2.1 1.6.2.4.1.7.2.9.3l-.3 1c-.1-.1-.4-.2-.7-.3-.3-.1-.8-.2-1.5-.2-.3 0-.5 0-.7.1-.2.1-.4.1-.6.3l-.4.4c-.1.2-.2.4-.2.6 0 .3 0 .5.1.6s.2.3.4.5c.2.1.4.3.7.4s.6.3.9.4c.4.1.7.3 1 .4.3.1.6.3.9.5s.5.5.6.8c.2.3.2.7.2 1.1 0 .8-.3 1.5-.9 1.9-.6.4-1.5.6-2.6.6-.8 0-1.4-.1-1.9-.2s-.7-.2-.9-.3l.3-1.1s.1.1.2.1c.1.1.3.1.5.2s.4.1.7.2h1zm14.3-3.8c0 .7-.1 1.4-.3 2-.2.6-.5 1.1-.9 1.5s-.8.7-1.3 1c-.5.2-1.1.4-1.7.4s-1.2-.1-1.7-.4c-.5-.2-1-.6-1.3-1s-.7-.9-.9-1.5c-.2-.6-.3-1.3-.3-2s.1-1.4.3-2c.2-.6.5-1.1.9-1.5s.8-.8 1.3-1 1.1-.4 1.7-.4 1.2.1 1.7.4c.5.2 1 .6 1.3 1s.7.9.9 1.5c.2.6.3 1.3.3 2zm-1.3 0c0-1.2-.3-2.1-.8-2.8s-1.3-1-2.2-1c-.9 0-1.7.3-2.2 1s-.8 1.6-.8 2.8.3 2.1.8 2.8 1.3 1 2.2 1c.9 0 1.7-.3 2.2-1s.8-1.6.8-2.8zm6.7 4.8c-.4 0-.7-.1-1-.2-.3-.1-.5-.2-.7-.4-.2-.2-.3-.4-.4-.7-.1-.3-.2-.7-.2-1.1V60.2l1.2-.2v11.7c0 .3 0 .5.1.7.1.2.1.3.2.4.1.1.2.2.4.2s.4.1.6.1l-.2 1zm9.9-.5c-.3.1-.8.2-1.4.3-.6.1-1.3.2-2.2.2-.7 0-1.3-.1-1.7-.3-.5-.2-.8-.5-1.1-.9-.3-.4-.5-.8-.6-1.3s-.2-1.1-.2-1.7v-5.2h1.2v4.8c0 .7 0 1.2.1 1.7s.3.8.5 1.1c.2.3.5.5.8.6.3.1.8.2 1.3.2.6 0 1 0 1.4-.1.4-.1.7-.1.8-.2v-8.2h1.2v9zm4.7-9h3.7v1h-3.7v5c0 .5 0 1 .1 1.3s.2.6.4.8c.2.2.4.3.6.4.2.1.5.1.8.1.5 0 .9-.1 1.2-.2.3-.1.5-.2.7-.3l.3 1c-.2.1-.5.2-.9.4s-.9.2-1.4.2c-.6 0-1.1-.1-1.4-.2-.4-.1-.7-.4-.9-.7-.2-.3-.4-.7-.5-1.1-.1-.5-.1-1-.1-1.6v-8.6l1.2-.2v2.7zm7.8-2.8c0 .3-.1.5-.3.7-.2.2-.4.2-.6.2s-.4-.1-.6-.2-.3-.4-.3-.7c0-.3.1-.5.3-.7.2-.2.4-.2.6-.2s.4.1.6.2c.2.2.3.5.3.7zm-.2 12.2h-1.2v-9.3h1.2V74zm11.5-4.7c0 .7-.1 1.4-.3 2-.2.6-.5 1.1-.9 1.5s-.8.7-1.3 1c-.5.2-1.1.4-1.7.4-.6 0-1.2-.1-1.7-.4-.5-.2-1-.6-1.3-1-.4-.4-.7-.9-.9-1.5-.2-.6-.3-1.3-.3-2s.1-1.4.3-2c.2-.6.5-1.1.9-1.5.4-.4.8-.8 1.3-1 .5-.2 1.1-.4 1.7-.4.6 0 1.2.1 1.7.4.5.2 1 .6 1.3 1s.7.9.9 1.5c.2.6.3 1.3.3 2zm-1.2 0c0-1.2-.3-2.1-.8-2.8s-1.3-1-2.2-1c-.9 0-1.7.3-2.2 1s-.8 1.6-.8 2.8.3 2.1.8 2.8 1.3 1 2.2 1c.9 0 1.7-.3 2.2-1s.8-1.6.8-2.8zm4.3-4.3c.3-.1.8-.2 1.4-.3s1.3-.2 2.2-.2c.7 0 1.3.1 1.8.3.5.2.9.5 1.1.9.3.4.5.8.6 1.4.1.5.2 1.1.2 1.7V74h-1.2v-4.8c0-.7 0-1.2-.1-1.7s-.2-.8-.5-1.1-.5-.5-.8-.6-.8-.2-1.3-.2c-.6 0-1 0-1.4.1-.4.1-.7.1-.8.2V74h-1.2v-9zm12.6 8.1c.7 0 1.2-.1 1.7-.3.4-.2.7-.6.7-1.1 0-.3 0-.5-.1-.6-.1-.2-.2-.3-.4-.5-.2-.1-.4-.3-.7-.4-.3-.1-.7-.3-1.1-.5-.3-.1-.7-.3-1-.4-.3-.1-.6-.3-.8-.5-.2-.2-.4-.4-.6-.7-.1-.3-.2-.6-.2-1 0-.8.3-1.4.9-1.8.6-.5 1.4-.7 2.3-.7.6 0 1.2.1 1.6.2.4.1.7.2.9.3l-.3 1c-.1-.1-.4-.2-.7-.3-.3-.1-.8-.2-1.5-.2-.3 0-.5 0-.7.1-.2.1-.4.1-.6.3-.2.1-.3.3-.4.4-.1.2-.2.4-.2.6 0 .3 0 .5.1.6.1.2.2.3.4.5.2.1.4.3.7.4.3.1.6.3.9.4.4.1.7.3 1 .4s.6.3.9.5.5.5.6.8c.2.3.2.7.2 1.1 0 .8-.3 1.5-.9 1.9-.6.4-1.5.6-2.6.6-.8 0-1.4-.1-1.9-.2s-.7-.2-.9-.3l.3-1.1s.1.1.2.1.3.1.5.2.4.1.7.2h1zM183.5 60c.5 0 .9 0 1.2.1.3.1.5.1.6.2l-.2 1c-.1-.1-.3-.1-.6-.2s-.6-.1-1-.1c-.8 0-1.4.2-1.8.6-.4.4-.5 1.1-.5 2v1h3.7v1h-3.7V74H180V63.6c0-1.2.3-2.1.8-2.7.7-.6 1.5-.9 2.7-.9zm11.8 9.3c0 .7-.1 1.4-.3 2-.2.6-.5 1.1-.9 1.5s-.8.7-1.3 1c-.5.2-1.1.4-1.7.4-.6 0-1.2-.1-1.7-.4-.5-.2-1-.6-1.3-1-.4-.4-.7-.9-.9-1.5-.2-.6-.3-1.3-.3-2s.1-1.4.3-2c.2-.6.5-1.1.9-1.5.4-.4.8-.8 1.3-1 .5-.2 1.1-.4 1.7-.4.6 0 1.2.1 1.7.4.5.2 1 .6 1.3 1s.7.9.9 1.5c.2.6.3 1.3.3 2zm-1.2 0c0-1.2-.3-2.1-.8-2.8s-1.3-1-2.2-1c-.9 0-1.7.3-2.2 1s-.8 1.6-.8 2.8.3 2.1.8 2.8 1.3 1 2.2 1c.9 0 1.7-.3 2.2-1s.8-1.6.8-2.8zm7.4-4.8c.4 0 .7 0 1.1.1.3.1.6.1.7.2l-.2 1c-.1 0-.3-.1-.6-.2s-.7-.1-1.2-.1-.9 0-1.2.1c-.3.1-.5.1-.6.2V74h-1.2v-8.9c.3-.1.7-.3 1.2-.4.7-.2 1.3-.2 2-.2zm9.9.7c.2-.2.5-.3 1-.5s1-.3 1.6-.3c.7 0 1.3.1 1.8.4.5.2 1 .6 1.3 1 .4.4.6.9.8 1.5.2.6.3 1.2.3 2s-.1 1.4-.3 2c-.2.6-.5 1.1-.9 1.5-.4.4-.9.7-1.4 1s-1.2.3-1.9.3c-.8 0-1.5-.1-2.1-.2-.5-.1-1-.2-1.3-.3V60.2l1.2-.2v5.2zm0 7.7c.2.1.4.1.8.2s.8.1 1.4.1c1 0 1.8-.3 2.4-1 .6-.7.9-1.6.9-2.8 0-.5-.1-1-.2-1.5s-.3-.9-.5-1.2c-.2-.3-.6-.6-.9-.8s-.9-.3-1.4-.3c-.3 0-.5 0-.8.1-.3.1-.5.1-.7.2l-.6.3c-.2.1-.3.2-.4.3v6.4zm17 .7c-.3.1-.8.2-1.4.3s-1.3.2-2.2.2c-.7 0-1.3-.1-1.7-.3s-.8-.5-1.1-.9c-.3-.4-.5-.8-.6-1.3s-.2-1.1-.2-1.7v-5.2h1.2v4.8c0 .7 0 1.2.1 1.7s.3.8.5 1.1c.2.3.5.5.8.6.3.1.8.2 1.3.2.6 0 1 0 1.4-.1.4-.1.7-.1.8-.2v-8.2h1.2v9zm5.5-.5c.7 0 1.2-.1 1.7-.3.4-.2.7-.6.7-1.1 0-.3 0-.5-.1-.6-.1-.2-.2-.3-.4-.5-.2-.1-.4-.3-.7-.4-.3-.1-.7-.3-1.1-.5-.3-.1-.7-.3-1-.4-.3-.1-.6-.3-.8-.5-.2-.2-.4-.4-.6-.7-.1-.3-.2-.6-.2-1 0-.8.3-1.4.9-1.8.6-.5 1.4-.7 2.3-.7.6 0 1.2.1 1.6.2.4.1.7.2.9.3l-.3 1c-.1-.1-.4-.2-.7-.3-.3-.1-.8-.2-1.5-.2-.3 0-.5 0-.7.1-.2.1-.4.1-.6.3-.2.1-.3.3-.4.4-.1.2-.2.4-.2.6 0 .3 0 .5.1.6.1.2.2.3.4.5.2.1.4.3.7.4.3.1.6.3.9.4.4.1.7.3 1 .4s.6.3.9.5.5.5.6.8c.2.3.2.7.2 1.1 0 .8-.3 1.5-.9 1.9-.6.4-1.5.6-2.6.6-.8 0-1.4-.1-1.9-.2s-.7-.2-.9-.3l.3-1.1s.1.1.2.1.3.1.5.2.4.1.7.2h1zm7.8-11.3c0 .3-.1.5-.3.7-.2.2-.4.2-.6.2s-.4-.1-.6-.2-.3-.4-.3-.7c0-.3.1-.5.3-.7.2-.2.4-.2.6-.2s.4.1.6.2c.2.2.3.5.3.7zm-.3 12.2h-1.2v-9.3h1.2V74zm3.7-9c.3-.1.8-.2 1.4-.3s1.3-.2 2.2-.2c.7 0 1.3.1 1.8.3.5.2.9.5 1.1.9.3.4.5.8.6 1.4.1.5.2 1.1.2 1.7V74h-1.2v-4.8c0-.7 0-1.2-.1-1.7s-.2-.8-.5-1.1-.5-.5-.8-.6-.8-.2-1.3-.2c-.6 0-1 0-1.4.1-.4.1-.7.1-.8.2V74h-1.2v-9zm10.2 4.3c0-.8.1-1.5.4-2.1.2-.6.5-1.1.9-1.5.4-.4.8-.7 1.3-.9.5-.2 1-.3 1.5-.3 1.1 0 2 .4 2.7 1.1.7.7 1 1.9 1 3.4v.6h-6.5c0 1.1.3 2 .8 2.6.5.6 1.4.9 2.5.9.6 0 1.1-.1 1.5-.2.4-.1.6-.2.8-.3l.2 1c-.2.1-.5.2-.9.3-.5.1-1 .2-1.6.2-.8 0-1.5-.1-2.1-.4-.6-.2-1-.6-1.4-1s-.6-.9-.8-1.5-.3-1.2-.3-1.9zm6.6-.7c0-1-.3-1.7-.7-2.3s-1-.8-1.8-.8c-.4 0-.8.1-1.1.3s-.6.4-.9.7-.4.6-.6 1c-.1.4-.2.8-.2 1.2h5.3zm6.2 4.5c.7 0 1.2-.1 1.7-.3.4-.2.7-.6.7-1.1 0-.3 0-.5-.1-.6-.1-.2-.2-.3-.4-.5-.2-.1-.4-.3-.7-.4-.3-.1-.7-.3-1.1-.5-.3-.1-.7-.3-1-.4-.3-.1-.6-.3-.8-.5-.2-.2-.4-.4-.6-.7-.1-.3-.2-.6-.2-1 0-.8.3-1.4.9-1.8.6-.5 1.4-.7 2.3-.7.6 0 1.2.1 1.6.2.4.1.7.2.9.3l-.3 1c-.1-.1-.4-.2-.7-.3-.3-.1-.8-.2-1.5-.2-.3 0-.5 0-.7.1-.2.1-.4.1-.6.3-.2.1-.3.3-.4.4-.1.2-.2.4-.2.6 0 .3 0 .5.1.6.1.2.2.3.4.5.2.1.4.3.7.4.3.1.6.3.9.4.4.1.7.3 1 .4s.6.3.9.5.5.5.6.8c.2.3.2.7.2 1.1 0 .8-.3 1.5-.9 1.9-.6.4-1.5.6-2.6.6-.8 0-1.4-.1-1.9-.2s-.7-.2-.9-.3l.3-1.1s.1.1.2.1.3.1.5.2.4.1.7.2h1zm8.2 0c.7 0 1.2-.1 1.7-.3.4-.2.7-.6.7-1.1 0-.3 0-.5-.1-.6-.1-.2-.2-.3-.4-.5-.2-.1-.4-.3-.7-.4-.3-.1-.7-.3-1.1-.5-.3-.1-.7-.3-1-.4-.3-.1-.6-.3-.8-.5-.2-.2-.4-.4-.6-.7-.1-.3-.2-.6-.2-1 0-.8.3-1.4.9-1.8.6-.5 1.4-.7 2.3-.7.6 0 1.2.1 1.6.2.4.1.7.2.9.3l-.3 1c-.1-.1-.4-.2-.7-.3-.3-.1-.8-.2-1.5-.2-.3 0-.5 0-.7.1-.2.1-.4.1-.6.3-.2.1-.3.3-.4.4-.1.2-.2.4-.2.6 0 .3 0 .5.1.6.1.2.2.3.4.5.2.1.4.3.7.4.3.1.6.3.9.4.4.1.7.3 1 .4s.6.3.9.5.5.5.6.8c.2.3.2.7.2 1.1 0 .8-.3 1.5-.9 1.9-.6.4-1.5.6-2.6.6-.8 0-1.4-.1-1.9-.2s-.7-.2-.9-.3l.3-1.1s.1.1.2.1.3.1.5.2.4.1.7.2h1z"/></g></svg>