<svg xmlns="http://www.w3.org/2000/svg" xml:space="preserve" width="732.215" height="218.207" style="shape-rendering:geometricPrecision;text-rendering:geometricPrecision;image-rendering:optimizeQuality;fill-rule:evenodd;clip-rule:evenodd" viewBox="0 0 19373 5773"><defs><style>.fil0{fill:#1090cf;fill-rule:nonzero}</style></defs><g id="Layer_x0020_1"><g id="_2706667801456"><path d="M1183 2538 0 2542v2378l398-4-2-933h726c227 0 410-65 543-193 135-129 204-307 204-529 0-221-61-398-181-527-122-130-292-196-505-196zm285 728c0 252-121 364-394 364H398v-739h717c244 0 353 116 353 375zm1334-18c-274 0-490 86-642 255-138 150-207 354-207 606 0 249 71 455 213 614 79 85 173 148 278 188 102 38 223 58 358 58 287 0 510-84 664-250 137-148 207-354 207-610 0-259-70-465-209-613-151-164-374-248-662-248zm-481 861c0-87 12-164 34-230 22-64 53-118 93-162 85-91 201-136 354-136 343 0 503 168 503 528 0 88-10 166-30 231-19 62-47 112-87 156-82 95-208 141-386 141-158 0-274-44-356-137-84-96-125-224-125-391zm2873-78c-82-42-221-74-423-96-257-32-354-54-389-66-84-32-95-72-95-107 0-64 22-106 70-135 42-25 127-55 296-55 321 0 362 133 362 250v56h373v-56c0-260-127-570-729-570-112 0-212 9-299 27-90 18-167 45-234 83-135 89-204 225-204 404 0 185 81 321 235 394 42 19 134 50 455 97 294 43 348 56 357 59 70 28 100 70 100 141 0 52 0 190-378 190-219 0-314-42-360-81-41-31-63-80-70-145h-382c10 83 28 156 55 215 32 72 77 131 131 174 69 56 157 97 263 121 99 22 221 34 363 34 623 0 754-290 754-533 0-186-88-325-251-401zm8524 0c-81-42-220-74-423-96-257-32-354-54-389-66-83-32-95-72-95-107 0-64 22-106 70-135 42-25 127-55 296-55 322 0 363 133 363 250v56h372v-56c0-260-126-570-729-570-111 0-212 9-299 27-90 18-166 45-234 83-135 89-203 225-203 404 0 185 81 321 235 394 41 19 134 50 454 97 295 43 348 56 357 59 70 28 100 70 100 141 0 52 0 190-378 190-218 0-314-42-359-81-41-31-63-80-70-145h-382c10 83 28 156 54 215 33 72 77 131 132 174 68 56 157 97 263 121 99 22 221 34 362 34 624 0 755-290 755-533 0-186-88-325-252-401zm-5005-624c-18-18-32-29-43-37-123-81-281-122-470-122-276 0-491 79-640 233-143 143-215 349-215 610 0 129 18 245 53 347 35 104 89 195 160 271 150 149 361 225 627 225 217 0 394-50 529-149v36c-2 298-36 349-108 425-70 73-195 110-371 110-211 0-308-41-352-76-42-33-74-102-93-199l-14-75-365 4 2 102c5 39 12 77 21 113 35 133 98 237 189 307 128 101 330 150 618 150 700 0 846-417 846-767V3295h-373l-1 112zm-273 1157c-56 23-124 34-199 34-357 0-516-156-516-507 0-162 42-283 129-371 86-87 208-130 372-130 165 0 284 43 365 130 82 90 123 208 123 363 0 168-42 297-124 382-44 43-94 77-150 99zm1318-1222c-7 5-13 9-18 14v-60h-367l2 1619h365v-793c0-467 213-521 374-521 43 0 246 2 246 2v-355h-214c-168 0-294 30-388 94zm2008 1079c-71 148-201 218-402 218-171 0-298-49-386-151-61-69-97-153-109-255h1336v-89c0-265-67-479-201-634-75-89-169-156-280-199-108-42-233-63-374-63-267 0-479 77-630 229s-227 358-227 614c0 255 73 463 217 615 156 172 377 259 656 259 110 0 214-16 309-47 96-31 181-76 256-136 116-99 193-220 233-361h-398zm-769-726c45-44 96-77 153-98 58-22 125-33 200-33 144 0 257 45 346 138 67 69 109 143 126 223h-940c25-97 64-174 115-230z" class="fil0"/><path d="M7137 4864v-88h-361v155c-1 24-14 117-19 138-11 40-24 86-31 111-6 15-12 30-19 44-65 126-207 185-346 161-204-36-352-228-324-435 14-104 38-207 86-300 90-176 201-342 312-504 22-31 100-147 193-327 95 43 178 67 234 80 102 24 164 30 212 18 6-1 51-8 62-26 4-6-7-19-19-22-152-40-299-90-414-206 98-215 198-490 256-804 42-231 93-461 103-700 12-197 4-418-23-603-58-392-229-670-494-955-345-372-829-543-1327-591-528-51-835 96-1069 290-279 230-334 445-354 752-16 246 31 386 155 640 90 184 465 502 570 678 100 169 73 190 146 374 36 91 219 245 388 221 167-23 300-142 391-377 34-85 36-167 45-240 26-196 20-356 39-599 2-26 5-59-7-73-33-40-77-24-96 14-13 25-16 54-24 81-76 257-233 631-240 653-24 61-82 182-122 178-21-3-37-3-48-42-12-42-66-241-247-465-320-397-496-588-555-850-65-288 66-594 313-732 128-72 398-181 687-150 355 38 749 164 994 434 292 321 479 503 489 1087 6 343-69 742-153 1074-10 32-21 66-33 101-30 92-58 171-85 242-8-11-22-31-26-37-45-62-84-120-129-173-54-65-108-133-176-181-84-61-175-76-249 6-37 41-62 100-36 166 80 199 233 345 403 482 9 7 40 27 75 51-60 118-127 232-217 383-127 214-273 466-320 583-90 223-99 453-44 687 24 102 75 187 146 264 227 242 614 300 908 184 67-27 134-77 180-134 122-150 192-317 213-500 2-19 4-72 5-118 1-9 1-16 1-21 1-20 1-79 1-79zm-594-2527c0 103-84 187-187 187s-186-84-186-187 83-186 186-186 187 83 187 186z" style="fill:#003d52;fill-rule:nonzero"/></g><path d="m15583 2538-1183 4v2378l398-4-2-933h726c227 0 410-65 543-193 135-129 204-307 204-529 0-221-61-398-181-527-122-130-292-196-505-196zm285 728c0 252-121 364-394 364h-676v-739h717c244 0 353 116 353 375zm2634-18c-274 0-490 86-642 255-138 150-207 354-207 606 0 249 71 455 213 614 79 85 173 148 278 188 102 38 223 58 358 58 287 0 510-84 664-250 137-148 207-354 207-610 0-259-70-465-209-613-151-164-374-248-662-248zm-481 861c0-87 12-164 34-230 22-64 53-118 93-162 85-91 201-136 354-136 343 0 503 168 503 528 0 88-10 166-30 231-19 62-47 112-87 156-82 95-208 141-386 141-158 0-274-44-356-137-84-96-125-224-125-391zm-1095-767c-6 5-12 9-18 14v-60h-367l2 1619h365v-793c0-467 213-521 374-521 43 0 246 2 246 2v-355h-214c-168 0-294 30-388 94z" class="fil0"/></g></svg>