<svg xmlns="http://www.w3.org/2000/svg" xmlns:xlink="http://www.w3.org/1999/xlink" xml:space="preserve"  viewBox="230 0 730 185">
  <path fill="#18191b" d="m425.844 35.554-11.228 19.411c-2.385 3.666-2.366 5.859-2.329 10.203.005.559.01 1.155.01 1.796l-.021 53.236 20.244.008.027-68.643 47.681.018.008-20.243-46.03-.025c-2.362 0-5.794.431-8.362 4.239m-35.361-4.258a40.879 40.879 0 0 0-1.262.002c-2.075.046-4.406.396-7.36 2.62l-7.833 5.624.004-8.25-.016.178.007-24.657h-20.244l-.026 93.763c-.001 2.436.925 4.792 2.732 6.979l7.867 10.251.036.044c1.703 1.963 3.966 2.958 6.723 2.959l26.493.01v-20.244l-23.608-.008.014-49.024h23.594V31.3l-6.514-.001-.607-.003Zm-85.676 55.382.025.007-.127-.078c-.424-.302-.872-.6-1.363-.894-4.584-2.752-23.982-13.957-39.958-23.213a11516.57 11516.57 0 0 0-18.7-10.873l60.851.051V31.435l-.156.001v-.029l-51.928-.02c-1.043.03-2.079.123-3.078.409-1.601.458-3.15 1.126-4.862 2.099l-.014.002-.304.181c-.279.162-.585.347-.901.543l-13.251 7.994c-2.74 1.394-4.656 3.053-5.638 4.901-.723 1.359-.833 2.325-1.467 4.522a84.248 84.248 0 0 0-.668 2.704c-.96 4.31.08 7.364 3.527 9.948l.001.003.042.029c.55.409 1.155.808 1.828 1.196l.01.003c.311.195.599.371.815.501l-.001.001.124.076.455.253c2.621 1.507 14.508 8.431 26.044 15.152 12.144 7.075 25.149 14.652 31.208 18.16l-60.695-.024v20.243l51.927.021c1.044-.03 2.079-.123 3.078-.409 1.602-.458 3.151-1.126 4.862-2.099l.014-.002.305-.181c.278-.163.584-.347.9-.543l13.251-7.994c2.74-1.394 4.656-3.053 5.638-4.901.724-1.359.834-2.326 1.468-4.522.277-1.062.51-1.996.667-2.704.997-4.476-.15-7.55-3.929-10.271m14.688-61.829 20.243.008.007-18.54-20.243-.008zm246.667 75.105-59.432-.023.019-48.336 59.433.023-.02 48.336Zm20.229-45.847c-.066-1.802-.278-3.154-.939-4.589-.894-1.945-2.754-3.753-5.47-5.339l-13.063-8.95c-.31-.218-.611-.424-.896-.613l-.252-.169-.008-.002c-1.709-1.11-3.266-1.893-4.889-2.461-2.184-.763-4.758-.699-6.642-.654-.376.01-.72.019-1.02.019l-16.738.004-16.742-.018c-.299 0-.643-.008-1.019-.019-1.879-.047-4.455-.112-6.642.649-1.623.566-3.18 1.348-4.89 2.458l-.253.165c-.292.193-.594.399-.894.61l-13.024 8.91c-2.774 1.62-4.636 3.428-5.531 5.372-.661 1.435-.875 2.786-.943 4.589l-.048 41.53.008 1.841h.023c.067 1.804.28 3.155.939 4.59.894 1.945 2.754 3.754 5.47 5.34l13.063 8.949c.312.219.614.425.889.608l.294.198.012.003c1.695 1.097 3.24 1.872 4.851 2.436 2.185.764 4.761.699 6.641.655.377-.011.72-.019 1.02-.019l16.738-.006 16.742.02c.299 0 .643.008 1.02.018.484.012 1.014.026 1.569.026 1.611 0 3.45-.109 5.072-.675 1.613-.563 3.158-1.337 4.852-2.434l.29-.187c.293-.194.595-.401.895-.612l13.025-8.91c2.774-1.62 4.635-3.426 5.531-5.372.662-1.434.876-2.786.942-4.589l.049-41.53-.009-1.842h-.023ZM319.458 120.17l20.238.009.04-88.887-20.238-.009zm586.838-33.492.024.007-.127-.078c-.423-.302-.872-.6-1.362-.894-4.585-2.752-23.982-13.957-39.959-23.213-7.754-4.515-14.722-8.57-18.699-10.873l60.851.051V31.435l-.157.001v-.029l-51.927-.02c-1.044.03-2.079.123-3.079.409-1.6.458-3.15 1.126-4.861 2.099l-.014.002-.305.181c-.279.162-.584.347-.901.543l-13.25 7.994c-2.74 1.394-4.656 3.053-5.638 4.901-.724 1.359-.834 2.325-1.467 4.522a81.639 81.639 0 0 0-.668 2.704c-.96 4.31.08 7.364 3.527 9.948v.003l.042.029c.55.409 1.156.808 1.828 1.196l.01.003c.312.195.6.371.816.501l-.001.001.124.076.454.253c2.622 1.507 14.508 8.431 26.044 15.152 12.144 7.075 25.149 14.652 31.208 18.16l-60.695-.024v20.243l51.928.021c1.044-.03 2.078-.123 3.078-.409 1.601-.458 3.151-1.126 4.862-2.099l.013-.002.305-.181c.279-.163.585-.347.9-.543l13.251-7.994c2.741-1.394 4.657-3.053 5.639-4.901.724-1.359.834-2.326 1.467-4.522.277-1.062.51-1.996.668-2.704.997-4.476-.151-7.55-3.929-10.271m22.175-36.9 3.914.002.01-18.274-3.915-.002zM761.13 31.409c-1.877-.047-4.455-.112-6.64.649-1.621.566-3.175 1.345-4.881 2.45l-.263.172c-.293.195-.594.4-.893.611l-13.025 8.911c-2.776 1.619-4.636 3.427-5.531 5.371-.662 1.435-.875 2.786-.943 4.589l-.048 41.529.008 1.843h.024c.065 1.803.278 3.154.938 4.589.894 1.945 2.753 3.754 5.471 5.34l13.063 8.949c.311.219.613.426.888.607l.301.204.013.002c1.691 1.095 3.234 1.87 4.843 2.432 1.622.567 3.461.678 5.071.679.556 0 1.085-.013 1.569-.025.377-.009.722-.017 1.021-.017l50.986.019.007-20.264-63.961-.025.018-48.337 63.963.026.008-20.265-50.986-.019c-.3-.001-.644-.009-1.021-.02m173.566.098-.002 3.524 5.613.002-.007 14.75 3.891.001.005-14.75 5.612.002.002-3.523-15.114-.006Zm-263.978 2.908-.036-.044c-1.703-1.963-3.966-2.957-6.723-2.959l-29.749-.011-.607-.003a44.288 44.288 0 0 0-1.262.002c-2.075.045-4.406.397-7.36 2.619l-7.832 5.625.003-8.25-20.245-.007-.035 88.885 20.244.009.028-68.643 43.93.017-.027 68.643 20.243.008.028-68.661c0-2.436-.927-4.792-2.733-6.979l-7.867-10.251Zm24.406 85.895 20.243.008.035-88.887-20.243-.008zm.038-95.321 20.242.009.008-18.541-20.242-.009zm49.463 123.731c3.723 0 7.396.794 10.524 2.284v5.51c-2.63-1.688-6.155-2.581-9.73-2.581-6.8 0-13.65 3.723-13.65 12.807 0 9.928 7.197 12.858 13.502 12.858 1.936 0 3.822-.348 5.211-.993V165.45h5.511v16.977c-3.325 1.489-7.247 2.333-11.069 2.333-9.631 0-18.964-5.063-18.964-18.02 0-12.261 9.333-18.02 18.665-18.02m26.058 17.375h8.488c3.724 0 7.348-1.34 7.348-5.759 0-4.468-3.624-5.807-7.348-5.807h-8.488v11.566Zm-5.659 18.02v-34.749h13.899c6.504 0 13.355 2.581 13.355 10.872 0 6.205-3.873 9.182-8.44 10.275l11.12 13.602h-6.801l-10.424-13.006h-7.05v13.006h-5.659Zm52.369-30.083c-8.39 0-12.51 6.057-12.51 12.708 0 6.653 4.12 12.709 12.51 12.709 8.438 0 12.51-6.056 12.51-12.709 0-6.651-4.072-12.708-12.51-12.708m0-5.312c12.212 0 18.269 8.837 18.269 18.02 0 9.185-6.057 18.021-18.269 18.021-12.262 0-18.268-8.836-18.268-18.021 0-9.183 6.006-18.02 18.268-18.02m55.793.646v21.892c0 10.078-7.099 13.503-14.793 13.503-7.744 0-14.893-3.425-14.893-13.503v-21.892h5.66v21.594c0 6.304 3.822 8.539 9.233 8.539 5.312 0 9.134-2.235 9.134-8.539v-21.594h5.659Zm22.782 5.163h-7.05v12.51h7.05c4.766 0 8.786-1.192 8.786-6.255 0-5.064-3.971-6.255-8.786-6.255m-.298-5.163c8.24 0 14.843 2.581 14.843 11.418 0 8.836-6.603 11.417-14.843 11.417h-6.752v11.914h-5.658v-34.749h12.41Z"/>
  <g fill="#18191b" transform="matrix(116.105 -138.369 170.278 94.348 31.306 160.299)">
    <clipPath id="a">
      <path fill="#18191b" d="m.9-.126-.316.12-.337-.246-.332.126.344.251.316-.12.337.246.332-.126L.9-.126ZM.599-.463l-.332.126.344.251.332-.126-.344-.251ZM.554.086.222.212l.344.251.332-.126L.554.086Z" clip-rule="nonzero"/>
    </clipPath>
    <g fill="#18191b" clip-path="url(#a)">
      <use xlink:href="#b" width="197.1" height="160.165" transform="matrix(.00272 .004 -.0049 .00335 .705 -.665)"/>
    </g>
  </g>
</svg>