<svg xmlns="http://www.w3.org/2000/svg" width="1055.004" height="768.661" viewBox="0 0 1055.004 768.661">
  <g id="Лого_на_фоне" data-name="Лого на фоне" transform="translate(-438.682 -748.48)" opacity="0.41">
    <g id="Main" transform="translate(441.66 751)">
      <path id="Контур_193" data-name="Контур 193" d="M2353.16,1898.6" transform="translate(-1382.109 -1315.614)" fill="rgba(0,0,0,0)" stroke="rgba(0,0,0,0.09)" stroke-miterlimit="10" stroke-width="3"/>
      <path id="Контур_194" data-name="Контур 194" d="M1646.044,762.866l-.041-.086H1430.65l39.523,54.326,67.29,91.583Z" transform="translate(-928.238 -756.796)" fill="rgba(0,0,0,0)" stroke="rgba(0,0,0,0.09)" stroke-miterlimit="10" stroke-width="3"/>
      <path id="Контур_195" data-name="Контур 195" d="M1640.91,908.773h172.828L1749.491,762.95Z" transform="translate(-1031.685 -756.879)" fill="rgba(0,0,0,0)" stroke="rgba(0,0,0,0.09)" stroke-miterlimit="10" stroke-width="3"/>
      <path id="Контур_196" data-name="Контур 196" d="M1813.738,1050H1640.91l112.523,151.894,79.985-107.22Z" transform="translate(-1031.685 -898.107)" fill="rgba(0,0,0,0)" stroke="rgba(0,0,0,0.09)" stroke-miterlimit="10" stroke-width="3"/>
      <path id="Контур_197" data-name="Контур 197" d="M1942.4,1137.94l-79.985,107.219h127.225Z" transform="translate(-1140.662 -941.373)" fill="rgba(0,0,0,0)" stroke="rgba(0,0,0,0.09)" stroke-miterlimit="10" stroke-width="3"/>
      <path id="Контур_198" data-name="Контур 198" d="M2026.323,1432.272,1989.635,1349H1862.41l112.523,151.893Z" transform="translate(-1140.662 -1045.213)" fill="rgba(0,0,0,0)" stroke="rgba(0,0,0,0.09)" stroke-miterlimit="10" stroke-width="3"/>
      <path id="Контур_199" data-name="Контур 199" d="M2135.3,1512.92l-51.39,68.621h81.6Z" transform="translate(-1249.639 -1125.861)" fill="rgba(0,0,0,0)" stroke="rgba(0,0,0,0.09)" stroke-miterlimit="10" stroke-width="3"/>
      <path id="Контур_200" data-name="Контур 200" d="M2165.505,1646h-81.6l113.077,151.893,22.24-30.023Z" transform="translate(-1249.639 -1191.335)" fill="rgba(0,0,0,0)" stroke="rgba(0,0,0,0.09)" stroke-miterlimit="10" stroke-width="3"/>
      <path id="Контур_201" data-name="Контур 201" d="M2328.74,1887.9l-22.24,30.023h35.469Z" transform="translate(-1359.152 -1310.349)" fill="rgba(0,0,0,0)" stroke="rgba(0,0,0,0.09)" stroke-miterlimit="10" stroke-width="3"/>
      <path id="Контур_202" data-name="Контур 202" d="M2337.244,2101.406l-176.344.021,110.588-149.277Z" transform="translate(-1287.518 -1341.96)" fill="rgba(0,0,0,0)" stroke="rgba(0,0,0,0.09)" stroke-miterlimit="10" stroke-width="3"/>
      <path id="Контур_203" data-name="Контур 203" d="M2161.358,1947H1939.4l112.523,151.893,110.587-149.277" transform="translate(-1178.541 -1339.426)" fill="rgba(0,0,0,0)" stroke="rgba(0,0,0,0.09)" stroke-miterlimit="10" stroke-width="3"/>
      <path id="Контур_204" data-name="Контур 204" d="M1644.456,1201.894h-90.562l-42.977-107.22-43.008,107.22h-48.5L1531.933,1050Z" transform="translate(-922.708 -898.107)" fill="rgba(0,0,0,0)" stroke="rgba(0,0,0,0.09)" stroke-miterlimit="10" stroke-width="3"/>
      <path id="Контур_205" data-name="Контур 205" d="M1400.046,902.893H1175L1287.523,751Z" transform="translate(-802.46 -751)" fill="rgba(0,0,0,0)" stroke="rgba(0,0,0,0.09)" stroke-miterlimit="10" stroke-width="3"/>
      <path id="Контур_206" data-name="Контур 206" d="M1100.636,1168.083H875.59L988.113,1016.19Z" transform="translate(-655.151 -881.472)" fill="rgba(0,0,0,0)" stroke="rgba(0,0,0,0.09)" stroke-miterlimit="10" stroke-width="3"/>
      <path id="Контур_207" data-name="Контур 207" d="M914.786,2106.023H689.74L802.263,1954.13Z" transform="translate(-563.714 -1342.934)" fill="rgba(0,0,0,0)" stroke="rgba(0,0,0,0.09)" stroke-miterlimit="10" stroke-width="3"/>
      <path id="Контур_208" data-name="Контур 208" d="M666.706,1954.13H441.66l112.523,151.893Z" transform="translate(-441.66 -1342.934)" fill="rgba(0,0,0,0)" stroke="rgba(0,0,0,0.09)" stroke-miterlimit="10" stroke-width="3"/>
      <path id="Контур_209" data-name="Контур 209" d="M716.62,1004.89v95.744l56.043-47.874Z" transform="translate(-576.939 -875.913)" fill="rgba(0,0,0,0)" stroke="rgba(0,0,0,0.09)" stroke-miterlimit="10" stroke-width="3"/>
      <path id="Контур_210" data-name="Контур 210" d="M728.03,1381.28v95.744l56.043-47.869Z" transform="translate(-582.553 -1061.095)" fill="rgba(0,0,0,0)" stroke="rgba(0,0,0,0.09)" stroke-miterlimit="10" stroke-width="3"/>
      <path id="Контур_211" data-name="Контур 211" d="M989.944,767.35,968.41,860.64l65.37-34.041Z" transform="translate(-700.818 -759.044)" fill="rgba(0,0,0,0)" stroke="rgba(0,0,0,0.09)" stroke-miterlimit="10" stroke-width="3"/>
      <path id="Контур_212" data-name="Контур 212" d="M820.44,839.58v69.993l40.966-35Z" transform="translate(-628.018 -794.581)" fill="rgba(0,0,0,0)" stroke="rgba(0,0,0,0.09)" stroke-miterlimit="10" stroke-width="3"/>
      <path id="Контур_213" data-name="Контур 213" d="M1151.276,1341.87H926.23l112.523,151.893Z" transform="translate(-680.066 -1041.705)" fill="rgba(0,0,0,0)" stroke="rgba(0,0,0,0.09)" stroke-miterlimit="10" stroke-width="3"/>
      <path id="Контур_214" data-name="Контур 214" d="M1408.6,1053.33H1183.55l112.523,151.893Z" transform="translate(-806.666 -899.745)" fill="rgba(0,0,0,0)" stroke="rgba(0,0,0,0.09)" stroke-miterlimit="10" stroke-width="3"/>
      <path id="Контур_215" data-name="Контур 215" d="M1923.84,1947l2.779,6.919,5.126-6.919Z" transform="translate(-1170.885 -1339.426)" fill="rgba(0,0,0,0)" stroke="rgba(0,0,0,0.09)" stroke-miterlimit="10" stroke-width="3"/>
      <path id="Контур_216" data-name="Контур 216" d="M1469.087,1349.061l-16.449,42.444L1422.01,1349Z" transform="translate(-923.987 -1045.213)" fill="rgba(0,0,0,0)" stroke="rgba(0,0,0,0.09)" stroke-miterlimit="10" stroke-width="3"/>
      <path id="Контур_217" data-name="Контур 217" d="M1684.14,1349H1774.7l-58.766,79.325Z" transform="translate(-1052.954 -1045.213)" fill="rgba(0,0,0,0)" stroke="rgba(0,0,0,0.09)" stroke-miterlimit="10" stroke-width="3"/>
      <path id="Контур_218" data-name="Контур 218" d="M1310.433,1349,1197.91,1500.893h100.163l43.846-109.389Z" transform="translate(-813.731 -1045.213)" fill="rgba(0,0,0,0)" stroke="rgba(0,0,0,0.09)" stroke-miterlimit="10" stroke-width="3"/>
      <path id="Контур_219" data-name="Контур 219" d="M1805.5,1349l-58.766,79.325,29.383,72.568h141.906l-111.268-150.2Z" transform="translate(-1083.748 -1045.213)" fill="rgba(0,0,0,0)" stroke="rgba(0,0,0,0.09)" stroke-miterlimit="10" stroke-width="3"/>
      <path id="Контур_220" data-name="Контур 220" d="M931.09,1953.973l173.433-.162-60.91,152.056Z" transform="translate(-682.457 -1342.777)" fill="rgba(0,0,0,0)" stroke="rgba(0,0,0,0.09)" stroke-miterlimit="10" stroke-width="3"/>
      <path id="Контур_221" data-name="Контур 221" d="M1923.84,1947h7.9l112.523,151.893h-59.538Z" transform="translate(-1170.885 -1339.426)" fill="rgba(0,0,0,0)" stroke="rgba(0,0,0,0.09)" stroke-miterlimit="10" stroke-width="3"/>
    </g>
    <g id="Area" transform="translate(600.792 1206.68)">
      <g id="Сгруппировать_22" data-name="Сгруппировать 22" transform="translate(112.523)">
        <path id="Контур_222" data-name="Контур 222" d="M1865.956,1648H1640.91" transform="translate(-1303.341 -1648)" fill="rgba(0,0,0,0)" stroke="rgba(0,0,0,0.09)" stroke-miterlimit="10" stroke-width="3"/>
        <line id="Линия_5" data-name="Линия 5" x1="225.046" transform="translate(225.046 151.893)" fill="none" stroke="rgba(0,0,0,0.09)" stroke-miterlimit="10" stroke-width="3"/>
        <line id="Линия_6" data-name="Линия 6" x1="124.842" transform="translate(212.727)" fill="none" stroke="rgba(0,0,0,0.09)" stroke-miterlimit="10" stroke-width="3"/>
        <line id="Линия_7" data-name="Линия 7" x1="225.046" transform="translate(0 151.893)" fill="none" stroke="rgba(0,0,0,0.09)" stroke-miterlimit="10" stroke-width="3"/>
        <path id="Контур_223" data-name="Контур 223" d="M2088.01,1947h-225.6" transform="translate(-1412.318 -1795.107)" fill="rgba(0,0,0,0)" stroke="rgba(0,0,0,0.09)" stroke-miterlimit="10" stroke-width="3"/>
        <path id="Контур_224" data-name="Контур 224" d="M1923.84,1947.34" transform="translate(-1442.541 -1795.274)" fill="rgba(0,0,0,0)" stroke="rgba(0,0,0,0.09)" stroke-miterlimit="10" stroke-width="3"/>
      </g>
      <path id="Контур_225" data-name="Контур 225" d="M979.956,1648H754.91l112.523,151.893Z" transform="translate(-754.91 -1648)" fill="rgba(0,0,0,0)" stroke="rgba(0,0,0,0.09)" stroke-miterlimit="10" stroke-width="3"/>
      <path id="Контур_226" data-name="Контур 226" d="M1395.08,1648" transform="translate(-1069.87 -1648)" fill="rgba(0,0,0,0)" stroke="rgba(0,0,0,0.09)" stroke-miterlimit="10" stroke-width="3"/>
    </g>
  </g>
</svg>
