<?xml version="1.0" encoding="UTF-8"?>
<!DOCTYPE svg PUBLIC "-//W3C//DTD SVG 1.1//EN" "http://www.w3.org/Graphics/SVG/1.1/DTD/svg11.dtd">
<!-- Creator: CorelDRAW 2020 (64-Bit) -->
<svg xmlns="http://www.w3.org/2000/svg" xml:space="preserve" width="200mm" height="200mm" version="1.1" style="shape-rendering:geometricPrecision; text-rendering:geometricPrecision; image-rendering:optimizeQuality; fill-rule:evenodd; clip-rule:evenodd"
viewBox="4000 4000 12000 12000"
 xmlns:xlink="http://www.w3.org/1999/xlink"
 xmlns:xodm="http://www.corel.com/coreldraw/odm/2003">
 <defs>
  <style type="text/css">
   <![CDATA[
    .fil1 {fill:#FEFEFE}
    .fil0 {fill:#E51A4B;fill-rule:nonzero}
   ]]>
  </style>
 </defs>
 <g id="Слой_x0020_1">
  <metadata id="CorelCorpID_0Corel-Layer"/>
  <path class="fil0" d="M10167.48 14664.82c-984.49,-12.1 -1812.66,-114.81 -2870.22,-780.68 -614.22,-386.74 -1217.18,-975.78 -1638.01,-1743.47 -354.82,-647.36 -582.48,-1418.87 -582.48,-2299.53l2.63 0 0.02 -5672.64 10173.47 0 0.05 6483.27 2.63 0c0,880.63 -227.66,1652.17 -582.49,2299.5 -420.82,767.69 -1023.78,1356.74 -1638,1743.48 -1056.62,665.28 -1884.25,768.35 -2867.6,780.63l0 -810.56z"/>
  <path class="fil1" d="M8652.42 10642.42c523.83,0 38.07,-0.61 56.88,-1.76 3754.43,-4.19 4782.57,5.17 5058.28,9.79 14.68,-106.06 26.41,-213.06 34.7,-321.07l-5142.03 -240.91 0 -1.52 -7.83 0.09c-198.69,0 -359.8,-161.09 -359.8,-359.8 0,-108.81 48.34,-206.25 124.61,-272.24l0 -0.38 3660.23 -3410.98c-80.41,-71.85 -162.9,-141.48 -247.67,-208.32 -173,152.24 -875,757.13 -3723.76,3157.84 -230.78,172.18 -368.79,442 -368.79,734.08 0,509.61 391.36,915.18 915.18,915.18zm-1311.61 -2121.2c-490.18,-429.79 -711.16,-623.68 -810.78,-711.13 282.18,-328.76 700.61,-537.07 1167.88,-537.07 465.29,0 882.3,206.55 1164.45,533.02 -115.11,100.99 -457.02,391.75 -1171.96,1018.56l0 0 -0.02 0c-271.98,260.84 -342.45,557.05 -342.45,925.66 0,618.53 442.51,1133.75 1028.21,1246.25 260.58,50.05 663.91,43.82 916.56,50.42l2543.67 52.3c698.69,-10.64 1318.53,375.71 1499.85,1053.15 27.52,102.82 43.98,206.51 49.86,309.1l-302.72 0c-64.66,-492.74 -500.68,-928.14 -945.66,-980.55 -254.78,-19.83 -680.76,-17.8 -936.37,-20.16 -592.19,-5.54 -1536.59,18.13 -2153.64,14.27 -212.72,-1.31 -553.61,9.43 -751.16,-21.46 -813.26,-127.62 -1435.44,-831.42 -1435.44,-1680.53 0,-445.08 168.38,-936.44 479.72,-1251.83zm3181.92 595.84l2624.37 -521.44c22.75,77.58 43.62,156 62.47,235.18l-2563.94 606.47 2674.45 79.92c7.64,88.11 12.81,176.86 15.65,266.23 -1454.17,5.25 -2910.04,18.15 -4363.96,12.59 -87.54,-1.03 -158.13,-67.85 -157.76,-156.54 0.24,-57.53 40.88,-110.66 82.42,-135.58l188.98 -133.58 3174.47 -2447.54c49.84,60.49 98.16,122.26 145.01,185.25l-2067.89 1725.55 2461.82 -1098.95c36.47,69.57 71.32,140.11 104.42,211.65l-2380.51 1170.79z"/>
 </g>
</svg>
