<?xml version="1.0" encoding="UTF-8"?>
<svg id="Layer_1" data-name="Layer 1" xmlns="http://www.w3.org/2000/svg" viewBox="0 0 566.9 133"><defs><style>.cls-1{fill:#e0dfdf;}</style></defs><path class="cls-1" d="M42.2,21.8H36.6L28,41.1H50.8ZM35.6,36.2l3.8-9.3,3.9,9.3Z"/><polygon class="cls-1" points="79 41 79 27.6 90.6 27.6 90.6 27.5 90.6 22 90.6 21.9 79 21.9 79 21.9 73.3 21.9 73.3 22 73.3 41 73.3 41.1 79 41.1 79 41"/><polygon class="cls-1" points="125.7 35.1 119.2 21.9 113.2 21.9 123.5 41 127.7 41 138 21.9 132.4 21.9 125.7 35.1"/><path class="cls-1" d="M174.8,21.9h-5.7l-8.5,19.2h22.7Zm-6.7,14.3,3.8-9.3,3.9,9.3Z"/><polygon class="cls-1" points="211.6 41.1 211.6 27.6 223.2 27.6 223.2 27.6 223.2 22 223.2 21.9 211.6 21.9 211.6 21.9 205.9 21.9 205.9 22 205.9 41.1 205.9 41.2 211.6 41.2 211.6 41.1"/><polygon class="cls-1" points="258.3 35.1 251.8 21.9 245.7 21.9 256 41.1 260.2 41.1 270.5 21.9 264.9 21.9 258.3 35.1"/><path class="cls-1" d="M307.3,21.8h-5.6l-8.6,19.3h22.8Zm-6.7,14.4,3.9-9.3,3.8,9.3Z"/><polygon class="cls-1" points="344.1 41 344.1 27.6 355.7 27.6 355.7 27.5 355.7 22 355.7 21.9 344.1 21.9 344.1 21.9 338.4 21.9 338.4 22 338.4 41 338.4 41.1 344.1 41.1 344.1 41"/><polygon class="cls-1" points="390.8 35.1 384.3 21.9 378.2 21.9 388.5 41 392.7 41 403.1 21.9 397.4 21.9 390.8 35.1"/><path class="cls-1" d="M439.8,21.9h-5.6l-8.6,19.2h22.8Zm-6.7,14.3,3.9-9.3,3.8,9.3Z"/><polygon class="cls-1" points="476.6 41.1 476.6 27.7 488.2 27.7 488.2 27.6 488.2 22 488.2 22 476.6 22 476.6 22 470.9 22 470.9 22 470.9 41.1 470.9 41.2 476.6 41.2 476.6 41.1"/><polygon class="cls-1" points="523.3 35.1 516.8 22 510.7 22 521 41.1 525.2 41.1 535.6 22 530 22 523.3 35.1"/><path class="cls-1" d="M42.2,56.8H36.6L28,76H50.8ZM35.6,71.2l3.8-9.4,3.9,9.4Z"/><polygon class="cls-1" points="79 76 79 62.6 90.6 62.6 90.6 62.5 90.6 57 90.6 56.9 79 56.9 79 56.9 73.3 56.9 73.3 57 73.3 76 73.3 76.1 79 76.1 79 76"/><polygon class="cls-1" points="125.7 70 119.2 56.9 113.2 56.9 123.5 76 127.7 76 138 56.9 132.4 56.9 125.7 70"/><path class="cls-1" d="M174.8,56.8h-5.7l-8.5,19.3h22.7Zm-6.7,14.4,3.8-9.3,3.9,9.3Z"/><polygon class="cls-1" points="211.6 76.1 211.6 62.6 223.2 62.6 223.2 62.5 223.2 57 223.2 56.9 211.6 56.9 211.6 56.9 205.9 56.9 205.9 57 205.9 76.1 205.9 76.2 211.6 76.2 211.6 76.1"/><polygon class="cls-1" points="258.3 70.1 251.8 56.9 245.7 56.9 256 76.1 260.2 76.1 270.5 56.9 264.9 56.9 258.3 70.1"/><path class="cls-1" d="M307.3,56.8h-5.6L293.1,76h22.8Zm-6.7,14.4,3.9-9.4,3.8,9.4Z"/><polygon class="cls-1" points="344.1 76 344.1 62.6 355.7 62.6 355.7 62.5 355.7 57 355.7 56.9 344.1 56.9 344.1 56.9 338.4 56.9 338.4 57 338.4 76 338.4 76.1 344.1 76.1 344.1 76"/><polygon class="cls-1" points="390.8 70 384.3 56.9 378.2 56.9 388.5 76 392.7 76 403.1 56.9 397.4 56.9 390.8 70"/><path class="cls-1" d="M439.8,56.9h-5.6l-8.6,19.2h22.8Zm-6.7,14.3,3.9-9.3,3.8,9.3Z"/><polygon class="cls-1" points="476.6 76.1 476.6 62.7 488.2 62.7 488.2 62.6 488.2 57 488.2 57 476.6 57 476.6 57 470.9 57 470.9 57 470.9 76.1 470.9 76.2 476.6 76.2 476.6 76.1"/><polygon class="cls-1" points="523.3 70.1 516.8 57 510.7 57 521 76.1 525.2 76.1 535.6 57 530 57 523.3 70.1"/><path class="cls-1" d="M41.3,91.9H35.7l-8.6,19.2H49.9Zm-6.6,14.3,3.8-9.3,3.9,9.3Z"/><polygon class="cls-1" points="78.1 111.1 78.1 97.6 89.7 97.6 89.7 97.6 89.7 92 89.7 92 78.1 92 78.1 92 72.4 92 72.4 92 72.4 111.1 72.4 111.2 78.1 111.2 78.1 111.1"/><polygon class="cls-1" points="124.8 105.1 118.3 92 112.3 92 122.6 111.1 126.8 111.1 137.1 92 131.5 92 124.8 105.1"/><path class="cls-1" d="M173.9,91.9h-5.7l-8.5,19.2h22.7Zm-6.7,14.4,3.8-9.4,3.9,9.4Z"/><polygon class="cls-1" points="210.7 111.1 210.7 97.7 222.3 97.7 222.3 97.6 222.3 92.1 222.3 92 210.7 92 210.7 92 205 92 205 92.1 205 111.1 205 111.2 210.7 111.2 210.7 111.1"/><polygon class="cls-1" points="257.4 105.1 250.9 92 244.8 92 255.1 111.1 259.3 111.1 269.6 92 264 92 257.4 105.1"/><path class="cls-1" d="M306.4,91.9h-5.6l-8.6,19.2H315Zm-6.7,14.3,3.9-9.3,3.8,9.3Z"/><polygon class="cls-1" points="343.2 111.1 343.2 97.6 354.8 97.6 354.8 97.6 354.8 92 354.8 92 343.2 92 343.2 92 337.5 92 337.5 92 337.5 111.1 337.5 111.2 343.2 111.2 343.2 111.1"/><polygon class="cls-1" points="389.9 105.1 383.4 92 377.3 92 387.6 111.1 391.8 111.1 402.2 92 396.5 92 389.9 105.1"/><path class="cls-1" d="M438.9,91.9h-5.6l-8.6,19.3h22.8Zm-6.7,14.4,3.9-9.3,3.8,9.3Z"/><polygon class="cls-1" points="475.7 111.2 475.7 97.7 487.3 97.7 487.3 97.6 487.3 92.1 487.3 92 475.7 92 475.7 92 470 92 470 92.1 470 111.2 470 111.3 475.7 111.3 475.7 111.2"/><polygon class="cls-1" points="522.4 105.2 515.9 92 509.8 92 520.1 111.2 524.3 111.2 534.7 92 529.1 92 522.4 105.2"/></svg>