<svg id="_015-paper" data-name="015-paper" xmlns="http://www.w3.org/2000/svg" width="84.247" height="84.245" viewBox="0 0 84.247 84.245">
  <path id="Контур_259" data-name="Контур 259" d="M3.2,38.541a1.2,1.2,0,0,1-1.2-1.2V33.764a1.2,1.2,0,0,1,2.407,0v3.574a1.2,1.2,0,0,1-1.2,1.2Z" transform="translate(-2 4.219)" fill="#008ad5"/>
  <path id="Контур_260" data-name="Контур 260" d="M62.175,86.245H3.2a1.2,1.2,0,0,1-1.2-1.2V63.908a1.2,1.2,0,1,1,2.407,0v19.93H60.972V4.407H4.407V31.558a1.2,1.2,0,0,1-2.407,0V3.2A1.2,1.2,0,0,1,3.2,2H62.175a1.2,1.2,0,0,1,1.2,1.2V85.042A1.2,1.2,0,0,1,62.175,86.245Z" transform="translate(-2 -2)" fill="#008ad5"/>
  <path id="Контур_261" data-name="Контур 261" d="M3.2,48.439a1.2,1.2,0,0,1-1.2-1.2v-3.5a1.2,1.2,0,0,1,2.407,0v3.5A1.2,1.2,0,0,1,3.2,48.439Z" transform="translate(-2 6.248)" fill="#008ad5"/>
  <path id="Контур_262" data-name="Контур 262" d="M52.326,16.407H10.2A1.2,1.2,0,1,1,10.2,14H52.326a1.2,1.2,0,1,1,0,2.407Z" transform="translate(-0.575 0.442)" fill="#008ad5"/>
  <path id="Контур_263" data-name="Контур 263" d="M52.326,27.407H10.2A1.2,1.2,0,1,1,10.2,25H52.326a1.2,1.2,0,1,1,0,2.407Z" transform="translate(-0.575 2.681)" fill="#008ad5"/>
  <path id="Контур_264" data-name="Контур 264" d="M52.326,38.407H10.2A1.2,1.2,0,0,1,10.2,36H52.326a1.2,1.2,0,0,1,0,2.407Z" transform="translate(-0.575 4.919)" fill="#008ad5"/>
  <path id="Контур_265" data-name="Контур 265" d="M52.326,49.407H10.2A1.2,1.2,0,1,1,10.2,47H52.326a1.2,1.2,0,1,1,0,2.407Z" transform="translate(-0.575 7.158)" fill="#008ad5"/>
  <path id="Контур_266" data-name="Контур 266" d="M52.326,60.407H10.2A1.2,1.2,0,1,1,10.2,58H52.326a1.2,1.2,0,1,1,0,2.407Z" transform="translate(-0.575 9.396)" fill="#008ad5"/>
  <path id="Контур_267" data-name="Контур 267" d="M73.586,68.954H59.5a1.2,1.2,0,0,1-1.2-1.2V18.808A2.811,2.811,0,0,1,61.1,16H71.982a2.811,2.811,0,0,1,2.808,2.808V67.751A1.2,1.2,0,0,1,73.586,68.954ZM60.7,66.547H72.383V18.808a.4.4,0,0,0-.4-.4H61.1a.4.4,0,0,0-.4.4Z" transform="translate(9.456 0.849)" fill="#008ad5"/>
  <path id="Контур_268" data-name="Контур 268" d="M66.541,74.849h0a1.2,1.2,0,0,1-1.083-.676L58.414,59.731A1.2,1.2,0,0,1,59.5,58H73.586a1.2,1.2,0,0,1,1.083,1.731L67.624,74.173A1.2,1.2,0,0,1,66.541,74.849ZM61.422,60.407,66.541,70.9l5.12-10.493Z" transform="translate(9.456 9.396)" fill="#008ad5"/>
  <path id="Контур_269" data-name="Контур 269" d="M73.587,30.027H59.494a1.2,1.2,0,0,1,0-2.407H73.587a1.2,1.2,0,0,1,0,2.407Z" transform="translate(9.455 3.214)" fill="#008ad5"/>
  <path id="Контур_270" data-name="Контур 270" d="M65.349,66.59a1.2,1.2,0,0,1-1.2-1.2V28.824a1.2,1.2,0,0,1,2.407,0V65.386A1.2,1.2,0,0,1,65.349,66.59Z" transform="translate(10.647 3.214)" fill="#008ad5"/>
</svg>
