<svg xmlns="http://www.w3.org/2000/svg" width="68.522" height="69.93" viewBox="0 0 68.522 69.93">
  <g id="_030-talk" data-name="030-talk" transform="translate(-2.736 -2.07)">
    <path id="Контур_297" data-name="Контур 297" d="M62.349,16.818H61a1,1,0,1,1,0-2h1.349a1,1,0,0,1,0,2Z" fill="#fff"/>
    <path id="Контур_298" data-name="Контур 298" d="M43.937,72H3.736a1,1,0,0,1-1-1V63.594A13.7,13.7,0,0,1,16.426,49.9H31.247a13.7,13.7,0,0,1,13.69,13.69V71a1,1,0,0,1-1,1Zm-39.2-2h38.2V63.594A11.7,11.7,0,0,0,31.247,51.9H16.426A11.7,11.7,0,0,0,4.736,63.59Z" fill="#fff"/>
    <path id="Контур_299" data-name="Контур 299" d="M23.836,47.089A10.65,10.65,0,1,1,34.487,36.438,10.65,10.65,0,0,1,23.836,47.089Zm0-19.3a8.65,8.65,0,1,0,8.651,8.65,8.65,8.65,0,0,0-8.651-8.65Z" fill="#fff"/>
    <path id="Контур_300" data-name="Контур 300" d="M34.383,72h-21.6a1,1,0,0,1-1-1V64.971a1,1,0,0,1,2,0V70h19.6V64.971a1,1,0,0,1,2,0V71A1,1,0,0,1,34.383,72Z" fill="#fff"/>
    <path id="Контур_301" data-name="Контур 301" d="M57.441,4.44a1.024,1.024,0,0,1-.2-.021,20.371,20.371,0,0,0-2.573-.352,1,1,0,1,1,.152-1.994,22.355,22.355,0,0,1,2.827.388,1,1,0,0,1-.2,1.979Z" fill="#fff"/>
    <path id="Контур_302" data-name="Контур 302" d="M38.56,32.36a1,1,0,0,1-1-1v-8a11.564,11.564,0,0,1-2.9-7.5c0-6.108,5.152-11.422,12.821-13.224a1.021,1.021,0,0,1,1.234.974,1,1,0,0,1-.834.987C41.167,6.194,36.66,10.715,36.66,15.86a9.687,9.687,0,0,0,2.646,6.464,1,1,0,0,1,.254.666v6.751l6-3a1,1,0,0,1,.761-.056,21.131,21.131,0,0,0,6.637,1.04c8.988,0,16.3-5.32,16.3-11.86a8.5,8.5,0,0,0-.126-1.443,1,1,0,1,1,1.972-.334,10.564,10.564,0,0,1,.154,1.777c0,7.642-8.21,13.86-18.3,13.86a23.245,23.245,0,0,1-6.867-1.013l-7.085,3.547a1,1,0,0,1-.446.1Z" fill="#fff"/>
    <path id="Контур_303" data-name="Контур 303" d="M65.8,8.25a1,1,0,0,1-.638-.231,14.335,14.335,0,0,0-2.169-1.486,1,1,0,1,1,.976-1.745A16.329,16.329,0,0,1,66.44,6.481,1,1,0,0,1,65.8,8.25Z" fill="#fff"/>
    <path id="Контур_304" data-name="Контур 304" d="M54.174,16.818H52.826a1,1,0,1,1,0-2h1.348a1,1,0,0,1,0,2Z" fill="#fff"/>
    <path id="Контур_305" data-name="Контур 305" d="M46,16.818H44.651a1,1,0,1,1,0-2H46a1,1,0,0,1,0,2Z" fill="#fff"/>
  </g>
</svg>
