<?xml version="1.0" encoding="UTF-8"?>
<svg width="137px" height="33px" viewBox="0 0 137 33" version="1.1" xmlns="http://www.w3.org/2000/svg" xmlns:xlink="http://www.w3.org/1999/xlink">
    <!-- Generator: Sketch 48.1 (47250) - http://www.bohemiancoding.com/sketch -->
    <title>logo</title>
    <desc>Created with Sketch.</desc>
    <defs></defs>
    <g id="Artboard" stroke="none" stroke-width="1" fill="none" fill-rule="evenodd">
        <g id="logo">
            <g>
                <polygon id="Fill-1" fill="#333333" points="6.57421982 23.3256505 4.40542591 28.3210716 3.80339301 28.6162751 3.80339301 27.205247 6.86272895e-05 27.205247 6.86272895e-05 30.9094751 3.80339301 30.9094751 4.79711616 30.069426 7.18277231 23.7472225 9.94707953 22.0769242 9.83041314 21.6226856"></polygon>
                <polygon id="Fill-2" fill="#333333" points="19.4279224 13.12416 19.4150548 13.1274267 18.6737085 17.4220618 13.5076177 18.9823249 15.7249654 12.9424302"></polygon>
                <polygon id="Fill-3" fill="#A23938" points="18.8744776 0.171912632 19.4150891 1.49542842 21.3505502 1.95276175 21.35381 1.95276175 21.6614319 2.02411263 23.4611825 2.44568456 24.9080174 1.29100386 22.2440775 0.321147719 21.6677799 1.37524947 21.674471 0.632512632"></polygon>
                <g id="Group-36" transform="translate(0.000000, 0.114505)">
                    <path d="M27.8697824,16.2144611 L27.4036316,18.4039874 L27.2385829,18.7932365 L26.9699071,18.8872821 L24.8853532,19.6105909 C24.0729777,18.6374681 23.0468281,17.4049032 22.2699672,16.4577418 L22.8591325,15.0565137 L23.0015341,13.201047 L22.9821469,13.1847137 L23.3316314,13.201047 L27.4166708,15.9127242 L27.8697824,16.2144611 Z" id="Fill-4" fill="#333333"></path>
                    <polygon id="Fill-6" fill="#333333" points="19.4150205 13.0129386 18.6736742 17.3075737 13.5075834 18.8678368 15.7249311 12.8279421"></polygon>
                    <polygon id="Fill-8" fill="#A23938" points="28.9832945 12.7955849 23.9530858 13.155606 23.3898273 13.1977288 23.3316657 13.2009954 23.3349255 13.165406 23.3769597 12.7663568 24.3772024 2.93472175 24.8368337 3.03839544 27.7306749 6.01622"></polygon>
                    <polygon id="Fill-10" fill="#A23938" points="17.9648058 1.46525474 14.546652 10.7714723 13.8248645 12.7338793 10.9440625 12.2700126 5.54155068 11.3974688 9.25428704 4.08941965 15.7476296 0.959265263"></polygon>
                    <polygon id="Fill-12" fill="#7D2B29" points="13.8248817 12.7339653 7.4255585 14.6671442 6.33781597 14.9948425 0.857755334 14.3396179 5.54156784 11.3975547 10.9439081 12.2700986"></polygon>
                    <polygon id="Fill-14" fill="#7D2B29" points="32.3690905 16.879434 28.1416494 16.3961393 27.8697138 16.2144095 27.4166021 15.9126726 23.3317343 13.2009954 23.3898959 13.1977288 23.9531544 13.155606 28.9833632 12.7955849"></polygon>
                    <polygon id="Fill-16" fill="#7D2B29" points="24.4160455 2.5551007 24.3770995 2.93472175 23.3770283 12.7663568 23.3348225 13.165406 23.3317343 13.2009954 22.9820783 13.184834 22.1534037 12.4355639 21.9461493 12.2474726 21.4250966 12.4030691 20.2695846 12.7532902 19.4278709 13.0096375 15.724914 12.8279077 13.8249675 12.734034 14.546755 10.7714551 17.9647371 1.46523754 18.1073103 1.07598842 19.4150033 1.38082 21.350636 1.83832526 21.3538958 1.83832526 21.6613461 1.90967614 23.4610967 2.33124807"></polygon>
                    <path d="M24.885336,19.6106596 L10.6105167,24.5703193 L9.94706237,21.9623158 L9.83039598,21.5082491 L9.36767648,19.6918105 L7.68768043,19.5229754 L7.42552419,14.6671614 L13.8248474,12.7339825 L15.7247939,12.8280281 L13.5076177,18.8677509 L18.6737085,17.3074877 L19.4150548,13.0128526 L19.4279224,13.009586 L20.2696361,12.7534105 L21.4251481,12.4030175 L21.9462008,12.2474211 L22.1534552,12.4355123 L22.9821297,13.1847825 L23.0015169,13.2009439 L22.8591153,15.0564105 L22.26995,16.4578105 C23.046811,17.4048 24.0729605,18.6375368 24.885336,19.6106596" id="Fill-18" fill="#E7D2D5"></path>
                    <polygon id="Fill-20" fill="#7D2B29" points="32.3690905 26.00724 22.7005348 32.4946681 6.47378378 32.4946681 31.7087244 24.5671558"></polygon>
                    <g id="Group-24" transform="translate(6.348024, 18.224561)" fill="#A23938">
                        <polygon id="Fill-22" points="25.3607516 6.34250842 0.125810978 14.2701926 2.2880853 7.03022772 4.26249242 6.34577509 18.5373118 1.38611544 20.6218657 0.662634737 20.8905415 0.568589123 22.4603908 0.0237435088"></polygon>
                    </g>
                    <polygon id="Fill-25" fill="#333333" points="42.0502907 9.88940351 46.332462 9.88940351 46.332462 22.5136947 52.4571045 22.5136947 52.4571045 26.1063404 42.0502907 26.1063404"></polygon>
                    <path d="M61.8420407,19.868967 C61.8420407,17.9729249 61.3441497,16.7752618 60.0494959,16.7752618 C58.7548421,16.7752618 58.2569511,17.9729249 58.2569511,19.868967 C58.2569511,21.765353 58.7548421,22.9626723 60.0494959,22.9626723 C61.3441497,22.9626723 61.8420407,21.765353 61.8420407,19.868967 M53.8750987,19.868967 C53.8750987,15.7276933 56.8627877,13.332367 60.0494959,13.332367 C63.2362041,13.332367 66.2238931,15.7276933 66.2238931,19.868967 C66.2238931,24.0105846 63.2362041,26.405567 60.0494959,26.405567 C56.8627877,26.405567 53.8750987,24.0105846 53.8750987,19.868967" id="Fill-27" fill="#333333"></path>
                    <path d="M74.7372971,17.8731368 C74.7372971,16.7255053 74.1896514,16.1765333 73.3928885,16.1765333 C72.5962973,16.1765333 72.0484799,16.7255053 72.0484799,17.8731368 C72.0484799,19.0708 72.5962973,19.6194281 73.3928885,19.6194281 C74.1896514,19.6194281 74.7372971,19.0708 74.7372971,17.8731368 M76.1316321,27.4535825 C76.1316321,26.8050632 75.53406,26.7051719 74.4633027,26.7051719 L73.4925697,26.7051719 C72.4964446,26.7051719 72.0484799,26.6551404 71.6998533,26.555593 C71.401153,26.8547509 71.2518887,27.1042211 71.2518887,27.4535825 C71.2518887,28.2518526 72.2474991,28.6010421 73.6915888,28.6010421 C75.0859238,28.6010421 76.1316321,28.1523053 76.1316321,27.4535825 M67.7663086,28.1523053 C67.7663086,27.1293228 68.3638808,26.3558105 69.5090987,25.7569789 L69.5090987,25.6570877 C68.8617717,25.2083509 68.3638808,24.5593158 68.3638808,23.5115754 C68.3638808,22.6632737 68.9115265,21.7652842 69.7580441,21.1664526 L69.7580441,21.0665614 C68.8617717,20.4677298 68.0650089,19.3202702 68.0650089,17.8731368 C68.0650089,14.7794316 70.654145,13.3322982 73.3928885,13.3322982 C74.0899702,13.3322982 74.7872235,13.4321895 75.384624,13.6316281 L80.015422,13.6316281 L80.015422,16.7255053 L78.2228772,16.7255053 C78.3223867,17.0248351 78.4220679,17.5237754 78.4220679,18.0227158 C78.4220679,20.9668421 76.1812153,22.1643333 73.3928885,22.1643333 C72.9945071,22.1643333 72.5463709,22.1146456 71.9985536,21.9896526 C71.7497797,22.214193 71.6998533,22.3641158 71.6998533,22.7131333 C71.6998533,23.2621053 72.1979159,23.4615439 73.4426433,23.4615439 L75.3099919,23.4615439 C78.4220679,23.4615439 80.2146127,24.4097368 80.2146127,26.7051719 C80.2146127,29.3996561 77.4262859,31.2458386 72.9945071,31.2458386 C70.1564256,31.2458386 67.7663086,30.3975368 67.7663086,28.1523053" id="Fill-29" fill="#333333"></path>
                    <path d="M82.0555912,26.1063404 L86.3377625,26.1063404 L86.3377625,13.6316281 L82.0555912,13.6316281 L82.0555912,26.1063404 Z M81.8066457,9.93926316 C81.8066457,8.69174035 82.8025992,7.79375088 84.196591,7.79375088 C85.5907544,7.79375088 86.5868795,8.69174035 86.5868795,9.93926316 C86.5868795,11.1869579 85.5907544,12.0849474 84.196591,12.0849474 C82.8025992,12.0849474 81.8066457,11.1869579 81.8066457,9.93926316 Z" id="Fill-31" fill="#333333"></path>
                    <path d="M89.2251013,13.6316453 L92.7103382,13.6316453 L93.0093816,15.1288102 L93.1088911,15.1288102 C94.1046731,14.1806172 95.3495721,13.3323154 97.0424358,13.3323154 C99.7811794,13.3323154 100.926397,15.3282488 100.926397,18.4217821 L100.926397,26.1063575 L96.644226,26.1063575 L96.644226,18.970926 C96.644226,17.3742137 96.2458445,16.9749926 95.3993269,16.9749926 C94.6027357,16.9749926 94.1544279,17.3241821 93.507101,17.9228418 L93.507101,26.1063575 L89.2251013,26.1063575 L89.2251013,13.6316453 Z" id="Fill-33" fill="#333333"></path>
                    <path d="M111.032864,19.868967 C111.032864,17.9729249 110.534973,16.7752618 109.240319,16.7752618 C107.945665,16.7752618 107.447774,17.9729249 107.447774,19.868967 C107.447774,21.765353 107.945665,22.9626723 109.240319,22.9626723 C110.534973,22.9626723 111.032864,21.765353 111.032864,19.868967 M103.065922,19.868967 C103.065922,15.7276933 106.053611,13.332367 109.240319,13.332367 C112.427027,13.332367 115.414545,15.7276933 115.414545,19.868967 C115.414545,24.0105846 112.427027,26.405567 109.240319,26.405567 C106.053611,26.405567 103.065922,24.0105846 103.065922,19.868967" id="Fill-34" fill="#333333"></path>
                    <path d="M117.654316,13.6316453 L121.139553,13.6316453 L121.438425,15.1535681 L121.538106,15.1535681 C122.533888,14.1806172 123.579425,13.3323154 125.27246,13.3323154 C126.965495,13.3323154 128.036081,14.0310382 128.708285,15.3282488 C129.729116,14.2805084 130.849285,13.3323154 132.542149,13.3323154 C135.280892,13.3323154 136.476037,15.3282488 136.476037,18.4217821 L136.476037,26.1063575 L132.193865,26.1063575 L132.193865,18.970926 C132.193865,17.3742137 131.795484,16.9749926 130.948795,16.9749926 C130.450904,16.9749926 129.853503,17.2743225 129.206176,17.9228418 L129.206176,26.1063575 L124.924005,26.1063575 L124.924005,18.970926 C124.924005,17.3742137 124.525795,16.9749926 123.679106,16.9749926 C123.181215,16.9749926 122.583643,17.2743225 121.936316,17.9228418 L121.936316,26.1063575 L117.654316,26.1063575 L117.654316,13.6316453 Z" id="Fill-35" fill="#333333"></path>
                </g>
            </g>
        </g>
    </g>
</svg>