<svg id="Слой_1" data-name="Слой 1" xmlns="http://www.w3.org/2000/svg" viewBox="0 0 582.02 92.15"><defs><style>.cls-1{fill:red}.cls-1,.cls-3{fill-rule:evenodd}.cls-2,.cls-3{fill:#1e0e00}</style></defs><title>logo-ug</title><path class="cls-1" d="M20.27,1.4l5.8,28.13c.68,3.43,1.47,8,2.06,11.07h.39c.59-3.18,1.18-7.76,1.77-11.07L34.71,1.4H53.57L43.26,41.11C36,67.45,31.27,77,26,83a25.9,25.9,0,0,1-16,9.17L6.33,72.8a20.7,20.7,0,0,0,6-2.42A15.11,15.11,0,0,0,18,64.65a5.38,5.38,0,0,0,1-2.8,12.87,12.87,0,0,0-.69-3.43L.63,1.41H20.27Zm541,13.24a25.28,25.28,0,0,0-4.13-.38c-4.42,0-7.27,2.54-7.27,6.87s3.44,7,7.57,7a26.23,26.23,0,0,0,3.83-.26V14.64ZM578.74,64H561.26V41.75h-1.58c-3,0-5.1,2.16-6.48,4.83-2.06,2.93-3.34,8-4.52,12.22-.58,1.91-1,2.93-1.86,5.22H528.06a36.2,36.2,0,0,0,3-6.87c1.37-4.46,3.92-12.6,6.48-16.55a11.76,11.76,0,0,1,6.28-5v-.51c-5-.64-12.27-5.22-12.27-15.4,0-8.28,3.73-13,9-15.91C545.15,1.15,552.22.26,558.9.26a143.05,143.05,0,0,1,19.84,1.39V64ZM505.65,35.38c-7.17,0-11.3,2.68-11.3,8.15,0,3.94,2.06,6,5,6,2.55,0,5.3-2.29,6.09-5.73a17.64,17.64,0,0,0,.2-3.3v-5.1Zm17.18,13.36c0,6.24.2,12.1.79,15.28H507.71l-1-5.47h-.29A15.54,15.54,0,0,1,493,65.42c-9.83,0-15.92-9.29-15.92-19.73,0-16.8,11.59-24.18,28-24.31v-.51c0-2.54-1.47-5.34-7.86-5.34a24.2,24.2,0,0,0-13.65,4.71L480.4,5.6a36.82,36.82,0,0,1,20-5.6c16.6,0,22.39,12,22.39,27.62V48.74ZM444.17,1.4V25.45h1.48l9.62-24H475.7L459.4,27.87c4.81,1.27,7.85,8.28,10.31,16.42,1.77,5.6,3.63,13.49,6.09,19.73H457.33c-1.27-2.67-2.26-6.87-4.32-14.26-1.57-6-4-9.41-7.47-9.41h-1.37V64H426.59V1.4ZM419.32,62.74c-2.94,1.66-7.95,2.68-13.35,2.68-16,0-26.13-12.22-26.13-32.2C379.84,15.4,389.27,0,408.13,0a29,29,0,0,1,11.19,2.16l-2.55,16.93a15.64,15.64,0,0,0-7.57-1.65c-6.67,0-11.29,5.85-11.29,15,0,10.19,5.5,15,11.69,15a16.22,16.22,0,0,0,7.76-1.53l2,16.8ZM344.24,49.13a29.73,29.73,0,0,0,4.33.38c4.22,0,9-1.91,9-8.14,0-6.5-5.4-7.9-9.13-7.9a17.41,17.41,0,0,0-4.23.51V49.13Zm.1-47.73V19a41.78,41.78,0,0,1,7.37-.76c11.49,0,23.48,5.22,23.48,21.89,0,8.53-2.95,14.26-7.27,17.82-6.59,5.47-16.41,6.87-23.87,6.87a112.49,112.49,0,0,1-17.39-1.27V1.4Zm-27.75,0V64H298.81V18.84H291v9.54c0,14.13-1.38,24.31-6.38,30.17-3.34,4.83-8.35,7-15.91,7l-2-17.7a9,9,0,0,0,5.7-3.69c2.06-3.43,2.36-8,2.36-17.18V1.4ZM248.37,25.2c0-3.56-1.28-10.18-6.88-10.18-5.21,0-7.27,6.23-7.56,10.18ZM234.12,40.73c.59,5,6.19,7.76,12.38,7.76a33.92,33.92,0,0,0,13.26-2.42L262,61.35a38.47,38.47,0,0,1-18.08,4.07c-17,0-26.61-12.22-26.61-32.07,0-14.64,7.27-33.35,25-33.35,15.62,0,22.3,14.89,22.3,32.07a50.42,50.42,0,0,1-.69,8.66ZM214.3,1.4V18.84H200.75V64H183V18.84H169.42V1.4Zm-83.44,0V17.56c0,10.06-.5,17.44-.79,25.71h.4c2-6.87,3.14-12,4.61-17.31L142,1.4h21.9V64h-16.7V48.11c0-9.55.39-13.11.89-27.62h-.4c-1.37,6.24-2.16,10.06-3.83,15.66-2.36,8.4-5.3,18.7-7.95,27.87H114.26V1.4ZM75.6,1.4v19c0,6.62,1.87,9.42,6,9.42a7.72,7.72,0,0,0,4.81-2V1.4h17.78V65H86.4V42.26h-.19c-2.75,2.16-7.17,3.56-11.69,3.56-10.9,0-16.6-8.4-16.6-23.42V1.4Z" transform="translate(-0.63)"/><path class="cls-2" d="M58.23,89.12v-.45a1.53,1.53,0,0,0,.86-.42,1.91,1.91,0,0,0,.23-1.16V84.94H54.87v2.15a1.92,1.92,0,0,0,.23,1.13,1.51,1.51,0,0,0,.9.45v.45H52v-.45a1.54,1.54,0,0,0,.89-.46,2,2,0,0,0,.22-1.12V82.36a2,2,0,0,0-.23-1.14,1.4,1.4,0,0,0-.88-.43v-.45h4v.45a1.39,1.39,0,0,0-.86.42,1.94,1.94,0,0,0-.24,1.15v1.77h4.45V82.36a1.86,1.86,0,0,0-.25-1.18,1.5,1.5,0,0,0-.84-.39v-.45h4v.45a1.41,1.41,0,0,0-.89.45,2,2,0,0,0-.22,1.12v4.73a2,2,0,0,0,.23,1.13,1.48,1.48,0,0,0,.88.45v.45ZM72.6,87.56a9,9,0,0,1-1.22,1,4.9,4.9,0,0,1-1.21.54,4.82,4.82,0,0,1-1.46.2,4.25,4.25,0,0,1-3.21-1.13,4.7,4.7,0,0,1-1.08-3.35A5.11,5.11,0,0,1,65,82.37a3.81,3.81,0,0,1,1.57-1.61,4.79,4.79,0,0,1,2.36-.57,5,5,0,0,1,1.78.29,2.89,2.89,0,0,1,1.17.81,3.46,3.46,0,0,1,.68,1.28,8.05,8.05,0,0,1,.28,2H66.3v.16a5.33,5.33,0,0,0,.27,1.82,2.27,2.27,0,0,0,.9,1.16,2.88,2.88,0,0,0,1.63.42,3.88,3.88,0,0,0,1.52-.28A4.65,4.65,0,0,0,72,87l.63.59Zm-1.74-3.73a6,6,0,0,0-.28-1.62,1.94,1.94,0,0,0-.65-1,1.81,1.81,0,0,0-1.13-.34,2.09,2.09,0,0,0-1.7.76,3.71,3.71,0,0,0-.75,2.16Zm3.63,5V87h1.13a2.75,2.75,0,0,0,.87,1.19,2.49,2.49,0,0,0,1.44.34c1.57,0,2.36-.59,2.36-1.8a1.67,1.67,0,0,0-.53-1.31A3.37,3.37,0,0,0,77.67,85H76.19V84.1h1.52a3.13,3.13,0,0,0,2-.45,1.54,1.54,0,0,0,.5-1.23c0-1-.65-1.5-2-1.5a2.58,2.58,0,0,0-2.59,1.57h-1V80.76a14.76,14.76,0,0,1,3.77-.57,5.77,5.77,0,0,1,2.79.5,1.74,1.74,0,0,1,.87,1.62c0,1-.74,1.74-2.22,2.15v.09c1.55.31,2.33,1,2.33,2.21,0,1.67-1.44,2.51-4.3,2.51a15.5,15.5,0,0,1-3.4-.39Zm15.84-1.07-.16,0a6.24,6.24,0,0,1-1.69,1.16,4.12,4.12,0,0,1-1.67.34A3.35,3.35,0,0,1,85.42,89a2,2,0,0,1-.92-.76,2.08,2.08,0,0,1-.32-1.14A2.28,2.28,0,0,1,85.67,85a11.85,11.85,0,0,1,4.48-.85v-.6a4.35,4.35,0,0,0-.21-1.5,1.47,1.47,0,0,0-.64-.81A2.41,2.41,0,0,0,88.11,81a2.09,2.09,0,0,0-1.3.38,2.22,2.22,0,0,0-.74,1.13H84.72V81.33a14.3,14.3,0,0,1,1.65-.68,9.15,9.15,0,0,1,1.32-.34A7.5,7.5,0,0,1,89,80.19a3.81,3.81,0,0,1,1.65.29,1.94,1.94,0,0,1,.93.88,4.16,4.16,0,0,1,.31,1.8v3.2c0,.45,0,.77,0,1a2.75,2.75,0,0,0,.06.52,1.12,1.12,0,0,0,.15.38.83.83,0,0,0,.31.24,3,3,0,0,0,.66.21v.45H90.28l0-1.31Zm-.18-2.87a8,8,0,0,0-3.14.49,1.54,1.54,0,0,0-1,1.44,1.3,1.3,0,0,0,.24.83,1.22,1.22,0,0,0,.6.42,2.7,2.7,0,0,0,.85.11,2.74,2.74,0,0,0,1.28-.3,2.41,2.41,0,0,0,.89-.77,1.68,1.68,0,0,0,.32-.93V84.94Zm4.63,4.18v-.45a1.5,1.5,0,0,0,.89-.46,2,2,0,0,0,.23-1.12V82.37a1.92,1.92,0,0,0-.25-1.18,1.54,1.54,0,0,0-.87-.4v-.45H99.3a7,7,0,0,1,3,.49,1.69,1.69,0,0,1,.94,1.62c0,.88-.62,1.55-1.87,2v.09c1.45.34,2.17,1.06,2.17,2.16a2,2,0,0,1-1,1.8,6.32,6.32,0,0,1-3.31.63Zm2.89-8.07v3.14h1.26a3.32,3.32,0,0,0,1.93-.41,1.46,1.46,0,0,0,.53-1.21,1.31,1.31,0,0,0-.56-1.18,3.74,3.74,0,0,0-2-.38l-1.2,0Zm0,3.83v3.51c.36,0,.81,0,1.35,0a3.43,3.43,0,0,0,2.09-.47,1.61,1.61,0,0,0,.57-1.33,1.56,1.56,0,0,0-.56-1.3,3.28,3.28,0,0,0-2-.45Zm14.53,4.24v-.45a1.5,1.5,0,0,0,.84-.42,1.89,1.89,0,0,0,.24-1.16V83.21l-4.56,4.18a1.48,1.48,0,0,0,.22.88,1.72,1.72,0,0,0,.85.4v.45h-3.94v-.45a1.54,1.54,0,0,0,.89-.46,2,2,0,0,0,.22-1.12V82.36a2,2,0,0,0-.23-1.14,1.43,1.43,0,0,0-.88-.43v-.45h3.94v.45a1.35,1.35,0,0,0-.86.43,2,2,0,0,0-.23,1.14v3.82L113.23,82a1.1,1.1,0,0,0-1.07-1.2v-.45h4v.45a1.42,1.42,0,0,0-.87.42,1.94,1.94,0,0,0-.24,1.15v4.73a2,2,0,0,0,.23,1.13,1.48,1.48,0,0,0,.88.45v.45Zm13.73-8.57v1.92h-1.31a3.17,3.17,0,0,0-.43-.94,1.49,1.49,0,0,0-.6-.48,2.36,2.36,0,0,0-.85-.14,2.07,2.07,0,0,0-1.28.42,2.74,2.74,0,0,0-.89,1.25,6,6,0,0,0-.32,2.07,7.87,7.87,0,0,0,.12,1.43,3.07,3.07,0,0,0,.43,1.11,2,2,0,0,0,.79.71,2.67,2.67,0,0,0,1.23.26,3.42,3.42,0,0,0,1.33-.25,4,4,0,0,0,1.27-.87l.59.6a8,8,0,0,1-.92.8,4.87,4.87,0,0,1-.87.47,5.5,5.5,0,0,1-.91.27,5,5,0,0,1-1,.09,3.79,3.79,0,0,1-3-1.15,5.64,5.64,0,0,1-.45-5.74,3.89,3.89,0,0,1,1.62-1.62,4.89,4.89,0,0,1,2.4-.57,15.09,15.09,0,0,1,1.57.08,12.19,12.19,0,0,1,1.44.28ZM134,89.12v-.45a1.5,1.5,0,0,0,.84-.42,1.89,1.89,0,0,0,.24-1.16V83.21l-4.56,4.18a1.41,1.41,0,0,0,.23.88,1.67,1.67,0,0,0,.85.4v.45h-4v-.45a1.54,1.54,0,0,0,.89-.46,2,2,0,0,0,.22-1.12V82.36a2,2,0,0,0-.23-1.14,1.4,1.4,0,0,0-.88-.43v-.45h4v.45a1.37,1.37,0,0,0-.87.43,2,2,0,0,0-.23,1.14v3.82L135,82a1.1,1.1,0,0,0-1.07-1.2v-.45h3.95v.45a1.42,1.42,0,0,0-.87.42,1.94,1.94,0,0,0-.24,1.15v4.73a2,2,0,0,0,.23,1.13,1.48,1.48,0,0,0,.88.45v.45Zm14.21,0v-.45a1.45,1.45,0,0,0,.89-.47,2.22,2.22,0,0,0,.2-1.11V83.46a13.18,13.18,0,0,1,.08-1.7h-.12l-3,5.91h-1l-2.82-6.06h-.1q.06.67.06,1.47v4a2.1,2.1,0,0,0,.21,1.11,1.42,1.42,0,0,0,.89.47v.45h-3.4v-.45a1.45,1.45,0,0,0,.89-.47,2.22,2.22,0,0,0,.2-1.11V82.36a1.86,1.86,0,0,0-.25-1.18,1.5,1.5,0,0,0-.84-.39v-.45h3.42L146.11,86l2.8-5.65h3.23v.45a1.34,1.34,0,0,0-.89.45,2,2,0,0,0-.22,1.12v4.73a1.94,1.94,0,0,0,.23,1.14,1.45,1.45,0,0,0,.88.44v.45Zm10.56.15a4,4,0,0,1-4.42-4.45,5.12,5.12,0,0,1,.6-2.57,3.69,3.69,0,0,1,1.63-1.55,5.21,5.21,0,0,1,2.35-.51,4.55,4.55,0,0,1,3.35,1.14,4.46,4.46,0,0,1,1.13,3.29,5.45,5.45,0,0,1-.56,2.57,3.65,3.65,0,0,1-1.62,1.56,5.41,5.41,0,0,1-2.46.52Zm-2.47-4.65a5.24,5.24,0,0,0,.68,2.91,2.18,2.18,0,0,0,1.94,1,2.22,2.22,0,0,0,1.18-.29,2.45,2.45,0,0,0,.79-.81,3.7,3.7,0,0,0,.44-1.17,7,7,0,0,0,.13-1.39,6.5,6.5,0,0,0-.33-2.24,2.76,2.76,0,0,0-.92-1.31,2.21,2.21,0,0,0-1.32-.42,2.18,2.18,0,0,0-1.92,1,4.82,4.82,0,0,0-.67,2.74Zm17.46,2.94a9,9,0,0,1-1.22,1,4.9,4.9,0,0,1-1.21.54,4.82,4.82,0,0,1-1.46.2,4.25,4.25,0,0,1-3.21-1.13,4.7,4.7,0,0,1-1.08-3.35,5.11,5.11,0,0,1,.55-2.42,3.81,3.81,0,0,1,1.57-1.61,4.79,4.79,0,0,1,2.36-.57,5,5,0,0,1,1.78.29,2.89,2.89,0,0,1,1.17.81,3.46,3.46,0,0,1,.68,1.28,8.05,8.05,0,0,1,.28,2h-6.51v.16a5.33,5.33,0,0,0,.27,1.82,2.27,2.27,0,0,0,.9,1.16,2.88,2.88,0,0,0,1.63.42,3.88,3.88,0,0,0,1.52-.28,4.65,4.65,0,0,0,1.35-.91l.63.59ZM172,83.83a6,6,0,0,0-.28-1.62,1.94,1.94,0,0,0-.65-1,1.83,1.83,0,0,0-1.13-.34,2.09,2.09,0,0,0-1.7.76,3.71,3.71,0,0,0-.75,2.16Zm14.34,5.29v-.45a1.53,1.53,0,0,0,.86-.42,1.89,1.89,0,0,0,.24-1.16v-6h-4v6a1.75,1.75,0,0,0,.26,1.18,1.68,1.68,0,0,0,.86.4v.45h-4v-.45a1.47,1.47,0,0,0,.9-.47,2.12,2.12,0,0,0,.21-1.11V82.36a2,2,0,0,0-.23-1.14,1.43,1.43,0,0,0-.88-.43v-.45h9.77v.45a1.4,1.4,0,0,0-.89.44,2.16,2.16,0,0,0-.22,1.13v4.73a2.1,2.1,0,0,0,.21,1.1,1.4,1.4,0,0,0,.9.48v.45Zm14.37-1.56a9.66,9.66,0,0,1-1.21,1,5,5,0,0,1-1.22.54,4.77,4.77,0,0,1-1.46.2,4.27,4.27,0,0,1-3.21-1.13,4.7,4.7,0,0,1-1.08-3.35,5.11,5.11,0,0,1,.55-2.42,3.78,3.78,0,0,1,1.58-1.61,4.73,4.73,0,0,1,2.35-.57,4.91,4.91,0,0,1,1.78.29,2.89,2.89,0,0,1,1.17.81,3.32,3.32,0,0,1,.68,1.28,7.23,7.23,0,0,1,.28,2h-6.51v.16a5.33,5.33,0,0,0,.27,1.82,2.27,2.27,0,0,0,.9,1.16,2.88,2.88,0,0,0,1.63.42,3.88,3.88,0,0,0,1.52-.28,4.65,4.65,0,0,0,1.35-.91l.63.59ZM199,83.83a6.91,6.91,0,0,0-.28-1.62,2,2,0,0,0-.66-1,1.79,1.79,0,0,0-1.13-.34,2.09,2.09,0,0,0-1.7.76,3.85,3.85,0,0,0-.75,2.16Zm12.9,8.26a11.27,11.27,0,0,0-.46-1.89,1.74,1.74,0,0,0-.59-.84,2.2,2.2,0,0,0-1.2-.24h-4.41a1.68,1.68,0,0,0-1.36.57,5.25,5.25,0,0,0-.75,2.42h-.95V88.33h1.21a10.41,10.41,0,0,0,1.71-3.13,9.76,9.76,0,0,0,.62-3.25,1,1,0,0,0-.93-1.16v-.45h7.66v.45a1.42,1.42,0,0,0-.92.44,2,2,0,0,0-.24,1.13v6h1.58v3.76Zm-2.38-11h-2.48a14.27,14.27,0,0,1-2.33,7.24h4.81V81.09Zm11.06,6.72-.15,0a6.4,6.4,0,0,1-1.69,1.16,4.17,4.17,0,0,1-1.68.34,3.35,3.35,0,0,1-1.39-.27,2.1,2.1,0,0,1-.92-.76,2.08,2.08,0,0,1-.32-1.14,2.27,2.27,0,0,1,1.5-2.07,11.75,11.75,0,0,1,4.47-.85v-.6a4.64,4.64,0,0,0-.2-1.5,1.53,1.53,0,0,0-.65-.81,2.41,2.41,0,0,0-1.19-.26,2.09,2.09,0,0,0-1.3.38,2.29,2.29,0,0,0-.74,1.13H215V81.33a14.3,14.3,0,0,1,1.65-.68,9.15,9.15,0,0,1,1.32-.34,7.53,7.53,0,0,1,1.35-.12,3.8,3.8,0,0,1,1.64.29,1.94,1.94,0,0,1,.93.88,4.16,4.16,0,0,1,.31,1.8v3.2c0,.45,0,.77,0,1a3.92,3.92,0,0,0,.06.52,1.12,1.12,0,0,0,.16.38.73.73,0,0,0,.3.24,3.22,3.22,0,0,0,.66.21v.45h-2.83l.05-1.31Zm-.18-2.87a8,8,0,0,0-3.14.49,1.54,1.54,0,0,0-1,1.44,1.3,1.3,0,0,0,.24.83,1.22,1.22,0,0,0,.6.42,3,3,0,0,0,2.13-.19,2.41,2.41,0,0,0,.89-.77,1.68,1.68,0,0,0,.32-.93V84.94Zm11.41-2a3.55,3.55,0,0,0-.72-1.39,1.56,1.56,0,0,0-1.2-.41h-2V86.8a2.6,2.6,0,0,0,.25,1.42,1.72,1.72,0,0,0,1.05.45v.45H225v-.45a1.57,1.57,0,0,0,.9-.46,2.07,2.07,0,0,0,.22-1.12V82.36a2,2,0,0,0-.23-1.14,1.43,1.43,0,0,0-.89-.43v-.45h7.74v2.55Zm7.1,6.38a4.45,4.45,0,0,1-3.28-1.12,4.52,4.52,0,0,1-1.13-3.33,5.22,5.22,0,0,1,.59-2.57,3.75,3.75,0,0,1,1.63-1.55,5.24,5.24,0,0,1,2.35-.51,4.53,4.53,0,0,1,3.35,1.14,4.46,4.46,0,0,1,1.14,3.29,5.33,5.33,0,0,1-.57,2.57,3.67,3.67,0,0,1-1.61,1.56,5.45,5.45,0,0,1-2.47.52Zm-2.46-4.65a5.15,5.15,0,0,0,.68,2.91,2.41,2.41,0,0,0,3.11.72,2.36,2.36,0,0,0,.79-.81,3.7,3.7,0,0,0,.44-1.17,7,7,0,0,0,.13-1.39,6.27,6.27,0,0,0-.33-2.24,2.74,2.74,0,0,0-.91-1.31,2.22,2.22,0,0,0-1.33-.42,2.16,2.16,0,0,0-1.91,1,4.74,4.74,0,0,0-.67,2.74Zm16.07-1.73a3.83,3.83,0,0,0-.72-1.39,1.59,1.59,0,0,0-1.2-.41h-2V86.8a2.58,2.58,0,0,0,.26,1.42,1.65,1.65,0,0,0,1,.45v.45h-4.19v-.45a1.5,1.5,0,0,0,.89-.46,2,2,0,0,0,.23-1.12V82.36a2,2,0,0,0-.24-1.14,1.4,1.4,0,0,0-.88-.43v-.45h7.74v2.55Zm9,6.23v-.45a1.53,1.53,0,0,0,.84-.42,2,2,0,0,0,.23-1.16V83.21l-4.55,4.18a1.41,1.41,0,0,0,.22.88,1.72,1.72,0,0,0,.85.4v.45h-3.94v-.45a1.57,1.57,0,0,0,.89-.46,2,2,0,0,0,.22-1.12V82.36a2,2,0,0,0-.23-1.14,1.43,1.43,0,0,0-.88-.43v-.45h3.94v.45a1.32,1.32,0,0,0-.86.43,1.92,1.92,0,0,0-.24,1.14v3.82L262.59,82a1.11,1.11,0,0,0-1.07-1.2v-.45h3.94v.45a1.36,1.36,0,0,0-.86.42,1.94,1.94,0,0,0-.24,1.15v4.73a1.92,1.92,0,0,0,.23,1.13,1.48,1.48,0,0,0,.87.45v.45Zm11.1,0v-.45a1.52,1.52,0,0,0,.91-.44,2,2,0,0,0,.23-1.14V85.21a14.86,14.86,0,0,1-2.68.25,3.55,3.55,0,0,1-2.32-.62,2.37,2.37,0,0,1-.73-1.93v-.55a2.11,2.11,0,0,0-.22-1.13,1.5,1.5,0,0,0-.84-.44v-.45h3.89v.45a1.48,1.48,0,0,0-.87.41,1.85,1.85,0,0,0-.24,1.13V83a1.63,1.63,0,0,0,.45,1.28,2.4,2.4,0,0,0,1.6.41,9.09,9.09,0,0,0,2-.24v-2.1a1.75,1.75,0,0,0-.26-1.18,1.57,1.57,0,0,0-.84-.36v-.45h4v.45a1.46,1.46,0,0,0-.88.43,2,2,0,0,0-.24,1.14v4.73a1.88,1.88,0,0,0,.24,1.14,1.64,1.64,0,0,0,.88.44v.45Zm14.42-1.56a9,9,0,0,1-1.22,1,4.9,4.9,0,0,1-1.21.54,4.82,4.82,0,0,1-1.46.2A4.25,4.25,0,0,1,280,88.14a4.7,4.7,0,0,1-1.08-3.35,5.11,5.11,0,0,1,.55-2.42A3.81,3.81,0,0,1,281,80.76a4.79,4.79,0,0,1,2.36-.57,5,5,0,0,1,1.78.29,2.89,2.89,0,0,1,1.17.81,3.46,3.46,0,0,1,.68,1.28,8.05,8.05,0,0,1,.28,2h-6.51v.16a5.33,5.33,0,0,0,.27,1.82,2.27,2.27,0,0,0,.9,1.16,2.88,2.88,0,0,0,1.63.42,3.88,3.88,0,0,0,1.52-.28,4.65,4.65,0,0,0,1.35-.91l.63.59Zm-1.74-3.73a6,6,0,0,0-.28-1.62,1.94,1.94,0,0,0-.65-1,1.83,1.83,0,0,0-1.13-.34,2.09,2.09,0,0,0-1.7.76,3.71,3.71,0,0,0-.75,2.16Zm11.5-3.28v1.92h-1.31a3.17,3.17,0,0,0-.43-.94,1.49,1.49,0,0,0-.6-.48,2.32,2.32,0,0,0-.85-.14,2.07,2.07,0,0,0-1.28.42,2.74,2.74,0,0,0-.89,1.25,6,6,0,0,0-.32,2.07,7.87,7.87,0,0,0,.12,1.43,3.26,3.26,0,0,0,.43,1.11,2,2,0,0,0,.79.71,2.67,2.67,0,0,0,1.23.26,3.42,3.42,0,0,0,1.33-.25,4,4,0,0,0,1.27-.87l.59.6a8,8,0,0,1-.92.8,4.87,4.87,0,0,1-.87.47,5.5,5.5,0,0,1-.91.27,5,5,0,0,1-1,.09,3.79,3.79,0,0,1-3-1.15,5.64,5.64,0,0,1-.45-5.74,3.89,3.89,0,0,1,1.62-1.62,4.89,4.89,0,0,1,2.4-.57,15.09,15.09,0,0,1,1.57.08,12.19,12.19,0,0,1,1.44.28Zm8.55,8.57v-.45l-1.13-2.4a2.2,2.2,0,0,0-.88-1.1,2.66,2.66,0,0,0-1.16-.23h-.75v1.89a2.58,2.58,0,0,0,.23,1.42,1.79,1.79,0,0,0,.9.42v.45h-4v-.45a1.33,1.33,0,0,0,.89-.5,3.22,3.22,0,0,0,.18-1.34V82.35a2,2,0,0,0-.22-1.12,1.36,1.36,0,0,0-.9-.44v-.45h4v.45a1.4,1.4,0,0,0-.88.43,1.82,1.82,0,0,0-.25,1.13v1.9h.75a1.55,1.55,0,0,0,1.08-.36,4.93,4.93,0,0,0,.92-1.52,5.08,5.08,0,0,1,1.11-1.68,2.8,2.8,0,0,1,1.91-.52,4.45,4.45,0,0,1,1,.13v1.79h-.93a.66.66,0,0,0-.69-.58,1.13,1.13,0,0,0-.71.21,3.46,3.46,0,0,0-.65,1,3.55,3.55,0,0,1-1.42,1.75v0a3.3,3.3,0,0,1,2.2,1.56l.78,1.37a3.15,3.15,0,0,0,.71.9,2.08,2.08,0,0,0,1,.35v.45Zm8.82.15a4.44,4.44,0,0,1-3.28-1.12,4.52,4.52,0,0,1-1.13-3.33,5.12,5.12,0,0,1,.59-2.57A3.69,3.69,0,0,1,312,80.7a5.24,5.24,0,0,1,2.35-.51,4.53,4.53,0,0,1,3.35,1.14,4.46,4.46,0,0,1,1.14,3.29,5.33,5.33,0,0,1-.57,2.57,3.67,3.67,0,0,1-1.61,1.56,5.45,5.45,0,0,1-2.47.52Zm-2.46-4.65a5.24,5.24,0,0,0,.67,2.91,2.43,2.43,0,0,0,3.12.72,2.36,2.36,0,0,0,.79-.81,3.7,3.7,0,0,0,.44-1.17,7,7,0,0,0,.13-1.39,6.5,6.5,0,0,0-.33-2.24,2.69,2.69,0,0,0-.92-1.31,2.17,2.17,0,0,0-1.32-.42,2.19,2.19,0,0,0-1.92,1,4.82,4.82,0,0,0-.66,2.74Zm17.45,2.94a9.66,9.66,0,0,1-1.21,1,5,5,0,0,1-1.22.54,4.77,4.77,0,0,1-1.46.2,4.27,4.27,0,0,1-3.21-1.13A4.7,4.7,0,0,1,321,84.79a5.11,5.11,0,0,1,.55-2.42,3.78,3.78,0,0,1,1.58-1.61,4.73,4.73,0,0,1,2.35-.57,4.91,4.91,0,0,1,1.78.29,2.89,2.89,0,0,1,1.17.81,3.32,3.32,0,0,1,.68,1.28,7.23,7.23,0,0,1,.28,2H322.9v.16a5.33,5.33,0,0,0,.27,1.82,2.27,2.27,0,0,0,.9,1.16,2.88,2.88,0,0,0,1.63.42,3.88,3.88,0,0,0,1.52-.28,4.65,4.65,0,0,0,1.35-.91l.63.59Zm-1.74-3.73a6.47,6.47,0,0,0-.27-1.62,2,2,0,0,0-.66-1,1.81,1.81,0,0,0-1.13-.34,2.09,2.09,0,0,0-1.7.76,3.85,3.85,0,0,0-.75,2.16Zm14.91,5.29v-.45a1.5,1.5,0,0,0,.84-.42,1.89,1.89,0,0,0,.24-1.16V83.21l-4.56,4.18a1.41,1.41,0,0,0,.23.88,1.67,1.67,0,0,0,.85.4v.45h-4v-.45a1.54,1.54,0,0,0,.89-.46,2,2,0,0,0,.22-1.12V82.36a2,2,0,0,0-.23-1.14,1.4,1.4,0,0,0-.88-.43v-.45h4v.45a1.37,1.37,0,0,0-.87.43,2,2,0,0,0-.23,1.14v3.82L343.4,82a1.1,1.1,0,0,0-1.07-1.2v-.45h3.95v.45a1.42,1.42,0,0,0-.87.42,1.94,1.94,0,0,0-.24,1.15v4.73a2,2,0,0,0,.23,1.13,1.48,1.48,0,0,0,.88.45v.45Z" transform="translate(-0.63)"/><path class="cls-2" d="M348.23,88.88V87h1.13a2.75,2.75,0,0,0,.87,1.19,2.51,2.51,0,0,0,1.44.34c1.57,0,2.36-.59,2.36-1.8a1.67,1.67,0,0,0-.53-1.31,3.37,3.37,0,0,0-2.09-.46h-1.47V84.1h1.51a3.13,3.13,0,0,0,2-.45,1.54,1.54,0,0,0,.5-1.23c0-1-.65-1.5-2-1.5a2.58,2.58,0,0,0-2.59,1.57h-1V80.76a14.76,14.76,0,0,1,3.77-.57,5.77,5.77,0,0,1,2.79.5,1.74,1.74,0,0,1,.87,1.62c0,1-.74,1.74-2.22,2.15v.09c1.55.31,2.33,1,2.33,2.21,0,1.67-1.44,2.51-4.3,2.51a15.5,15.5,0,0,1-3.4-.39Zm19,3.21a11.27,11.27,0,0,0-.46-1.89,1.74,1.74,0,0,0-.59-.84,2.2,2.2,0,0,0-1.2-.24h-4.41a1.71,1.71,0,0,0-1.37.57,5.4,5.4,0,0,0-.74,2.42h-1V88.33h1.21a10.43,10.43,0,0,0,1.72-3.13A10,10,0,0,0,361,82a1,1,0,0,0-.93-1.16v-.45h7.66v.45a1.42,1.42,0,0,0-.92.44,2,2,0,0,0-.24,1.13v6h1.58v3.76Zm-2.38-11h-2.48A14.36,14.36,0,0,1,360,88.33h4.81V81.09Zm11.06,6.72-.16,0A6.24,6.24,0,0,1,374,88.93a4.12,4.12,0,0,1-1.67.34A3.35,3.35,0,0,1,371,89a2,2,0,0,1-.92-.76,2.08,2.08,0,0,1-.32-1.14A2.28,2.28,0,0,1,371.22,85a11.85,11.85,0,0,1,4.48-.85v-.6a4.35,4.35,0,0,0-.21-1.5,1.47,1.47,0,0,0-.64-.81,2.41,2.41,0,0,0-1.19-.26,2.09,2.09,0,0,0-1.3.38,2.22,2.22,0,0,0-.74,1.13h-1.35V81.33a14.3,14.3,0,0,1,1.65-.68,9.15,9.15,0,0,1,1.32-.34,7.5,7.5,0,0,1,1.34-.12,3.81,3.81,0,0,1,1.65.29,1.94,1.94,0,0,1,.93.88,4.16,4.16,0,0,1,.31,1.8v3.2c0,.45,0,.77,0,1a2.75,2.75,0,0,0,.06.52,1.37,1.37,0,0,0,.15.38.83.83,0,0,0,.31.24,3,3,0,0,0,.66.21v.45h-2.83l.05-1.31Zm-.18-2.87a8,8,0,0,0-3.14.49,1.54,1.54,0,0,0-1,1.44,1.3,1.3,0,0,0,.24.83,1.22,1.22,0,0,0,.6.42,3,3,0,0,0,2.13-.19,2.41,2.41,0,0,0,.89-.77,1.68,1.68,0,0,0,.32-.93V84.94Zm10.88,4.18v-.45a1.6,1.6,0,0,0,.87-.42,2,2,0,0,0,.23-1.16V84.94h-4.46v2.15a2,2,0,0,0,.23,1.13,1.51,1.51,0,0,0,.9.45v.45h-4v-.45a1.57,1.57,0,0,0,.9-.46,2.07,2.07,0,0,0,.22-1.12V82.36a2,2,0,0,0-.24-1.14,1.37,1.37,0,0,0-.88-.43v-.45h4v.45a1.42,1.42,0,0,0-.87.42,1.94,1.94,0,0,0-.24,1.15v1.77h4.46V82.36a1.85,1.85,0,0,0-.26-1.18,1.5,1.5,0,0,0-.84-.39v-.45h4v.45a1.41,1.41,0,0,0-.89.45,2.09,2.09,0,0,0-.22,1.12v4.73a2,2,0,0,0,.23,1.13,1.51,1.51,0,0,0,.88.45v.45Zm12.56,0v-.45a1.57,1.57,0,0,0,.85-.42,2,2,0,0,0,.23-1.16V83.21l-4.56,4.18a1.41,1.41,0,0,0,.23.88,1.67,1.67,0,0,0,.85.4v.45h-3.95v-.45a1.5,1.5,0,0,0,.89-.46,2,2,0,0,0,.23-1.12V82.36a2,2,0,0,0-.24-1.14,1.37,1.37,0,0,0-.88-.43v-.45h3.95v.45a1.37,1.37,0,0,0-.87.43,2,2,0,0,0-.23,1.14v3.82L400.18,82a1.12,1.12,0,0,0-1.08-1.2v-.45h3.95v.45a1.42,1.42,0,0,0-.87.42,1.94,1.94,0,0,0-.24,1.15v4.73a2,2,0,0,0,.23,1.13,1.51,1.51,0,0,0,.88.45v.45Zm14.29-1.56a9,9,0,0,1-1.21,1,5,5,0,0,1-2.67.74,4.29,4.29,0,0,1-3.22-1.13,4.7,4.7,0,0,1-1.08-3.35,5.11,5.11,0,0,1,.55-2.42,3.83,3.83,0,0,1,1.58-1.61,4.73,4.73,0,0,1,2.35-.57,4.91,4.91,0,0,1,1.78.29,2.89,2.89,0,0,1,1.17.81,3.32,3.32,0,0,1,.68,1.28,7.23,7.23,0,0,1,.28,2h-6.51v.16a5.33,5.33,0,0,0,.27,1.82,2.27,2.27,0,0,0,.9,1.16,2.88,2.88,0,0,0,1.63.42,3.88,3.88,0,0,0,1.52-.28A4.65,4.65,0,0,0,412.8,87l.63.59Zm-1.73-3.73a6.91,6.91,0,0,0-.28-1.62,2.07,2.07,0,0,0-.65-1,1.84,1.84,0,0,0-1.14-.34,2.09,2.09,0,0,0-1.7.76,3.85,3.85,0,0,0-.75,2.16Z" transform="translate(-0.63)"/><path class="cls-3" d="M428.71,77.12l-4-1,.57-.72c1.5,0,3.75,0,5.51,0h10.47c.88-.09,3.32-.29,4.45-.36l.19.1a44.33,44.33,0,0,1-1.76,4.4l-.94.23c-.69-1-1.31-2-2.07-3.25l-8,.26v5.81c0,3-.06,4.52.06,5.57l5,.92-.44.72c-1.76,0-4,0-6.58,0s-5.14,0-7,0l.5-.72,3.95-.92c.06-.33.12-2.52.12-6.07v-5ZM562.59,86c0,2,3.26,2.62,5.33,2.62a10.64,10.64,0,0,0,4.82-1.18c.44-.26.63-.46.63-.79l.13-4.1a79.6,79.6,0,0,0-8.65,1.61c-1.63.46-2.26.89-2.26,1.8v0ZM573.5,80.9c-.19-3.64-3-4.37-6.52-4.37a15.23,15.23,0,0,0-4,.66,15.62,15.62,0,0,1-.62,3.15l-.75.13A12,12,0,0,1,558,77.75a44.34,44.34,0,0,1,7.15-2.13,23.16,23.16,0,0,1,4.45-.56c6,0,8.15,2.92,8.15,5s-.13,5-.13,7.31a10.83,10.83,0,0,0,5,2l-.57.52a8.21,8.21,0,0,1-2.38.3c-4.2,0-5.52-1-6.08-1.9h-.12a17.31,17.31,0,0,1-7.71,2c-5.52,0-7.84-2.23-7.84-3.73a3,3,0,0,1,2.51-2.69,95.44,95.44,0,0,1,13-2.36V80.9Zm-23.14-5.38c.75-.1,3-.33,4.33-.33l.06.1c-.31.88-1.38,3.51-1.76,4.36l-.94.23c-.75-1-1.19-2-1.94-3.22l-6.27.2v5c0,3.87,0,5.08.13,6.3l5.07,1-.43.69c-1.88,0-4.33-.07-7.08-.07-2.51,0-5.33,0-7.28.07l.44-.69,4.7-1c.07-.49.13-2.43.13-5.9V76.86l-6.21-.13c-.5.53-2.25,2.39-2.88,2.89l-1.13.26a32.49,32.49,0,0,1,.25-4.66l.13-.06a36.88,36.88,0,0,1,4,.36Zm-29.62,5.41a2.22,2.22,0,0,0,.25-1c0-1.86-2-3.8-6-3.8-5.71,0-7.78,3.51-7.84,4.79Zm-13.6,1.18a1.38,1.38,0,0,0-.06.49c0,3.84,4.63,6.07,10.34,6.07a11.09,11.09,0,0,0,2.32-.2c2-.75,3.63-1.31,5-1.67l.31.52a11,11,0,0,1-3.26,2.13,32.78,32.78,0,0,1-6.58.82c-7.46,0-12.91-2.82-12.91-7.31,0-4.72,6.46-7.9,13.35-7.9,5.39,0,10.22,1.93,10.22,5.57a1.06,1.06,0,0,1-.63,1.05,31.81,31.81,0,0,1-5.7.43ZM479.56,80a14.31,14.31,0,0,1-2.32-2.75,27.78,27.78,0,0,1,10.53-2.2c5.64,0,9,1.47,9,3.64,0,1-.94,1.64-1.94,2.06a21.37,21.37,0,0,1-3.95,1.12V82c1.13.16,2.5.32,3.5.55,2.14.5,4,1.32,4,3,0,3.24-6,4.78-12.35,4.78a23.64,23.64,0,0,1-9.65-1.83,13.49,13.49,0,0,1,2.57-3l1-.23a16.31,16.31,0,0,1,1.38,3.45,20.62,20.62,0,0,0,4.2.36c5.26,0,7.83-1.61,7.83-3.45,0-1.6-2-2.69-7.27-2.69-2,0-3.51.07-4.63.14l-.19-.4,2.19-1.18c.5,0,1.5.1,2.63.1,3.2,0,6-.79,6-2.59,0-1.44-1.88-2.62-6-2.62a14.18,14.18,0,0,0-4.07.49,13.88,13.88,0,0,1-1.63,2.88l-.88.3ZM453.7,86c0,2,3.26,2.62,5.33,2.62a10.61,10.61,0,0,0,4.82-1.18c.44-.26.63-.46.63-.79l.13-4.1A80.07,80.07,0,0,0,456,84.14c-1.63.46-2.26.89-2.26,1.8v0Zm10.91-5.08c-.19-3.64-2.95-4.37-6.52-4.37a15.15,15.15,0,0,0-4,.66,16.4,16.4,0,0,1-.63,3.15l-.75.13a12,12,0,0,1-3.57-2.72,44.17,44.17,0,0,1,7.14-2.13,23.16,23.16,0,0,1,4.45-.56c6,0,8.15,2.92,8.15,5s-.13,5-.13,7.31a10.83,10.83,0,0,0,5,2l-.57.52a8.21,8.21,0,0,1-2.38.3c-4.2,0-5.51-1-6.08-1.9h-.12a17.31,17.31,0,0,1-7.71,2c-5.52,0-7.84-2.23-7.84-3.73a3,3,0,0,1,2.51-2.69,95.44,95.44,0,0,1,13-2.36V80.9Z" transform="translate(-0.63)"/></svg>