<svg id="Capa_1" enable-background="new 0 0 512 512" height="512" viewBox="0 0 512 512" width="512" xmlns="http://www.w3.org/2000/svg"><g><g><path clip-rule="evenodd" d="m142.234 211.802 32.263-26.311c-11.435-8.761-22.87-17.55-34.305-26.311h-17.327c-6.388 0-11.61 5.227-11.61 11.622v11.506c0 14.718 16.452 29.698 30.979 29.494z" fill="#ffbc85" fill-rule="evenodd"/></g><g><path clip-rule="evenodd" d="m466 415.256v87.338c0 7.511-2.419 9.108-6.681 9.406h-406.638c-4.293-.299-6.681-1.896-6.681-9.406v-87.338c0-51.896 53.499-90.583 100.285-100.021l.062.062 111.321-3.74 107.543 4.029.504-.35c46.756 9.436 100.285 48.123 100.285 100.02z" fill="#f9f7f7" fill-rule="evenodd"/></g><g><path clip-rule="evenodd" d="m304.715 469.1-28.733-95.841-20.945-12.732-20.915 12.732-28.733 95.841c-.263.847-.467.876-.058 1.606l21.761 41.292h27.946 27.975l21.761-41.292c.408-.73.174-.759-.059-1.606z" fill="#7bacdf" fill-rule="evenodd"/></g><g><path clip-rule="evenodd" d="m275.982 373.259 8.926-35.042-4.113-14.572-24.795-12.06-23.132 11.856-7.322 16.178 8.576 33.64h20.915z" fill="#3987d0" fill-rule="evenodd"/></g><g><path clip-rule="evenodd" d="m225.546 339.619 30.454-28.034c-.321.029-.642.029-.963.029-15.227-21.96-40.606-35.889-66.859-28.676-15.169 11.506-36.376 28.297-41.889 32.297l.058.058 51.399 38.225c10.881 6.804 3.267 7.739 20.011-6.746z" fill="#cecece" fill-rule="evenodd"/></g><g><path clip-rule="evenodd" d="m314.254 353.519 50.961-37.933.496-.35c-5.659-4.088-27.683-21.522-42.881-33.057-31.942-2.511-55.016 14.338-66.83 29.406l28.908 26.632 9.305 8.556c16.745 14.484 9.131 13.55 20.041 6.746z" fill="#cecece" fill-rule="evenodd"/></g><g><path clip-rule="evenodd" d="m275.982 373.259 8.926-35.042-28.908-26.632-10.472 9.636 18.436 16.996-8.927 35.042z" fill="#0067b4" fill-rule="evenodd"/></g><g><path clip-rule="evenodd" d="m304.715 469.1-28.733-95.841h-20.945l28.733 95.841c.263.847.467.876.088 1.606l-21.791 41.292h20.945l21.761-41.292c.409-.73.175-.759-.058-1.606z" fill="#3987d0" fill-rule="evenodd"/></g><g><path clip-rule="evenodd" d="m227.325 337.983 18.203-16.762 10.472-9.636c-.321.029-.642.029-.963.029-9.16 0-18.29-1.957-28.762-5.87-13.652-5.081-26.604-13.053-38.097-22.807-5.572 4.205-11.931 9.14-18.057 13.9 15.081 17.813 34.655 32.735 56.008 40.708.379.146.788.292 1.196.438z" fill="#b5adb6" fill-rule="evenodd"/></g><g><path clip-rule="evenodd" d="m284.033 337.399c21.586-8.147 41.364-23.449 56.475-41.613-6.068-4.702-12.31-9.52-17.677-13.608-11.727 10.104-24.999 18.339-39.03 23.566-10.093 3.767-18.961 5.724-27.8 5.84z" fill="#b5adb6" fill-rule="evenodd"/></g><g><path clip-rule="evenodd" d="m452.873 511.998h.204c-.058 0-.145 0-.204 0zm-110.732-179.242c43.989 12.615 90.05 49.41 90.05 97.505v81.736h20.682.204 6.243c4.259-.292 6.68-1.898 6.68-9.403v-87.343c0-51.892-53.528-90.584-100.289-100.017l-.496.35z" fill="#e2e2e2" fill-rule="evenodd"/></g><g><path clip-rule="evenodd" d="m322.83 282.178c22.52-19.39 39.38-45.613 45.01-70.377 1.342-5.87 2.042-11.652 2.042-17.258v-55.98-8.41h-21.09c-44.748 0-54.053-55.133-108.719-55.133h-36.318c-41.86 0-9.976 63.543-58.137 63.543h-5.426v55.98c0 5.607.729 11.389 2.042 17.258 5.717 25.084 22.957 51.658 45.944 71.136 11.493 9.753 24.445 17.726 38.097 22.807 10.472 3.913 19.603 5.87 28.762 5.87l.963-.029c8.839-.117 17.707-2.073 27.8-5.84 14.031-5.228 27.303-13.463 39.03-23.567z" fill="#ffe5c1" fill-rule="evenodd"/></g><g><path clip-rule="evenodd" d="m220.353 242.026c0 41.262 69.368 41.262 69.368 0 0-3.825-3.121-6.95-6.943-6.95h-55.454c-3.82 0-6.971 3.124-6.971 6.95z" fill="#fbf8f8" fill-rule="evenodd"/></g><g><path clip-rule="evenodd" d="m367.841 211.802c14.527.204 31.008-14.776 31.008-29.494v-11.506c0-6.395-5.222-11.622-11.61-11.622h-17.357l-13.885 21.463z" fill="#ffbc85" fill-rule="evenodd"/></g><g><path clip-rule="evenodd" d="m145.618 159.18c48.161 0 16.277-63.573 58.137-63.573h36.318c54.666 0 63.971 55.162 108.719 55.162h21.09v-16.733-37.874c0-57.995-64.117-96.016-118.025-96.162h-.729c-24.241.058-46.352 7.826-59.508 24.938-55.483 4.906-51.428 78.845-51.428 88.57v18.835 26.837z" fill="#838383" fill-rule="evenodd"/></g><g><path clip-rule="evenodd" d="m369.882 96.162c0-57.995-64.117-96.016-118.025-96.162h-.729c-24.212.058-46.265 7.797-59.421 24.851 11.231-5.49 24.503-8.089 38.476-8.118h.729c53.907.146 118.054 38.167 118.054 96.162v37.875h20.915v-16.733-37.875z" fill="#595959" fill-rule="evenodd"/></g><g><path clip-rule="evenodd" d="m348.792 150.77c-44.748 0-54.053-55.162-108.719-55.162h-36.318c-17.036 0-21.849 10.542-24.824 23.04h56.941c54.666 0 61.9 51.571 106.648 51.833l6.447.029c-.029 16.324.496 22.515-4.434 38.371-6.447 20.587-16.977 42.255-34.684 57.469-11.727 10.104-24.999 18.368-39.001 23.595-9.48 3.533-18.611 5.782-28.762 5.84-18.961 0-59.683-21.551-74.385-33.903 6.068 7.592 12.952 14.689 20.478 21.055 11.493 9.753 24.445 17.726 38.097 22.807 10.472 3.913 19.603 5.87 28.762 5.87l.963-.029c8.839-.117 17.707-2.073 27.8-5.84 14.031-5.227 27.304-13.462 39.03-23.566 22.52-19.39 39.38-45.613 45.01-70.377 1.342-5.87 2.042-11.652 2.042-17.258v-35.364-8.41z" fill="#fed1a3" fill-rule="evenodd"/></g><g><path clip-rule="evenodd" d="m220.791 247.399h68.522c.263-1.694.408-3.504.408-5.373 0-3.825-3.121-6.95-6.943-6.95h-55.454c-3.821 0-6.972 3.125-6.972 6.95.001 1.869.147 3.679.439 5.373z" fill="#e2e2e2" fill-rule="evenodd"/></g><g><path d="m126.531 450.296v61.704h-15.441v-61.704c0-4.266 3.459-7.727 7.721-7.727 4.261 0 7.72 3.461 7.72 7.727z" fill="#e2e2e2"/></g><g><path d="m392.541 450.296v61.704h-15.441v-61.704c0-4.266 3.459-7.727 7.721-7.727s7.72 3.461 7.72 7.727z" fill="#e2e2e2"/></g><g><path d="m198.358 192.225c-1.976 0-3.951-.754-5.459-2.262-3.015-3.017-3.016-7.91-.002-10.928 8.972-8.982 23.601-8.989 32.61-.013 3.022 3.01 3.033 7.903.025 10.928-3.009 3.024-7.898 3.036-10.918.025-2.988-2.977-7.831-2.982-10.796-.013-1.507 1.509-3.484 2.263-5.46 2.263z" fill="#838383"/></g><g><path d="m311.745 192.225c-1.97 0-3.94-.75-5.447-2.251-2.98-2.969-7.828-2.969-10.809 0-3.023 3.01-7.911 2.999-10.918-.025-3.008-3.024-2.997-7.917.025-10.928 8.986-8.953 23.61-8.954 32.596 0 3.022 3.01 3.033 7.903.025 10.928-1.509 1.517-3.491 2.276-5.472 2.276z" fill="#838383"/></g></g></svg>