<svg id="Capa_1" enable-background="new 0 0 512 512" height="512" viewBox="0 0 512 512" width="512" xmlns="http://www.w3.org/2000/svg"><g><g><path clip-rule="evenodd" d="m465 415.223v87.318c0 10.745-4.932 9.405-13.127 9.405h-391.746c-8.195 0-13.127 1.339-13.127-9.405v-87.318c0-51.89 53.578-90.553 100.33-99.958l108.639-26.311 110.163 26.61c46.402 9.921 98.868 48.326 98.868 99.659z" fill="#f9f7f7" fill-rule="evenodd"/></g><g><path clip-rule="evenodd" d="m305.64 469.046-28.728-95.813-20.912-11.184-20.941 11.184-28.728 95.813c-.233.847-.437.905-.058 1.635l21.757 41.263h27.97 27.941l21.757-41.263c.408-.729.175-.788-.058-1.635z" fill="#7bacdf" fill-rule="evenodd"/></g><g><path clip-rule="evenodd" d="m285.807 338.337-3.762-19.361-26.045-7.388-27.824 7.826-1.721 20.033 8.604 33.787h20.941 20.912z" fill="#3987d0" fill-rule="evenodd"/></g><g><path clip-rule="evenodd" d="m305.64 469.046-28.728-95.813h-18.199l21.495 95.813c.263.847.467.905.087 1.635l-21.787 41.263h25.432l21.757-41.263c.409-.729.176-.788-.057-1.635z" fill="#3987d0" fill-rule="evenodd"/></g><g><path clip-rule="evenodd" d="m285.807 338.337-29.807-26.749-12.016 11.535 21.291 19.887c1.137 1.08.933.73.554 2.278l-7.116 27.947h18.199z" fill="#0067b4" fill-rule="evenodd"/></g><g><path clip-rule="evenodd" d="m295.14 346.747c16.741 14.484 9.129 13.55 20.037 6.746l50.952-37.934.467-.35c-5.512-4.001-28.582-20.792-43.748-32.298-19.133-14.017-61.627 11.535-66.847 28.677l29.807 26.749z" fill="#cecece" fill-rule="evenodd"/></g><g><path clip-rule="evenodd" d="m189.124 282.911c-.175-.058-37.303 28.969-41.852 32.298l.058.058 51.36 38.226c10.908 6.804 3.296 7.739 20.037-6.746l37.273-35.159c-7.233-19.303-26.774-39.92-66.876-28.677z" fill="#cecece" fill-rule="evenodd"/></g><g><path clip-rule="evenodd" d="m112.243 170.804v11.506c0 14.689 16.449 29.669 30.974 29.465l18.112-26.282-20.153-26.311h-17.324c-6.388-.001-11.609 5.227-11.609 11.622z" fill="#ffbc85" fill-rule="evenodd"/></g><g><path clip-rule="evenodd" d="m164.537 98.587-23.362 39.978v55.952c0 5.607.7 11.389 2.042 17.259 5.716 25.085 22.924 51.659 45.907 71.137 11.491 9.754 24.441 17.726 38.119 22.807 10.441 3.913 19.599 5.87 28.757 5.87h.933c8.837-.146 17.733-2.103 27.824-5.87 15.224-5.694 29.603-14.952 42.057-26.282 5.833-5.315 11.258-11.068 16.158-17.142 12.716-15.74 21.903-33.466 25.782-50.52 1.342-5.87 2.042-11.652 2.042-17.259v-55.952c-43.952-94.002-90.617-25.815-159.973-62.142-17.733-9.258-33.307-.03-46.286 22.164z" fill="#ffe5c1" fill-rule="evenodd"/></g><g><path clip-rule="evenodd" d="m370.795 159.181-11.2 21.318 9.158 31.276c14.524.204 31.003-14.776 31.003-29.465v-11.506c0-6.395-5.25-11.622-11.637-11.622h-17.324z" fill="#ffbc85" fill-rule="evenodd"/></g><g><path clip-rule="evenodd" d="m188.074 25.523c-50.748 8.381-46.898 78.525-46.898 87.986v18.835 26.837l23.362-40.007c12.979-22.165 28.553-31.422 46.286-22.135 69.356 36.328 116.02-31.889 159.973 62.142v-25.143-37.875c0-58.083-64.31-96.134-118.266-96.163h-.204c-22.662.029-43.457 6.746-56.873 21.522-3.793 4.147-1.81 3.066-7.38 4.001z" fill="#838383" fill-rule="evenodd"/></g><g><path clip-rule="evenodd" d="m332.268 153.312c1.167 5.315.321 19.157-1.662 41.38v11.418c0 5.578-.729 11.389-2.042 17.259-3.879 17.025-13.095 34.78-25.782 50.491-4.929 6.074-10.354 11.856-16.187 17.171-8.896 8.06-18.753 15.098-29.195 20.529 8.691-.175 17.441-2.132 27.357-5.84 15.224-5.694 29.603-14.952 42.057-26.282 5.833-5.315 11.258-11.068 16.158-17.142 12.716-15.74 21.903-33.466 25.782-50.52 1.342-5.87 2.042-11.652 2.042-17.259v-35.335c-43.952-94.031-90.617-25.815-159.973-62.142-14.699-7.709-27.941-2.657-39.432 11.973 38.848 20.091 79.68 21.493 107.737 23.333 32.928 2.13 47.453-4.586 53.14 20.966z" fill="#fed1a3" fill-rule="evenodd"/></g><g><path clip-rule="evenodd" d="m174.949 157.692v16.324 16.324c0 2.395 1.954 4.351 4.346 4.351h55.619c2.392 0 4.346-1.957 4.346-4.351v-16.324-16.324c0-2.424-1.954-4.38-4.346-4.38h-55.619c-2.392 0-4.346 1.956-4.346 4.38z" fill="#62dbfb" fill-rule="evenodd"/></g><g><path clip-rule="evenodd" d="m272.304 174.016-.029 16.324c0 2.395 1.983 4.351 4.375 4.351h55.619c2.392 0 4.346-1.957 4.346-4.351v-16.324-16.324c0-2.424-1.954-4.38-4.346-4.38h-55.619c-2.392 0-4.375 1.957-4.375 4.38z" fill="#62dbfb" fill-rule="evenodd"/></g><g><path clip-rule="evenodd" d="m179.295 194.691h55.619c2.392 0 4.346-1.957 4.346-4.351v-14.192h-64.31v14.192c-.001 2.395 1.953 4.351 4.345 4.351z" fill="#00c0fa" fill-rule="evenodd"/></g><g><path clip-rule="evenodd" d="m276.649 194.691h55.619c2.392 0 4.346-1.957 4.346-4.351v-14.192l-64.31.029-.029 14.163c-.001 2.395 1.983 4.351 4.374 4.351z" fill="#00c0fa" fill-rule="evenodd"/></g><g><path clip-rule="evenodd" d="m322.847 282.911c-7.437 6.308-15.487 11.885-23.974 16.412-4.579 2.453-9.304 4.614-14.116 6.395-9.916 3.709-18.666 5.665-27.357 5.84-.175 0-.321 0-.467.029h-.933l25.899 23.274c1.021-.292 2.012-.613 3.033-.934 2.1-.672 4.229-1.431 6.387-2.249 14.904-5.548 29.078-13.871 41.969-24.033 3.325-2.628 6.562-5.402 9.712-8.235.292-.292.583-.555.875-.818-7.145-5.285-14.757-10.921-21.028-15.681z" fill="#b5adb6" fill-rule="evenodd"/></g><g><path clip-rule="evenodd" d="m256 311.588c-9.158 0-18.316-1.957-28.757-5.87-4.812-1.781-9.537-3.942-14.145-6.395-8.458-4.526-16.508-10.075-23.974-16.412-.087-.029-10.325 7.914-20.708 15.974 1.779 1.635 3.587 3.212 5.425 4.76 1.604 1.373 3.237 2.716 4.871 4.001 12.891 10.162 27.066 18.485 41.94 24.033 2.129.818 4.229 1.548 6.271 2.19 1.4.467 2.771.876 4.112 1.256z" fill="#b5adb6" fill-rule="evenodd"/></g><g><path clip-rule="evenodd" d="m370.795 96.163c0-58.083-64.31-96.134-118.266-96.163h-.204c-.029 0-.058 0-.088 0-.087 0-.175 0-.262 0 42.173 12.761 80.293 45.585 80.293 90.293v1.343 20.588c13.358 6.658 26.045 20.266 38.528 46.957v-20.617-4.526-37.875z" fill="#595959" fill-rule="evenodd"/></g><g><path d="m259.077 265.218c-9.085 0-18.166-1.897-25.244-5.692-3.759-2.015-5.173-6.698-3.16-10.459 2.014-3.761 6.695-5.176 10.453-3.161 9.729 5.215 26.169 5.216 35.901 0 3.759-2.015 8.439-.6 10.453 3.161 2.014 3.762.599 8.444-3.16 10.459-7.076 3.795-16.161 5.692-25.243 5.692z" fill="#838383"/></g><g><path d="m272.273 181.744c-.908 0-1.832-.161-2.733-.503-9.182-3.478-18.207-3.472-27.591.017-3.999 1.484-8.443-.551-9.928-4.551s.55-8.448 4.548-9.934c12.857-4.781 25.79-4.775 38.439.017 3.988 1.511 5.997 5.971 4.487 9.962-1.168 3.089-4.105 4.992-7.222 4.992z" fill="#838383"/></g><g><path d="m174.945 181.744c-1.037 0-2.09-.21-3.1-.653l-33.774-14.834c-3.905-1.715-5.681-6.273-3.967-10.181 1.714-3.907 6.269-5.684 10.174-3.969l33.774 14.834c3.905 1.715 5.681 6.273 3.967 10.181-1.27 2.896-4.103 4.622-7.074 4.622z" fill="#b5adb6"/></g><g><path d="m336.618 181.744c-2.984 0-5.825-1.74-7.088-4.654-1.697-3.915.1-8.465 4.012-10.163l34.182-14.834c3.911-1.698 8.46.099 10.157 4.014s-.1 8.465-4.012 10.163l-34.182 14.834c-1.002.435-2.044.64-3.069.64z" fill="#b5adb6"/></g><g><path d="m234.913 202.418h-55.619c-6.654 0-12.067-5.418-12.067-12.077v-32.648c0-6.676 5.413-12.107 12.067-12.107h55.619c6.654 0 12.068 5.431 12.068 12.107v32.648c0 6.659-5.414 12.077-12.068 12.077zm-52.242-15.453h48.867v-25.927h-48.867zm52.242-25.927h.01z" fill="#b5adb6"/></g><g><path d="m332.268 202.418h-55.619c-6.67 0-12.096-5.418-12.096-12.077v-32.648c0-6.676 5.426-12.107 12.096-12.107h55.619c6.654 0 12.068 5.431 12.068 12.107v32.648c-.001 6.659-5.414 12.077-12.068 12.077zm-52.272-15.453h48.896v-25.927h-48.896zm52.272-25.927h.01z" fill="#b5adb6"/></g><g><path clip-rule="evenodd" d="m465 415.227c0-51.338-52.469-89.738-98.871-99.667l-34.153 25.406c42.115 14.075 84.113 49.673 84.113 95.608v75.371h10.47 25.316c8.196 0 13.124 1.343 13.124-9.403v-87.315z" fill="#e2e2e2" fill-rule="evenodd"/></g><g><path d="m127.522 450.239v61.708h-15.443v-61.708c0-4.265 3.449-7.726 7.722-7.726 4.261 0 7.721 3.461 7.721 7.726z" fill="#e2e2e2"/></g><g><path d="m393.446 450.239v61.708h-15.443v-61.708c0-4.265 3.459-7.726 7.722-7.726 4.272 0 7.721 3.461 7.721 7.726z" fill="#e2e2e2"/></g></g></svg>