<svg id="Capa_1" enable-background="new 0 0 512 512" height="512" viewBox="0 0 512 512" width="512" xmlns="http://www.w3.org/2000/svg"><g><g><path clip-rule="evenodd" d="m10.5 179.069v326.621c0 3.463 2.843 6.309 6.302 6.309h358.015c3.459 0 6.302-2.847 6.302-6.309v-38.003l-321.639-423.404h-42.678c-3.459 0-6.302 2.847-6.302 6.339z" fill="#cecece" fill-rule="evenodd"/></g><g><path clip-rule="evenodd" d="m59.48 44.283v417.095c0 3.463 2.843 6.309 6.302 6.309h100.422 214.914 42.678c3.459 0 6.302-2.847 6.302-6.309 0-216.75 0-146.73 0-382.848v-3.932c0-.587-.088-.998-.293-1.409h-51.061c-13.952 0-25.355-11.416-25.355-25.355l.059-47.511c-.498-.235-.996-.323-1.641-.323h-4.719-281.306c-3.459 0-6.302 2.847-6.302 6.309z" fill="#f9f7f7" fill-rule="evenodd"/></g><g><path clip-rule="evenodd" d="m283.745 0c48.423 49.947 79.933 131.411 79.933 223.411 0 19.926-1.466 39.353-4.28 58.076-.909 6.016-1.935 11.944-3.107 17.813-1.436 7.072-3.019 13.998-4.807 20.836-16.737 63.828-49.566 116.386-91.424 147.552h121.058 42.678c3.459 0 6.302-2.847 6.302-6.309v-70.724-93.643-218.482-3.932c0-.587-.088-.998-.293-1.409l-76.357-72.866c-.498-.235-.996-.323-1.641-.323h-4.719z" fill="#e2e2e2" fill-rule="evenodd"/></g><g><path clip-rule="evenodd" d="m353.448.323-.059 47.511c0 13.939 11.402 25.355 25.355 25.355h51.061c-.41-.851-1.378-1.585-3.283-3.433l-69.029-65.882c-2.139-2.055-3.107-3.082-4.045-3.551z" fill="#cecece" fill-rule="evenodd"/></g><g><path d="m305.113 407.273h-135.567c-4.264 0-7.72-3.459-7.72-7.726s3.456-7.726 7.72-7.726h135.568c4.264 0 7.72 3.459 7.72 7.726-.001 4.266-3.457 7.726-7.721 7.726z" fill="#595959"/></g><g><path d="m305.113 361.052h-135.567c-4.264 0-7.72-3.459-7.72-7.726s3.456-7.726 7.72-7.726h135.568c4.264 0 7.72 3.459 7.72 7.726-.001 4.267-3.457 7.726-7.721 7.726z" fill="#595959"/></g><g><path clip-rule="evenodd" d="m148.647 95.668c43.88-49.888 119.856-54.73 169.686-10.77 49.859 43.931 54.667 119.996 10.787 169.884-43.909 49.918-119.885 54.73-169.716 10.799-49.83-43.96-54.666-120.025-10.757-169.913z" fill="#62dbfb" fill-rule="evenodd"/></g><g><path d="m221.78 218.959h-17.734c-22.921 0-34.914-20.864-34.914-41.474 0-10.477 2.929-20.358 8.247-27.822 6.366-8.936 15.837-13.858 26.668-13.858h14.656c4.264 0 7.72 3.459 7.72 7.726s-3.456 7.726-7.72 7.726h-14.656c-5.866 0-10.609 2.482-14.095 7.376-3.419 4.797-5.379 11.669-5.379 18.851 0 12.533 6.095 26.022 19.474 26.022h17.734c4.264 0 7.72 3.459 7.72 7.726s-3.457 7.727-7.721 7.727z" fill="#f9f7f7"/></g><g><path d="m271.307 218.972c-.038 0-.077-.001-.116-.001-3.905-.047-7.354-2.557-9.003-6.549-.057-.137-.11-.277-.159-.417l-22.863-65.941c-1.397-4.031.735-8.433 4.763-9.832 4.032-1.397 8.427.735 9.825 4.767l17.547 50.612 17.548-50.612c1.398-4.032 5.793-6.167 9.825-4.767 4.028 1.399 6.16 5.801 4.763 9.832l-22.863 65.941c-.069.2-.147.396-.232.589-1.766 4.001-5.137 6.378-9.035 6.378z" fill="#f9f7f7"/></g><g><path clip-rule="evenodd" d="m353.39 302.587 26.146-29.728c5.569-6.339 15.301-6.955 21.603-1.379l95.205 83.93c6.302 5.576 6.918 15.319 1.348 21.628l-26.146 29.728c-5.569 6.339-15.271 6.955-21.603 1.379l-95.176-83.93c-6.331-5.576-6.946-15.289-1.377-21.628z" fill="#fe9737" fill-rule="evenodd"/></g><g><path clip-rule="evenodd" d="m383.493 291.523 46.606 41.084 48.599 42.845c6.302 5.576 6.918 15.289 1.407 21.599l13.249-15.055 4.338-4.959c5.569-6.309 4.954-16.052-1.348-21.628l-2.99-2.641-63.255-55.757-28.96-25.531c-6.302-5.576-16.034-4.96-21.603 1.379l-13.073 14.849-4.573 5.194c5.57-6.309 15.301-6.925 21.603-1.379z" fill="#f36b37" fill-rule="evenodd"/></g><g><path clip-rule="evenodd" d="m34.155 44.283v441.892c0 3.463 2.843 6.309 6.302 6.309h100.422 240.24v-24.797h-121.058-93.857-100.422c-3.459 0-6.302-2.847-6.302-6.309v-417.095z" fill="#b5adb6" fill-rule="evenodd"/></g><g><path clip-rule="evenodd" d="m329.12 254.782c43.88-49.888 39.073-125.953-10.787-169.884-27.201-24.005-62.229-33.454-95.557-28.965 21.955 3.375 43.206 12.854 61.115 28.642 49.83 43.931 54.667 119.996 10.757 169.913-13.952 15.876-31.188 27.204-49.801 33.836-7.914 2.817-16.063 4.783-24.329 5.899 9.761 1.497 19.668 1.79 29.488.88 29.459-2.729 58.009-16.316 79.114-40.321z" fill="#00c0fa" fill-rule="evenodd"/></g><path d="m371.567 281.911-31.732-27.979c41.263-52.979 34.62-129.88-16.397-174.83-25.646-22.625-58.557-33.893-92.669-31.723-34.107 2.168-65.33 17.504-87.917 43.184l.002-.002c-46.639 52.99-41.505 134.104 11.447 180.818 23.568 20.778 53.263 31.971 84.388 31.97 2.749-.001 5.515-.088 8.283-.264 31.533-2.004 60.598-15.271 82.663-37.554l31.726 27.973c1.468 1.294 3.288 1.929 5.1 1.929 2.14 0 4.27-.885 5.796-2.619 2.817-3.2 2.508-8.082-.69-10.903zm-125.574 5.753c-29.996 1.905-58.931-7.995-81.485-27.878-46.565-41.08-51.081-112.412-10.068-159.011.001-.001.001-.002.002-.002 19.861-22.581 47.315-36.066 77.306-37.972 2.437-.155 4.862-.232 7.282-.232 27.367 0 53.481 9.848 74.202 28.128 46.571 41.034 51.102 112.347 10.102 158.971-.002.002-.004.004-.006.006-.002.003-.004.005-.006.008-19.873 22.587-47.335 36.076-77.329 37.982z" fill="#838383"/></g></svg>