<svg id="Capa_1" enable-background="new 0 0 512 512" height="512" viewBox="0 0 512 512" width="512" xmlns="http://www.w3.org/2000/svg"><g><g><path clip-rule="evenodd" d="m103.607 199.133 30.349-24.735c-10.749-8.235-21.498-16.5-32.276-24.735h-16.299c-6.017 0-10.954 4.906-10.954 10.922v10.834c0 13.814 15.51 27.89 29.18 27.714z" fill="#ffbc85" fill-rule="evenodd"/></g><g><path clip-rule="evenodd" d="m408.38 390.407v82.126c0 7.067-2.255 8.582-6.281 8.849h-382.818c-4.005-.268-6.281-1.782-6.281-8.849v-82.126c0-48.769 50.381-85.176 94.41-94.025l.052.052 104.809-3.503 101.236 3.801.463-.35c44.049 8.849 94.41 45.256 94.41 94.025z" fill="#f9f7f7" fill-rule="evenodd"/></g><g><path clip-rule="evenodd" d="m256.548 441.049-27.048-90.09-19.687-12.002-19.716 12.002-27.048 90.09c-.234.788-.438.818-.058 1.519l20.505 38.81h26.318 26.318l20.476-38.81c.378-.701.173-.731-.06-1.519z" fill="#7bacdf" fill-rule="evenodd"/></g><g><path clip-rule="evenodd" d="m229.5 350.958 8.412-32.969-3.856-13.697-23.367-11.33-21.761 11.126-6.893 15.215 8.061 31.655h19.717z" fill="#3987d0" fill-rule="evenodd"/></g><g><path clip-rule="evenodd" d="m182.035 319.303 28.654-26.341c-.292 0-.584 0-.876 0-14.342-20.646-38.264-33.729-62.975-26.954-14.283 10.834-34.233 26.604-39.433 30.371l.058.058 48.371 35.949c10.282 6.395 3.096 7.271 18.869-6.337z" fill="#cecece" fill-rule="evenodd"/></g><g><path clip-rule="evenodd" d="m265.544 332.386 47.962-35.657.467-.35c-5.316-3.855-26.055-20.237-40.367-31.072-30.056-2.365-51.788 13.492-62.917 27.655l27.223 25.027 8.763 8.06c15.773 13.608 8.587 12.732 18.869 6.337z" fill="#cecece" fill-rule="evenodd"/></g><g><path clip-rule="evenodd" d="m229.5 350.958 8.412-32.969-27.223-25.027-9.844 9.053 17.351 15.974-8.383 32.969z" fill="#0067b4" fill-rule="evenodd"/></g><g><path clip-rule="evenodd" d="m256.548 441.049-27.048-90.09h-19.687l27.019 90.09c.263.788.438.818.088 1.519l-20.505 38.81h19.716l20.476-38.81c.379-.701.174-.731-.059-1.519z" fill="#3987d0" fill-rule="evenodd"/></g><g><path clip-rule="evenodd" d="m183.7 317.784 17.146-15.769 9.844-9.053c-.292 0-.584 0-.876 0-8.646 0-17.263-1.811-27.077-5.49-12.881-4.789-25.062-12.294-35.898-21.464-5.228 3.972-11.216 8.615-16.971 13.083 14.196 16.733 32.627 30.78 52.694 38.285.378.116.758.262 1.138.408z" fill="#b5adb6" fill-rule="evenodd"/></g><g><path clip-rule="evenodd" d="m237.094 317.229c20.33-7.68 38.936-22.048 53.161-39.132-5.696-4.439-11.567-8.965-16.649-12.791-11.041 9.491-23.514 17.23-36.716 22.165-9.522 3.534-17.876 5.373-26.201 5.49z" fill="#b5adb6" fill-rule="evenodd"/></g><g><path clip-rule="evenodd" d="m396.022 481.378h.204c-.058 0-.116 0-.204 0zm-104.219-168.529c41.419 11.856 84.766 46.462 84.766 91.697v76.832h19.453.204 5.871c4.031-.263 6.28-1.781 6.28-8.848v-82.118c0-48.769-50.357-85.184-94.405-94.033l-.467.35z" fill="#e2e2e2" fill-rule="evenodd"/></g><g><path clip-rule="evenodd" d="m273.606 265.307c21.206-18.252 37.096-42.899 42.383-66.173 1.256-5.519 1.928-10.951 1.928-16.237v-52.623-7.885h-19.862c-42.12 0-50.883-51.864-102.35-51.864h-34.175c-39.403 0-9.405 59.778-54.738 59.749h-5.112v52.623c0 5.286.672 10.717 1.928 16.237 5.375 23.596 21.586 48.564 43.23 66.874 10.837 9.17 23.017 16.675 35.898 21.464 9.814 3.68 18.431 5.49 27.077 5.49h.876c8.325-.117 16.679-1.957 26.201-5.49 13.202-4.936 25.675-12.674 36.716-22.165z" fill="#ffe5c1" fill-rule="evenodd"/></g><g><path clip-rule="evenodd" d="m315.989 199.133c13.67.175 29.18-13.901 29.18-27.713v-10.834c0-6.016-4.907-10.922-10.924-10.922h-16.328l-13.086 20.179z" fill="#ffbc85" fill-rule="evenodd"/></g><g><path clip-rule="evenodd" d="m106.791 149.664c45.333 0 15.335-59.778 54.738-59.778h34.175c51.467 0 60.23 51.864 102.35 51.864h19.862v-15.74-35.598c0-54.522-60.376-90.266-111.142-90.412h-.672c-22.813.058-43.639 7.359-56.024 23.45-52.226 4.614-48.4 74.117-48.4 83.286v17.697 25.231z" fill="#838383" fill-rule="evenodd"/></g><g><path clip-rule="evenodd" d="m317.917 90.412c0-54.522-60.376-90.266-111.142-90.412h-.672c-22.783.058-43.551 7.33-55.936 23.362 10.574-5.14 23.075-7.593 36.22-7.651h.701c50.736.175 111.112 35.919 111.112 90.441v35.598h19.716v-15.74-35.598z" fill="#595959" fill-rule="evenodd"/></g><g><path clip-rule="evenodd" d="m298.054 141.75c-42.12 0-50.883-51.864-102.35-51.864h-34.174c-16.065 0-20.593 9.929-23.397 21.668h53.628c51.438 0 58.273 48.477 100.393 48.739h2.892c2.395.029 3.155-.058 3.155 2.511.029 13.55.234 19.507-4.177 33.583-6.046 19.361-15.948 39.716-32.627 54.054-11.041 9.491-23.514 17.23-36.716 22.165-8.938 3.329-17.526 5.432-27.077 5.49-17.847 0-56.199-20.267-70.044-31.86 5.725 7.096 12.21 13.813 19.278 19.77 10.837 9.17 23.017 16.675 35.898 21.464 9.814 3.68 18.431 5.49 27.077 5.49h.876c8.325-.117 16.679-1.957 26.201-5.49 13.203-4.935 25.675-12.674 36.716-22.165 21.206-18.252 37.096-42.899 42.383-66.173 1.256-5.519 1.928-10.951 1.928-16.237v-33.233-7.914h-19.863z" fill="#fed1a3" fill-rule="evenodd"/></g><g><path d="m89.277 423.352v58.03h-15.445v-58.03c0-4.265 3.46-7.726 7.722-7.726 4.264 0 7.723 3.462 7.723 7.726z" fill="#e2e2e2"/></g><g><path d="m194.354 250.227c-3.506 0-6.681-2.405-7.513-5.97-.97-4.155 1.61-8.311 5.763-9.282 9.224-2.156 23.697-2.156 32.951-.002 4.155.968 6.738 5.121 5.771 9.277s-5.119 6.739-9.272 5.773c-7.045-1.64-18.92-1.642-25.935-.002-.591.141-1.183.206-1.765.206z" fill="#838383"/></g><g><path d="m165.287 181.559c-5.767 0-11.528-2.124-15.908-6.372-3.063-2.97-3.139-7.861-.171-10.926 2.969-3.062 7.857-3.141 10.92-.17 2.843 2.758 7.487 2.752 10.354-.014 3.072-2.962 7.96-2.872 10.919.199 2.961 3.072 2.872 7.963-.198 10.925-4.394 4.238-10.157 6.358-15.916 6.358z" fill="#838383"/></g><g><path d="m254.485 181.559c-5.76 0-11.522-2.119-15.915-6.359-3.07-2.962-3.158-7.854-.198-10.925 2.961-3.071 7.85-3.159 10.919-.198 2.866 2.766 7.51 2.769 10.354.013 3.064-2.97 7.953-2.892 10.92.171 2.968 3.064 2.892 7.956-.171 10.926-4.382 4.247-10.145 6.372-15.909 6.372z" fill="#838383"/></g><g><path clip-rule="evenodd" d="m331.178 344.242c38.41-38.372 100.626-38.372 139.037 0 38.381 38.372 38.381 100.603 0 138.976-38.41 38.372-100.626 38.372-139.037 0-38.381-38.373-38.381-100.604 0-138.976z" fill="#fe636e" fill-rule="evenodd"/></g><g><path clip-rule="evenodd" d="m434.725 344.242c38.41 38.372 38.41 100.603 0 138.976-14.663 14.66-32.802 23.713-51.759 27.188 30.67 5.578 63.501-3.475 87.248-27.188 38.381-38.372 38.381-100.603 0-138.976-23.747-23.713-56.579-32.765-87.248-27.188 18.957 3.475 37.096 12.528 51.759 27.188z" fill="#fb2a39" fill-rule="evenodd"/></g><path d="m436.159 422.536c-3.013-3.019-7.902-3.024-10.921-.009l-16.819 16.8v-69.825c0-4.267-3.457-7.726-7.722-7.726s-7.722 3.459-7.722 7.726v69.825l-16.819-16.8c-3.02-3.016-7.909-3.011-10.921.009-3.014 3.02-3.01 7.912.009 10.927l29.99 29.955c.002.002.004.004.006.007l.001.001s.001 0 .001.001c1.397 1.395 3.325 2.258 5.455 2.258s4.059-.863 5.456-2.259l.001-.001c.002-.002.004-.004.006-.007l29.99-29.955c3.018-3.015 3.022-7.907.009-10.927z" fill="#f9f7f7"/></g></svg>