<svg id="Capa_1" enable-background="new 0 0 512 512" height="512" viewBox="0 0 512 512" width="512" xmlns="http://www.w3.org/2000/svg"><g><g><path clip-rule="evenodd" d="m312.397 335.077 44.818 44.82h26.333l-1.57-24.764-45.021-45.023-27.99-4.825z" fill="#cecece" fill-rule="evenodd"/></g><g><path clip-rule="evenodd" d="m55.608 55.611c74.174-74.147 194.415-74.147 268.589 0 74.174 74.176 74.174 194.42 0 268.596s-194.415 74.176-268.589 0c-74.144-74.176-74.144-194.421 0-268.596z" fill="#cecece" fill-rule="evenodd"/></g><g><path clip-rule="evenodd" d="m87.435 87.467c56.589-56.591 148.347-56.591 204.937 0 56.589 56.562 56.589 148.322 0 204.913s-148.347 56.591-204.937 0c-56.561-56.591-56.561-148.351 0-204.913z" fill="#62dbfb" fill-rule="evenodd"/></g><g><path clip-rule="evenodd" d="m352.971 384.14 31.158-31.158c6.511-6.511 17.148-6.511 23.659 0l99.315 99.317c6.511 6.511 6.511 17.149 0 23.659l-31.158 31.158c-6.511 6.511-17.148 6.511-23.659 0l-99.315-99.316c-6.51-6.511-6.51-17.149 0-23.66z" fill="#fe9737" fill-rule="evenodd"/></g><g><path clip-rule="evenodd" d="m363.289 373.822c6.511-6.511 17.148-6.511 23.659 0l99.315 99.317c6.481 6.482 6.511 17.091.087 23.601v-.029l20.752-20.753c.988-.959 1.802-2.035 2.5-3.168 3.197-5.29 3.197-12.033 0-17.323-.698-1.134-1.511-2.209-2.5-3.168l-99.315-99.317c-6.511-6.511-17.148-6.511-23.659 0l-15.579 15.579z" fill="#f36b37" fill-rule="evenodd"/></g><g><path clip-rule="evenodd" d="m235.113 88.193c22.06 22.061 35.517 49.441 40.371 78.012.523 3.023.93 6.017 1.25 9.068.552 5.116.843 10.26.843 15.405 0 9.417-.93 18.835-2.761 28.136-5.348 27.235-18.602 53.219-39.703 74.321-20.491 20.491-45.574 33.542-71.936 39.21 45.399 8.487 94.054-4.854 129.193-39.965 56.589-56.591 56.589-148.351 0-204.913-36.099-36.1-86.497-49.179-132.972-39.239 27.758 5.203 54.265 18.515 75.715 39.965z" fill="#00c0fa" fill-rule="evenodd"/></g><g><path clip-rule="evenodd" d="m262.115 64.243c10.812 6.22 21.014 13.952 30.257 23.223 56.589 56.562 56.589 148.322 0 204.913-12.411 12.411-26.507 22.09-41.534 29.066-29.821 29.589-66.965 47.29-105.593 53.074 62.17 14.998 130.414-1.773 178.953-50.313 74.174-74.176 74.174-194.42 0-268.596-44.295-44.296-105.04-62.113-162.589-53.51 32.843 7.906 64.001 24.706 89.636 50.342 3.807 3.808 7.44 7.761 10.87 11.801z" fill="#b5adb6" fill-rule="evenodd"/></g><g fill="#f9f7f7"><path d="m128.532 150.135h-19.648c-4.301 0-7.787 3.486-7.787 7.787s3.486 7.787 7.787 7.787h11.861v39.328c0 2.235-.736 4.357-1.921 5.537-.793.79-1.818 1.147-3.125 1.151l-16.306-.029c-.005 0-.009 0-.014 0-4.294 0-7.78 3.477-7.787 7.773-.008 4.301 3.472 7.794 7.773 7.801l16.293.029h.079c5.474 0 10.341-1.968 14.079-5.694 4.132-4.117 6.501-10.156 6.501-16.568v-47.115c.002-4.301-3.484-7.787-7.785-7.787z"/><path d="m188.261 150.135h-3.488c-14.871 0-26.97 12.099-26.97 26.97v23.224c0 14.871 12.099 26.97 26.97 26.97h3.488c14.871 0 26.97-12.099 26.97-26.97v-23.224c-.001-14.871-12.099-26.97-26.97-26.97zm11.396 50.194c0 6.284-5.113 11.396-11.396 11.396h-3.488c-6.284 0-11.396-5.112-11.396-11.396v-23.224c0-6.284 5.113-11.396 11.396-11.396h3.488c6.284 0 11.396 5.112 11.396 11.396z"/><path d="m282.213 184.385c1.483-2.948 2.338-6.262 2.338-9.779v-2.558c0-12.083-9.83-21.913-21.912-21.913h-17.032c-5.912 0-10.722 4.81-10.722 10.723v27.845 27.874c0 5.912 4.81 10.723 10.722 10.723h24.822c12.083 0 21.911-9.83 21.911-21.913v-2.558c-.001-7.744-4.048-14.546-10.127-18.444zm-31.756-18.676h12.181c3.495 0 6.339 2.844 6.339 6.339v2.558c0 3.479-2.844 6.31-6.339 6.31h-12.181zm26.309 39.677c0 3.495-2.843 6.339-6.338 6.339h-19.971v-15.235h12.181 7.79c3.436 0 6.338 2.902 6.338 6.339z"/></g></g></svg>