<svg id="Capa_1" enable-background="new 0 0 512 512" height="512" viewBox="0 0 512 512" width="512" xmlns="http://www.w3.org/2000/svg"><g><g><path d="m467.309 225.861c-.731 0-1.475-.105-2.212-.324-4.089-1.22-6.414-5.524-5.195-9.613l31.41-105.258-25.73-7.684c-4.089-1.221-6.413-5.526-5.193-9.614 1.222-4.089 5.527-6.415 9.614-5.193l33.132 9.895c4.089 1.221 6.413 5.525 5.193 9.613l-33.618 112.659c-1.001 3.352-4.073 5.519-7.401 5.519z" fill="#b5adb6"/></g><g><path clip-rule="evenodd" d="m3.347 57.117v448.085c0 3.729 3.038 6.797 6.764 6.797h107.936 231.005 45.857c3.726 0 6.793-3.069 6.793-6.797 0-232.862 0-157.632 0-411.316l-.029-4.216c0-.631-.086-1.09-.287-1.52h-54.914c-14.961 0-27.228-12.247-27.228-27.247l.057-51.024c-.545-.258-1.06-.373-1.777-.373h-5.073-302.34c-3.726 0-6.764 3.069-6.764 6.797z" fill="#f9f7f7" fill-rule="evenodd"/></g><g><path clip-rule="evenodd" d="m244.383 9.506c52.048 53.691 85.925 141.197 85.925 240.032 0 21.396-1.605 42.276-4.614 62.41-.974 6.453-2.092 12.82-3.353 19.13-1.519 7.572-3.239 15.058-5.159 22.371-18 68.578-53.281 125.051-98.25 158.551h130.119 45.857c3.726 0 6.793-3.069 6.793-6.797v-75.976-100.614-234.727l-.029-4.216c0-.631-.086-1.09-.287-1.52l-82.083-78.271c-.545-.258-1.06-.373-1.777-.373h-5.073z" fill="#e2e2e2" fill-rule="evenodd"/></g><g><path clip-rule="evenodd" d="m319.302 9.879-.057 51.024c0 15 12.267 27.247 27.228 27.247h54.914c-.459-.889-1.49-1.692-3.554-3.671l-74.174-70.785c-2.293-2.209-3.325-3.327-4.357-3.815z" fill="#cecece" fill-rule="evenodd"/></g><path d="m112.945 108.158h-19.431c-5.538 0-10.043-4.511-10.043-10.056s4.506-10.056 10.043-10.056h37.086c4.267 0 7.726-3.459 7.726-7.726s-3.459-7.726-7.726-7.726h-19.702v-13.412c0-4.267-3.459-7.726-7.726-7.726s-7.726 3.459-7.726 7.726v13.411h-1.932c-14.058 0-25.496 11.443-25.496 25.509 0 14.065 11.438 25.509 25.496 25.509h19.432c5.382 0 9.929 4.618 9.929 10.085 0 5.545-4.505 10.056-10.043 10.056h-37.088c-4.267 0-7.726 3.459-7.726 7.726s3.459 7.726 7.726 7.726h19.673v13.412c0 4.267 3.459 7.726 7.726 7.726s7.726-3.459 7.726-7.726v-13.412h1.961c14.058 0 25.495-11.443 25.495-25.509.001-14.081-11.384-25.537-25.38-25.537z" fill="#838383"/><g><path d="m301.589 286.893h-229.17c-4.267 0-7.726-3.459-7.726-7.726s3.459-7.726 7.726-7.726h229.171c4.267 0 7.726 3.459 7.726 7.726s-3.459 7.726-7.727 7.726z" fill="#838383"/></g><g><path d="m301.589 236.615h-229.17c-4.267 0-7.726-3.459-7.726-7.726s3.459-7.726 7.726-7.726h229.171c4.267 0 7.726 3.459 7.726 7.726 0 4.266-3.459 7.726-7.727 7.726z" fill="#838383"/></g><g><path d="m259.802 337.142h-187.383c-4.267 0-7.726-3.459-7.726-7.726s3.459-7.726 7.726-7.726h187.383c4.267 0 7.726 3.459 7.726 7.726.001 4.267-3.459 7.726-7.726 7.726z" fill="#838383"/></g><g><path clip-rule="evenodd" d="m428.413 49.23 14.821 21.08 25.246-9.091 10.26-34.303c3.267-11.042-3.038-22.744-14.072-26.043-11.006-3.298-22.699 3.04-25.995 14.054z" fill="#cecece" fill-rule="evenodd"/></g><g><path clip-rule="evenodd" d="m327.929 406.396 3.984 35.45c.43 2.323.401 2.438 2.064.602l22.784-27.448 24.505-29.57-23.014-27.993-34.622 10.755z" fill="#838383" fill-rule="evenodd"/></g><g><path clip-rule="evenodd" d="m417.006 55.396-93.376 312.797 28.833 8.633 28.804 8.604 86.527-289.852 6.85-22.945c1.462-4.847-1.318-9.981-6.162-11.415l-40.069-11.988c-4.815-1.434-9.945 1.348-11.407 6.166z" fill="#fe9737" fill-rule="evenodd"/></g><g><path clip-rule="evenodd" d="m458.707 20.921-10.26 34.303 20.034 5.994 10.26-34.303c3.267-11.042-3.038-22.744-14.072-26.043-3.64-1.09-7.337-1.119-10.805-.287 4.929 5.25 7.022 12.965 4.843 20.336z" fill="#b5adb6" fill-rule="evenodd"/></g><g><path clip-rule="evenodd" d="m447.759 89.584-82.485 276.371-4.041 13.48 20.034 5.994 86.527-289.852 6.85-22.945c1.462-4.847-1.318-9.981-6.162-11.415l-20.034-5.994c4.844 1.434 7.624 6.568 6.162 11.415z" fill="#f36b37" fill-rule="evenodd"/></g><g><path clip-rule="evenodd" d="m361.232 379.436-24.505 29.57-7.48 9.035 2.665 23.805c.43 2.323.401 2.438 2.064.602l22.785-27.448 24.505-29.57z" fill="#595959" fill-rule="evenodd"/></g><g><path d="m134.985 387.42h-62.566c-4.267 0-7.726-3.459-7.726-7.726s3.459-7.726 7.726-7.726h62.566c4.267 0 7.726 3.459 7.726 7.726.001 4.267-3.459 7.726-7.726 7.726z" fill="#838383"/></g></g></svg>