<svg id="Capa_1" enable-background="new 0 0 512 512" height="512" viewBox="0 0 512 512" width="512" xmlns="http://www.w3.org/2000/svg"><g><g><path clip-rule="evenodd" d="m108.662 195.047 29.71-24.239c-10.536-8.06-21.071-16.149-31.577-24.239h-15.965c-5.895 0-10.711 4.848-10.711 10.718v10.601c.001 13.521 15.176 27.334 28.543 27.159z" fill="#ffbc85" fill-rule="evenodd"/></g><g><path clip-rule="evenodd" d="m406.927 382.38v80.459c0 6.923-2.216 8.386-6.163 8.643h-374.601c-3.947-.258-6.163-1.72-6.163-8.643v-80.459c0-47.77 49.292-83.426 92.401-92.069l.052.021 102.531-3.441 99.11 3.74.433-.319c43.108 8.643 92.4 44.298 92.4 92.068z" fill="#f9f7f7" fill-rule="evenodd"/></g><g><path clip-rule="evenodd" d="m258.348 431.971-26.47-88.222-19.291-11.74-19.291 11.74-26.47 88.222c-.204.789-.409.818-.058 1.489l20.079 38.022h25.74 25.741l20.079-38.022c.349-.671.174-.7-.059-1.489z" fill="#7bacdf" fill-rule="evenodd"/></g><g><path clip-rule="evenodd" d="m231.878 343.749 8.23-32.299-3.794-13.404-22.852-11.097-21.304 10.893-6.742 14.893 7.88 31.014h19.291z" fill="#3987d0" fill-rule="evenodd"/></g><g><path clip-rule="evenodd" d="m185.416 312.735 28.046-25.786c-.292 0-.584 0-.876 0-14.038-20.208-37.414-33.029-61.608-26.4-13.979 10.601-33.504 26.049-38.582 29.758l.058.029 47.337 35.19c10.039 6.279 3.035 7.155 18.444-6.191z" fill="#cecece" fill-rule="evenodd"/></g><g><path clip-rule="evenodd" d="m267.132 325.526 46.957-34.898.438-.321c-5.195-3.796-25.478-19.858-39.515-30.459-29.418-2.307-50.664 13.229-61.55 27.1l26.645 24.501 8.551 7.885c15.439 13.347 8.435 12.471 18.474 6.192z" fill="#cecece" fill-rule="evenodd"/></g><g><path clip-rule="evenodd" d="m231.878 343.749 8.23-32.299-26.646-24.501-9.66 8.848 17.015 15.653-8.23 32.299z" fill="#0067b4" fill-rule="evenodd"/></g><g><path clip-rule="evenodd" d="m258.348 431.971-26.47-88.222h-19.291l26.47 88.222c.233.789.409.818.058 1.489l-20.05 38.022h19.262l20.079-38.022c.35-.671.175-.7-.058-1.489z" fill="#3987d0" fill-rule="evenodd"/></g><g><path clip-rule="evenodd" d="m187.051 311.246 16.752-15.448 9.66-8.849c-.292 0-.584 0-.876 0-8.434 0-16.868-1.781-26.499-5.373-12.578-4.702-24.515-12.061-35.109-21.026-5.136 3.884-11.002 8.41-16.635 12.791 13.892 16.412 31.928 30.167 51.598 37.497.35.145.729.262 1.109.408z" fill="#b5adb6" fill-rule="evenodd"/></g><g><path clip-rule="evenodd" d="m239.29 310.691c19.904-7.505 38.115-21.581 52.036-38.314-5.603-4.322-11.353-8.761-16.314-12.528-10.798 9.287-22.997 16.879-35.926 21.727-9.31 3.446-17.481 5.257-25.624 5.373z" fill="#b5adb6" fill-rule="evenodd"/></g><g><path clip-rule="evenodd" d="m394.842 471.483h.175c-.058 0-.116 0-.175 0zm-102.028-165.056c40.537 11.594 82.971 45.498 82.971 89.799v75.256h19.057.175 5.749c3.94-.263 6.158-1.723 6.158-8.644v-80.454c0-47.776-49.292-83.433-92.397-92.077l-.438.321z" fill="#e2e2e2" fill-rule="evenodd"/></g><g><path clip-rule="evenodd" d="m275.012 259.849c20.779-17.872 36.305-41.994 41.5-64.802 1.226-5.403 1.868-10.747 1.868-15.886v-51.543-7.739h-19.437c-41.208 0-49.788-50.813-100.16-50.813h-33.445c-38.552 0-9.193 58.552-53.553 58.552h-4.991v51.543c0 5.14.642 10.484 1.868 15.886 5.253 23.1 21.129 47.572 42.317 65.502 10.594 8.965 22.53 16.324 35.109 21.026 9.631 3.592 18.065 5.373 26.499 5.373h.876c8.142-.117 16.314-1.927 25.624-5.373 12.928-4.847 25.127-12.44 35.925-21.726z" fill="#ffe5c1" fill-rule="evenodd"/></g><g><path clip-rule="evenodd" d="m180.63 222.877c0 37.993 63.913 37.993 63.913 0 0-3.534-2.889-6.425-6.421-6.425h-51.072c-3.531.001-6.42 2.892-6.42 6.425z" fill="#fbf8f8" fill-rule="evenodd"/></g><g><path clip-rule="evenodd" d="m316.512 195.047c13.366.175 28.542-13.638 28.542-27.159v-10.601c0-5.87-4.815-10.718-10.681-10.718h-15.993l-12.783 19.77z" fill="#ffbc85" fill-rule="evenodd"/></g><g><path clip-rule="evenodd" d="m111.784 146.57c44.36 0 15.001-58.523 53.553-58.523h33.445c50.372 0 58.952 50.784 100.16 50.784h19.437v-15.39-34.897c.001-53.384-59.068-88.398-108.74-88.544h-.671c-22.326.058-42.697 7.213-54.808 22.954-51.131 4.526-47.366 72.599-47.366 81.564v17.347 24.706h4.99z" fill="#838383" fill-rule="evenodd"/></g><g><path clip-rule="evenodd" d="m318.38 88.544c0-53.384-59.069-88.398-108.741-88.544h-.671c-22.297.058-42.609 7.184-54.75 22.866 10.36-5.023 22.589-7.418 35.459-7.476h.671c49.672.175 108.77 35.16 108.77 88.573v34.868h19.262v-15.39z" fill="#595959" fill-rule="evenodd"/></g><g><path clip-rule="evenodd" d="m298.943 138.831c-41.208 0-49.788-50.784-100.16-50.784h-33.445c-15.701 0-20.137 9.695-22.88 21.201h52.473c50.343 0 57.026 47.484 98.234 47.747l5.954.029c-.029 15.04.467 20.734-4.086 35.306-5.954 18.982-15.643 38.928-31.957 52.945-10.798 9.316-23.026 16.909-35.926 21.727-8.755 3.242-17.16 5.315-26.499 5.373-17.481 0-54.983-19.829-68.554-31.218 5.603 6.98 11.966 13.521 18.882 19.391 10.594 8.965 22.53 16.324 35.109 21.026 9.631 3.592 18.065 5.373 26.499 5.373h.876c8.142-.117 16.314-1.927 25.624-5.373 12.929-4.848 25.128-12.44 35.926-21.727 20.779-17.872 36.305-41.994 41.5-64.802 1.226-5.403 1.868-10.747 1.868-15.886v-32.589-7.739z" fill="#fed1a3" fill-rule="evenodd"/></g><g><path clip-rule="evenodd" d="m181.009 227.842h63.155c.233-1.577.379-3.242.379-4.965 0-3.534-2.889-6.425-6.421-6.425h-51.072c-3.531 0-6.421 2.891-6.421 6.425.001 1.723.147 3.388.38 4.965z" fill="#e2e2e2" fill-rule="evenodd"/></g><g><path d="m94.819 414.656v56.826h-15.458v-56.826c0-4.265 3.463-7.727 7.729-7.727 4.277.001 7.729 3.462 7.729 7.727z" fill="#e2e2e2"/></g><g><path d="m180.338 177.63c-1.98 0-3.959-.756-5.469-2.266-1.207-1.208-2.809-1.873-4.512-1.873s-3.305.666-4.512 1.873c-3.017 3.019-7.91 3.022-10.932.006-3.019-3.016-3.022-7.908-.006-10.927 4.128-4.131 9.614-6.406 15.449-6.406s11.321 2.275 15.449 6.406c3.016 3.019 3.013 7.911-.006 10.927-1.508 1.507-3.485 2.26-5.461 2.26z" fill="#838383"/></g><g><path d="m264.797 177.63c-1.98 0-3.959-.756-5.469-2.266-1.207-1.208-2.809-1.873-4.512-1.873s-3.305.666-4.512 1.873c-3.017 3.019-7.91 3.022-10.932.006-3.019-3.016-3.022-7.908-.006-10.927 4.128-4.131 9.614-6.406 15.449-6.406s11.321 2.275 15.449 6.406c3.016 3.019 3.013 7.911-.006 10.927-1.508 1.507-3.484 2.26-5.461 2.26z" fill="#838383"/></g><g><path clip-rule="evenodd" d="m327.018 434.629-32.19 32.211c-4.29 4.293-2.918 9.462 4.173 9.812l20.166 2.57c6.975.876 5.574 1.168 6.421 7.797l2.13 18.369c.35 7.096 5.545 8.469 9.835 4.176l12.812-12.82 22.559-22.574c-7.558-26.663-12.607-35.424-45.906-39.541z" fill="#7bacdf" fill-rule="evenodd"/></g><g><path clip-rule="evenodd" d="m411.04 473.761 22.589 22.574 13.22 13.229c4.29 4.293 9.485 2.92 9.835-4.176l2.13-18.369c.817-6.629-.584-6.921 6.421-7.797l20.137-2.57c7.092-.35 8.493-5.519 4.203-9.812l-33.124-33.116c-21.568-2.395-53.087 33.67-45.411 40.037z" fill="#7bacdf" fill-rule="evenodd"/></g><g><path clip-rule="evenodd" d="m322.115 390.62c-2.51 3.767-2.335 8.235-1.78 10.104l4.027 13.112-.817 10.688c-.467 4.497 1.751 8.381 3.123 9.754l.35.35 9.31 9.403 4.203 9.841c1.664 4.205 5.428 6.6 7.296 7.184l13.045 4.147 8.288 6.746c1.197 1.022 2.481 1.723 3.765 2.219 2.452.905 4.786.964 6.041.759l13.454-2.453 10.477 2.132c3.152.73 6.129.029 8.142-.847.817-.35 1.459-.759 1.897-1.081l10.798-8.44 10.273-3.008c4.348-1.139 7.179-4.614 7.996-6.395l5.662-12.499 7.675-7.447c.409-.38.788-.759 1.109-1.168 2.422-2.92 3.094-6.512 3.006-8.206l-.788-13.725 3.356-10.163c1.547-4.264.292-8.556-.7-10.221l-7.033-11.798-1.751-10.542c-.613-4.497-3.706-7.739-5.37-8.732l-11.674-7.155-6.45-8.527c-2.627-3.709-6.858-5.111-8.784-5.257l-13.687-.876-9.631-4.556c-4.057-2.044-8.463-1.343-10.215-.526l-12.52 5.578-10.652.467c-4.524.058-8.113 2.745-9.31 4.293l-8.463 10.776-9.251 5.373c-3.969 2.161-5.866 6.22-6.245 8.118l-2.51 13.521z" fill="#fe636e" fill-rule="evenodd"/></g><g><path clip-rule="evenodd" d="m394.084 341.442c23.522 12.47 39.545 37 39.545 65.21 0 22.72-10.39 43.045-26.704 56.625-3.736 3.096-7.792 5.841-12.111 8.206-.671.35-1.372.73-2.043 1.081l10.127 2.044c3.152.73 6.129.029 8.142-.847.817-.35 1.459-.759 1.897-1.081l10.798-8.44 10.273-3.008c4.348-1.139 7.179-4.614 7.996-6.395l5.662-12.499 7.675-7.447c.409-.38.788-.759 1.109-1.168 2.422-2.92 3.094-6.512 3.006-8.206l-.788-13.725 3.356-10.163c1.547-4.264.292-8.556-.7-10.221l-7.033-11.798-1.751-10.542c-.613-4.497-3.706-7.739-5.37-8.732l-11.674-7.155-6.45-8.527c-2.627-3.709-6.858-5.111-8.784-5.257l-13.687-.876-9.631-4.556c-3.356-1.694-6.975-1.489-9.105-.905-.438.117-.817.234-1.109.38l-5.808 2.57c4.611 1.402 8.988 3.242 13.162 5.432z" fill="#fb2a39" fill-rule="evenodd"/></g><g><path clip-rule="evenodd" d="m446.353 445.2 30.176 30.196c.7.701 1.255 1.431 1.664 2.19l7.179-.934c7.092-.35 8.493-5.519 4.203-9.812l-33.124-33.116c-.321.409-.7.788-1.109 1.168l-7.675 7.447z" fill="#3987d0" fill-rule="evenodd"/></g><g><path clip-rule="evenodd" d="m338.313 479.776-12.141 12.178 1.138 9.958.409 3.475c.35 7.096 5.545 8.469 9.835 4.176l7.646-7.651 5.166-5.169 22.559-22.574c-1.284-.496-2.568-1.197-3.765-2.219l-.584-.467-7.705-6.279-6.07-1.927-8.172 8.206z" fill="#3987d0" fill-rule="evenodd"/></g><g><path clip-rule="evenodd" d="m367.147 382.472c-11.79 13.404-10.477 33.817 2.889 45.586 13.366 11.798 33.766 10.513 45.557-2.891 11.79-13.375 10.477-33.788-2.889-45.586-13.367-11.769-33.767-10.484-45.557 2.891z" fill="#f9f7f7" fill-rule="evenodd"/></g><g><path clip-rule="evenodd" d="m389.093 381.567c13.366 11.798 14.65 32.182 2.889 45.586-2.889 3.242-6.245 5.782-9.923 7.593 8.259 2.482 17.248 1.577 24.865-2.599 3.181-1.752 6.129-4.088 8.668-6.98 11.79-13.375 10.477-33.788-2.889-45.586-1.926-1.665-3.969-3.096-6.129-4.264-9.251-4.935-20.283-4.994-29.505-.438 4.319 1.285 8.405 3.505 12.024 6.688z" fill="#e2e2e2" fill-rule="evenodd"/></g></g></svg>