<svg id="Capa_1" enable-background="new 0 0 512 512" height="512" viewBox="0 0 512 512" width="512" xmlns="http://www.w3.org/2000/svg"><g><g><path clip-rule="evenodd" d="m53 48.475v456.604c0 3.796 3.094 6.921 6.917 6.921h109.979 235.427 46.759c3.794 0 6.917-3.125 6.917-6.921 0-237.267 0-160.641 0-419.108l-.029-4.293c0-.642-.088-1.11-.292-1.548h-55.953c-15.265 0-27.787-12.499-27.757-27.771l.058-52.009c-.555-.263-1.08-.35-1.81-.35h-5.166-308.133c-3.823 0-6.917 3.095-6.917 6.921z" fill="#f9f7f7" fill-rule="evenodd"/></g><g><path clip-rule="evenodd" d="m298.672 0c53.034 54.695 87.563 143.849 87.563 244.567 0 21.814-1.634 43.073-4.699 63.573-.992 6.6-2.131 13.083-3.415 19.507-1.547 7.739-3.298 15.331-5.254 22.807-18.33 69.881-54.289 127.409-100.142 161.546h132.599 46.759c3.794 0 6.917-3.125 6.917-6.921v-77.415-102.528-239.165l-.029-4.293c0-.642-.088-1.11-.292-1.548l-83.652-79.78c-.555-.263-1.08-.35-1.81-.35h-5.166z" fill="#e2e2e2" fill-rule="evenodd"/></g><g><path clip-rule="evenodd" d="m375.027.35-.058 52.009c-.029 15.273 12.492 27.771 27.757 27.771h55.953c-.467-.934-1.518-1.723-3.619-3.767l-75.596-72.129c-2.335-2.248-3.386-3.358-4.437-3.884z" fill="#cecece" fill-rule="evenodd"/></g><g><path clip-rule="evenodd" d="m369.394 328.611v-50.374c0-26.778-17.337-32.268-39.462-45.555h-140.246c-22.124 13.287-39.462 18.777-39.462 45.555v50.374c0 6.191 2.86 5.402 7.589 5.402h14.594 69.904 17.513 17.425 69.963 14.594c4.757 0 7.588.789 7.588-5.402z" fill="#7bacdf" fill-rule="evenodd"/></g><g><path clip-rule="evenodd" d="m290.821 310.126-17.95-38.956-13.047-7.388-13.134 7.388-17.95 38.956c-.175.38-.292.409-.058.73l13.631 23.157h17.513 17.425l13.631-23.157c.231-.321.114-.35-.061-.73z" fill="#fe9737" fill-rule="evenodd"/></g><g><path clip-rule="evenodd" d="m272.87 271.17 5.575-21.901 2.861-10.863-21.482-8.907-10.129 4.731-11.178 5.198 2.597 9.899 5.575 21.843h13.076z" fill="#fe7600" fill-rule="evenodd"/></g><g><path clip-rule="evenodd" d="m241.114 249.327 18.709-19.828-12.872-12.44-25.189-3.621-32.077 19.244 33.449 21.668c6.188 3.621 7.618 6.979 12.259 1.022z" fill="#0078c8" fill-rule="evenodd"/></g><g><path clip-rule="evenodd" d="m296.483 254.35 33.449-21.668-32.048-19.244-19.439 1.285-18.622 14.776 18.622 19.77 5.779 6.103c4.641 5.957 6.071 2.599 12.259-1.022z" fill="#0078c8" fill-rule="evenodd"/></g><g><path clip-rule="evenodd" d="m297.884 213.438c13.514-11.272 23.671-26.837 27.028-41.496.759-3.358 1.167-6.716 1.167-9.929v-39.16-4.848h-12.171c-25.831 0-31.202-31.801-62.724-31.801h-15.353c-24.167 0-5.779 36.649-33.566 36.649h-8.727v39.16c0 3.212.409 6.541 1.197 9.929 3.327 14.659 13.485 30.224 27.028 41.496 6.48 5.402 13.777 9.841 21.453 12.703 6.042 2.249 11.296 3.358 16.608 3.358 5.283 0 10.566-1.11 16.579-3.358 7.676-2.862 14.972-7.301 21.481-12.703z" fill="#ffe5c1" fill-rule="evenodd"/></g><g><path clip-rule="evenodd" d="m326.079 105.273c0-31.013-31.785-52.097-61.206-55.104h-13.952c-11.325 1.256-21.336 5.753-27.699 14.017-32.019 2.833-29.684 45.468-29.684 51.074v10.863 15.477h8.727c27.787 0 9.398-36.649 33.566-36.649h15.353c31.523 0 36.893 31.801 62.724 31.801h12.171v-9.637z" fill="#838383" fill-rule="evenodd"/></g><g><path clip-rule="evenodd" d="m326.079 118.006v-12.732c0-31.013-31.785-52.097-61.206-55.104h-13.893c28.662 3.913 58.667 24.705 58.667 54.783v12.761 4.848 4.234 9.666c1.343.204 2.773.292 4.261.292h12.171v-9.637-4.264z" fill="#595959" fill-rule="evenodd"/></g><g><path clip-rule="evenodd" d="m309.647 136.461c-22.27-3.241-28.75-31.509-58.463-31.509h-15.353c-8.931 0-12.054 4.994-13.835 11.301h17.571c29.713 0 36.222 28.268 58.463 31.509h8.669c3.006 0 2.948.088 2.948 2.833v11.068c0 3.212-.409 6.541-1.197 9.929-3.327 14.659-13.485 30.224-27.028 41.496-.642.526-1.284 1.051-1.926 1.548-2.481 1.927-5.02 3.738-7.676 5.344-3.794 2.307-7.764 4.293-11.85 5.811-.992.38-1.985.701-2.948 1.022-2.16.701-4.232 1.256-6.275 1.635 3.123.701 6.1 1.051 9.077 1.051 5.283 0 10.566-1.11 16.579-3.358 7.676-2.862 14.973-7.301 21.482-12.703 13.514-11.272 23.671-26.837 27.028-41.496.759-3.358 1.167-6.716 1.167-9.929v-20.412-4.848h-12.171c-1.489 0-2.919-.087-4.262-.292z" fill="#fed1a3" fill-rule="evenodd"/></g><g><path clip-rule="evenodd" d="m244.646 245.589 15.178-16.09c-2.977 0-5.954-.35-9.077-1.051-2.393-.555-4.904-1.314-7.53-2.307-7.676-2.862-14.973-7.301-21.453-12.703l-15.411 9.228c1.81 1.752 3.678 3.417 5.633 5.023 8.173 6.833 17.308 12.382 26.969 15.974.234.117.496.204.759.292 1.663.612 3.327 1.167 4.932 1.634z" fill="#0067b4" fill-rule="evenodd"/></g><g><path clip-rule="evenodd" d="m280.664 243.662c9.661-3.592 18.797-9.14 26.999-15.974 1.926-1.606 3.794-3.271 5.604-5.023l-15.382-9.228c-6.509 5.402-13.806 9.841-21.482 12.703-6.013 2.249-11.296 3.358-16.579 3.358l15.148 16.09c1.576-.467 3.211-.993 4.874-1.606.263-.115.555-.203.818-.32z" fill="#0067b4" fill-rule="evenodd"/></g><g><path clip-rule="evenodd" d="m274.972 245.589-15.148-16.09-8.056 8.527 8.61 11.389 2.656 3.358c.788 1.022.584 1.168.263 2.424l-2.569 10.046-.905 5.928h13.047l5.575-21.902z" fill="#e6581f" fill-rule="evenodd"/></g><g><path clip-rule="evenodd" d="m290.821 310.126-17.95-38.956h-13.047l13.572 38.956c.146.38.263.409.029.73l-13.601 23.157h17.425l13.631-23.157c.233-.321.116-.35-.059-.73z" fill="#fe7600" fill-rule="evenodd"/></g><g><path clip-rule="evenodd" d="m369.394 278.237c0-26.778-17.337-32.268-39.462-45.555l-20.607 13.345c19.118 10.922 33.332 17.726 33.332 41.963v46.022h4.553 14.594c4.758 0 7.589.788 7.589-5.402v-50.373z" fill="#3987d0" fill-rule="evenodd"/></g><g><path clip-rule="evenodd" d="m170.509 381.905h-56.887c-2.306 0-4.203 1.898-4.203 4.205v56.915c0 2.307 1.897 4.176 4.203 4.176h56.887c2.306 0 4.203-1.869 4.203-4.176v-56.915c0-.584-.117-1.139-.321-1.635-.642-1.519-2.13-2.57-3.882-2.57z" fill="#97da7b" fill-rule="evenodd"/></g><g><path clip-rule="evenodd" d="m223.106 386.11v56.915c0 2.307 1.897 4.176 4.203 4.176h56.887c2.306 0 4.174-1.869 4.174-4.176v-56.915c0-.584-.117-1.139-.321-1.635-.613-1.518-2.131-2.57-3.853-2.57h-56.887c-2.306 0-4.203 1.898-4.203 4.205z" fill="#97da7b" fill-rule="evenodd"/></g><g><path clip-rule="evenodd" d="m340.965 381.905c-2.306 0-4.203 1.898-4.203 4.205v56.915c0 2.307 1.897 4.176 4.203 4.176h56.887c2.306 0 4.203-1.869 4.203-4.176v-56.915c0-.876-.263-1.694-.73-2.336-.759-1.139-2.014-1.869-3.473-1.869z" fill="#97da7b" fill-rule="evenodd"/></g><g><path d="m147.422 429.229c-1.718 0-3.397-.572-4.765-1.644l-13.164-10.308c-3.361-2.631-3.951-7.487-1.319-10.847 2.631-3.359 7.489-3.951 10.849-1.318l6.861 5.372 37.172-51.056c2.512-3.449 7.346-4.212 10.797-1.7s4.212 7.344 1.701 10.794l-41.884 57.528c-1.234 1.695-3.104 2.816-5.181 3.106-.355.048-.712.073-1.067.073z" fill="#595959"/></g><g><path d="m261.108 429.229c-1.718 0-3.397-.572-4.765-1.644l-13.164-10.308c-3.361-2.631-3.951-7.487-1.319-10.847 2.631-3.359 7.49-3.951 10.849-1.318l6.861 5.372 37.172-51.056c2.511-3.449 7.345-4.212 10.797-1.7 3.451 2.512 4.212 7.344 1.701 10.794l-41.884 57.528c-1.234 1.695-3.104 2.816-5.181 3.106-.355.048-.712.073-1.067.073z" fill="#595959"/></g><g><path d="m374.794 427.973c-1.715 0-3.392-.57-4.759-1.639l-13.193-10.308c-3.363-2.628-3.958-7.483-1.33-10.846 2.628-3.361 7.485-3.957 10.848-1.329l6.89 5.383 37.149-51.06c2.51-3.45 7.344-4.214 10.796-1.704s4.215 7.343 1.704 10.793l-41.855 57.528c-1.233 1.695-3.101 2.816-5.177 3.107-.358.051-.716.075-1.073.075z" fill="#595959"/></g></g></svg>