<svg id="Capa_1" enable-background="new 0 0 512 512" height="512" viewBox="0 0 512 512" width="512" xmlns="http://www.w3.org/2000/svg"><g><g><path clip-rule="evenodd" d="m54.491 53.5h402.989c15.097 0 27.421 12.342 27.421 27.462v306.528l-219.629 32.19-238.202-32.19v-306.528c0-15.12 12.353-27.462 27.421-27.462z" fill="#cecece" fill-rule="evenodd"/></g><g><path clip-rule="evenodd" d="m64.683 86.87h382.606c2.19 0 3.971 1.784 3.971 3.977v257.307c0 1.55-1.285 2.837-2.833 2.837h-384.241c-1.898 0-3.475-1.579-3.475-3.48v-256.664c0-2.193 1.811-3.977 3.972-3.977z" fill="#f9f7f7" fill-rule="evenodd"/></g><g><path d="m119.635 203.014c-.026 0-.052 0-.079 0l-16.34-.029c-4.267-.008-7.72-3.474-7.712-7.743.008-4.264 3.466-7.715 7.726-7.715h.014l16.353.029c1.363.055 2.378-.373 3.196-1.189 1.215-1.212 1.971-3.375 1.971-5.646v-39.621h-12.014c-4.268 0-7.726-3.46-7.726-7.729s3.459-7.729 7.726-7.729h19.74c4.268 0 7.726 3.46 7.726 7.729v47.35c0 6.419-2.375 12.468-6.515 16.596-3.74 3.728-8.603 5.697-14.066 5.697z" fill="#595959"/></g><g><path d="m192.412 203.014h-3.504c-14.872 0-26.971-12.126-26.971-27.031v-23.309c0-14.905 12.099-27.031 26.971-27.031h3.504c14.888 0 27 12.126 27 27.031v23.309c0 14.905-12.111 27.031-27 27.031zm-3.504-61.914c-6.351 0-11.518 5.192-11.518 11.573v23.309c0 6.381 5.167 11.573 11.518 11.573h3.504c6.367 0 11.547-5.192 11.547-11.573v-23.309c0-6.381-5.18-11.573-11.547-11.573z" fill="#595959"/></g><path d="m286.587 160.019c1.513-2.975 2.385-6.329 2.385-9.889v-2.574c0-12.083-9.833-21.913-21.919-21.913h-17.083c-5.886 0-10.676 4.792-10.676 10.683v27.988 28.018c0 5.89 4.79 10.683 10.676 10.683h24.909c12.069 0 21.889-9.83 21.889-21.913v-2.573c.001-7.783-4.072-14.613-10.181-18.51zm-31.841-18.919h12.307c3.565 0 6.466 2.896 6.466 6.455v2.574c0 3.56-2.9 6.455-6.466 6.455h-12.307zm26.57 40.001c0 3.56-2.887 6.455-6.437 6.455h-20.133v-15.513h12.307 7.826c3.549 0 6.437 2.909 6.437 6.485z" fill="#595959"/><g><path d="m228.331 250.919h-125.102c-4.268 0-7.726-3.46-7.726-7.729s3.459-7.729 7.726-7.729h125.102c4.268 0 7.726 3.46 7.726 7.729s-3.458 7.729-7.726 7.729z" fill="#595959"/></g><g><path d="m264.25 299.497h-161.02c-4.268 0-7.726-3.46-7.726-7.729s3.459-7.729 7.726-7.729h161.02c4.268 0 7.726 3.46 7.726 7.729s-3.459 7.729-7.726 7.729z" fill="#595959"/></g><g><path clip-rule="evenodd" d="m15.01 458.5h481.951c8.264 0 15.039-6.785 15.039-15.062v-40.886c0-8.277-6.775-15.062-15.039-15.062-140.725 0-316.989 0-469.891 0h-12.06c-8.264 0-15.01 6.786-15.01 15.062v40.886c0 8.277 6.746 15.062 15.01 15.062z" fill="#838383" fill-rule="evenodd"/></g><g><path clip-rule="evenodd" d="m418.174 443.438c0 8.277-6.775 15.062-15.039 15.062h93.826c8.264 0 15.039-6.785 15.039-15.062v-40.886c0-8.277-6.775-15.062-15.039-15.062h-12.061-.759l-6.541 6.112-.73.673c-4.468 4.182-11.535 3.919-15.711-.556l-5.782-6.229h-52.243c8.264 0 15.039 6.785 15.039 15.062v40.886z" fill="#595959" fill-rule="evenodd"/></g><g><path clip-rule="evenodd" d="m315.645 209.206c-25.318 23.602-26.72 63.318-3.125 88.674s63.223 26.76 88.541 3.129 26.72-63.318 3.125-88.674c-23.566-25.356-63.223-26.76-88.541-3.129z" fill="#62dbfb" fill-rule="evenodd"/></g><g><path clip-rule="evenodd" d="m368.851 212.54c23.595 25.356 22.194 65.073-3.125 88.674-7.271 6.814-15.74 11.523-24.676 14.214 20.441 5.849 43.336 1.141 60.01-14.418 25.318-23.631 26.72-63.318 3.125-88.674-16.791-18.074-41.759-23.982-63.865-17.343 10.572 3.041 20.501 8.92 28.531 17.547z" fill="#00c0fa" fill-rule="evenodd"/></g><g><path d="m454.822 429.496h-14.834c-4.268 0-7.726-3.46-7.726-7.729s3.459-7.729 7.726-7.729h14.834c4.268 0 7.726 3.46 7.726 7.729s-3.458 7.729-7.726 7.729z" fill="#97da7b"/></g><g><path d="m401.061 429.496h-14.835c-4.268 0-7.726-3.46-7.726-7.729s3.459-7.729 7.726-7.729h14.835c4.268 0 7.726 3.46 7.726 7.729s-3.458 7.729-7.726 7.729z" fill="#97da7b"/></g><g><path clip-rule="evenodd" d="m369.202 86.87h78.086c2.19 0 3.971 1.784 3.971 3.977v236.045l33.641 36.148v-282.078c0-15.12-12.323-27.462-27.421-27.462h-115.698c15.068 0 27.421 12.342 27.421 27.462z" fill="#b5adb6" fill-rule="evenodd"/></g><g><path clip-rule="evenodd" d="m369.202 387.49h33.933 52.242l-33.962-36.499h-52.213z" fill="#b5adb6" fill-rule="evenodd"/></g><g><path clip-rule="evenodd" d="m369.202 316.92v34.072h52.213l-3.592-3.861c-4.147-4.475-3.913-11.552.555-15.705l.73-.673v-.029h.029l5.11-4.767-23.186-24.947c-9.228 8.598-20.324 13.892-31.859 15.91z" fill="#e2e2e2" fill-rule="evenodd"/></g><g><path clip-rule="evenodd" d="m369.202 86.87v106.427c12.966 2.281 25.318 8.657 34.984 19.039 23.595 25.356 22.194 65.043-3.125 88.674l23.186 24.947-23.186-24.947c-9.228 8.598-20.325 13.892-31.859 15.91v34.072h52.213l-3.592-3.861c-4.147-4.475-3.913-11.552.555-15.705l.73-.673v-.029h.029l5.11-4.767 5.87-5.498c4.468-4.153 11.535-3.919 15.711.556l5.432 5.878v-236.046c0-2.193-1.781-3.977-3.971-3.977z" fill="#e2e2e2" fill-rule="evenodd"/></g><path d="m429.906 320.694-18.228-19.612c23.113-26.847 22.836-67.498-1.833-94.009-12.803-13.774-30.199-21.728-48.986-22.396-18.812-.684-36.722 6.034-50.482 18.875-28.401 26.476-29.977 71.154-3.512 99.595 12.822 13.778 30.229 21.731 49.016 22.393.847.03 1.691.045 2.535.045 15.263 0 29.843-4.887 41.96-13.96l18.212 19.595c1.522 1.637 3.589 2.466 5.661 2.466 1.883 0 3.771-.685 5.259-2.069 3.126-2.906 3.304-7.797.398-10.923zm-73.48-10.603c-14.659-.516-28.243-6.723-38.25-17.477-20.663-22.205-19.436-57.085 2.736-77.754.001-.001.002-.002.003-.003 10.249-9.566 23.462-14.768 37.397-14.768.664 0 1.33.012 1.997.035 14.657.521 28.229 6.727 38.221 17.477 20.65 22.191 19.421 57.072-2.74 77.757-10.731 10.017-24.718 15.25-39.364 14.733z" fill="#838383"/><g><path clip-rule="evenodd" d="m421.415 350.991 33.962 36.499 5.782 6.229c4.176 4.475 11.243 4.738 15.711.556l7.271-6.785.759-.702 3.709-3.451c4.468-4.182 4.702-11.26.555-15.734l-4.264-4.562-33.641-36.148-5.432-5.878c-4.176-4.475-11.243-4.709-15.711-.556l-5.87 5.498-5.87 5.469c-4.468 4.153-4.702 11.231-.555 15.705z" fill="#fe9737" fill-rule="evenodd"/></g><g><path clip-rule="evenodd" d="m419.108 330.753c4.468-4.153 11.506-3.89 15.652.585l5.461 5.849 10.922 11.757 22.719 24.391 4.234 4.592c2.482 2.661 3.387 6.229 2.803 9.563-.409 2.252-1.519 4.416-3.3 6.112l6.541-6.112.759-.702 3.709-3.451c4.468-4.182 4.702-11.26.555-15.734l-4.264-4.562-33.641-36.148-5.432-5.878c-4.176-4.475-11.243-4.709-15.711-.556l-5.87 5.498-5.14 4.767v.029z" fill="#f36b37" fill-rule="evenodd"/></g></g></svg>