<svg id="Capa_1" enable-background="new 0 0 512 512" height="512" viewBox="0 0 512 512" width="512" xmlns="http://www.w3.org/2000/svg"><g><g><path clip-rule="evenodd" d="m97.845 192.026 29.251-23.857c-10.382-7.962-20.735-15.924-31.118-23.857h-15.718c-5.804 0-10.557 4.754-10.557 10.529v10.441c-.001 13.327 14.96 26.919 28.142 26.744z" fill="#ffbc85" fill-rule="evenodd"/></g><g><path clip-rule="evenodd" d="m391.636 376.444v79.183c0 6.82-2.185 8.283-6.059 8.51h-369.008c-3.885-.227-6.069-1.69-6.069-8.51v-79.183c0-47.019 48.554-82.139 91.018-90.649l.062.031 100.992-3.389 97.613 3.678.433-.319c42.433 8.508 91.018 43.628 91.018 90.648z" fill="#f9f7f7" fill-rule="evenodd"/></g><g><path clip-rule="evenodd" d="m173.438 307.9 27.618-25.403c-.292 0-.554 0-.846 0-13.824-19.92-36.863-32.519-60.69-25.986-13.765 10.412-33.013 25.636-38 29.282l.058.029 46.604 34.649c9.916 6.183 3.004 7.029 18.198-6.096z" fill="#cecece" fill-rule="evenodd"/></g><g><path clip-rule="evenodd" d="m253.929 320.47 46.254-34.357.437-.321c-5.104-3.733-25.11-19.541-38.904-29.982-28.989-2.275-49.928 13.008-60.661 26.686l26.247 24.12 8.457 7.758c15.196 13.125 8.284 12.279 18.17 6.096z" fill="#cecece" fill-rule="evenodd"/></g><g><path clip-rule="evenodd" d="m219.195 338.407 8.108-31.79-6.08-14.311-20.167-9.809-20.793 9.551-6.825 15.852 7.786 30.507h18.986z" fill="#3987d0" fill-rule="evenodd"/></g><g><path clip-rule="evenodd" d="m245.268 425.262-26.072-86.855h-18.986-18.986l-26.072 86.855c-.233.758-.437.817-.058 1.458l19.744 37.419h25.372 25.372l19.744-37.419c.35-.642.175-.7-.058-1.458z" fill="#7bacdf" fill-rule="evenodd"/></g><g><path clip-rule="evenodd" d="m219.195 338.407 8.108-31.79-26.247-24.12-9.479 8.72 16.74 15.4-8.107 31.79z" fill="#0067b4" fill-rule="evenodd"/></g><g><path clip-rule="evenodd" d="m245.268 425.262-26.072-86.855h-18.986l26.072 86.855c.233.758.408.817.058 1.458l-19.773 37.419h19.015l19.744-37.419c.35-.642.175-.7-.058-1.458z" fill="#3987d0" fill-rule="evenodd"/></g><g><path clip-rule="evenodd" d="m175.042 306.413 16.536-15.195 9.478-8.72c-.292 0-.554 0-.846 0-8.312 0-16.623-1.779-26.102-5.308-12.395-4.637-24.148-11.841-34.588-20.678-5.045 3.821-10.82 8.283-16.39 12.6 13.707 16.129 31.468 29.69 50.832 36.894.351.144.73.261 1.08.407z" fill="#b5adb6" fill-rule="evenodd"/></g><g><path clip-rule="evenodd" d="m226.516 305.888c19.598-7.408 37.534-21.262 51.241-37.74-5.483-4.258-11.17-8.633-16.04-12.337-10.645 9.158-22.689 16.624-35.405 21.378-9.157 3.412-17.207 5.191-25.256 5.308l14.57 13.386z" fill="#b5adb6" fill-rule="evenodd"/></g><g><path clip-rule="evenodd" d="m379.713 464.139h.204c-.059 0-.146 0-.204 0zm-100.469-162.48c39.925 11.433 81.717 44.798 81.717 88.401v74.08h18.752.204 5.658c3.879-.233 6.066-1.692 6.066-8.516v-79.184c0-47.015-48.587-82.13-91.02-90.646l-.437.321z" fill="#e2e2e2" fill-rule="evenodd"/></g><g><path clip-rule="evenodd" d="m261.716 255.81c20.444-17.587 35.755-41.357 40.858-63.785 1.196-5.337 1.837-10.587 1.837-15.662v-50.748-7.612h-19.131c-40.596 0-49.053-49.99-98.661-49.99h-32.955c-37.971 0-9.07 57.602-52.757 57.602h-4.929v50.748c0 5.075.642 10.325 1.866 15.662 5.191 22.72 20.823 46.811 41.675 64.485 10.441 8.837 22.194 16.041 34.588 20.678 9.478 3.529 17.79 5.308 26.102 5.308h.846c8.049-.117 16.098-1.896 25.256-5.308 12.716-4.753 24.76-12.22 35.405-21.378z" fill="#ffe5c1" fill-rule="evenodd"/></g><g><path clip-rule="evenodd" d="m168.742 219.412c0 37.39 62.935 37.39 62.935 0 0-3.471-2.829-6.3-6.299-6.3h-50.337c-3.47 0-6.299 2.829-6.299 6.3z" fill="#fbf8f8" fill-rule="evenodd"/></g><g><path clip-rule="evenodd" d="m302.575 192.026c13.182.175 28.114-13.416 28.114-26.745v-10.441c0-5.775-4.725-10.529-10.528-10.529h-15.748l-12.599 19.453z" fill="#ffbc85" fill-rule="evenodd"/></g><g><path clip-rule="evenodd" d="m100.908 144.311c43.687 0 14.786-57.631 52.757-57.631h32.955c49.607 0 58.065 49.99 98.661 49.99h19.131v-15.166-34.328c0-52.556-58.182-87.03-107.118-87.176h-.642c-22.019.058-42.054 7.116-54.011 22.603-50.366 4.433-46.662 71.485-46.662 80.293v17.091 24.324z" fill="#838383" fill-rule="evenodd"/></g><g><path clip-rule="evenodd" d="m304.412 87.176c0-52.556-58.182-87.03-107.118-87.176h-.642c-21.96.058-41.996 7.087-53.924 22.516 10.207-4.958 22.223-7.321 34.909-7.35h.671c48.908.146 107.118 34.619 107.118 87.176v34.328h18.986v-15.166z" fill="#595959" fill-rule="evenodd"/></g><g><path clip-rule="evenodd" d="m285.28 136.669c-40.596 0-49.053-49.99-98.661-49.99h-32.955c-15.457 0-19.831 9.566-22.544 20.882h51.707c49.578 0 56.169 46.752 96.736 46.986 7.145.029 5.949 3.033 5.862 6.358-.204 10.441-.233 16.333-4.025 28.436-5.833 18.666-15.398 38.323-31.468 52.119-10.645 9.158-22.66 16.653-35.405 21.378-8.603 3.208-16.886 5.25-26.102 5.308-17.177 0-54.157-19.541-67.485-30.74 5.512 6.883 11.753 13.329 18.577 19.103 10.441 8.837 22.194 16.041 34.588 20.678 9.478 3.529 17.79 5.308 26.102 5.308h.846c8.049-.117 16.098-1.896 25.256-5.308 12.715-4.754 24.76-12.22 35.405-21.378 20.444-17.587 35.755-41.357 40.858-63.785 1.196-5.337 1.837-10.587 1.837-15.662v-32.053-7.641h-19.129z" fill="#fed1a3" fill-rule="evenodd"/></g><g><path clip-rule="evenodd" d="m169.121 224.283h62.177c.262-1.546.379-3.179.379-4.871 0-3.471-2.829-6.3-6.299-6.3h-50.337c-3.47 0-6.299 2.829-6.299 6.3 0 1.692.117 3.325.379 4.871z" fill="#e2e2e2" fill-rule="evenodd"/></g><g><path d="m84.31 408.205v55.931h-15.457v-55.931c0-4.275 3.462-7.727 7.728-7.727 4.277.001 7.729 3.452 7.729 7.727z" fill="#e2e2e2"/></g><g><path d="m411.064 234.109c-4.268 0-7.728-3.459-7.728-7.727v-20.971c0-4.268 3.46-7.727 7.728-7.727s7.728 3.459 7.728 7.727v20.971c0 4.268-3.46 7.727-7.728 7.727z" fill="#fe9737"/></g><g><path d="m343.171 252.775c-1.978 0-3.956-.755-5.466-2.264l-14.845-14.846c-3.017-3.018-3.017-7.91.002-10.927s7.911-3.016 10.93.001l14.845 14.846c3.017 3.018 3.017 7.91-.001 10.927-1.51 1.508-3.488 2.263-5.465 2.263z" fill="#fe9737"/></g><g><path d="m478.957 252.775c-1.975 0-3.95-.753-5.459-2.257-3.021-3.014-3.027-7.907-.012-10.927l14.815-14.846c3.014-3.022 7.907-3.026 10.929-.013 3.021 3.014 3.027 7.907.012 10.927l-14.815 14.846c-1.509 1.513-3.489 2.27-5.47 2.27z" fill="#fe9737"/></g><g><path clip-rule="evenodd" d="m385.137 494.384c0 9.683 7.933 17.616 17.615 17.616h16.536c9.682 0 17.615-7.933 17.615-17.616v-17.616l-25.868-16.858-25.897 16.858v17.616z" fill="#cecece" fill-rule="evenodd"/></g><g><path d="m168.451 174.99c-1.978 0-3.956-.755-5.466-2.264-1.178-1.178-2.736-1.827-4.388-1.827-.003 0-.006 0-.009 0-1.641.002-3.183.646-4.343 1.812-3.01 3.028-7.903 3.04-10.929.031-3.027-3.009-3.04-7.902-.031-10.927 4.077-4.1 9.505-6.361 15.283-6.369h.03c5.782 0 11.221 2.257 15.319 6.354 3.017 3.018 3.017 7.911-.002 10.927-1.509 1.509-3.487 2.263-5.464 2.263z" fill="#838383"/></g><g><path d="m251.655 174.99c-1.978 0-3.956-.755-5.465-2.264-1.178-1.178-2.737-1.827-4.389-1.827-.003 0-.006 0-.009 0-1.641.002-3.183.646-4.343 1.812-3.01 3.028-7.903 3.04-10.929.031-3.027-3.009-3.04-7.902-.031-10.927 4.077-4.1 9.504-6.361 15.282-6.369h.03c5.782 0 11.221 2.256 15.319 6.354 3.018 3.017 3.017 7.91-.001 10.927-1.509 1.509-3.486 2.263-5.464 2.263z" fill="#838383"/></g><g><path clip-rule="evenodd" d="m379.917 449.411h31.118 31.089c0-50.019 48.383-56.494 48.324-110.246-.058-51.244-39.75-76.472-79.413-75.918-39.692-.554-79.384 24.674-79.442 75.918-.059 53.752 48.324 60.227 48.324 110.246z" fill="#fe9737" fill-rule="evenodd"/></g><path d="m434.774 359.059h-48.441c-4.268 0-7.728 3.459-7.728 7.727s3.46 7.727 7.728 7.727h16.973v68.57c0 4.268 3.46 7.727 7.728 7.727s7.728-3.459 7.728-7.727v-68.57h16.011c4.268 0 7.728-3.459 7.728-7.727.001-4.268-3.459-7.727-7.727-7.727z" fill="#e2e2e2"/><g><path clip-rule="evenodd" d="m442.385 443.082c3.879-44.361 48.12-52.498 48.062-103.917-.058-51.244-39.75-76.472-79.413-75.918-4.025-.058-8.02.175-11.957.642 35.346 4.141 67.456 29.165 67.514 75.276.058 51.419-44.212 59.556-48.062 103.917z" fill="#f36b37" fill-rule="evenodd"/></g><g><path clip-rule="evenodd" d="m413.047 494.384c0 8.429-6.008 15.516-13.969 17.237 1.196.233 2.421.379 3.675.379h16.536c9.682 0 17.615-7.933 17.615-17.616v-17.616h-14.728-9.128v17.616z" fill="#b5adb6" fill-rule="evenodd"/></g><g><path clip-rule="evenodd" d="m376.009 476.768h9.128 51.766 9.128c3.12 0 5.687-2.567 5.687-5.687v-22.312c0-3.121-2.566-5.687-5.687-5.687h-3.646-31.351-24.643-6.737-3.645c-3.121 0-5.687 2.567-5.687 5.687v8.458 13.854c0 3.121 2.566 5.687 5.687 5.687z" fill="#f9f7f7" fill-rule="evenodd"/></g><g><path clip-rule="evenodd" d="m427.833 449.411v21.466.204c0 3.121-2.537 5.687-5.658 5.687h14.728 9.128c3.12 0 5.687-2.567 5.687-5.687v-22.312c0-3.121-2.566-5.687-5.687-5.687h-3.646-20.21c3.12 0 5.658 2.567 5.658 5.687v.146z" fill="#e2e2e2" fill-rule="evenodd"/></g><g><path d="m333.282 408.205v55.931h-15.456v-55.931c0-4.275 3.462-7.727 7.728-7.727s7.728 3.452 7.728 7.727z" fill="#e2e2e2"/></g></g></svg>