<svg id="Capa_1" enable-background="new 0 0 512 512" height="512" viewBox="0 0 512 512" width="512" xmlns="http://www.w3.org/2000/svg"><g><g><path d="m216.482 376.576c-4.268 0-7.73-3.454-7.734-7.719l-.176-165.942c-.005-4.267 3.455-7.73 7.726-7.735h.008c4.268 0 7.73 3.454 7.734 7.719l.176 165.942c.005 4.267-3.455 7.731-7.726 7.735-.002 0-.005 0-.008 0z" fill="#838383"/></g><g><path clip-rule="evenodd" d="m237.026 394.066v8.415 40.47c0 35.941-25.249 64.577-61.924 64.577-36.704 0-61.953-28.636-61.953-64.577v-9.555-13.529-3.273c0-9.263 7.569-16.831 16.803-16.831h7.627c9.235 0 16.803 7.568 16.803 16.831v3.273 13.529 9.555c0 13.003 6.838 23.318 20.719 23.318 13.852 0 20.69-10.315 20.69-23.318v-40.47-8.415-8.415c0-9.234 7.569-16.802 16.833-16.802h7.598c9.264 0 16.803 7.568 16.803 16.802v8.415z" fill="#97da7b" fill-rule="evenodd"/></g><g><path clip-rule="evenodd" d="m123.172 479.332c10.637 17.065 29.048 28.198 51.93 28.198 36.675 0 61.924-28.636 61.924-64.577v-40.47-8.415-8.415c0-9.234-7.54-16.802-16.803-16.802h-.321v7.334 8.415 40.441c0 35.97-25.249 64.577-61.953 64.577-13.327-.001-25.133-3.77-34.777-10.286z" fill="#68ca44" fill-rule="evenodd"/></g><g><path clip-rule="evenodd" d="m386.649 244.224-92.492 22.996c-6.517 1.695-12.069 2.016-13.063 7.889-22.59 132.31 35.419 189.173 105.321 234.903 3.974 2.63 2.776 2.659 6.78.029 69.902-45.73 127.939-102.593 105.35-234.932-.994-5.873-6.546-6.195-13.092-7.889l-92.404-22.996c-3.595-.876-2.718-.935-6.4 0z" fill="#62dbfb" fill-rule="evenodd"/></g><g><path clip-rule="evenodd" d="m451.203 360.872c-2.601 9.497-5.874 18.38-9.702 26.707-19.463 42.37-53.771 70.859-91.761 95.901 11.543 9.467 23.905 18.204 36.646 26.532 4.004 2.63 2.805 2.659 6.809.029 69.902-45.73 127.939-102.593 105.35-234.932-.994-5.873-6.546-6.195-13.092-7.889l-30.509-7.597c5.815 40.383 3.857 73.46-3.741 101.249z" fill="#00c0fa" fill-rule="evenodd"/></g><g><path clip-rule="evenodd" d="m204.705 199.926c-4.53-49.324-81.416-45.233-87.378 0-1.286 6.808-6.663 10.665-12.069 10.841-5.319.175-10.666-3.214-12.215-10.841-16.131-52.831-70.077-35.123-74.578 0-1.081 8.24-9.965 6.282-9.965 0 0-111.213 95.706-199.926 207.894-199.926s207.894 88.713 207.894 199.926c0 6.282-8.913 8.24-9.965 0-4.5-35.123-58.447-52.831-74.607 0-1.52 7.627-6.867 11.016-12.186 10.841-5.406-.175-10.783-4.032-12.069-10.841-5.962-45.233-82.877-49.324-87.407 0-.643 6.925-6.078 10.841-11.572 10.841h-.088-.088c-5.523 0-10.958-3.916-11.601-10.841z" fill="#62dbfb" fill-rule="evenodd"/></g><g><path clip-rule="evenodd" d="m214.378 0c-25.103 2.367-111.282 62.824-110.522 210.738.468.029.935.058 1.403.029 5.406-.175 10.783-4.032 12.069-10.841 5.962-45.233 82.848-49.324 87.378 0 .643 6.925 6.078 10.841 11.602 10.841v-7.597-203.17c-.644 0-1.287 0-1.93 0z" fill="#97da7b" fill-rule="evenodd"/></g><g><path clip-rule="evenodd" d="m216.394 0c24.226 1.403 111.896 61.597 111.136 210.767 5.319.175 10.667-3.214 12.186-10.841 16.16-52.831 70.107-35.123 74.607 0 1.052 8.24 9.965 6.282 9.965 0 .001-111.213-95.706-199.926-207.894-199.926z" fill="#97da7b" fill-rule="evenodd"/></g><g><path clip-rule="evenodd" d="m247.488 2.279c64.174 31.441 110.288 94.119 114.292 167.871 21.742-11.016 49.358 5.055 52.543 29.776 1.052 8.24 9.965 6.282 9.965 0 .001-100.781-78.581-183.066-176.8-197.647z" fill="#68ca44" fill-rule="evenodd"/></g><g><path clip-rule="evenodd" d="m451.203 379.281v-26.766c0-4.558-3.741-8.299-8.329-8.299h-31.357v-31.383c0-4.558-3.741-8.299-8.329-8.299h-26.738c-4.588 0-8.329 3.74-8.329 8.299v31.383h-31.357c-4.588 0-8.329 3.74-8.329 8.299v26.766c0 4.558 3.741 8.299 8.329 8.299h31.357v31.383c0 4.558 3.741 8.299 8.329 8.299h26.739c4.588 0 8.329-3.74 8.329-8.299v-31.383h31.357c4.588-.001 8.328-3.741 8.328-8.299z" fill="#fe636e" fill-rule="evenodd"/></g><g><path clip-rule="evenodd" d="m396.526 348.57c0 30.565-7.832 58.324-20.544 78.691h.468 26.739c4.588 0 8.329-3.74 8.329-8.299v-31.383h29.983 1.374c4.588 0 8.329-3.74 8.329-8.299v-18.409-8.357c0-4.558-3.741-8.299-8.329-8.299h-31.357v-31.383c0-4.558-3.741-8.299-8.329-8.299h-12.391c3.683 13.531 5.728 28.404 5.728 44.037z" fill="#fb2a39" fill-rule="evenodd"/></g></g></svg>