<svg id="Capa_1" enable-background="new 0 0 512 512" height="512" viewBox="0 0 512 512" width="512" xmlns="http://www.w3.org/2000/svg"><g><g><path d="m463.169 235.424c-.733 0-1.478-.106-2.217-.326-4.087-1.222-6.411-5.528-5.188-9.616l31.394-104.994-25.703-7.667c-4.089-1.22-6.415-5.524-5.195-9.613s5.526-6.411 9.611-5.196l33.112 9.877c1.965.587 3.615 1.93 4.589 3.733.974 1.804 1.191 3.921.604 5.884l-33.609 112.401c-1.001 3.352-4.073 5.517-7.398 5.517z" fill="#595959"/></g><g><path clip-rule="evenodd" d="m7.5 48.485v456.589c0 3.799 3.101 6.926 6.903 6.926h110.158 235.76 46.801c3.803 0 6.932-3.127 6.932-6.926 0-237.281 0-160.623 0-419.122l-.029-4.296c0-.614-.088-1.081-.293-1.52h-56.044c-15.269 0-27.788-12.508-27.788-27.793l.059-51.992c-.556-.263-1.083-.351-1.814-.351h-5.177-308.565c-3.802 0-6.903 3.098-6.903 6.897z" fill="#f9f7f7" fill-rule="evenodd"/></g><g><path clip-rule="evenodd" d="m253.497 0c53.119 54.681 87.693 143.847 87.693 244.558 0 21.831-1.638 43.107-4.709 63.594-.995 6.576-2.135 13.093-3.422 19.493-1.55 7.745-3.305 15.343-5.265 22.796-18.369 69.879-54.377 127.453-100.271 161.559h132.798 46.801c3.803 0 6.932-3.127 6.932-6.926v-77.418-102.523-239.181l-.029-4.296c0-.614-.088-1.081-.293-1.52l-83.774-79.785c-.555-.263-1.082-.351-1.813-.351h-5.177z" fill="#e2e2e2" fill-rule="evenodd"/></g><g><path clip-rule="evenodd" d="m329.958.351-.058 51.992c0 15.285 12.519 27.793 27.788 27.793h56.044c-.468-.935-1.521-1.754-3.627-3.77l-75.7-72.128c-2.341-2.251-3.394-3.361-4.447-3.887z" fill="#cecece" fill-rule="evenodd"/></g><g><path d="m272.225 463.619c-7.27 0-13.166-4.861-18.005-9.678-2.177-2.161-3.225-2.351-3.236-2.352-.749.14-2.935 2.042-4.24 3.178-5.346 4.653-16.469 14.333-32.282-.169-3.144-2.884-3.356-7.772-.473-10.917 2.883-3.147 7.769-3.358 10.915-.474 2.699 2.476 5.073 3.803 6.375 3.582 1.378-.248 3.473-2.071 5.322-3.681 4.953-4.308 15.258-13.278 28.508-.13 5.064 5.039 6.86 5.211 7.172 5.185.39-.023 1.602-.672 3.398-2.957 2.431-3.085 4.175-6.183 5.86-9.179 3.25-5.775 6.61-11.746 13.755-13.125 8.505-1.598 12.948 5.647 16.191 10.938 4.656 7.596 7.933 12.199 16.267 11.271 4.237-.491 8.062 2.578 8.537 6.819.474 4.24-2.579 8.063-6.819 8.537-18.515 2.07-26.739-11.344-31.157-18.549-.368-.601-.786-1.283-1.2-1.933-.702 1.12-1.468 2.482-2.109 3.621-1.79 3.181-4.018 7.14-7.185 11.16-4.347 5.527-9.261 8.498-14.602 8.822-.332.021-.663.031-.992.031z" fill="#595959"/></g><g><path clip-rule="evenodd" d="m424.321 59.181 15.286 20.955 24.758-9.001 10.238-34.223c3.276-11.018-3.042-22.708-14.04-25.981-11.027-3.302-22.728 3.01-26.004 14.028z" fill="#838383" fill-rule="evenodd"/></g><g><path clip-rule="evenodd" d="m323.874 415.556 4.007 35.392c.41 2.309.38 2.426 2.048.614l22.757-27.413 24.512-29.518-23.02-27.94-34.574 10.755z" fill="#838383" fill-rule="evenodd"/></g><g><path clip-rule="evenodd" d="m412.913 65.319-93.309 312.127 28.783 8.592 28.812 8.592 86.465-289.215 6.845-22.883c1.463-4.822-1.316-9.966-6.143-11.398l-40.044-11.953c-4.828-1.432-9.976 1.316-11.409 6.138z" fill="#fe9737" fill-rule="evenodd"/></g><g><path clip-rule="evenodd" d="m454.566 30.92-10.238 34.223 20.037 5.991 10.238-34.223c3.276-11.018-3.042-22.708-14.04-25.981-3.656-1.081-7.371-1.14-10.823-.292 4.943 5.261 7.02 12.918 4.826 20.282z" fill="#595959" fill-rule="evenodd"/></g><g><path clip-rule="evenodd" d="m443.655 99.454-82.457 275.771-4.007 13.444 20.007 5.962 86.465-289.215 6.845-22.883c1.463-4.822-1.316-9.966-6.143-11.398l-20.037-5.991c4.826 1.461 7.605 6.576 6.172 11.398z" fill="#f36b37" fill-rule="evenodd"/></g><g><path clip-rule="evenodd" d="m357.191 388.669-24.512 29.518-7.488 9.001 2.691 23.76c.41 2.309.38 2.426 2.048.614l22.757-27.413 24.512-29.518z" fill="#595959" fill-rule="evenodd"/></g><g><path d="m315.041 208.563h-209.757c-4.267 0-7.725-3.459-7.725-7.726s3.459-7.726 7.725-7.726h209.756c4.267 0 7.725 3.459 7.725 7.726s-3.458 7.726-7.724 7.726z" fill="#595959"/></g><g><path d="m302.258 268.622h-196.974c-4.267 0-7.725-3.459-7.725-7.726 0-4.268 3.459-7.726 7.725-7.726h196.974c4.267 0 7.725 3.459 7.725 7.726.001 4.267-3.458 7.726-7.725 7.726z" fill="#595959"/></g><g><path d="m287.019 328.68h-181.735c-4.267 0-7.725-3.459-7.725-7.726 0-4.268 3.459-7.726 7.725-7.726h181.734c4.267 0 7.725 3.459 7.725 7.726.001 4.267-3.458 7.726-7.724 7.726z" fill="#595959"/></g><g><path d="m229.746 388.738h-124.462c-4.267 0-7.725-3.459-7.725-7.726 0-4.268 3.459-7.726 7.725-7.726h124.461c4.267 0 7.725 3.459 7.725 7.726.001 4.268-3.458 7.726-7.724 7.726z" fill="#595959"/></g><g><path clip-rule="evenodd" d="m290.47 99.776h-170.004c-2.896 0-5.265 2.367-5.265 5.261v31.154c0 2.893 2.369 5.261 5.265 5.261h170.004c2.896 0 5.265-2.367 5.265-5.261v-31.154c0-2.894-2.369-5.261-5.265-5.261z" fill="#97da7b" fill-rule="evenodd"/></g><g><path clip-rule="evenodd" d="m290.47 99.776h-48.263c2.896 0 5.265 2.367 5.265 5.261v31.154c0 2.893-2.369 5.261-5.265 5.261h48.263c2.896 0 5.265-2.367 5.265-5.261v-31.154c0-2.894-2.369-5.261-5.265-5.261z" fill="#68ca44" fill-rule="evenodd"/></g></g></svg>