<svg id="Capa_1" enable-background="new 0 0 512 512" height="512" viewBox="0 0 512 512" width="512" xmlns="http://www.w3.org/2000/svg"><g><g><path clip-rule="evenodd" d="m161.899 216.65c41.789-47.456 114.095-52.044 161.52-10.257s52.039 114.17 10.25 161.626c-41.76 47.456-114.095 52.044-161.52 10.257s-52.009-114.169-10.25-161.626z" fill="#fe9737" fill-rule="evenodd"/></g><g><path clip-rule="evenodd" d="m323.419 206.394c-27.918-24.605-64.509-33.138-98.355-26.3-4.526.906-9.024 2.104-13.404 3.565 18.222 4.033 35.715 12.624 50.725 25.861 47.425 41.787 52.01 114.141 10.25 161.626-13.9 15.78-31.159 26.796-49.761 32.991 3.358.731 6.717 1.315 10.104 1.753 9.812 1.286 19.741 1.286 29.524 0 26.574-3.419 52.068-16.16 71.167-37.872 41.789-47.455 37.175-119.837-10.25-161.624z" fill="#f36b37" fill-rule="evenodd"/></g><path d="m257.422 284.606h-19.128c-5.385 0-9.766-4.385-9.766-9.775 0-5.389 4.381-9.775 9.766-9.775h36.474c4.268 0 7.726-3.46 7.726-7.729s-3.459-7.729-7.726-7.729h-19.257v-13.077c0-4.269-3.459-7.729-7.726-7.729s-7.726 3.46-7.726 7.729v13.077h-1.764c-13.906 0-25.219 11.319-25.219 25.233s11.313 25.233 25.219 25.233h19.128c5.214 0 9.62 4.476 9.62 9.774 0 5.389-4.381 9.775-9.766 9.775h-36.474c-4.267 0-7.726 3.46-7.726 7.729s3.459 7.729 7.726 7.729h36.474c13.905 0 25.218-11.319 25.218-25.233-.001-13.913-11.249-25.232-25.073-25.232z" fill="#f9f7f7"/><g><path clip-rule="evenodd" d="m72.539 331.521-36.27 56.953 36.27 55.814 70.028 12.156 95.639 16.598c9.578 2.192 26.341 3.682 45.293-1.987l173.989-52.044c30.4-9.088 21.493-52.629-12.995-44.008l-17.872 4.179-93.04 21.741c-5.928 1.403-11.418 1.695-16.821 1.461-7.768-.351-15.419-1.724-24.121-2.396l-62.114-10.403c-24.822-5.874-17.726-36.381 3.68-34.803h19.77c44.125 0 43.22-53.418 4.351-59.788h-25.698c-9.199 0-17.522.263-25.961.993-18.573 1.666-37.671 5.728-67.604 14.991l-42.256 13.033z" fill="#ffe5c1" fill-rule="evenodd"/></g><g><path clip-rule="evenodd" d="m0 330.294v116.361.058c.029 6.896 5.665 12.507 12.557 12.507h47.396c6.921 0 12.586-5.669 12.586-12.565v-2.367-112.767-1.227c0-6.926-5.665-12.595-12.586-12.595h-47.396c-6.892 0-12.528 5.64-12.557 12.507z" fill="#fe636e" fill-rule="evenodd"/></g><g><path clip-rule="evenodd" d="m72.539 407.177v37.112l70.028 12.156 95.639 16.598c9.578 2.192 26.341 3.682 45.293-1.987l173.989-52.044c19.507-5.844 22.836-25.861 13.579-37.199-3.066 3.799-7.534 6.838-13.579 8.533l-30.867 8.562-99.785 32.027-49.382 13.676c-18.982 5.26-31.685-.643-41.263-3.039-55.222-10.784-108.429-23.612-163.652-34.395z" fill="#fed1a3" fill-rule="evenodd"/></g><g><path clip-rule="evenodd" d="m72.539 444.289v-37.112c0 6.896-5.665 12.565-12.586 12.565h-3.358-44.038c-6.892 0-12.528-5.611-12.557-12.507v39.42.058c.029 6.896 5.665 12.507 12.557 12.507h47.396c6.921 0 12.586-5.669 12.586-12.565z" fill="#fb2a39" fill-rule="evenodd"/></g><g><path clip-rule="evenodd" d="m311.68 75.83c41.76-47.456 114.066-52.044 161.52-10.257 47.425 41.816 52.01 114.17 10.25 161.626-41.789 47.485-114.095 52.073-161.52 10.257-47.454-41.787-52.039-114.14-10.25-161.626z" fill="#fe9737" fill-rule="evenodd"/></g><g><path clip-rule="evenodd" d="m473.2 65.573c-27.947-24.605-64.509-33.138-98.384-26.3-4.526.935-8.994 2.104-13.404 3.565 18.252 4.062 35.744 12.624 50.725 25.861 47.454 41.787 52.039 114.17 10.25 161.626-13.871 15.78-31.13 26.826-49.732 32.991 3.329.76 6.717 1.344 10.104 1.783 9.812 1.257 19.741 1.257 29.524 0 26.574-3.448 52.068-16.189 71.167-37.901 41.759-47.455 37.175-119.808-10.25-161.625z" fill="#f36b37" fill-rule="evenodd"/></g><path d="m407.172 143.785h-19.099c-5.384 0-9.766-4.385-9.766-9.775 0-5.389 4.381-9.774 9.766-9.774h36.475c4.268 0 7.726-3.46 7.726-7.729s-3.459-7.729-7.726-7.729h-19.258v-13.047c0-4.269-3.459-7.729-7.726-7.729s-7.726 3.46-7.726 7.729v13.047h-1.765c-13.905 0-25.218 11.319-25.218 25.232 0 13.914 11.313 25.233 25.218 25.233h19.099c5.23 0 9.65 4.477 9.65 9.775 0 5.406-4.381 9.804-9.767 9.804h-36.474c-4.268 0-7.726 3.46-7.726 7.729s3.459 7.729 7.726 7.729h19.227v13.047c0 4.269 3.459 7.729 7.726 7.729s7.726-3.46 7.726-7.729v-13.047h1.794c13.906 0 25.219-11.332 25.219-25.263.002-13.913-11.259-25.232-25.101-25.232z" fill="#f9f7f7"/></g></svg>