<svg id="Capa_1" enable-background="new 0 0 512 512" height="512" viewBox="0 0 512 512" width="512" xmlns="http://www.w3.org/2000/svg"><g><g><path clip-rule="evenodd" d="m0 128.097 258.468-35.863 253.532 35.863v369.153c0 6.459-5.286 11.75-11.739 11.75h-488.551c-6.454 0-11.71-5.29-11.71-11.75z" fill="#f9f7f7" fill-rule="evenodd"/></g><g><path clip-rule="evenodd" d="m0 128.097h512v-92.917c0-6.372-5.227-11.604-11.622-11.604h-488.785c-6.395.001-11.593 5.233-11.593 11.604z" fill="#fe9737" fill-rule="evenodd"/></g><g><path clip-rule="evenodd" d="m512 128.097v-92.917c0-6.372-5.227-11.604-11.622-11.604h-29.757c6.366 0 11.593 5.232 11.593 11.604v87.334 5.583z" fill="#f36b37" fill-rule="evenodd"/></g><g><path clip-rule="evenodd" d="m123.934 232.88v-54.072c0-2.017-1.635-3.654-3.679-3.654h-53.995c-2.015 0-3.679 1.637-3.679 3.654v54.072c0 2.017 1.665 3.654 3.679 3.654h53.995c2.043 0 3.679-1.637 3.679-3.654z" fill="#fe636e" fill-rule="evenodd"/></g><g><path clip-rule="evenodd" d="m234.493 232.88v-54.072c0-2.017-1.635-3.654-3.679-3.654h-53.995c-2.015 0-3.679 1.637-3.679 3.654v54.072c0 2.017 1.665 3.654 3.679 3.654h53.995c2.043 0 3.679-1.637 3.679-3.654z" fill="#62dbfb" fill-rule="evenodd"/></g><g><path clip-rule="evenodd" d="m345.052 178.808c0-2.017-1.635-3.654-3.679-3.654h-53.995c-2.015 0-3.679 1.637-3.679 3.654v54.072c0 2.017 1.665 3.654 3.679 3.654h53.995c2.044 0 3.679-1.637 3.679-3.654z" fill="#62dbfb" fill-rule="evenodd"/></g><g><path clip-rule="evenodd" d="m455.611 232.88v-54.072c0-2.017-1.635-3.654-3.679-3.654h-53.995c-2.015 0-3.679 1.637-3.679 3.654v54.072c0 2.017 1.665 3.654 3.679 3.654h53.995c2.043 0 3.679-1.637 3.679-3.654z" fill="#62dbfb" fill-rule="evenodd"/></g><g><path clip-rule="evenodd" d="m455.611 343.013v-40.627-13.446c0-2.017-1.635-3.654-3.679-3.654h-53.995c-2.015 0-3.679 1.637-3.679 3.654v54.072c0 2.017 1.665 3.683 3.679 3.683h53.995c2.043 0 3.679-1.666 3.679-3.682z" fill="#97da7b" fill-rule="evenodd"/></g><g><path clip-rule="evenodd" d="m345.052 288.94c0-2.017-1.635-3.654-3.679-3.654h-53.995c-2.015 0-3.679 1.637-3.679 3.654v54.072c0 2.017 1.665 3.683 3.679 3.683h53.995c2.044 0 3.679-1.666 3.679-3.683z" fill="#62dbfb" fill-rule="evenodd"/></g><g><path clip-rule="evenodd" d="m234.493 343.013v-54.073c0-2.017-1.635-3.654-3.679-3.654h-53.995c-2.015 0-3.679 1.637-3.679 3.654v54.072c0 2.017 1.665 3.683 3.679 3.683h53.995c2.043 0 3.679-1.666 3.679-3.682z" fill="#62dbfb" fill-rule="evenodd"/></g><g><path clip-rule="evenodd" d="m123.934 343.013v-54.073c0-2.017-1.635-3.654-3.679-3.654h-53.995c-2.015 0-3.679 1.637-3.679 3.654v54.072c0 2.017 1.665 3.683 3.679 3.683h53.995c2.043 0 3.679-1.666 3.679-3.682z" fill="#fe636e" fill-rule="evenodd"/></g><g><path clip-rule="evenodd" d="m123.934 453.145v-54.043c0-2.046-1.635-3.683-3.679-3.683h-53.995c-2.015 0-3.679 1.637-3.679 3.683v54.043c0 2.017 1.665 3.683 3.679 3.683h53.995c2.043 0 3.679-1.666 3.679-3.683z" fill="#fe636e" fill-rule="evenodd"/></g><g><path clip-rule="evenodd" d="m234.493 453.145v-54.043c0-2.046-1.635-3.683-3.679-3.683h-53.995c-2.015 0-3.679 1.637-3.679 3.683v54.043c0 2.017 1.665 3.683 3.679 3.683h53.995c2.043 0 3.679-1.666 3.679-3.683z" fill="#62dbfb" fill-rule="evenodd"/></g><g><path clip-rule="evenodd" d="m341.372 395.419h-53.995c-2.015 0-3.679 1.637-3.679 3.683v54.043c0 2.017 1.665 3.683 3.679 3.683h53.995c2.044 0 3.679-1.666 3.679-3.683v-54.043c.001-2.046-1.635-3.683-3.679-3.683z" fill="#62dbfb" fill-rule="evenodd"/></g><g><path clip-rule="evenodd" d="m451.931 395.419h-53.995c-2.015 0-3.679 1.637-3.679 3.683v54.043c0 2.017 1.665 3.683 3.679 3.683h53.995c2.044 0 3.679-1.666 3.679-3.683v-54.043c.001-2.046-1.635-3.683-3.679-3.683z" fill="#62dbfb" fill-rule="evenodd"/></g><g><path clip-rule="evenodd" d="m123.934 232.88v-54.072c0-2.017-1.635-3.654-3.679-3.654h-22.253c2.015 0 3.679 1.637 3.679 3.654v54.072c0 2.017-1.665 3.654-3.679 3.654h22.252c2.044 0 3.68-1.637 3.68-3.654z" fill="#fb2a39" fill-rule="evenodd"/></g><g><path clip-rule="evenodd" d="m123.934 343.013v-54.073c0-2.017-1.635-3.654-3.679-3.654h-22.253c2.015 0 3.679 1.637 3.679 3.654v54.072c0 2.017-1.665 3.683-3.679 3.683h22.252c2.044 0 3.68-1.666 3.68-3.682z" fill="#fb2a39" fill-rule="evenodd"/></g><g><path clip-rule="evenodd" d="m234.493 343.013v-54.073c0-2.017-1.635-3.654-3.679-3.654h-22.252c2.044 0 3.679 1.637 3.679 3.654v54.072c0 2.017-1.635 3.683-3.679 3.683h22.252c2.043 0 3.679-1.666 3.679-3.682z" fill="#00c0fa" fill-rule="evenodd"/></g><g><path clip-rule="evenodd" d="m234.493 232.88v-54.072c0-2.017-1.635-3.654-3.679-3.654h-22.252c2.044 0 3.679 1.637 3.679 3.654v54.072c0 2.017-1.635 3.654-3.679 3.654h22.252c2.043 0 3.679-1.637 3.679-3.654z" fill="#00c0fa" fill-rule="evenodd"/></g><g><path clip-rule="evenodd" d="m345.052 232.88v-54.072c0-2.017-1.635-3.654-3.679-3.654h-22.253c2.044 0 3.679 1.637 3.679 3.654v54.072c0 2.017-1.635 3.654-3.679 3.654h22.252c2.044 0 3.68-1.637 3.68-3.654z" fill="#00c0fa" fill-rule="evenodd"/></g><g><path clip-rule="evenodd" d="m345.052 343.013v-54.073c0-2.017-1.635-3.654-3.679-3.654h-22.253c2.044 0 3.679 1.637 3.679 3.654v54.072c0 2.017-1.635 3.683-3.679 3.683h22.252c2.044 0 3.68-1.666 3.68-3.682z" fill="#00c0fa" fill-rule="evenodd"/></g><g><path clip-rule="evenodd" d="m345.052 453.145v-54.043c0-2.046-1.635-3.683-3.679-3.683h-22.253c2.044 0 3.679 1.637 3.679 3.683v54.043c0 2.017-1.635 3.683-3.679 3.683h22.252c2.044 0 3.68-1.666 3.68-3.683z" fill="#00c0fa" fill-rule="evenodd"/></g><g><path clip-rule="evenodd" d="m234.493 453.145v-54.043c0-2.046-1.635-3.683-3.679-3.683h-22.252c2.044 0 3.679 1.637 3.679 3.683v54.043c0 2.017-1.635 3.683-3.679 3.683h22.252c2.043 0 3.679-1.666 3.679-3.683z" fill="#00c0fa" fill-rule="evenodd"/></g><g><path clip-rule="evenodd" d="m123.934 453.145v-54.043c0-2.046-1.635-3.683-3.679-3.683h-22.253c2.015 0 3.679 1.637 3.679 3.683v54.043c0 2.017-1.665 3.683-3.679 3.683h22.252c2.044 0 3.68-1.666 3.68-3.683z" fill="#fb2a39" fill-rule="evenodd"/></g><g><path clip-rule="evenodd" d="m455.611 399.102c0-2.046-1.635-3.683-3.679-3.683h-22.252c2.044 0 3.679 1.637 3.679 3.683v54.043c0 2.017-1.635 3.683-3.679 3.683h22.252c2.044 0 3.679-1.666 3.679-3.683z" fill="#00c0fa" fill-rule="evenodd"/></g><g><path clip-rule="evenodd" d="m455.611 302.385v-13.445c0-2.017-1.635-3.654-3.679-3.654h-22.252c2.044 0 3.679 1.637 3.679 3.654v13.445 17.946 22.681c0 2.017-1.635 3.683-3.679 3.683h22.252c2.044 0 3.679-1.666 3.679-3.683z" fill="#68ca44" fill-rule="evenodd"/></g><g><path clip-rule="evenodd" d="m455.611 232.88v-54.072c0-2.017-1.635-3.654-3.679-3.654h-22.252c2.044 0 3.679 1.637 3.679 3.654v54.072c0 2.017-1.635 3.654-3.679 3.654h22.252c2.043 0 3.679-1.637 3.679-3.654z" fill="#00c0fa" fill-rule="evenodd"/></g><g><path clip-rule="evenodd" d="m512 497.25v-369.153h-29.786v160.639 208.514c0 6.459-5.256 11.75-11.71 11.75h29.757c6.453 0 11.739-5.29 11.739-11.75z" fill="#e2e2e2" fill-rule="evenodd"/></g><g><path d="m430.178 330.632c-1.998 0-3.988-.772-5.491-2.29l-9.987-10.082c-3.003-3.032-2.981-7.925.051-10.93 3.029-3.003 7.922-2.983 10.927.051l5.078 5.128 44.301-35.723c3.323-2.681 8.188-2.156 10.864 1.166 2.678 3.323 2.156 8.189-1.166 10.868l-49.73 40.101c-1.422 1.147-3.138 1.711-4.847 1.711z" fill="#595959"/></g><g><path clip-rule="evenodd" d="m183.739 23.577v-12.305c0-4.56-3.709-8.272-8.264-8.272h-80.072c-4.556 0-8.293 3.712-8.293 8.272v12.305 34.606c0 4.56 3.738 8.301 8.293 8.301h80.072c4.556 0 8.264-3.741 8.264-8.301z" fill="#f9f7f7" fill-rule="evenodd"/></g><g><path clip-rule="evenodd" d="m424.89 11.272c0-4.56-3.738-8.272-8.293-8.272h-80.072c-4.556 0-8.293 3.712-8.293 8.272v12.305 34.606c0 4.56 3.738 8.301 8.293 8.301h80.072c4.555 0 8.293-3.741 8.293-8.301v-34.606z" fill="#f9f7f7" fill-rule="evenodd"/></g><g><path clip-rule="evenodd" d="m183.739 23.577v-12.305c0-4.56-3.709-8.272-8.264-8.272h-40.036c4.556 0 8.264 3.712 8.264 8.272v12.305 34.606c0 4.56-3.709 8.301-8.264 8.301h40.036c4.556 0 8.264-3.741 8.264-8.301z" fill="#e2e2e2" fill-rule="evenodd"/></g><g><path clip-rule="evenodd" d="m424.89 58.183v-34.606-12.305c0-4.56-3.738-8.272-8.293-8.272h-40.036c4.556 0 8.264 3.712 8.264 8.272v12.305 34.606c0 4.56-3.709 8.301-8.264 8.301h40.036c4.555 0 8.293-3.741 8.293-8.301z" fill="#e2e2e2" fill-rule="evenodd"/></g></g></svg>