<svg id="Capa_1" enable-background="new 0 0 523 523" height="512" viewBox="0 0 523 523" width="512" xmlns="http://www.w3.org/2000/svg"><g><g><path clip-rule="evenodd" d="m261.507 523c83.582 0 151.751-15.304 151.751-34.069s-68.168-34.069-151.751-34.069-151.751 15.304-151.751 34.069 68.169 34.069 151.751 34.069z" fill="#fe9737" fill-rule="evenodd"/></g><g><path clip-rule="evenodd" d="m413.258 488.931c0-15.215-44.42-28.103-105.688-32.458l-3.316 3.729c27.781 6.175 44.958 14.737 44.958 24.194 0 18.825-67.929 34.069-151.751 34.069-4.212 0-8.364-.03-12.487-.119 22.464 2.953 48.602 4.654 76.533 4.654 83.792 0 151.751-15.245 151.751-34.069z" fill="#f36b37" fill-rule="evenodd"/></g><g><path clip-rule="evenodd" d="m229.305 472.224-41.343-46.957c-37.131-48.478-78.713-95.435-99.594-153.371-49.707-137.887 24.615-271.896 173.139-271.896 148.495 0 222.817 134.009 173.139 271.897-20.881 57.935-62.493 104.892-99.624 153.371l-41.343 46.957c-19.625 22.285-44.748 22.285-64.374-.001z" fill="#97da7b" fill-rule="evenodd"/></g><g><path clip-rule="evenodd" d="m434.647 271.897c49.677-137.888-24.645-271.897-173.14-271.897-18.103 0-35.07 1.969-50.872 5.728 130.541 15.066 193.064 141.02 146.433 270.375-20.881 57.965-62.463 104.892-99.594 153.401l-22.822 25.895-10.067 11.456 4.72 5.37c19.626 22.285 44.749 22.285 64.375 0l10.575-12.023 3.316-3.729 27.453-31.205c37.13-48.479 78.742-95.436 99.623-153.371z" fill="#68ca44" fill-rule="evenodd"/></g><g><path clip-rule="evenodd" d="m160.39 89.648c55.831-54.743 146.374-54.743 202.205 0s55.831 143.496 0 198.239c-55.831 54.713-146.374 54.713-202.205 0-55.831-54.743-55.831-143.496 0-198.239z" fill="#f9f7f7" fill-rule="evenodd"/></g><g><path clip-rule="evenodd" d="m362.595 287.887c55.831-54.743 55.831-143.496 0-198.239-10.784-10.561-22.852-19.093-35.727-25.597-27.482-13.842-58.549-18.377-88.392-13.634 28.558 4.535 56.01 17.631 78.056 39.23 55.831 54.743 55.831 143.496 0 198.239-22.046 21.599-49.498 34.666-78.056 39.23 37.131 5.907 76.204-2.595 107.839-25.477 5.675-4.116 11.112-8.71 16.28-13.752z" fill="#e2e2e2" fill-rule="evenodd"/></g><g fill="#595959"><path d="m194.743 141.421h-21.12c-4.362 0-7.898 3.533-7.898 7.892s3.536 7.892 7.898 7.892h13.222v41.66c0 .752-.165 7.353-5.86 7.353l-17.505-.03c-.005 0-.009 0-.013 0-4.355 0-7.891 3.525-7.898 7.879-.007 4.358 3.522 7.899 7.885 7.906l17.519.03c12.353 0 21.669-9.947 21.669-23.138v-49.552c-.001-4.359-3.536-7.892-7.899-7.892z"/><path d="m258.819 141.421h-3.734c-15.72 0-28.509 12.761-28.509 28.447v23.658c0 15.702 12.789 28.477 28.509 28.477h3.734c15.705 0 28.48-12.775 28.48-28.477v-23.658c0-15.686-12.776-28.447-28.48-28.447zm12.684 52.105c0 6.998-5.69 12.693-12.684 12.693h-3.734c-7.01 0-12.713-5.694-12.713-12.693v-23.658c0-6.982 5.704-12.663 12.713-12.663h3.734c6.994 0 12.684 5.681 12.684 12.663z"/><path d="m359.155 177.191c1.592-3.104 2.497-6.615 2.497-10.335v-2.685c0-12.544-10.217-22.749-22.775-22.749h-18.58c-6.069 0-11.005 4.933-11.005 10.995v29.296 29.295c0 6.063 4.936 10.996 11.005 10.996h26.944c12.558 0 22.775-10.206 22.775-22.749v-2.685c-.001-8.184-4.351-15.371-10.861-19.379zm-34.067-19.985h13.789c3.848 0 6.979 3.124 6.979 6.964v2.685c0 3.84-3.13 6.964-6.979 6.964h-13.789zm29.131 42.048c0 3.84-3.13 6.964-6.979 6.964h-22.153v-16.614h13.789 8.364c3.848 0 6.979 3.124 6.979 6.964z"/></g></g></svg>