<svg id="Capa_1" enable-background="new 0 0 512 512" height="512" viewBox="0 0 512 512" width="512" xmlns="http://www.w3.org/2000/svg"><g><g><path clip-rule="evenodd" d="m56 502.1v-492.23c0-5.431 4.442-9.87 9.879-9.87h380.213c5.436 0 9.908 4.439 9.908 9.87v492.23c0 5.432-4.472 9.9-9.908 9.9h-380.213c-5.437 0-9.879-4.468-9.879-9.9z" fill="#cecece" fill-rule="evenodd"/></g><g><path clip-rule="evenodd" d="m446.092 0h-380.213c-5.437 0-9.879 4.439-9.879 9.87v16.996 43.248c0 23.8 19.465 43.277 43.285 43.277h313.401c23.82 0 43.314-19.478 43.314-43.277v-43.248-16.996c0-5.431-4.472-9.87-9.908-9.87z" fill="#f9f7f7" fill-rule="evenodd"/></g><g><path clip-rule="evenodd" d="m396.085 26.866v43.248c0 23.8-19.465 43.277-43.285 43.277h59.886c23.82 0 43.314-19.478 43.314-43.277v-43.248-16.996c0-5.432-4.472-9.87-9.908-9.87h-59.886c5.436 0 9.879 4.439 9.879 9.87z" fill="#e2e2e2" fill-rule="evenodd"/></g><g><path d="m197.02 406.656h-88.499c-4.27 0-7.732-3.459-7.732-7.726s3.462-7.726 7.732-7.726h88.499c4.27 0 7.732 3.459 7.732 7.726s-3.462 7.726-7.732 7.726z" fill="#595959"/></g><g><path d="m197.02 452.853h-88.499c-4.27 0-7.732-3.459-7.732-7.726s3.462-7.726 7.732-7.726h88.499c4.27 0 7.732 3.459 7.732 7.726s-3.462 7.726-7.732 7.726z" fill="#595959"/></g><g><path clip-rule="evenodd" d="m352.8 113.392h-253.515c-23.82 0-43.285-19.478-43.285-43.278v37.729c0 23.8 19.465 43.248 43.285 43.248h253.515c28.613-1.431 43.753 4.614 43.753 46.694v304.315c0 5.432-4.443 9.9-9.879 9.9h59.418c5.436 0 9.908-4.468 9.908-9.9v-370.165-61.821c0 23.8-19.494 43.277-43.314 43.277h-59.886z" fill="#b5adb6" fill-rule="evenodd"/></g><g><path clip-rule="evenodd" d="m281.778 389.118h124.273c5.495 0 9.996 4.497 9.996 9.958v42.051c0 5.49-4.501 9.958-9.996 9.958h-124.273c-5.495 0-9.966-4.468-9.966-9.958v-42.051c0-5.461 4.472-9.958 9.966-9.958z" fill="#fe9737" fill-rule="evenodd"/></g><g><path clip-rule="evenodd" d="m406.051 389.118h-42.291c5.495 0 9.966 4.497 9.966 9.958v42.051c0 5.49-4.472 9.958-9.966 9.958h42.291c5.495 0 9.996-4.468 9.996-9.958v-42.051c0-5.461-4.501-9.958-9.996-9.958z" fill="#f36b37" fill-rule="evenodd"/></g><g><path d="m256 190.064c-4.27 0-7.732-3.459-7.732-7.726v-100.075c0-4.268 3.462-7.726 7.732-7.726s7.732 3.459 7.732 7.726v100.075c0 4.268-3.462 7.726-7.732 7.726z" fill="#e2e2e2"/></g><g><path clip-rule="evenodd" d="m256 41.496c-11.282 0-20.4 9.14-20.4 20.383 0 11.272 9.119 20.383 20.4 20.383 11.252 0 20.4-9.111 20.4-20.383 0-11.243-9.148-20.383-20.4-20.383z" fill="#62dbfb" fill-rule="evenodd"/></g><g><path clip-rule="evenodd" d="m256 182.338c-11.282 0-20.4 9.111-20.4 20.383 0 11.243 9.119 20.383 20.4 20.383 11.252 0 20.4-9.14 20.4-20.383 0-11.272-9.148-20.383-20.4-20.383z" fill="#62dbfb" fill-rule="evenodd"/></g></g></svg>