<svg id="Capa_1" enable-background="new 0 0 512 512" height="512" viewBox="0 0 512 512" width="512" xmlns="http://www.w3.org/2000/svg"><g><g><path clip-rule="evenodd" d="m272.247 448.598c113.6 0 206.28-92.751 206.28-206.475 0-113.753-92.68-206.504-206.28-206.504s-206.28 92.751-206.28 206.504c0 113.723 92.68 206.475 206.28 206.475z" fill="#f9f7f7" fill-rule="evenodd"/></g><g><path clip-rule="evenodd" d="m272.247 378.632c75.12 0 136.361-61.337 136.361-136.509 0-75.201-61.241-136.538-136.361-136.538s-136.39 61.337-136.39 136.538c0 75.172 61.271 136.509 136.39 136.509z" fill="#62dbfb" fill-rule="evenodd"/></g><g><path clip-rule="evenodd" d="m272.247 304.367c34.244 0 62.176-27.963 62.176-62.244 0-34.31-27.933-62.273-62.176-62.273-34.244 0-62.176 27.963-62.176 62.273 0 34.281 27.933 62.244 62.176 62.244z" fill="#fe636e" fill-rule="evenodd"/></g><g><path clip-rule="evenodd" d="m296.352 217.992c2.717 6.991 4.207 14.566 4.207 22.522 0 29.513-20.54 54.229-48.064 60.635 6.194 2.077 12.856 3.217 19.751 3.217 34.331 0 62.176-27.875 62.176-62.244 0-17.199-6.954-32.76-18.203-44.021s-26.793-18.252-43.973-18.252c-4.85 0-9.584.585-14.142 1.638 17.533 5.851 31.587 19.335 38.248 36.505z" fill="#fb2a39" fill-rule="evenodd"/></g><g><path clip-rule="evenodd" d="m343.423 170.841c12.418 20.563 19.547 44.694 19.547 70.463 0 68.445-50.285 125.131-115.909 135.017 8.152 1.521 16.567 2.311 25.186 2.311 75.324 0 136.361-61.132 136.361-136.509 0-37.703-15.252-71.838-39.941-96.554z" fill="#00c0fa" fill-rule="evenodd"/></g><g><path clip-rule="evenodd" d="m272.247 105.585c-6.954 0-13.791.526-20.453 1.521 38.86 7.254 71.906 31.034 91.628 63.735 12.418 20.563 19.547 44.694 19.547 70.463 0 68.445-50.285 125.131-115.909 135.017 8.152 1.521 16.567 2.311 25.186 2.311 75.324 0 136.361-61.132 136.361-136.509 0-37.703-15.252-71.838-39.941-96.554-24.659-24.686-58.756-39.984-96.419-39.984z" fill="#00c0fa" fill-rule="evenodd"/></g><g><path clip-rule="evenodd" d="m272.247 35.619c113.922 0 206.28 92.459 206.28 206.504s-92.359 206.475-206.28 206.475c-6.691 0-13.294-.322-19.839-.936 104.63-10.003 186.441-98.192 186.441-205.539s-81.81-195.564-186.441-205.538c6.545-.644 13.149-.966 19.839-.966z" fill="#e2e2e2" fill-rule="evenodd"/></g><g><path d="m272.247 249.851c-1.976 0-3.952-.754-5.461-2.261-3.019-3.016-3.021-7.91-.005-10.93l133.176-133.35c3.014-3.018 7.906-3.023 10.927-.005 3.019 3.016 3.021 7.91.005 10.93l-133.176 133.35c-1.508 1.511-3.487 2.266-5.466 2.266z" fill="#838383"/></g><g><path clip-rule="evenodd" d="m26.61 332.154c38.948-44.255 106.325-48.525 150.532-9.565 44.207 38.99 48.502 106.44 9.554 150.695-38.919 44.255-106.325 48.555-150.532 9.565-44.207-38.961-48.472-106.44-9.554-150.695z" fill="#fe9737" fill-rule="evenodd"/></g><g><path clip-rule="evenodd" d="m122.066 321.039c27.319 24.073 39.386 59.055 35.442 92.693-2.454 20.797-11.015 41.096-25.887 58.002-15.193 17.257-34.682 28.431-55.456 33.345 9.788 2.896 19.868 4.387 29.949 4.417h1.023c29.393-.146 58.612-12.373 79.561-36.211 9.35-10.588 16.187-22.552 20.599-35.129 8.853-25.213 7.889-52.913-2.513-77.366-6.048-14.215-15.281-27.319-27.64-38.2-7.86-6.932-16.479-12.49-25.507-16.731-21.972-10.208-46.545-12.49-69.569-7.049 14.344 4.299 28.019 11.67 39.998 22.229z" fill="#f36b37" fill-rule="evenodd"/></g><path d="m115.638 395.005h-17.823c-4.729 0-8.577-3.855-8.577-8.593s3.848-8.592 8.577-8.592h34.01c4.268 0 7.726-3.46 7.726-7.729s-3.459-7.729-7.726-7.729h-17.431v-11.664c0-4.269-3.459-7.729-7.726-7.729-4.268 0-7.726 3.46-7.726 7.729v11.664h-1.127c-13.251 0-24.03 10.789-24.03 24.049 0 13.262 10.78 24.05 24.03 24.05h17.823c4.587 0 8.461 3.935 8.461 8.593 0 4.657-3.928 8.592-8.577 8.592h-34.01c-4.268 0-7.726 3.46-7.726 7.729s3.459 7.729 7.726 7.729h17.401v11.664c0 4.269 3.459 7.729 7.726 7.729 4.268 0 7.726-3.46 7.726-7.729v-11.664h1.156c13.251 0 24.03-10.789 24.03-24.049 0-13.261-10.727-24.05-23.913-24.05z" fill="#f9f7f7"/><g><path clip-rule="evenodd" d="m399.171 79.465 6.253 29.308 28.721 6.844c.467.117.935.234 1.402.351h.029c-10.576-13.688-22.818-26.003-36.434-36.649.029.058.029.087.029.146z" fill="#647b98" fill-rule="evenodd"/></g><g><path clip-rule="evenodd" d="m456.264 5.784-57.092 57.125c-4.5 4.504-1.373 10.179-.029 16.409.029.058.029.088.029.146l6.253 29.308 28.721 6.844c.467.117.935.234 1.402.351h.029c5.698 1.55 10.898 3.832 15.106-.351l57.648-57.71c4.529-4.563 6.691-15.678-4.587-17.638l-24.222-5.674-6.749-24.979c-2.455-9.125-11.981-8.394-16.509-3.831z" fill="#7bacdf" fill-rule="evenodd"/></g><g><path clip-rule="evenodd" d="m420.179 93.212-19.021-4.534 4.266 20.095c11.366 2.691 22.615 5.177 33.835 8.248.029 0 .029.029.029.029 4.237 1.17 8.123 1.813 11.395-1.433l57.648-57.71c4.529-4.563 6.691-15.678-4.587-17.638l-5.931-1.375-56.187 55.487c-4.558 4.475-10.635 1.404-16.538 0z" fill="#3987d0" fill-rule="evenodd"/></g></g></svg>