<svg id="Capa_1" enable-background="new 0 0 512 512" height="512" viewBox="0 0 512 512" width="512" xmlns="http://www.w3.org/2000/svg"><g><g><path clip-rule="evenodd" d="m346.218 392.686c-107.417 21.929-212.269-47.285-234.247-154.608-21.948-107.293 47.327-212.083 154.744-234.012s212.269 47.285 234.217 154.578c21.978 107.323-47.297 212.113-154.714 234.042z" fill="#62dbfb" fill-rule="evenodd"/></g><g><path clip-rule="evenodd" d="m266.715 4.066c-98.023 20.022-164.286 109.051-158.441 206.005-.298-15.851 24.513-52.082 72.854-31.672 48.37 20.41 114.633-3.784 120.061-66.235 5.398-62.421 67.575-27.412 73.152-100.202-33.341-12.157-70.32-15.524-107.626-7.896z" fill="#97da7b" fill-rule="evenodd"/></g><g><path clip-rule="evenodd" d="m500.932 158.644c-104.166 12.723-17.774 106.31-126.085 119.33-63.132 7.598-57.585 94.987-1.372 107.114 91.552-32.685 147.497-128.507 127.457-226.444z" fill="#97da7b" fill-rule="evenodd"/></g><g><path clip-rule="evenodd" d="m374.34 11.962c-33.34-12.157-70.319-15.524-107.625-7.896-30.955 6.317-58.718 19.516-82.039 37.631 1.64-.358 3.31-.715 4.98-1.073 52.187-10.667 103.808.209 145.558 26.518 17.714-8.491 36.204-17.012 39.126-55.18z" fill="#68ca44" fill-rule="evenodd"/></g><g><path clip-rule="evenodd" d="m500.932 158.644c-14.314-70.019-63.967-123.859-126.592-146.682-2.923 38.168-21.412 46.689-39.126 55.181 44.195 27.829 77.387 72.909 88.689 128.09 4.026 19.724 4.98 39.389 3.161 58.458 23.708-32.596-2.743-85.691 73.868-95.047z" fill="#00c0fa" fill-rule="evenodd"/></g><g><path clip-rule="evenodd" d="m500.932 158.644c-76.611 9.356-50.16 62.451-73.868 95.047-4.682 49.579-28.002 95.166-64.116 128.03 3.28 1.43 6.799 2.562 10.527 3.367 91.552-32.685 147.497-128.507 127.457-226.444z" fill="#68ca44" fill-rule="evenodd"/></g><g><path clip-rule="evenodd" d="m321.556 504.18v-72.194c0-38.346-24.901-46.242-56.631-65.281l-100.647-4.529-100.677 4.529c-31.73 19.039-56.601 26.934-56.601 65.281v72.194c0 8.879 4.056 7.777 10.855 7.777h20.964 100.319 25.139 25.02 100.409 20.964c6.801-.001 10.886 1.102 10.886-7.777z" fill="#f9f7f7" fill-rule="evenodd"/></g><g><path clip-rule="evenodd" d="m208.801 477.722-25.796-55.866-18.728-10.577-18.847 10.577-25.766 55.866c-.239.536-.418.566-.06 1.043l19.533 33.192h25.139 25.02l19.563-33.192c.33-.477.151-.507-.058-1.043z" fill="#7bacdf" fill-rule="evenodd"/></g><g><path clip-rule="evenodd" d="m183.006 421.855 8.022-31.404 4.085-15.523-30.835-12.752-14.523 6.733-16.074 7.479 3.758 14.153 7.992 31.314h18.787z" fill="#3987d0" fill-rule="evenodd"/></g><g><path clip-rule="evenodd" d="m137.439 390.541 26.839-28.365-18.459-17.847-36.173-5.214-46.044 27.59 48.012 31.047c8.917 5.184 10.944 10.011 17.624 1.49z" fill="#cecece" fill-rule="evenodd"/></g><g><path clip-rule="evenodd" d="m216.913 397.751 48.012-31.047-46.014-27.59-27.883 1.847-26.75 21.214 26.75 28.276 8.261 8.79c6.709 8.521 8.737 3.694 17.624-1.49z" fill="#cecece" fill-rule="evenodd"/></g><g><path clip-rule="evenodd" d="m218.911 339.114c19.414-16.149 33.996-38.436 38.768-59.442 1.103-4.857 1.7-9.654 1.7-14.272v-56.075-6.972h-17.475c-37.038 0-44.762-45.587-90.031-45.587h-22.038c-34.652 0-8.261 52.559-48.162 52.559h-12.525v56.075c0 4.618.596 9.415 1.7 14.272 4.801 21.006 19.384 43.293 38.798 59.442 9.334 7.747 19.801 14.093 30.806 18.205 8.648 3.218 16.223 4.857 23.827 4.857 7.575 0 15.149-1.639 23.827-4.857 11.003-4.112 21.441-10.458 30.805-18.205z" fill="#ffe5c1" fill-rule="evenodd"/></g><g><path clip-rule="evenodd" d="m259.379 184.089c0-44.425-45.627-74.667-87.854-78.958h-20.01c-16.253 1.788-30.627 8.224-39.782 20.082-45.955 4.052-42.585 65.162-42.585 73.207v15.583 22.168h12.525c39.901 0 13.509-52.529 48.162-52.529h22.038c45.269 0 52.993 45.587 90.031 45.587h17.475v-13.825z" fill="#838383" fill-rule="evenodd"/></g><g><path clip-rule="evenodd" d="m259.379 202.354v-18.264c0-44.425-45.627-74.667-87.854-78.958h-19.951c41.183 5.602 84.216 35.367 84.216 78.511v18.294 6.942 6.078 13.825c1.938.298 3.966.447 6.113.447h17.475v-13.825-6.078-6.972z" fill="#595959" fill-rule="evenodd"/></g><g><path clip-rule="evenodd" d="m259.379 265.4v-29.229-6.942h-17.475c-2.147 0-4.175-.149-6.113-.447v36.112c0 4.618-.596 9.415-1.7 14.272-4.801 21.006-19.384 43.293-38.798 59.442-.924.775-1.849 1.52-2.773 2.264-3.549 2.741-7.217 5.304-11.004 7.628-5.457 3.307-11.153 6.138-17.028 8.313-1.431.536-2.833 1.043-4.205 1.49-3.101.983-6.084 1.788-9.006 2.324 4.443 1.013 8.738 1.549 13.002 1.549 7.575 0 15.149-1.639 23.827-4.857 11.004-4.112 21.442-10.458 30.806-18.205 19.414-16.149 33.996-38.436 38.768-59.442 1.102-4.856 1.699-9.653 1.699-14.272z" fill="#fed1a3" fill-rule="evenodd"/></g><g><path clip-rule="evenodd" d="m235.79 228.782c-31.939-4.648-41.273-45.14-83.917-45.14h-22.038c-12.793 0-17.267 7.151-19.831 16.209h25.199c42.674 0 51.979 40.492 83.917 45.14 17.654-.209 16.67-2.264 16.67 19.903 0 4.618-.596 9.415-1.7 14.272-4.801 21.006-19.384 43.293-38.798 59.442-.924.775-1.849 1.52-2.773 2.264-3.549 2.741-7.217 5.304-11.004 7.628-5.457 3.307-11.153 6.138-17.028 8.313-1.431.536-2.833 1.043-4.205 1.49-3.101.983-6.084 1.788-9.006 2.324 4.443 1.013 8.738 1.549 13.002 1.549 7.575 0 15.149-1.639 23.827-4.857 11.004-4.112 21.442-10.458 30.806-18.205 19.414-16.149 33.996-38.436 38.768-59.442 1.103-4.857 1.7-9.654 1.7-14.272v-29.229-6.942h-17.475c-2.148 0-4.176-.149-6.114-.447z" fill="#fed1a3" fill-rule="evenodd"/></g><g><path clip-rule="evenodd" d="m142.508 385.207 21.77-23.032c-4.264 0-8.559-.536-13.002-1.549-3.459-.775-7.038-1.877-10.825-3.307-11.004-4.112-21.471-10.458-30.806-18.205l-22.098 13.259c2.594 2.473 5.278 4.886 8.052 7.181 11.75 9.773 24.871 17.758 38.738 22.913.358.119.716.268 1.074.387 2.415.893 4.771 1.668 7.097 2.353z" fill="#b5adb6" fill-rule="evenodd"/></g><g><path clip-rule="evenodd" d="m194.219 382.466c13.837-5.155 26.988-13.14 38.708-22.913 2.773-2.294 5.457-4.708 8.082-7.181l-22.098-13.259c-9.364 7.747-19.801 14.093-30.806 18.205-8.678 3.218-16.253 4.857-23.827 4.857l21.77 23.032c2.266-.685 4.592-1.43 6.978-2.294.388-.149.775-.298 1.193-.447z" fill="#b5adb6" fill-rule="evenodd"/></g><g><path clip-rule="evenodd" d="m186.048 385.207-21.77-23.032-11.571 12.216 12.346 16.298 3.817 4.797c1.163 1.46.865 1.698.418 3.486l-3.698 14.421-1.312 8.462h18.728l8.022-31.404z" fill="#0067b4" fill-rule="evenodd"/></g><g><path clip-rule="evenodd" d="m208.801 477.722-25.796-55.866h-18.728l19.473 55.866c.209.536.417.566.06 1.043l-19.533 33.192h25.02l19.563-33.192c.329-.477.15-.507-.059-1.043z" fill="#3987d0" fill-rule="evenodd"/></g><g><path clip-rule="evenodd" d="m321.556 431.986c0-38.346-24.901-46.242-56.631-65.281l-29.583 19.129c27.436 15.672 47.834 25.415 47.834 60.157v65.967h6.531 20.964c6.799 0 10.885 1.102 10.885-7.777z" fill="#e2e2e2" fill-rule="evenodd"/></g></g></svg>