<svg id="Capa_1" enable-background="new 0 0 512 512" height="512" viewBox="0 0 512 512" width="512" xmlns="http://www.w3.org/2000/svg"><g><g><path clip-rule="evenodd" d="m407.535 330.597c47.526-129.978-61.736-160.845-92.814-295.875-4.865-21.026-6.567-31.948-11.97-34.722h-7.374c-3.433 1.051-7.822 3.241-13.553 6.483-27.525 15.477-39.646 52.447-44.004 72.655-6.448 30.049-50.84 28.968-49.168-11.068.955-23.128-44.511 40.649-46.959 44.679-50.93 84.102-57.229 156.085-41.287 227.221z" fill="#fe636e" fill-rule="evenodd"/></g><g><path clip-rule="evenodd" d="m372.398 259.636c-8.747-84.949-61.438-73.648-80.245-170.131-1.672-8.585-.925-9.345-8.21-.934-12.15 13.988-20.002 26.136-21.554 43.131-2.597 28.151-54.751 54.228-67.916 21.668-4.239-8.848-16.479-5.169-28.181 20.033-10.508 22.719-17.225 42.547-17.016 75.079 4.359-3.825 8.419-7.271 11.195-9.987 6.03-5.899 15.912-5.899 21.972 0l11.225 11.009c8.12-4.468 16.748-8.118 25.823-10.776v-15.243c0-8.352 6.986-15.185 15.524-15.185h41.257c8.538 0 15.524 6.833 15.524 15.185v14.601c9.344 2.57 18.27 6.191 26.599 10.659l10.478-10.25c6.03-5.899 15.912-5.899 21.942 0z" fill="#fe9737" fill-rule="evenodd"/></g><g><path clip-rule="evenodd" d="m335.917 361.025c.119-21.902-9.105-43.745-27.226-59.368-15.374-13.258-34.51-19.711-53.527-19.595-22.061.146-44.004 9.14-59.736 26.632-13.464 14.922-20.061 33.436-20.031 51.892 0 21.756 9.195 43.394 27.196 58.901 33.286 28.676 83.977 25.523 113.293-7.038 13.314-14.804 19.912-33.143 20.031-51.424z" fill="#f9f7f7" fill-rule="evenodd"/></g><g><path clip-rule="evenodd" d="m318.394 248.743c-8.329-4.468-17.255-8.089-26.599-10.659v-14.601c0-8.352-6.986-15.185-15.524-15.185h-41.257c-8.538 0-15.524 6.833-15.524 15.185v15.243c-9.075 2.657-17.703 6.308-25.823 10.776l-11.225-11.009c-6.06-5.899-15.942-5.899-21.972 0-2.776 2.716-6.836 6.162-11.195 9.987-13.643 12.06-30.032 28.268-17.972 40.036l11.882 11.652c-4.209 7.739-7.642 16.003-10.12 24.617h-17.136c-8.538 0-15.524 6.833-15.524 15.185v40.357c0 8.352 6.986 15.185 15.524 15.185h17.763c2.597 8.352 6.03 16.353 10.24 23.887l-12.628 12.382c-6.06 5.899-6.06 15.565 0 21.464l29.167 28.53c6.03 5.928 15.912 5.928 21.972 0l12.628-12.352c7.702 4.118 15.882 7.476 24.42 10.016v17.375c0 8.352 6.986 15.185 15.524 15.185h41.257c8.538 0 15.524-6.833 15.524-15.185v-16.762c8.837-2.424 17.255-5.782 25.196-9.9l11.882 11.622c6.03 5.928 15.912 5.928 21.942 0l29.196-28.53c6.03-5.899 6.03-15.565 0-21.464l-11.255-11.009c4.568-7.914 8.299-16.382 11.016-25.26h15.583c8.538 0 15.524-6.833 15.524-15.185v-40.357c0-3.533-1.254-6.804-3.344-9.374-2.836-3.533-7.254-5.811-12.18-5.811h-14.927c-2.627-9.14-6.299-17.872-10.896-26.019l10.478-10.25c6.03-5.899 6.03-15.565 0-21.464l-7.613-7.417-21.584-21.142c-6.03-5.899-15.912-5.899-21.942 0zm-122.966 59.952c15.733-17.492 37.675-26.486 59.736-26.632 19.016-.117 38.152 6.337 53.527 19.595 18.121 15.623 27.345 37.466 27.226 59.368-.119 18.281-6.717 36.619-20.031 51.425-29.316 32.56-80.007 35.714-113.293 7.038-18.001-15.506-27.196-37.145-27.196-58.901-.03-18.456 6.568-36.971 20.031-51.893z" fill="#838383" fill-rule="evenodd"/></g><g><path clip-rule="evenodd" d="m335.917 361.025c.119-21.902-9.105-43.745-27.226-59.368-15.374-13.258-34.51-19.711-53.527-19.595-4.478.029-8.986.438-13.404 1.197 4.597 1.402 9.075 3.241 13.404 5.49 5.433 2.833 10.628 6.308 15.434 10.454 18.121 15.623 27.316 37.437 27.196 59.368-.09 18.28-6.687 36.619-20.031 51.425-12.538 13.929-28.987 22.486-46.332 25.435 29.376 9.082 62.781 1.11 84.455-22.982 13.314-14.804 19.912-33.143 20.031-51.424z" fill="#e2e2e2" fill-rule="evenodd"/></g><g><path clip-rule="evenodd" d="m380.011 288.516c6.03-5.899 6.03-15.565 0-21.464l-7.613-7.417-21.584-21.142c-6.03-5.899-15.912-5.899-21.942 0l-10.478 10.25c-8.329-4.468-17.255-8.089-26.599-10.659v-14.601c0-8.352-6.986-15.185-15.524-15.185h-35.824c61.886 25.873 105.262 85.942 105.262 155.91 0 43.219-16.539 82.671-43.765 112.603 5.165-1.898 10.18-4.147 15.046-6.658l11.882 11.622c6.03 5.928 15.912 5.928 21.942 0l29.196-28.53c6.03-5.899 6.03-15.565 0-21.464l-11.255-11.009c4.568-7.914 8.299-16.382 11.016-25.26h15.583c8.538 0 15.524-6.833 15.524-15.185v-40.357c0-3.533-1.254-6.804-3.344-9.374-2.836-3.533-7.254-5.811-12.18-5.811h-14.927c-2.627-9.14-6.299-17.872-10.896-26.019z" fill="#595959" fill-rule="evenodd"/></g><g><path clip-rule="evenodd" d="m407.535 330.597c47.526-129.978-61.736-160.845-92.814-295.875-4.865-21.026-6.567-31.948-11.97-34.722h-7.374c-3.433 1.051-7.822 3.241-13.553 6.483-22.032 12.411-34.182 38.547-40.391 58.842 5.732 21.872 13.523 40.912 22.27 58.141 3.015-12.907 10.15-23.274 20.24-34.896 7.284-8.41 6.538-7.651 8.21.934 18.807 96.484 71.498 85.182 80.245 170.131l7.613 7.417c6.03 5.899 6.03 15.565 0 21.464l-10.478 10.25c4.597 8.147 8.269 16.879 10.896 26.019h14.927c4.925 0 9.343 2.278 12.179 5.812z" fill="#fb2a39" fill-rule="evenodd"/></g><g><path clip-rule="evenodd" d="m372.398 259.636c-8.747-84.949-61.438-73.648-80.245-170.131-1.672-8.585-.925-9.345-8.21-.934-10.09 11.622-17.225 21.989-20.24 34.896 22.599 44.475 51.497 76.685 67.707 113.012 6-3.767 14.15-3.095 19.405 2.015z" fill="#f36b37" fill-rule="evenodd"/></g><path d="m343.822 361.026c0-.194-.015-.385-.03-.576-.005-1.776-.046-3.555-.162-5.343-1.494-22.992-12.048-44.036-29.718-59.258-16.586-14.287-37.17-21.336-57.707-21.448-.341-.044-.687-.075-1.041-.075-.329 0-.651.026-.97.064-23.949.4-47.655 10.261-64.696 29.189-14.305 15.876-21.992 35.89-21.998 56.867-.001.048-.007.094-.007.142 0 .032.005.063.005.095.004 1.775.044 3.555.16 5.342 1.485 22.996 12.039 44.047 29.714 59.272 16.723 14.407 37.507 21.481 58.214 21.481 24.467-.001 48.824-9.879 66.231-29.212 14.036-15.592 21.688-35.171 21.962-55.732.027-.266.043-.535.043-.808zm-33.865 46.308c-11.218 12.458-25.953 20.111-41.486 22.834v-2.066c0-4.274-3.538-7.737-7.904-7.737s-7.904 3.464-7.904 7.737v3.145c-16.014-.631-31.916-6.424-44.851-17.568-13.659-11.765-22.128-27.77-24.087-45.354h3.254c4.366 0 7.904-3.464 7.904-7.737s-3.538-7.737-7.904-7.737h-3.254c1.588-14.399 7.638-27.949 17.629-39.036 0 0 .002-.002.003-.003 12.275-13.635 28.763-21.521 45.903-23.473v3.056c0 4.274 3.538 7.737 7.904 7.737s7.904-3.464 7.904-7.737v-3.173c14.487 1.441 28.666 7.136 40.403 17.246 13.777 11.868 22.268 28.054 24.131 45.822h-3.268c-4.366 0-7.904 3.464-7.904 7.737s3.538 7.737 7.904 7.737h3.179c-1.662 14.225-7.681 27.601-17.556 38.57z" fill="#62dbfb"/><g><path d="m241.759 385.846c-1.963 0-3.928-.711-5.459-2.144-3.155-2.952-3.269-7.849-.253-10.939l11.692-11.978v-29.546c0-4.274 3.538-7.737 7.904-7.737s7.904 3.464 7.904 7.737v32.648c0 1.991-.784 3.906-2.19 5.346l-13.881 14.221c-1.554 1.591-3.634 2.392-5.717 2.392z" fill="#838383"/></g></g></svg>