<svg id="Capa_1" enable-background="new 0 0 512 512" height="512" viewBox="0 0 512 512" width="512" xmlns="http://www.w3.org/2000/svg"><g><g><path clip-rule="evenodd" d="m42.891 212.992c3.373-3.86 5.046-8.628 5.046-13.396 0-5.591-2.324-11.182-6.86-15.184-8.391-7.379-21.147-6.584-28.518 1.816-7.399 8.401-6.577 21.172 1.786 28.551 8.391 7.408 21.175 6.585 28.546-1.787z" fill="#fe9737" fill-rule="evenodd"/></g><g><path clip-rule="evenodd" d="m88.502 77.245c3.345-3.377 5.556-7.918 5.868-13.027.709-11.154-7.739-20.775-18.879-21.485-11.141-.71-20.75 7.748-21.459 18.902s7.767 20.775 18.907 21.485c6.01.397 11.594-1.93 15.563-5.875z" fill="#fe9737" fill-rule="evenodd"/></g><g><path clip-rule="evenodd" d="m439.104 83.12c11.141-.71 19.588-10.331 18.879-21.484-.709-11.154-10.318-19.611-21.459-18.902-11.141.71-19.588 10.331-18.879 21.485.312 5.109 2.523 9.65 5.868 13.027 3.968 3.944 9.553 6.271 15.591 5.874z" fill="#fe9737" fill-rule="evenodd"/></g><g><path clip-rule="evenodd" d="m499.484 186.541c-7.399-8.401-20.155-9.195-28.546-1.816-4.536 4.002-6.86 9.593-6.86 15.184 0 4.768 1.672 9.536 5.046 13.396 7.399 8.372 20.155 9.195 28.546 1.788 8.362-7.38 9.184-20.151 1.814-28.552z" fill="#fe9737" fill-rule="evenodd"/></g><g><path clip-rule="evenodd" d="m256.007 370.337c93.745 0 170.227-76.544 170.227-170.429 0-93.856-76.482-170.4-170.227-170.4s-170.227 76.544-170.227 170.4c.001 93.885 76.482 170.429 170.227 170.429z" fill="#62dbfb" fill-rule="evenodd"/></g><g><path clip-rule="evenodd" d="m426.234 199.908c0-35.533-10.885-68.569-29.481-95.871-30.644-44.984-82.236-74.529-140.745-74.529-2.126 0-4.224.028-6.35.114.397.085.794.17 1.191.284 11.566 2.838 22.678 6.897 33.167 11.977 31.693 15.354 57.914 40.273 74.922 71.01 13.522 24.436 21.232 52.562 21.232 82.476 0 1.533-.028 3.037-.057 4.541-.822 31.645-10.262 61.105-26.051 86.193-8.561 13.623-19.021 25.94-30.955 36.583-7.881 7.039-16.413 13.311-25.513 18.788-5.953 3.604-12.161 6.84-18.568 9.678-.113.057-.227.114-.34.17-.822.369-1.616.71-2.438 1.05-8.816 3.746-18.029 6.755-27.554 8.997-4.337.993-8.703 1.845-13.125 2.498-.142.028-.283.057-.397.057-6.208.937-12.501 1.504-18.879 1.76 11.509 2.753 23.472 4.342 35.775 4.598.737.028 1.446.028 2.183.057h1.758 1.758c.879-.028 1.758-.028 2.636-.057 19.616-.511 38.411-4.314 55.816-10.927 64.29-24.353 110.015-86.536 110.015-159.447z" fill="#00c0fa" fill-rule="evenodd"/></g><path d="m505.119 181.587c-.003-.004-.006-.007-.009-.011-10.096-11.464-27.647-12.583-39.131-2.483-4.156 3.668-6.944 8.32-8.336 13.307h-24.077c-1.334-31.997-11.146-61.835-27.249-87.319l17.949-17.971c4.11 2.318 8.73 3.561 13.515 3.561.598 0 1.197-.019 1.8-.058 15.246-.971 26.858-14.184 25.889-29.454-.471-7.396-3.791-14.165-9.35-19.059-5.556-4.892-12.683-7.324-20.07-6.858-7.389.47-14.15 3.794-19.04 9.361-4.887 5.563-7.32 12.698-6.85 20.093.268 4.221 1.468 8.237 3.479 11.817l-16.014 16.033c-32.485-42.832-83.875-70.546-141.617-70.546-57.743 0-109.134 27.714-141.618 70.545l-16.01-16.03c2.009-3.581 3.208-7.598 3.477-11.821.969-15.27-10.645-28.483-25.889-29.453-7.397-.464-14.517 1.966-20.072 6.858-5.559 4.895-8.879 11.664-9.35 19.059v.001c-.969 15.268 10.658 28.482 25.917 29.453.603.039 1.201.058 1.8.058 4.779 0 9.391-1.241 13.494-3.554l17.942 17.964c-16.05 25.402-25.856 55.128-27.242 87.008h-24.07c-1.394-4.993-4.19-9.65-8.359-13.317-5.563-4.892-12.683-7.319-20.065-6.862-7.389.468-14.15 3.793-19.038 9.364-4.895 5.565-7.334 12.698-6.867 20.089.466 7.388 3.779 14.154 9.327 19.05 5.111 4.512 11.552 6.942 18.304 6.942.593 0 1.189-.019 1.785-.057 7.389-.466 14.153-3.784 19.052-9.35 2.839-3.235 4.79-6.95 5.875-10.843h24.025c1.358 33.999 12.288 65.573 30.161 92.089.303.594.679 1.133 1.113 1.613 32.094 46.503 85.702 77.039 146.307 77.039 60.643 0 114.28-30.574 146.367-77.127.399-.454.755-.951 1.039-1.505 17.827-26.438 28.739-57.91 30.151-91.797h24.059c1.085 3.9 3.039 7.622 5.883 10.863 5.477 6.197 13.127 9.363 20.809 9.363 6.518 0 13.059-2.279 18.314-6.918 11.446-10.1 12.562-27.657 2.49-39.137zm-76.846-127.07c2.241-2.551 5.341-4.075 8.728-4.291.276-.018.552-.025.826-.025 3.092 0 6.043 1.111 8.384 3.172 2.549 2.244 4.071 5.348 4.286 8.739.446 7.007-4.879 13.07-11.871 13.515-3.391.211-6.661-.902-9.211-3.147-2.548-2.245-4.07-5.348-4.286-8.74-.215-3.394.901-6.67 3.144-9.223zm-341.387 9.224c-.216 3.395-1.735 6.501-4.278 8.744-2.541 2.244-5.819 3.35-9.192 3.143-7.006-.447-12.344-6.51-11.899-13.516.215-3.39 1.737-6.494 4.286-8.738 2.55-2.244 5.828-3.365 9.212-3.146 6.99.443 12.315 6.506 11.871 13.513zm297.349 35.99c-16.789 4.328-36.145 7.752-56.991 10.139-7.774-29.224-19.281-52.954-33.215-68.353 36.296 8.731 67.897 29.664 90.206 58.214zm-195.347 92.669c.451-23.321 3-45.764 7.44-66.194 19.031 1.727 39.092 2.623 59.68 2.623s40.649-.896 59.68-2.623c4.439 20.43 6.988 42.873 7.439 66.194zm134.239 15.016c-.451 23.322-2.998 45.765-7.435 66.195-19.032-1.727-39.094-2.623-59.684-2.623s-40.652.896-59.684 2.623c-4.437-20.43-6.985-42.873-7.436-66.195zm-67.119-170.4c16.493 0 33.224 16.589 45.904 45.512 3.881 8.853 7.269 18.536 10.132 28.872-18.026 1.58-36.914 2.412-56.036 2.412s-38.011-.832-56.037-2.412c2.864-10.336 6.251-20.018 10.132-28.871 12.681-28.924 29.412-45.513 45.905-45.513zm-38.023 4.501c-13.933 15.399-25.441 39.129-33.215 68.353-20.845-2.387-40.202-5.811-56.991-10.139 22.31-28.55 53.911-49.483 90.206-58.214zm-99.424 71.285c18.418 5.139 39.646 9.124 62.703 11.835-4.345 20.633-6.933 43.499-7.377 67.762h-80.427c1.329-29.174 10.358-56.37 25.101-79.597zm-81.297 95.226c-2.242 2.548-5.345 4.068-8.736 4.283-3.398.203-6.67-.909-9.224-3.163-2.544-2.246-4.064-5.348-4.277-8.734-.214-3.39.907-6.665 3.158-9.221.003-.004.006-.007.009-.011 2.238-2.551 5.333-4.073 8.714-4.287.273-.018.546-.026.817-.026 3.093 0 6.049 1.114 8.401 3.183 5.263 4.629 5.77 12.697 1.138 17.976zm56.196-.612h80.427c.444 24.263 3.031 47.13 7.375 67.764-23.059 2.711-44.289 6.698-62.708 11.838-14.739-23.23-23.766-50.427-25.094-79.602zm34.309 92.673c16.79-4.329 36.149-7.754 56.998-10.141 7.774 29.237 19.284 52.977 33.221 68.38-36.303-8.734-67.909-29.676-90.219-58.239zm128.239 62.74c-16.493 0-33.225-16.59-45.905-45.516-3.883-8.86-7.272-18.55-10.137-28.896 18.028-1.58 36.918-2.413 56.042-2.413s38.014.832 56.042 2.413c-2.865 10.346-6.254 20.037-10.138 28.896-12.68 28.926-29.412 45.516-45.904 45.516zm38.018-4.501c13.937-15.404 25.447-39.144 33.221-68.381 20.849 2.388 40.208 5.812 56.999 10.142-22.31 28.563-53.917 49.506-90.22 58.239zm99.435-71.311c-18.419-5.14-39.65-9.126-62.708-11.838 4.344-20.634 6.931-43.501 7.375-67.764h80.427c-1.329 29.176-10.356 56.373-25.094 79.602zm-55.333-94.617c-.444-24.263-3.032-47.129-7.377-67.762 23.056-2.711 44.285-6.697 62.703-11.836 14.742 23.227 23.772 50.423 25.101 79.598zm154.581 17.061c-5.254 4.64-13.314 4.133-17.95-1.112-4.632-5.28-4.121-13.351 1.129-17.984 2.416-2.125 5.418-3.168 8.408-3.168 3.533 0 7.049 1.458 9.561 4.309 4.615 5.271 4.102 13.322-1.148 17.955z" fill="#3987d0"/><g><path clip-rule="evenodd" d="m383.344 483.663v-58.55c0-31.134-20.155-37.52-45.838-52.959l-81.499-3.69-81.499 3.69c-25.683 15.439-45.838 21.825-45.838 52.959v58.55c0 7.209 3.317 6.301 8.816 6.301h16.952 81.216 20.353 20.268 81.301 16.952c5.5-.001 8.816.907 8.816-6.301z" fill="#f9f7f7" fill-rule="evenodd"/></g><g><path clip-rule="evenodd" d="m292.037 462.206-20.864-45.325-15.166-8.571-15.251 8.571-20.864 45.325c-.17.426-.34.454-.057.851l15.818 26.905h20.353 20.268l15.818-26.905c.285-.396.143-.425-.055-.851z" fill="#7bacdf" fill-rule="evenodd"/></g><g><path clip-rule="evenodd" d="m271.173 416.882 6.492-25.458 3.316-12.63-24.974-10.33-11.764 5.477-12.983 6.045 3.033 11.495 6.463 25.401h15.223z" fill="#3987d0" fill-rule="evenodd"/></g><g><path clip-rule="evenodd" d="m234.293 391.481 21.714-23.017-14.939-14.474-29.283-4.229-37.277 22.393 38.864 25.174c7.229 4.229 8.873 8.145 14.287 1.192z" fill="#cecece" fill-rule="evenodd"/></g><g><path clip-rule="evenodd" d="m298.642 397.327 38.864-25.174-37.277-22.393-22.565 1.504-21.658 17.199 21.658 22.96 6.69 7.095c5.415 6.955 7.059 3.038 14.288-1.191z" fill="#cecece" fill-rule="evenodd"/></g><g><path clip-rule="evenodd" d="m300.229 349.76c15.705-13.112 27.525-31.191 31.409-48.22.907-3.945 1.361-7.833 1.361-11.579v-45.495-5.648h-14.145c-29.992 0-36.228-36.981-72.881-36.981h-17.831c-28.064 0-6.718 42.628-38.978 42.628h-10.148v45.495c0 3.746.482 7.634 1.361 11.579 3.884 17.029 15.705 35.107 31.409 48.22 7.569 6.301 16.016 11.438 24.946 14.787 7.002 2.611 13.125 3.917 19.276 3.917s12.274-1.306 19.276-3.917c8.929-3.348 17.377-8.485 24.945-14.786z" fill="#ffe5c1" fill-rule="evenodd"/></g><g><path clip-rule="evenodd" d="m332.999 224.004c0-36.044-36.937-60.565-71.096-64.056h-16.215c-13.182 1.447-24.804 6.67-32.203 16.291-37.192 3.292-34.471 52.874-34.471 59.402v12.63 17.994h10.148c32.259 0 10.914-42.628 38.978-42.628h17.831c36.653 0 42.89 36.981 72.881 36.981h14.145v-11.211-25.403z" fill="#838383" fill-rule="evenodd"/></g><g><path clip-rule="evenodd" d="m332.999 238.819v-14.815c0-36.044-36.937-60.565-71.096-64.056h-16.158c33.308 4.541 68.147 28.693 68.147 63.687v14.843 5.619 4.938 11.211c1.587.255 3.232.369 4.961.369h14.145v-11.211-4.938-5.647z" fill="#595959" fill-rule="evenodd"/></g><g><path clip-rule="evenodd" d="m332.999 289.962v-23.698-5.648h-14.145c-1.729 0-3.373-.113-4.961-.369v29.318c0 3.746-.454 7.635-1.361 11.551-3.884 17.057-15.676 35.136-31.409 48.22-.737.624-1.502 1.249-2.268 1.845-2.835 2.242-5.811 4.314-8.873 6.187-4.422 2.696-9.043 4.995-13.805 6.755-1.162.426-2.296.823-3.402 1.192-2.523.823-4.932 1.447-7.285 1.901 3.6.823 7.059 1.249 10.517 1.249 6.151 0 12.274-1.306 19.276-3.917 8.929-3.349 17.377-8.486 24.946-14.787 15.705-13.112 27.525-31.191 31.409-48.22.908-3.945 1.361-7.833 1.361-11.579z" fill="#fed1a3" fill-rule="evenodd"/></g><g><path clip-rule="evenodd" d="m313.893 260.246c-25.853-3.775-33.393-36.612-67.921-36.612h-17.831c-10.375 0-14.004 5.818-16.073 13.14h20.41c34.556 0 42.096 32.865 67.949 36.64 14.287-.17 13.465-1.845 13.465 16.149 0 3.746-.454 7.635-1.361 11.551-3.884 17.057-15.676 35.136-31.409 48.22-.737.624-1.502 1.249-2.268 1.845-2.835 2.242-5.811 4.314-8.873 6.187-4.422 2.696-9.043 4.995-13.805 6.755-1.162.426-2.296.823-3.402 1.192-2.523.823-4.932 1.447-7.285 1.901 3.6.823 7.059 1.249 10.517 1.249 6.151 0 12.274-1.306 19.276-3.917 8.929-3.349 17.377-8.486 24.946-14.787 15.705-13.112 27.525-31.191 31.409-48.22.907-3.945 1.361-7.833 1.361-11.579v-23.698-5.648h-14.145c-1.729.001-3.373-.112-4.96-.368z" fill="#fed1a3" fill-rule="evenodd"/></g><g><path clip-rule="evenodd" d="m238.375 387.138 17.632-18.675c-3.458 0-6.917-.426-10.517-1.249-2.806-.653-5.698-1.533-8.759-2.668-8.929-3.349-17.377-8.486-24.946-14.787l-17.887 10.756c2.098 2.015 4.28 3.973 6.52 5.818 9.496 7.918 20.155 14.389 31.352 18.59.283.114.595.227.879.312 1.956.711 3.855 1.364 5.726 1.903z" fill="#b5adb6" fill-rule="evenodd"/></g><g><path clip-rule="evenodd" d="m280.244 384.925c11.197-4.2 21.856-10.671 31.352-18.59 2.239-1.845 4.422-3.803 6.52-5.818l-17.887-10.756c-7.569 6.301-16.016 11.438-24.946 14.787-7.002 2.611-13.125 3.917-19.276 3.917l17.632 18.675c1.843-.539 3.714-1.164 5.641-1.873.312-.115.653-.229.964-.342z" fill="#b5adb6" fill-rule="evenodd"/></g><g><path clip-rule="evenodd" d="m273.639 387.138-17.632-18.675-9.355 9.905 10.007 13.226 3.09 3.917c.935 1.164.68 1.362.312 2.81l-2.976 11.693-1.077 6.868h15.166l6.492-25.458z" fill="#0067b4" fill-rule="evenodd"/></g><g><path clip-rule="evenodd" d="m292.037 462.206-20.864-45.325h-15.166l15.761 45.325c.198.426.34.454.057.851l-15.818 26.905h20.268l15.818-26.905c.284-.396.142-.425-.056-.851z" fill="#3987d0" fill-rule="evenodd"/></g><g><path clip-rule="evenodd" d="m383.344 425.112c0-31.134-20.155-37.52-45.838-52.959l-23.954 15.496c22.196 12.715 38.723 20.633 38.723 48.815v53.498h5.301 16.952c5.499 0 8.816.908 8.816-6.301z" fill="#e2e2e2" fill-rule="evenodd"/></g></g></svg>