<svg width="20" height="21" viewBox="0 0 20 21" fill="none" xmlns="http://www.w3.org/2000/svg">
<path d="M16.3165 0.141642C15.8133 -0.149455 15.1694 0.0225045 14.8783 0.525725C14.5872 1.02895 14.7592 1.67287 15.2624 1.96396C16.36 2.59892 17.3329 3.42674 18.1344 4.4012C18.5036 4.8502 19.167 4.91483 19.616 4.54555C20.065 4.17627 20.1296 3.51293 19.7603 3.06392C18.7998 1.89608 17.6336 0.903543 16.3165 0.141642Z" fill="#23376C"/>
<path d="M4.73762 1.96396C5.24084 1.67287 5.4128 1.02895 5.12171 0.525725C4.83061 0.0225047 4.18669 -0.149455 3.68347 0.141642C2.36637 0.903543 1.20015 1.89608 0.239668 3.06392C-0.129609 3.51293 -0.0649791 4.17627 0.384023 4.54555C0.833025 4.91483 1.49637 4.8502 1.86565 4.4012C2.66708 3.42674 3.63997 2.59892 4.73762 1.96396Z" fill="#23376C"/>
<path d="M9.99997 5.81952C9.41862 5.81952 8.94734 6.2908 8.94734 6.87215V11.0683C8.94361 11.3424 9.04635 11.6178 9.25555 11.827L11.4718 14.0432C11.8829 14.4543 12.5494 14.4543 12.9604 14.0432C13.3715 13.6322 13.3715 12.9657 12.9604 12.5546L11.0526 10.6468V6.87215C11.0526 6.2908 10.5813 5.81952 9.99997 5.81952Z" fill="#23376C"/>
<path fill-rule="evenodd" clip-rule="evenodd" d="M0.526314 11.0827C0.526314 5.85051 4.76781 1.60901 9.99997 1.60901C15.2321 1.60901 19.4736 5.85051 19.4736 11.0827C19.4736 16.3148 15.2321 20.5563 9.99997 20.5563C4.76781 20.5563 0.526314 16.3148 0.526314 11.0827ZM9.99997 3.71427C5.93052 3.71427 2.63157 7.01321 2.63157 11.0827C2.63157 15.1521 5.93052 18.4511 9.99997 18.4511C14.0694 18.4511 17.3684 15.1521 17.3684 11.0827C17.3684 7.01321 14.0694 3.71427 9.99997 3.71427Z" fill="#23376C"/>
</svg>
