<svg width="20" height="20" viewBox="0 0 20 20" fill="none" xmlns="http://www.w3.org/2000/svg">
<path d="M10 0C15.5228 0 20 4.47715 20 10C20 15.5228 15.5228 20 10 20C4.47715 20 0 15.5228 0 10C0 4.47715 4.47715 0 10 0ZM10 2C5.58172 2 2 5.58172 2 10C2 14.4183 5.58172 18 10 18C14.4183 18 18 14.4183 18 10C18 5.58172 14.4183 2 10 2ZM10 4C10.5128 4 10.9355 4.38604 10.9933 4.88338L11 5V9.5858L13.7071 12.2929C14.0976 12.6834 14.0976 13.3166 13.7071 13.7071C13.3466 14.0676 12.7794 14.0953 12.3871 13.7903L12.2929 13.7071L9.2929 10.7071C9.13665 10.5508 9.03741 10.3481 9.00868 10.1314L9 10V5C9 4.44772 9.4477 4 10 4Z" fill="#23376C"/>
</svg>
