<svg width="18" height="21" viewBox="0 0 18 21" fill="none" xmlns="http://www.w3.org/2000/svg">
<path fill-rule="evenodd" clip-rule="evenodd" d="M9 0C13.9706 0 18 4.02944 18 9C18 12.0738 16.3241 14.5892 14.5584 16.3945C13.5897 17.3849 12.5597 18.1973 11.6817 18.8113L11.2564 19.1017C11.1879 19.1473 11.1208 19.1915 11.0551 19.2343L10.6789 19.474L10.3429 19.6791L9.9271 19.921C9.3479 20.2481 8.6521 20.2481 8.0729 19.921L7.65713 19.6791L7.13766 19.3584C7.07492 19.3184 7.01063 19.2771 6.94491 19.2343L6.53449 18.9607C5.61244 18.3315 4.49106 17.4674 3.44162 16.3945C1.6759 14.5892 0 12.0738 0 9C0 4.02944 4.02944 0 9 0ZM9 2C5.13401 2 2 5.13401 2 9C2 11.3224 3.27202 13.3608 4.87141 14.996C5.60687 15.7479 6.38754 16.3895 7.09292 16.9063L7.5507 17.2322C7.69869 17.3346 7.84164 17.4307 7.97823 17.5203L8.36758 17.7694L8.71081 17.9788L9 18.1475L9.45455 17.8792L9.82184 17.6498C10.0167 17.5252 10.2273 17.3858 10.4493 17.2322L10.9071 16.9063C11.6125 16.3895 12.3932 15.7479 13.1286 14.996C14.728 13.3608 16 11.3224 16 9C16 5.13401 12.866 2 9 2ZM9 5C11.2091 5 13 6.79086 13 9C13 11.2091 11.2091 13 9 13C6.79086 13 5 11.2091 5 9C5 6.79086 6.79086 5 9 5ZM9 7C7.8954 7 7 7.89543 7 9C7 10.1046 7.8954 11 9 11C10.1046 11 11 10.1046 11 9C11 7.89543 10.1046 7 9 7Z" fill="#23376C"/>
</svg>
