<svg width="21" height="21" viewBox="0 0 21 21" fill="none" xmlns="http://www.w3.org/2000/svg">
<path fill-rule="evenodd" clip-rule="evenodd" d="M7.17155 13.8287C11.0174 17.6745 14.5802 18.0956 15.6259 18.1341C16.8904 18.1806 18.1802 17.1485 18.7376 16.0908C17.848 15.0467 16.6892 14.2369 15.4195 13.3589C14.6712 14.1072 13.7484 15.4975 12.5186 15.0001C11.8203 14.7177 10.0941 13.9228 8.58577 12.4145C7.07739 10.9061 6.28253 9.17993 6.00013 8.48173C5.50231 7.25085 6.89573 6.32636 7.64459 5.5775C6.76704 4.28681 5.97058 3.09842 4.92867 2.25344C3.85725 2.81393 2.81906 4.09394 2.86617 5.37436C2.90465 6.42002 3.32575 9.98293 7.17155 13.8287ZM15.5523 20.1327C14.1114 20.0797 10.0307 19.5163 5.75734 15.2429C1.48395 10.9695 0.920547 6.88886 0.867527 5.44791C0.786727 3.25245 2.46853 1.11926 4.41214 0.286294C4.8682 0.0908341 5.42059 0.126604 5.85727 0.445134C7.4649 1.6178 8.57405 3.39555 9.5266 4.78755C9.9324 5.38061 9.8654 6.18514 9.3502 6.70036L7.99377 8.05673C8.30858 8.75203 8.95085 9.95113 10 11.0002C11.0491 12.0494 12.2482 12.6916 12.9435 13.0065L14.2992 11.6507C14.8149 11.1351 15.6229 11.0671 16.2173 11.4789C17.6373 12.4627 19.305 13.5562 20.521 15.1135C20.8625 15.5509 20.9133 16.1229 20.7096 16.5983C19.8728 18.5509 17.7552 20.2138 15.5523 20.1327Z" fill="#23376C"/>
</svg>
