<svg width="20" height="17" viewBox="0 0 20 17" fill="none" xmlns="http://www.w3.org/2000/svg">
<path d="M13.6842 9.47368C14.2656 9.47368 14.7368 9.00241 14.7368 8.42105C14.7368 7.8397 14.2656 7.36842 13.6842 7.36842C13.1029 7.36842 12.6316 7.8397 12.6316 8.42105C12.6316 9.00241 13.1029 9.47368 13.6842 9.47368Z" fill="#23376C"/>
<path fill-rule="evenodd" clip-rule="evenodd" d="M0 2.10526C0 0.94256 0.942558 0 2.10526 0H16.8421C18.0048 0 18.9474 0.942559 18.9474 2.10526V4.49217C19.5766 4.85618 20 5.53655 20 6.31579V10.5263C20 11.3056 19.5766 11.9859 18.9474 12.3499V14.7368C18.9474 15.8995 18.0048 16.8421 16.8421 16.8421H2.10526C0.942558 16.8421 0 15.8995 0 14.7368V2.10526ZM16.8421 2.10526V4.21053H12.6316C10.3062 4.21053 8.42105 6.09564 8.42105 8.42105C8.42105 10.7465 10.3062 12.6316 12.6316 12.6316H16.8421V14.7368H2.10526V2.10526L16.8421 2.10526ZM12.6316 6.31579C11.4689 6.31579 10.5263 7.25835 10.5263 8.42105C10.5263 9.58376 11.4689 10.5263 12.6316 10.5263H17.8947V6.31579H12.6316Z" fill="#23376C"/>
</svg>
