<svg xmlns="http://www.w3.org/2000/svg" width="29.289" height="43.492" viewBox="0 0 29.289 43.492"><path d="M55.211,60.469a.621.621,0,0,1-.511-.974,12.166,12.166,0,0,0,.922-1.566.622.622,0,1,1,1.118.546A13.449,13.449,0,0,1,55.723,60.2a.621.621,0,0,1-.512.267Z" transform="translate(-29.017 -23.047)" fill="#fff"/><path d="M28.074,48.23a14.648,14.648,0,0,1-5.991-28.013V9.851a.621.621,0,0,1,.621-.621H33.443a.621.621,0,0,1,.621.621V20.217a14.655,14.655,0,0,1,8.655,13.369,13.127,13.127,0,0,1-.091,1.6.621.621,0,1,1-1.233-.152,11.893,11.893,0,0,0,.082-1.446A13.415,13.415,0,0,0,33.2,21.2a.621.621,0,0,1-.383-.573V10.473H23.328V20.625a.621.621,0,0,1-.383.573,13.405,13.405,0,0,0,7.58,25.563.632.632,0,0,1,.739.611.621.621,0,0,1-.543.617A14.646,14.646,0,0,1,28.074,48.23Z" transform="translate(-13.43 -4.738)" fill="#fff"/><path d="M47.941,67.571a.621.621,0,0,1-.311-1.161,12.657,12.657,0,0,0,1.451-.972.621.621,0,0,1,.76.983,13.78,13.78,0,0,1-1.594,1.066.618.618,0,0,1-.307.083Z" transform="translate(-26.263 -25.974)" fill="#fff"/><path d="M37.7,7.733H25.187a2.867,2.867,0,0,1,0-5.733H37.7a2.867,2.867,0,0,1,0,5.733ZM25.187,3.243a1.624,1.624,0,1,0,0,3.248H37.7a1.624,1.624,0,0,0,0-3.248Z" transform="translate(-16.797 -2)" fill="#fff"/><path d="M33.308,41.316a4.908,4.908,0,0,1-2.724-.757,4.043,4.043,0,0,0-4.234,0,5.277,5.277,0,0,1-5.448,0,3.709,3.709,0,0,0-2.117-.6,3.723,3.723,0,0,0-2.123.6,5.463,5.463,0,0,1-1.44.613.621.621,0,1,1-.295-1.207,4.225,4.225,0,0,0,1.128-.49,4.929,4.929,0,0,1,2.729-.756,4.908,4.908,0,0,1,2.724.757,4.045,4.045,0,0,0,4.234,0,5.281,5.281,0,0,1,5.449,0,4.043,4.043,0,0,0,4.234,0,5.271,5.271,0,0,1,5.44,0A4.256,4.256,0,0,0,42,39.966a.621.621,0,1,1-.295,1.207,5.472,5.472,0,0,1-1.441-.613,4.034,4.034,0,0,0-4.225,0,4.908,4.908,0,0,1-2.728.756Z" transform="translate(-13.818 -15.904)" fill="#fff"/></svg>