<svg xmlns="http://www.w3.org/2000/svg" width="46.682" height="44.185" viewBox="0 0 46.682 44.185"><path d="M15.037,57.443H9.409a.669.669,0,0,1-.669-.669V36.492a.669.669,0,0,1,.669-.669h5.629a.669.669,0,0,1,.669.669V56.775A.669.669,0,0,1,15.037,57.443Zm-4.96-1.337h4.292V37.16H10.077Z" transform="translate(-3.833 -13.258)" fill="#fff"/><path d="M44.741,60.778H39.119a.669.669,0,0,1-.669-.669V46.552a.669.669,0,0,1,.669-.669h5.622a.669.669,0,0,1,.669.669V60.109A.669.669,0,0,1,44.741,60.778Zm-4.954-1.337h4.285V47.22H39.787Z" transform="translate(-13.682 -16.593)" fill="#fff"/><path d="M29.887,52.693H24.259a.669.669,0,0,1-.669-.669V22.163a.669.669,0,0,1,.669-.669h5.629a.669.669,0,0,1,.669.669V52.025A.669.669,0,0,1,29.887,52.693Zm-4.96-1.337h4.292V22.831H24.927Z" transform="translate(-8.756 -8.508)" fill="#fff"/><path d="M59.6,56.8H53.969a.669.669,0,0,1-.669-.669V34.552a.669.669,0,0,1,.669-.669H59.6a.669.669,0,0,1,.669.669v21.58A.669.669,0,0,1,59.6,56.8Zm-4.96-1.337h4.292V35.22H54.637Z" transform="translate(-18.605 -12.615)" fill="#fff"/><path d="M47.3,67.5H2.069a.669.669,0,0,1,0-1.337H47.293a.669.669,0,0,1,0,1.337Z" transform="translate(-1.4 -23.316)" fill="#fff"/><path d="M44,16.619c-7.4,0-13.257-6.551-13.5-6.833a.669.669,0,0,1,0-.884C30.744,8.624,36.6,2.069,44,2.069S57.258,8.624,57.506,8.9a.669.669,0,0,1,0,.884c-.247.279-6.107,6.833-13.5,6.833ZM31.924,9.344C33.358,10.79,38.279,15.282,44,15.282s10.645-4.491,12.079-5.937C54.644,7.9,49.725,3.406,44,3.406S33.356,7.9,31.924,9.344Z" transform="translate(-10.991 -2.069)" fill="#fff"/><path d="M46.868,16.619a7.274,7.274,0,1,1,7.274-7.274,7.274,7.274,0,0,1-7.274,7.274Zm0-13.211A5.937,5.937,0,1,0,52.8,9.345a5.937,5.937,0,0,0-5.937-5.937Z" transform="translate(-14.061 -2.07)" fill="#fff"/><path d="M49.184,14.81v-.535a2.963,2.963,0,0,1-1.558-.445l.244-.683a2.713,2.713,0,0,0,1.467.438c.723,0,1.213-.418,1.213-1,0-.561-.4-.907-1.152-1.213-1.039-.407-1.68-.876-1.68-1.762a1.671,1.671,0,0,1,1.538-1.64V7.438h.631v.493a2.715,2.715,0,0,1,1.324.356l-.255.673a2.46,2.46,0,0,0-1.284-.346c-.784,0-1.08.468-1.08.876,0,.529.377.795,1.263,1.161,1.049.428,1.578.958,1.578,1.864a1.772,1.772,0,0,1-1.609,1.731v.564Z" transform="translate(-16.724 -3.849)" fill="#fff"/><path d="M49.86,14.852h-.809v-.535a3.008,3.008,0,0,1-1.523-.462l-.051-.037.3-.842.089.059a2.616,2.616,0,0,0,1.421.424c.664,0,1.128-.376,1.128-.915,0-.49-.319-.818-1.1-1.136-.9-.352-1.732-.82-1.732-1.84a1.741,1.741,0,0,1,1.538-1.71V7.313h.8v.5a2.778,2.778,0,0,1,1.284.365l.061.035-.318.833-.085-.049a2.383,2.383,0,0,0-1.243-.334c-.735,0-1,.427-1,.792,0,.447.283.7,1.212,1.084,1.142.468,1.63,1.047,1.63,1.939a1.849,1.849,0,0,1-1.609,1.8Zm-.642-.167h.475v-.551l.067-.012A1.7,1.7,0,0,0,51.3,12.473c0-.827-.442-1.344-1.526-1.787-.892-.368-1.316-.648-1.316-1.239,0-.477.36-.959,1.163-.959a2.524,2.524,0,0,1,1.24.31l.195-.514a2.674,2.674,0,0,0-1.221-.311h-.081V7.48h-.468V8l-.067.011A1.594,1.594,0,0,0,47.746,9.57c0,.869.65,1.3,1.627,1.685.845.342,1.2.728,1.2,1.29a1.15,1.15,0,0,1-1.3,1.082,2.8,2.8,0,0,1-1.423-.4l-.188.523a2.99,2.99,0,0,0,1.459.4h.082Z" transform="translate(-16.674 -3.807)" fill="#fff"/></svg>