<svg xmlns="http://www.w3.org/2000/svg" width="30.175" height="44.784" viewBox="0 0 30.175 44.784"><path d="M33.6,34.072a12.871,12.871,0,0,1-2.984-.353,12.708,12.708,0,1,1,2.984.353Zm-.045-24.3a11.541,11.541,0,1,0,2.685.32,11.541,11.541,0,0,0-2.685-.32Z" transform="translate(-16.123 -4.371)" fill="#fff"/><path d="M37.439,42.741a.639.639,0,0,1-.6-.859A13.539,13.539,0,0,1,50.947,33.2a.639.639,0,1,1-.15,1.27A12.261,12.261,0,0,0,38.039,42.32a.639.639,0,0,1-.6.421Z" transform="translate(-21.864 -13.195)" fill="#fff"/><path d="M23.717,18.276a12.687,12.687,0,0,1-1.486-.087.64.64,0,1,1,.15-1.27A12.093,12.093,0,0,0,30.1,15.169a12.1,12.1,0,0,0,5.04-6.1.639.639,0,1,1,1.2.439,13.386,13.386,0,0,1-5.573,6.751,13.506,13.506,0,0,1-7.049,2.019Z" transform="translate(-16.406 -4.368)" fill="#fff"/><path d="M40.551,33.386A7.7,7.7,0,0,1,36.5,31.96a21.108,21.108,0,0,1-6.142-6.626c-3.757-6.1-4.295-12.367-1.224-14.258,1.538-.946,3.681-.631,6.034.891a21.124,21.124,0,0,1,6.141,6.627,21.135,21.135,0,0,1,3.148,8.469c.3,2.785-.384,4.841-1.924,5.788a3.724,3.724,0,0,1-1.982.535Zm-9.434-21.56a2.465,2.465,0,0,0-1.311.34c-2.378,1.463-1.627,7.186,1.642,12.5A19.824,19.824,0,0,0,37.2,30.886c1.888,1.221,3.589,1.54,4.667.875s1.562-2.327,1.322-4.562a19.824,19.824,0,0,0-2.962-7.935,19.833,19.833,0,0,0-5.748-6.222A6.5,6.5,0,0,0,31.117,11.826Z" transform="translate(-18.382 -5.051)" fill="#fff"/><path d="M43.141,33.177a.639.639,0,0,1-.545-.3L29.867,12.189a.639.639,0,1,1,1.087-.67L43.683,32.2a.639.639,0,0,1-.544.974Z" transform="translate(-19.323 -5.283)" fill="#fff"/><path d="M24.2,31.45a.639.639,0,0,1-.336-1.184L44.549,17.537a.639.639,0,1,1,.671,1.087L24.536,31.355a.639.639,0,0,1-.335.1Z" transform="translate(-17.09 -7.533)" fill="#fff"/><path d="M14.639,34.695a.639.639,0,0,1-.616-.469,15.842,15.842,0,0,1-.406-1.893.639.639,0,1,1,1.265-.186,14.556,14.556,0,0,0,.373,1.738.639.639,0,0,1-.448.787A.654.654,0,0,1,14.639,34.695Z" transform="translate(-13.501 -12.646)" fill="#fff"/><path d="M32.2,50.508h-.182a17.574,17.574,0,0,1-14.782-8.363c-.064-.107-.1-.168-.136-.234a.64.64,0,1,1,1.144-.575c.015.031.035.06.053.091a16.273,16.273,0,0,0,22.428,5.386.639.639,0,0,1,.669,1.087A17.541,17.541,0,0,1,32.2,50.508Z" transform="translate(-14.734 -16.03)" fill="#fff"/><path d="M14.08,18.67a.693.693,0,0,1-.072,0,.639.639,0,0,1-.564-.707,17.473,17.473,0,0,1,8.248-13,.639.639,0,1,1,.671,1.087A16.2,16.2,0,0,0,14.715,18.1a.639.639,0,0,1-.636.57Z" transform="translate(-13.44 -2.996)" fill="#fff"/><path d="M44.724,35.75a.639.639,0,0,1-.545-.3L24.186,2.958a.639.639,0,1,1,1.087-.67l20,32.488a.639.639,0,0,1-.544.974Z" transform="translate(-17.274 -1.954)" fill="#fff"/><path d="M36.928,60.545H31.271a.639.639,0,0,1-.639-.639V52.894a.639.639,0,0,1,1.279,0v6.372h4.378V53.933a.639.639,0,1,1,1.279,0v5.973A.639.639,0,0,1,36.928,60.545Z" transform="translate(-19.64 -20.095)" fill="#fff"/><path d="M38.786,68.834H24.6a.639.639,0,0,1-.639-.639V66.448a3.23,3.23,0,0,1,3.226-3.226H36.2a3.229,3.229,0,0,1,3.226,3.226v1.747A.639.639,0,0,1,38.786,68.834ZM25.242,67.556h12.9V66.448A1.95,1.95,0,0,0,36.2,64.5H27.189a1.949,1.949,0,0,0-1.947,1.947Z" transform="translate(-17.235 -24.05)" fill="#fff"/></svg>