<svg xmlns="http://www.w3.org/2000/svg" width="50.367" height="35.251" viewBox="0 0 50.367 35.251"><path d="M52.332,43.609a2.985,2.985,0,0,1-1.568-.446L42.67,38.325a.719.719,0,1,1,.738-1.236l8.1,4.842a1.568,1.568,0,1,0,1.71-2.629L45.7,34.211c-.129-.088-.274-.187-.432-.288a.72.72,0,1,1,.768-1.216c.173.109.334.216.473.312l7.518,5.091a3.009,3.009,0,0,1-1.695,5.5Z" transform="translate(-13.308 -18.135)" fill="#fff"/><path d="M45.063,54.643a3.052,3.052,0,0,1-1.417-.347l-5.173-2.7a.72.72,0,0,1,.666-1.275l5.172,2.7a1.643,1.643,0,0,0,1.644-2.841l-5.325-3.391a.72.72,0,1,1,.773-1.214l5.325,3.391a3.079,3.079,0,0,1-1.666,5.677Z" transform="translate(-12.126 -21.747)" fill="#fff"/><path d="M32.53,55.3a3.115,3.115,0,0,1-1.4-.33l-9.319-4.662a13.645,13.645,0,0,1-2.559-1.663l-2.9-2.388q-.409-.338-.791-.705l-5.072-4.9a.72.72,0,1,1,1-1.035l5.073,4.9q.34.33.705.63l2.9,2.387a12.21,12.21,0,0,0,2.288,1.487l9.319,4.661a1.714,1.714,0,0,0,2.231-.656l1.014-1.71a.72.72,0,0,1,1.238.733l-1.015,1.711A3.157,3.157,0,0,1,32.53,55.3Z" transform="translate(-4.32 -20.052)" fill="#fff"/><path d="M20.39,24.805a9.642,9.642,0,0,1-4.129-.986.72.72,0,1,1,.648-1.287,7.843,7.843,0,0,0,4.7.72.72.72,0,0,1,.087-.012l.232-.017a11.674,11.674,0,0,1,2.708-.093.721.721,0,0,1-.088,1.439,10.57,10.57,0,0,0-2.455.085l-.244.02A7.667,7.667,0,0,1,20.39,24.805Z" transform="translate(-5.889 -15.294)" fill="#fff"/><path d="M40.105,30.5a.72.72,0,0,1-.382-.11l-6.082-3.824a2.144,2.144,0,0,0-2.192-.055l-3.429,1.926-.9.7a.719.719,0,0,1-.127.08A7,7,0,0,1,22.632,30a2.1,2.1,0,0,1-1.175-3.437L23.6,24.066a8.329,8.329,0,0,1,.75-.774,22.09,22.09,0,0,1,5.209-3.549,7.2,7.2,0,0,1,4.3-.589l4.284.692c4.573.521,5.972-.634,6.116-.767a.72.72,0,1,1,.974,1.059c-.572.526-2.426,1.687-7.289,1.133l-4.288-.693a5.8,5.8,0,0,0-3.467.461,20.651,20.651,0,0,0-4.873,3.323,6.873,6.873,0,0,0-.621.643L22.547,27.5a.661.661,0,0,0,.365,1.086,5.556,5.556,0,0,0,3.385-.63l.881-.689a.634.634,0,0,1,.09-.06l3.475-1.953a3.581,3.581,0,0,1,3.663.091l6.082,3.824a.72.72,0,0,1-.384,1.328Z" transform="translate(-7.313 -14.291)" fill="#fff"/><path d="M57.28,39.82a.72.72,0,0,1-.689-.935c.729-2.362,4.193-3.947,4.34-4.013a.72.72,0,1,1,.592,1.312c-.838.379-3.111,1.682-3.556,3.125A.72.72,0,0,1,57.28,39.82Z" transform="translate(-17.301 -18.759)" fill="#fff"/><path d="M66.826,27.665a.72.72,0,0,1-.625-.36l-.64-1.123a.72.72,0,1,1,1.249-.713l.641,1.122a.72.72,0,0,1-.625,1.079Z" transform="translate(-19.796 -16.032)" fill="#fff"/><path d="M61.485,31.79a1.727,1.727,0,0,1-.459-.063A1.69,1.69,0,0,1,60,30.921L52,16.836a1.682,1.682,0,0,1-.161-1.3,1.717,1.717,0,0,1,.8-1.031l3.142-1.779a1.709,1.709,0,0,1,2.328.648l1.228,2.162a.72.72,0,1,1-1.251.711l-1.23-2.166a.265.265,0,0,0-.161-.127.27.27,0,0,0-.207.024l-3.134,1.777a.283.283,0,0,0-.13.168.256.256,0,0,0,.024.2l8,14.093a.263.263,0,0,0,.16.126.277.277,0,0,0,.207-.024l3.134-1.776a.273.273,0,0,0,.105-.368l-.988-1.745a.72.72,0,1,1,1.252-.709l.986,1.741a1.713,1.713,0,0,1-.641,2.331l-3.141,1.779a1.71,1.71,0,0,1-.839.221Z" transform="translate(-15.961 -12.503)" fill="#fff"/><path d="M63.849,22.43a.72.72,0,0,1-.628-.367l-.619-1.1a.72.72,0,0,1,1.255-.705l.619,1.1a.72.72,0,0,1-.627,1.072Z" transform="translate(-18.97 -14.575)" fill="#fff"/><path d="M7.135,37.111a1.713,1.713,0,0,1-.535-.086L3.177,35.9a1.71,1.71,0,0,1-1.09-2.159L7.152,18.354a1.715,1.715,0,0,1,2.159-1.09l3.424,1.128a1.714,1.714,0,0,1,1.091,2.159L8.764,35.935A1.715,1.715,0,0,1,7.135,37.111ZM8.778,18.619a.273.273,0,0,0-.259.187L3.454,34.187a.272.272,0,0,0,.173.343l3.424,1.128a.277.277,0,0,0,.208-.016.272.272,0,0,0,.138-.158L12.462,20.1a.273.273,0,0,0-.173-.344L8.863,18.633a.268.268,0,0,0-.085-.016Z" transform="translate(-2 -13.814)" fill="#fff"/><path d="M49.711,49.98a3.052,3.052,0,0,1-1.645-.481L40.055,44.56a.72.72,0,1,1,.755-1.223l8.024,4.942a1.623,1.623,0,1,0,1.727-2.746l-7.318-4.37a.719.719,0,1,1,.738-1.236L51.307,44.3a3.064,3.064,0,0,1-1.6,5.679Z" transform="translate(-12.569 -20.166)" fill="#fff"/></svg>