<svg xmlns="http://www.w3.org/2000/svg" width="33.221" height="46.562" viewBox="0 0 33.221 46.562"><path d="M13.085,20.171a.665.665,0,0,1-.665-.665v-.359A16.481,16.481,0,0,1,34.277,3.571a.665.665,0,1,1-.434,1.258A15.145,15.145,0,0,0,13.75,19.147v.359A.665.665,0,0,1,13.085,20.171Z" transform="translate(-12.165 -2.67)" fill="#fff"/><path d="M59.607,34.925a.665.665,0,0,1-.665-.665V23.211a15.114,15.114,0,0,0-1.936-7.41.665.665,0,1,1,1.159-.653,16.444,16.444,0,0,1,2.108,8.064V34.26A.665.665,0,0,1,59.607,34.925Z" transform="translate(-27.064 -6.734)" fill="#fff"/><path d="M52.428,9.868a.665.665,0,0,1-.46-.185A13.969,13.969,0,0,0,50.552,8.5a.665.665,0,1,1,.786-1.074,15.153,15.153,0,0,1,1.55,1.294.665.665,0,0,1-.46,1.145Z" transform="translate(-24.84 -4.22)" fill="#fff"/><path d="M44.582,36.878h-.021a5.179,5.179,0,0,1-4.871-4.4.665.665,0,0,1-.009-.109V21.3a10.77,10.77,0,1,0-21.541-.057c0,4.058-3.52,5.421-5.382,5.576a.665.665,0,1,1-.111-1.326c.17-.015,4.163-.411,4.163-4.25a12.1,12.1,0,1,1,24.2.057V32.311A3.883,3.883,0,0,0,44.6,35.548a.665.665,0,0,1-.021,1.33Z" transform="translate(-12.037 -4.848)" fill="#fff"/><path d="M43.8,44.122c-.078,0-7.835-.1-8.793-8.724a.532.532,0,0,1,0-.073V23.579a6.111,6.111,0,1,0-12.222,0,9.963,9.963,0,0,1-.372,2.731c-.645,2.266-2.838,7.5-9.353,7.27a.665.665,0,0,1-.641-.69.655.655,0,0,1,.69-.64c5.368.2,7.331-3.865,8.024-6.3a8.61,8.61,0,0,0,.321-2.367,7.442,7.442,0,1,1,14.883,0V35.286c.848,7.419,7.2,7.505,7.468,7.505a.665.665,0,1,1,0,1.33Z" transform="translate(-12.164 -7.179)" fill="#fff"/><path d="M13.86,45.606a.665.665,0,0,1-.075-1.326C27.848,42.671,30.159,31.238,30.5,26.4a1.672,1.672,0,0,0-.448-1.271A1.639,1.639,0,0,0,28.84,24.6a1.663,1.663,0,0,0-1.663,1.663,11.5,11.5,0,0,1-.067,1.29c-1.5,13.38-14.28,13.535-14.408,13.535a.665.665,0,1,1,0-1.33c.478,0,11.72-.17,13.088-12.353a10.31,10.31,0,0,0,.059-1.141,3,3,0,0,1,2.993-2.993,2.959,2.959,0,0,1,2.184.951,3.033,3.033,0,0,1,.8,2.272c-.364,5.172-2.836,17.388-17.89,19.111q-.037,0-.075,0Z" transform="translate(-12.037 -9.567)" fill="#fff"/><path d="M42.18,59.329a.673.673,0,0,1-.223-.039,14.47,14.47,0,0,1-8.977-9.074c-6.35,8.111-14.445,8.209-14.8,8.209a.665.665,0,1,1,0-1.33c.084,0,8.5-.129,14.535-8.752a.665.665,0,0,1,1.2.266A13.134,13.134,0,0,0,42.4,58.036a.665.665,0,0,1-.223,1.293Z" transform="translate(-13.871 -17.867)" fill="#fff"/><path d="M25.309,67.035a.665.665,0,0,1-.192-1.3A22.417,22.417,0,0,0,34.2,60.494a.665.665,0,0,1,1.09.178c1.131,2.461,5.634,4.742,5.679,4.764a.665.665,0,1,1-.595,1.19c-.184-.092-4.124-2.082-5.842-4.609A24.23,24.23,0,0,1,25.5,67.007.7.7,0,0,1,25.309,67.035Z" transform="translate(-16.257 -21.959)" fill="#fff"/><path d="M36.856,71.427a.665.665,0,0,1-.349-1.233l1.807-1.11a.665.665,0,1,1,.7,1.131L37.2,71.326A.661.661,0,0,1,36.856,71.427Z" transform="translate(-20.123 -24.865)" fill="#fff"/></svg>