<svg xmlns="http://www.w3.org/2000/svg" width="40.537" height="40.537" viewBox="0 0 40.537 40.537"><path d="M1.351,37.158V13.512H29.727v6.756h1.351V3.378A3.382,3.382,0,0,0,27.7,0H3.378A3.382,3.382,0,0,0,0,3.378v33.78a3.382,3.382,0,0,0,3.378,3.378H24.322V39.185H3.378A2.027,2.027,0,0,1,1.351,37.158ZM3.378,1.351H27.7a2.027,2.027,0,0,1,2.027,2.027v8.783H1.351V3.378A2.027,2.027,0,0,1,3.378,1.351Zm0,0" fill="#fff"/><path d="M33.351,40.107H56.322a1.351,1.351,0,0,0,1.351-1.351v-5.4A1.351,1.351,0,0,0,56.322,32H33.351A1.351,1.351,0,0,0,32,33.351v5.4A1.351,1.351,0,0,0,33.351,40.107Zm0-6.756H56.322v5.4H33.351Zm0,0" transform="translate(-29.298 -29.298)" fill="#fff"/><path d="M176,72h1.351v1.351H176Zm0,0" transform="translate(-161.137 -65.92)" fill="#fff"/><path d="M208,72h1.351v1.351H208Zm0,0" transform="translate(-190.434 -65.92)" fill="#fff"/><path d="M144,72h1.351v1.351H144Zm0,0" transform="translate(-131.839 -65.92)" fill="#fff"/><path d="M57.673,196.054v-2.7A1.351,1.351,0,0,0,56.322,192H33.351A1.351,1.351,0,0,0,32,193.351v17.566a1.351,1.351,0,0,0,1.351,1.351h16.86v-1.351h-.645V193.351h6.756v2.7Zm-17.566-2.7v8.107H33.351v-8.107Zm-6.756,9.459h6.756v8.107H33.351Zm8.107,8.107V202.81h6.756v8.107Zm6.756-9.459H41.459v-8.107h6.756Zm0,0" transform="translate(-29.298 -175.785)" fill="#fff"/><path d="M65.351,236.054H66.7V234.7h1.351v-1.351H66.7V232H65.351v1.351H64V234.7h1.351Zm0,0" transform="translate(-58.595 -212.407)" fill="#fff"/><path d="M161.375,236.242l.955.955.955-.955.955.955.955-.955-.955-.955.955-.955-.955-.955-.955.955-.955-.955-.955.955.955.955Zm0,0" transform="translate(-147.747 -213.667)" fill="#fff"/><path d="M64,360h4.054v1.351H64Zm0,0" transform="translate(-58.595 -329.598)" fill="#fff"/><path d="M160,360h4.054v1.351H160Zm0,0" transform="translate(-146.488 -329.598)" fill="#fff"/><path d="M176,336h1.351v1.351H176Zm0,0" transform="translate(-161.137 -307.624)" fill="#fff"/><path d="M176,384h1.351v1.351H176Zm0,0" transform="translate(-161.137 -351.571)" fill="#fff"/><path d="M274.8,264.408l-1.238-1.854v-2.5a.676.676,0,0,0-.2-.478l-1.351-1.351a.676.676,0,0,0-.478-.2H270l-.522-1.565a.676.676,0,0,0-.641-.462h-2.027a.676.676,0,0,0-.478.2l-.874.874-.874-.874a.676.676,0,0,0-.478-.2H262.08a.676.676,0,0,0-.641.462l-.522,1.565h-1.54a.675.675,0,0,0-.478.2l-1.351,1.351a.676.676,0,0,0-.2.478v2.5l-1.238,1.857a.678.678,0,0,0-.114.373v3.378a.676.676,0,0,0,.2.478l1.829,1.829v1.071a.676.676,0,0,0,.512.655l2.343.586.559,1.675a.676.676,0,0,0,.641.462h2.027a.675.675,0,0,0,.478-.2l.874-.873.874.873a.675.675,0,0,0,.478.2h2.027a.676.676,0,0,0,.641-.462l.559-1.675,2.343-.586a.676.676,0,0,0,.512-.655v-1.071l1.829-1.829a.676.676,0,0,0,.2-.478v-3.378A.681.681,0,0,0,274.8,264.408Zm-10.976,9.158h-1.26l-.39-1.169,1.056-1.056a.676.676,0,0,0,.2-.478v-.676H262.08v.4l-.883.883-1.819-.455v-3.526h-1.351v1.072l-.676-.676v-2.9l.78-1.171.571.57v.4h1.351v-.676a.676.676,0,0,0-.2-.478l-1.153-1.153v-2.143l.955-.955h1.467l.955.955v.4h1.351v-.676a.676.676,0,0,0-.2-.478l-1.056-1.056.39-1.169h1.26l.955.955v14.3Zm9.738-5.685-.676.676v-1.072h-1.351v3.526l-1.819.455-.883-.883v-.4h-1.351v.676a.676.676,0,0,0,.2.478l1.056,1.056-.39,1.169h-1.26l-.955-.955v-14.3l.955-.955h1.26l.39,1.169-1.056,1.056a.676.676,0,0,0-.2.478v.676h1.351v-.4l.955-.955h1.467l.955.955v2.143l-1.153,1.153a.676.676,0,0,0-.2.478v.676h1.351v-.4l.571-.57.78,1.169Zm0,0" transform="translate(-234.38 -234.381)" fill="#fff"/><path d="M394.5,330.9l-1.153-1.153V328H392v2.027a.676.676,0,0,0,.2.478l1.351,1.351Zm0,0" transform="translate(-358.895 -300.3)" fill="#fff"/><path d="M403.3,386.344l-.955.955.478.478v1.071h1.351V387.5a.676.676,0,0,0-.2-.478Zm0,0" transform="translate(-368.365 -353.717)" fill="#fff"/><path d="M315.5,329.748l-1.153,1.153.955.955,1.351-1.351a.675.675,0,0,0,.2-.478V328H315.5Zm0,0" transform="translate(-287.797 -300.301)" fill="#fff"/><path d="M312.2,387.02a.676.676,0,0,0-.2.478v1.351h1.351v-1.071l.478-.478-.955-.955Zm0,0" transform="translate(-285.651 -353.717)" fill="#fff"/></svg>