<svg xmlns="http://www.w3.org/2000/svg" height="48" viewBox="0 0 20 20" width="48"><path fill="none" d="M0 0h20v20H0z"/><circle cx="8.5" cy="7.5" fill-rule="evenodd" r="2.5"/><path d="M10.99 9.95A2.5 2.5 0 1011.5 5c-.17 0-.34.02-.51.05.62.63 1.01 1.5 1.01 2.45s-.39 1.82-1.01 2.45zM8.5 11c-1.84 0-5.5.66-5.5 2.23v1.27c0 .28.22.5.5.5h10c.28 0 .5-.22.5-.5v-1.27C14 11.66 10.34 11 8.5 11zm5.23.23c.75.48 1.27 1.12 1.27 2V15h1.5c.28 0 .5-.22.5-.5v-1.27c0-1.05-1.64-1.69-3.27-2z" fill-rule="evenodd"/></svg>