<svg xmlns="http://www.w3.org/2000/svg" width="174" height="210" viewBox="0 0 5320 6423" shape-rendering="geometricPrecision" text-rendering="geometricPrecision" image-rendering="optimizeQuality" fill-rule="evenodd" clip-rule="evenodd"><defs><style>.fil14{fill:#572721}.fil8{fill:#983822}.fil0{fill:#b15b24}.fil10{fill:#c76c35}.fil15{fill:#cc8448}.fil1{fill:#ce3a22}.fil3{fill:#db6d2e}.fil13{fill:#e18b45}.fil4{fill:#e59e55}.fil2{fill:#e8b179}.fil7{fill:#ebbc8b}.fil16{fill:#ede1c8}.fil6{fill:#f3d2a2}.fil9{fill:#f7deb5}.fil11{fill:#fbeeda}.fil5{fill:#fffffe}</style></defs><g id="Слой_x0020_1"><path class="fil0" d="M4030 872l61-36c272-126 401-19 629 34 70 39 26-15 56 66 21 56 6 18 6 94-100-2-6 23-82-40 10 148 61 67 2 113-77 59 17-28-58-22-52 67 1 20-74 51 0 52 7 2-76 22 77 15 119 1 188 23 71 23-14 45 141 43 54-77 33-77 31-104 0-1-16-69-17-113l80 60c49 38 19 5 54 47 49 59 139 382 140 435l-36 7c-118 6-81-45-239-26l15-281c-173 29-21-5-80 38-45 33-17 30-9 27-34-25-73-32-136-37-66-5-58-8-106 5-43-97 18-40 0-91-109 10-68 19-149 45-4 1-11 3-15 4s-11 2-15 3c-95 23-71 11-87 34 98 13 31-32 88 36 27 87-51-57 101-25-27 92 19 69-63 106 116-41 42-61 139 25 91-91 58-52 155-40 64 54 144 134 178 205 3 5 4 13 7 18s4 13 7 18l19 33c96 130 232 178 186 287l-46 44 25 62 29 124c47 183 12 128-3 142-40-54-49-41-135-49 52 96 89 92 85 168-83-57-49-81-169-81 92-145 62-22 43-83-115 19-52-4-80 48 56 101-19 113-49 138 34 16 36 13 55 22 62 28 25 9 52 29-26 85-24 42-76 108 55 19 50 28 66 67l9 31c94-51 18-35 84-66-10 50 2 48-40 104l-28 31c-68 50-52-71-123 29l16 31s36-52-50 1c-42 26-18 5-32 50-8 28-3 76-4 85-162 52-145-1-187 78-55 103 14 47 16 49 25 24 9-95 32 24l-63 65c-75-23-92-39-125-104l-35-91-58 73c-21 32-17 36-33 67 46 46-77 18 75 39 242 58-55 104 248 146-21 94 6 6-54 105 142 39 50-12 95 63-11 41-33 74-33 77-16 56-9 13-1 58 3 15 80 53-45 137-19 28-2 10-27 38-18 20-15 23-45 43 193-12 33 38 158 46 5 3 47 26 61 33l252-499c22-63-18-128-3-238 294-159 112-344 192-791 76-426 280-448 174-791 1 55 3 47-7 94-2 8-12 27-13 24-2-3-11 14-17 22-79-133-35-291-81-399-57-133-263-370-328-406-33-41-53-53-71-74-41-47-30-16-48-91l-167-10c-158-14-207-16-368-2-186 15-179 4-247 102 40 34-80 97 86 19z"/><path class="fil0" d="M2803 201c579 63 1279 75 1836 187-397 25-1219-120-1774-86 50 71-52-4 60 64l110-8c105 2 1484 70 1597 150-638 11-1218-107-1875-74 29 36 19 52 59 72 79-12 385-9 491-10 165-2 308 13 471 22 205 11 688 41 825 109l-665-34c-25 0-77 1-98 0-472-21-435-33-978-23-194-17-418 34-582 2-71 48-39 27-212 32-115 3-624 2-668 20l971-8c98 13 77 15 178 8 137-10 108-20 150 27 317-29 727-18 1063-24 235-4 781 71 960 136 6-10-25-64 156-17 50 13 107 33 147 44l40 85c6 8 5 27 36 25l43-17 31 157c-1-16-8-70-2-86 32-90-39 6 46-62-2-6-7-21-8-17l-75-225c-14-64-19-32-8-60-52-63-69-77-115-157-107 115 14 33-278-59-228-72 66-98-178-192l207-2c-57-42-212-51-300-53-90 24-38-15-81 41 74 58 41 11 36 47-105 17-47 5-118 52l-36-142c-116 22-190-8-292 17 39 58 15 31 86 49 188 48 32 3 171 56l-402-13-91-16-531-34c28-51 17-29 40-53 5-6 36-27 37-27-110-2-170 17-263-1-129-25-105 14-117 49-51-15 3 7-59-30-40-24 16 5-50-34-58 132-26 33-147 102l157 8z"/><path class="fil1" d="M2408 4755c7 138 40 204-3 314-25 149-66 286-139 378 232 56 485-17 556 5l27-24c71-58 57-34 78-101l88 47c1 1 5 3 8 4l16-50 13-506-54-329-13-42-100 32c30-268 53-62-37-312-117 25 5 55-114 58-38-197 16-23 57-201-177 7-106-3-234 119-53 51-107 102-145 169 42 83 34 44 85 126-50 99-31 65-94 114l5 199z"/><path class="fil2" d="M1071 248c-61 26-209 51-291 48l-269-66c-26 7-150 59-162 68-4 4-10 9-14 12-115 117 53-65-40 63-26 35-16 35-58 50 25 64 42 8 81 97l-125 75c56 28 11 2 51 55 5 6 18 27 22 33 37 49-21 6 37 45 69-101 273-84 535-132 247-45 334-97 597-89 255 8 1192 39 1381-1-41-20-31-35-59-72 657-34 1237 84 1875 74-113-79-1492-148-1597-150-28 78-17 43-312 52l-680 46c-491 5-893 19-1372 105-163 29-154 72-223 8 39-51 14-32 97-49 371-78 668-172 1050-130 371 41 935-27 1331-24-112-68-11 7-60-64 555-34 1377 112 1774 86-557-111-1257-124-1836-187-155-9-378-12-502 38l689 5c-171 78-1245 61-1522 99l-728 93c-5 0-56 2-63 1-67-8-19 5-61-22 74-64 13-36 146-55 469-71 669-122 1200-107l-374 11 85-89c10-7 76-33 77-33l176-19c186-29 217-69 379-27 143-44-24-20 100-47 41-9 46-3 92-16 53-15 47-12 77-32-160 1-301 14-454 18-77 2-153-1-230 4-296 17-256 178-470 189-134 7-110 55-349 37z"/><path class="fil3" d="M1769 2767l-18 104c-53-15-39-39-87-62-82 109-50-3-101 91-35 66-9 55-24 150 39 81 13 56 69 111l-66 103-18 77-98 22-5 11c53 45 76 64 115 117 16-42-10-57 25-97 104-2 42-22 111 38-90 110-137-4-58 154-150-20-50 41-94-75-98 242-102 33-161 233l-73 2-18-8-77 25c39 194-9 121-118 210l35 81c21 59 16-28 8 50l6-9c129-79 50 37 102-90 87 42 54 55 62 59 3 2 81 3 114 6 215 19 158-36 225 89-136-61-138-57-185-20 116 63 175 111 264 110 142 0 27 11 34-9 11 142-2 20-52 103-2 4-8 10-9 15-2 4-5 12-6 16-17 69-5-21 21 107 23 114-54 16 15 93 60 68 66 19 114 132-92-63-62-69-163-44-63 15-67-20-99 44-12 23-6 16 2 44 15 54 13 27 27 50 73-116 0-50 78-80 94-37 99 28 99 28 109 3 59-7 84-26-25-143-46-283-56-430-5-71-7-157-5-228l23-149c17-45 17-39 36-63-11-203 163-409 229-543v-45c-6-110-7 1-80-85l21-108c82 63 23 33 51 143 6-5 13-11 17-15l69-68-51-28c6-16 26-58 26-61 1-4 1-13 1-17l-17-57 5 7-52-22c-22 76 31 86-186 108 18-48 5-48 92-84-40-42-66-96-87-182-69-27-29 8-61-59-67 34-51-38-55 32z"/><path class="fil3" d="M995 4148c-80 142-169 337-235 464 83 155-20 138-146 209-7 126 44 45-3 191-73-26-39-25-77-53-51-37 68-14-60-31-140 2-183 20-231-26l-97-85c-3 5-9 11-11 14s-9 10-12 13c-42 52-32 21-49 78l33 60c12-47 54-48 92-36-41 136-82 39-54 214 129 41 51 58 180 117 117 25 100-37 106-127 46 104-9 22 83 124l-29 95 31 8c-2-84 5-53 106-59 30-2 144 5 182 5 0-52 11-33-50-41l-31 33-71-17-97-23c137-113 92-25 304-69 69-15 58-14 103-65l21 55 12 6c22-25 41-42 69-72 32-35 21-5 43-63l92 7c48-15 135-84 192-123 101-68 114-49 194-87l37-22c-125-16-146-3-244 61 31-126 2-22 99-141-149-32-55 47-117-62-38 132-197 139-157-103l-113 25c91 169 42 118 13 158l-72-126c-81 124 106 117-162 145 25-183 19-111 49-166 41-75 44-61 44-159 147-21 73 5 167-62 58-41 100 36 118-109-92 29-47 39-109-12l17-76 70 2c1 0 62-14 70-15-114-81 26-42-185-37 5-81-12-29 14-70l-6 9c-153-3 20-19-63 7-18 6-36 29-40 22-4-6-13 10-19 15z"/><path class="fil0" d="M3977 2578c12 50 44 102 22 181-3 11-16 38-21 53-33 92-1 61-48 95-27 137-5 33-32 78-4 6-15 53-25 30-2-4-10 9-14 14l30 92c-126-3-59-10-85 26l57-6c-14 40-25 65-48 95-45 68-4 21-52 69 109 26 175 75 332 105 68 13 21 1 78 18 169 50 130 83 125 177-66-30-189-35-289-46-70-9-53-12-124-1l-124 7c-14 3-54 17-56 18-72 18-29 21-118 10l-198 92c-65 45-64 31-100 77l85 25c41-50 91-62 164-76 82-16 108-10 201-15 134-8 214-12 292-68 51-37-50-5 57-42l120 121c44 64 37-128 37 80 92-35 46-24 111 1-23 36-6 52-135 79-74 15-62 9-103-7l-38-22c-54 51 17 17-178 23-86 3-141-5-213 12l-58 152 150 10c-112-19-70 7-92 22l315 47c63-80-57-5 65-169 4 5 11 6 13 15l36 69c10 33 15 76 20 111l52-40c16-9 47-22 71-32 56-23 81-35 148-51-66 151-171 57-288 200 86-34 30-21 52 15l72-38 81 14-7-79c86-25 102-34 153-91 3-109-18-103-10-191 30-20 27-23 45-43 25-28 7-10 27-38l-28-74c-12-69 6-36 7-115-179-120-192-107-169-255-164 30 27 33-146 54 32-46-4 1 34-46 110-134 70-36 98-146l-109 38c-28-59 29-125-40-135-4-1-17-2-21-3-36-5 45 30-29-3 68-119 26-238-37-352 8-95 10-43-19-103-20-42-63 36-9-86-106-43-2-17-94-50l9 102z"/><path class="fil4" d="M3180 972c78-11 92-16 177 37-1 7-3 17-4 21-38 145-39 76-45 76l-153-1c-24-42-5-9-5-25-2-83 27 65 5-14-69-27-77-44-123-88-34 10-56 21-61 22l-59 17c-8-9-23 6-34 9l13-52c-153 17-121-37-164 96-47-52-48-91-48-91-99 90-110 15-181 111l-103 39c68 47 86-13 229-16l98-16c55 1 26 13 78-17l26-26c42 90-42 19 0 99 64-1 168-22 218-4l34 23c15 31 6 20-13 86 79-8 42-13 128 8 212 51 99 2 240 25 7 13 85-28-4 98 18-1 6-19 63-15l42 8-76 116c-76 1-191-37-251-71-72-41-24-7-53-37l-443-7-12 12 132 49c122 30 401-45 626 262l169 3-79-64c-4-2-12-6-17-10 57-150-20-79 55-183 50 20 86 50 96 127l3 32c-5 41-12 42-30 71 37 0 4-2 47 25 133 76 38 92 202 111l47 2c31-102 42-252 141-301 84 157-85-61 19 95 108-57 26-20 95-91 26-27 99-70 123-79 114-40 246 9 344 43l2-116c-97-11-64-51-155 40-97-85-23-65-139-25-97 23-30 4-46-2l-47-25c-68 57-149 49-247 100-140 74-69 149-229 135-55-80-10-109-23-187-84 27-70 14-108-97-21-59-41-114-70-159-27-43-167-228-214-264l48-5c-51-86-32-68-134-98 28 77 2 26-20 94-16 49-28-13 0 75l-111 15z"/><path class="fil5" d="M930 1686l-11 279c14 107-97-112 46 166 2 4 5 11 7 15l7 26c1 2 1 10 1 12v11l79 5c125 23 168 18 295-12l33-6h45c5-3 11-14 13-10s10-8 13-10c85-63 37-38 118-62-1-1-138-76 51-118 36-104 6 19-13-119-15-108 50-222-146-414-4-4-10-10-15-14-4-4-12-11-15-14-4-3-10-10-15-15l-292 10c-65 46-200 165-202 271z"/><path class="fil3" d="M315 2844c-56 125-42 262-50 410-6 102-35 254-51 378 58 18 119 57 134 156-93-9-23 27-131-78l-32-28-39 202c0 99 64 29 104 29 5 0 12-2 17-1 7 0 49 7 55 8 61 9 131 25 181-7l-25-126c14-67-13-43-100-168 110 39 23 40 136 80l45-61c-28-26 13-12-47-39-53-25-17-10-76-17 81-68 33-72 116-84 63-44 20 3 36-73-18-56 20-1-44-24l-42-12c-9-3-16-6-24-9l-52-23c208-168 191-133 90-303l85-34 19 100 150 2c-52-84 35-18-52-111 87 1 1-8 84 13 53-68 30-21 36-128-73 27-87 55-174 47 1-130-21-9 41-108l109 20c4-7 14 9 20 13l4-106 77-6c-19-99 57-12-42-47-162-58-15-18-92 37l-77 41c-43-66 102-25-109-180l-73-18c-43 91-49 38-81 145l65 49c-125-15-110-1-190 61z"/><path class="fil1" d="M1124 4095c-26 41-9-11-14 70 211-5 71-43 185 37-8 1-69 15-70 15l-70-2-17 76c63 51 18 41 109 12-18 146-60 68-118 109-94 67-20 42-167 62 0 98-3 84-44 159-30 55-24-18-49 166 268-28 81-22 162-145l72 126c29-40 78 11-13-158l113-25c-40 242 119 235 157 103 62 109-32 31 117 62-97 120-68 16-99 141 98-64 119-77 244-61l14 16c26-97 35-105 129-112 0 0-5-65-99-28-78 30-5-36-78 80-14-22-12 4-27-50-8-28-13-21-2-44 32-64 36-28 99-44 101-25 71-19 163 44-48-114-54-64-114-132-68-77 9 21-15-93-26-127-38-37-21-107 1-5 4-12 6-16s7-11 9-15c50-83 63 40 52-103-7 20 109 9-34 9-89 0-148-48-264-110 47-37 49-41 185 20-68-125-10-70-225-89-34-3-111-5-114-6-8-3 26-17-62-59-51 127 27 11-102 90zm1648-1914l5-5c85 15 92 23 151 81 36-73 6-20 15-57 10-42-16-13 10-48 72 24 44 2 62 103 41-10 131-23 153-31l204-104c44-30 41-47 79-95l-154-31c26-122 10-39-20-146-11-39-12-56-4-98 1-7 4-13 6-20l32-81c-183-93-212-152-483-151 3 7 7 15 9 19l52 121 170 38c3-5 11 6 17 22l-186 22-52-70c-2-9-8-11-13-16-64 55-59 28-133 68-19 150-2 22 42 100 0 0-87 33-42 103l110 175c0 1 4 4 4 4l-34 95z"/><path class="fil6" d="M2787 2740c136 151 71 247 69 255-31 89-63 45-72 41-1 0-51-40-52-41-31-46-29-72-23-127 2-18 17-41-9-83-43-69 57-107-117-44 22 140-36 89 69 161-28 10-92 21-118 67-93 162-13 122 64 134-29-7 36-49-42 6-77 55-20 17-57 57l118-17c-37 11-61 12-93 25l-107 57c34 23 7 8 45 20 80 25 104-2 155-22 99-38 124-32 187-147 54 123 16 43 6 156-4 42-4 50 1 80l15 49c1 3 6 10 5 15-18 123 11-102-24 46l-3 22c2 66 57 74-27 285 92 27 7-36 93 67 96-4 41 12 109-16l18 9c127-94 151-34 193-19l71-116 127 24 198-92-101-9c3-6 8-17 7-21-13-29 30 24-33-48-58-7-148-6-213 29-101 54-15-8-82 97-62 98-183 67-242 21l8-78c24 0 35 1 54-5l46-20h-127c1-28 9-61 11-68l1-109c13-97-23-52 113-93l-116-24c35-91-5-20 61-66 74-51-70 42 55-19-106-10-84-1-108-76 120-47 59-17 84-152-7-3-17-2-23-3l-108-35c-4-10-15-7-20-12 75-19 82-36 101-126l52-9c8-2 16-2 24-4 7-2 14-3 21-5 47-15 55-30 93-67l38-37c-1-3 1-9 1-11 0-1 1-9 1-11-1-69 4-32-32-74-3-3-8-9-11-13l-38-37c-3-3-11-8-14-10-2-2-13-1-14-8-2-7-9-7-15-7 209 8 44 13 117-32l-122 3-40 44c-84 61-86 36-137 41l49 92c4 12 23 110 24 119-41-13-72-32-77-34-2-1-30-81-7-4-10 9-79 29-79 29z"/><path class="fil5" d="M2360 815c-37 12-56 26-82 44-57 39-32 31-88 54-39 77-3 41-67 83-26 63-27 60-67 124-29 47-17 30-36 68-21 42-11 33-27 46-31 69 20 25-50 72l-11-172c-61 18-37 53-150-53-108-49-39-20-57-60l-86 10-75-33c-91-66-87-47-203-69-149-28-103-37-146-87-127 17 7 9-84-15l-44-12c-87-15-236 7-284-23 134-26 25-1 54 37-15 8-54 30-65 39l-56 52c-3 3-10 9-15 14l6 30c-104 65-44 24-192 32 25 48 62 36 123 53-41 27 10 14-53 21-72 8 22-3-60-2-52 1-60 3-111 14-34 104-16 24 15 54 72-5 119-6 162 39 10 10 71 134 78 156 69-74 34-47 33-177 134 35-11-3 72 37 51 25-16 21 73 31-43-7-29-1-49-64 41-30-1-5 57-33 7-3 74-29 82-33l73 12c11 120 34 94 0 205 86-34 10 0 47-55 48-70-20-33 58-80-6-115-23-160-4-202 13 12 8 8 28 33l35 45c3 4 8 12 13 17l143-37c-106-52-59 50-110-66 114 11 134 5 210 47l23 14c59 24 156 21 224 73 46 35 23 9 59 63 40 37 81 89 124 160 71 115 84 106 13 245l45-15 45-143 83 2c-50-32-34-15-50-75l30-14c49-21-1 21 86-69-62-41-62 12-21-83 74 30 87 20 184 18l-12-27c-30-22-46-32-70-50l2-103c54-75 84-73 190-143 104-67 170-69 223-117l-111 25-158 45z"/><path class="fil7" d="M2481 2496c-20 92-15-64-4 72 0 2 21 95 21 94l-81 18c24 40 58 14 5 48 78 4 73-30 101-99 18 21 84 32-13 136 25 5 10-20 32 19l6 66s-47 20-60 24l-142 51c41 49 26 22 101 51-7 6-17 11-24 15l-142 86 81-13c-16 52-32 76-21 118 33 129-10-56 114 191l36 67-47 3c23 72-3 27 45 102l85 13-34-48c-53-100-29-41-41-129 116 41 138 15 105 152 47 11 83 15 104 22-2 5-3 13-5 15l-36 35c-5 3-16 7-20 9l-39 129 56 73c-27-155-18-33 37-82 71 60 24-44 51 126l83-38c6-3 29-18 36-21-87-103-2-40-93-67 85-212 30-219 27-285l3-22c35-148 6 77 24-46 1-5-4-12-5-15l-15-49c-5-29-5-38-1-80 10-113 48-33-6-156-63 115-88 108-187 147-51 20-75 47-155 22-39-12-11 2-45-20l107-57c33-13 57-14 93-25l-118 17c37-40-20-2 57-57 78-55 13-12 42-6-77-12-156 28-64-134 26-46 90-58 118-67-105-72-47-20-69-161 174-62 74-25 117 44 26 41 11 65 9 83-6 55-8 81 23 127 1 2 52 41 52 41 10 4 41 48 72-41 3-8 67-103-69-255 26-141 26-92 2-151-53-129 13 65-14-37-9-36-8-55-8-95l-44 29c-6 4-13 9-19 13-5 3-11 9-15 11-5 4 7 89-22 17-1-3-5 6-9 7-30-90-51-83-95-119-28 32-50 50-84 81z"/><path class="fil6" d="M222 4750c88-25 167 32 282-55-34-40-34-100-50-149-22-71 10-21-36-75 106 26 46-5 73 66 99-108 17-53 127-89-20 102-17 111-76 160 43-15 109-71 116-149 57-23 88-51 114-92 65-102-37-96 58-88l1-72c-5-1-12-5-15-6l-31-15c-4-2-14-7-17-9-4-2-16-1-19-10s-13-7-20-10c-106 127-43 81-85 207-89-23-70-14-117-89-30-28-40-52-74-88-145-154-151-127-327-204-25 209-63 426-84 641l182 125z"/><path class="fil8" d="M4630 2367c42-57-2-16 62-35 43-12 86-18 127-25 29-51-34-29 80-48 19 62 50-62-43 83 120 0 87 24 169 81 4-76-33-72-85-168 87 8 95-5 135 49 15-13 50 41 3-142 16 136 12 28-29 74l-203-8c-25-191-21-38 42-119 51-66 25-35 44-102 115 7 42-21 117 31l-25-62-76-110 27 119-149-33c80-58-9-37 108-25l-34-114 33 24c-130-241-188-239-521-257-44 146 8 92-38 231-22 65-13-22-21 77 25 26 108 83 127 89 63-78-2-48 87-108 12 37-5 71 26 233-101-36-94-53-142 39 9 5 41 21 43 22l46 31c59 38 24 29 102 51-39 61 16 24-83 56 55 124-26 16 68 65z"/><path class="fil4" d="M3891 5254c-11 99 1 96-90 134-43 18-89 37-143 50l-60 189c212-24 103 85 238 40-86 108-115 54-196 91-109 50-38-12-53 77l-47-27c-54 93-51 127-165 190 58-9 119-30 177-50 13-4 106-34 112-33 181 4 62-15 124 56 90-17 210-4 271-40-15-27-10 1-15-55-3-38-3 3 0-41 7-99 0-27 20-80-13-29-7-1-2-59 1-14 7-45 10-65 7-54 6-90 13-146l-148-31 37-10c93-27 65 18 86-30 26-59 18-243-45-292l58-48 6-153c-134 43-140 52-291 52-2 85-5 45 67 69 113 38 47 113 87 29 2-5 10 5 17 7l-19 174-47 2z"/><path class="fil3" d="M2305 95c-151 96-43-7-58 37-4 12-62-97 19 69-59 1-176-18-174 45l210-7c124-50 347-47 502-38l-157-8c121-69 89 31 147-102 66 39 10 10 50 34 62 37 7 16 59 30 12-35-12-74 117-49 93 18 152-1 263 1 0 0-31 22-37 27-23 25-12 2-40 53l531 34 17-72c75 25 58-18 74 89l402 13c-139-53 17-9-171-56-71-18-46 9-86-49 102-25 175 5 292-17l36 142c71-48 13-36 118-52 5-36 38 11-36-47 43-56-10-17 81-41-128-43-135-48-298-38-200 2-579-89-802-63-184 21-529-33-791-28-29 20-23 18-77 32-46 12-51 7-92 16-124 27 43 3-100 47z"/><path class="fil4" d="M4256 4386l13 53c86-22 94-54 120 54-102 35-59 42-172 41-5-14-15-48-1-55l-55-37c-159 57-331 113-526 88-146-19-81-10-176-81-8 14-77 29 7 94l-147 12c13 128-19 92-2 159 23 91 34 8 76 142l30-5c-9-64-41-169-40-172 65 56 23 21 98 44-15-77-43-12 7-54l300 57c146 15 192 2 326-43-106-64-106 18-187-15 155-100 103-80 208-192 44 49 96 40-47 140l-53 38c96-18 69-23 158-23 1-9-13-45 21-71 53-41 53-25 108-26-33 76-20 39-68 97-25 30-45 64-60 86-28 37-58 54-87 72 58 58-3-30-17 128-15 162 40 147 78 176l25-223c9 97 4 151-30 224 168-33 122 12 150-123 34-165 75-116 75-236l-89 16c111-323 156-139 178-178 5-8 17 5 30 6l-9-162-4-36-100 31c-18-64-77 101-1-124l-67 52-69 44z"/><path class="fil6" d="M1453 1392l-29 14c5 5 12 11 15 15 3 3 11 10 15 14s10 10 15 14c195 191 131 305 146 414 19 138 49 15 13 119 2 28 1 48 3 55 1 4 5 11 7 15l76 67c11-21 27-10 29-40 4-74-4-39 22-94 29 65 79 40 0 56-12 171-56 40-65 158l-217 83c47 14 82-5 132 36-176 85-164 144-531 124l-169-165c95-62-15-43 113-44l15 3c-65 2-119-5-154-15-68-20-120-65-121-69-2-8-9-8-15-12 2-22 5-25 20-52l55-74c-99 17-32-28-104 30 91 459 347 462 383 491 357 7 450-79 609-244 46-48 42-21 89-88 68-96 67-143 35-234-84-119-2-15-87-80-4-3-10-7-14-10-3-3-10-8-13-10l27-93c33 27 21-35 10 61l78-32 2-115-64-3c13-79 17-59-2-132-1-3-3-11-4-13s-3-9-3-10c-9-27-4-6-8-11l82-27c-49-63 13-31-96-27-223 8 49 60-91-1-61-26-33-8-100-12l79-98c-125 7-93 17-185 34z"/><path class="fil4" d="M3210 2886c179 45 52 112 49 105-2-5-11 11-16 18l114-17c-50 30-75 27-120 61l103 61c-126 0-66-3-112 138-26 80-115 128-48 79-9 134 32 92 49 196l-101 29c-22 13-44 26-53 58-24 83 13-6 3 46l-159 1c59 46 180 78 242-21 67-106-18-43 82-97 65-35 155-36 213-29 27-40-43-26 51-35v-42c67 19 72 75 253-77l26 22c114 50 40-16 188 63 61 32 59-5 92 12l-62 101c100 12 223 16 289 46 5-94 44-127-125-177-57-17-10-5-78-18-157-31-223-80-332-105 49-48 7 0 52-69-93 23-114 58-114-36l-32-6-89 32 51 79c-336 34-19 99-346 106 8 2 23 80 9-23-16-122-35-41-42-33 43-58 42-54 109-75l-76-25 149-114c44-19 142-37 151-38-15-120-48-64-58-111-2-9-10-10-14-15 149 33 7 45 148 0l201 52c4-5 12-18 14-14 11 23 22-24 25-30 27-45 5 59 32-78l-34 2c-101 19-206 31-323 51-38 23-23 37-141 23l-12-34c-2-6-7-25-10-30-5-11-11-61-87-79-57-13-12-18-70 4-25 19-26 19-43 45z"/><path class="fil2" d="M3052 4822l-13 506c137 1 180-31 344-18-42-102 84-77-101-84 39-136-3-62 6-202-75-52-77 0-109-118-15-57-28-165 25-186 98-38-75 23 124 111l66 26c-43-134-53-51-76-142-17-67 14-31 2-159l147-12c-84-66-15-80-7-94 95 70 30 62 176 81 195 25 367-31 526-88 42-19 24 37 39-54-263 58-475 100-729-11 53 81-13-91 38 90-111-36-140-48-202-25 1 1-3 101 50-76l-121-41c-3-1-9-4-12-5-89-32-94-30-196-22 47 79-63 70 126 69-4-2 10-83-10 10l11 91 67-13c2-1 8-7 9-12-4 6-64-12 4 93l22 8c-61 43-36 88-158 144-9 108 16 71-9 341-29 316 157 163-36 299 10-116 105-366-2-505z"/><path class="fil4" d="M2899 5668l-14-188c-43-54 16-17-63-27-16 93-48 126-21 204-28 31 43 35-57 19 32 96 36 109 99 166 54 48 49 23 61 73 71-83-30-18 71-26 70-5 101 34 165 70 150-82 270-498 344-622-13-152-22-420-62-484l-30 5c-23 15 61 41-67 24 47 104-31 52 88 68l-91 80c130 6 74-16 130 46-40 77 26 77-84 59 14 7 28 10 31 12l55 156-124 57c-43 24-41 34-71 74l-204-28c7 101-13 138-58 241-40 92-48 153-125 141-22-74-12-53 25-120zm522-1877l-47 55c-104 137 12 60-101 116 33 87 24 31 15 140-34 19-32 8-57 35v52c49-18 105-33 152-50-54 118-97 41-126 137l-4 6c31-76-55-47 74-67 39 74 78 78 148 106 196 79 446 132 630-5l-29-14c-2 0-11-3-14-3-42-4-79 20-139 7l-69-12c-91-1-102-19-244-4-133 14-53-9-96 20 2-3 21-35 23-39l12-33c38-98 28-102 133-143l4-40c22-15-20-41 92-22l-150-10 58-152c72-17 127-9 213-12 195-7 124 28 178-23l39-83c-156 43-187 63-348 47-115-11-240 17-346-8z"/><path class="fil6" d="M3423 4853c40 64 50 332 62 484-26 285-196 521-296 698 120-24 45 0 105-88 98-145 172-220 220-435 115-515-33-582-5-707 84 28 46 54 69 345 14 181 62 187-1 374-98 291-178 365-311 535 57-25 49-32 108-61 114-63 111-97 165-190l59-181 60-189 7-105-13-82c62-55 191-97 75-183-18-133 15-16-30-52l-87-43c44-97 18-19 19-108 91-47 350-54 476-74 29-19 59-35 87-72-186 72-547 132-712 5-74-23-32 12-98-44 0 3 31 108 40 172z"/><path class="fil7" d="M2699 652c29 182 26-39 50 129 9 63-10 93-25 151-55-28-21 10-36-49l-88 21c-2 29 6 29-14 57-61 88-60 1-138 79-58 10-54-9-37 41l87 11c71-97 83-21 181-111 0 0 1 38 48 91 43-132 11-78 164-96 64-132-14-102 162-71-6-8-15-16-20-21-4-5-13-14-17-19l-23-28c-11-20 3-19 11-62 99 53 66 69 66 72 17 83-39 29 58 54 24-51 6-118 108-72-39 75-41 48-55 145l111-15c-28-89-15-26 0-75 22-68 48-18 20-94l-39-11-192-29c67-65-62-37 113-60 20-3 108 3 138 2l247-24c81-4 177 12 241 17 51 4 148-17 235 2 336 71 147 20 366 28 73 3 92 8 137 41l167 10-2 1c-179-65-726-140-960-136-335 6-745-5-1063 24zm-934 4094l9 47c80-45 109-4 151 52 53-16 56-35 115-6 180 141 112 55 79 130 88 8 150-15 220-36-34-116-14-16-35-83-28-90-1 58-7-62-2-38 30-72-80-156l44-15c-11-81 20-55-16-98-86 20 15 22-50-98-60 18-113 10-147 76-14 27-2 50 2 72-155 31-169-163-158-228l-18-222c-43-41-20 12-38-57-8-32-2-43 1-73 5-67 13-58 12-138-19 24-18 18-36 63l-23 149c-2 71 0 157 5 228 10 147 31 286 56 430-26 18 25 29-84 26z"/><path class="fil8" d="M4495 1152c-107-55-82-46-205-40-67-10-62-22-105 5-62 45-154 69-196 125-53 132-90 75-122 191 218 13-7 7 290-104 32-12 67-38 97-57 16-23-8-12 87-34 4-1 11-2 15-3s11-3 15-4c81-26 40-34 149-45 18 51-43-6 0 91 48-14 41-10 106-5 63 5 102 12 136 37-8 3-36 6 9-27 59-43-93-9 80-38l-15 281c158-18 120 32 239 26l36-7c-1-53-90-375-140-435-35-42-5-9-54-47l-80-60c1 44 17 112 17 113 1 27 23 27-31 104-155 2-70-20-141-43-68-22-111-8-188-23z"/><path class="fil1" d="M4189 1701c-30 55-30 39 28 21 61-98 17-82 130-95-35 121-17 48-113 125-54 43-25 9-61 87l-24 55-9 18c-10 111 2 148 51 252l43 97c6 4 15 4 18 13 8 25 23 16 35 23 45 25-3 4 51 24 84 18 229 84 291 44-94-48-13 59-68-65 99-32 44 5 83-56-78-22-43-13-102-51l-46-31c-2-1-34-17-43-22 48-92 41-74 142-39-31-162-15-196-26-233-90 60-25 29-87 108-19-6-102-62-127-89 8-99-1-12 21-77 47-139-6-85 38-231l-72 19c-113 19-93 50-154 101z"/><path class="fil7" d="M922 2661c148-1 5 37 158 37 78 0 70-30 199-23-41 114-19 14-29 132l14 42c86-75 0-36 94-41l-8 78 55 2c-50 139-73 92-189 150-120 59 1 102-211 190 22-115 8-82 63-142l-64 2c-73 57-100 121-132 185l-24 55 123 28c-39 22-15 28-89 30l73-1c3-84-45-15-39-124 116-47 75 4 200-2 50-26 24-7 69-45 6-5 23-19 28-25 40-44 6 1 43-58-75-29-75 14-46-47 196-85 71-18 100 18l50-34c25-8 47-41 99-24 119 40 37-29 69 93l9-88c-43-128-126-95-103-250 61-34 86-10 151-5l21-76c34-40 60-48 111-60-22-58 2-14-27-60-49-81-53-27-67-104-410 120-145 104-546 85-182-9-151 53-157 84z"/><path class="fil4" d="M594 2607c211 155 66 114 109 180l77-41c77-56-70-95 92-37 99 35 23-52 42 47 91-10-9-52 55 18l11 131c1-5 6 14 9 21-101 93-49 152-187 191v-93c-83-21 3-13-84-13 87 93 0 27 52 111l-150-2-19-100-85 34c101 171 118 135-90 303l52 23c9 3 16 6 24 9l42 12c64 23 26-32 44 24 71-17 93-27 166-56l6-12c23-66 51-125 86-186 45-80 47-77 120-133 117-90 119-168 285-229 10-118-11-18 29-132-129-7-121 23-199 23-153 0-10-39-158-37-131-57 4-28-115-89-56-29-116-27-181-35-17 27-18 42-33 71z"/><path class="fil9" d="M868 1220l-40 110 77 20 86-9 66-2 2 50c37-7 152-30 163-71 2-8 8-9 12-14 152 23 116 11 219 87 92-17 60-27 185-34l-79 98c67 4 39-15 100 12 140 61-132 9 91 1 109-4 47-36 96 27l-21 77 70-8c71-140 58-130-13-245-43-70-84-122-124-160-146 23 28-9-69 47-126-44-6 27-76-102-29 10-64 28-64 29l-167 19c3 15 4-28 46 93-46-8-189-48-93 36-66-54 105-99-150-25 28-75-15-60 49-90l-97 6c-78 47-10 10-58 80-38 55 39 21-47 55l-129-7c20-71 36-107 57-210-8 4-75 30-82 33-57 27-16 2-57 33 19 64 6 57 49 64z"/><path class="fil6" d="M3526 2293c-48 127-66 105-74 198-1 6 1 38-11 69 147-68 132-28 170 4-13 3-109 20-110 20-83 35-49 25-77 69 47 61 22-65 31 124 49-56 83-80 169-112 35-265 38-240 136-262-15 84-63 177-45 252l26 75-124-18c18 98-11 42 74 50 53 5 41-7 90 48-115-8-96 9-191 11-6 0-13-1-19-1-85-2-82-3-112-29-49 73-16-32-6 45l39 82c53 48-5 24 81 41 117-20 222-32 323-51-74-84-22-104-101-143 88-8 76 38 73-86-3-132-53 9-29-145-7-89-16-76-23-152-14-142 10-20-37-115l-39-59-71 17-144 68zm-2407 967c-126 5-84-45-200 2-5 110 42 40 39 124l-73 1c73-2 50-8 89-30l-123-28 24-55c-57 36-13-28-52 75-12 33-13 48-22 73-59-41-71 60-41-65l-6 12-68 103c84 36 45 17 120 86l24 22c89-14 107-36 225-47-133 191-216 3-331 151l65 33c-24 41-10 34-10 42 69-12 98-19 177-37 78-18 133-74 144-11 48-152 56-126 110-241-38-14-32 24-25-39 92-77 13-2 59-91 81-157 221-142 288-203-32-122 50-53-69-93-52-17-74 15-99 24l98-16c-87 190-105 48-304 239l-38-31z"/><path class="fil4" d="M4007 2029c6 70 6 80-18 127-83-38 0 4-46-45-5-6-20-24-25-29-30-33 17-10-45-43l97-43c-26-19-11-15-57-30-1 0-62-7-69-8 100-81 39-66-66-75-1 134 51 140-20 209 48 37 51 26 102 46-73 37-35 50-112 21 35 83-9 8 39 54l-8 55c47 94 23-28 37 115 7 76 16 63 23 152l72-19c60 108 17 25 64 63l-9-102c91 32-12 6 94 50-13-43-23-57-19-104 7-71 13-41 16-54 30-119-64-56 16-103 77-45-47 55 56 2l-17-157c4 4 76 56 77 57-49-104-61-141-51-252 1-114-1-126 48-213 61-51 41-82 154-101l-17-53c-104 31-191 95-241 192-74 143-23 222-22 352l-57-63zm55 497c-53 122-11 44 9 86 29 60 26 9 19 103 138 46 0 0 63 43 36 24-7 24 64 40l60-160c-1 90-30 257 46 314 74 50 151 26 207-26-75-59-14 41-80 0 126-159 29-92 181-106 8-168 7-36-51-81-45-35-19-22-97-26 75-62 60-25 97-128 30-82 59-102 94-170l-135-2c-56 65 28 39-118 60-30 4-71-11-80-13-5 4-11 11-14 14-167 189 5 90-159 174-8-72 0-30-9-76-12-61 16 1-18-51l-79 6z"/><path class="fil10" d="M3485 5337c-74 124-193 541-344 622-64-36-95-76-165-70-101 8 0-57-71 26 58 34 50 26 101 69 1 1 36 34 38 37 72 78-10-46 31 41 90 11 58 15 119 30l113 30c-29 24-29 23-47 66 37-8 68-18 106-20 91-3 37-18 93 17-43-68-6-14-56-68l-56-69 134-16 12 135c-14-76-35-99 218-123 70-7 180-9 248 5 37-28 40 68 22-21 0-2-4-12-4-14-1-2-9-10-12-16-110 12-383 78-445 41 75-38 158-64 268-70-63-72 57-52-124-56-6 0-99 29-112 33-57 20-118 41-177 50-59 29-51 36-108 61 133-170 213-244 311-535 63-187 15-193 1-374-23-290 15-317-69-345-28 124 119 191 5 707-48 216-122 290-220 435-60 88 15 64-105 88 100-178 270-413 296-698z"/><path class="fil2" d="M2270 3891c-41 41-91 217-50 298l-89 7-54 19c-7 4-28 9-34 12-4 2-12 5-16 7s-11 6-14 8l-47 74c118 0 159 25 278 25l-130 36c-42 17-46 25-72 65l-23-31c-28-55-3-53-2-57l-127-13c-11 65 2 259 158 228-5-23-16-46-2-72 34-66 87-58 147-76 65 120-36 118 50 98 36 43 5 17 16 98 11-45-7-33 35-74 1 174 8 294 39 453l70-39 1 112c43-110 10-176 3-314-6-13-32-203-42-253-6-29-9-17-8-56l26-198-30-4-24 103c-79-100-26-243-9-392-78 0-13 33-61-19l35-87c-40 20-49-24-25 43z"/><path class="fil11" d="M2068 2160l-74 361c-20-41-50-353-56-405l30-27c49-49 12 10 46-56-130 10 27 7-47-5-5-1-27-8-48-10-33 53-51 80-73 129 30 48 17 14 32 94 4 22 6 67 16 107l57 224c123 24 71 39 92 109 20 64 46 73 65 159 5-46-8 0 45-22-58-64-20 5-45-74-30-106-20-87 14-198 15-48 15-64 27-102 18-56 8-48 47-84 85-6 61-34 177-90l7-42c-126-10-217 53-261 137-30-17-28 52-24-27 37-111 65-296 166-355 25-77 60-126 111-196 57-76 68-98 151-146l-1 8c45-70 10-44 84-50 39-45-10-23 77-50 0-49 11-33-45-39-120 41-297 177-360 261l-211 390z"/><path class="fil1" d="M2077 3263l111 41 83 9c-35 68 62 162 184 354l47-12-52 179-11 66c39-13 51-19 67-13l-55 87-69-3c-26 97-38 141-28 274l30 4c121-24 57-56 71-82 39-73 15-42 74-53l27-137c136-32-99 19 62-1 4-1 13-1 17-2l48-12-23-119 2-27-56-73-118-199c-48-75-22-30-45-102-80-69-163-219-224-326-91-12-30-27-65 14l-69 68c-4 4-11 10-17 15-28-110 32-80-51-143l-21 108c73 85 74-25 80 85z"/><path class="fil11" d="M3035 357l-110 8c-396-4-960 65-1331 24-382-42-679 51-1050 130-82 17-57-1-97 49 69 64 60 21 223-8 479-85 881-100 1372-105l680-46c295-9 284 26 312-52z"/><path class="fil6" d="M2624 1113v74c-122-38-79-15-179 3-10 86-2 42 8 84l23 57c-114 5-53-18-140 28 55 10 66 22 101 51-35 12-211 86-256 150 19 18 64-26 39 78 132 0 12-12 58 60 59-49 131-111 215-169 72-51 89-32 135-67 83-63-28-40 85-76l443 7c76 13 54 31 54-50-61 50-57 27-135 18 44-71 48-29 30-73-51 52 11 80-107 10-66-39-28-13-52-72-84 37-103 28-174 58-88 37-19 27-120 58-1-133 32-133 71-242l-98 16z"/><path class="fil10" d="M3252 4282l219 96c254 111 466 69 729 11 37-16 14-14 33-44-72-16-31 24-64-29 23-74-24-28 48-47l-47-50c-22-36 34-49-52-15-93 16-75 30-148 5-1-8-2-18-1-23 0-5-1-16 0-21 20-119-7-21 33-64l-315-47-4 40c-104 41-95 44-133 143l-12 33c-2 4-21 36-23 39 43-29-37-6 96-20 142-15 153 4 244 4l69 12c60 13 97-11 139-7 3 0 12 3 14 3l29 14c-184 137-434 84-630 5-70-28-109-32-148-106-129 20-42-9-74 67z"/><path class="fil5" d="M303 728c161 21 242-12 404-51 164-39 316-30 494-64 229-44 820-53 1080-40 165 31 388-19 582-2l67-37-113-28c-189 40-1125 9-1381 1-264-8-350 44-597 89-263 48-467 31-535 132z"/><path class="fil7" d="M303 728l-55-4-8 80c97 34 412-48 543-73 628-120 724-35 1286-74 219-15 390 41 631-4-42-47-12-36-150-27-101 7-80 5-178-8l-971 8c44-18 553-17 668-20 173-5 141 16 212-32-259-13-851-4-1080 40-177 34-329 25-494 64-162 39-243 72-404 51zm2872 1721c-73 45 92 40-117 32 6 1 13 0 15 7s12 6 14 8c3 2 11 7 14 10l38 37c3 3 8 9 11 13 36 42 30 5 32 74 0 2-1 9-1 11 0 1-2 7-1 11-26 236-23 25-51 172l124 17c58-22 14-17 70-4 76 18 83 68 87 79 2 6 8 25 10 30l12 34c118 14 103 0 141-23-85-17-27 7-81-41l-39-82c-10-77-43 28 6-45l-7-14c-9-190 16-63-31-124 28-44-5-34 77-69 1 0 97-17 110-20-38-32-23-72-170-4 12-31 10-63 11-69 8-93 26-71 74-198-55-19-74 36-25-44-12 10-65 49-90 74-35 34-22 36-62 67-44 34-105 39-173 61z"/><path class="fil11" d="M2301 239l-210 7-130 6c-531-15-730 37-1200 107-132 20-72-8-146 55 42 27-6 14 61 22 7 1 58-1 63-1l728-93c277-39 1352-21 1522-99l-689-5z"/><path class="fil6" d="M690 1329c-34 36-71 58-83 90-24 61-3 85-3 83 0-4 3 15 5 23-59-57 20-33-104-70l-77 156c45 33 1 2 50 26l53 26c-16 13-54 31-71 43l1 67c-14 61-29 50 29 47l64-29c-25-30-38-26-39-67 171-76 124-11 146 73 46-156 0-7 27-67 31-69 6 3 39-81l71 42c8 4 24-25 41 29-1 22-14 129-9 148 27 106-16 63 89 96l11-279c-65-47-59 80-34-78 0 0 39-108 41-114-92 61-42 46-146 81l-9 4-70 67 21-157c-111 26-86 7-105-62l98-24c176-35 112-14 128 6 36-22 22 13 51-60l-77-20 40-110c-89-9-22-6-73-31-84-41 61-3-72-37 1 130 36 103-33 177z"/><path class="fil9" d="M2195 2359l35 23c2 1 9 3 12 3 48 6 151-48 255-67l-32 55c-25 26-14 27-83 46 70 28 52-50 39 50-14 108-36 28-44 26 79 17 3 22 104 0 34-31 56-49 84-81 44 37 64 30 95 119 4-1 8-10 9-7 29 72 17-13 22-17 4-3 10-8 15-11 6-4 13-9 19-13l44-29c0 41-2 60 8 95 27 102-39-92 14 37 24 59 24 9-2 151 0 0 68-21 79-29-24-77 5 3 7 4 5 2 36 21 77 34-1-9-20-107-24-119l-49-92c51-5 53 20 137-41l40-44c-206-50-138-96-291-122-6-1-50-4-50-4-3-1-11-2-14-3-50-14-23-37-129-18 22-122 13-18-9-75l-88-31c-87 3-46-11-94 28l-7 42c-116 57-93 85-177 90z"/><path class="fil4" d="M3493 6169c-1 40 7 30-34 17 5 4 13 3 15 10l110 117c153 218 415 100 375-263-68-14-178-11-248-5-252 24-231 47-218 123z"/><path class="fil6" d="M3039 5328l-16 50-124 290c-37 67-47 45-25 120 77 12 85-49 125-141 45-103 64-140 58-241l204 28c30-40 28-50 71-74l124-57-55-156c-4-2-17-5-31-12 110 17 44 17 84-59-56-62 0-40-130-46l91-80c-120-16-42 36-88-68 128 18 44-9 67-24l-66-26c-199-88-26-149-124-111-53 21-40 129-25 186 32 118 34 66 109 118-9 140 34 66-6 202 185 7 59-18 101 84-164-13-207 19-344 18zM849 4211c5-7 15-26 18-19 3 6 9-17 31-25 39-15-19-53 29 7 15-22 14-19 31-58l35-129-32-11c-56-10-66 5-67 5 109-52 193-117 159-262 0 0-79 26-1 11 3 0 1 96 29-11 2-8 13-5 19-8-10-62-65-6-144 11-79 18-108 25-177 37 1-8-13-2 10-42l-65-33c-63 1-24 204-27 254-7 131-65 173-96 288 100-52 83-51 60-168 8 4 19 1 25 12l49 19c62 16 68 8 140 4-25 60 27 25-70 70 95 0 11-9 44 49z"/><path class="fil3" d="M4630 2367c-63 39-207-27-291-44 52 56 100 77 200 91l135 2c-34 67-64 88-94 170-37 103-22 66-97 128 78 3 52-9 97 26 58 45 59-87 51 81 35 3 29 7 70 1 129-18 39 1 66-22 71-99 55 21 123-29l28-31c42-56 30-55 40-104-65 31 10 16-84 66l-9-31c-17-39-11-48-66-67 52-66 50-23 76-108-27-20 10-1-52-29-19-9-21-5-55-22 31-24 105-37 49-138-41 7-84 12-127 25-64 18-20-22-62 35z"/><path class="fil2" d="M2722 1098c-38 109-72 109-71 242 101-31 32-21 120-58 71-30 90-21 174-58 25 59-14 33 52 72 118 71 56 42 107-10 18 44 13 1-30 73 78 10 74 32 135-18 0 82 22 63-54 50 29 30-19-3 53 37 60 34 175 71 251 71l76-116-42-8c-56-4-45 14-63 15 89-126 11-85 4-98-141-24-28 25-240-25-86-21-49-16-128-8 19-66 28-55 13-86l-34-23c-50-18-154 3-218 4-42-80 42-9 0-99l-26 26c-52 30-22 19-78 17z"/><path class="fil7" d="M3902 1818c-18 27-7 106-193 33l-79-33c-14-4-71-14-97-20l-13 61c-15 78-30 94 27 144l-12-124c7 6 9 9 10 20 6 56 32 84 67 121 70 72-4-53 47 50l60-49c14 118 22 85-6 171l-75-56-58 28 71 51c4 3 13 7 20 11l71-17 39 59 8-55c-48-46-3 29-39-54 77 29 39 16 112-21-51-20-54-8-102-46 70-69 18-75 20-209 105 9 166-6 66 75 6 1 68 7 69 8 46 16 31 11 57 30l-97 43c62 32 15 10 45 43 5 5 19 24 25 29 46 49-37 8 46 45 24-47 24-57 18-127 31-168-15-267 102-414-105-156 64 62-19-95-99 48-110 199-141 301l-47-2z"/><path class="fil4" d="M4090 836c82 42-38 113-57 134 55 18 26 59 183 59-104 51-60 52-31 88 43-26 38-15 105-5 11-24 34-78 36-96l67 14c96 23 59 29 127 27 72-2-1 11 72-22-2-6-6-21-7-17s-6-13-7-15c-23-27-23-36-68-12 27-51 3 19 9-58 4-53-12-23 5-60 45-5 14 4 94 10 117 10 76 6 101-14-229-53-357-160-629-34z"/><path class="fil11" d="M635 3610l2 24c-19 108-51 199-67 277-17 81-14 188-45 243 19 47 20 53 47 112-24 23 37 37-47 11 47 76 28 66 117 89 42-127-21-80 85-207 7 3 17 1 20 10s15 8 19 10 13 7 17 9l31 15c3 1 10 5 15 6l19 4c-33-58 51-49-44-49 97-45 44-10 70-70-72 4-78 12-140-4l-49-19c-5-11-16-8-25-12 23 116 40 116-60 168 31-116 89-157 96-288 3-49-37-253 27-254 114-148 198 39 331-151-118 11-136 33-225 47l-24-22c-75-70-36-51-120-86-2 30-2 135-50 139z"/><path class="fil3" d="M2777 2176c24 94 23 112 127 121 58 5 130-4 176-20 37 49-23 88 169 68 89-8 157-77 196-166 68-156-2-202-3-338l-131-190-32 81c-2 7-4 13-6 20-9 42-7 59 4 98 30 107 46 24 20 146l154 31c-37 48-35 65-79 95l-204 104c-22 8-113 21-153 31-18-100 9-79-62-103-26 35-1 5-10 48-9 37 21-16-15 57-59-59-66-67-151-81z"/><path class="fil1" d="M3273 776l39 11c101 31 83 13 134 98l85 59 55 12-10-81 123 17c-20 100-16 39 18 70l19-37 55-88-18 204c13-3 23-19 26-13l51-42c127-121 117-129 73-238-55-16-190 1-308-8l-34-75-247 24c-67 62-50 37-59 87z"/><path class="fil2" d="M2094 2337c67-53 53-28 85-113 37-95 2-46 66-107 113 50-52-60 48 29 3 3 11 12 14 14 3 3 9 11 13 16 164-19 127-17 153 23l88 31c156 18 181 46 320 115 93 46 296 99 368 0-192 20-133-19-169-68-46 16-118 25-176 20-103-9-103-26-127-121l-5 5c-91-90-29-105-171-168-94 61-323 143-341-31-101 59-130 244-166 355z"/><path class="fil7" d="M2997 4493l54 329c107 139 12 390 2 505 192-135 6 17 36-299 25-270 0-233 9-341 121-56 97-101 158-144l-22-8c-67-105-8-87-4-93 0 5-7 11-9 12l-67 13-11-91c20-93 6-12 10-10-190 2-80 10-126-69 101-7 106-10 196 22 3 1 9 4 12 5l121 41c-53 177-50 77-50 76 62-23 91-11 202 25-51-181 15-9-38-90l-219-96 4-6c-88-51-18-3-99-71-44-37-13-17-46-43-101-81-131-35-97-129-6 5-12 14-16 19l-34 57c-16 50 29 151 45 204l44 206c-1-55 10-1-57-25z"/><path class="fil3" d="M4090 2715c63 114 105 233 37 352 74 33-7-1 29 3 4 0 17 2 21 3 69 10 12 76 40 135l109-38-6-3c-152-22-29 6-75-39 15-31 12-35 33-67l58-73 35 91c33 64 50 81 125 104l63-65c-24-120-7-1-32-24-2-2-71 54-16-49 42-79 25-27 187-78 0-8-5-57 4-85 14-45-10-24 32-50 86-53 49-1 50-1l-16-31c-27 23 63 4-66 22-41 6-36 2-70-1-151 14-55-53-181 106 66 41 5-59 80 0-56 52-133 76-207 26-76-58-47-225-46-314l-60 160c-71-16-28-16-64-40-63-43 75 4-63-43z"/><path class="fil1" d="M4844 928c66 36 272 273 328 406 46 108 2 266 81 399 5-7 15-25 17-22s11-16 13-24c10-47 8-39 7-94-12-128-27-151-58-263-24-89-26-188-57-290l-31-157-43 17c-31 1-30-18-36-25l-65-58-22 44c0-2-2 4-4 7-44-97 16-75-125-60l-6 121z"/><path class="fil4" d="M1036 1712l-43 10 7 143c101 32 96 41 109 164 181 81 322 8 381-151-83 35-88 51-170 76 26-204 144-39 139-214l55 22c-27-73-47-274-164-179-23 93-18 79-69 129l54 23c5 3 14 8 19 11s15 18 18 13c4-6 13 9 19 14-88 33-63 36-165 29 38 48 65 39 8 99-46-46-23-37-36-53-61-74-92-58-161-134z"/><path class="fil7" d="M3028 3288l99-38c0-16-65-51 104-20l-76-72c-2-1-9-2-13-3 219-1 41 17 114-76-140 0-107-13-227 48 0-6 2-21 2-17l2-29c-5-75-117 47 113-89 77-46 55-5 65-104 17-26 18-26 43-45l-124-17c28-148 25 63 51-172l-38 37c-38 37-46 52-93 67-7 2-14 3-21 5-8 2-16 3-24 4l-52 9c-19 91-26 108-101 126 5 6 16 3 20 12l108 35c6 1 16 0 23 3-25 135 36 104-84 152 24 76 2 66 108 76-125 60 19-32-55 19-66 46-26-25-61 66l116 24z"/><path class="fil6" d="M2638 1509c55 6 45-11 45 39l53-25 92-24c271-1 300 58 483 151l131 190-4-95 82 115 13-61c26 5 83 15 97 20l79 33c187 73 175-6 193-33-163-18-68-34-202-111l-74 3-169-3c-225-306-504-232-626-262l-132-49c-3 9-18 53-25 66-1 2-33 43-36 47z"/><path class="fil4" d="M1691 2437l-66 56c14 77 18 24 67 104 29 47 5 2 27 60-51 12-77 20-111 60l-21 76c-65-5-90-29-151 5-23 156 60 122 103 250 15-96-11-85 24-150 51-94 19 18 101-91 48 23 34 47 87 62l18-104 21-119c6-3 15-6 19-8 71-48 34-7 57-68 9 8 21 15 27 23 23 26 41 30 28 69 21-11 41-36 78-16l-48-76-57-224c-129-155 126 79-72-54-15 130 43 168-22 270l-35 33c-2-4-59 28-16-104 3-9 33-55 44-84l-101 28z"/><path class="fil11" d="M340 1195c42 88 17 20 30 115l25 133c14 67 14 66 10 141-5 114-20 44-6 158 7-1 52 44 77-63l-15 27c17-12 55-29 71-43l-53-26c-49-25-5 7-50-26l77-156c124 37 45 13 104 70-3-7-5-26-5-23 0 2-21-22 3-83 13-32 49-54 83-90-7-22-68-145-78-156-43-45-90-44-162-39-30-30-48 50-15-54-6 5-10 14-13 19s-8 13-12 19c-100 145 45 35-71 76z"/><path class="fil2" d="M2862 570c543-10 506 2 978 23 21 1 73-1 98 0l665 34c-138-67-620-97-825-109-163-9-305-24-471-22-106 1-411-2-491 10l113 28-67 37z"/><path class="fil6" d="M2663 3817l-2 27c99 67 175 213 188 328l71-7c27 127 57 176 65 287l13 42c66 25 56-30 57 25l-44-206c-17-52-62-153-45-204l34-57c3-5 9-14 16-19l12 13 12-85-64-64c10-7 61-43 65-54 36-100-42-50-42-50l-18-9c-68 29-13 12-109 16-8 4-30 18-36 21l-83 38c-27-171 21-66-51-126-55 49-64-73-37 82z"/><path class="fil10" d="M4467 4025c-51 57-67 67-153 91l7 79 15 62 164-59c62-57-36 2 85-59-39 145 18 110-95 90 51 98 30 45 19 115 0 2 0 10-1 12-7 58 45-15-14 62l9 162c-13-1-26-14-30-6-22 38-67-145-178 178l89-16c-11-15-24-27-25-47-8-123-2-24 11-67l122-14c23-11 31 34 82-138 48-165 117-391 101-558-14-7-57-30-61-33l-51 181c-2 6-4 14-5 19l-13 34c-38-75-25-58-78-89z"/><path class="fil11" d="M1433 2182h-45l8 77c-48 7-72-5-93 47-21 50 2-9 7 48l-62 17c-16-43 13 43-8-23-1-2-3-9-4-12-35-121 38-75 119-148-127 29-171 35-295 12 30 49 29 20-17 38l-15-3c35 45 5 37 69 68l-144 66 138 41c-37-20-3-16-7 33 368 19 356-39 531-124-51-42-85-23-132-36l217-83c-31-44 27-8-48-21-3-1-75-5-75-5l-122 72c-38-29-46 51-22-64z"/><path class="fil11" d="M490 1820l46 70c104-21 68-18 122-89-13 94-39 168-55 246l13 2c31 47 31 29 36 88 5 53 7 20-34 90 100 12 46-22 108 67 9 79-3 55 51 101 42 36 78 40 127 50 2 4 25 23-8 50-9 8-31 14-42 25 79 29 165 27 253 16-36-30-291-32-383-491-13-34-71-35-7-201 36-94 49-82 122-125-16-54-33-25-41-29l-71-42c-33 84-8 12-39 81-27 60 20-89-27 67-23-83 25-149-146-73 1 41 14 36 39 67l-64 29z"/><path class="fil2" d="M3666 5334c98-8 55-19 130 5 60-63 16-62 96-85l47-2 19-174c-7-2-15-12-17-7-40 84 26 9-87-29-72-24-69 16-67-69 151 0 157-9 291-52 58-67-26 102 32-62-197 27-278 32-480 6-1 89 25 12-19 108l87 43c45 36 12-81 30 52 116 86-13 129-75 183l13 82zm-670-1540s79-50 42 50c-4 11-55 46-65 54l64 64-12 85c190 30-161 67 154 46l-51-139c0-2-1-9-2-11-5-32 38-38 84-31 16 83 7 35-13 108 0 0-56 33 32 118 25-27 23-16 57-35 9-109 18-53-15-140 113-56-3 21 101-116l47-55-49-7-85-25c36-46 35-32 100-77l-127-24-71 116c-42-15-66-75-193 19z"/><path class="fil8" d="M3372 3784l49 7c106 25 231-3 346 8 161 15 193-4 348-47l126 33c0-208 7-17-37-80l-120-121c-107 37-6 5-57 42-78 56-157 60-292 68-93 6-119-1-201 15-72 14-122 26-164 76z"/><path class="fil11" d="M1136 1173l97-6c-64 31-20 15-49 90 254-73 84-29 150 25-96-85 47-44 93-36-42-121-43-78-46-93l167-19c1 0 35-19 64-29 70 128-51 57 76 102 96-56-78-24 69-47-36-54-13-28-59-63-67-51-165-48-224-73l-23-14c-76-42-96-37-210-47 50 116 4 14 110 66l-143 37c-5-5-10-13-13-17l-35-45c-20-25-15-21-28-33-20 42-3 88 4 202z"/><path class="fil2" d="M1873 4120l18 222 127 13c-1 4-26 2 2 57l23 31c25-40 29-48 72-65l130-36c-119 0-160-25-278-25l47-74c3-3 11-6 14-8 4-2 12-5 16-7 5-3 26-8 34-12l54-72s16 67 14-52l-26-78c110-208-11 161-28-55l2-34c-158 72-22-21-208 17l-12 179zm2189-1594l79-6c34 52 6-9 18 51 9 47 1 4 9 76 164-84-8 15 159-174 3-3 9-10 14-14 8 2 50 18 80 13 147-21 62 5 118-60-100-14-148-35-200-91-54-19-6 1-51-24-13-7-27 2-35-23-3-9-12-9-18-13-2 77 17 28-18 65-48-47-38-35-86-61-102 53 21-47-56-2-80 47 14-16-16 103-3 13-9-17-16 54-5 47 6 61 19 104zm-1034 762c-136 41-100-4-113 93l78 23-35 53 175-8-4 107 101-29c-17-104-58-63-49-196-67 49 22 1 48-79 46-141-14-138 112-138l-103-61c45-34 70-31 120-61l-114 17c5-7 14-23 16-18 3 8 130-59-49-105-10 100 12 59-65 104-230 136-118 14-113 89l-2 29c0-4-3 11-2 17 120-61 87-48 227-48-73 92 105 75-114 76 4 2 10 2 13 3l76 72c-169-31-103 4-104 20l-99 38z"/><path class="fil7" d="M2283 1157l12 27-11 48 71 30-153 157c-5 6-19 24-23 30l-39 61c-19 27-42 50-66 73-21-60 7-32-58-57-100 1-25-9-54 35 2 3 20 98 55 151 85-43 61-36 126-113 3-4 9-11 14-15l23-26c45-64 221-137 256-150-35-29-46-40-101-51 86-46 25-22 140-28l-23-57c-10-42-17 2-8-84 100-18 57-41 179-3v-74c-143 3-161 63-229 16l103-39-87-11c-21 39 26 3-47 45-28 16-46 18-81 32zm-175 1586c25 79-13 10 45 74 139 58 51 4 76 99 5 21 31 103 51 162l142-86c7-4 17-9 24-15-75-29-60-2-101-51-50-42-69-22-34-76-87 28 119-73 127-76-27-36 58-78-51-5 18-97-3-10 34-41 53-34 19-8-5-48l-240 32 100-61c61-43 117-61 94-130l-52-8c-7 1-33 5-40 7-72 23-45 6-111 99-89 126-92-77-60 124z"/><path class="fil6" d="M4030 872c-34 47-166 122-256 273-44 75-1 39-62 105l-24-126-143-162c-2-10-10-11-15-17l-85-59-48 5c47 36 186 221 214 264 29 45 49 100 70 159 38 110 25 124 108 97-23-64-26-45 5-131 38-104 153-234 239-309 19-21 139-92 57-134l-61 36z"/><path class="fil3" d="M4673 1488c95 59 43 3 72 65-145-38-329-74-419-6l17 53 72-19c332 18 391 16 521 257l15 29 76 110 46-44c46-109-90-157-186-287l-19-33c-3-5-4-13-7-18s-4-13-7-18c-35-71-114-151-178-205l-2 116z"/><path class="fil1" d="M1925 4845l-48 74 1 5c-6 103-17 107-21 192l-77 18c-5 66-47 104-120 122l8 61c237-47 123-158 329-201l39 164c63-32 27 30 48-54 9-38 0-87-4-126l-40-261c-59-29-62-10-115 6z"/><path class="fil8" d="M4528 3753c126-83 48-121 45-137-8-44-15-1 1-58 1-2 22-36 33-77-45-75 47-24-95-63 60-99 33-11 54-105-304-42-6-88-248-146l6 3c-28 110 12 12-98 146-38 47-2 1-34 46 172-21-19-24 146-54-22 148-10 135 169 255-1 80-19 47-7 115l28 74z"/><path class="fil6" d="M2195 2359c-38 36-29 28-47 84-12 37-12 54-27 102-34 110-44 91-14 198-32-200-29 2 60-124 66-93 39-75 111-99 8-2 33-7 40-7l52 8c23 70-33 87-94 130l-100 61 240-32 81-18c0 1-21-91-21-94-11-136-15 20 4-72-101 22-24 17-104 0 8 2 30 82 44-26 13-100 32-22-39-50 69-20 58-21 83-46l32-55c-105 18-208 73-255 67-2 0-10-3-12-3l-35-23z"/><path class="fil10" d="M2103 3384l-52 115c-21 73-46 84 31 84 13-28 28-74 57-106 53-60 36-41 113-50l-29 53c-8 89 8-14-20 66-65 186-27 57 8 97 24-63 71-103 107-137 17 147-54 100-72 233l-15 40 33-19 130-148c3 130-48 170-98 237l-35 87c49 52-17 19 61 19 29-77 38-59 75-120 29-50 38-107 59-169-123-192-219-286-184-354l-83-9c26 29-20 18 36 39-144 6-35-23-121 41z"/><path class="fil6" d="M3458 3514c63 72 20 19 33 48 2 3-3 15-7 21l101 9c89 11 46 8 118-10 1 0 42-15 56-18l124-7c71-11 54-8 124 1l62-101c-33-17-31 20-92-12-148-78-74-13-188-63l-26-22c-181 151-186 95-253 77v42c-95 9-24-5-51 35z"/><path class="fil10" d="M3734 926c20 15 94-5 24 116-12 21-29 27-43 42-26 29-6-11-26 39l24 126c61-66 18-31 62-105 90-151 222-226 256-273-166 78-46 15-86-19 67-98 60-87 247-102 161-13 210-11 368 2-45-34-64-39-137-41-218-8-30 44-366-28-87-18-184 2-235-2-64-4-161-21-241-17l34 75c118 9 252-8 308 8 45 109 55 117-73 238l-51 42c-3-5-13 10-26 13l18-204-55 88z"/><path class="fil11" d="M3442 1840c1 136 71 183 3 338-39 89-108 158-196 166-72 100-275 47-368 0-138-69-164-96-320-115 22 57 31-46 9 75 106-19 79 4 129 18 3 1 10 2 14 3 0 0 44 3 50 4 153 26 85 72 291 122l122-3c68-21 129-27 173-61 40-31 27-33 62-67 25-25 79-64 90-74l46-245c-57-49-41-65-27-144l-82-115 4 95z"/><path class="fil3" d="M2385 4248l-26 198c-1 39 2 27 8 56 10 50 36 239 42 253l-5-199c63-49 44-15 94-114-51-83-43-44-85-126 37-67 92-118 145-169 128-122 57-113 234-119-41 178-95 4-57 201 120-2-3-32 114-58-13-115-88-261-188-328l23 119-48 12c-4 1-13 1-17 2-161 20 74-31-62 1l-27 137c-58 10-34-20-74 53-14 26 50 57-71 82z"/><path d="M3789 1410c13 78-32 106 23 187 160 14 89-61 229-135 98-51 179-43 247-100l47 25c16 6-51 25 46 2 82-37 35-14 63-106-152-32-74 112-101 25-57-69 9-24-88-36-31 20-65 45-97 57-297 111-72 118-290 104 32-116 68-59 122-191-49 29-58 33-108 81-35 34-25 29-50 52-32 31-12 15-42 35z" fill="#b16838"/><path class="fil3" d="M3480 4725c165 127 526 67 712-5 15-22 35-56 60-86 48-58 35-21 68-97-55 1-55-14-108 26-34 26-20 62-21 71-89 0-62 5-158 23l53-38c143-100 91-91 47-140-105 113-54 93-208 192 81 33 81-48 187 15-135 45-180 58-326 43l-300-57c-50 42-22-24-7 54z"/><path class="fil6" d="M854 2521c12-12 33-17 42-25 33-28 10-47 8-50-50-10-85-14-127-50-54-47-42-22-51-101l-163 12c-6-6-17-25-21-30-107-131 41-35-69-57l-76 40 24 108c1 4 3 11 4 14 10 39-48 58 100 83 102 17 228 50 329 56z"/><path class="fil3" d="M2736 1523c15 116 23 39-8 100-10 20-17 25-39 29-87 16 21-11-84-54-74 5-39-20-84 50 159-13 60-1 95 125 15 53 66 117-16 240 141 63 80 79 171 168l34-95s-3-4-4-4l-110-175c-44-71 42-103 42-103-44-79-60 50-42-100 75-40 69-13 133-68 5 5 11 7 13 16l52 70 186-22c-6-16-14-27-17-22l-170-38-52-121c-2-5-7-13-9-19l-92 24z"/><path class="fil4" d="M1962 252l130-6c-2-63 115-44 174-45-81-166-23-57-19-69 15-44-94 58 58-37-162-42-194-3-379 27l-176 19c-1 0-67 26-77 33l-85 89 374-11z"/><path class="fil7" d="M1142 5172c-66 32-14 1-72 42-46 33 13-10-28 27-11-67 7-14-47-38l-12-6-13 58 57 35c3-6 12 11 19 15 88 52 173 45 288 52 5-5 8-23 9-18 2 6 6-20 22-31l103 8c76 10 66-17 102-74-118-18-159-30-274-54 6-7 15-15 21-20l76-59c16-9 1-28 133-21-52-65-39-60-90-52-198 65-229 220-369 271 32-73 34-74 75-136z"/><path class="fil6" d="M1999 2648l10 49c17 56 15 63 43 115 39 74-7-38 38 68 25 60 14 40 30 95l-5-7 105 148c61 107 144 258 224 326l47-3-36-67c-124-247-81-62-114-191-11-42 5-65 21-118l-81 13c-20-59-46-141-51-162-25-95 64-41-76-99-53 22-40-24-45 22-20-86-46-95-65-159-21-69 31-85-92-109l48 76z"/><path class="fil9" d="M725 2046c72-58 5-14 104-30l-55 74c-16 27-18 30-20 52 5 3 12 4 15 12 1 4 53 49 121 69 35 10 89 17 154 15 45-19 46 11 17-38l-79-5c-1-3 0-9 0-11s-1-9-1-12l-7-26c-2-4-5-11-7-15-143-279-32-60-46-166-105-33-62 10-89-96-5-19 8-126 9-148-72 43-85 31-122 125-64 166-6 167 7 201z"/><path class="fil13" d="M3577 3225c-30-36-47 49-20-47 18-13 26-22 47-35 41-26 6-5 62-33l-9-134c-141 45 1 33-148 0 4 6 12 6 14 15 10 47 42-10 58 111-8 1-107 19-151 38l-149 114 76 25c-66 21-66 17-109 75 8-8 26-89 42 33 13 103-1 25-9 23 327-8 11-72 346-106l-51-79z"/><path class="fil6" d="M2517 770l111-25c-53 48-120 49-223 117-106 69-136 67-190 143l79 20 102-64c56 49 8-20 50 79 78-78 76 9 138-79 20-29 12-29 14-57l88-21-7-184-164-13 1 85z"/><path class="fil4" d="M1581 877v-33c47 0 12 15 97-7l61-26c33 41 16 3 21 75l98-13c21 21 17 16 39 50 30 45 23 33 50 89l-220 8c19 40-51 11 57 60 91-61 70-27 191-52-10-60-4-55-7-100-5-81 0-33-11-97l-94-18c21-54 11-49 38-90l-398 2c-6 100 8 84-35 158l114-4z"/><path class="fil2" d="M2891 974l-13 52c12-2 27-18 34-9l59-17c5-2 27-13 61-22 47 44 55 61 123 88 22 79-7-69-5 14 0 16-19-17 5 25l153 1c6-1 7 68 45-76 1-5 3-14 4-21-85-53-99-47-177-37 14-97 16-70 55-145-102-46-84 21-108 72-97-25-41 29-58-54-1-3 32-19-66-72-8 43-21 42-11 62l23 28c5 6 13 14 17 19 5 6 14 13 20 21-175-30-97-60-162 71z"/><path class="fil4" d="M3789 1410c30-20 10-4 42-35 24-23 15-18 50-52 50-48 59-52 108-81 43-56 134-80 196-125-28-36-73-37 31-88-157 0-128-41-183-59-86 75-201 205-239 309-31 86-28 66-5 131z"/><path class="fil6" d="M399 871l109-9c-30 125 24 54-71 105-35 19-62 26-119 31 5 5 15 4 17 13 19 90 4-8 26 21 57 75 1-97-22 163 116-42-29 69 71-76 4-6 9-14 12-19s7-14 13-19c51-11 59-13 111-14 82-1-13 10 60 2 63-7 12 6 53-21-61-17-98-6-123-53 148-8 88 33 192-32-87-19-42 25-78-34 24-40-11-46 47-41 67 6 10-15 26 45 5-4 12-11 15-14l56-52c12-9 50-31 65-39-29-38 80-63-54-37-93 34-92 39-198 45-11 1-84 1-86 1l-120 35z"/><path class="fil11" d="M1199 5075l-57 98c-41 62-43 63-75 136 140-51 171-206 369-271 27-28 37-23 51-67l330-49 61 3-1-5-11-54-230-7-14-16-37 22c-80 38-93 19-194 87-57 39-144 107-192 123z"/><path class="fil10" d="M4290 1112c122-6 97-16 205 40 83-20 75 30 76-22 75-31 22 16 74-51 75-7-19 81 58 22 59-46 8 35-2-113 76 64-18 39 82 40 0-75 15-37-6-94-30-81 14-27-56-66-25 20 16 23-101 14-80-7-49-15-94-10-17 37-1 7-5 60-6 77 18 6-9 58 44-24 44-15 68 12 2 2 6 19 7 15s5 11 7 17c-73 33 0 20-72 22-68 2-30-4-127-27l-67-14c-2 17-25 72-36 96z"/><path class="fil7" d="M1885 3940c187-38 50 56 208-17l-2 34c17 216 138-153 28 55l26 78c2 119-14 52-14 52 73-33 14-16 40 29l-41 24 89-7c-40-80 9-256 50-298-58-28-66 64-42-28l18-57c-80 4-249-13-298 37-45-35-54 56-29-63-55 65-48 65-34 162zM477 3785l25 126c-50 32-119 16-181 7-6-1-48-8-55-8-5 0-12 1-17 1-39 0-104 70-104-29l-11 32c-16 119-14-25 12 38 202 44 291 70 379 201 31-55 28-163 45-243 16-78 47-168 67-277h-86c-9 69 24 151-74 152z"/><path class="fil6" d="M1486 4970l59 85c3-4 11 10 17 15 73-7 70-15 113-46-4 5-28 21-34 24-91 40-72-4-133 103 13 12-46 100 69 14-18 38-42-62-2 79 33-1 3-8 30 34 1 1 5 7 8 10 0-64-9-5 46-31 72-19 115-56 120-122l-109-30 45-32c37-31 31-15 47-57l4-72 51-23-330 49z"/><path class="fil1" d="M804 5325c-37 0-152-6-182-5-101 6-108-25-106 59l249 57c450-77 238-12 445-32 91-9 98-23 124-47-116-7-201 0-288-52l-242 20z"/><path class="fil9" d="M2157 1584c-6 87 2 65-33 152l-32 75c-18 32 1 19-49 60-5-6-12-14-14-18-79-130-15-66-15-66-8 1-52 2-69-1l-23-88-24-13c-11 100-29 111 23 199 1 2 49 64 54 71 15 23 22 40 40 78 3-8 11-27 14-30 2-3 9-11 11-14l32-25c21-19 33-34 58-64 12-14 42-50 56-70 36-51 53-84 92-135-46-72 74-60-58-60 25-104-20-60-39-78l-23 26z"/><path class="fil1" d="M2601 2013c83-123 31-187 16-240-35-126 64-138-95-125l1-8c-50 110-29 125-48 175-16 43-10 23-27 45-79 98-97 33-50 178 125-44-8-20 98-63 60 50 1 24 106 38z"/><path class="fil3" d="M3629 4865c202 27 283 21 480-6-58 164 26-5-32 62l-6 153-58 48c63 48 71 233 45 292-21 47 7 2-86 30l-37 10 148 31c63-184 41-223 78-389 34-73 39-127 30-224l-25 223c-39-30-93-14-78-176 14-157 75-70 17-128-126 20-385 27-476 74z"/><path class="fil7" d="M849 4211l-19-4-1 72c-95-8 7-14-58 88-26 41-58 69-114 92 50 16 34 8 60 33-39 90-34 70-102 113-62 40-61 53-111 89-115 88-194 31-282 55 377 120 707-316 704-576-48-60 10-22-29-7-21 8-28 32-31 25s-12 12-18 19z"/><path class="fil11" d="M778 139c0 140-61 25-69 26-36 6-27-6-69 0-69 10-66 26-130 64l269 66c82 4 230-22 291-48-97-5-44 17-91-38 14-14 45-42 58-54l51-51c4-13 13-13 19-20l-329 55z"/><path class="fil0" d="M4110 1615c-118 147-72 246-102 414l57 63c-1-130-52-209 22-352 50-97 137-161 241-192 90-68 274-33 419 6-30-62 23-6-72-65-99-33-230-82-344-43-25 9-97 52-123 79-70 70 13 33-95 91z"/><path class="fil7" d="M1216 840c43 50-3 59 146 87 116 22 112 3 203 69 72 0 62 21 54-42l-99-46c13 0 33-23 36-13 2 9 16-13 25-18l-114 4c43-74 29-58 35-158l-307 36 21 80z"/><path class="fil1" d="M5013 434l-32-94c-42 40 36 30-37 30-49-101-31-62-140-60l20-103 103 15c-34-26 45-10-69-36-59-14-42-6-94-5l-207 2c243 94-50 119 178 192 292 92 171 174 278 59z"/><path class="fil7" d="M222 4818c34 119 1 28 50 64 147-30 122-16 156 8 19 14 43 37 46 39 127 17 9-6 60 31 38 28 4 27 77 53 47-147-4-66 3-191 125-71 228-54 146-209-73 50-41 32-96 97-45 54-31 49-97 79-106 48-230 45-345 30z"/><path class="fil3" d="M1479 4544c-39 54-49 74-29 165 37-71 80-4 183-218-25-51-20-45-75-73 91-114 50-33 39-70 0-1-5-5-5-6-13-52 1-24 29-83-52 25-227 17-189 195 22 103 12-19 47 90zm781-2562c18 174 247 91 341 31-106-13-47 13-106-38-106 43 27 19-98 63-47-145-29-80 50-178 18-22 11-3 27-45 19-50-2-65 48-175-83 48-94 70-151 146-52 69-87 118-111 196z"/><path class="fil4" d="M1300 3467c93-23-15 9 78-31l58-25c-27 162-23 122-133 172l51 77c-22 29-45 57-66 85l73-2c60-200 63 9 161-233 44 117-56 55 94 75-79-158-32-44 58-154-69-60-7-40-111-38-35 40-9 55-25 97-39-53-63-72-115-117-90 36-48 4-122 94z"/><path class="fil13" d="M2278 1697c-39 51-55 84-92 135-14 20-45 56-56 70-25 30-37 45-58 64-6 116-68 137-4 195l211-390c63-84 240-221 360-261 4-4 35-45 36-47 7-13 23-57 25-66l12-12c-113 37-2 13-85 76-45 35-62 16-135 67-83 58-156 120-215 169z"/><path class="fil4" d="M2260 4616l-44 15c109 84 78 119 80 156 7 120-20-28 7 62 21 67 1-33 35 83-70 21-131 44-220 36 33-75 101 11-79-130l40 261c72 0 39 46 34 98l83-20c-33-87 43-39-68-58l76-46c-47-18-53 18-95-51 60-34 82-28 160-38l9 101c6 69-5 89-36 159 30 40 48-56 13 72 71-64 94-219 78-322-31-159-38-279-39-453-42 41-24 29-35 74z"/><path class="fil11" d="M3454 2777l7 14c30 26 26 27 112 29 6 0 13 1 19 1 95-2 75-19 191-11-49-55-37-43-90-48-85-8-56 48-74-50l124 18-26-75c-18-75 29-168 45-252-98 22-101-3-136 262-86 32-119 56-169 112z"/><path class="fil1" d="M2266 5446l-45 17-2 8c89 92 323 44 463 55l63 149c100 15 29 11 57-19-28-78 5-111 21-204-71-22-325 51-556-5z"/><path class="fil7" d="M1208 1611c-55 80 8 5-46 53l-46 32c-66 36 9 19-80 16 69 76 99 60 161 134 14 17-10 7 36 53 57-60 31-51-8-99 102 7 77 4 165-29-6-5-15-19-19-14-3 6-14-10-18-13-4-2-14-8-19-11l-54-23c52-50 47-36 69-129-70-11-112-34-142 28z"/><path class="fil11" d="M759 3356c-30 125-18 24 41 65 9-25 9-40 22-73 39-103-5-39 52-75 32-64 60-128 132-185 62-49 182-219 258-239l-14-42c-166 61-168 140-285 229-73 56-75 53-120 133-35 62-63 120-86 186z"/><path class="fil2" d="M3840 2534c-24 153 26 12 29 145 3 124 15 78-73 86 79 40 27 59 101 143l34-2c47-33 15-2 48-95 5-15 18-42 21-53 22-79-10-131-22-181-47-39-4 45-64-63l-72 19z"/><path class="fil8" d="M4000 4101c-40 44-13-54-33 64-1 5 0 16 0 21-1 5 1 15 1 23 73 25 55 11 148-5 117-143 222-49 288-200-67 17-92 29-148 51-24 10-55 23-71 32l-52 40c-5-35-10-78-20-111l-36-69c-2-9-8-10-13-15-121 163-1 88-65 169z"/><path class="fil10" d="M1059 1389c-9 10-119 102-122 105-2 6-41 114-41 114-25 157-30 31 34 78 2-106 138-225 202-271l292-10 29-14c-104-76-67-64-219-87-4 4-10 6-12 14-11 41-126 64-163 71z"/><path class="fil6" d="M1939 1549c-16 46-42 53 13 91l-31 59 23 88c17 3 61 2 69 1 0 0-64-64 15 66 2 4 9 12 14 18 50-41 32-28 49-60l32-75c36-87 27-65 33-152-5 5-11 12-14 15-65 77-41 70-126 113-35-53-53-148-55-151 29-44-46-34 54-35 22-31 15-16 34-60 20-48 0 3 17-58l-83-2-45 143z"/><path class="fil11" d="M1848 3851c1 80-8 72-12 138-2 30-9 41-1 73 18 69-5 16 38 57l12-179c-13-97-20-96 34-162l8-44c12-42 22-103 44-148 39-80 33-54 80-87l52-115c23-66 55-91-26-76-65 134-239 340-229 543z"/><path class="fil4" d="M1885 2793c22 86 47 141 87 182-87 37-74 36-92 84 218-22 164-32 186-108l52 22c-16-55-4-36-30-95-45-105 1 6-38-68-27-52-26-59-43-115l9 77c-129-40-57-43-51 43-75-25-58 10-81-23z"/><path class="fil6" d="M2920 3661l159-1c9-52-27 37-3-46 9-32 31-45 53-58l4-107-175 8 35-53-78-23-1 109c-3 7-10 40-11 68h127l-46 20c-20 6-31 5-54 5l-8 78z"/><path class="fil1" d="M5080 2163l-29-124c-75-52-2-24-117-31-18 67 7 36-44 102-63 82-67-72-42 119l203 8c41-46 44 62 29-74z"/><path class="fil7" d="M1300 3467c-57 23-24-5-63 44-18 23-12 22-25 51-15 35-27 73-41 125l49-11c12 66-32 37 49 62l18 8c21-28 44-57 66-85l-51-77c110-51 106-10 133-172l-58 25c-93 40 15 9-78 31z"/><path class="fil4" d="M1171 3686c-94 91-146 338-176 462 7-5 15-21 19-15 4 7 22-17 40-22 83-26-89-10 63-7 8-78 12 8-8-50l-35-81c109-89 157-16 118-210l77-25c-81-25-37 4-49-62l-49 11zM0 4918l17 30c8-6 20-15 22-9 1 2 13-4 35-15 17-58 8-26 49-78 3-4 10-11 12-13 2-3 8-9 11-14l97 85c48 47 91 28 231 26-3-2-27-25-46-39-35-25-9-38-156-8-49-36-16 55-50-64-16-30-49-41-99-74-66-44-38-36-112-64 20 68 45 199-11 238zm1531-1780c-67 61-207 46-288 203-45 88 33 14-59 91-6 63-12 25 25 39 45-48 82-92 144-145 14-12 69-54 89-65 75-40 53-58 100 3l66-103c-56-55-30-30-69-111l-9 88zm1495 908l-12-13c-35 93-5 48 97 129 33 26 2 6 46 43 81 68 11 20 99 71 29-96 72-18 126-137-47 18-102 33-152 50v-52c-87-85-32-117-32-118 20-73 29-25 13-108-46-7-90-1-84 31 0 1 1 9 2 11l51 139c-315 21 36-16-154-46z"/><path class="fil9" d="M1628 1981c-189 42-52 116-51 118-81 24-33-1-118 62-3 2-11 15-13 10-2-4-8 7-13 10-23 115-15 35 22 64l122-72s72 4 75 5c75 12 17-23 48 21 9-118 53 13 65-158 79-16 28 10 0-56-26 55-18 20-22 94-1 29-17 19-29 40l-76-67c-2-4-5-11-7-15-2-6-1-27-3-55z"/><path class="fil4" d="M2067 1408c-17 61 3 10-17 58-18 44-11 29-34 60 65 26 37-2 58 57 24-24 47-47 66-73l39-61c4-6 18-24 23-30l153-157-71-30-53 9c-51 94-85 133-165 167z"/><path class="fil11" d="M2322 3955c-17 150-70 292 9 392l24-103c-10-133 2-177 28-274l67-137 52-179-47 12c-21 62-30 119-59 169-36 61-46 43-75 120z"/><path class="fil10" d="M2036 5281c51 158 46 123 184 191l2-8c17-95 26-53 35-146 34-128 17-31-13-72l-95 82-34-129c5-52 38-98-34-98 4 39 13 89 4 126-21 84 15 23-48 54z"/><path class="fil7" d="M2014 2034c-34 66 4 7-46 56l-30 27c5 52 36 363 56 405l74-361c-65-58-2-80 4-195l-32 25c-3 3-9 11-11 14-3 4-11 23-14 30z"/><path class="fil4" d="M652 5300c10-50-1-29 25-64 59 40 54-84 45 80l31-33c61 9 50-11 50 41l242-20c-7-4-15-21-19-15l-57-35 13-58-21-55c-44 51-33 50-103 65-212 45-167-44-304 69l97 23z"/><path class="fil7" d="M2114 5198l34 129 95-82c31-70 42-91 36-159l-9-101c-78 10-100 4-160 38 42 69 49 32 95 51l-76 46c111 19 35-29 68 58l-83 20z"/><path class="fil2" d="M2422 2727c-37 31-16-56-34 41 109-73 25-31 51 5-8 3-213 104-127 76-36 54-16 34 34 76l142-51c13-5 60-24 60-24l-6-66c-22-39-7-14-32-19 97-104 31-115 13-136-28 69-23 103-101 99z"/><path class="fil13" d="M1769 2767c4-70-12 1 55-32 32 68-8 32 61 59 23 33 6-1 81 23-7-86-78-83 51-43l-9-77-10-49c-38-19-57 6-78 16 13-40-5-43-28-69-6-7-18-15-27-23-23 60 14 20-57 68-4 2-13 5-19 8l-21 119zm2568 1490l-11 84 67-52c-76 225-17 61 1 124l100-31 4 36c59-77 7-4 14-62 0-2 0-10 1-12 10-70 31-17-19-115 113 20 55 55 95-90-121 60-23 2-85 59l-164 59z"/><path class="fil11" d="M503 4695c50-36 49-49 111-89 68-43 63-23 102-113-26-25-9-17-60-33-7 78-73 134-116 149 60-50 57-58 76-160-110 36-27-19-127 89-27-71 34-40-73-66 47 53 14 4 36 75 15 49 16 109 50 149zm567-1608c-56 60-42 27-63 142 211-89 91-131 211-190 116-58 139-12 189-150l-55-2c-61 49-79 23-145 87-59 58-40 77-135 114z"/><path class="fil4" d="M2064 3730l-46 53c-61-33-72 7-32-67l-58 18-8 44c-25 119-16 29 29 63 49-49 218-33 298-37l16-45-33 19 15-40-153 41 118-137c-35-40-73 89-8-97 28-80 12 24 20-66-60 64-101 173-159 250z"/><path class="fil2" d="M2488 3545l118 199 39-129c5-3 15-6 20-9l36-35c2-2 3-10 5-15-21-7-57-11-104-22 33-136 11-111-105-152 12 88-11 29 41 129l34 48-85-13z"/><path class="fil14" d="M3666 3111v83l32 6 105-53c27-36-40-29 85-26l-30-92-201-52 9 134z"/><path class="fil3" d="M3530 945c5 6 12 7 15 17l143 162c20-50 0-10 26-39 14-15 31-21 43-42 71-121-4-101-24-116l-19 37c-34-31-38 30-18-70l-123-17 10 81-55-12z"/><path class="fil4" d="M3546 2003l-46 245c-49 80-30 26 25 44l144-68c-6-4-15-8-20-11l-71-51 58-28c-8-121-12-32 21-66-51-103 23 22-47-50-35-37-61-64-67-121-1-10-3-13-10-20l12 124z"/><path class="fil9" d="M475 2117l-1 102c111 23-37-73 69 57 4 5 15 24 21 30l163-12c-62-89-8-55-108-67 41-70 39-37 34-90-6-59-6-41-36-88-16 102 26 47-50 84-54 26-3 17-90-17z"/><path class="fil11" d="M2335 4996c16 103-7 258-78 322-9 94-17 51-35 146l45-17c73-91 114-229 139-378l-1-112-70 39z"/><path class="fil7" d="M1783 1079c113 106 89 71 150 53l11 172c70-47 19-3 50-72l-29-1c0-9-1-98-2-101l-28-56c52-34 77-38 109-96-15-30-24-63-36-88-25-51-12-29-44-60h-7c11 65 6 17 11 97 3 45-3 40 7 100-120 25-99-8-191 52z"/><path class="fil13" d="M315 2844c80-62 64-76 190-61l-65-49c32-107 38-54 81-145l-183 13c-27 92-12 140-23 242z"/><path class="fil7" d="M1691 2437l101-28c-10 30-41 75-44 84-43 131 14 99 16 104l35-33c66-101 7-139 22-270 197 133-58-101 72 54-10-39-12-84-16-107-15-80-2-45-32-94-6 47-11 108-48 156-54 69-57 18-107 134z"/><path class="fil9" d="M485 2089c34-63 10-22 66-84 19 14 2-28 51 42 17-78 42-152 55-246-54 71-17 69-122 89l-46-70c-58 3-43 14-29-47-35 128 1 91 12 175 4 29-2 82-2 83 1 47-6 28 15 59z"/><path class="fil6" d="M2067 1408c80-35 114-73 165-167l53-9 11-48c-97 2-111 13-184-18-40 95-40 42 21 83-87 90-37 48-86 69l-30 14c16 61 0 43 50 75z"/><path class="fil9" d="M1436 5037c51-9 38-14 90 52-132-7-117 12-133 21l-76 59c-6 5-15 13-21 20 115 24 155 36 274 54l5 1c-40-141-16-41 2-79-115 86-55-2-69-14 61-107 42-63 133-103 6-3 30-19 34-24-42 31-40 39-113 46-5-5-14-19-17-15l-59-85c-13 44-24 39-51 67z"/><path class="fil7" d="M800 3023v93c138-39 86-98 187-191-3-7-8-26-9-21l-11-131c-63-69 36-27-55-18l-57 43 64 101c-37 65-37 110-120 123z"/><path class="fil4" d="M4467 4025c53 31 40 13 78 89l13-34c2-5 4-13 5-19l51-181c-125-7 36-58-158-46-7 88 14 82 10 191zM800 3023c84-13 83-58 120-123l-64-101 57-43-77 6-4 106c-6-4-16-20-20-13l-109-20c-62 99-40-23-41 108 87 8 101-20 174-47-7 107 17 60-36 128zm464-173c-77 20-196 190-258 239l64-2c95-37 76-56 135-114 66-64 85-39 145-87l8-78c-94 6-8-34-94 41z"/><path class="fil9" d="M2215 1004l-2 103c23 17 40 28 70 50 35-13 53-15 81-32 73-43 25-7 47-45-17-50-22-31 37-41-43-100 5-30-50-79l-102 64-79-20z"/><path class="fil3" d="M3539 5808l47 27c16-88-56-26 53-77 81-37 110 17 196-91-135 45-26-64-238-40l-59 181z"/><path class="fil2" d="M3627 1710l74-3c-42-27-10-25-47-25 17-29 25-30 30-71l-3-32c-10-78-46-107-96-127-75 105 2 33-55 183 6 4 14 8 17 10l79 64z"/><path class="fil8" d="M4724 763c18 74 7 44 48 91 19 21 38 33 71 74l6-121c141-15 82-37 125 60 1-2 3-9 4-7l22-44 65 58-40-85c-40-11-97-31-147-44-181-46-150 7-156 17l2-1z"/><path class="fil15" d="M2270 718l-15 101 105-4 157-45-1-85z"/><path class="fil2" d="M1779 5135l77-18c5-86 15-90 21-192l-61-3-51 23-4 72c-16 42-10 26-47 57l-45 32 109 30z"/><path class="fil3" d="M2822 5452c78 10 19-27 63 27l14 188 124-290c-3-1-6-3-8-4l-88-47c-20 66-7 43-78 101l-27 24z"/><path class="fil2" d="M587 3424c-16 76 27 29-36 73-8 13-28 58-30 63 49 19 103 47 114 50 48-4 48-109 50-139l68-103c-73 29-95 38-166 56z"/><path class="fil15" d="M1636 4859l230 7 11 54 48-74c-41-56-70-97-151-52l-9-47c-94 7-103 16-129 112z"/><path class="fil2" d="M2997 5740c77 31 108 33 187-48 57-58 38-64 71-179-149 63-70 60-142 129l-77 51c-48 39-38 45-38 47z"/><path class="fil3" d="M2043 978l8 44 71-27c64-42 28-6 67-83-44 17-68 29-98 46 14-80-10-49 60-99l42-21c-52-43-64 38-45-49 42-22-61-50 67-8l-16-62-65 20-53 12c32 185-47 19-39 227z"/><path class="fil9" d="M1581 845v33c-9 5-23 27-25 18-3-10-23 13-36 13l99 46c8 64 19 43-54 42l75 33c33-80-17-11 33-64 25-27 33-26 72-47l14-33c-5-71 12-34-21-75l-61 26c-85 23-50 8-97 7z"/><path class="fil3" d="M2094 2337c-4 79-5 10 24 27 45-84 136-147 261-137 47-39 6-25 94-28-26-39 12-42-153-23-5-5-10-13-13-16l-14-14c-100-88 65 22-48-29-64 61-29 11-66 107-33 85-18 60-85 113zM1760 886l-14 33c-20 52-20 35-19 101l220-8c-27-55-20-43-50-89-22-33-18-29-39-50l-98 13z"/><path class="fil6" d="M338 2602l183-13 73 18c15-29 16-44 33-71-50-25-90-40-160-38-99 3-104 22-128 104z"/><path class="fil11" d="M1031 1307c34-111 11-85 0-205l-73-12c-20 103-37 139-57 210l129 7zm228 1824c-37 59-2 14-43 58-6 6-23 21-28 25-45 39-19 20-69 45l38 31c199-191 217-48 304-239l-98 16-50 34c-34 2-18-33-53 29zM781 1579l9-4c104-35 54-20 146-81 3-2 113-94 122-105l-2-50-66 2c-40 36-100 82-121 108-47 58-25 66-88 130z"/><path class="fil1" d="M4169 4219l47 50 16 75c-19 30 4 28-33 44l57-3 69-44 11-84-15-62-81-14-72 38z"/><path class="fil15" d="M4077 3834l38 22c41 17 29 23 103 7 129-27 112-43 135-79-65-25-19-36-111-1l-126-33-39 83z"/><path class="fil7" d="M1927 3734l58-18c-40 74-29 34 32 67l46-53c-55-26-42 29-23-66 3-14 32-62 42-80-77 0-52-11-31-84-48 32-42 7-80 87-22 45-32 106-44 148z"/><path class="fil4" d="M905 1350c-29 72-15 38-51 60-97 36-53 27-121 80l-21 157 70-67c63-64 41-73 88-130 21-26 82-72 121-108l-86 9zm2080 3101c-8-111-38-160-65-287l-71 7c89 250 66 43 37 312l100-32z"/><path class="fil11" d="M1845 1693l24-38 28 31 24 13 31-59c-55-38-29-44-13-91l-45 15-70 8 21-77-82 27c3 5-1-16 8 11 0 1 3 9 3 10 1 2 3 11 4 13 19 73 15 53 2 132l64 3z"/><path class="fil4" d="M1994 1233c16-13 6-4 27-46 19-38 7-21 36-68 39-64 41-61 67-124l-71 27-8-44c-32 59-57 62-109 96l28 56c1 3 2 93 2 101l29 1z"/><path class="fil11" d="M2082 3584c-10 18-39 66-42 80-19 95-32 40 23 66 58-76 98-186 159-250l29-53c-77 10-60-9-113 50-28 32-44 78-57 106z"/><path class="fil4" d="M319 998c57-5 84-12 119-31 95-51 41 20 71-105l-109 9c-8 2-46 8-51 10-58 18-28 8-55 22l26 95z"/><path class="fil3" d="M4160 4442l55 37c-14 7-4 40 1 55 113 1 71-6 172-41-26-108-34-77-120-54l-13-53-57 3c-15 91 2 35-39 54z"/><path class="fil1" d="M1891 3471c149-201 72-221-50-221 12 115-14 138 50 221z"/><path class="fil4" d="M477 3785c98 0 66-83 74-152h86l-2-24c-11-3-65-31-114-50 3-5 22-50 30-63-83 12-34 16-116 84 59 6 22-8 76 17 60 28 18 13 47 39l-45 61c-113-41-26-41-136-80 86 126 114 102 100 168z"/><path class="fil14" d="M3949 3189c120 41 165-74 90-189-42 21-31-31-77 79-24 57-21 55-13 110z"/><path class="fil1" d="M2216 781l-22 57-42 21c-70 50-46 19-60 99 30-17 54-29 98-46 56-22 31-14 88-54 26-18 45-32 82-44l-105 4 15-101-71 1 16 62z"/><path class="fil3" d="M3666 5334l-7 105c54-13 100-32 143-50 91-38 79-36 90-134-80 23-36 22-96 85-75-25-32-14-130-5z"/><path class="fil16" d="M2209 3644l-118 137 153-41c18-133 89-86 72-233-36 34-83 75-107 137z"/><path class="fil4" d="M1963 830c32 32 19 10 44 60 12 25 22 58 36 88-8-208 70-42 39-227l53-12c-26-52-59-33-115-20-19 66-26 69-56 110z"/><path class="fil1" d="M885 4950l-3 144c85-9 62 14 115-95 1-2 5-8 6-10 21-48 21-39 24-118-74 70-48 53-142 80z"/><path class="fil11" d="M2262 3760l-16 45-18 57c-24 92-16 1 42 28-24-66-15-23 25-43 50-67 100-107 98-237l-130 148z"/><path class="fil3" d="M1490 1878l24-116-55-22c5 175-113 10-139 214 82-25 87-41 170-76z"/><path class="fil4" d="M146 5162c-28-175 13-78 54-214-38-12-81-11-92 36l-33-60c-7 64-11 76 4 142 30 138-12 64 68 96z"/><path class="fil1" d="M4981 340c-4-18-3-39-13-64-27-62-21-37-41-54l-103-15-20 103c109-3 91-41 140 60 72 0-5 9 37-30z"/><path class="fil4" d="M326 5279l94 101c29-17-50-66 65-9l29-95c-92-102-37-20-83-124-6 90 11 152-106 127z"/><path class="fil9" d="M1388 2181l-33 6c-82 73-154 27-119 148l4 12c21 66-8-20 8 23l62-17c-6-58-28 1-7-48 21-51 45-40 93-47l-8-77z"/><path class="fil3" d="M4189 1701c-50 87-48 99-48 213l9-18 24-55c36-78 7-44 61-87 96-78 77-4 113-125-113 13-69-4-130 95-58 17-59 34-28-21z"/><path class="fil13" d="M3273 776c8-50-9-24 59-87-29 0-118-5-138-2-175 23-46-5-113 60l192 29zM994 5203c54 24 35-29 47 38 41-37-18 6 28-27 58-41 7-11 72-42l57-98-92-7c-22 58-11 28-43 63-28 31-47 47-69 72z"/><path class="fil16" d="M732 1489c69-52 25-44 121-80-17-21 48-41-128-6l-98 24c19 70-6 88 105 62z"/><path class="fil11" d="M4131 2266c48 26 37 14 86 61 36-36 16 12 18-65l-43-97c-1-1-74-53-77-57l17 157z"/><path class="fil4" d="M185 3681l32 28c108 106 38 70 131 78-15-99-76-137-134-156-51 35-2-11-29 49z"/><path class="fil15" d="M1468 5317l18 50c97-24 144-18 181-48l-8-61c-55 26-46-33-46 31-3-3-7-9-8-10-27-42 3-36-30-34l-5-1c-36 57-26 84-102 74z"/><path class="fil1" d="M3459 6186c41 13 33 23 34-17l-12-135-134 16 56 69c50 54 14 0 56 68z"/><path class="fil6" d="M485 2089l-11 28c88 33 36 43 90 17 76-37 35 18 50-84l-13-2c-49-70-32-28-51-42-56 62-32 21-66 84z"/><path class="fil3" d="M1956 830h7c31-42 38-45 56-110l-119 2c-27 40-17 35-38 90l94 18zm-375 15c49-72 33-20 135-66-59-44 58-11-76-37-63-12-59-5-121-6 30 83 11 75 62 109z"/><path class="fil9" d="M1084 2443c4-49-29-52 7-33l-138-41 144-66c-64-31-35-24-69-68-127 1-17-18-113 44l169 165zm2614 756c0 94 21 59 114 36 23-30 34-55 48-95l-57 6-105 53z"/><path class="fil13" d="M2606 1598c105 42-3 70 84 54 22-4 29-9 39-29 31-61 22 16 8-100l-53 25c-87 28-38 5-77 50z"/><path class="fil11" d="M1840 1971l2-163-78 32c11-96 22-34-10-61l-27 93c3 2 9 7 13 10s10 7 14 10c85 65 2-39 87 80z"/><path class="fil6" d="M3658 2070c-34 35-29-55-21 66l75 56c29-86 20-54 6-171l-60 49zM993 1722l43-10c90 3 14 20 80-16l46-32c53-48-9 27 46-53-126 47-87 56-197 25l-18 85z"/><path class="fil2" d="M1109 2029c-13-123-8-131-109-164 16 106 29 120 109 164z"/><path class="fil4" d="M4386 4737c4-4 11-15 13-11s10-9 13-12l46-56c29-38 10-12 36-50l-122 14c-13 43-20-55-11 67 1 21 15 33 25 47z"/><path class="fil1" d="M4950 1867l-15-29-33-24 34 114c-117-12-28-33-108 25l149 33-27-119z"/><path class="fil0" d="M3577 3225l89-32v-83c-56 28-21 6-62 33-21 13-29 22-47 35-27 97-11 11 20 47z"/><path d="M3787 1732c83-18 57 0 104-71-58-18-49-16-117-33l13 105z" fill="#b87648"/><path class="fil4" d="M2154 3131c35-42-25-26 65-14l-105-148 17 57c0 4-1 13-1 17 0 3-20 44-26 61l51 28z"/><path class="fil10" d="M2383 3970l69 3 55-87c-16-6-28 0-67 13l11-66-67 137zm-238 747l5-32 4-42c-73 25-12-27-75 37-44 45-29 42-46 70l112-33z"/><path d="M1334 5358l152 9-18-50-103-8c-16 11-21 37-22 31-1-5-5 13-9 18z" fill="#744635"/><path class="fil7" d="M1426 3362l98-22 18-77c-45 14-23-7-66 30-84 70-5-4-49 69z"/><path class="fil4" d="M2103 3384c86-64-23-35 121-41-56-22-10-10-36-39l-111-41v45c81-15 50 10 26 76zm-463-2355l86-10c-1-65-1-48 19-101-39 20-47 20-72 47-50 53 0-16-33 64zm2096-808l91 16c-16-106 1-64-74-89l-17 72z"/><path class="fil0" d="M1259 3131c35-62 20-27 53-29-28-35 97-103-100-18-29 60-29 17 46 47z"/><path class="fil11" d="M2150 4685l-5 32-25 50 92-6c-3-181 12-20-63-76z"/><path class="fil4" d="M728 962l-6-30c-16-60 41-40-26-45-58-5-23 1-47 41 37 59-9 15 78 34z"/><path class="fil9" d="M652 5300l71 17c9-164 13-40-45-80-26 34-15 13-25 64z"/><path class="fil7" d="M3267 1991c-15-146 30-48-66-83 23 85-6 49 66 83zM2194 838l22-57c-128-43-26-15-67 8-19 88-6 6 45 49z"/><path class="fil5" d="M4232 4345l-16-75c-72 19-25-27-48 47 33 53-8 12 64 29z"/><path class="fil11" d="M2076 4215l54-19 41-24c-26-46 33-62-40-29l-54 72z"/></g></svg>