<svg xmlns="http://www.w3.org/2000/svg" width="116.698" height="166.712" viewBox="0 0 116.698 166.712"><g transform="translate(-12.5 -2)"><path d="M61.882,65.584A2.382,2.382,0,0,1,59.5,63.2V48.342a2.382,2.382,0,1,1,4.763,0V63.2A2.382,2.382,0,0,1,61.882,65.584Z" transform="translate(64.935 60.735)" fill="#004b74"/><path d="M119.672,168.712H22.026a9.526,9.526,0,0,1-9.526-9.526V11.526A9.526,9.526,0,0,1,22.026,2h97.646a9.526,9.526,0,0,1,9.526,9.526v58.9a2.382,2.382,0,1,1-4.763,0v-58.9a4.763,4.763,0,0,0-4.763-4.763H22.026a4.763,4.763,0,0,0-4.763,4.763V159.186a4.763,4.763,0,0,0,4.763,4.763h97.646a4.763,4.763,0,0,0,4.763-4.763v-23.34a2.382,2.382,0,1,1,4.763,0v23.34A9.526,9.526,0,0,1,119.672,168.712Z" transform="translate(0 0)" fill="#004b74"/><path d="M61.882,54.331A2.382,2.382,0,0,1,59.5,51.949V37.112a2.382,2.382,0,1,1,4.763,0V51.949A2.382,2.382,0,0,1,61.882,54.331Z" transform="translate(64.935 45.22)" fill="#004b74"/><path d="M101.856,40.211H23.263A4.763,4.763,0,0,1,18.5,35.448V14.013A4.763,4.763,0,0,1,23.263,9.25h78.593a4.763,4.763,0,0,1,4.763,4.763V35.448A4.763,4.763,0,0,1,101.856,40.211Zm-78.593-26.2V35.448h78.593V14.013Z" transform="translate(8.29 10.017)" fill="#004b74"/><path d="M36.362,50.375h-13.1A4.763,4.763,0,0,1,18.5,45.612v-13.1a4.763,4.763,0,0,1,4.763-4.763h13.1a4.763,4.763,0,0,1,4.763,4.763v13.1A4.763,4.763,0,0,1,36.362,50.375Zm-13.1-17.862v13.1h13.1v-13.1Z" transform="translate(8.29 35.576)" fill="#004b74"/><path d="M36.362,64.125h-13.1A4.763,4.763,0,0,1,18.5,59.362v-13.1A4.763,4.763,0,0,1,23.263,41.5h13.1a4.763,4.763,0,0,1,4.763,4.763v13.1A4.763,4.763,0,0,1,36.362,64.125Zm-13.1-17.862v13.1h13.1v-13.1Z" transform="translate(8.29 54.573)" fill="#004b74"/><path d="M63.862,50.375h-13.1A4.763,4.763,0,0,1,46,45.612v-13.1a4.763,4.763,0,0,1,4.763-4.763h13.1a4.763,4.763,0,0,1,4.763,4.763v13.1A4.763,4.763,0,0,1,63.862,50.375Zm-13.1-17.862v13.1h13.1v-13.1Z" transform="translate(46.284 35.576)" fill="#004b74"/><path d="M50.112,50.375h-13.1a4.763,4.763,0,0,1-4.763-4.763v-13.1a4.763,4.763,0,0,1,4.763-4.763h13.1a4.763,4.763,0,0,1,4.763,4.763v13.1A4.763,4.763,0,0,1,50.112,50.375Zm-13.1-17.862v13.1h13.1v-13.1Z" transform="translate(27.287 35.576)" fill="#004b74"/><path d="M50.112,64.125h-13.1a4.763,4.763,0,0,1-4.763-4.763v-13.1A4.763,4.763,0,0,1,37.013,41.5h13.1a4.763,4.763,0,0,1,4.763,4.763v13.1A4.763,4.763,0,0,1,50.112,64.125Zm-13.1-17.862v13.1h13.1v-13.1Z" transform="translate(27.287 54.573)" fill="#004b74"/><path d="M63.862,96.872h-13.1A4.763,4.763,0,0,1,46,92.109V46.263A4.763,4.763,0,0,1,50.763,41.5h13.1a4.763,4.763,0,0,1,4.763,4.763V92.109A4.763,4.763,0,0,1,63.862,96.872Zm0-50.611h-13.1V92.109h13.1Z" transform="translate(46.284 54.573)" fill="#004b74"/><path d="M50.112,77.875h-13.1a4.763,4.763,0,0,1-4.763-4.763v-13.1a4.763,4.763,0,0,1,4.763-4.763h13.1a4.763,4.763,0,0,1,4.763,4.763v13.1A4.763,4.763,0,0,1,50.112,77.875Zm-13.1-17.862v13.1h13.1v-13.1Z" transform="translate(27.287 73.57)" fill="#004b74"/><path d="M36.362,77.875h-13.1A4.763,4.763,0,0,1,18.5,73.112v-13.1a4.763,4.763,0,0,1,4.763-4.763h13.1a4.763,4.763,0,0,1,4.763,4.763v13.1A4.763,4.763,0,0,1,36.362,77.875Zm-13.1-17.862v13.1h13.1v-13.1Z" transform="translate(8.29 73.57)" fill="#004B74"/></g></svg>