<svg xmlns="http://www.w3.org/2000/svg" width="36.478" height="48.11" viewBox="0 0 36.478 48.11"><g transform="translate(-61.898)"><g transform="translate(66.407 4.518)"><g transform="translate(0)"><path d="M129.75,49.558a13.7,13.7,0,0,0-17,20.63.758.758,0,0,0,1.2-.931,12.184,12.184,0,0,1,15.117-18.345.758.758,0,1,0,.684-1.353Z" transform="translate(-109.878 -48.082)" fill="#004b74"/></g></g><g transform="translate(71.408 11.633)"><g transform="translate(0)"><path d="M184.033,124.223a.758.758,0,0,0-1.354.684,12.184,12.184,0,0,1-18.346,15.115.758.758,0,1,0-.931,1.2,13.7,13.7,0,0,0,20.631-16.995Z" transform="translate(-163.109 -123.806)" fill="#004b74"/></g></g><g transform="translate(87.903 7.762)"><g transform="translate(0)"><path d="M341.118,84.005c-.188-.213-.385-.422-.587-.624s-.411-.4-.624-.587a.758.758,0,0,0-1,1.136c.189.167.376.343.556.523s.355.366.523.556a.758.758,0,0,0,1.136-1Z" transform="translate(-338.647 -82.605)" fill="#004b74"/></g></g><g transform="translate(61.898 0)"><g transform="translate(0 0)"><path d="M98,19.583a2.573,2.573,0,0,0,0-2.689l-1-1.636a1.067,1.067,0,0,1-.143-.721l.3-1.889a2.572,2.572,0,0,0-1.032-2.49L94.575,9.035a1.068,1.068,0,0,1-.409-.611l-.45-1.86a2.572,2.572,0,0,0-1.9-1.9l-1.861-.45a1.067,1.067,0,0,1-.611-.409L88.217,2.254a2.571,2.571,0,0,0-2.49-1.032l-1.89.3a1.067,1.067,0,0,1-.721-.143l-1.636-1a2.573,2.573,0,0,0-2.689,0l-1.636,1a1.067,1.067,0,0,1-.721.143l-1.889-.3a2.572,2.572,0,0,0-2.49,1.032L70.933,3.8a1.068,1.068,0,0,1-.612.409l-1.86.45a2.572,2.572,0,0,0-1.9,1.9l-.45,1.861a1.067,1.067,0,0,1-.409.611l-1.546,1.125a2.572,2.572,0,0,0-1.032,2.49l.3,1.89a1.067,1.067,0,0,1-.143.721l-1,1.636a2.573,2.573,0,0,0,0,2.689l1,1.636a1.067,1.067,0,0,1,.143.721l-.3,1.889a2.572,2.572,0,0,0,1.032,2.49L65.7,27.443a1.067,1.067,0,0,1,.409.611l.45,1.86a2.572,2.572,0,0,0,1.9,1.9l.777.188L63.979,43.734a.758.758,0,0,0,.782,1.063l4.23-.506,2.437,3.495a.758.758,0,0,0,.622.324c.024,0,.047,0,.071,0a.758.758,0,0,0,.621-.445l5.37-11.979.68.415a2.573,2.573,0,0,0,2.689,0l.7-.43,5.376,11.994a.758.758,0,0,0,.621.445c.024,0,.048,0,.071,0a.758.758,0,0,0,.622-.324l2.437-3.495,4.23.506a.758.758,0,0,0,.782-1.063L91.065,32l.748-.181a2.572,2.572,0,0,0,1.9-1.9l.45-1.861a1.067,1.067,0,0,1,.409-.611l1.546-1.125a2.572,2.572,0,0,0,1.032-2.49l-.3-1.89A1.067,1.067,0,0,1,97,21.219ZM71.906,45.82l-1.931-2.77a.758.758,0,0,0-.712-.319l-3.353.4L70.7,32.446a1.06,1.06,0,0,1,.231.231l1.125,1.546a2.607,2.607,0,0,0,.358.4l-2.521,5.624a.758.758,0,1,0,1.384.62l2.512-5.6a2.6,2.6,0,0,0,.757-.007l1.89-.3a1.064,1.064,0,0,1,.339,0Zm22.488-2.688-3.353-.4a.758.758,0,0,0-.712.319L88.4,45.82l-4.87-10.864a1.067,1.067,0,0,1,.309,0l1.889.3a2.6,2.6,0,0,0,.787,0l2.514,5.609a.758.758,0,1,0,1.384-.62L87.881,34.6a2.608,2.608,0,0,0,.336-.377l1.124-1.546a1.064,1.064,0,0,1,.255-.249ZM96.7,18.794l-1,1.636a2.586,2.586,0,0,0-.346,1.746l.3,1.89a1.062,1.062,0,0,1-.426,1.028l-1.546,1.125a2.585,2.585,0,0,0-.991,1.481l-.45,1.861a1.062,1.062,0,0,1-.785.785l-1.861.45a2.585,2.585,0,0,0-1.481.991L86.99,33.331a1.061,1.061,0,0,1-1.028.426l-1.889-.3a2.586,2.586,0,0,0-1.746.346l-1.636,1a1.062,1.062,0,0,1-1.11,0l-1.636-1A2.584,2.584,0,0,0,76.2,33.46l-1.89.3a1.062,1.062,0,0,1-1.028-.426l-1.125-1.546a2.585,2.585,0,0,0-1.481-.991l-1.861-.45a1.062,1.062,0,0,1-.785-.785l-.45-1.86a2.585,2.585,0,0,0-.991-1.481l-1.546-1.124a1.061,1.061,0,0,1-.426-1.028l.3-1.889a2.585,2.585,0,0,0-.346-1.746l-1-1.636a1.062,1.062,0,0,1,0-1.11l1-1.636a2.585,2.585,0,0,0,.346-1.746l-.3-1.89a1.062,1.062,0,0,1,.426-1.028l1.546-1.125a2.585,2.585,0,0,0,.991-1.481l.45-1.861a1.062,1.062,0,0,1,.785-.785l1.861-.45a2.585,2.585,0,0,0,1.481-.991l1.124-1.546a1.061,1.061,0,0,1,1.028-.426l1.889.3a2.584,2.584,0,0,0,1.746-.346l1.636-1a1.062,1.062,0,0,1,1.11,0l1.636,1a2.584,2.584,0,0,0,1.746.346l1.89-.3a1.062,1.062,0,0,1,1.028.426l1.125,1.546a2.585,2.585,0,0,0,1.481.991l1.861.45a1.062,1.062,0,0,1,.785.785l.45,1.86a2.585,2.585,0,0,0,.991,1.481l1.546,1.124a1.062,1.062,0,0,1,.426,1.028l-.3,1.889a2.585,2.585,0,0,0,.346,1.746l1,1.636A1.062,1.062,0,0,1,96.7,18.794Z" transform="translate(-61.898 0)" fill="#004b74"/></g></g><g transform="translate(71.196 9.434)"><g transform="translate(0)"><path d="M178.662,106.844a1.356,1.356,0,0,0-1.142-.937l-4.562-.541-1.924-4.172a1.37,1.37,0,0,0-2.488,0l-1.924,4.172-4.562.541a1.37,1.37,0,0,0-.769,2.366l3.373,3.119-.9,4.506a1.375,1.375,0,0,0,1.342,1.639,1.371,1.371,0,0,0,.671-.177l4.009-2.244,4.009,2.244a1.37,1.37,0,0,0,2.013-1.462l-.9-4.506,3.373-3.119A1.356,1.356,0,0,0,178.662,106.844Zm-5.087,3.723a.758.758,0,0,0-.229.7l.916,4.611-4.1-2.3a.758.758,0,0,0-.741,0l-4.1,2.3.916-4.611a.758.758,0,0,0-.229-.7l-3.452-3.192,4.669-.554a.758.758,0,0,0,.6-.435l1.969-4.269,1.969,4.269a.758.758,0,0,0,.6.435l4.669.554Z" transform="translate(-160.849 -100.398)" fill="#004b74"/></g></g></g></svg>