<svg xmlns="http://www.w3.org/2000/svg" width="40.311" height="40.311" viewBox="0 0 40.311 40.311"><path d="M246.787,62.575a.788.788,0,0,0,.787-.755c0-.01,0-.021,0-.032a.787.787,0,1,0-1.575,0c0,.011,0,.022,0,.032A.788.788,0,0,0,246.787,62.575Z" transform="translate(-226.632 -56.197)" fill="#004b74"/><path d="M175.448,155.448a4.724,4.724,0,1,0,0-9.448h-7.086a.787.787,0,0,0-.787.787v7.086h-.787a.787.787,0,0,0,0,1.575h.787V158.6h-.787a.787.787,0,0,0,0,1.575h.787v3.937a.787.787,0,1,0,1.575,0v-3.937h5.511a.787.787,0,1,0,0-1.575h-5.511v-3.149Zm-6.3-7.873h6.3a3.149,3.149,0,0,1,0,6.3h-6.3Z" transform="translate(-152.931 -134.505)" fill="#004b74"/><path d="M20.155,40.311A20.52,20.52,0,0,0,40.311,20.155,20.52,20.52,0,0,0,20.155,0,20.52,20.52,0,0,0,0,20.155,20.52,20.52,0,0,0,20.155,40.311Zm0-38.736A19.067,19.067,0,0,1,38.736,20.155,19.067,19.067,0,0,1,20.155,38.736,19.067,19.067,0,0,1,1.575,20.155,19.067,19.067,0,0,1,20.155,1.575Z" fill="#004b74"/><path d="M75.431,95.188a15.415,15.415,0,0,0,3.318-30.472.787.787,0,1,0-.364,1.532,13.84,13.84,0,0,1-2.954,27.365,13.84,13.84,0,0,1-2.954-27.365.787.787,0,1,0-.364-1.532,15.415,15.415,0,0,0,3.318,30.472Z" transform="translate(-55.276 -59.601)" fill="#004b74"/></svg>