<svg xmlns="http://www.w3.org/2000/svg" width="31.433" height="32.448" viewBox="0 0 31.433 32.448"><g transform="translate(-8.008 0)"><g transform="translate(8.008 0)"><path d="M38.4,19.006h-.486V14.632a2.054,2.054,0,0,0-.871-1.678v-.6a1.568,1.568,0,0,0-1.567-1.567h-.363L36.5,8.756a1.5,1.5,0,0,0-.394-2.081L26.7.261a1.5,1.5,0,0,0-2.081.394L16.49,12.577H14.229l.545-5.522a.164.164,0,0,1,.1-.137,3.515,3.515,0,0,0,1.715-1.393.163.163,0,0,1,.154-.072l3.546.35a.462.462,0,0,0,.091-.92l-3.546-.35a1.082,1.082,0,0,0-1.025.5,2.584,2.584,0,0,1-1.261,1.024,1.081,1.081,0,0,0-.7.912L13.3,12.577h-.59l.863-8.733A.573.573,0,0,1,14.2,3.33l7.166.708a.462.462,0,0,0,.091-.92L14.29,2.41a1.5,1.5,0,0,0-1.637,1.343l-.7,7.039H10.773a1.568,1.568,0,0,0-1.567,1.567v.406a2.057,2.057,0,0,0-1.2,1.867V30.393a2.057,2.057,0,0,0,2.055,2.055h25.8a2.057,2.057,0,0,0,2.055-2.055V26.019H38.4a1.041,1.041,0,0,0,1.039-1.039V20.045A1.041,1.041,0,0,0,38.4,19.006Zm-2.923-7.289h0a.643.643,0,0,1,.642.642v.236a2.061,2.061,0,0,0-.259-.017H33.9l.586-.861ZM25.379,1.176a.569.569,0,0,1,.367-.24.581.581,0,0,1,.108-.01.569.569,0,0,1,.321.1L35.588,7.44a.574.574,0,0,1,.151.8L32.78,12.577h-.71l1.451-2.129a1.081,1.081,0,0,0,.05-1.147,2.584,2.584,0,0,1-.31-1.595,1.081,1.081,0,0,0-.468-1.038l-4.88-3.325a1.081,1.081,0,0,0-1.137-.056,2.585,2.585,0,0,1-1.6.3,1.1,1.1,0,0,0-1.049.466l-5.811,8.528h-.71Zm.2,7.852a3.815,3.815,0,0,0-3.8,3.55H19.438L24.895,4.57h0A.165.165,0,0,1,25.03,4.5h.021a3.515,3.515,0,0,0,2.173-.4.163.163,0,0,1,.169.01l4.88,3.325a.163.163,0,0,1,.072.154,3.514,3.514,0,0,0,.421,2.169.164.164,0,0,1-.009.171l-1.805,2.649H29.384A3.815,3.815,0,0,0,25.583,9.027Zm2.874,3.55H22.709a2.886,2.886,0,0,1,5.748,0Zm-18.325-.219a.643.643,0,0,1,.642-.642h1.093l-.085.861h-1.65Zm-1.2,2.274a1.132,1.132,0,0,1,1.13-1.13h25.8a1.132,1.132,0,0,1,1.13,1.13v1.283H8.933ZM36.991,30.393a1.132,1.132,0,0,1-1.13,1.13h-25.8a1.132,1.132,0,0,1-1.13-1.13V29.11h2.493a.462.462,0,0,0,0-.925H8.933V16.84H36.991v2.166H32.6a3.511,3.511,0,0,0-3.154,1.976l-.006.012-.014.03a3.487,3.487,0,0,0-.175.447h0A3.508,3.508,0,0,0,32.6,26.019h4.4v2.166h-22.6a.462.462,0,1,0,0,.925h22.6Zm1.525-5.413a.115.115,0,0,1-.115.115H32.6a2.584,2.584,0,0,1-2.27-1.352q-.03-.055-.057-.111-.054-.113-.1-.232a2.585,2.585,0,0,1,0-1.774q.044-.119.1-.232.027-.056.057-.111a2.584,2.584,0,0,1,2.27-1.352H38.4a.115.115,0,0,1,.115.115V24.98Z" transform="translate(-8.008 0)" fill="#004b74"/></g><g transform="translate(30.828 20.637)"><path d="M369.957,325.627a1.876,1.876,0,1,0,1.876,1.876A1.878,1.878,0,0,0,369.957,325.627Zm0,2.827a.951.951,0,1,1,.951-.951A.952.952,0,0,1,369.957,328.454Z" transform="translate(-368.081 -325.627)" fill="#004b74"/></g></g></svg>