<?xml version="1.0" encoding="utf-8"?><svg version="1.1" id="Layer_1" xmlns="http://www.w3.org/2000/svg" xmlns:xlink="http://www.w3.org/1999/xlink" x="0px" y="0px" viewBox="0 0 89.28 122.88" style="enable-background:new 0 0 89.28 122.88" xml:space="preserve"><style type="text/css">.st0{fill-rule:evenodd;clip-rule:evenodd;}</style><g><path class="st0" d="M2.86,82.1h9.65c3.1-4.81,9.75-7.32,15.7-9.57c1.47-0.56,2.9-1.09,4.2-1.64c0.69-0.91,1.25-1.88,1.69-2.93 c0.38-0.9,0.66-1.85,0.85-2.85c-1.06-0.63-2.08-1.38-3.05-2.24c-3.95-3.5-6.71-6.36-8.49-9.67c-1.81-3.36-2.56-7.08-2.46-12.26 l0.28-11.86c0-0.17,0.03-0.32,0.08-0.47l-3.49-1.2C17.32,16.04,23.72,9.22,31.63,5.79c2.89-1.25-1.95-7.55,4.69-5.32 c8.87,2.97,28.53,6.84,33.19,12.2c3.79,4.36,3.94,6.75,3.85,12.49c-0.03,1.86-0.32,3.5-1.21,4.1c-0.41,0.27-0.9,0.37-1.46,0.31 v12.46c0,7.1-2.54,13.03-6.44,17.43c-2.2,2.48-4.82,4.46-7.67,5.89c0.17,0.91,0.41,1.79,0.71,2.62c0.35,0.97,0.8,1.9,1.33,2.78 c1.14,0.51,2.27,0.97,3.4,1.43c5.56,2.28,11.21,4.59,14.13,9.91h10.1c1.86,0,3.37,1.85,2.94,4.11L83,118.77 c-0.42,2.22-1.85,4.11-4.11,4.11H11.46c-2.26,0-3.62-1.9-4.11-4.11L0.1,86.21C-0.4,83.95,1.06,82.1,2.86,82.1L2.86,82.1z M44.8,97.44c2.72,0,4.93,2.21,4.93,4.93s-2.21,4.93-4.93,4.93c-2.72,0-4.93-2.21-4.93-4.93S42.08,97.44,44.8,97.44L44.8,97.44z M40.16,67.29c-0.89-0.23-1.76-0.53-2.61-0.88c-0.21,0.91-0.5,1.79-0.85,2.64c-0.45,1.06-1.01,2.08-1.69,3.04 c0.75,0.83,1.59,1.54,2.51,2.13c2.48,1.6,5.46,2.35,8.4,2.28c2.92-0.07,5.77-0.96,8.01-2.65c0.77-0.59,1.47-1.27,2.07-2.04 c-0.52-0.91-0.97-1.87-1.33-2.88c-0.28-0.77-0.51-1.57-0.69-2.39c-2.86,1.02-5.75,1.53-8.58,1.49 C43.61,67.99,41.86,67.75,40.16,67.29L40.16,67.29z M37.25,63.15c0.92,0.49,1.87,0.88,2.83,1.2c1.8,0.56,3.69,0.84,5.58,0.84v0.01 c3,0,6.04-0.68,8.88-1.97c2.84-1.29,5.46-3.19,7.61-5.61c3.47-3.91,5.72-9.2,5.72-15.57v-9.86l0,0c-0.03-0.94-0.16-1.8-0.4-2.58 c-0.23-0.75-0.57-1.42-1.03-1.99c-1.72-2.15-3.35-2.13-5.68-2.12c-0.21,0-0.43,0-0.72,0c-9.21-0.03-15.24-0.33-20.14-0.99 c-4.52-0.61-8.06-1.52-12.18-2.82c-0.39,0.87-0.84,1.71-1.37,2.54c-0.67,1.05-1.46,2.05-2.35,3l-0.27,13.78 c-0.09,4.66,0.57,7.97,2.13,10.89c1.59,2.96,4.17,5.61,7.87,8.9c0.98,0.87,2.03,1.6,3.12,2.21C37.01,63.02,37.14,63.07,37.25,63.15 L37.25,63.15z M57.14,37.01c1.67,0,3.03,1.36,3.03,3.03c0,1.67-1.36,3.03-3.03,3.03c-1.67,0-3.03-1.36-3.03-3.03 C54.11,38.37,55.46,37.01,57.14,37.01L57.14,37.01z M34.28,37.01c1.67,0,3.03,1.36,3.03,3.03c0,1.67-1.36,3.03-3.03,3.03 c-1.67,0-3.03-1.36-3.03-3.03C31.25,38.37,32.61,37.01,34.28,37.01L34.28,37.01z M39.51,54.59c-0.65-0.42-0.83-1.29-0.41-1.94 c0.42-0.65,1.29-0.83,1.94-0.41c1.6,1.04,3.13,1.6,4.59,1.62c1.41,0.02,2.81-0.48,4.19-1.55c0.61-0.48,1.5-0.37,1.97,0.25 c0.48,0.61,0.37,1.49-0.25,1.97c-1.9,1.48-3.89,2.16-5.95,2.14C43.58,56.63,41.55,55.91,39.51,54.59L39.51,54.59z M16.08,82.1 h56.73c-2.7-3.57-7.31-5.46-11.85-7.32c-0.95-0.39-1.89-0.78-2.8-1.17c-0.76,1.03-1.68,1.92-2.72,2.68 c-2.51,1.82-5.75,2.87-9.1,3.03c-3.33,0.16-6.78-0.55-9.72-2.25c-1.47-0.84-2.81-1.93-3.94-3.26c-1.11,0.45-2.28,0.89-3.48,1.34 C24.39,76.97,19.1,78.97,16.08,82.1L16.08,82.1z"/></g></svg>