<svg xmlns="http://www.w3.org/2000/svg" width="28.804" height="28.81" viewBox="0 0 28.804 28.81"><path d="M29.18,8.47a10.527,10.527,0,0,0-.67-3.5A7.38,7.38,0,0,0,24.294.76,10.554,10.554,0,0,0,20.8.09C19.257.017,18.768,0,14.856,0s-4.4.017-5.938.084a10.53,10.53,0,0,0-3.495.67A7.029,7.029,0,0,0,2.869,2.42a7.093,7.093,0,0,0-1.66,2.55,10.555,10.555,0,0,0-.67,3.495C.465,10.007.449,10.5.449,14.408s.017,4.4.084,5.938a10.527,10.527,0,0,0,.67,3.5,7.379,7.379,0,0,0,4.215,4.215,10.556,10.556,0,0,0,3.5.67c1.536.068,2.026.084,5.938.084s4.4-.017,5.938-.084a10.525,10.525,0,0,0,3.495-.67A7.369,7.369,0,0,0,28.5,23.84a10.563,10.563,0,0,0,.67-3.5c.067-1.536.084-2.026.084-5.938s-.006-4.4-.073-5.938ZM26.585,20.233a7.9,7.9,0,0,1-.5,2.673,4.779,4.779,0,0,1-2.735,2.735,7.925,7.925,0,0,1-2.673.5c-1.52.068-1.975.084-5.819.084s-4.305-.017-5.819-.084a7.892,7.892,0,0,1-2.673-.5,4.433,4.433,0,0,1-1.655-1.075A4.479,4.479,0,0,1,3.64,22.912a7.926,7.926,0,0,1-.5-2.673c-.068-1.52-.084-1.976-.084-5.819s.017-4.305.084-5.819a7.892,7.892,0,0,1,.5-2.673A4.379,4.379,0,0,1,4.72,4.272,4.472,4.472,0,0,1,6.375,3.2a7.93,7.93,0,0,1,2.673-.5c1.52-.067,1.976-.084,5.819-.084s4.305.017,5.819.084a7.9,7.9,0,0,1,2.673.5,4.43,4.43,0,0,1,1.655,1.075A4.478,4.478,0,0,1,26.09,5.926a7.929,7.929,0,0,1,.5,2.673c.067,1.52.084,1.975.084,5.819s-.017,4.294-.084,5.814Zm0,0" transform="translate(-0.449 0)" fill="#fff"/><path d="M132.35,124.5a7.4,7.4,0,1,0,7.4,7.4A7.4,7.4,0,0,0,132.35,124.5Zm0,12.2a4.8,4.8,0,1,1,4.8-4.8A4.8,4.8,0,0,1,132.35,136.7Zm0,0" transform="translate(-117.942 -117.493)" fill="#fff"/><path d="M365.905,90.33a1.728,1.728,0,1,1-1.728-1.728A1.728,1.728,0,0,1,365.905,90.33Zm0,0" transform="translate(-342.076 -83.615)" fill="#fff"/></svg>