<svg xmlns="http://www.w3.org/2000/svg" width="132.394" height="96.821" viewBox="0 0 132.394 96.821">
  <g id="Logo_LightBlack" transform="translate(-440.667 -750.16)">
    <g id="Main" transform="translate(441.66 751)">
      <path id="Контур_124" data-name="Контур 124" d="M2353.16,1898.6" transform="translate(-2232.316 -1826.049)" fill="none" stroke="#fff" stroke-miterlimit="10" stroke-width="1"/>
      <path id="Контур_125" data-name="Контур 125" d="M1457.455,762.791l0-.011h-26.8l4.918,6.761,8.374,11.4Z" transform="translate(-1368.127 -762.035)" fill="none" stroke="#fff" stroke-miterlimit="10" stroke-width="1"/>
      <path id="Контур_126" data-name="Контур 126" d="M1640.91,781.1h21.508l-8-18.147Z" transform="translate(-1565.094 -762.195)" fill="none" stroke="#fff" stroke-miterlimit="10" stroke-width="1"/>
      <path id="Контур_127" data-name="Контур 127" d="M1662.418,1050H1640.91l14,18.9,9.954-13.343Z" transform="translate(-1565.094 -1031.097)" fill="none" stroke="#fff" stroke-miterlimit="10" stroke-width="1"/>
      <path id="Контур_128" data-name="Контур 128" d="M1872.364,1137.94l-9.954,13.343h15.833Z" transform="translate(-1772.591 -1113.478)" fill="none" stroke="#fff" stroke-miterlimit="10" stroke-width="1"/>
      <path id="Контур_129" data-name="Контур 129" d="M1882.809,1359.363,1878.243,1349H1862.41l14,18.9Z" transform="translate(-1772.591 -1311.195)" fill="none" stroke="#fff" stroke-miterlimit="10" stroke-width="1"/>
      <path id="Контур_130" data-name="Контур 130" d="M2090.305,1512.92l-6.4,8.54h10.155Z" transform="translate(-1980.088 -1464.752)" fill="none" stroke="#fff" stroke-miterlimit="10" stroke-width="1"/>
      <path id="Контур_131" data-name="Контур 131" d="M2094.064,1646H2083.91l14.072,18.9,2.768-3.736Z" transform="translate(-1980.088 -1589.418)" fill="none" stroke="#fff" stroke-miterlimit="10" stroke-width="1"/>
      <path id="Контур_132" data-name="Контур 132" d="M2309.268,1887.9l-2.768,3.736h4.414Z" transform="translate(-2188.605 -1816.026)" fill="none" stroke="#fff" stroke-miterlimit="10" stroke-width="1"/>
      <path id="Контур_133" data-name="Контур 133" d="M2182.845,1970.724l-21.945,0,13.762-18.577Z" transform="translate(-2052.21 -1876.214)" fill="none" stroke="#fff" stroke-miterlimit="10" stroke-width="1"/>
      <path id="Контур_134" data-name="Контур 134" d="M1967.022,1947H1939.4l14,18.9,13.762-18.577" transform="translate(-1844.714 -1871.389)" fill="none" stroke="#fff" stroke-miterlimit="10" stroke-width="1"/>
      <path id="Контур_135" data-name="Контур 135" d="M1447.416,1068.9h-11.27l-5.348-13.343-5.352,13.343h-6.036l14-18.9Z" transform="translate(-1357.597 -1031.097)" fill="none" stroke="#fff" stroke-miterlimit="10" stroke-width="1"/>
      <path id="Контур_136" data-name="Контур 136" d="M1203.006,769.9H1175l14-18.9Z" transform="translate(-1128.639 -751)" fill="none" stroke="#fff" stroke-miterlimit="10" stroke-width="1"/>
      <path id="Контур_137" data-name="Контур 137" d="M903.6,1035.093H875.59l14-18.9Z" transform="translate(-848.157 -999.425)" fill="none" stroke="#fff" stroke-miterlimit="10" stroke-width="1"/>
      <path id="Контур_138" data-name="Контур 138" d="M717.746,1973.033H689.74l14-18.9Z" transform="translate(-674.057 -1878.069)" fill="none" stroke="#fff" stroke-miterlimit="10" stroke-width="1"/>
      <path id="Контур_139" data-name="Контур 139" d="M469.666,1954.13H441.66l14,18.9Z" transform="translate(-441.66 -1878.069)" fill="none" stroke="#fff" stroke-miterlimit="10" stroke-width="1"/>
      <path id="Контур_140" data-name="Контур 140" d="M716.62,1004.89V1016.8l6.974-5.958Z" transform="translate(-699.237 -988.839)" fill="none" stroke="#fff" stroke-miterlimit="10" stroke-width="1"/>
      <path id="Контур_141" data-name="Контур 141" d="M728.03,1381.28V1393.2l6.974-5.957Z" transform="translate(-709.926 -1341.434)" fill="none" stroke="#fff" stroke-miterlimit="10" stroke-width="1"/>
      <path id="Контур_142" data-name="Контур 142" d="M971.09,767.35l-2.68,11.61,8.135-4.236Z" transform="translate(-935.109 -766.316)" fill="none" stroke="#fff" stroke-miterlimit="10" stroke-width="1"/>
      <path id="Контур_143" data-name="Контур 143" d="M820.44,839.58v8.71l5.1-4.355Z" transform="translate(-796.494 -833.98)" fill="none" stroke="#fff" stroke-miterlimit="10" stroke-width="1"/>
      <path id="Контур_144" data-name="Контур 144" d="M954.236,1341.87H926.23l14,18.9Z" transform="translate(-895.596 -1304.515)" fill="none" stroke="#fff" stroke-miterlimit="10" stroke-width="1"/>
      <path id="Контур_145" data-name="Контур 145" d="M1211.556,1053.33H1183.55l14,18.9Z" transform="translate(-1136.648 -1034.217)" fill="none" stroke="#fff" stroke-miterlimit="10" stroke-width="1"/>
      <path id="Контур_146" data-name="Контур 146" d="M1923.84,1947l.346.861.638-.861Z" transform="translate(-1830.137 -1871.389)" fill="none" stroke="#fff" stroke-miterlimit="10" stroke-width="1"/>
      <path id="Контур_147" data-name="Контур 147" d="M1427.869,1349.008l-2.047,5.282L1422.01,1349Z" transform="translate(-1360.033 -1311.195)" fill="none" stroke="#fff" stroke-miterlimit="10" stroke-width="1"/>
      <path id="Контур_148" data-name="Контур 148" d="M1684.14,1349h11.27l-7.313,9.872Z" transform="translate(-1605.591 -1311.195)" fill="none" stroke="#fff" stroke-miterlimit="10" stroke-width="1"/>
      <path id="Контур_149" data-name="Контур 149" d="M1211.913,1349l-14,18.9h12.465l5.457-13.613Z" transform="translate(-1150.1 -1311.195)" fill="none" stroke="#fff" stroke-miterlimit="10" stroke-width="1"/>
      <path id="Контур_150" data-name="Контур 150" d="M1754.043,1349l-7.313,9.872,3.657,9.031h17.66l-13.847-18.692Z" transform="translate(-1664.224 -1311.195)" fill="none" stroke="#fff" stroke-miterlimit="10" stroke-width="1"/>
      <path id="Контур_151" data-name="Контур 151" d="M931.09,1953.83l21.583-.02-7.58,18.923Z" transform="translate(-900.148 -1877.769)" fill="none" stroke="#fff" stroke-miterlimit="10" stroke-width="1"/>
      <path id="Контур_152" data-name="Контур 152" d="M1923.84,1947h.984l14,18.9h-7.409Z" transform="translate(-1830.137 -1871.389)" fill="none" stroke="#fff" stroke-miterlimit="10" stroke-width="1"/>
    </g>
    <g id="Area" transform="translate(461.464 807.708)">
      <g id="Сгруппировать_20" data-name="Сгруппировать 20" transform="translate(14.003)">
        <path id="Контур_153" data-name="Контур 153" d="M1668.916,1648H1640.91" transform="translate(-1598.901 -1648)" fill="none" stroke="#fff" stroke-miterlimit="10" stroke-width="1"/>
        <line id="Линия_2" data-name="Линия 2" x1="28.006" transform="translate(28.006 18.903)" fill="none" stroke="#fff" stroke-miterlimit="10" stroke-width="1"/>
        <line id="Линия_3" data-name="Линия 3" x1="15.536" transform="translate(26.473)" fill="none" stroke="#fff" stroke-miterlimit="10" stroke-width="1"/>
        <line id="Линия_4" data-name="Линия 4" x1="28.006" transform="translate(0 18.903)" fill="none" stroke="#fff" stroke-miterlimit="10" stroke-width="1"/>
        <path id="Контур_154" data-name="Контур 154" d="M1890.485,1947H1862.41" transform="translate(-1806.398 -1928.097)" fill="none" stroke="#fff" stroke-miterlimit="10" stroke-width="1"/>
        <path id="Контур_155" data-name="Контур 155" d="M1923.84,1947.34" transform="translate(-1863.944 -1928.416)" fill="none" stroke="#fff" stroke-miterlimit="10" stroke-width="1"/>
      </g>
      <path id="Контур_156" data-name="Контур 156" d="M782.916,1648H754.91l14,18.9Z" transform="translate(-754.91 -1648)" fill="none" stroke="#fff" stroke-miterlimit="10" stroke-width="1"/>
      <path id="Контур_157" data-name="Контур 157" d="M1395.08,1648" transform="translate(-1354.609 -1648)" fill="none" stroke="#fff" stroke-miterlimit="10" stroke-width="1"/>
    </g>
    <g id="Title" transform="translate(493.893 806.866)">
      <rect id="Прямоугольник_33" data-name="Прямоугольник 33" width="44.863" height="19.072" transform="translate(0 4.457)" fill="none"/>
      <text id="АГУ" transform="translate(0 17)" fill="#fff" font-size="18" font-family="Montserrat-Bold, Montserrat" font-weight="700"><tspan x="0" y="0">АГУ</tspan></text>
    </g>
  </g>
</svg>
