<svg xmlns="http://www.w3.org/2000/svg" width="40.535" height="28.381" viewBox="0 0 40.535 28.381"><path d="M39.7-1.641a5.078,5.078,0,0,0-3.573-3.573c-3.172-.868-15.86-.868-15.86-.868s-12.688,0-15.86.835A5.181,5.181,0,0,0,.835-1.641C0,1.531,0,8.109,0,8.109s0,6.611.835,9.75a5.079,5.079,0,0,0,3.573,3.573c3.205.868,15.86.868,15.86.868s12.688,0,15.86-.835A5.079,5.079,0,0,0,39.7,17.892c.835-3.172.835-9.75.835-9.75s.033-6.611-.835-9.783ZM16.228,14.185V2.032L26.779,8.109Zm0,0" transform="translate(-0.001 6.082)" fill="#fff"/></svg>