<svg enable-background="new 0 0 24 24" height="512" viewBox="0 0 24 24" width="512" xmlns="http://www.w3.org/2000/svg"><path fill="#ffffff" d="m17.27 5.009-2.123-3.637c-.101-.173-.267-.299-.461-.349-.193-.048-.4-.02-.572.083l-6.49 3.894z"/><path fill="#ffffff" d="m3 6c-.55 0-1-.45-1-1s.45-1 1-1h3.37l3.34-2h-6.71c-1.48 0-2.71 1.08-2.95 2.5-.02.08-.05.16-.05.25v15.25c0 1.65 1.35 3 3 3h17c1.1 0 2-.9 2-2v-2h-2.5c-2.48 0-4.5-2.02-4.5-4.5s2.02-4.5 4.5-4.5h2.5v-2c0-1.1-.9-2-2-2zm16-2c0-1.01-.75-1.85-1.73-1.98l1.73 2.98z"/><path fill="#ffffff" d="m23.25 11.5h-3.75c-1.654 0-3 1.346-3 3s1.346 3 3 3h3.75c.414 0 .75-.336.75-.75v-4.5c0-.414-.336-.75-.75-.75zm-3.75 4c-.552 0-1-.448-1-1s.448-1 1-1 1 .448 1 1-.448 1-1 1z"/></svg>