<svg xmlns="http://www.w3.org/2000/svg" width="38.545" height="38.544" viewBox="0 0 38.545 38.544"><g transform="translate(-2 -2)"><path d="M2.551,35.3A.551.551,0,0,1,2,34.746V33.111a.551.551,0,1,1,1.1,0v1.635a.551.551,0,0,1-.551.551Z" transform="translate(0 -13.733)" fill="#004b74"/><path d="M29.532,40.544H2.551A.551.551,0,0,1,2,39.994V30.324a.551.551,0,1,1,1.1,0v9.118h25.88V3.1H3.1V15.524a.551.551,0,0,1-1.1,0V2.551A.551.551,0,0,1,2.551,2H29.532a.551.551,0,0,1,.551.551V39.994A.551.551,0,0,1,29.532,40.544Z" fill="#004b74"/><path d="M2.551,45.234A.551.551,0,0,1,2,44.683v-1.6a.551.551,0,0,1,1.1,0v1.6A.551.551,0,0,1,2.551,45.234Z" transform="translate(0 -18.213)" fill="#004b74"/><path d="M28.823,15.1H9.551a.551.551,0,1,1,0-1.1H28.823a.551.551,0,0,1,0,1.1Z" transform="translate(-3.146 -5.392)" fill="#004b74"/><path d="M28.823,26.1H9.551a.551.551,0,1,1,0-1.1H28.823a.551.551,0,1,1,0,1.1Z" transform="translate(-3.146 -10.335)" fill="#004b74"/><path d="M28.823,37.1H9.551a.551.551,0,0,1,0-1.1H28.823a.551.551,0,0,1,0,1.1Z" transform="translate(-3.146 -15.279)" fill="#004b74"/><path d="M28.823,48.1H9.551a.551.551,0,0,1,0-1.1H28.823a.551.551,0,0,1,0,1.1Z" transform="translate(-3.146 -20.222)" fill="#004b74"/><path d="M28.823,59.1H9.551a.551.551,0,1,1,0-1.1H28.823a.551.551,0,1,1,0,1.1Z" transform="translate(-3.146 -25.165)" fill="#004b74"/><path d="M65.289,40.228H58.843a.551.551,0,0,1-.551-.551V17.285A1.286,1.286,0,0,1,59.577,16h4.979a1.286,1.286,0,0,1,1.285,1.285V39.677A.551.551,0,0,1,65.289,40.228Zm-5.9-1.1h5.346V17.285a.183.183,0,0,0-.183-.183H59.577a.183.183,0,0,0-.183.183Z" transform="translate(-25.296 -6.291)" fill="#004b74"/><path d="M62.066,65.709h0a.551.551,0,0,1-.5-.309l-3.223-6.608a.551.551,0,0,1,.5-.792h6.446a.551.551,0,0,1,.5.792L62.562,65.4A.551.551,0,0,1,62.066,65.709ZM59.724,59.1l2.342,4.8,2.342-4.8Z" transform="translate(-25.296 -25.165)" fill="#004b74"/><path d="M65.289,28.721H58.841a.551.551,0,1,1,0-1.1h6.448a.551.551,0,0,1,0,1.1Z" transform="translate(-25.295 -11.513)" fill="#004b74"/><path d="M64.7,45.449a.551.551,0,0,1-.551-.551V28.171a.551.551,0,0,1,1.1,0V44.9A.551.551,0,0,1,64.7,45.449Z" transform="translate(-27.926 -11.513)" fill="#004b74"/></g></svg>