<svg xmlns="http://www.w3.org/2000/svg" width="18.683" height="21.229" viewBox="0 0 18.683 21.229"><g transform="translate(-8.189)"><g transform="translate(8.189)"><path d="M24.136,13.526a9.108,9.108,0,0,0-4.341-2.707A5.775,5.775,0,0,0,22.709,5.7,5.462,5.462,0,0,0,17.53,0a5.462,5.462,0,0,0-5.179,5.7,5.775,5.775,0,0,0,2.915,5.122,9.107,9.107,0,0,0-4.341,2.707,10.747,10.747,0,0,0-2.736,7.266.42.42,0,0,0,.4.438H26.473a.42.42,0,0,0,.4-.438A10.747,10.747,0,0,0,24.136,13.526ZM13.149,5.7A4.622,4.622,0,0,1,17.53.876,4.622,4.622,0,0,1,21.912,5.7a4.622,4.622,0,0,1-4.382,4.82A4.622,4.622,0,0,1,13.149,5.7ZM8.995,20.353c.209-4.98,3.957-8.961,8.536-8.961s8.327,3.981,8.536,8.961Z" transform="translate(-8.189)" fill="#004B74"/></g><g transform="translate(9.947 13.37)"><g transform="translate(0)"><path d="M58.962,322.67a.379.379,0,0,0-.546-.151,8.6,8.6,0,0,0-3.584,5.35.442.442,0,0,0,.294.528.364.364,0,0,0,.093.012.408.408,0,0,0,.387-.336,7.723,7.723,0,0,1,3.218-4.8A.464.464,0,0,0,58.962,322.67Z" transform="translate(-54.821 -322.457)" fill="#004B74"/></g></g><g transform="translate(15.419 12.225)"><path d="M202.1,294.835a7.149,7.149,0,0,0-1.8.231.442.442,0,0,0-.3.527.408.408,0,0,0,.387.337.367.367,0,0,0,.092-.012,6.42,6.42,0,0,1,1.621-.208.44.44,0,0,0,0-.876Z" transform="translate(-199.989 -294.835)" fill="#004B74"/></g></g></svg>