<svg xmlns="http://www.w3.org/2000/svg" width="44.452" height="44.456" viewBox="0 0 44.452 44.456"><path d="M18.044,34.072a16.03,16.03,0,1,1,11.338-4.693A16.03,16.03,0,0,1,18.044,34.072Zm0-30.791A14.761,14.761,0,1,0,28.486,7.6,14.761,14.761,0,0,0,18.044,3.281Z" transform="translate(-2.018 -2.009)" fill="#fff"/><path d="M17.476,43.844a.635.635,0,0,1-.281-.064,11.8,11.8,0,0,1-1.751-1.07.635.635,0,1,1,.752-1.023,10.532,10.532,0,0,0,1.563.953.635.635,0,0,1-.282,1.207Z" transform="translate(-6.816 -16.437)" fill="#fff"/><path d="M20,32.641c-.127,0-.254,0-.373-.007a.636.636,0,0,1,.073-1.27c.1.006.2.006.3.005A11.369,11.369,0,1,0,8.65,19.538a.626.626,0,0,1-.659.609.635.635,0,0,1-.61-.66A12.63,12.63,0,1,1,20,32.641Z" transform="translate(-3.974 -3.969)" fill="#fff"/><path d="M10.484,36.785a.635.635,0,0,1-.533-.288,12,12,0,0,1-.958-1.79.635.635,0,0,1,1.165-.508,10.8,10.8,0,0,0,.858,1.6.635.635,0,0,1-.532.981Z" transform="translate(-4.543 -13.614)" fill="#fff"/><path d="M53.691,59.583a5.848,5.848,0,0,1-4.171-1.73c-.069-.064-.152-.152-.234-.241L38.131,45.066a.637.637,0,1,1,.953-.845L50.231,56.76c.05.055.108.119.17.176a4.627,4.627,0,1,0,6.361-6.711L44.223,39.079a.637.637,0,0,1,.845-.953L57.606,49.272a5.9,5.9,0,0,1-3.916,10.311Z" transform="translate(-15.135 -15.128)" fill="#fff"/><path d="M18.255,27.958a2.6,2.6,0,1,1,2.6-2.6A2.6,2.6,0,0,1,18.255,27.958Zm0-3.925a1.327,1.327,0,1,0,1.327,1.327A1.327,1.327,0,0,0,18.255,24.032Z" transform="translate(-6.994 -9.581)" fill="#fff"/><path d="M30.139,21.012A2.558,2.558,0,1,1,32.7,18.454,2.558,2.558,0,0,1,30.139,21.012Zm0-3.845a1.287,1.287,0,1,0,1.287,1.287,1.287,1.287,0,0,0-1.287-1.287Z" transform="translate(-11.344 -7.076)" fill="#fff"/><path d="M30.138,34.87A2.558,2.558,0,1,1,32.7,32.312,2.558,2.558,0,0,1,30.138,34.87Zm0-3.846a1.288,1.288,0,1,0,1.287,1.288A1.288,1.288,0,0,0,30.138,31.024Z" transform="translate(-11.343 -12.131)" fill="#fff"/><path d="M21.708,23.882a.635.635,0,0,1-.27-1.211l4.431-2.076a.635.635,0,1,1,.539,1.15l-4.429,2.077A.635.635,0,0,1,21.708,23.882Z" transform="translate(-8.969 -8.765)" fill="#fff"/><path d="M26.139,31.241a.624.624,0,0,1-.269-.06L21.439,29.1a.635.635,0,1,1,.539-1.15l4.43,2.077a.635.635,0,0,1-.27,1.21Z" transform="translate(-8.97 -11.453)" fill="#fff"/></svg>