<svg xmlns="http://www.w3.org/2000/svg" width="41.039" height="43.633" viewBox="0 0 41.039 43.633"><path d="M55.164,30.078l-3.056,5.293a.73.73,0,0,1-.9.312l-4.5-1.816a.73.73,0,1,1,.546-1.353l3.911,1.579,2.422-4.2L50.265,27.3a.73.73,0,0,1-.248-.789,16.059,16.059,0,0,0,0-9.4.73.73,0,0,1,.248-.789l3.318-2.594-2.422-4.2L47.25,11.119a.729.729,0,0,1-.807-.18,15.9,15.9,0,0,0-8.131-4.7.73.73,0,0,1-.56-.61l-.587-4.172H32.32l-.587,4.171a.73.73,0,0,1-.56.61,15.9,15.9,0,0,0-8.131,4.7.729.729,0,0,1-.807.18L18.323,9.54l-2.422,4.2,3.318,2.594a.73.73,0,0,1,.248.789,16.06,16.06,0,0,0,0,9.4.73.73,0,0,1-.248.789L15.9,29.9l2.422,4.2,3.911-1.579a.729.729,0,0,1,.807.18,15.9,15.9,0,0,0,8.131,4.7.73.73,0,0,1,.56.61l.587,4.171h4.844L37.752,38a.73.73,0,0,1,.56-.61,15.845,15.845,0,0,0,4.831-1.985.73.73,0,0,1,.769,1.24A17.309,17.309,0,0,1,39.128,38.7l-.607,4.309a.73.73,0,0,1-.722.628H31.686a.73.73,0,0,1-.722-.628L30.357,38.7a17.34,17.34,0,0,1-8.035-4.644l-4.04,1.631a.729.729,0,0,1-.9-.312L14.32,30.078a.73.73,0,0,1,.182-.94l3.429-2.68a17.532,17.532,0,0,1,0-9.284L14.5,14.494a.73.73,0,0,1-.182-.94l3.056-5.293a.73.73,0,0,1,.9-.312l4.04,1.631a17.34,17.34,0,0,1,8.035-4.644L30.964.627A.73.73,0,0,1,31.686,0H37.8a.73.73,0,0,1,.722.628l.607,4.309a17.34,17.34,0,0,1,8.035,4.644L51.2,7.95a.73.73,0,0,1,.9.312l3.056,5.293a.73.73,0,0,1-.182.94l-3.429,2.68a17.532,17.532,0,0,1,0,9.284l3.429,2.68a.729.729,0,0,1,.182.94ZM33.547,25.287l3.648-6.2a.73.73,0,1,0-1.258-.74l-3.648,6.2a.73.73,0,0,0,1.258.74ZM30.7,19.02a.73.73,0,0,0-1.032,0L27.385,21.3a.73.73,0,0,0,0,1.032l2.281,2.281A.73.73,0,1,0,30.7,23.582l-1.765-1.765L30.7,20.052a.73.73,0,0,0,0-1.032Zm8.513,5.808a.727.727,0,0,0,.516-.214l2.281-2.281a.73.73,0,0,0,0-1.032L39.727,19.02A.73.73,0,0,0,38.7,20.052l1.765,1.765L38.7,23.582a.73.73,0,0,0,.516,1.246Zm-8.738,8.634a12.4,12.4,0,1,0-4.314-2.687.73.73,0,1,0,1.009-1.054,10.956,10.956,0,1,1,3.807,2.371.73.73,0,1,0-.5,1.37Z" transform="translate(-14.222 0)" fill="#fff"/></svg>