<svg xmlns="http://www.w3.org/2000/svg" width="46.115" height="46.115" viewBox="0 0 46.115 46.115"><path d="M70.659,57.748A.659.659,0,0,1,70,57.09v-1.6a.659.659,0,1,1,1.318,0v1.6A.659.659,0,0,1,70.659,57.748Z" transform="translate(-25.202 -20.026)" fill="#fff"/><path d="M46.139,48.115H3.976A1.976,1.976,0,0,1,2,46.139V3.976A1.976,1.976,0,0,1,3.976,2H46.139a1.976,1.976,0,0,1,1.976,1.976V28.345a.659.659,0,1,1-1.318,0V3.976a.659.659,0,0,0-.659-.659H3.976a.659.659,0,0,0-.659.659V46.139a.659.659,0,0,0,.659.659H46.139a.659.659,0,0,0,.659-.659v-3.3a.659.659,0,1,1,1.318,0v3.3A1.976,1.976,0,0,1,46.139,48.115Z" transform="translate(-2 -2)" fill="#fff"/><path d="M70.659,49.606A.659.659,0,0,1,70,48.947V47.379a.659.659,0,1,1,1.318,0v1.568A.659.659,0,0,1,70.659,49.606Z" transform="translate(-25.202 -17.259)" fill="#fff"/><path d="M36.659,11.493A.659.659,0,0,1,36,10.834V2.659a.659.659,0,1,1,1.318,0v8.176A.659.659,0,0,1,36.659,11.493Z" transform="translate(-13.601 -2)" fill="#fff"/><path d="M36.659,67.083A.659.659,0,0,1,36,66.424V58.249a.659.659,0,0,1,1.318,0v8.176A.659.659,0,0,1,36.659,67.083Z" transform="translate(-13.601 -20.968)" fill="#fff"/><path d="M36.659,41.259A.659.659,0,0,1,36,40.6V24.249a.659.659,0,1,1,1.318,0V40.6A.659.659,0,0,1,36.659,41.259Z" transform="translate(-13.601 -9.367)" fill="#fff"/><path d="M40.6,37.318H24.249a.659.659,0,1,1,0-1.318H40.6a.659.659,0,0,1,0,1.318Z" transform="translate(-9.367 -13.601)" fill="#fff"/><path d="M66.424,37.318H58.249a.659.659,0,0,1,0-1.318h8.176a.659.659,0,0,1,0,1.318Z" transform="translate(-20.968 -13.601)" fill="#fff"/><path d="M10.834,37.318H2.659a.659.659,0,1,1,0-1.318h8.176a.659.659,0,1,1,0,1.318Z" transform="translate(-2 -13.601)" fill="#fff"/><path d="M54.4,33.382a.659.659,0,0,1-.451-1.139,3.742,3.742,0,1,0-5.146,0,.659.659,0,1,1-.9.961,5.06,5.06,0,1,1,6.949,0,.659.659,0,0,1-.451.179Z" transform="translate(-17.122 -9.666)" fill="#fff"/><path d="M17.379,44.907A5.058,5.058,0,0,1,13.9,36.172a.659.659,0,1,1,.9.961,3.742,3.742,0,1,0,5.146,0,.659.659,0,1,1,.9-.961,5.058,5.058,0,0,1-3.474,8.735Z" transform="translate(-5.521 -13.595)" fill="#fff"/><path d="M39.848,56.44a5.054,5.054,0,0,1-3.675-1.585.659.659,0,1,1,.96-.9,3.742,3.742,0,1,0,0-5.146.659.659,0,1,1-.961-.9,5.059,5.059,0,1,1,3.675,8.534Z" transform="translate(-13.595 -17.123)" fill="#fff"/><path d="M29.528,22.439A5.06,5.06,0,1,1,33.2,13.9a.659.659,0,1,1-.961.9,3.742,3.742,0,1,0,0,5.146.659.659,0,1,1,.961.9,5.054,5.054,0,0,1-3.675,1.585Z" transform="translate(-9.665 -5.521)" fill="#fff"/></svg>