<svg height="512pt" viewBox="0 0 512 512" width="512pt" xmlns="http://www.w3.org/2000/svg"><path fill="#ffffff" d="m255.5 155.261719c25.347656 0 45.972656-20.621094 45.972656-45.972657 0-25.347656-20.625-45.96875-45.972656-45.96875s-45.972656 20.621094-45.972656 45.96875c0 25.351563 20.625 45.972657 45.972656 45.972657zm0-61.941407c8.808594 0 15.972656 7.164063 15.972656 15.96875 0 8.808594-7.167968 15.972657-15.972656 15.972657s-15.972656-7.164063-15.972656-15.972657c0-8.804687 7.164062-15.96875 15.972656-15.96875zm0 0"/><path fill="#ffffff" d="m512 202.625v-84.648438l-256-117.976562-256 117.976562v84.648438h50.539062v151.445312h-26.539062v57.25h-24v99.75h512v-99.75h-13v-57.25h-38.539062v-151.445312zm-482-30v-35.441406l226-104.152344 226 104.152344v35.4375h-452zm176.769531 181.445312h-58.769531v-151.445312h58.769531zm30-151.445312h37.460938v151.445312h-37.460938zm67.460938 0h58.769531v151.445312h-58.769531zm-223.691407 0h37.460938v151.445312h-37.460938zm401.460938 278.445312h-452v-39.75h452zm-13-97v27.25h-415v-27.25zm-38.539062-30h-37.460938v-151.445312h37.460938zm0 0"/></svg>