<?xml version="1.0" encoding="UTF-8"?> <svg xmlns="http://www.w3.org/2000/svg" id="Layer_1" data-name="Layer 1" viewBox="0 0 433.68 82.09"> <defs> <style>.cls-1{fill:#2f9a41;}</style> </defs> <title>Sberbank Logo</title> <path class="cls-1" d="M147.52,110.47a19.11,19.11,0,0,0,6.59,4.51,25.8,25.8,0,0,0,9.48,1.62c1.85,0,3.58-.23,5-.35a20,20,0,0,0,4.16-1c1.27-.35,2.31-.93,3.35-1.27a26,26,0,0,1,2.54-1.27L177.35,110c-.69.35-1.39.69-2.2,1a23.9,23.9,0,0,1-2.31.92,11.65,11.65,0,0,1-2.89.58,18.74,18.74,0,0,1-3.82.23,12.35,12.35,0,0,1-6.59-1.62,13,13,0,0,1-4.16-4.16,20.84,20.84,0,0,1-2-6.24,55.84,55.84,0,0,1-.58-7.86c0-2.2.23-4.51.35-6.82A17.11,17.11,0,0,1,154.8,80a12.43,12.43,0,0,1,3.58-4.51,11.92,11.92,0,0,1,6.48-1.85,11,11,0,0,1,6.47,2c1.85,1.27,2.89,3.35,3.35,6.13h2.89V72.9c-.92-.35-1.85-.69-2.89-1a15.68,15.68,0,0,0-3.35-.69c-1.27-.23-2.31-.23-3.58-.35-1,0-2.2-.23-3-.23a29.12,29.12,0,0,0-10.06,1.62,17.24,17.24,0,0,0-10.75,12,32.64,32.64,0,0,0-1.27,9.83,30.08,30.08,0,0,0,1.27,9.37A16.3,16.3,0,0,0,147.52,110.47Z" transform="translate(-34.45 -59.83)"></path> <path class="cls-1" d="M322.91,115.1a15.39,15.39,0,0,0,5.9-1.85,9.86,9.86,0,0,0,4.16-4.51,17.3,17.3,0,0,0,1.62-8.09,16.4,16.4,0,0,0-1-6.24,10.1,10.1,0,0,0-3.35-4.28,16.56,16.56,0,0,0-6.13-2.31,42.52,42.52,0,0,0-9.13-.69h-3.82V76.48a2.77,2.77,0,0,1,.69-2.2,6,6,0,0,1,2.89-.35h5.43a22.44,22.44,0,0,1,4.16.23,4.7,4.7,0,0,1,2.54.93,5.2,5.2,0,0,1,1.62,2.2,24.12,24.12,0,0,1,1.27,3.81H332V71.16H299v1.39c.23,0,.35.23.92.23.58.23.93.35,1,.58a4.2,4.2,0,0,1,.58,1c0,.58.23,1,.23,1.85v34.22a4.53,4.53,0,0,1-.23,1.85c0,.58-.23.92-.58,1a1.56,1.56,0,0,1-1,.58,2,2,0,0,1-.92.23v1.39h16.65A70,70,0,0,0,322.91,115.1ZM312,111.86a1.65,1.65,0,0,1-.58-1.27c0-.58-.23-1.27-.23-2.2V89.78h3.82c3.35,0,5.9.92,7.4,2.66s2.2,4.62,2.2,8.56a22.62,22.62,0,0,1-.69,6.24,8.8,8.8,0,0,1-2,3.58,13.68,13.68,0,0,1-2.66,1.62,15.46,15.46,0,0,1-3.24.35c-1-.23-2-.23-2.54-.35A2.19,2.19,0,0,1,312,111.86Z" transform="translate(-34.45 -59.83)"></path> <path class="cls-1" d="M275.74,114.06c-.23,0-.35-.23-.92-.23-.58-.23-.93-.35-1-.58s-.35-.58-.58-1c0-.58-.23-1-.23-1.85V98.1h4.51a40,40,0,0,0,6.59-.58,15.75,15.75,0,0,0,5.55-2,9.87,9.87,0,0,0,3.82-4.28,16.56,16.56,0,0,0,1.39-7.4,17.48,17.48,0,0,0-1.27-6.82A11.81,11.81,0,0,0,290,73.13a12,12,0,0,0-5.2-1.62,51.62,51.62,0,0,0-6.13-.35H261.06v1.39c.23,0,.35.23.93.23.58.23.92.35,1,.58a4.17,4.17,0,0,1,.58,1c0,.58.23,1,.23,1.85v34.11a4.49,4.49,0,0,1-.23,1.85c0,.58-.23.92-.58,1a1.56,1.56,0,0,1-1,.58,2,2,0,0,1-.93.23v1.27h14.57l.11-1.27Zm-2.43-37.92a1.72,1.72,0,0,1,.23-1,1,1,0,0,1,.35-.69,1.42,1.42,0,0,1,1-.35c.58,0,1-.23,2-.23a30.64,30.64,0,0,1,3.24.35,7.83,7.83,0,0,1,2.66,1.62,12.14,12.14,0,0,1,1.85,3,18,18,0,0,1,.58,4.62c0,3.81-.58,6.59-1.62,8.56s-3,3-5.78,3h-4.51V76.14Z" transform="translate(-34.45 -59.83)"></path> <path class="cls-1" d="M255.28,105.27h-2.89a36.06,36.06,0,0,1-1,4.16,4.16,4.16,0,0,1-1.39,2.31,3.41,3.41,0,0,1-2.54.92,23.93,23.93,0,0,1-4.51.23,20.05,20.05,0,0,1-4.16-.23,6.87,6.87,0,0,1-2.31-.69,1.79,1.79,0,0,1-.92-1.39,7.92,7.92,0,0,1-.23-2.54V93.94H243c.69,0,1.39.23,2.2.23a17,17,0,0,1,2.2.35,8.74,8.74,0,0,1,1.85.69V89.43a4.42,4.42,0,0,1-1.85.69,42.47,42.47,0,0,1-4.39.58h-7.75V76a6,6,0,0,1,.35-2c.35-.35.93-.35,1.85-.35h4.86a22.46,22.46,0,0,1,4.16.23,5.1,5.1,0,0,1,2.54.92,5.2,5.2,0,0,1,1.62,2.2,24.34,24.34,0,0,1,1.27,3.82h2.31V71.16H223.37v1.39c.23,0,.35.23.92.23.58.23.92.35,1,.58a4.17,4.17,0,0,1,.58,1c0,.58.23,1,.23,1.85v34.11a4.51,4.51,0,0,1-.23,1.85c0,.58-.23.92-.58,1a1.56,1.56,0,0,1-1,.58,2,2,0,0,1-.92.23v1.27h31.91Z" transform="translate(-34.45 -59.83)"></path> <path class="cls-1" d="M206.49,115.1a15.39,15.39,0,0,0,5.9-1.85,10.75,10.75,0,0,0,4.28-4.51,17.28,17.28,0,0,0,1.62-8.09,16.38,16.38,0,0,0-1-6.24,10.1,10.1,0,0,0-3.35-4.28,16.56,16.56,0,0,0-6.13-2.31,42.5,42.5,0,0,0-9.13-.69h-3.82V76.48a2.78,2.78,0,0,1,.69-2.2,6,6,0,0,1,2.89-.35h5.43a22.45,22.45,0,0,1,4.16.23,5.1,5.1,0,0,1,2.54.93,5.2,5.2,0,0,1,1.62,2.2,24,24,0,0,1,1.27,3.81h2.31V71.16H182.67v1.39c.23,0,.35.23.93.23.58.23.92.35,1,.58a4.2,4.2,0,0,1,.58,1c0,.58.23,1,.23,1.85v34.11a4.82,4.82,0,0,1-.23,1.85c0,.58-.23.92-.58,1a1.56,1.56,0,0,1-1,.58,2,2,0,0,1-.93.23v1.62h16.65C202,115.45,204.17,115.45,206.49,115.1Zm-10.87-3.24a1.65,1.65,0,0,1-.58-1.27c0-.58-.23-1.27-.23-2.2V89.78h3.82c3.35,0,5.9.92,7.4,2.66s2.2,4.62,2.2,8.56a22.7,22.7,0,0,1-.69,6.24,8.8,8.8,0,0,1-2,3.58,13.66,13.66,0,0,1-2.66,1.62,15.44,15.44,0,0,1-3.24.35c-1-.23-1.85-.23-2.54-.35A2,2,0,0,1,195.62,111.86Z" transform="translate(-34.45 -59.83)"></path> <rect class="cls-1" x="107.99" y="68.21" width="325.35" height="4.28"></rect> <path class="cls-1" d="M441.77,98.8c.93,1.27,1.62,2.31,2.54,3.35.69,1,1.62,2.2,2.31,3.24a28.27,28.27,0,0,0,2.31,3.24,31,31,0,0,1,2.31,3.58c.69,1,1.27,2.31,1.85,3.35l15,.23c-1.62-1.62-3-3.24-4.62-4.86-1.39-1.62-2.66-3-3.59-3.93-1.39-1.62-2.66-3-3.81-4.28s-2.31-2.66-3.35-3.93a44.59,44.59,0,0,1-3-3.93c-.81-1.27-2-2.89-2.89-4.28l.69-.92c1-1.39,2.31-2.89,3.82-4.62a48.41,48.41,0,0,1,4.51-5.2A62.59,62.59,0,0,1,460.5,75a40.61,40.61,0,0,1,4.16-3.35H454.25a27.82,27.82,0,0,1-1.62,3.24A28.92,28.92,0,0,1,450.09,79c-.92,1.39-2,3-2.89,4.62s-2,3-3,4.51-2,2.89-2.89,3.93c-.92,1.27-1.62,2.2-2.2,3C439.92,96.25,440.84,97.53,441.77,98.8Z" transform="translate(-34.45 -59.83)"></path> <path class="cls-1" d="M440.5,114.06c-.23,0-.35-.23-.93-.23-.58-.23-.92-.35-1-.58a4.16,4.16,0,0,1-.58-1c0-.58-.23-1-.23-1.85v-34a4.49,4.49,0,0,1,.23-1.85c0-.58.23-.92.58-1a4.16,4.16,0,0,1,1-.58,2,2,0,0,1,.93-.23v-1.5H425.93v1.39c.23,0,.35.23.93.23.58.23.92.35,1,.58a4.14,4.14,0,0,1,.58,1c0,.58.23,1,.23,1.85v34.11a4.49,4.49,0,0,1-.23,1.85c0,.58-.23.92-.58,1a1.55,1.55,0,0,1-1,.58,2,2,0,0,1-.93.23v1.27H440.5v-1.27Z" transform="translate(-34.45 -59.83)"></path> <path class="cls-1" d="M344,110.13c.58-2.54,1.62-6.13,3-10.64h14.22l2,5.78a43.25,43.25,0,0,1,2,6.47,15,15,0,0,1,.92,3.93h11.33c-.58-.92-1-2.2-1.85-3.58a55.77,55.77,0,0,1-2.54-6.24L362.8,76.71a15.78,15.78,0,0,1-.93-3.24c-.23-.92-.23-1.62-.35-2.2H348.81v1.39c.23,0,.35.23.92.23.58.23.92.35,1,.58a4.15,4.15,0,0,1,.58,1v.92a7.14,7.14,0,0,1-.58,2.89l-7.17,17.57c-1.27,3.24-2.54,6.13-3.35,8.21s-1.85,4.16-2.31,5.55c-.69,1.39-1.27,2.66-1.85,3.58a25.23,25.23,0,0,0-1.27,2.31h8.09A46,46,0,0,1,344,110.13Zm10.18-31.68L360,96.37H347.77Z" transform="translate(-34.45 -59.83)"></path> <path class="cls-1" d="M394.36,114.06H394c-.23,0-.35-.23-.93-.23-.58-.23-.92-.35-1-.58a4.19,4.19,0,0,1-.58-1c0-.58-.23-1-.23-1.85v-17h17.23v16.88a4.49,4.49,0,0,1-.23,1.85c0,.58-.23.92-.58,1a1.56,1.56,0,0,1-1,.58,2,2,0,0,1-.92.23v1.39h14.57v-1.39c-.23,0-.35-.23-.92-.23-.58-.23-.93-.35-1-.58a4.08,4.08,0,0,1-.58-1c0-.58-.23-1-.23-1.85V76a4.49,4.49,0,0,1,.23-1.85c0-.58.23-.92.58-1a4.18,4.18,0,0,1,1-.58,2,2,0,0,1,.92-.23V71.16H406v1.39c.23,0,.35.23.92.23.58.23.93.35,1,.58a4.17,4.17,0,0,1,.58,1c0,.58.23,1,.23,1.85V90.47H391.71V76.14a4.53,4.53,0,0,1,.23-1.85c0-.58.23-.92.58-1a4.13,4.13,0,0,1,1-.58,1.74,1.74,0,0,1,.92-.23V71.16H379.91v1.39c.23,0,.35.23.92.23.58.23.92.35,1,.58a4.2,4.2,0,0,1,.58,1c0,.58.23,1,.23,1.85v34.22a4.8,4.8,0,0,1-.23,1.85c0,.58-.23.92-.58,1a1.56,1.56,0,0,1-1,.58,2,2,0,0,1-.92.23v1.39h14.57l-.12-1.5Z" transform="translate(-34.45 -59.83)"></path> <path class="cls-1" d="M112.84,75.79c-.93-1.27-1.85-2.54-2.66-3.82L60.46,100.53l-24-13.76a16.69,16.69,0,0,0-1,4.62L60.69,106Z" transform="translate(-34.45 -59.83)"></path> <path class="cls-1" d="M60.46,111.28,34.68,96.48a11.26,11.26,0,0,0-.23,2.77,42.66,42.66,0,1,0,85.33,0,41.88,41.88,0,0,0-4.62-19.42Z" transform="translate(-34.45 -59.83)"></path> <path class="cls-1" d="M106.71,68.39a47.18,47.18,0,0,0-3.82-3.24L60.46,89.78,40,78.1c-.69,1.27-1.39,2.66-2.2,4.16L60.23,95.21Z" transform="translate(-34.45 -59.83)"></path> <path class="cls-1" d="M98.73,62.38a40.44,40.44,0,0,0-5-2.54L60.46,79,45.55,70.59c-1,1-2,2.31-3,3.58L60.35,84.35Z" transform="translate(-34.45 -59.83)"></path> </svg> 