<svg xmlns="http://www.w3.org/2000/svg" width="420" height="335" fill="#00fffff"><path d="M84.385 77.5a7.23 7.23 0 1114.461 0 7.23 7.23 0 01-14.461 0zm20.269 0a6.962 6.962 0 1113.923 0 6.962 6.962 0 01-13.923 0zm20.269 0a6.692 6.692 0 1113.385 0 6.692 6.692 0 01-13.385 0zm20.269 0a6.423 6.423 0 1112.846 0 6.423 6.423 0 01-12.846 0zm20.27 0a6.154 6.154 0 1112.307 0 6.154 6.154 0 01-12.307 0zm20.268 0a5.885 5.885 0 1111.77 0 5.885 5.885 0 01-11.77 0zm20.27 0a5.615 5.615 0 1111.23 0 5.615 5.615 0 01-11.23 0zm20.27 0a5.346 5.346 0 1110.692 0 5.346 5.346 0 01-10.693 0zm20.268 0a5.077 5.077 0 1110.154 0 5.077 5.077 0 01-10.154 0zm20.27 0a4.808 4.808 0 119.615 0 4.808 4.808 0 01-9.615 0zm20.269 0a4.538 4.538 0 119.077 0 4.538 4.538 0 01-9.077 0zm20.269 0a4.27 4.27 0 118.539 0 4.27 4.27 0 01-8.539 0zm20.269 0a4 4 0 118 0 4 4 0 01-8 0zm-243.23 20a7.23 7.23 0 1114.461 0 7.23 7.23 0 01-14.461 0zm20.269 0a6.962 6.962 0 1113.923 0 6.962 6.962 0 01-13.923 0zm20.269 0a6.692 6.692 0 1113.385 0 6.692 6.692 0 01-13.385 0zm20.269 0a6.423 6.423 0 1112.846 0 6.423 6.423 0 01-12.846 0zm20.27 0a6.154 6.154 0 1112.307 0 6.154 6.154 0 01-12.307 0zm20.268 0a5.885 5.885 0 1111.77 0 5.885 5.885 0 01-11.77 0zm20.27 0a5.615 5.615 0 1111.23 0 5.615 5.615 0 01-11.23 0zm20.27 0a5.346 5.346 0 1110.692 0 5.346 5.346 0 01-10.693 0zm20.268 0a5.077 5.077 0 1110.154 0 5.077 5.077 0 01-10.154 0zm20.27 0a4.808 4.808 0 119.615 0 4.808 4.808 0 01-9.615 0zm20.269 0a4.538 4.538 0 119.077 0 4.538 4.538 0 01-9.077 0zm20.269 0a4.27 4.27 0 118.539 0 4.27 4.27 0 01-8.539 0zm20.269 0a4 4 0 118 0 4 4 0 01-8 0zm-243.23 20a7.23 7.23 0 1114.461 0 7.23 7.23 0 01-14.461 0zm20.269 0a6.962 6.962 0 1113.923 0 6.962 6.962 0 01-13.923 0zm20.269 0a6.692 6.692 0 1113.385 0 6.692 6.692 0 01-13.385 0zm20.269 0a6.423 6.423 0 1112.846 0 6.423 6.423 0 01-12.846 0zm20.27 0a6.154 6.154 0 1112.307 0 6.154 6.154 0 01-12.307 0zm20.268 0a5.885 5.885 0 1111.77 0 5.885 5.885 0 01-11.77 0zm20.27 0a5.615 5.615 0 1111.23 0 5.615 5.615 0 01-11.23 0zm20.27 0a5.346 5.346 0 1110.692 0 5.346 5.346 0 01-10.693 0zm20.268 0a5.077 5.077 0 1110.154 0 5.077 5.077 0 01-10.154 0zm20.27 0a4.808 4.808 0 119.615 0 4.808 4.808 0 01-9.615 0zm20.269 0a4.538 4.538 0 119.077 0 4.538 4.538 0 01-9.077 0zm20.269 0a4.27 4.27 0 118.539 0 4.27 4.27 0 01-8.539 0zm20.269 0a4 4 0 118 0 4 4 0 01-8 0zm-243.23 20a7.23 7.23 0 1114.461 0 7.23 7.23 0 01-14.461 0zm20.269 0a6.962 6.962 0 1113.923 0 6.962 6.962 0 01-13.923 0zm20.269 0a6.692 6.692 0 1113.385 0 6.692 6.692 0 01-13.385 0zm20.269 0a6.423 6.423 0 1112.846 0 6.423 6.423 0 01-12.846 0zm20.27 0a6.154 6.154 0 1112.307 0 6.154 6.154 0 01-12.307 0zm20.268 0a5.885 5.885 0 1111.77 0 5.885 5.885 0 01-11.77 0zm20.27 0a5.615 5.615 0 1111.23 0 5.615 5.615 0 01-11.23 0zm20.27 0a5.346 5.346 0 1110.692 0 5.346 5.346 0 01-10.693 0zm20.268 0a5.077 5.077 0 1110.154 0 5.077 5.077 0 01-10.154 0zm20.27 0a4.808 4.808 0 119.615 0 4.808 4.808 0 01-9.615 0zm20.269 0a4.538 4.538 0 119.077 0 4.538 4.538 0 01-9.077 0zm20.269 0a4.27 4.27 0 118.539 0 4.27 4.27 0 01-8.539 0zm20.269 0a4 4 0 118 0 4 4 0 01-8 0zm-243.23 20a7.23 7.23 0 1114.461 0 7.23 7.23 0 01-14.461 0zm20.269 0a6.962 6.962 0 1113.923 0 6.962 6.962 0 01-13.923 0zm20.269 0a6.692 6.692 0 1113.385 0 6.692 6.692 0 01-13.385 0zm20.269 0a6.423 6.423 0 1112.846 0 6.423 6.423 0 01-12.846 0zm20.27 0a6.154 6.154 0 1112.307 0 6.154 6.154 0 01-12.307 0zm20.268 0a5.885 5.885 0 1111.77 0 5.885 5.885 0 01-11.77 0zm20.27 0a5.615 5.615 0 1111.23 0 5.615 5.615 0 01-11.23 0zm20.27 0a5.346 5.346 0 1110.692 0 5.346 5.346 0 01-10.693 0zm20.268 0a5.077 5.077 0 1110.154 0 5.077 5.077 0 01-10.154 0zm20.27 0a4.808 4.808 0 119.615 0 4.808 4.808 0 01-9.615 0zm20.269 0a4.538 4.538 0 119.077 0 4.538 4.538 0 01-9.077 0zm20.269 0a4.27 4.27 0 118.539 0 4.27 4.27 0 01-8.539 0zm20.269 0a4 4 0 118 0 4 4 0 01-8 0zm-243.23 20a7.23 7.23 0 1114.461 0 7.23 7.23 0 01-14.461 0zm20.269 0a6.962 6.962 0 1113.923 0 6.962 6.962 0 01-13.923 0zm20.269 0a6.692 6.692 0 1113.385 0 6.692 6.692 0 01-13.385 0zm20.269 0a6.423 6.423 0 1112.846 0 6.423 6.423 0 01-12.846 0zm20.27 0a6.154 6.154 0 1112.307 0 6.154 6.154 0 01-12.307 0zm20.268 0a5.885 5.885 0 1111.77 0 5.885 5.885 0 01-11.77 0zm20.27 0a5.615 5.615 0 1111.23 0 5.615 5.615 0 01-11.23 0zm20.27 0a5.346 5.346 0 1110.692 0 5.346 5.346 0 01-10.693 0zm20.268 0a5.077 5.077 0 1110.154 0 5.077 5.077 0 01-10.154 0zm20.27 0a4.808 4.808 0 119.615 0 4.808 4.808 0 01-9.615 0zm20.269 0a4.538 4.538 0 119.077 0 4.538 4.538 0 01-9.077 0zm20.269 0a4.27 4.27 0 118.539 0 4.27 4.27 0 01-8.539 0zm20.269 0a4 4 0 118 0 4 4 0 01-8 0zm-243.23 20a7.23 7.23 0 1114.461 0 7.23 7.23 0 01-14.461 0zm20.269 0a6.962 6.962 0 1113.923 0 6.962 6.962 0 01-13.923 0zm20.269 0a6.692 6.692 0 1113.385 0 6.692 6.692 0 01-13.385 0zm20.269 0a6.423 6.423 0 1112.846 0 6.423 6.423 0 01-12.846 0zm20.27 0a6.154 6.154 0 1112.307 0 6.154 6.154 0 01-12.307 0zm20.268 0a5.885 5.885 0 1111.77 0 5.885 5.885 0 01-11.77 0zm20.27 0a5.615 5.615 0 1111.23 0 5.615 5.615 0 01-11.23 0zm20.27 0a5.346 5.346 0 1110.692 0 5.346 5.346 0 01-10.693 0zm20.268 0a5.077 5.077 0 1110.154 0 5.077 5.077 0 01-10.154 0zm20.27 0a4.808 4.808 0 119.615 0 4.808 4.808 0 01-9.615 0zm20.269 0a4.538 4.538 0 119.077 0 4.538 4.538 0 01-9.077 0zm20.269 0a4.27 4.27 0 118.539 0 4.27 4.27 0 01-8.539 0zm20.269 0a4 4 0 118 0 4 4 0 01-8 0zm-243.23 20a7.23 7.23 0 1114.461 0 7.23 7.23 0 01-14.461 0zm20.269 0a6.962 6.962 0 1113.923 0 6.962 6.962 0 01-13.923 0zm20.269 0a6.692 6.692 0 1113.385 0 6.692 6.692 0 01-13.385 0zm20.269 0a6.423 6.423 0 1112.846 0 6.423 6.423 0 01-12.846 0zm20.27 0a6.154 6.154 0 1112.307 0 6.154 6.154 0 01-12.307 0zm20.268 0a5.885 5.885 0 1111.77 0 5.885 5.885 0 01-11.77 0zm20.27 0a5.615 5.615 0 1111.23 0 5.615 5.615 0 01-11.23 0zm20.27 0a5.346 5.346 0 1110.692 0 5.346 5.346 0 01-10.693 0zm20.268 0a5.077 5.077 0 1110.154 0 5.077 5.077 0 01-10.154 0zm20.27 0a4.808 4.808 0 119.615 0 4.808 4.808 0 01-9.615 0zm20.269 0a4.538 4.538 0 119.077 0 4.538 4.538 0 01-9.077 0zm20.269 0a4.27 4.27 0 118.539 0 4.27 4.27 0 01-8.539 0zm20.269 0a4 4 0 118 0 4 4 0 01-8 0zm-243.23 20a7.23 7.23 0 1114.461 0 7.23 7.23 0 01-14.461 0zm20.269 0a6.962 6.962 0 1113.923 0 6.962 6.962 0 01-13.923 0zm20.269 0a6.692 6.692 0 1113.385 0 6.692 6.692 0 01-13.385 0zm20.269 0a6.423 6.423 0 1112.846 0 6.423 6.423 0 01-12.846 0zm20.27 0a6.154 6.154 0 1112.307 0 6.154 6.154 0 01-12.307 0zm20.268 0a5.885 5.885 0 1111.77 0 5.885 5.885 0 01-11.77 0zm20.27 0a5.615 5.615 0 1111.23 0 5.615 5.615 0 01-11.23 0zm20.27 0a5.346 5.346 0 1110.692 0 5.346 5.346 0 01-10.693 0zm20.268 0a5.077 5.077 0 1110.154 0 5.077 5.077 0 01-10.154 0zm20.27 0a4.808 4.808 0 119.615 0 4.808 4.808 0 01-9.615 0zm20.269 0a4.538 4.538 0 119.077 0 4.538 4.538 0 01-9.077 0zm20.269 0a4.27 4.27 0 118.539 0 4.27 4.27 0 01-8.539 0zm20.269 0a4 4 0 118 0 4 4 0 01-8 0zm-243.23 20a7.23 7.23 0 1114.461 0 7.23 7.23 0 01-14.461 0zm20.269 0a6.962 6.962 0 1113.923 0 6.962 6.962 0 01-13.923 0zm20.269 0a6.692 6.692 0 1113.385 0 6.692 6.692 0 01-13.385 0zm20.269 0a6.423 6.423 0 1112.846 0 6.423 6.423 0 01-12.846 0zm20.27 0a6.154 6.154 0 1112.307 0 6.154 6.154 0 01-12.307 0zm20.268 0a5.885 5.885 0 1111.77 0 5.885 5.885 0 01-11.77 0zm20.27 0a5.615 5.615 0 1111.23 0 5.615 5.615 0 01-11.23 0zm20.27 0a5.346 5.346 0 1110.692 0 5.346 5.346 0 01-10.693 0zm20.268 0a5.077 5.077 0 1110.154 0 5.077 5.077 0 01-10.154 0zm20.27 0a4.808 4.808 0 119.615 0 4.808 4.808 0 01-9.615 0zm20.269 0a4.538 4.538 0 119.077 0 4.538 4.538 0 01-9.077 0zm20.269 0a4.27 4.27 0 118.539 0 4.27 4.27 0 01-8.539 0zm20.269 0a4 4 0 118 0 4 4 0 01-8 0z" font-family="none" font-weight="none" font-size="none" text-anchor="none"/></svg>