<svg width="48" height="48" viewBox="0 0 48 48" fill="none" xmlns="http://www.w3.org/2000/svg">
<path d="M15.5135 20.1093L13.9269 15.7054C13.3766 14.1778 13.1015 13.414 12.483 12.9795C11.8646 12.5449 11.0527 12.5449 9.42902 12.5449H7.625V23.3497H11.4497V16.6595L13.8402 23.3497H17.1868L19.5772 16.6595V23.3497H23.4019V12.5449H21.5979C19.9742 12.5449 19.1624 12.5449 18.5439 12.9795C17.9255 13.414 17.6503 14.1778 17.1 15.7054L15.5135 20.1093Z" fill="#040E31"/>
<path d="M33.6808 20.1093L32.0943 15.7054C31.544 14.1778 31.2688 13.414 30.6504 12.9795C30.0319 12.5449 29.2201 12.5449 27.5964 12.5449H25.7924V23.3497H29.6171V16.6595L32.0075 23.3497H35.3541L37.7446 16.6595V23.3497H41.5693V12.5449H39.7653C38.1416 12.5449 37.3297 12.5449 36.7113 12.9795C36.0928 13.414 35.8177 14.1778 35.2673 15.7054L33.6808 20.1093Z" fill="#040E31"/>
<path d="M7.625 25.7401H23.4019V29.0868H11.4497C11.4497 29.3531 11.4497 30.2513 11.4586 30.3636C11.5693 31.7703 12.6865 32.8875 14.0932 32.9982C14.2055 33.0071 14.3387 33.0071 14.6051 33.0071H23.4019V36.5449H18.4298C14.591 36.5449 12.6716 36.5449 11.2129 35.7809C10.0061 35.1489 9.02099 34.1638 8.38899 32.9571C7.625 31.4984 7.625 29.579 7.625 25.7401Z" fill="#040E31"/>
<path fill-rule="evenodd" clip-rule="evenodd" d="M38.2227 31.1425C38.2227 29.1824 36.1191 28.1306 33.6808 28.1306C31.2426 28.1306 29.139 29.1824 29.139 31.1425C29.139 33.1027 31.2426 34.1545 33.6808 34.1545C36.1191 34.1545 38.2227 33.1027 38.2227 31.1425ZM33.6808 37.2142C38.7008 37.2142 42.0474 34.6326 42.0474 31.1425C42.0474 27.6525 38.7008 25.0708 33.6808 25.0708C28.6609 25.0708 25.3143 27.6525 25.3143 31.1425C25.3143 34.6326 28.6609 37.2142 33.6808 37.2142Z" fill="#040E31"/>
</svg>
