<svg xmlns="http://www.w3.org/2000/svg" width="63.543" height="83.422" viewBox="0 0 63.543 83.422">
  <g id="_007-clipboard" data-name="007-clipboard" transform="translate(-10.34 -2.009)">
    <path id="Контур_271" data-name="Контур 271" d="M47.951,72.393H44.412a1.192,1.192,0,1,1,0-2.383h3.539a1.192,1.192,0,1,1,0,2.383Z" transform="translate(6.304 13.037)" fill="#ff1552"/>
    <path id="Контур_272" data-name="Контур 272" d="M30.564,84.692H12.723a2.383,2.383,0,0,1-2.383-2.383V8.243A2.383,2.383,0,0,1,12.723,5.86H27.668a1.192,1.192,0,1,1,.012,2.383H12.723V82.309h17.84a1.192,1.192,0,0,1,0,2.383Z" transform="translate(0 0.738)" fill="#ff1552"/>
    <path id="Контур_273" data-name="Контур 273" d="M37.97,72.393H34.5a1.192,1.192,0,0,1,0-2.383H37.97a1.192,1.192,0,0,1,0,2.383Z" transform="translate(4.404 13.037)" fill="#ff1552"/>
    <path id="Контур_274" data-name="Контур 274" d="M64.257,84.692h-8.9a1.192,1.192,0,0,1,0-2.383h8.9V8.243H49.313A1.192,1.192,0,1,1,49.3,5.86H64.257A2.383,2.383,0,0,1,66.64,8.243V82.309A2.383,2.383,0,0,1,64.257,84.692Z" transform="translate(7.242 0.738)" fill="#ff1552"/>
    <path id="Контур_275" data-name="Контур 275" d="M53.954,13.569H25.076a1.192,1.192,0,0,1-1.192-1.192V3.2a1.192,1.192,0,0,1,1.192-1.192H53.954A1.192,1.192,0,0,1,55.145,3.2v9.176A1.192,1.192,0,0,1,53.954,13.569ZM26.267,11.185H52.762V4.392H26.267Z" transform="translate(2.597)" fill="#ff1552"/>
    <path id="Контур_276" data-name="Контур 276" d="M29.859,32H19.133a2.383,2.383,0,0,1-2.383-2.383V18.891a2.383,2.383,0,0,1,2.383-2.383H29.859a2.383,2.383,0,0,1,2.383,2.383V29.617A2.383,2.383,0,0,1,29.859,32ZM19.133,18.891V29.617H29.859V18.891Z" transform="translate(1.229 2.78)" fill="#ff1552"/>
    <path id="Контур_277" data-name="Контур 277" d="M60.564,21.391H34.942a1.192,1.192,0,1,1,0-2.383H60.564a1.192,1.192,0,0,1,0,2.383Z" transform="translate(4.488 3.259)" fill="#ff1552"/>
    <path id="Контур_278" data-name="Контур 278" d="M49.242,27.391h-14.3a1.192,1.192,0,1,1,0-2.383h14.3a1.192,1.192,0,1,1,0,2.383Z" transform="translate(4.488 4.409)" fill="#ff1552"/>
    <path id="Контур_279" data-name="Контур 279" d="M29.859,49.659H19.133a2.383,2.383,0,0,1-2.383-2.383V36.55a2.383,2.383,0,0,1,2.383-2.383H29.859a2.383,2.383,0,0,1,2.383,2.383V47.276A2.383,2.383,0,0,1,29.859,49.659ZM19.133,36.55V47.276H29.859V36.55Z" transform="translate(1.229 6.165)" fill="#ff1552"/>
    <path id="Контур_280" data-name="Контур 280" d="M60.564,39.05H34.942a1.192,1.192,0,1,1,0-2.383H60.564a1.192,1.192,0,0,1,0,2.383Z" transform="translate(4.488 6.645)" fill="#ff1552"/>
    <path id="Контур_281" data-name="Контур 281" d="M49.242,45.05h-14.3a1.192,1.192,0,1,1,0-2.383h14.3a1.192,1.192,0,1,1,0,2.383Z" transform="translate(4.488 7.795)" fill="#ff1552"/>
    <path id="Контур_282" data-name="Контур 282" d="M29.859,67.318H19.133a2.383,2.383,0,0,1-2.383-2.383V54.209a2.383,2.383,0,0,1,2.383-2.383H29.859a2.383,2.383,0,0,1,2.383,2.383V64.935A2.383,2.383,0,0,1,29.859,67.318ZM19.133,54.209V64.935H29.859V54.209Z" transform="translate(1.229 9.551)" fill="#ff1552"/>
    <path id="Контур_283" data-name="Контур 283" d="M60.564,56.709H34.942a1.192,1.192,0,1,1,0-2.383H60.564a1.192,1.192,0,0,1,0,2.383Z" transform="translate(4.488 10.03)" fill="#ff1552"/>
    <path id="Контур_284" data-name="Контур 284" d="M49.242,62.709h-14.3a1.192,1.192,0,1,1,0-2.383h14.3a1.192,1.192,0,1,1,0,2.383Z" transform="translate(4.488 11.181)" fill="#ff1552"/>
  </g>
</svg>
