<svg id="wallet" xmlns="http://www.w3.org/2000/svg" width="76.09" height="81.582" viewBox="0 0 76.09 81.582">
  <g id="Сгруппировать_24" data-name="Сгруппировать 24">
    <g id="Сгруппировать_23" data-name="Сгруппировать 23">
      <path id="Контур_228" data-name="Контур 228" d="M81.582,47.785H80.407v-11A5.224,5.224,0,0,0,78.3,32.569v-1.5a3.872,3.872,0,0,0-3.792-3.939h-.878l3.358-5.118a3.861,3.861,0,0,0-.954-5.232L53.246.655A3.492,3.492,0,0,0,50.53.067a3.6,3.6,0,0,0-2.321,1.579L28.541,31.622H23.068l1.32-13.883a.41.41,0,0,1,.249-.345,8.583,8.583,0,0,0,4.151-3.5.389.389,0,0,1,.372-.181l8.584.881a1.132,1.132,0,0,0,1.224-1.043,1.152,1.152,0,0,0-1-1.271L29.381,11.4A2.588,2.588,0,0,0,26.9,12.642a6.31,6.31,0,0,1-3.052,2.576,2.7,2.7,0,0,0-1.687,2.292L20.819,31.622H19.391L21.48,9.664A1.4,1.4,0,0,1,23,8.372l17.347,1.78a1.132,1.132,0,0,0,1.224-1.043,1.152,1.152,0,0,0-1-1.271L23.216,6.059a3.669,3.669,0,0,0-3.964,3.377l-1.683,17.7H14.7a3.872,3.872,0,0,0-3.792,3.939v1.021a5.187,5.187,0,0,0-2.9,4.695V76.415a5.079,5.079,0,0,0,4.975,5.167H75.432a5.079,5.079,0,0,0,4.975-5.167v-11h1.175A2.569,2.569,0,0,0,84.1,62.805V50.4A2.569,2.569,0,0,0,81.582,47.785ZM74.506,29.458h0a1.586,1.586,0,0,1,1.554,1.614v.592a4.8,4.8,0,0,0-.628-.043H70.683l1.42-2.164ZM50.058,2.955a1.376,1.376,0,0,1,.888-.6,1.356,1.356,0,0,1,.261-.026,1.342,1.342,0,0,1,.778.25L74.772,18.7a1.477,1.477,0,0,1,.365,2L67.975,31.621H66.256l3.511-5.352a2.806,2.806,0,0,0,.122-2.883,6.709,6.709,0,0,1-.75-4.01,2.761,2.761,0,0,0-1.132-2.609L56.195,8.407a2.536,2.536,0,0,0-2.752-.14,6.059,6.059,0,0,1-3.867.742,2.611,2.611,0,0,0-2.539,1.172L32.969,31.622H31.25ZM50.551,22.7a9.39,9.39,0,0,0-9.2,8.925H35.677L48.886,11.49h0a.4.4,0,0,1,.327-.183.367.367,0,0,1,.051,0,8.24,8.24,0,0,0,5.26-1.009.383.383,0,0,1,.41.026l11.813,8.361a.417.417,0,0,1,.173.387,9.125,9.125,0,0,0,1.02,5.453.426.426,0,0,1-.022.431l-4.37,6.661H59.753A9.39,9.39,0,0,0,50.551,22.7Zm6.957,8.926H43.595a6.967,6.967,0,0,1,13.914,0Zm-44.36-.55A1.587,1.587,0,0,1,14.7,29.458h2.645l-.206,2.164H13.148Zm-2.9,5.716a2.794,2.794,0,0,1,2.736-2.842H75.432a2.794,2.794,0,0,1,2.736,2.842v3.226H10.246ZM78.168,76.415a2.794,2.794,0,0,1-2.736,2.842H12.983a2.794,2.794,0,0,1-2.736-2.842V73.189h6.036a1.163,1.163,0,0,0,0-2.325H10.246V42.339H78.168v5.446H67.527a8.479,8.479,0,0,0-7.636,4.968l-.015.029c-.012.025-.022.051-.033.076a8.974,8.974,0,0,0-.423,1.124v0a9.1,9.1,0,0,0-.381,2.616,8.667,8.667,0,0,0,8.489,8.817H78.168v5.446H23.449a1.163,1.163,0,0,0,0,2.325h54.72Zm3.692-13.61a.284.284,0,0,1-.278.288H67.527a6.227,6.227,0,0,1-5.495-3.4q-.072-.138-.138-.28-.132-.284-.237-.582a6.734,6.734,0,0,1,0-4.46q.105-.3.237-.582.066-.142.138-.28a6.227,6.227,0,0,1,5.495-3.4H81.582a.284.284,0,0,1,.278.288Z" transform="translate(-8.008 0)" fill="#008ad5"/>
    </g>
  </g>
  <g id="Сгруппировать_26" data-name="Сгруппировать 26" transform="translate(55.24 51.885)">
    <g id="Сгруппировать_25" data-name="Сгруппировать 25">
      <path id="Контур_229" data-name="Контур 229" d="M372.622,325.627a4.72,4.72,0,1,0,4.541,4.717A4.637,4.637,0,0,0,372.622,325.627Zm0,7.108a2.393,2.393,0,1,1,2.3-2.391A2.351,2.351,0,0,1,372.622,332.735Z" transform="translate(-368.081 -325.627)" fill="#008ad5"/>
    </g>
  </g>
</svg>
