<svg id="Слой_1" data-name="Слой 1" xmlns="http://www.w3.org/2000/svg" viewBox="0 0 243.62 80.5"><defs><style>.cls-2{fill:#1e4f9b}</style></defs><path d="M154.7 240.56a16.94 16.94 0 0 0 9.79 6.11c11.35 2.59 27.84-1 35.51 12.45a13.16 13.16 0 0 1 1.32 2.87 12.24 12.24 0 0 0-.65-4c7.93-12.17 23.81-8.83 34.84-11.34a17 17 0 0 0 9.79-6.11c0 .5-.05 1-.05 1.46.06 18.93-16.14 17.54-22.89 18.43-10.57 1.4-18.92 6.43-22.35 12.21-3.43-5.78-11.57-11-22.35-12.21-7.34-.8-22.94-.16-22.93-19.3v-.59" transform="translate(-154.7 -240.56)" style="fill-rule:evenodd;fill:#1e4f9b"/><path class="cls-2" d="M255.08 254.8h4.42l5.84 17.2H261l-1.05-3.6h-5.35l-1 3.6h-4.32zM259 265l-1-3.34c-.31-1.08-.7-2.95-.7-2.95h-.05s-.38 1.87-.69 2.95l-1 3.34zM269.09 260.45v-5.65h11.53V272h-4.2v-13.59h-3.34v2.09c0 8.46-2.6 11.68-7.43 11.68v-3.83c2.05-.26 3.44-1.75 3.44-7.9zM288 258.41h-5.22v-3.61h14.64v3.61h-5.22V272H288zM302.09 254.8h4.42l5.84 17.2H308l-1.06-3.6h-5.36l-1 3.6h-4.33zM306 265l-1-3.34c-.31-1.08-.69-2.95-.69-2.95h-.05s-.39 1.87-.7 2.95l-1 3.34zM314.08 254.8h4.21v8c0 1.08-.19 2.93-.19 2.93a28.89 28.89 0 0 1 1.44-2.93l4.76-8h4.25V272h-4.21v-8c0-1.08.2-2.93.2-2.93a31.43 31.43 0 0 1-1.44 2.93l-4.79 8h-4.23zm2.94-4.45v-.26h3.07v.29a1.49 1.49 0 0 0 3 0v-.29h3.05v.26c0 2.36-2.11 3.68-4.54 3.68s-4.6-1.32-4.6-3.68zM340.3 254.51a9.27 9.27 0 0 1 6.45 2.43l-1.95 3.17a7 7 0 0 0-4.3-1.75 4.56 4.56 0 0 0-4.86 4.9c0 2.55 1.54 5.17 4.86 5.17a6.76 6.76 0 0 0 4.56-2.12l2.17 3.08a9.41 9.41 0 0 1-6.93 2.88c-5.52 0-9-3.82-9-8.91a8.66 8.66 0 0 1 9-8.85zM349.37 254.8h4.2v6.63h1.73l3.56-6.63h4.52l-4.64 8.2v.05l4.9 8.91h-4.71l-3.63-7h-1.73v7h-4.2zM365.59 254.8h4.2v8c0 1.08-.19 2.93-.19 2.93a31.43 31.43 0 0 1 1.44-2.93l4.76-8h4.26V272h-4.16v-8c0-1.08.19-2.93.19-2.93a31.43 31.43 0 0 1-1.49 2.93l-4.78 8h-4.23zM383.71 254.8h4.21v8c0 1.08-.19 2.93-.19 2.93a29.94 29.94 0 0 1 1.45-2.93l4.75-8h4.26V272H394v-8c0-1.08.19-2.93.19-2.93a29.94 29.94 0 0 1-1.45 2.93l-4.78 8h-4.23zm2.93-4.45v-.26h3.08v.29a1.49 1.49 0 0 0 3 0v-.29h3.05v.26c0 2.36-2.11 3.68-4.54 3.68s-4.59-1.32-4.59-3.68zM155.75 279.55h10.32v3.53h-6.2v13.3h-4.12zM175.55 279.27a8.51 8.51 0 0 1 8.81 8.59 8.81 8.81 0 0 1-17.61 0 8.51 8.51 0 0 1 8.8-8.59zm0 13.63a4.76 4.76 0 0 0 4.55-5 4.55 4.55 0 1 0-9.09 0 4.75 4.75 0 0 0 4.54 5zM194.9 279.27a9.07 9.07 0 0 1 6.31 2.37l-1.91 3.11a6.87 6.87 0 0 0-4.21-1.72 4.47 4.47 0 0 0-4.76 4.8c0 2.5 1.51 5.07 4.76 5.07a6.65 6.65 0 0 0 4.47-2.07l2.12 3a9.18 9.18 0 0 1-6.78 2.82c-5.42 0-8.83-3.74-8.83-8.73a8.48 8.48 0 0 1 8.83-8.65zM205.07 292.31a3 3 0 0 0 1.86.85 1.35 1.35 0 0 0 1.34-.87l-6.5-12.74h4.52l2.8 6.05a21.94 21.94 0 0 1 .92 2.26h.05s.26-1.06.66-2.24l2.07-6.07h4.33l-5 12.62c-.77 2-2.07 4.49-5 4.49a6.3 6.3 0 0 1-3.83-1.27zM217.66 292.87a18.46 18.46 0 0 0 2.14-9.34v-4h11.4v13.32h1.88v6.81h-3.65v-3.3h-9.72v3.3h-3.79v-6.81zm9.42 0v-9.79h-3.37v.78a20.81 20.81 0 0 1-1.83 9zM239.55 279.55h4.33l5.72 16.83h-4.23l-1-3.53h-5.25l-1 3.53h-4.24zm3.82 10-1-3.27c-.3-1.06-.68-2.89-.68-2.89h-.05s-.37 1.83-.68 2.89l-1 3.27zM251.3 279.55h7c3.27 0 5.48 2.4 5.48 5.79s-2.21 5.84-5.48 5.84h-2.87v5.2h-4.13zm6.14 8.1a2 2 0 0 0 2.14-2.31 2 2 0 0 0-2.07-2.26h-2.09v4.57zM273.94 279.27a9.07 9.07 0 0 1 6.31 2.37l-1.91 3.11a6.87 6.87 0 0 0-4.21-1.72 4.47 4.47 0 0 0-4.76 4.8c0 2.5 1.51 5.07 4.76 5.07a6.65 6.65 0 0 0 4.47-2.07l2.12 3a9.18 9.18 0 0 1-6.78 2.82c-5.41 0-8.83-3.74-8.83-8.73a8.48 8.48 0 0 1 8.83-8.65zM286.46 283.08h-5.11v-3.53h14.34v3.53h-5.11v13.3h-4.12zM297.76 279.55H304c3.37 0 5.72 1.51 5.72 4.4a4.12 4.12 0 0 1-1.95 3.58v.05a3.77 3.77 0 0 1 2.64 3.79c0 3.67-3.06 5-6.41 5h-6.19zm6.24 6.52a1.42 1.42 0 0 0 1.48-1.55 1.37 1.37 0 0 0-1.55-1.44h-2.05v3zm.35 6.78a1.67 1.67 0 0 0 1.79-1.77 1.61 1.61 0 0 0-1.76-1.71h-2.5v3.48zM313 279.55h10.55v3.53h-6.43v3.06h5.13v3.53h-5.13v3.18h6.76v3.53H313zM326.55 279.55h4.12v6.73h6.12v-6.73h4.12v16.83h-4.12v-6.59h-6.12v6.59h-4.12zM344.43 279.55h4.12v6.73h6.13v-6.73h4.12v16.83h-4.12v-6.59h-6.13v6.59h-4.12zM362.32 279.55h4.12v5.2h2.64c3.27 0 5.49 2.45 5.49 5.84s-2.22 5.79-5.49 5.79h-6.76zm6 13.3a2 2 0 0 0 2.08-2.26 2.06 2.06 0 0 0-2.15-2.31h-1.79v4.57zm8.15-13.3h4.12v16.83h-4.12zM384.1 279.55h4.12v7.86c0 1.06-.19 2.87-.19 2.87h.05a30.12 30.12 0 0 1 1.41-2.87l4.66-7.86h4.17v16.83h-4.12v-7.84c0-1.06.18-2.87.18-2.87a31.31 31.31 0 0 1-1.42 2.87l-4.68 7.84h-4.18zm2.87-4.36v-.26h3v.29a1.46 1.46 0 0 0 2.92 0v-.29h3v.26c0 2.31-2.07 3.6-4.45 3.6s-4.44-1.29-4.44-3.6zM158.91 316.7a3 3 0 0 0 1.86.85 1.35 1.35 0 0 0 1.34-.87l-6.5-12.74h4.52l2.8 6.05a21.94 21.94 0 0 1 .92 2.26h.05s.26-1.06.66-2.23l2.07-6.08H171l-5 12.62c-.77 2-2.07 4.5-5 4.5a6.39 6.39 0 0 1-3.84-1.27zM172.47 303.94h4.12v6.73h6.12v-6.73h4.12v16.84h-4.12v-6.6h-6.12v6.6h-4.12zM190.35 303.94h4.12v7.86c0 1.06-.18 2.88-.18 2.88a31 31 0 0 1 1.42-2.88l4.66-7.86h4.16v16.84h-4.12v-7.84c0-1.06.19-2.88.19-2.88a31 31 0 0 1-1.42 2.88l-4.68 7.84h-4.15zM208.1 303.94h6.19c3.37 0 5.73 1.51 5.73 4.4a4.11 4.11 0 0 1-2 3.58v.08a3.78 3.78 0 0 1 2.64 3.79c0 3.67-3.06 5-6.41 5h-6.15zm6.24 6.52a1.42 1.42 0 0 0 1.48-1.55 1.37 1.37 0 0 0-1.55-1.44h-2.05v3zm.35 6.78a1.67 1.67 0 0 0 1.79-1.76 1.62 1.62 0 0 0-1.76-1.72h-2.5v3.48zM223.33 303.94h10.55v3.53h-6.43v3.06h5.13v3.54h-5.13v3.17h6.76v3.54h-10.88zM236.89 303.94h7c3.27 0 5.49 2.4 5.49 5.79s-2.22 5.84-5.49 5.84H241v5.21h-4.12zM243 312a2.05 2.05 0 0 0 2.15-2.31 2 2 0 0 0-2.08-2.26H241V312zM259.53 303.66a9 9 0 0 1 6.31 2.38l-1.9 3.1a6.91 6.91 0 0 0-4.22-1.71 4.46 4.46 0 0 0-4.75 4.8c0 2.49 1.5 5.06 4.75 5.06a6.69 6.69 0 0 0 4.48-2.07l2.11 3a9.17 9.17 0 0 1-6.78 2.83c-5.41 0-8.83-3.75-8.83-8.74a8.48 8.48 0 0 1 8.83-8.65zM268.4 303.94h4.12v7.86c0 1.06-.18 2.88-.18 2.88a31 31 0 0 1 1.42-2.88l4.66-7.86h4.17v16.84h-4.12v-7.84c0-1.06.18-2.88.18-2.88a31 31 0 0 1-1.42 2.88l-4.68 7.84h-4.15zM289.8 307.47h-5.11v-3.53H299v3.53h-5.11v13.31h-4.09zM301.1 303.94h10.55v3.53h-6.43v3.06h5.13v3.54h-5.13v3.17H312v3.54h-10.9zM318.31 307.47h-5.11v-3.53h14.34v3.53h-5.11v13.31h-4.12zM364.78 320.89V320H367v-7.66a2.53 2.53 0 0 1-.48.58l-1 1-.6-.61 2.19-2.18h.88V320H370v.85zM371.73 320.66l.37-.84a2.94 2.94 0 0 0 1.41.34 2.62 2.62 0 0 0 1.69-.59 3.8 3.8 0 0 0 1.08-1.44 6.51 6.51 0 0 0 .46-1.86 2.52 2.52 0 0 1-1 .82 3.35 3.35 0 0 1-1.43.31 2.88 2.88 0 0 1-2.17-.87 3.13 3.13 0 0 1-.85-2.27 3.2 3.2 0 0 1 .87-2.35 2.93 2.93 0 0 1 2.18-.88 3 3 0 0 1 2.53 1.28 5.33 5.33 0 0 1 1 3.27 7.09 7.09 0 0 1-.25 1.88 7 7 0 0 1-.75 1.76 3.79 3.79 0 0 1-1.34 1.33 3.63 3.63 0 0 1-1.92.51 4.08 4.08 0 0 1-1.88-.4zm2.66-4.11a2.7 2.7 0 0 0 1.66-.53 1.45 1.45 0 0 0 .7-1.13 3.3 3.3 0 0 0-.71-2 2.11 2.11 0 0 0-1.74-.95 1.89 1.89 0 0 0-1.54.65 2.48 2.48 0 0 0-.56 1.67 2.3 2.3 0 0 0 .6 1.66 2.09 2.09 0 0 0 1.59.63zM380.05 320.89 384 313l.52-.9a6 6 0 0 1-.71 0h-4.54v-.86h6.3v.66l-4.5 9zM386.58 319.73l.59-.73a3.7 3.7 0 0 0 1.1.81 3 3 0 0 0 1.38.32 2.27 2.27 0 0 0 1.56-.58 1.94 1.94 0 0 0 .65-1.5 1.81 1.81 0 0 0-.71-1.52 2.7 2.7 0 0 0-1.72-.55h-.67l-.24-.56 2.43-2.85.51-.54a7.27 7.27 0 0 1-.79 0H387v-.86h5.67v.64l-2.88 3.34a3.83 3.83 0 0 1 1 .18 4.33 4.33 0 0 1 1 .47 2.23 2.23 0 0 1 .76.89 2.78 2.78 0 0 1 .3 1.31 2.88 2.88 0 0 1-.91 2.15 3.15 3.15 0 0 1-2.28.89 4.18 4.18 0 0 1-1.65-.35 4.4 4.4 0 0 1-1.43-.96z" transform="translate(-154.7 -240.56)"/></svg>