<svg width="380" height="75" fill="none" xmlns="http://www.w3.org/2000/svg"><path d="M24.06 4.41v25.98h-6.407V11.224H6.406V30.39H0V4.41h24.06zM56.231 11.827c.719 1.684 1.084 3.53 1.084 5.548 0 2.017-.365 3.863-1.084 5.548-.719 1.684-1.685 3.122-2.897 4.335a13.034 13.034 0 0 1-4.186 2.822 12.437 12.437 0 0 1-4.947 1.009c-1.92 0-3.552-.333-4.915-.987-1.362-.655-2.264-1.47-2.693-2.447v13.468h-6.407V4.41h6.203v2.726c.44-.976 1.352-1.792 2.747-2.447 1.395-.654 3.048-.987 4.969-.987 1.749 0 3.423.333 5.022.987a12.566 12.566 0 0 1 4.207 2.801c1.212 1.213 2.178 2.662 2.897 4.336zm-5.924 8.348a7.09 7.09 0 0 0 .558-2.8c0-1.01-.182-1.932-.558-2.78-.375-.837-.88-1.567-1.534-2.168-.655-.6-1.449-1.073-2.372-1.416-.923-.333-1.942-.504-3.047-.504-1.61 0-3.048.332-4.282.987-1.245.655-2.071 1.47-2.468 2.447v6.91c.407.977 1.223 1.793 2.468 2.447 1.245.655 2.672.987 4.282.987 1.105 0 2.124-.171 3.047-.504.923-.333 1.717-.805 2.372-1.416a6.26 6.26 0 0 0 1.534-2.19zM68.164 4.41v15.593L79.915 4.41h6.406v25.98h-6.31V14.81L68.262 30.39h-6.406V4.41h6.31zM118.3 17.428c0 1.985-.376 3.81-1.105 5.473-.741 1.663-1.739 3.101-3.005 4.314a14.015 14.015 0 0 1-4.368 2.844 13.495 13.495 0 0 1-5.247 1.03c-1.846 0-3.595-.343-5.248-1.03a14.214 14.214 0 0 1-4.367-2.844 13.67 13.67 0 0 1-3.005-4.314c-.74-1.663-1.105-3.488-1.105-5.473 0-1.953.375-3.766 1.105-5.451a13.733 13.733 0 0 1 3.005-4.368 13.923 13.923 0 0 1 4.367-2.876c1.642-.686 3.391-1.03 5.248-1.03 1.845 0 3.595.344 5.247 1.03a13.917 13.917 0 0 1 4.368 2.876 13.803 13.803 0 0 1 3.005 4.368c.729 1.685 1.105 3.498 1.105 5.451zm-20.432-2.8c-.376.858-.558 1.791-.558 2.8s.182 1.932.558 2.78c.365.837.88 1.566 1.534 2.167a7.244 7.244 0 0 0 2.318 1.417 8.05 8.05 0 0 0 2.844.504 7.842 7.842 0 0 0 2.822-.504 7.005 7.005 0 0 0 2.297-1.417 6.772 6.772 0 0 0 1.566-2.167c.387-.837.58-1.771.58-2.78a6.735 6.735 0 0 0-.58-2.8 6.632 6.632 0 0 0-1.566-2.19 7.257 7.257 0 0 0-2.297-1.416 7.885 7.885 0 0 0-2.822-.505 8.006 8.006 0 0 0-2.844.505 6.882 6.882 0 0 0-2.318 1.416c-.654.601-1.17 1.33-1.534 2.19zM148.777 11.827c.719 1.684 1.084 3.53 1.084 5.548 0 2.017-.365 3.863-1.084 5.548-.719 1.684-1.685 3.122-2.898 4.335a13.022 13.022 0 0 1-4.185 2.822 12.436 12.436 0 0 1-4.947 1.009c-1.921 0-3.552-.333-4.915-.987-1.362-.655-2.264-1.47-2.693-2.447v13.468h-6.407V4.41h6.203v2.726c.44-.976 1.352-1.792 2.747-2.447 1.395-.654 3.048-.987 4.969-.987 1.749 0 3.423.333 5.022.987a12.553 12.553 0 0 1 4.206 2.801c1.202 1.213 2.168 2.662 2.898 4.336zm-5.934 8.348a7.107 7.107 0 0 0 .558-2.8c0-1.01-.183-1.932-.558-2.78-.376-.837-.88-1.567-1.535-2.168-.655-.6-1.449-1.073-2.372-1.416-.922-.333-1.942-.504-3.047-.504-1.61 0-3.048.332-4.282.987-1.245.655-2.071 1.47-2.468 2.447v6.91c.408.977 1.223 1.793 2.468 2.447 1.245.655 2.672.987 4.282.987 1.105 0 2.125-.171 3.047-.504.923-.333 1.717-.805 2.372-1.416a6.356 6.356 0 0 0 1.535-2.19zM160.688 4.41v15.593l11.75-15.593h6.407v25.98h-6.31V14.81L160.784 30.39h-6.406V4.41h6.31zM205.555 11.224h-8.027V30.39h-6.406V11.224h-8.017V4.41h22.45v6.814zM222.553 24.639c1.609 0 3.165-.29 4.636-.88 1.481-.59 2.586-1.374 3.326-2.35l1.964 4.947c-.805 1.341-2.092 2.468-3.863 3.38-1.771.912-3.863 1.363-6.278 1.363-1.985 0-3.82-.322-5.526-.955-1.696-.644-3.166-1.546-4.411-2.726-1.245-1.18-2.221-2.608-2.929-4.282-.709-1.685-1.063-3.584-1.063-5.698 0-1.846.311-3.595.934-5.247a13.482 13.482 0 0 1 2.672-4.368 12.882 12.882 0 0 1 4.185-3.005c1.631-.74 3.466-1.105 5.526-1.105 1.921 0 3.66.375 5.216 1.137 1.567.752 2.897 1.76 3.981 3.027a13.818 13.818 0 0 1 2.543 4.367c.601 1.653.912 3.38.912 5.194 0 .376-.01.762-.021 1.18a6.86 6.86 0 0 1-.129 1.084h-19.262c.3 1.717 1.137 2.973 2.522 3.756 1.395.784 3.08 1.18 5.065 1.18zm5.301-10.184c-.204-1.374-.88-2.425-2.017-3.155-1.149-.72-2.512-1.084-4.089-1.084-1.578 0-2.994.365-4.239 1.084-1.245.73-1.996 1.77-2.264 3.155h12.609zM259.737 11.224h-8.027V30.39h-6.396V11.224h-8.027V4.41h22.45v6.814z" fill="#f8f9fa"/><path d="M272.228 9.733c-.634 0-1.213.097-1.739.29a5.833 5.833 0 0 0-1.449.762 7.043 7.043 0 0 0-1.18 1.084 8.473 8.473 0 0 0-.923 1.309l-2.286-3.917c.194-.751.526-1.46.998-2.125a7.44 7.44 0 0 1 1.739-1.738 8.528 8.528 0 0 1 2.382-1.18 9.385 9.385 0 0 1 2.908-.44c1.352 0 2.554.203 3.595.611 1.041.408 1.91.977 2.619 1.706a7.472 7.472 0 0 1 1.599 2.544c.364.965.547 2.006.547 3.122 0 .945-.108 1.814-.322 2.597a9.974 9.974 0 0 1-.966 2.307 17.535 17.535 0 0 1-1.577 2.286 77.55 77.55 0 0 1-2.179 2.543l-2.607 2.94h8.166v5.956h-16.698v-4.614l7.437-8.091c.526-.58.987-1.084 1.374-1.524.386-.44.708-.848.965-1.256a5.55 5.55 0 0 0 .58-1.158c.129-.376.204-.794.204-1.256 0-.773-.29-1.427-.859-1.964-.59-.526-1.352-.794-2.328-.794zM292.595 4.775a14.025 14.025 0 0 1 5.269-.998c1.846 0 3.595.333 5.269.998a13.362 13.362 0 0 1 4.367 2.801c1.256 1.202 2.243 2.64 2.973 4.314s1.094 3.51 1.094 5.505c0 2.018-.364 3.853-1.094 5.516-.73 1.663-1.717 3.101-2.973 4.303a13.479 13.479 0 0 1-4.367 2.801 14.07 14.07 0 0 1-5.269.998c-1.846 0-3.606-.333-5.269-.998a13.378 13.378 0 0 1-4.368-2.8c-1.255-1.203-2.243-2.64-2.972-4.304-.73-1.663-1.095-3.498-1.095-5.516 0-1.996.365-3.83 1.095-5.505.729-1.674 1.717-3.112 2.972-4.314 1.245-1.191 2.705-2.125 4.368-2.8zm5.269 20.282c1.116 0 2.168-.182 3.155-.569a7.8 7.8 0 0 0 2.554-1.566c.719-.666 1.277-1.47 1.695-2.404.408-.934.623-1.975.623-3.112 0-1.116-.204-2.146-.623-3.101a7.362 7.362 0 0 0-1.695-2.426 7.8 7.8 0 0 0-2.554-1.566 8.8 8.8 0 0 0-3.155-.57c-1.138 0-2.2.194-3.166.57a7.922 7.922 0 0 0-2.532 1.566 7.116 7.116 0 0 0-1.696 2.426 7.766 7.766 0 0 0-.622 3.1c0 1.15.204 2.18.622 3.113a7.134 7.134 0 0 0 1.696 2.404 7.814 7.814 0 0 0 2.532 1.566c.966.376 2.018.57 3.166.57zM320.657 25.078c1.159 0 2.103-.279 2.812-.837.719-.558 1.073-1.309 1.073-2.253 0-.848-.322-1.524-.966-2.018-.644-.493-1.503-.74-2.597-.74-.751 0-1.395.086-1.942.257-.548.172-.955.355-1.213.548l-.912-4.067 4.464-5.591h-7.19V4.41h14.562v4.25l-4.432 5.44c.633.15 1.288.397 1.975.74.687.355 1.32.838 1.91 1.45.579.622 1.062 1.395 1.438 2.339.376.944.558 2.082.558 3.412a9.05 9.05 0 0 1-.676 3.488 8.484 8.484 0 0 1-1.921 2.855c-.837.815-1.835 1.448-3.015 1.92-1.181.473-2.49.709-3.939.709-1.094 0-2.071-.118-2.94-.365-.869-.247-1.631-.558-2.286-.966-.654-.397-1.202-.837-1.631-1.33-.44-.484-.751-.977-.944-1.492l1.309-4.797a8.919 8.919 0 0 0 2.575 2.125c1.031.6 2.34.89 3.928.89zM341.239 4.775a14.032 14.032 0 0 1 5.269-.998c1.846 0 3.595.333 5.269.998a13.366 13.366 0 0 1 4.368 2.801c1.255 1.202 2.243 2.64 2.972 4.314.73 1.674 1.095 3.51 1.095 5.505 0 2.018-.365 3.853-1.095 5.516-.729 1.663-1.717 3.101-2.972 4.303a13.483 13.483 0 0 1-4.368 2.801 14.025 14.025 0 0 1-5.269.998c-1.845 0-3.605-.333-5.269-.998a13.539 13.539 0 0 1-4.378-2.8c-1.255-1.203-2.243-2.64-2.972-4.304-.73-1.663-1.095-3.498-1.095-5.516 0-1.996.365-3.83 1.095-5.505.729-1.674 1.717-3.112 2.972-4.314a13.905 13.905 0 0 1 4.378-2.8zm5.269 20.282c1.116 0 2.168-.182 3.155-.569a7.79 7.79 0 0 0 2.554-1.566 7.134 7.134 0 0 0 1.696-2.404c.408-.934.622-1.975.622-3.112 0-1.116-.204-2.146-.622-3.101a7.22 7.22 0 0 0-1.696-2.426 7.79 7.79 0 0 0-2.554-1.566 8.8 8.8 0 0 0-3.155-.57c-1.137 0-2.2.194-3.165.57a7.808 7.808 0 0 0-2.533 1.566c-.719.666-1.277 1.481-1.695 2.426-.419.944-.623 1.985-.623 3.1 0 1.15.204 2.18.623 3.113.418.933.976 1.738 1.695 2.404a7.808 7.808 0 0 0 2.533 1.566c.965.376 2.017.57 3.165.57zM374.001 0h-5.204l-5.999 10.388h5.194L374.001 0z" fill="#EA0029"/><path d="M368.797 0h5.204L380 10.388h-5.194L368.797 0zM18.522 56.488v7.716l5.816-7.716h3.177v12.867h-3.123v-7.716l-5.827 7.716H15.4V56.488h3.123zM30.788 65.985c.268-.45.526-.955.772-1.523.247-.57.473-1.192.676-1.89a16.35 16.35 0 0 0 .473-2.231c.118-.794.171-1.653.171-2.576v-1.277h9.293v9.487h1.803v6.792h-3.069v-3.423h-8.37v3.423h-3.07v-6.792h1.32v.01zm8.209 0V59.87h-3.273c-.15 1.448-.376 2.66-.676 3.637-.3.977-.622 1.803-.977 2.48h4.926zM52.314 66.5c.794 0 1.567-.15 2.297-.44.73-.29 1.277-.676 1.652-1.159l.977 2.447c-.397.665-1.041 1.223-1.91 1.674-.88.45-1.91.676-3.112.676-.988 0-1.89-.161-2.737-.472a6.367 6.367 0 0 1-2.19-1.352 6.179 6.179 0 0 1-1.448-2.125c-.354-.826-.526-1.77-.526-2.822 0-.913.15-1.782.462-2.597a6.71 6.71 0 0 1 1.32-2.157 6.407 6.407 0 0 1 2.07-1.481c.806-.365 1.718-.547 2.737-.547.945 0 1.814.182 2.587.558.772.375 1.427.88 1.974 1.502a6.974 6.974 0 0 1 1.266 2.157c.3.815.451 1.674.451 2.575 0 .183 0 .376-.01.59a3.51 3.51 0 0 1-.065.537h-9.54c.15.848.569 1.47 1.245 1.857.687.386 1.513.58 2.5.58zm2.618-5.044c-.096-.686-.429-1.201-.998-1.556-.568-.354-1.244-.536-2.017-.536a4.2 4.2 0 0 0-2.103.536c-.612.355-.987.88-1.127 1.556h6.245zM73.454 60.158c.355.837.537 1.75.537 2.747 0 .998-.182 1.921-.537 2.747a6.675 6.675 0 0 1-1.438 2.147 6.467 6.467 0 0 1-2.07 1.395 6.203 6.203 0 0 1-2.447.504c-.955 0-1.76-.161-2.436-.483-.676-.322-1.116-.73-1.342-1.213v6.665h-3.176v-18.18h3.069v1.353c.215-.483.665-.89 1.363-1.213.687-.322 1.513-.483 2.457-.483.87 0 1.696.162 2.49.483.794.322 1.48.784 2.082 1.385.611.6 1.084 1.32 1.448 2.146zm-2.94 4.132c.183-.43.28-.891.28-1.385s-.097-.955-.28-1.373a3.203 3.203 0 0 0-.762-1.074 3.363 3.363 0 0 0-1.17-.697 4.567 4.567 0 0 0-1.512-.247c-.795 0-1.503.161-2.125.483-.623.322-1.03.73-1.224 1.213v3.423c.204.483.612.89 1.224 1.213.611.321 1.32.482 2.125.482.547 0 1.051-.085 1.513-.246a3.265 3.265 0 0 0 1.17-.698c.332-.3.579-.665.761-1.094zM76.19 58.41c.237-.365.526-.687.891-.977a5.46 5.46 0 0 1 1.191-.708c.43-.193.891-.333 1.385-.44.493-.097.987-.15 1.48-.15.849 0 1.621.118 2.308.343.687.236 1.288.569 1.781.998.494.43.891.966 1.16 1.61.278.644.407 1.373.407 2.189v8.07h-3.07v-1.127c-.31.483-.804.848-1.47 1.095a5.87 5.87 0 0 1-2.049.375c-.687 0-1.31-.096-1.878-.3a4.747 4.747 0 0 1-1.48-.837 3.565 3.565 0 0 1-.988-1.32 4.263 4.263 0 0 1-.354-1.76c0-.687.14-1.288.408-1.814a3.904 3.904 0 0 1 1.116-1.32 4.947 4.947 0 0 1 1.61-.815 6.542 6.542 0 0 1 1.888-.28c.837 0 1.513.097 2.039.29.526.194.88.398 1.062.612v-.332c0-.752-.246-1.353-.74-1.803-.494-.451-1.213-.676-2.157-.676-.816 0-1.556.16-2.21.472-.655.311-1.181.719-1.567 1.202l-.762-2.597zm7.437 6.32c-.128-.236-.429-.44-.869-.611-.45-.172-.966-.258-1.545-.258-.837 0-1.46.129-1.878.397-.419.269-.622.612-.622 1.052 0 .43.214.783.633 1.04.429.258 1.04.387 1.835.387.58 0 1.094-.107 1.545-.311.45-.204.751-.462.901-.762v-.934zM101.366 56.488h3.07l2.017 12.867h-3.144l-1.116-6.793-3.005 6.793h-2.543l-2.994-6.793-1.148 6.793h-3.23l1.996-12.867h2.854l3.616 8.22 3.627-8.22zM112.151 56.488v7.716l5.816-7.716h3.177v12.867h-3.123v-7.716l-5.816 7.716h-3.177V56.488h3.123zM141.329 67.401c-.387.634-1.009 1.17-1.878 1.62-.869.452-1.878.677-3.026.677a6.704 6.704 0 0 1-2.565-.504 6.787 6.787 0 0 1-2.146-1.395 6.932 6.932 0 0 1-1.492-2.147c-.365-.826-.547-1.749-.547-2.747 0-.998.182-1.92.547-2.747a6.485 6.485 0 0 1 1.492-2.146 6.697 6.697 0 0 1 2.146-1.385 6.855 6.855 0 0 1 2.565-.483c1.148 0 2.146.226 2.983.677.837.45 1.449.987 1.813 1.599l-.901 2.65c-.333-.397-.805-.762-1.427-1.073-.612-.311-1.32-.472-2.125-.472-1.17 0-2.092.311-2.801.933-.697.623-1.051 1.45-1.051 2.458 0 1.02.354 1.835 1.051 2.468.698.633 1.631.944 2.801.944.816 0 1.535-.16 2.146-.493.612-.333 1.095-.698 1.449-1.095l.966 2.662zM153.659 59.858h-3.97v9.497h-3.166v-9.497h-3.981v-3.37h11.117v3.37zM155.559 58.41c.236-.365.526-.687.891-.977a5.454 5.454 0 0 1 1.191-.708 6.94 6.94 0 0 1 1.384-.44c.494-.097.987-.15 1.481-.15.848 0 1.62.118 2.307.343.687.236 1.288.569 1.781.998.494.43.891.966 1.159 1.61.279.644.408 1.373.408 2.189v8.07h-3.069v-1.127c-.322.483-.805.848-1.47 1.095a5.868 5.868 0 0 1-2.05.375c-.687 0-1.309-.096-1.878-.3a4.762 4.762 0 0 1-1.481-.837 3.566 3.566 0 0 1-.987-1.32 4.263 4.263 0 0 1-.354-1.76c0-.687.14-1.288.408-1.814a3.905 3.905 0 0 1 1.116-1.32 4.94 4.94 0 0 1 1.61-.815 6.537 6.537 0 0 1 1.888-.28c.837 0 1.513.097 2.039.29.526.194.88.398 1.063.612v-.332c0-.752-.247-1.353-.741-1.803-.494-.451-1.213-.676-2.157-.676-.815 0-1.556.16-2.21.472-.655.311-1.181.719-1.567 1.202l-.762-2.597zm7.447 6.32c-.129-.236-.429-.44-.869-.611-.451-.172-.966-.258-1.545-.258-.837 0-1.46.129-1.867.397-.419.269-.623.612-.623 1.052 0 .43.215.783.633 1.04.43.258 1.041.387 1.835.387.58 0 1.095-.107 1.546-.311.45-.204.751-.462.901-.762v-.934h-.011zM172.47 56.488v4.572h5.645v-4.572h3.166v12.867h-3.166v-4.926h-5.645v4.926h-3.176V56.488h3.176zM197.238 62.937c0 .988-.182 1.889-.547 2.705a6.692 6.692 0 0 1-1.481 2.135 6.767 6.767 0 0 1-2.157 1.406 6.639 6.639 0 0 1-2.597.515 6.639 6.639 0 0 1-2.597-.515 7.125 7.125 0 0 1-2.157-1.406 6.902 6.902 0 0 1-1.492-2.135 6.634 6.634 0 0 1-.547-2.705c0-.965.183-1.867.547-2.693a6.53 6.53 0 0 1 1.492-2.157 6.803 6.803 0 0 1 2.157-1.427 6.639 6.639 0 0 1 2.597-.515c.912 0 1.781.171 2.597.515a6.825 6.825 0 0 1 2.157 1.427 6.906 6.906 0 0 1 1.481 2.157c.365.826.547 1.727.547 2.693zm-10.109-1.395c-.182.43-.279.891-.279 1.385 0 .504.086.955.279 1.373.183.419.44.773.762 1.073.322.3.708.537 1.148.698.44.16.913.247 1.406.247.505 0 .966-.086 1.395-.247a3.614 3.614 0 0 0 1.138-.698c.322-.3.579-.654.772-1.073.194-.418.29-.869.29-1.373 0-.494-.096-.966-.29-1.385a3.316 3.316 0 0 0-.772-1.084 3.43 3.43 0 0 0-1.138-.697 3.971 3.971 0 0 0-1.395-.247c-.493 0-.966.086-1.406.247a3.256 3.256 0 0 0-1.91 1.781zM204.556 56.488c.655 0 1.256.075 1.825.226.568.15 1.051.375 1.47.686a3.4 3.4 0 0 1 .987 1.149c.247.461.365.998.365 1.61 0 .536-.075.965-.236 1.309a3.289 3.289 0 0 1-.708.965c.483.312.88.709 1.191 1.191.311.473.461 1.074.461 1.814 0 .633-.129 1.191-.386 1.674a3.69 3.69 0 0 1-1.041 1.224c-.429.332-.934.59-1.513.761-.58.172-1.18.258-1.814.258h-5.548V56.488h4.947zm-1.899 2.951v2.179h2.243c.386 0 .687-.108.901-.322.215-.215.322-.462.322-.751 0-.3-.107-.558-.322-.773-.214-.215-.526-.322-.923-.322h-2.221v-.01zm0 4.744v2.22h2.919c.365 0 .654-.107.88-.31.214-.204.322-.483.322-.816 0-.279-.108-.537-.322-.762-.215-.225-.515-.332-.902-.332h-2.897zM221.565 56.488v12.867h-3.176v-3.82h-1.052l-2.597 3.82h-3.67l2.919-4.293c-.751-.386-1.33-.912-1.749-1.577-.419-.665-.622-1.47-.622-2.425 0-.72.128-1.352.375-1.921s.59-1.041 1.02-1.438a4.58 4.58 0 0 1 1.545-.901 5.958 5.958 0 0 1 1.921-.312h5.086zm-5.312 3.198c-.472 0-.837.14-1.094.408-.268.279-.397.6-.397.987 0 .397.139.72.429.966.279.247.644.365 1.073.365h2.146v-2.726h-2.157zM234.754 59.858h-3.97v9.497h-3.166v-9.497h-3.981v-3.37h11.117v3.37zM247.513 67.401c-.386.634-1.008 1.17-1.878 1.62-.869.452-1.877.677-3.026.677a6.7 6.7 0 0 1-2.564-.504 6.803 6.803 0 0 1-2.147-1.395 6.929 6.929 0 0 1-1.491-2.147c-.365-.826-.548-1.749-.548-2.747 0-.998.183-1.92.548-2.747a6.482 6.482 0 0 1 1.491-2.146 6.701 6.701 0 0 1 2.147-1.385 6.85 6.85 0 0 1 2.564-.483c1.149 0 2.146.226 2.984.677.837.45 1.448.987 1.813 1.599l-.901 2.65c-.333-.397-.805-.762-1.428-1.073-.611-.311-1.32-.472-2.124-.472-1.17 0-2.093.311-2.801.933-.698.623-1.052 1.45-1.052 2.458 0 1.02.354 1.835 1.052 2.468.697.633 1.631.944 2.801.944.815 0 1.534-.16 2.146-.493.612-.333 1.094-.698 1.449-1.095l.965 2.662zM259.232 56.488v12.867h-3.176v-3.82h-1.052l-2.597 3.82h-3.67l2.919-4.293c-.751-.386-1.33-.912-1.749-1.577-.419-.665-.622-1.47-.622-2.425 0-.72.128-1.352.375-1.921s.59-1.041 1.02-1.438a4.69 4.69 0 0 1 1.545-.901 5.958 5.958 0 0 1 1.921-.312h5.086zm-5.322 3.198c-.472 0-.837.14-1.095.408-.268.279-.397.6-.397.987 0 .397.14.72.429.966.279.247.644.365 1.073.365h2.147v-2.726h-2.157zM8.403 56.499l5.322 12.867-3.82-.011-3.026-7.544-3.016 7.544H.033l5.333-12.867 3.037.011z" fill="#EA0029"/></svg>