<svg id="Слой_1" data-name="Слой 1" xmlns="http://www.w3.org/2000/svg" viewBox="0 0 173.68 202.94"><defs><style>.cls-1,.cls-2{fill:#1e4f9b}.cls-1{fill-rule:evenodd}</style></defs><path class="cls-1" d="M196.62 319.94a32.57 32.57 0 0 0 18.76 12.38c21.76 5.23 53.37-2.1 68.08 25.18a28.25 28.25 0 0 1 2.53 5.81 25.86 25.86 0 0 0-1.25-8c15.21-24.62 45.64-17.85 66.79-22.93A32.52 32.52 0 0 0 370.28 320c0 1-.09 2-.09 3 .12 38.28-30.93 35.48-43.88 37.29-20.25 2.83-36.25 13-42.84 24.68v.05-.05c-6.59-11.67-22.18-22.29-42.84-24.68-14.07-1.63-44-.34-43.95-39.06v-1.2" transform="translate(-196.62 -181.99)"/><path class="cls-2" d="M299.27 195.6v-3.29H306v10h-2.45v-7.91h-1.95v1.22c0 4.92-1.51 6.8-4.33 6.8v-2.22c1.19-.15 2-1.02 2-4.6zM307.19 192.31h6.27v2.1h-3.82v1.82h3.05v2.1h-3.05v1.89h4v2.1h-6.46zM317.63 194.41h-3v-2.1h8.52v2.1h-3v7.91h-2.45zM329.53 192.31h2.58l3.4 10H333l-.62-2.1h-3.12l-.6 2.1h-2.52zm2.27 5.95-.56-1.95c-.18-.63-.41-1.72-.41-1.72s-.23 1.09-.41 1.72l-.57 1.95zM336.17 192.31h6.13v2.1h-3.68v7.91h-2.45zM345 199.89a1.72 1.72 0 0 0 1.1.51.8.8 0 0 0 .8-.52l-3.86-7.57h2.68l1.67 3.6a14.29 14.29 0 0 1 .54 1.34s.16-.63.39-1.33l1.23-3.61h2.58l-2.95 7.5c-.46 1.18-1.23 2.67-3 2.67a3.78 3.78 0 0 1-2.28-.75z" transform="translate(-196.62 -181.99)"/><path class="cls-1" d="m225.87 235.15-2.1 12.11-4.91 6.24-21.39-16.05-.1-14.5c0-19.67 5-29.25 24.11-37.8 27.38-9.88 47.46 7.57 71.46-3.11-2.31 15.78-14.38 30.7-33.12 28-14.51-2.12-24.87-1.2-30.38 1-9.06 3.69-16.09 10-16.17 13.11 3.8-3.87 9 1.17 13.21-.34z" transform="translate(-196.62 -181.99)"/><path class="cls-1" d="m197.47 237.45 21.39 16.05a28.92 28.92 0 0 1 4.71-4.71 24.44 24.44 0 0 1 35 5.65c2.51-8.76 7.33-19.83 16-28.64a54 54 0 0 0-66.93.52l-.07.06a53.49 53.49 0 0 0-4.54 4.1 30.57 30.57 0 0 0-5.57 7m110.85-22.38a53.81 53.81 0 1 1-27.19 93.81 63 63 0 0 0 13.12-25.48 26.86 26.86 0 1 0-4.65-16.2 25.36 25.36 0 0 0 0 2.76c-1.46 30.15-21.6 54.44-51.86 52.38a53.91 53.91 0 0 1-41.12-23.71L218.14 282a24.45 24.45 0 0 0 44.54-11 53.05 53.05 0 0 1 0-5.64c0-.29-.07-.57-.12-.86a53.73 53.73 0 0 1 16.26-35.06l.16.14a53.5 53.5 0 0 1 29.34-14.51z" transform="translate(-196.62 -181.99)"/><path class="cls-1" d="M289.58 268.58s1 13.91 9.9 20.52-9.17 26.21-9.17 26.21-16.32-8.86-17.48-19.45 16.75-27.28 16.75-27.28" transform="translate(-196.62 -181.99)"/></svg>