<svg height="512" width="512" xmlns="http://www.w3.org/2000/svg"><path d="M512 256c0 37.023-7.859 72.21-22 103.984-1.504 3.378-14.92-.713-16.564 2.586-18.383 36.901-45.413 68.739-78.436 92.86-3.369 2.461 5.042 12.273 1.551 14.57-40.344 26.551-88.644 42-140.551 42C114.615 512 0 397.385 0 256S114.615 0 256 0s256 114.615 256 256z" fill="#fb5858"/><path d="M490 109.463v250.521C469.965 405.002 437.32 443.17 396.551 470H115.449A257.417 257.417 0 0148 405.271V109.144c0-6.983 5.661-12.644 12.644-12.644h416.394c7.158 0 12.962 5.804 12.962 12.963z" fill="#def4f8"/><path d="M88.085 470H58c-5.523 0-10-4.477-10-10V109.144c0-6.983 5.661-12.644 12.644-12.644h30.085c-6.983 0-12.644 5.661-12.644 12.644V460c0 5.523 4.477 10 10 10z" fill="#c2eaf2"/><path d="M392.872 167.5a7.5 7.5 0 01-7.5 7.5h-90.745a7.5 7.5 0 010-15h90.745a7.5 7.5 0 017.5 7.5z" fill="#5596fb"/><path d="M250 227.5a7.5 7.5 0 017.5-7.5h165a7.5 7.5 0 010 15h-165a7.5 7.5 0 01-7.5-7.5zM422.5 250h-165a7.5 7.5 0 000 15h165a7.5 7.5 0 000-15zm0 30h-165a7.5 7.5 0 000 15h165a7.5 7.5 0 000-15zm-26.915 30h-111.17a7.5 7.5 0 000 15h111.17a7.5 7.5 0 000-15z" fill="#a6e0ec"/><path d="M395 385v10c0 8.284-6.716 15-15 15h-80c-8.284 0-15-6.716-15-15v-10c0-8.284 6.716-15 15-15h80c8.284 0 15 6.716 15 15zM200 256.18V502c0 5.523-4.477 10-10 10H10c-5.523 0-10-4.477-10-10V256.18a10 10 0 015.528-8.944l90-45a9.997 9.997 0 018.944 0l90 45A10 10 0 01200 256.18z" fill="#ffc14f"/><path d="M41.894 512H10c-5.523 0-10-4.477-10-10V256.18a10 10 0 015.528-8.944l26.366-13.183V502c0 5.523 4.477 10 10 10zm280.234-102H300c-8.284 0-15-6.716-15-15v-10c0-8.284 6.716-15 15-15h22.128c-8.284 0-15 6.716-15 15v10c0 8.284 6.715 15 15 15z" fill="#ffb52d"/><path d="M115.226 375.729a366.342 366.342 0 01-7.504-2.735V332.83c6.33 1.515 10.098 4.718 10.424 5.005 3.45 3.124 8.782 2.889 11.941-.539a8.492 8.492 0 00-.484-12c-.483-.446-8.597-7.756-21.881-9.75v-8.202a8.492 8.492 0 00-16.984 0v8.842a52.472 52.472 0 00-3.847 1.002c-12.149 3.66-21.227 14.057-23.69 27.134-2.246 11.924 1.574 23.42 9.969 30.004 4.452 3.492 9.976 6.689 17.569 10.068v50.921c-6.558-.484-11.105-2.093-18.552-6.963-3.927-2.567-9.19-1.467-11.756 2.458a8.492 8.492 0 002.458 11.756c10.858 7.102 18.272 9.221 27.849 9.76v9.182a8.492 8.492 0 0016.984 0v-9.856c19.055-3.738 30.182-19.452 32.648-34.128 3.172-18.869-6.698-35.274-25.144-41.795zM83.65 360.962c-3.386-2.656-4.827-7.827-3.759-13.495.956-5.08 4.305-11.193 10.846-13.659v31.691c-2.671-1.449-5.078-2.961-7.087-4.537zm39.971 53.746c-1.308 7.779-6.71 16.05-15.899 19.33v-42.95c.605.217 1.219.436 1.842.656 15.693 5.545 14.727 18.978 14.057 22.964z" fill="#fff"/><path d="M120 250c0 5.523-4.477 10-10 10H90c-5.523 0-10-4.477-10-10s4.477-10 10-10h20c5.523 0 10 4.477 10 10z" fill="#def4f8"/><path d="M100 260c-5.523 0-10-4.477-10-10V105.528c0-5.474 4.477-9.912 10-9.912s10 4.438 10 9.912V250c0 5.523-4.477 10-10 10z" fill="#0a3575"/><path d="M490 70v40H77.043C70.944 110 66 105.056 66 98.958V70c0-5.523 4.477-10 10-10h404c5.523 0 10 4.477 10 10z" fill="#5596fb"/><path d="M88.128 60c-5.523 0-10 4.477-10 10v40H48V70c0-5.523 4.477-10 10-10z" fill="#2476ed"/><path d="M82 85a8 8 0 11-16 0 8 8 0 0116 0zm18-8a8 8 0 100 16 8 8 0 000-16zm26 0a8 8 0 100 16 8 8 0 000-16z" fill="#0956c6"/><path d="M470 85a8 8 0 01-8 8H156a8 8 0 010-16h306a8 8 0 018 8z" fill="#fff"/></svg>